<svg width="127" height="137" viewBox="0 0 127 137" fill="none" xmlns="http://www.w3.org/2000/svg">
<path d="M116.82 66.8899C98.1001 48.1599 79.38 29.4399 60.66 10.7199C57.51 7.5699 54.4001 8.03991 52.3201 11.9799C43.2301 29.1499 34.14 46.3199 25.06 63.4899C24.61 64.3299 24.07 65.0599 23.4 65.7299C18.74 70.3699 14.12 75.04 9.45004 79.66C4.59004 84.47 2.91004 90.2299 4.23004 96.8899C4.37004 97.5699 4.25005 98.02 3.88005 98.55C2.15005 101 1.04005 103.71 0.740052 106.72C0.740052 108.16 0.740042 109.61 0.730042 111.05C0.700042 111.05 0.68004 111.04 0.65004 111.03C0.65004 111.57 0.620043 112.11 0.700043 112.65C1.44004 117.45 4.04005 121.16 7.91005 123.81C14.4601 128.31 21.33 128.39 28.18 124.38C29.33 123.71 30.37 123.52 31.64 123.76C35.27 124.47 38.76 123.9 42.04 122.28C43.14 121.74 43.81 121.95 44.62 122.77C47.67 125.89 50.79 128.95 53.87 132.05C55.96 134.16 58.27 135.83 61.36 136.06H64.7401C64.8701 135.8 65.1301 135.86 65.3501 135.82C68.5101 135.2 70.95 133.5 72.67 130.8C75.53 126.31 74.88 120.69 71.01 116.73C67.63 113.28 64.18 109.89 60.78 106.45C60.49 106.16 59.69 105.92 60.39 105.27C61.48 104.26 62.4001 103.08 63.7701 102.35C81.07 93.2199 98.36 84.0599 115.64 74.8999C119.22 72.9999 119.7 69.7399 116.84 66.8799L116.82 66.8899ZM12.25 115.28C9.88005 112.94 9.09005 110.08 9.78005 106.92C13.31 110.45 16.84 113.97 20.47 117.6C17.36 118.19 14.55 117.56 12.25 115.28ZM41.17 111.71C39.3 113.59 37.1 114.67 34.17 114.66C32.07 114.63 29.98 113.87 28.31 112.22C23.91 107.87 19.49 103.52 15.18 99.0699C11.8 95.5799 11.78 90.2699 15.18 86.7399C19.21 82.5399 23.4 78.5099 27.47 74.3499C28.3 73.4999 28.59 74.29 28.98 74.68C36.09 81.77 43.19 88.8699 50.28 95.9799C51.36 97.0599 53.2801 98.06 53.2401 99.31C53.2101 100.41 51.3801 101.48 50.3201 102.54C47.2701 105.6 44.21 108.64 41.17 111.7V111.71ZM64.3 122.76C64.87 123.33 65.44 123.9 65.36 124.55C65.33 125.74 64.92 126.41 64.06 126.81C63.14 127.24 62.29 127.06 61.59 126.39C60.49 125.36 59.45 124.28 58.39 123.22C56 120.83 53.6301 118.42 51.2101 116.06C50.5901 115.46 50.38 115.06 51.16 114.42C52.03 113.72 52.74 112.38 53.62 112.29C54.31 112.22 55.16 113.62 55.92 114.38C58.71 117.16 61.5 119.95 64.29 122.74L64.3 122.76ZM95.51 75.3899C84.35 81.2999 73.17 87.1899 62.0201 93.1399C61.0501 93.6599 60.54 93.53 59.79 92.78C51.42 84.35 43.0301 75.9499 34.6001 67.5899C33.8401 66.8399 33.7201 66.3299 34.2401 65.3699C41.8901 50.9899 49.5 36.5899 57.12 22.1899C57.35 21.7499 57.6 21.3099 57.79 20.9499C74.01 37.1799 90.19 53.3699 106.4 69.5899C102.85 71.4799 99.18 73.4499 95.5 75.3999L95.51 75.3899Z" fill="#E06939"/>
<path d="M0.729936 106.71C0.729936 108.15 0.729941 109.6 0.719941 111.04C0.689941 111.04 0.66994 111.03 0.63994 111.02C0.63994 110.9 0.63994 110.79 0.63994 110.67C0.69994 109.35 0.519946 108.02 0.739946 106.71H0.729936Z" fill="black"/>
<path d="M0.72998 106.71C0.72998 108.15 0.729986 109.6 0.719986 111.04C0.689986 111.04 0.669984 111.03 0.639984 111.02C0.589984 111.01 0.53999 110.99 0.48999 110.98V106.75C0.55999 106.7 0.63998 106.68 0.72998 106.7V106.71Z" fill="#5A5A5A"/>
<path d="M112.16 21.6398C109 24.9698 105.71 28.1698 102.43 31.3898C101.72 32.0898 100.73 32.3498 99.44 32.3698C97.88 32.2998 96.46 31.5197 95.64 29.8497C94.8 28.1297 94.92 26.3798 96.22 25.0098C99.36 21.7198 102.56 18.4998 105.86 15.3698C107.53 13.7798 110.21 14.0298 111.85 15.6598C113.48 17.2898 113.75 19.9698 112.16 21.6498V21.6398Z" fill="#131B53"/>
<path d="M86.1301 14.3298C86.0701 16.9198 84.0601 18.8798 81.5501 18.8398C79.1101 18.7998 77.1701 16.8499 77.1301 14.3099C77.0901 11.3099 77.0901 8.3198 77.1301 5.3198C77.1601 2.7798 79.1101 0.84991 81.5601 0.80991C84.0701 0.77991 86.0601 2.73982 86.1201 5.33982C86.1501 6.83982 86.1201 8.33981 86.1201 9.82981C86.1201 11.3198 86.1501 12.8298 86.1201 14.3298H86.1301Z" fill="#131B53"/>
<path d="M126.7 45.9398C126.67 48.3898 124.73 50.3199 122.19 50.3799C120.69 50.4099 119.2 50.3799 117.7 50.3799C116.2 50.3799 114.7 50.4099 113.21 50.3799C110.62 50.3199 108.65 48.3198 108.68 45.8198C108.71 43.3698 110.64 41.4199 113.18 41.3799C116.18 41.3399 119.17 41.3399 122.17 41.3799C124.76 41.4099 126.73 43.4298 126.7 45.9398Z" fill="#131B53"/>
</svg>
