<svg width="129" height="132" viewBox="0 0 129 132" fill="none" xmlns="http://www.w3.org/2000/svg">
<path d="M71.3601 15.8499C71.5201 15.9299 71.6901 15.9799 71.8901 16.0299C76.2501 16.9299 80.4601 18.2899 84.4701 20.2299C84.6401 20.3099 84.8001 20.3599 84.9401 20.3699L81.2001 23.1099C81.0501 23.0399 80.8901 22.9799 80.7401 22.9099C80.4801 22.7999 80.2201 22.6899 79.9601 22.5899C79.8901 22.5599 79.8301 22.5399 79.7601 22.5099C79.5501 22.4199 79.3401 22.3399 79.1301 22.2599C79.0301 22.2199 78.9401 22.1899 78.8501 22.1499C78.6001 22.0599 78.3601 21.9599 78.1101 21.8799C77.8401 21.7799 77.5702 21.6899 77.3002 21.5899C77.0302 21.4999 76.7601 21.4099 76.4901 21.3199C76.3801 21.2799 76.2802 21.2498 76.1702 21.2198C75.9702 21.1598 75.7701 21.0999 75.5701 21.0399C75.4701 21.0099 75.3601 20.9799 75.2601 20.9499C75.0601 20.8899 74.8602 20.8399 74.6602 20.7899C74.5902 20.7699 74.5201 20.7499 74.4401 20.7299C74.1701 20.6599 73.9001 20.5899 73.6201 20.5199C73.8001 20.9999 73.9902 21.4599 74.1602 21.9199C74.1802 21.9599 74.1901 21.9999 74.2101 22.0399L71.3701 15.8499H71.3601Z" fill="#E06939"/>
<path d="M7.94003 47.3899C15.04 33.1499 26.0601 23.3199 41.0501 17.9499C43.4801 17.0799 45.9901 16.4599 48.5901 15.8699L50.33 19.8199C50.09 19.6899 49.77 19.6899 49.33 19.7799C41.69 21.3899 34.6701 24.3999 28.3501 28.9999C21.2701 34.1499 15.79 40.6599 11.83 48.4599C11.72 48.6799 11.6201 48.9199 11.5101 49.1399C10.8101 50.5099 9.81004 50.9898 8.70004 50.4698C7.52004 49.9298 7.23003 48.8199 7.94003 47.3899Z" fill="#E06939" stroke="#E06939" stroke-width="2.41" stroke-miterlimit="10"/>
<path d="M1.97007 71.31V71.1501C1.97007 70.4601 2.02011 69.7701 2.14011 69.0901C2.26011 68.3801 2.35014 67.76 2.42014 67.06C2.76014 63.72 3.36009 60.43 4.24009 57.19C4.60009 55.88 5.6501 55.2 6.7501 55.51C7.8701 55.83 8.41015 56.88 8.05015 58.22C6.63015 63.61 5.95004 69.07 6.19004 74.64C6.20004 74.93 6.23011 75.22 6.26011 75.7C6.28011 75.68 6.31006 75.67 6.33006 75.66L6.82005 80.12C6.72005 80.24 6.68008 80.38 6.73008 80.58C6.86008 81.38 6.93007 82.0901 7.09007 82.7801C11.0701 100.26 21.2501 112.78 37.3001 120.62C37.6201 120.78 37.8901 120.84 38.1601 120.82L42.0501 123.23C42.0501 123.23 41.9901 123.27 41.9601 123.29C75.2701 135.32 111.48 111.82 113.71 75.81L117.87 73.38C117.8 73.58 117.77 73.8 117.76 74.06C117.44 87.15 113.19 98.85 104.92 108.98C95.6501 120.33 83.7301 127.25 69.2401 129.7C67.7801 129.95 66.4001 130.23 64.8401 130.39C64.5201 130.36 64.2001 130.43 63.8701 130.41H63.82C63.82 130.41 63.7801 130.41 63.7501 130.41C63.5101 130.41 63.3501 130.44 63.1401 130.42C63.1301 130.42 63.1201 130.42 63.1101 130.42H62.4601C62.4601 130.42 62.4001 130.42 62.3701 130.42C62.3401 130.42 62.2001 130.42 62.1601 130.42C62.0101 130.42 62.0901 130.44 61.8401 130.43H57.8102C57.5002 130.45 57.4601 130.43 57.2801 130.43H56.7001C56.6001 130.43 56.5302 130.43 56.4302 130.43C56.4002 130.43 56.3601 130.43 56.3301 130.43C56.0101 130.46 55.5801 130.43 55.2701 130.43C53.2601 130.14 51.2201 130.17 49.2201 129.79C39.0301 127.86 29.9801 123.53 22.1501 116.75C11.1301 107.21 4.60016 95.16 2.31016 80.79C2.06016 79.22 2.21005 77.62 2.07005 76.04C2.04005 75.75 2.12005 75.4401 2.07005 75.1501C2.03005 74.5901 1.99004 74.0201 1.94004 73.4601C1.94004 72.6901 1.92004 72.16 1.94004 71.3L1.97007 71.31Z" fill="#E06939" stroke="#E06939" stroke-width="2.41" stroke-miterlimit="10"/>
<path d="M8.64014 79.57C8.80014 79.38 9.09018 79.27 9.31018 79.12C15.2702 75.16 19.4401 71.79 25.3801 67.8C26.1801 67.26 26.5401 67.28 27.1001 68.12C30.6501 73.5 34.2601 78.84 37.8501 84.2C43.3501 92.41 48.8401 100.63 54.3801 108.81C54.9901 109.71 54.8501 110.04 54.0001 110.6C48.9801 113.86 45.8601 116.15 40.8801 119.48C40.5701 119.68 40.3002 119.8 40.0302 119.82L43.9202 122.23C45.6002 121.11 45.3601 121.05 46.9701 119.98C55.2401 114.5 63.5202 109.03 71.7902 103.55C74.8002 101.55 75.5002 99.2199 74.0402 95.9099C73.8502 95.4799 73.8901 95.28 74.2601 95.01C77.0001 92.96 79.8901 91.7299 83.4801 92.3499C86.2801 92.8399 88.9901 92.07 91.3901 90.53C94.9501 88.24 98.4601 85.9 101.98 83.56C103.05 82.85 103.31 81.69 102.7 80.74C102.05 79.74 100.89 79.54 99.7301 80.3C96.4001 82.48 93.0902 84.67 89.7802 86.88C87.8502 88.17 85.7301 88.75 83.4501 88.39C79.7201 87.81 76.4101 88.7199 73.3601 90.8499C71.5601 92.1099 71.5401 92.08 70.3201 90.24C63.6601 80.19 57.0101 70.1299 50.3201 60.0999C49.7601 59.2599 49.6501 58.53 49.8801 57.56C51.7401 49.66 53.6301 41.77 55.3401 33.84C56.9501 26.38 55.6101 19.37 51.6001 12.88C50.8501 11.66 50.3002 10.4299 50.6602 8.97995C51.4902 5.55995 55.3701 4.61996 58.1001 6.98996C65.0801 13.05 70.0302 20.39 72.6802 29.27C72.7502 29.51 72.8501 29.7399 72.9401 29.9799C73.6201 31.7199 74.8201 32.1299 76.3901 31.0999C81.7701 27.5499 87.1501 23.99 92.5201 20.43C94.0601 19.41 95.5701 18.37 97.1301 17.38C99.7101 15.73 102.82 16.31 104.46 18.7C106.15 21.17 105.53 24.3 102.96 26.08C101.14 27.34 99.2602 28.53 97.4202 29.78C96.1902 30.61 95.8802 31.75 96.5602 32.75C97.2502 33.77 98.3701 33.89 99.6501 33.06C100.85 32.29 102.01 31.47 103.21 30.7C105.84 29.02 109.04 29.6 110.64 32.03C112.28 34.52 111.61 37.63 109.03 39.4C107.27 40.61 105.47 41.76 103.7 42.95C102.35 43.85 101.99 44.93 102.66 45.99C103.36 47.09 104.5 47.18 105.94 46.24C107.06 45.5 108.17 44.75 109.29 44.02C111.94 42.31 115.07 42.84 116.73 45.27C118.45 47.79 117.8 50.8999 115.14 52.7199C113.27 53.9999 111.38 55.2199 109.5 56.4799C108.74 56.9899 108.33 57.68 108.54 58.62C108.72 59.43 109.24 59.92 110.04 60.14C110.72 60.33 111.27 60.05 111.81 59.71C113.07 58.89 114.31 58.0299 115.59 57.2299C118.17 55.5999 121.29 56.19 122.91 58.59C124.57 61.05 123.92 64.2499 121.35 65.9699C116.69 69.0899 112 72.18 107.32 75.26C106.52 75.79 106.01 76.46 106.17 77.45C106.3 78.26 106.82 78.78 107.61 79.03C108.33 79.26 108.92 78.97 109.49 78.59C110.7 77.8 111.91 77 113.22 76.13C113.37 76.03 113.53 75.92 113.69 75.82C113.69 75.83 113.69 75.85 113.69 75.86L117.85 73.43C117.98 73.05 118.23 72.76 118.65 72.5C120.25 71.5 121.8 70.42 123.37 69.38C126.55 67.27 128.12 64.29 127.71 60.51C127.29 56.67 125.07 54.08 121.43 52.77C120.84 52.56 120.64 52.48 120.9 51.77C122.89 46.39 120.55 41.4 115.15 39.45C114.51 39.22 114.53 39.05 114.72 38.52C116.72 33.1 114.47 28.2 109.04 26.19C108.37 25.94 108.36 25.74 108.61 25.15C109.22 23.74 109.48 22.2599 109.28 20.7299C108.34 13.5799 100.83 10.15 94.7902 14.11C91.8102 16.06 88.8501 18.03 85.8901 20C85.5501 20.22 85.2701 20.41 84.9001 20.38L81.1602 23.12C81.1202 23.15 81.0702 23.18 81.0302 23.21C79.4602 24.26 77.9701 25.24 76.4901 26.25C76.0201 26.57 75.8301 26.52 75.6301 25.95C75.2701 24.94 74.8901 23.93 74.4801 22.9C74.3901 22.67 74.3001 22.43 74.2001 22.19C74.1901 22.16 74.1702 22.12 74.1602 22.09V22.06H74.1501L71.3102 15.87C70.9702 15.7 70.7201 15.46 70.4901 15.09C67.7101 10.62 63.9501 7.01995 60.0801 3.53995C57.4801 1.19995 53.6101 0.989946 50.5901 2.78995C47.6001 4.56995 46.0801 7.97996 46.6401 11.37C46.9201 13.03 47.8602 14.36 48.6602 15.86C48.6202 15.87 48.5802 15.88 48.5402 15.89L50.2802 19.84C50.5302 19.98 50.7001 20.27 50.8501 20.75C51.9601 24.56 52.3502 28.4 51.5402 32.3C50.6302 36.64 49.6101 40.95 48.6201 45.28C47.9301 48.29 47.2201 51.3 46.4901 54.45C43.7701 52.09 41.2301 52.52 38.5201 54.33C28.5701 61 20.3801 67.01 10.4001 73.62C9.67015 74.1 8.94011 74.58 8.11011 75.13L8.6001 79.59L8.64014 79.57ZM30.7902 64.2199C34.3102 61.9599 37.7701 59.62 41.2701 57.31C42.6601 56.39 43.2101 56.5099 44.1401 57.9099C52.8301 71.0199 61.5101 84.14 70.1901 97.26C71.1601 98.73 71.0601 99.2599 69.5901 100.23C66.1401 102.52 62.6801 104.8 59.2201 107.08C58.9801 107.24 58.7301 107.4 58.4901 107.56C58.0501 107.45 57.9501 107.05 57.7501 106.75C53.4101 100.29 49.0801 93.83 44.7401 87.36C39.9601 80.24 35.2101 73.1 30.3901 66C29.7801 65.1 29.9302 64.76 30.7802 64.21L30.7902 64.2199Z" fill="#131B53" stroke="#131B53" stroke-width="2.41" stroke-linecap="round" stroke-linejoin="round"/>
</svg>
