<svg width="129" height="132" viewBox="0 0 129 132" fill="none" xmlns="http://www.w3.org/2000/svg">
<path d="M71.3601 16.0098C71.5201 16.0898 71.6901 16.1397 71.8901 16.1897C76.2501 17.0897 80.4601 18.4498 84.4701 20.3898C84.6401 20.4698 84.8001 20.5198 84.9401 20.5298L81.2001 23.2698C81.0501 23.1998 80.8901 23.1397 80.7401 23.0697C80.4801 22.9597 80.2201 22.8498 79.9601 22.7498C79.8901 22.7198 79.8301 22.6998 79.7601 22.6698C79.5501 22.5798 79.3401 22.4998 79.1301 22.4198C79.0301 22.3798 78.9401 22.3498 78.8501 22.3098C78.6001 22.2198 78.3601 22.1198 78.1101 22.0398C77.8401 21.9398 77.5702 21.8498 77.3002 21.7498C77.0302 21.6598 76.7601 21.5697 76.4901 21.4797C76.3801 21.4397 76.2802 21.4098 76.1702 21.3798C75.9702 21.3198 75.7701 21.2597 75.5701 21.1997C75.4701 21.1697 75.3601 21.1397 75.2601 21.1097C75.0601 21.0497 74.8602 20.9997 74.6602 20.9497C74.5902 20.9297 74.5201 20.9098 74.4401 20.8898C74.1701 20.8198 73.9001 20.7498 73.6201 20.6798C73.8001 21.1598 73.9902 21.6197 74.1602 22.0797C74.1802 22.1197 74.1901 22.1597 74.2101 22.1997L71.3701 16.0098H71.3601Z" fill="#E06939"/>
<path d="M7.94003 47.5498C15.04 33.3098 26.0601 23.4797 41.0501 18.1097C43.4801 17.2397 45.9901 16.6198 48.5901 16.0298L50.33 19.9797C50.09 19.8497 49.77 19.8497 49.33 19.9397C41.69 21.5497 34.6701 24.5598 28.3501 29.1598C21.2701 34.3098 15.79 40.8198 11.83 48.6198C11.72 48.8398 11.6201 49.0798 11.5101 49.2998C10.8101 50.6698 9.81004 51.1498 8.70004 50.6298C7.52004 50.0898 7.23003 48.9798 7.94003 47.5498Z" fill="#E06939" stroke="#E06939" stroke-width="2.41" stroke-miterlimit="10"/>
<path d="M1.97007 71.4799V71.3199C1.97007 70.6299 2.02011 69.9399 2.14011 69.2599C2.26011 68.5499 2.35014 67.9299 2.42014 67.2299C2.76014 63.8899 3.36009 60.5999 4.24009 57.3599C4.60009 56.0499 5.6501 55.37 6.7501 55.68C7.8701 56 8.41015 57.0499 8.05015 58.3899C6.63015 63.7799 5.95004 69.24 6.19004 74.81C6.20004 75.1 6.23011 75.3899 6.26011 75.8699C6.28011 75.8499 6.31006 75.8399 6.33006 75.8299L6.82005 80.2899C6.72005 80.4099 6.68008 80.5499 6.73008 80.7499C6.86008 81.5499 6.93007 82.2599 7.09007 82.9499C11.0701 100.43 21.2501 112.95 37.3001 120.79C37.6201 120.95 37.8901 121.01 38.1601 120.99L42.0501 123.4C42.0501 123.4 41.9901 123.44 41.9601 123.46C75.2701 135.49 111.48 111.99 113.71 75.9799L117.87 73.55C117.8 73.75 117.77 73.9699 117.76 74.2299C117.44 87.3199 113.19 99.0199 104.92 109.15C95.6501 120.5 83.7301 127.42 69.2401 129.87C67.7801 130.12 66.4001 130.4 64.8401 130.56C64.5201 130.53 64.2001 130.6 63.8701 130.58H63.82C63.82 130.58 63.7801 130.58 63.7501 130.58C63.5101 130.58 63.3501 130.61 63.1401 130.59C63.1301 130.59 63.1201 130.59 63.1101 130.59H62.4601C62.4601 130.59 62.4001 130.59 62.3701 130.59C62.3401 130.59 62.2001 130.59 62.1601 130.59C62.0101 130.59 62.0901 130.61 61.8401 130.6H57.8102C57.5002 130.62 57.4601 130.6 57.2801 130.6H56.7001C56.6001 130.6 56.5302 130.6 56.4302 130.6C56.4002 130.6 56.3601 130.6 56.3301 130.6C56.0101 130.63 55.5801 130.6 55.2701 130.6C53.2601 130.31 51.2201 130.34 49.2201 129.96C39.0301 128.03 29.9801 123.7 22.1501 116.92C11.1301 107.38 4.60016 95.3299 2.31016 80.9599C2.06016 79.3899 2.21005 77.7899 2.07005 76.2099C2.04005 75.9199 2.12005 75.6099 2.07005 75.3199C2.03005 74.7599 1.99004 74.1899 1.94004 73.6299C1.94004 72.8599 1.92004 72.3299 1.94004 71.4699L1.97007 71.4799Z" fill="#E06939" stroke="#E06939" stroke-width="2.41" stroke-miterlimit="10"/>
<path d="M8.64014 79.7299C8.80014 79.5399 9.09018 79.4299 9.31018 79.2799C15.2702 75.3199 19.4401 71.9499 25.3801 67.9599C26.1801 67.4199 26.5401 67.4399 27.1001 68.2799C30.6501 73.6599 34.2601 78.9999 37.8501 84.3599C43.3501 92.5699 48.8401 100.79 54.3801 108.97C54.9901 109.87 54.8501 110.2 54.0001 110.76C48.9801 114.02 45.8601 116.31 40.8801 119.64C40.5701 119.84 40.3002 119.96 40.0302 119.98L43.9202 122.39C45.6002 121.27 45.3601 121.21 46.9701 120.14C55.2401 114.66 63.5202 109.19 71.7902 103.71C74.8002 101.71 75.5002 99.3799 74.0402 96.0699C73.8502 95.6399 73.8901 95.44 74.2601 95.17C77.0001 93.12 79.8901 91.8899 83.4801 92.5099C86.2801 92.9999 88.9901 92.2298 91.3901 90.6898C94.9501 88.3998 98.4601 86.0599 101.98 83.7199C103.05 83.0099 103.31 81.8499 102.7 80.8999C102.05 79.8999 100.89 79.6999 99.7301 80.4599C96.4001 82.6399 93.0902 84.8299 89.7802 87.0399C87.8502 88.3299 85.7301 88.91 83.4501 88.55C79.7201 87.97 76.4101 88.8799 73.3601 91.0099C71.5601 92.2699 71.5401 92.2399 70.3201 90.3999C63.6601 80.3499 57.0101 70.2899 50.3201 60.2599C49.7601 59.4199 49.6501 58.6899 49.8801 57.7199C51.7401 49.8199 53.6301 41.9299 55.3401 33.9999C56.9501 26.5399 55.6101 19.5299 51.6001 13.0399C50.8501 11.8199 50.3002 10.5899 50.6602 9.13992C51.4902 5.71992 55.3701 4.77993 58.1001 7.14993C65.0801 13.2099 70.0302 20.55 72.6802 29.43C72.7502 29.67 72.8501 29.8999 72.9401 30.1399C73.6201 31.8799 74.8201 32.2899 76.3901 31.2599C81.7701 27.7099 87.1501 24.1499 92.5201 20.5899C94.0601 19.5699 95.5701 18.5299 97.1301 17.5399C99.7101 15.8899 102.82 16.4699 104.46 18.8599C106.15 21.3299 105.53 24.4599 102.96 26.2399C101.14 27.4999 99.2602 28.6898 97.4202 29.9398C96.1902 30.7698 95.8802 31.9099 96.5602 32.9099C97.2502 33.9299 98.3701 34.0499 99.6501 33.2199C100.85 32.4499 102.01 31.6299 103.21 30.8599C105.84 29.1799 109.04 29.7598 110.64 32.1898C112.28 34.6798 111.61 37.79 109.03 39.56C107.27 40.77 105.47 41.9199 103.7 43.1099C102.35 44.0099 101.99 45.0899 102.66 46.1499C103.36 47.2499 104.5 47.3399 105.94 46.3999C107.06 45.6599 108.17 44.91 109.29 44.18C111.94 42.47 115.07 43 116.73 45.43C118.45 47.95 117.8 51.0599 115.14 52.8799C113.27 54.1599 111.38 55.3799 109.5 56.6399C108.74 57.1499 108.33 57.8399 108.54 58.7799C108.72 59.5899 109.24 60.08 110.04 60.3C110.72 60.49 111.27 60.2099 111.81 59.8699C113.07 59.0499 114.31 58.1899 115.59 57.3899C118.17 55.7599 121.29 56.3499 122.91 58.7499C124.57 61.2099 123.92 64.4099 121.35 66.1299C116.69 69.2499 112 72.34 107.32 75.42C106.52 75.95 106.01 76.6199 106.17 77.6099C106.3 78.4199 106.82 78.9398 107.61 79.1898C108.33 79.4198 108.92 79.1299 109.49 78.7499C110.7 77.9599 111.91 77.1599 113.22 76.2899C113.37 76.1899 113.53 76.0799 113.69 75.9799C113.69 75.9899 113.69 76.0099 113.69 76.0199L117.85 73.5899C117.98 73.2099 118.23 72.9199 118.65 72.6599C120.25 71.6599 121.8 70.5799 123.37 69.5399C126.55 67.4299 128.12 64.45 127.71 60.67C127.29 56.83 125.07 54.24 121.43 52.93C120.84 52.72 120.64 52.64 120.9 51.93C122.89 46.55 120.55 41.5599 115.15 39.6099C114.51 39.3799 114.53 39.21 114.72 38.68C116.72 33.26 114.47 28.3599 109.04 26.3499C108.37 26.0999 108.36 25.9 108.61 25.31C109.22 23.9 109.48 22.4199 109.28 20.8899C108.34 13.7399 100.83 10.3099 94.7902 14.2699C91.8102 16.2199 88.8501 18.1899 85.8901 20.1599C85.5501 20.3799 85.2701 20.5699 84.9001 20.5399L81.1602 23.2799C81.1202 23.3099 81.0702 23.3399 81.0302 23.3699C79.4602 24.4199 77.9701 25.3999 76.4901 26.4099C76.0201 26.7299 75.8301 26.6799 75.6301 26.1099C75.2701 25.0999 74.8901 24.09 74.4801 23.06C74.3901 22.83 74.3001 22.5899 74.2001 22.3499C74.1901 22.3199 74.1702 22.2799 74.1602 22.2499V22.2199H74.1501L71.3102 16.0299C70.9702 15.8599 70.7201 15.6199 70.4901 15.2499C67.7101 10.7799 63.9501 7.17986 60.0801 3.69986C57.4801 1.35986 53.6101 1.14986 50.5901 2.94986C47.6001 4.72986 46.0801 8.13994 46.6401 11.5299C46.9201 13.1899 47.8602 14.5199 48.6602 16.0199C48.6202 16.0299 48.5802 16.04 48.5402 16.05L50.2802 19.9999C50.5302 20.1399 50.7001 20.4299 50.8501 20.9099C51.9601 24.7199 52.3502 28.5599 51.5402 32.4599C50.6302 36.7999 49.6101 41.1098 48.6201 45.4398C47.9301 48.4498 47.2201 51.4599 46.4901 54.6099C43.7701 52.2499 41.2301 52.6799 38.5201 54.4899C28.5701 61.1599 20.3801 67.1699 10.4001 73.7799C9.67015 74.2599 8.94011 74.7399 8.11011 75.2899L8.6001 79.7499L8.64014 79.7299ZM30.7902 64.3799C34.3102 62.1199 37.7701 59.7799 41.2701 57.4699C42.6601 56.5499 43.2101 56.6699 44.1401 58.0699C52.8301 71.1799 61.5101 84.3 70.1901 97.42C71.1601 98.89 71.0601 99.4199 69.5901 100.39C66.1401 102.68 62.6801 104.96 59.2201 107.24C58.9801 107.4 58.7301 107.56 58.4901 107.72C58.0501 107.61 57.9501 107.21 57.7501 106.91C53.4101 100.45 49.0801 93.9899 44.7401 87.5199C39.9601 80.3999 35.2101 73.2599 30.3901 66.1599C29.7801 65.2599 29.9302 64.9199 30.7802 64.3699L30.7902 64.3799Z" fill="#131B53" stroke="#131B53" stroke-width="2.41" stroke-linecap="round" stroke-linejoin="round"/>
</svg>
