<svg width="129" height="132" viewBox="0 0 129 132" fill="none" xmlns="http://www.w3.org/2000/svg">
<path d="M58.0099 115.82C57.8499 115.74 57.6799 115.69 57.4799 115.64C53.1199 114.74 48.9099 113.38 44.8999 111.44C44.7299 111.36 44.5699 111.31 44.4299 111.3L48.1699 108.56C48.3199 108.63 48.4799 108.69 48.6299 108.76C48.8899 108.87 49.1499 108.98 49.4099 109.08C49.4799 109.11 49.5399 109.13 49.6099 109.16C49.8199 109.25 50.0299 109.33 50.2399 109.41C50.3399 109.45 50.4299 109.48 50.5199 109.52C50.7699 109.61 51.0099 109.71 51.2599 109.79C51.5299 109.89 51.7999 109.98 52.0699 110.08C52.3399 110.17 52.6099 110.26 52.8799 110.35C52.9899 110.39 53.0899 110.42 53.1999 110.45C53.3999 110.51 53.5999 110.57 53.7999 110.63C53.8999 110.66 54.0099 110.69 54.1099 110.72C54.3099 110.78 54.5099 110.83 54.7099 110.88C54.7799 110.9 54.8499 110.92 54.9299 110.94C55.1999 111.01 55.4699 111.08 55.7499 111.15C55.5699 110.67 55.3799 110.21 55.2099 109.75C55.1899 109.71 55.1799 109.67 55.1599 109.63L57.9999 115.82H58.0099Z" fill="#E06939"/>
<path d="M121.43 84.2799C114.33 98.5199 103.31 108.35 88.3201 113.72C85.8901 114.59 83.38 115.21 80.78 115.8L79.04 111.85C79.28 111.98 79.6 111.98 80.04 111.89C87.68 110.28 94.7 107.27 101.02 102.67C108.1 97.5199 113.58 91.0099 117.54 83.2099C117.65 82.9899 117.75 82.7499 117.86 82.5299C118.56 81.1599 119.56 80.6799 120.67 81.1999C121.85 81.7399 122.14 82.8499 121.43 84.2799Z" fill="#E06939" stroke="#E06939" stroke-width="2.41" stroke-miterlimit="10"/>
<path d="M127.4 60.3599V60.5199C127.4 61.2099 127.35 61.8999 127.23 62.5799C127.11 63.2899 127.02 63.9099 126.95 64.6099C126.61 67.9499 126.01 71.2399 125.13 74.4799C124.77 75.7899 123.72 76.4699 122.62 76.1599C121.5 75.8399 120.96 74.7899 121.32 73.4499C122.74 68.0599 123.42 62.5999 123.18 57.0299C123.17 56.7399 123.14 56.4499 123.11 55.9699C123.09 55.9899 123.06 55.9999 123.04 56.0099L122.55 51.5499C122.65 51.4299 122.69 51.2899 122.64 51.0899C122.51 50.2899 122.44 49.5799 122.28 48.8899C118.3 31.4099 108.12 18.8899 92.07 11.0499C91.75 10.8899 91.48 10.8299 91.21 10.8499L87.32 8.43991C87.32 8.43991 87.38 8.39991 87.41 8.37991C54.1 -3.65009 17.89 19.8499 15.66 55.8599L11.5 58.2899C11.57 58.0899 11.6 57.8699 11.61 57.6099C11.93 44.5199 16.18 32.8199 24.45 22.6899C33.72 11.3399 45.64 4.41988 60.13 1.96988C61.59 1.71988 62.97 1.43993 64.53 1.27993C64.85 1.30993 65.17 1.23992 65.5 1.25992H65.55C65.55 1.25992 65.59 1.25992 65.62 1.25992C65.86 1.25992 66.02 1.22991 66.23 1.24991C66.24 1.24991 66.25 1.24991 66.26 1.24991H66.91C66.91 1.24991 66.97 1.24991 67 1.24991C67.03 1.24991 67.17 1.24991 67.21 1.24991C67.36 1.24991 67.28 1.2299 67.53 1.2399H71.56C71.87 1.2199 71.91 1.2399 72.09 1.2399H72.67C72.77 1.2399 72.84 1.2399 72.94 1.2399C72.97 1.2399 73.01 1.2399 73.04 1.2399C73.36 1.2099 73.79 1.2399 74.1 1.2399C76.11 1.5299 78.15 1.49991 80.15 1.87991C90.34 3.80991 99.39 8.13989 107.22 14.9199C118.24 24.4599 124.77 36.5099 127.06 50.8799C127.31 52.4499 127.16 54.0499 127.3 55.6299C127.33 55.9199 127.25 56.2299 127.3 56.5199C127.34 57.0799 127.38 57.6499 127.43 58.2099C127.43 58.9799 127.45 59.5099 127.43 60.3699L127.4 60.3599Z" fill="#E06939" stroke="#E06939" stroke-width="2.41" stroke-miterlimit="10"/>
<path d="M120.73 52.0999C120.57 52.2899 120.28 52.3999 120.06 52.5499C114.1 56.5099 109.93 59.8799 103.99 63.8699C103.19 64.4099 102.83 64.3899 102.27 63.5499C98.72 58.1699 95.11 52.8299 91.52 47.4699C86.02 39.2599 80.53 31.0399 74.99 22.8599C74.38 21.9599 74.52 21.6299 75.37 21.0699C80.39 17.8099 83.51 15.5199 88.49 12.1899C88.8 11.9899 89.07 11.8699 89.34 11.8499L85.45 9.43994C83.77 10.5599 84.01 10.6199 82.4 11.6899C74.13 17.1699 65.85 22.6399 57.58 28.1199C54.57 30.1199 53.87 32.4499 55.33 35.7599C55.52 36.1899 55.48 36.3899 55.11 36.6599C52.37 38.7099 49.48 39.9399 45.89 39.3199C43.09 38.8299 40.38 39.6 37.98 41.14C34.42 43.43 30.91 45.7699 27.39 48.1099C26.32 48.8199 26.06 49.9799 26.67 50.9299C27.32 51.9299 28.48 52.1299 29.64 51.3699C32.97 49.1899 36.28 46.9999 39.59 44.7899C41.52 43.4999 43.64 42.92 45.92 43.28C49.65 43.86 52.96 42.9499 56.01 40.8199C57.81 39.5599 57.83 39.5899 59.05 41.4299C65.71 51.4799 72.36 61.5399 79.05 71.5699C79.61 72.4099 79.72 73.1399 79.49 74.1099C77.63 82.0099 75.74 89.9 74.03 97.83C72.42 105.29 73.76 112.3 77.77 118.79C78.52 120.01 79.07 121.24 78.71 122.69C77.88 126.11 74 127.05 71.27 124.68C64.29 118.62 59.34 111.28 56.69 102.4C56.62 102.16 56.52 101.93 56.43 101.69C55.75 99.9499 54.55 99.5399 52.98 100.57C47.6 104.12 42.22 107.68 36.85 111.24C35.31 112.26 33.8 113.3 32.24 114.29C29.66 115.94 26.55 115.36 24.91 112.97C23.22 110.5 23.84 107.37 26.41 105.59C28.23 104.33 30.11 103.14 31.95 101.89C33.18 101.06 33.49 99.9199 32.81 98.9199C32.12 97.8999 31 97.7799 29.72 98.6099C28.52 99.3799 27.36 100.2 26.16 100.97C23.53 102.65 20.33 102.07 18.73 99.64C17.09 97.15 17.76 94.04 20.34 92.27C22.1 91.06 23.9 89.9099 25.67 88.7199C27.02 87.8199 27.38 86.7399 26.71 85.6799C26.01 84.5799 24.87 84.4899 23.43 85.4299C22.31 86.1699 21.2 86.92 20.08 87.65C17.43 89.36 14.3 88.83 12.64 86.4C10.92 83.88 11.57 80.77 14.23 78.95C16.1 77.67 17.99 76.4499 19.87 75.1899C20.63 74.6799 21.04 73.9899 20.83 73.0499C20.65 72.2399 20.13 71.75 19.33 71.53C18.65 71.34 18.1 71.62 17.56 71.96C16.3 72.78 15.06 73.6399 13.78 74.4399C11.2 76.0699 8.08003 75.48 6.46003 73.08C4.80003 70.62 5.45003 67.42 8.02003 65.7C12.68 62.58 17.37 59.4899 22.05 56.4099C22.85 55.8799 23.36 55.2099 23.2 54.2199C23.07 53.4099 22.55 52.89 21.76 52.64C21.04 52.41 20.45 52.7 19.88 53.08C18.67 53.87 17.46 54.6699 16.15 55.5399C16 55.6399 15.84 55.7499 15.68 55.8499C15.68 55.8399 15.68 55.8199 15.68 55.8099L11.52 58.2399C11.39 58.6199 11.14 58.9099 10.72 59.1699C9.12004 60.1699 7.57003 61.2499 6.00003 62.2899C2.82003 64.3999 1.25004 67.3799 1.66004 71.1599C2.08004 74.9999 4.30004 77.59 7.94004 78.9C8.53004 79.11 8.73004 79.19 8.47004 79.9C6.48004 85.28 8.82004 90.2699 14.22 92.2199C14.86 92.4499 14.84 92.62 14.65 93.15C12.65 98.57 14.9 103.47 20.33 105.48C21 105.73 21.01 105.93 20.76 106.52C20.15 107.93 19.89 109.41 20.09 110.94C21.03 118.09 28.54 121.52 34.58 117.56C37.56 115.61 40.52 113.64 43.48 111.67C43.82 111.45 44.1 111.26 44.47 111.29L48.21 108.55C48.25 108.52 48.3 108.49 48.34 108.46C49.91 107.41 51.4 106.43 52.88 105.42C53.35 105.1 53.54 105.15 53.74 105.72C54.1 106.73 54.48 107.74 54.89 108.77C54.98 109 55.07 109.24 55.17 109.48C55.18 109.51 55.2 109.55 55.21 109.58V109.61H55.22L58.06 115.8C58.4 115.97 58.65 116.21 58.88 116.58C61.66 121.05 65.42 124.65 69.29 128.13C71.89 130.47 75.76 130.68 78.78 128.88C81.77 127.1 83.29 123.69 82.73 120.3C82.45 118.64 81.51 117.31 80.71 115.81C80.75 115.8 80.79 115.79 80.83 115.78L79.09 111.83C78.84 111.69 78.67 111.4 78.52 110.92C77.41 107.11 77.02 103.27 77.83 99.3699C78.74 95.0299 79.76 90.72 80.75 86.39C81.44 83.38 82.15 80.3699 82.88 77.2199C85.6 79.5799 88.14 79.15 90.85 77.34C100.8 70.67 108.99 64.6599 118.97 58.0499C119.7 57.5699 120.43 57.0899 121.26 56.5399L120.77 52.08L120.73 52.0999ZM98.58 67.45C95.06 69.71 91.6 72.0499 88.1 74.3599C86.71 75.2799 86.16 75.1599 85.23 73.7599C76.54 60.6499 67.86 47.5299 59.18 34.4099C58.21 32.9399 58.31 32.4099 59.78 31.4399C63.23 29.1499 66.69 26.87 70.15 24.59C70.39 24.43 70.64 24.2699 70.88 24.1099C71.32 24.2199 71.42 24.6199 71.62 24.9199C75.96 31.3799 80.29 37.8399 84.63 44.3099C89.41 51.4299 94.16 58.5699 98.98 65.6699C99.59 66.5699 99.44 66.91 98.59 67.46L98.58 67.45Z" fill="#131B53" stroke="#131B53" stroke-width="2.41" stroke-linecap="round" stroke-linejoin="round"/>
</svg>
