<svg width="113" height="113" viewBox="0 0 113 113" fill="none" xmlns="http://www.w3.org/2000/svg">
<path d="M84.48 108.17V5.42993C84.48 5.16993 84.48 4.91992 84.48 4.66992C84.43 2.50992 83.76 1.58993 81.73 0.929932H3.39004C1.34004 1.58993 0.89005 2.2199 0.88005 4.3999V4.61987C0.88005 39.4099 0.88005 74.1999 0.88005 109C0.88005 109.47 0.860052 109.94 0.960052 110.41C1.22005 111.65 1.95004 112.39 3.18004 112.66C3.62004 112.76 4.05004 112.75 4.48004 112.75C29.86 112.75 55.24 112.75 80.62 112.75C80.8 112.75 80.98 112.75 81.16 112.75C82.63 112.72 83.62 112.02 84.17 110.65C84.5 109.85 84.4601 109.01 84.4601 108.18L84.48 108.17ZM77.58 56.8999C77.58 72.9399 77.5801 88.9699 77.6001 105.01C77.6001 105.92 77.39 106.13 76.48 106.12C53.86 106.09 31.24 106.09 8.61005 106.12C7.70005 106.12 7.49005 105.91 7.49005 105.01C7.52005 72.8599 7.52005 40.7198 7.49005 8.56982C7.49005 7.65982 7.70005 7.45984 8.61005 7.45984C31.23 7.48984 53.85 7.48984 76.48 7.45984C77.38 7.45984 77.6001 7.66983 77.6001 8.57983C77.5701 24.6898 77.58 40.7999 77.58 56.9099V56.8999Z" fill="#E06939"/>
<path d="M110.93 83.3899C111.97 82.9499 112.57 82.1399 112.72 80.9999V11.3999C112.45 11.0599 112.46 10.6699 112.53 10.2699C112.55 10.2699 112.58 10.2699 112.6 10.2699C112.72 5.9699 107.64 0.869917 103.35 1.03992C103.35 1.03992 103.34 1.03992 103.33 1.03992C103.33 1.06992 103.35 1.08987 103.36 1.11987C102.96 1.18987 102.57 1.21993 102.23 0.929932H100.92C100.58 1.19993 100.2 1.18987 99.8 1.11987C99.82 1.08987 99.83 1.05991 99.83 1.02991C99.78 1.02991 99.74 1.02992 99.69 1.03992C98.22 1.01992 96.91 1.49992 95.7 2.28992C92.03 4.66992 90.14 8.05982 90.14 12.4398C90.12 34.7298 90.14 57.0199 90.14 79.2999C90.14 79.5499 90.14 79.8099 90.14 80.0599C90.19 81.4799 90.77 82.6199 92.03 83.2899C92.83 83.7099 92.91 84.2098 92.61 84.9698C91.9 86.7998 91.29 88.6699 90.58 90.4999C90.08 91.7999 90.14 92.9999 90.73 94.2799C92.21 97.5199 93.71 100.75 95.19 103.99C96.23 106.27 97.24 108.57 98.37 110.81C99 112.06 99.96 112.73 101.4 112.74C103.37 112.74 104.28 112.18 105.11 110.33C106.57 107.08 108.14 103.88 109.56 100.61C110.65 98.0899 112.15 95.7299 112.72 92.9899V91.6799C112.55 90.4999 112.19 89.3699 111.77 88.2499C111.33 87.0599 110.9 85.8599 110.46 84.6699C110.23 84.0499 110.27 83.6499 110.93 83.3699V83.3899ZM97.05 11.9299C97.11 9.34993 99.21 7.41986 101.73 7.47986C104.18 7.52986 106.12 9.52994 106.17 12.0599C106.19 13.4799 106.17 14.8899 106.17 16.3099C106.17 17.8699 106.15 19.4299 106.18 20.9899C106.19 21.5099 106.04 21.6699 105.51 21.6599C102.9 21.6299 100.28 21.6299 97.67 21.6599C97.12 21.6599 97.01 21.4598 97.01 20.9698C97.03 17.9598 96.97 14.9399 97.04 11.9299H97.05ZM105.73 92.5599C104.38 95.4699 103.04 98.3899 101.61 101.5C100.76 99.6599 99.95 98.0098 99.22 96.3298C98.6 94.9098 97.44 93.5499 97.47 92.0599C97.5 90.6199 98.39 89.1899 98.9 87.7599C99.33 86.5699 99.82 85.3899 100.17 84.1699C100.43 83.2499 101.1 83.5599 101.66 83.5299C102.2 83.5099 102.77 83.3499 103.05 84.1599C103.9 86.6599 104.83 89.1399 105.73 91.6199C105.84 91.9299 105.89 92.2199 105.73 92.5499V92.5599ZM105.18 77.0099C102.75 76.9499 100.31 76.9699 97.88 76.9999C97.24 76.9999 97.01 76.8599 97.01 76.1599C97.03 60.4299 97.03 44.6898 97.01 28.9598C97.01 28.3298 97.2 28.1699 97.81 28.1799C100.32 28.2099 102.83 28.2299 105.33 28.1799C106.11 28.1599 106.18 28.4599 106.18 29.1099C106.16 36.9599 106.17 44.8099 106.17 52.6599C106.17 60.5099 106.16 68.2099 106.19 75.9899C106.19 76.7899 106.03 77.0399 105.19 77.0199L105.18 77.0099Z" fill="#131B53"/>
<path d="M69.8001 48.8497C69.8001 50.8697 68.3101 52.1498 65.9201 52.1498C62.6501 52.1498 59.3801 52.1498 56.1101 52.1498C52.8401 52.1498 49.3501 52.1698 45.9801 52.1498C43.4701 52.1298 41.8701 49.9297 42.7001 47.7197C43.1901 46.4097 44.3601 45.6297 45.9501 45.6197C49.8401 45.5997 53.7201 45.6197 57.6101 45.6197C60.3701 45.6197 63.1301 45.6197 65.8901 45.6197C68.3101 45.6197 69.8001 46.8597 69.8101 48.8597L69.8001 48.8497Z" fill="#131B53"/>
<path d="M69.7999 29.0098C69.7999 30.9698 68.3299 32.2999 66.1199 32.2999C59.4399 32.2999 52.7499 32.3099 46.0699 32.2999C44.1499 32.2999 42.7899 31.1898 42.4999 29.4498C42.2599 28.0098 43.2099 26.4798 44.6699 25.9398C45.1999 25.7398 45.7399 25.7598 46.2799 25.7598C49.5899 25.7598 52.8899 25.7598 56.1999 25.7598C59.5099 25.7598 62.8099 25.7598 66.1199 25.7598C68.3499 25.7598 69.7999 27.0598 69.8099 29.0098H69.7999Z" fill="#131B53"/>
<path d="M69.8001 68.7198C69.8001 70.6798 68.3301 71.9998 66.1201 71.9998C59.4401 71.9998 52.7601 71.9998 46.0701 71.9998C44.1501 71.9998 42.7901 70.8898 42.5001 69.1498C42.2601 67.7098 43.2201 66.1798 44.6701 65.6398C45.2001 65.4398 45.7401 65.4598 46.2801 65.4598C49.5901 65.4598 52.8901 65.4598 56.1901 65.4598C59.4901 65.4598 62.8001 65.4598 66.1101 65.4598C68.3401 65.4598 69.7901 66.7698 69.7901 68.7198H69.8001Z" fill="#131B53"/>
<path d="M67.41 92.4698C66.96 92.5898 66.48 92.5898 66.01 92.5898C62.7 92.5898 59.4 92.5898 56.09 92.5898C52.78 92.5898 49.48 92.5898 46.17 92.5898C43.96 92.5898 42.47 91.2498 42.47 89.3198C42.47 87.4098 44.01 86.0499 46.18 86.0499C52.9 86.0499 59.62 86.0399 66.34 86.0499C68.19 86.0499 69.56 87.2198 69.76 88.8998C69.96 90.5498 68.99 92.0398 67.4 92.4698H67.41Z" fill="#131B53"/>
<path d="M35.3602 25.27C32.0602 28.6 28.7602 31.9299 25.4102 35.2099C24.0102 36.5899 22.1501 36.53 20.7301 35.16C19.1601 33.65 17.6302 32.09 16.1002 30.54C15.4902 29.92 15.1801 29.16 15.1501 28.14C15.2001 26.94 15.7502 25.91 16.9902 25.31C18.2702 24.69 19.4701 24.87 20.5401 25.78C21.2601 26.39 21.9202 27.07 22.5502 27.77C22.9702 28.24 23.2201 28.1999 23.6501 27.7599C25.9401 25.4199 28.2602 23.12 30.5802 20.81C31.5202 19.87 32.6201 19.4599 33.9501 19.8599C35.2201 20.2399 35.9702 21.1099 36.2402 22.3699C36.4802 23.4799 36.1402 24.48 35.3602 25.27Z" fill="#131B53"/>
<path d="M35.3301 45.1499C32.0601 48.4599 28.7801 51.7599 25.4501 55.0199C24.0001 56.4399 22.1401 56.3899 20.6901 54.9799C19.1501 53.4899 17.6501 51.9598 16.1301 50.4398C15.4901 49.7998 15.1401 49.02 15.1501 47.81C15.2001 46.75 15.7801 45.7299 17.0201 45.1499C18.3101 44.5499 19.5101 44.7499 20.5601 45.6599C21.2501 46.2499 21.8901 46.8999 22.4901 47.5799C22.9301 48.0799 23.1901 48.0799 23.6701 47.5799C25.9501 45.2399 28.2801 42.9299 30.6001 40.6299C31.5101 39.7199 32.5901 39.3298 33.8801 39.6898C35.1501 40.0498 35.9201 40.8899 36.2201 42.1599C36.4901 43.3199 36.1401 44.3399 35.3301 45.1499Z" fill="#131B53"/>
<path d="M35.3502 64.98C32.0502 68.31 28.7501 71.6401 25.4001 74.9201C24.0001 76.2901 22.1402 76.23 20.7202 74.86C19.1502 73.34 17.6201 71.79 16.0901 70.24C15.4801 69.62 15.1602 68.87 15.1602 67.72C15.2002 66.64 15.7602 65.6101 17.0002 65.0101C18.2802 64.4001 19.4902 64.58 20.5502 65.48C21.2702 66.09 21.9302 66.77 22.5602 67.47C22.9902 67.94 23.2402 67.88 23.6602 67.45C25.9502 65.11 28.2701 62.81 30.5901 60.5C31.5301 59.56 32.6302 59.1601 33.9602 59.5601C35.2302 59.9401 35.9702 60.81 36.2502 62.08C36.4902 63.19 36.1402 64.19 35.3602 64.98H35.3502Z" fill="#131B53"/>
</svg>
