<svg width="124" height="127" viewBox="0 0 124 127" fill="none" xmlns="http://www.w3.org/2000/svg">
<path d="M99.8198 84.0199H99.9398C99.8998 84.2399 99.8899 84.3999 99.8599 84.5399C96.3499 101.34 80.2998 114.62 63.0698 114.86C54.2298 114.98 45.3899 114.89 36.5499 114.89C35.7799 114.89 35.0299 114.91 34.2999 115.21C30.1499 116.92 25.9998 118.61 21.8398 120.29C21.1798 120.55 20.5598 120.95 19.6898 120.97C19.6898 116.64 19.6498 112.34 19.7098 108.05C19.7298 106.73 19.3298 105.79 18.3298 104.92C2.45983 91.0899 1.52988 67.1499 11.6299 52.2799C18.2999 42.4499 27.5298 36.6399 39.3398 34.9999C42.5798 34.5499 45.8298 34.6799 49.0898 34.6399C50.3798 34.6199 51.0799 33.9799 51.0999 32.8899C51.1199 31.8099 50.4099 31.0499 49.1699 31.0399C45.2299 31.0099 41.2999 30.9599 37.3899 31.6199C19.1699 34.7199 5.02993 48.8999 2.04993 67.0499C1.82993 68.3599 1.94988 69.7298 1.37988 70.9798V72.9099C1.77988 74.1199 1.76988 75.3199 1.37988 76.5299V78.4598C1.76988 78.5898 1.60989 78.9199 1.63989 79.1699C2.68989 90.2299 7.24987 99.5599 15.3699 107.14C15.8899 107.62 16.0998 108.09 16.0898 108.79C16.0898 113.17 16.1199 117.55 16.1499 121.93C16.1699 124.9 17.5798 125.88 20.3398 124.79C25.2198 122.85 30.0799 120.88 34.9299 118.89C35.5799 118.62 36.2099 118.5 36.8999 118.5C45.0599 118.51 53.2199 118.5 61.3699 118.51C64.7999 118.51 68.2099 118.25 71.5099 117.35C88.3799 112.75 99.0499 101.98 103.42 85.0299C103.57 84.4499 103.76 84.0199 104.14 83.6799C102.16 83.6499 100.78 83.7899 99.8099 84.0099L99.8198 84.0199ZM57.5299 34.6399C58.7299 34.6699 59.9399 34.6399 61.1499 34.6399C66.5499 34.6499 71.7599 35.5699 76.7499 37.6799C77.1099 37.8299 77.3999 37.9499 77.5399 38.2699C77.8299 36.7199 77.7399 35.0498 77.6199 33.9798C77.4199 34.0498 77.1499 33.9799 76.7399 33.8099C70.5399 31.3099 64.0398 30.8499 57.4598 31.0299C56.2598 31.0599 55.4799 31.8499 55.4999 32.8799C55.5199 33.9199 56.2899 34.6099 57.5299 34.6299V34.6399Z" fill="#E06939" stroke="#E06939" stroke-width="1.8" stroke-linecap="round" stroke-linejoin="round"/>
<path d="M100.85 16.65C99.6597 16.62 98.9098 17.2299 98.8098 18.2399C98.6998 19.2999 99.3797 20.0599 100.6 20.2399C100.92 20.2899 101.24 20.3 101.56 20.31C104.16 20.44 106.63 21.0799 108.97 22.1999C118.1 26.5499 121.26 38.7099 115.53 47.3499C114.46 48.9599 113.23 50.44 112 51.93C110.02 54.32 108.2 56.7899 107.04 59.7099C106.64 60.7199 106.88 62.22 105.89 62.67C104.96 63.1 103.68 62.71 102.56 62.79C101.74 62.85 101.54 62.55 101.55 61.78C101.59 58.85 101.6 55.9099 101.55 52.9799C101.53 52.0999 101.76 51.6899 102.63 51.3399C106.13 49.9099 107.89 45.95 106.73 42.37C105.56 38.76 101.72 36.63 98.0098 37.53C95.0798 38.24 92.7598 40.9099 92.5198 43.8399C92.2498 47.2199 93.9497 50.12 96.9497 51.39C97.4497 51.6 97.9897 51.6299 97.9697 52.4499C97.9197 55.6199 97.9297 58.7999 97.9697 61.9799C97.9697 62.6299 97.7398 62.81 97.1298 62.78C96.2098 62.74 95.2697 62.7 94.3597 62.78C93.5597 62.86 93.2397 62.5799 93.0897 61.8199C92.6497 59.6299 91.6797 57.66 90.4697 55.79C88.9597 53.46 87.1098 51.3899 85.3698 49.2299C81.5398 44.4999 80.3797 39.15 81.7397 33.28C83.1097 27.38 86.8097 23.5 92.4497 21.4C93.7097 20.93 94.2298 20.02 93.8898 19.03C93.5098 17.94 92.5097 17.53 91.2197 18.01C84.1297 20.66 79.6798 25.6399 78.1198 33.0799C77.9998 33.6399 77.8698 33.92 77.6298 34C77.7498 35.06 77.8398 36.73 77.5498 38.29C77.6098 38.41 77.6398 38.56 77.6398 38.76C77.7398 43.24 79.3098 47.22 82.0098 50.76C83.1798 52.29 84.4098 53.77 85.6198 55.28C87.2898 57.36 88.7397 59.55 89.4697 62.16C89.6197 62.69 89.6397 62.99 89.0797 63.3C88.0597 63.87 87.5598 64.84 87.5398 66C87.4998 67.93 87.4898 69.86 87.5398 71.79C87.5898 73.25 88.3197 74.6 89.7297 74.75C91.5397 74.94 91.4297 75.94 91.3397 77.15C91.3197 77.39 91.3397 77.63 91.3397 77.87C91.4297 81.26 94.1097 83.95 97.4897 84.04C98.2497 84.06 99.0197 84.04 99.8297 84.04C100.8 83.82 102.18 83.6799 104.16 83.7099C104.32 83.5599 104.53 83.43 104.77 83.3C106.96 82.21 108.07 80.33 108.2 77.89C108.24 77.21 108.25 76.5199 108.2 75.8399C108.15 75.2299 108.36 75.0599 108.97 74.9699C111.01 74.6599 111.98 73.4999 112.02 71.4399C112.05 69.7499 112.02 68.06 112.02 66.38C112.02 65.04 111.58 63.9299 110.38 63.2399C109.95 62.9899 109.89 62.76 110.02 62.29C110.5 60.62 111.24 59.07 112.19 57.62C113.37 55.84 114.77 54.2299 116.12 52.5899C119.11 48.9699 121.36 45.0199 121.81 40.2199C123.18 25.4099 112.55 16.98 100.84 16.66L100.85 16.65ZM96.0897 44.65C96.0897 42.63 97.7097 40.96 99.7097 40.92C101.7 40.89 103.4 42.55 103.43 44.55C103.47 46.64 101.82 48.3299 99.7498 48.3199C97.7198 48.3199 96.0997 46.69 96.0897 44.65ZM104.55 78.0799C104.41 79.3799 103.36 80.35 102.04 80.39C100.52 80.44 98.9997 80.44 97.4797 80.39C96.1097 80.34 95.0997 79.3099 94.9597 77.9499C94.7531 76.0032 95.6198 75.03 97.5598 75.03H99.8397C101.2 75.03 102.56 75.03 103.93 75.03C104.32 75.03 104.64 75.0199 104.61 75.5699C104.57 76.4099 104.65 77.2599 104.56 78.0899L104.55 78.0799ZM107.48 71.42C104.91 71.37 102.34 71.4 99.7598 71.4C97.1798 71.4 94.6198 71.37 92.0398 71.42C91.2998 71.43 91.0497 71.2299 91.0897 70.4699C91.1497 69.3499 91.1397 68.2199 91.0897 67.0999C91.0697 66.5099 91.2797 66.3499 91.8497 66.3599C97.1097 66.3799 102.38 66.3799 107.64 66.3599C108.34 66.3599 108.42 66.6499 108.4 67.2199C108.37 68.3099 108.34 69.3899 108.4 70.4799C108.44 71.2199 108.2 71.44 107.45 71.43L107.48 71.42Z" fill="#131B53" stroke="#131B53" stroke-width="0.9" stroke-miterlimit="10"/>
<path d="M1.38989 72.9102C1.78989 74.1202 1.77989 75.3202 1.38989 76.5302C1.58989 75.3202 1.58989 74.1202 1.38989 72.9102Z" fill="#E06939"/>
<path d="M101.61 4.47998C101.55 5.87998 101.62 7.28995 101.59 8.69995C101.56 10.04 100.86 10.76 99.7299 10.73C98.6399 10.7 98.0199 10.01 97.9899 8.70996C97.9599 7.30996 98.0299 5.88999 97.9699 4.48999C97.9199 3.38999 98.16 2.46002 99.06 1.77002H100.51C101.43 2.45002 101.67 3.36998 101.62 4.47998H101.61Z" fill="#E06939" stroke="#E06939" stroke-width="1.8" stroke-miterlimit="10"/>
<path d="M1.38989 76.5302V72.9102C1.78989 74.1202 1.77989 75.3202 1.38989 76.5302Z" fill="#E06939"/>
<path d="M75.9897 76.55C75.5697 76.67 75.1198 76.68 74.6798 76.68C60.2598 76.68 45.8398 76.68 31.4298 76.68C31.0298 76.68 30.6197 76.6699 30.2397 76.5699C29.2897 76.3199 28.8298 75.6399 28.9098 74.6899C28.9898 73.7999 29.5197 73.2199 30.4397 73.1099C30.8397 73.0599 31.2398 73.0699 31.6398 73.0699C38.7898 73.0699 45.9397 73.0699 53.0897 73.0699C60.2397 73.0699 67.3898 73.0699 74.5398 73.0699C74.9398 73.0699 75.3497 73.0699 75.7397 73.1099C76.6697 73.2399 77.1697 73.8499 77.2397 74.7299C77.3097 75.6099 76.8797 76.3 75.9797 76.55H75.9897Z" fill="#131B53" stroke="#131B53" stroke-width="0.9" stroke-miterlimit="10"/>
<path d="M77.2698 87.1501C77.2698 88.2401 76.4299 88.9401 75.0299 88.9401C69.3699 88.9401 63.6999 88.9401 58.0399 88.9401H53.0998C45.9098 88.9401 38.7199 88.9401 31.5299 88.9401C31.0499 88.9401 30.5498 88.9601 30.0998 88.8201C29.3398 88.5901 28.9199 88.0001 28.8999 87.2001C28.8799 86.3501 29.2998 85.7201 30.1198 85.4701C30.5698 85.3301 31.0699 85.3301 31.5499 85.3301C45.8899 85.3301 60.2199 85.3301 74.5599 85.3301C74.7199 85.3301 74.8799 85.3301 75.0399 85.3301C76.4399 85.3801 77.2799 86.0601 77.2799 87.1501H77.2698Z" fill="#131B53" stroke="#131B53" stroke-width="0.9" stroke-miterlimit="10"/>
<path d="M65.8799 62.8298C65.7799 63.5098 65.3999 63.9999 64.7399 64.2599C64.2799 64.4399 63.7899 64.4099 63.3099 64.4099H31.5199C31.3199 64.4099 31.1199 64.4099 30.9199 64.4099C29.6199 64.3399 28.8399 63.6099 28.8799 62.5199C28.9199 61.4799 29.6799 60.8099 30.9299 60.7999C34.3799 60.7799 37.8299 60.7999 41.2899 60.7999H47.3099C52.6899 60.7999 58.0698 60.7999 63.4498 60.7999C64.0498 60.7999 64.6699 60.7299 65.1799 61.1399C65.7299 61.5699 65.9799 62.1398 65.8799 62.8298Z" fill="#131B53" stroke="#131B53" stroke-width="0.9" stroke-miterlimit="10"/>
<path d="M122.41 10.9698C121.1 12.4298 119.67 13.7899 118.26 15.1699C117.98 15.4399 117.58 15.5999 117.27 15.5299C116.43 15.5199 115.9 15.1699 115.59 14.5599C115.25 13.8999 115.26 13.1799 115.77 12.6499C117.1 11.2499 118.45 9.86982 119.86 8.56982C120.61 7.87982 121.51 7.96982 122.24 8.68982C122.93 9.37982 123.03 10.2799 122.4 10.9799L122.41 10.9698Z" fill="#E06939" stroke="#E06939" stroke-width="1.8" stroke-miterlimit="10"/>
<path d="M84.1398 13.6998C84.1598 14.4098 83.8498 14.9399 83.2498 15.2899C82.5898 15.6699 81.8697 15.6798 81.3397 15.1898C79.8997 13.8498 78.4998 12.4699 77.1698 11.0199C76.5398 10.3299 76.5998 9.42985 77.2698 8.71985C77.9698 7.97985 78.8898 7.83991 79.6398 8.52991C81.0898 9.84991 82.4397 11.2898 83.8197 12.6898C84.0797 12.9598 84.1498 13.3298 84.1398 13.6998Z" fill="#E06939" stroke="#E06939" stroke-width="1.8" stroke-miterlimit="10"/>
</svg>
