<?xml version="1.0" encoding="UTF-8"?>
<svg xmlns="http://www.w3.org/2000/svg" version="1.1" viewBox="0 0 106.97 106.97">
  <defs>
    <style>
      .cls-1 {
        fill: none;
      }

      .cls-2 {
        stroke: #ee6126;
      }

      .cls-2, .cls-3, .cls-4 {
        fill: #ee6126;
      }

      .cls-2, .cls-4, .cls-5 {
        stroke-miterlimit: 10;
        stroke-width: 1.09px;
      }

      .cls-4, .cls-5 {
        stroke: #131956;
      }

      .cls-5 {
        fill: #131956;
      }
    </style>
  </defs>
  <!-- Generator: Adobe Illustrator 28.6.0, SVG Export Plug-In . SVG Version: 1.2.0 Build 709)  -->
  <g>
    <g id="Camada_1">
      <g>
        <path class="cls-2" d="M103.14,64.16c0-.52-.2-1.02-.38-1.5-2.08-5.39-9.1-6.87-13.65-2.87-4.68,4.12-9.35,8.28-14.03,12.41-.71.64-1.41,1.24-2.25,1.97,1.88-6.42-2.93-11.15-8.47-11.01-9.39.24-18.8.07-28.21.06-5.16-.01-9.77,1.57-13.83,4.72-5.79,4.48-11.56,8.98-17.34,13.45-.91.71-1.32,1.51-1.3,2.66.04,5.53.04,11.06,0,16.59-.01,1.32.38,2.26,1.57,2.84h22.86c.4-.21.85-.27,1.23-.54,3.1-2.22,6.24-4.36,9.34-6.59.79-.58,1.61-.83,2.62-.83,8.71.03,17.43.06,26.16,0,4.53-.03,8.49-1.7,11.88-4.7.83-.74,1.64-1.5,2.46-2.22,3.59-3.15,7.1-6.39,10.68-9.56,2.31-2.05,4.6-4.12,6.89-6.18,1.87-1.67,3.82-3.3,3.95-6.1v-1.57c-.23-.31,0-.71-.16-1.03ZM97.7,68.21c-6.2,5.57-12.39,11.13-18.6,16.71-.86.78-1.74,1.56-2.62,2.35-2.76,2.52-6.01,3.75-9.76,3.73-9.01-.01-18.04.01-27.05-.01-.89,0-1.63.23-2.35.75-3.31,2.36-6.65,4.68-9.97,7.02-.41.3-.81.45-1.33.45-5.73-.03-11.46-.03-17.19,0-.66,0-.88-.13-.86-.83.03-4.36.01-8.73,0-13.08,0-.52.14-.88.58-1.22,5.59-4.31,11.13-8.69,16.72-12.99,3.08-2.36,6.62-3.55,10.52-3.56h14.16c5.11,0,10.21-.01,15.33.01,1.81,0,3.35,1.34,3.64,3.07.31,1.88-.69,3.66-2.43,4.29-.62.23-1.27.25-1.92.25h-19.14c-.33,0-.65-.01-.98.01-.96.1-1.75.86-1.88,1.82-.13.96.41,1.91,1.32,2.26.44.17.89.2,1.34.2,8.23-.01,16.48-.01,24.71,0,2.35,0,4.36-.79,6.13-2.36,5.25-4.67,10.52-9.31,15.77-13.99,1.09-.96,2.29-1.44,3.75-1.23,1.54.21,2.69.99,3.21,2.48.52,1.53.07,2.82-1.1,3.88Z"/>
        <path class="cls-3" d="M103.3,65.2c-.3-.31-.23-.67-.16-1.03.05.02.11.04.16.06v.98Z"/>
        <g>
          <path class="cls-4" d="M65.85,34.98h-.01c.19.17.37.36.54.54-.17-.2-.35-.37-.53-.54ZM71.07,45.5c-.04-.39-.1-.77-.16-1.16.07.38.12.76.15,1.16.09.87.14,1.46.09,1.86.08-.39.02-.98-.08-1.86Z"/>
          <path class="cls-5" d="M75.42,45.85c-.53-6.38-3.37-11.51-8.35-15.49-1.61-1.29-3.4-2.25-5.3-3.08,6.59-5.63,6.42-14.53,1.19-19.86-5.13-5.25-13.8-5.25-18.93,0-5.21,5.3-5.43,14.21,1.2,19.87-.21.1-.33.16-.45.22-3.47,1.48-6.39,3.71-8.72,6.69-3.69,4.7-4.86,10.11-4.6,15.94.08,1.53.97,2.33,2.55,2.33h38.96c1.66,0,2.53-.86,2.54-2.54.03-1.35.02-2.71-.1-4.09ZM44.5,16.79c0-5.01,4.04-9.05,9.07-9.01,4.95.01,8.94,4.07,8.93,9.06-.01,4.99-4,8.95-9.01,8.94-5,0-8.98-3.98-8.98-8.98ZM71.14,47.37c-.02.12-.04.21-.09.29-.03.09-.1.16-.16.22-.34.29-1.04.29-2.34.29h-15.14c-3.88,0-7.75,0-11.62.01-1.66,0-3.32.01-4.98.02-.05,0-.12,0-.16-.01-.05,0-.11,0-.15-.01-.24-.02-.4-.08-.52-.19-.04-.04-.08-.08-.11-.13-.02-.02-.03-.04-.03-.08-.02-.03-.03-.07-.04-.11-.05-.15-.07-.35-.05-.6.26-6.92,4.36-12.52,9.84-15.21.92-.46,1.86-.83,2.84-1.1.98-.28,1.98-.48,3.01-.58,2.23-.22,4.37-.1,6.38.38.52.12,1.04.26,1.55.44.52.17,1.04.37,1.54.6,1.77.78,3.41,1.91,4.95,3.37h.01c.19.17.36.35.53.54.54.54,1.04,1.12,1.48,1.72.29.4.58.81.83,1.23.92,1.46,1.57,3.05,1.98,4.76.09.37.16.74.23,1.11.07.38.12.76.16,1.16.1.88.15,1.47.08,1.86Z"/>
        </g>
        <g>
          <path class="cls-1" d="M71.14,47.37c-.02.12-.04.21-.09.29s-.1.15-.16.22c-.34.29-1.04.29-2.34.29h-15.14c-3.88,0-7.75,0-11.62.01-1.66,0-3.31,0-4.98.01h-.16c-.05,0-.11,0-.15-.01-.24-.02-.4-.08-.52-.19-.04-.04-.08-.08-.11-.13-.02-.02-.03-.04-.03-.08-.02-.03-.03-.07-.04-.11-.05-.15-.07-.35-.05-.6.26-6.92,4.36-12.52,9.84-15.21.92-.45,1.86-.82,2.84-1.1.98-.27,1.98-.47,3.01-.57,2.23-.22,4.37-.1,6.38.37.52.12,1.04.26,1.55.44.52.17,1.04.37,1.54.6,1.77.78,3.41,1.91,4.95,3.37.19.17.37.36.54.54.54.54,1.04,1.12,1.48,1.72.29.4.58.81.83,1.23.92,1.46,1.57,3.05,1.98,4.76.09.37.16.74.23,1.11.07.38.12.76.15,1.16.09.87.14,1.46.09,1.86Z"/>
          <path class="cls-3" d="M65.85,34.98c.19.17.36.35.53.54-.17-.19-.36-.37-.54-.54h.01Z"/>
          <path class="cls-3" d="M71.14,47.37c.05-.4,0-.99-.09-1.86-.03-.39-.09-.77-.15-1.16.07.38.12.76.16,1.16.1.88.15,1.47.08,1.86Z"/>
        </g>
      </g>
    </g>
  </g>
</svg>