<?xml version="1.0" encoding="UTF-8"?>
<svg xmlns="http://www.w3.org/2000/svg" version="1.1" viewBox="0 0 106.97 106.97">
  <defs>
    <style>
      .cls-1 {
        fill: #131956;
      }

      .cls-2 {
        fill: #ee6126;
      }
    </style>
  </defs>
  <!-- Generator: Adobe Illustrator 28.6.0, SVG Export Plug-In . SVG Version: 1.2.0 Build 709)  -->
  <g>
    <g id="Camada_1">
      <g>
        <path class="cls-2" d="M93.82,16.84c-.05-1.17-.68-1.93-1.63-2.48-.69-.4-1.45-.55-2.25-.55h-4.68c-2.01,0-1.89.12-1.89-1.93-.01-1.66.02-3.32-.01-4.98-.05-2.18-1.32-3.42-3.51-3.41-1.14,0-2.27.12-3.4.3-19.77,3.29-39.55,6.6-59.32,9.89-.7.12-1.42.2-2.08.5-1.16.52-1.91,1.33-1.89,2.64v83.6c0,.13.01.26.02.38.11,1.53.78,2.26,2.42,2.68h75.66c1.78-.47,2.34-1.14,2.58-3.04.05-.46.04-.92.04-1.36V18.59c0-.58-.04-1.16-.07-1.75ZM20.63,96.15c-.81.14-.91-.04-.89-.77.01-12.39.01-24.78.01-37.17s.01-24.65-.02-36.97c0-.77.17-1.03.97-1.16,10.85-1.77,21.7-3.59,32.55-5.4,7.52-1.26,15.04-2.49,22.55-3.78.72-.13.8.05.8.68-.01,24.82-.01,49.62,0,74.44,0,.58-.11.82-.77.93-11.72,1.92-23.42,3.88-35.14,5.84-6.69,1.11-13.38,2.2-20.06,3.37ZM87.16,95.76c0,.85-.17,1.13-1.09,1.12-9.19-.03-18.39-.02-27.59-.02h-1.16s-.01-.09-.01-.14c2.87-.48,5.73-.96,8.6-1.44,4.77-.79,9.53-1.57,14.3-2.38,1.82-.31,2.83-1.5,2.94-3.33.02-.36.01-.71.01-1.08,0-22.21,0-44.41-.03-66.62,0-.94.21-1.28,1.16-1.14.93.13,2.16-.4,2.69.21.46.52.15,1.73.15,2.63,0,24.06-.01,48.12.02,72.18Z"/>
        <path class="cls-2" d="M13.07,16.84c.06,0,.12-.01.17-.03,0,.45.02.91.02,1.36,0,27.08,0,54.17,0,81.25,0,.45-.02.91-.03,1.36-.06.04-.12.03-.17-.03V16.84Z"/>
        <path class="cls-1" d="M65.87,32.07c-3.64.63-7.31,1.17-10.96,1.74-7.37,1.15-14.74,2.3-22.12,3.43-.67.11-1.33.3-2.02.21-1.71-.22-2.91-1.52-2.95-3.22-.04-1.67,1.09-3.06,2.81-3.33,3.78-.61,7.56-1.18,11.34-1.77,7.35-1.14,14.69-2.28,22.04-3.41.38-.06.77-.11.94-.13,1.92-.01,3.34,1.2,3.53,2.82.2,1.81-.81,3.34-2.6,3.65Z"/>
        <path class="cls-1" d="M65.87,49.61c-3.64.63-7.31,1.17-10.96,1.74-7.37,1.15-14.74,2.3-22.12,3.43-.67.11-1.33.3-2.02.21-1.71-.22-2.91-1.52-2.95-3.22-.04-1.67,1.09-3.06,2.81-3.33,3.78-.61,7.56-1.18,11.34-1.77,7.35-1.14,14.69-2.28,22.04-3.41.38-.06.77-.11.94-.13,1.92-.01,3.34,1.2,3.53,2.82.2,1.81-.81,3.34-2.6,3.65Z"/>
        <path class="cls-1" d="M65.87,68.37c-3.64.63-7.31,1.17-10.96,1.74-7.37,1.15-14.74,2.3-22.12,3.43-.67.11-1.33.3-2.02.21-1.71-.22-2.91-1.52-2.95-3.22-.04-1.67,1.09-3.06,2.81-3.33,3.78-.61,7.56-1.18,11.34-1.77,7.35-1.14,14.69-2.28,22.04-3.41.38-.06.77-.11.94-.13,1.92-.01,3.34,1.2,3.53,2.82.2,1.81-.81,3.34-2.6,3.65Z"/>
      </g>
    </g>
  </g>
</svg>