<?xml version="1.0" encoding="UTF-8"?>
<svg xmlns="http://www.w3.org/2000/svg" version="1.1" viewBox="0 0 106.97 106.97">
  <defs>
    <style>
      .cls-1 {
        fill: none;
      }

      .cls-2, .cls-3 {
        fill: #e96128;
      }

      .cls-3 {
        stroke: #e96128;
        stroke-miterlimit: 10;
        stroke-width: 1.09px;
      }

      .cls-4 {
        fill: #131956;
      }
    </style>
  </defs>
  <!-- Generator: Adobe Illustrator 28.6.0, SVG Export Plug-In . SVG Version: 1.2.0 Build 709)  -->
  <g>
    <g id="Camada_1">
      <g>
        <path class="cls-3" d="M103.32,8.48c-.58-.02-1.17,0-1.75,0-2.3-.02-4.62,0-6.93-.02-1.08,0-1.17-.11-1.21-1.15-.02-.52.02-1.03-.02-1.53-.11-1.55-.86-2.28-2.41-2.28-2.68-.02-5.36-.02-8.04,0-1.39,0-2.14.65-2.36,2.02-.11.65-.07,1.3-.05,1.94,0,.65-.25,1.01-.95,1.01-2.48,0-4.97.02-7.45,0-.72,0-.95-.36-.95-1.01,0-.68.04-1.37-.11-2.03-.29-1.33-1.01-1.93-2.36-1.93-2.68-.02-5.36-.02-8.04,0-1.48,0-2.27.76-2.36,2.23-.05.61-.02,1.22-.04,1.84,0,.56-.23.88-.85.9-2.61.02-5.24.02-7.84,0-.61,0-.85-.32-.85-.9-.02-.61.02-1.22-.04-1.84-.09-1.49-.86-2.23-2.34-2.23-2.66-.02-5.31-.02-7.95,0-1.55,0-2.3.67-2.52,2.21-.07.61-.05,1.22-.05,1.84s-.31.92-.94.92c-2.48.02-4.97,0-7.45,0-.7,0-.95-.34-.95-1.01,0-.63.04-1.3-.07-1.93-.22-1.37-.97-2.03-2.34-2.03-2.72-.02-5.43-.02-8.17,0-1.4,0-2.18.76-2.3,2.18-.02.27-.02.54-.02.81,0,2.05.14,1.98-2.02,2-2.55,0-5.09-.02-7.65,0-2.14,0-2.75.63-2.75,2.73v89.58c0,.23-.02.49,0,.72.09,1.3.47,1.67,1.8,1.87,13.48,0,26.97,0,40.44-.02.38,0,.76.05,1.12-.05,1.26-.34,1.91-1.13,1.8-2.19-.09-1.12-.97-1.84-2.28-1.87h-.81c-12.27,0-24.54-.02-36.81.02-.9,0-1.1-.2-1.1-1.1.02-22.63.02-45.28,0-67.94-.02-.92.25-1.08,1.1-1.08,31.38.02,62.75.04,94.13,0,.9,0,1.1.2,1.1,1.1-.02,22.65-.02,45.28,0,67.94.02.94-.25,1.08-1.1,1.08-12.49-.02-24.95-.02-37.44-.02-1.37,0-2.25.61-2.45,1.67-.22,1.04.36,1.89,1.58,2.37.36.16.74.07,1.12.07,13.39.02,26.79.02,40.19.02,1.49-.02,1.67-.16,2.16-1.53V10.23c-.5-1.46-.86-1.71-2.45-1.75ZM84.96,8.39c0-.54.16-.7.68-.68.92.04,1.84.05,2.75,0,.58-.02.68.2.67.7-.04,1.33-.02,2.64-.02,3.98s-.02,2.57.02,3.87c.02.52-.13.72-.68.68-.92-.04-1.84-.04-2.73,0-.56.04-.68-.18-.68-.7.02-2.61.02-5.22,0-7.84ZM62.67,8.32c0-.41.07-.63.54-.61.99.04,1.98.04,2.95,0,.54-.02.61.25.59.68-.02,1.3,0,2.57,0,3.87s-.04,2.59.02,3.87c.02.59-.13.86-.77.81-.92-.05-1.84-.02-2.75,0-.45.02-.58-.14-.58-.58.02-2.68.02-5.36,0-8.04ZM40.98,7.73c.92.02,1.84.04,2.75-.02.52-.02.68.14.68.68-.05,1.33-.02,2.64-.02,3.98,0,1.24-.04,2.5.02,3.76,0,.58-.09.86-.77.83-.9-.07-1.84-.04-2.73-.02-.45.02-.61-.13-.59-.58.02-2.68.02-5.36-.02-8.04,0-.54.23-.61.68-.59ZM18.02,12.3c0-1.28.02-2.57-.02-3.87-.02-.59.18-.74.74-.72.88.05,1.76.04,2.64,0,.5-.02.74.09.72.67-.04,2.64-.02,5.29,0,7.95,0,.5-.18.63-.65.61-.88-.02-1.76-.04-2.64,0-.61.04-.85-.11-.81-.77.05-1.28.02-2.57.02-3.87ZM101.7,24.48c0,.49-.14.68-.63.63-.22-.04-.41-.02-.61-.02h-46.92c-15.67,0-31.34,0-47.01.04-.92,0-1.17-.22-1.15-1.15.05-3.44.04-6.87,0-10.31,0-.67.18-.85.85-.83,2.3.04,4.62.04,6.93,0,.61,0,.83.13.81.77-.05,1.71-.04,3.4-.02,5.11.02,1.48.79,2.27,2.27,2.28,2.54.02,5.09.02,7.65,0,1.51,0,2.3-.83,2.32-2.36.02-1.66.02-3.33,0-5-.02-.58.05-.83.74-.81,2.86.04,5.72.04,8.56,0,.67-.02.79.2.77.81-.04,1.62-.02,3.26-.02,4.89.02,1.69.81,2.46,2.52,2.46,2.43.02,4.84.02,7.25,0,1.73,0,2.46-.74,2.48-2.48,0-1.66.02-3.33-.02-4.98-.02-.54.16-.7.68-.7,2.93.04,5.85.04,8.78,0,.52,0,.7.14.68.68-.04,1.75-.02,3.47,0,5.22,0,1.48.77,2.25,2.27,2.27,2.55.02,5.09.02,7.65,0,1.51-.02,2.3-.83,2.32-2.36.02-1.67.02-3.35-.02-5-.02-.59.11-.83.77-.81,2.84.04,5.7.04,8.56,0,.67-.02.76.23.76.81-.04,1.67-.04,3.33-.02,5,.02,1.53.81,2.36,2.32,2.36,2.55.02,5.09.02,7.65,0,1.48-.02,2.25-.81,2.27-2.28.02-1.69.02-3.4,0-5.09-.02-.52.04-.81.68-.79,2.41.04,4.82.04,7.25,0,.47,0,.63.13.63.63-.02,3.67-.02,7.34,0,11.01Z"/>
        <path class="cls-2" d="M55.57,101.25c.03,1.03-.6,1.77-1.74,2.02-.14.03-.26.04-.29.21h-.41c-.04-.26-.29-.25-.45-.34-.99-.58-1.4-1.5-1.07-2.46.33-.95,1.28-1.54,2.22-1.38.99.16,1.72.98,1.74,1.96Z"/>
        <path class="cls-4" d="M75.9,80.88c-.86-.02-1.73,0-2.61,0,8.01-11.15,7.99-22.22,0-33.34.94,0,1.82.02,2.7,0,1.42-.05,2.21-.85,2.23-2.23.02-2.59.02-5.18,0-7.75-.02-1.48-.79-2.25-2.28-2.25-2.55-.02-5.09-.02-7.65,0-1.55,0-2.28.76-2.3,2.32-.02,1.31,0,2.63,0,4.03-8.33-4.23-16.61-4.21-24.9.02,0-1.44.02-2.77,0-4.08-.02-1.51-.77-2.28-2.25-2.28-2.59-.02-5.16-.02-7.75,0-1.48,0-2.21.77-2.23,2.3-.02,2.5,0,5.02,0,7.54,0,1.58.79,2.37,2.37,2.39.86.02,1.73,0,2.55,0-8.01,11.19-7.99,22.22,0,33.34h-2.54c-1.62.04-2.39.79-2.39,2.39v7.45c0,1.64.72,2.39,2.34,2.41,2.52.02,5.02,0,7.54,0,1.64-.02,2.36-.76,2.36-2.39.02-1.31,0-2.61,0-3.99,8.35,4.23,16.57,4.23,24.9.02,0,1.39-.02,2.7,0,4.01.02,1.58.74,2.34,2.28,2.36,2.55.02,5.09.02,7.65,0,1.57-.02,2.28-.77,2.3-2.34.02-2.52.02-5.04,0-7.56-.02-1.53-.77-2.32-2.32-2.36ZM72.19,39.37q1.94,0,1.94,1.94,0,2.14-2.14,2.14-1.93,0-1.93-1.94,0-2.14,2.12-2.14ZM32.93,41.44q0-2.07,2.1-2.07t1.98,2.02-2.12,2.07-1.96-2.02ZM35.04,89.05q-2.1,0-2.1-2.07,0-2.02,1.96-2.02,2.12,0,2.12,2.09,0,2-1.98,2ZM53.55,85.84c-11.91.02-21.64-9.72-21.64-21.64s9.73-21.64,21.66-21.61c11.93.04,21.57,9.68,21.59,21.57.02,11.95-9.68,21.66-21.61,21.68ZM72.1,89.05q-2.03,0-2.03-2.03,0-2.05,2.03-2.05,2.03,0,2.03,2.05,0,2.03-2.03,2.03Z"/>
        <path class="cls-4" d="M21.62,80.9c-2.64-.04-5.29-.04-7.93,0-1.37.02-2.16.85-2.16,2.18-.04,2.63-.04,5.24,0,7.84,0,1.39.76,2.18,2.11,2.2,2.66.04,5.31.04,7.95,0,1.42-.02,2.14-.81,2.16-2.25.02-1.26,0-2.52,0-3.78s.02-2.64,0-3.98c-.02-1.35-.77-2.2-2.12-2.21ZM17.55,89.05q-1.96,0-1.96-2t2.11-2.09,1.98,2.02-2.12,2.07Z"/>
        <path class="cls-4" d="M93.38,80.9c-2.63-.04-5.24-.04-7.84,0-1.42.02-2.21.83-2.21,2.23-.02,2.59-.02,5.16,0,7.74,0,1.46.76,2.23,2.18,2.25,2.61.04,5.22.04,7.84,0,1.42,0,2.18-.77,2.21-2.2.02-1.3,0-2.59,0-3.89s.02-2.57,0-3.87c-.02-1.42-.79-2.25-2.18-2.27ZM89.43,89.05q-2.03,0-2.03-2.05t2.07-2.03,2.02,2.07-2.05,2.02Z"/>
        <path class="cls-4" d="M21.6,35.31c-1.33-.02-2.64,0-3.98,0s-2.57-.02-3.87,0c-1.44.02-2.23.77-2.23,2.18-.04,2.61-.04,5.24,0,7.84,0,1.33.79,2.18,2.14,2.19,2.64.04,5.29.04,7.93,0,1.35-.02,2.14-.86,2.14-2.19.02-2.63.02-5.24,0-7.84,0-1.37-.79-2.16-2.14-2.18ZM17.59,43.46q-2,0-2-1.98t2.09-2.1,2,1.98-2.09,2.1Z"/>
        <path class="cls-4" d="M95.54,37.39c0-1.28-.81-2.07-2.1-2.09-1.3-.02-2.59,0-3.87,0-1.4,0-2.79-.02-4.19,0-1.22.04-2.03.81-2.05,2.05-.02,2.68-.02,5.36,0,8.04.02,1.24.79,2.1,2.02,2.12,2.72.05,5.43.05,8.15,0,1.28-.02,2.05-.88,2.07-2.18.02-2.64.02-5.29-.02-7.95ZM89.46,43.46q-2.07,0-2.07-2.1t2.02-1.98,2.07,2.1-2.02,1.98Z"/>
        <path class="cls-4" d="M21.53,58.1c-2.61-.04-5.22-.04-7.83,0-1.46.02-2.18.81-2.19,2.25-.02,2.59-.02,5.16,0,7.74.02,1.39.76,2.21,2.1,2.23,2.68.04,5.38.04,8.06,0,1.3-.02,2.05-.85,2.07-2.14.02-1.3,0-2.59,0-3.89s.02-2.57,0-3.87c0-1.51-.72-2.3-2.21-2.32ZM17.59,66.25q-2,0-2-2t2.09-2.09,2,1.98-2.09,2.11Z"/>
        <path class="cls-4" d="M93.4,58.1c-2.64-.04-5.29-.04-7.93,0-1.42.04-2.12.83-2.14,2.28-.02,1.26,0,2.52,0,3.78s-.02,2.57,0,3.87c.02,1.49.76,2.28,2.25,2.28,2.57.04,5.16.04,7.74,0,1.48,0,2.23-.81,2.25-2.28v-7.65c-.02-1.46-.74-2.25-2.16-2.28ZM89.41,66.25q-2.02,0-2.02-1.98t2.09-2.1,2,1.98-2.07,2.11Z"/>
        <path class="cls-1" d="M101.7,13.47c-.02,3.67-.02,7.34,0,11.01,0,.49-.14.68-.63.63-.22-.04-.41-.02-.61-.02h-46.92c-15.67,0-31.34,0-47.01.04-.92,0-1.17-.22-1.15-1.15.05-3.44.04-6.87,0-10.31,0-.67.18-.85.85-.83,2.3.04,4.62.04,6.93,0,.61,0,.83.13.81.77-.05,1.71-.04,3.4-.02,5.11.02,1.48.79,2.27,2.27,2.28,2.54.02,5.09.02,7.65,0,1.51,0,2.3-.83,2.32-2.36.02-1.66.02-3.33,0-5-.02-.58.05-.83.74-.81,2.86.04,5.72.04,8.56,0,.67-.02.79.2.77.81-.04,1.62-.02,3.26-.02,4.89.02,1.69.81,2.46,2.52,2.46,2.43.02,4.84.02,7.25,0,1.73,0,2.46-.74,2.48-2.48,0-1.66.02-3.33-.02-4.98-.02-.54.16-.7.68-.7,2.93.04,5.85.04,8.78,0,.52,0,.7.14.68.68-.04,1.75-.02,3.47,0,5.22,0,1.48.77,2.25,2.27,2.27,2.55.02,5.09.02,7.65,0,1.51-.02,2.3-.83,2.32-2.36.02-1.67.02-3.35-.02-5-.02-.59.11-.83.77-.81,2.84.04,5.7.04,8.56,0,.67-.02.76.23.76.81-.04,1.67-.04,3.33-.02,5,.02,1.53.81,2.36,2.32,2.36,2.55.02,5.09.02,7.65,0,1.48-.02,2.25-.81,2.27-2.28.02-1.69.02-3.4,0-5.09-.02-.52.04-.81.68-.79,2.41.04,4.82.04,7.25,0,.47,0,.63.13.63.63Z"/>
        <path class="cls-1" d="M66.78,16.13c.02.59-.13.86-.77.81-.92-.05-1.84-.02-2.75,0-.45.02-.58-.14-.58-.58.02-2.68.02-5.36,0-8.04,0-.41.07-.63.54-.61.99.04,1.98.04,2.95,0,.54-.02.61.25.59.68-.02,1.3,0,2.57,0,3.87s-.04,2.59.02,3.87Z"/>
        <path class="cls-1" d="M44.41,16.13c0,.58-.09.86-.77.83-.9-.07-1.84-.04-2.73-.02-.45.02-.61-.13-.59-.58.02-2.68.02-5.36-.02-8.04,0-.54.23-.61.68-.59.92.02,1.84.04,2.75-.02.52-.02.68.14.68.68-.05,1.33-.02,2.64-.02,3.98,0,1.24-.04,2.5.02,3.76Z"/>
        <path class="cls-1" d="M89.05,12.39c0,1.28-.02,2.57.02,3.87.02.52-.13.72-.68.68-.92-.04-1.84-.04-2.73,0-.56.04-.68-.18-.68-.7.02-2.61.02-5.22,0-7.84,0-.54.16-.7.68-.68.92.04,1.84.05,2.75,0,.58-.02.68.2.67.7-.04,1.33-.02,2.64-.02,3.98Z"/>
        <path class="cls-1" d="M22.1,8.37c-.04,2.64-.02,5.29,0,7.95,0,.5-.18.63-.65.61-.88-.02-1.76-.04-2.64,0-.61.04-.85-.11-.81-.77.05-1.28.02-2.57.02-3.87s.02-2.57-.02-3.87c-.02-.59.18-.74.74-.72.88.05,1.76.04,2.64,0,.5-.02.74.09.72.67Z"/>
        <path class="cls-1" d="M53.57,42.59c-11.93-.04-21.66,9.66-21.66,21.61s9.73,21.66,21.64,21.64c11.93-.02,21.63-9.73,21.61-21.68-.02-11.89-9.66-21.54-21.59-21.57ZM56.39,77.01c-.65.27-.92.56-.83,1.24.05.5.04,1.03,0,1.53-.09,1.17-.95,1.98-2.07,1.96-1.06-.02-2.09-.85-1.96-1.91.23-1.82-.36-2.82-2.09-3.47-1.13-.41-1.93-1.48-2.55-2.55-.7-1.21-.5-2.39.52-3.04,1.04-.65,2.16-.31,2.93.88,1.39,2.07,3.89,2.48,5.6.94.81-.72,1.19-1.64,1.24-2.59-.02-1.94-1.4-3.49-3.26-3.69-1.01-.13-2.02-.16-2.99-.52-3-1.1-5.04-3.87-5.13-7.05-.09-3.15,1.8-6.1,4.77-7.29.74-.29,1.03-.61.92-1.39-.05-.5-.04-1.03.02-1.53.09-1.06.9-1.82,1.94-1.84,1.1-.04,2.19.74,2.05,1.8-.27,1.96.54,2.95,2.28,3.67,1.15.47,1.93,1.58,2.52,2.72.56,1.1.23,2.27-.76,2.82-.95.54-2.05.25-2.73-.76-1.28-1.82-2.77-2.45-4.5-1.84-1.55.54-2.59,2.14-2.43,3.72.16,1.66,1.39,2.99,3.02,3.26.81.13,1.64.13,2.43.32,3.35.81,5.67,3.62,5.9,7.07.2,3.2-1.76,6.31-4.86,7.52Z"/>
        <path class="cls-1" d="M37.02,41.39q0,2.07-2.12,2.07-1.96,0-1.96-2.02t2.1-2.07,1.98,2.02Z"/>
        <path class="cls-1" d="M74.13,41.32q0,2.14-2.14,2.14-1.93,0-1.93-1.94,0-2.14,2.12-2.14,1.94,0,1.94,1.94Z"/>
        <path class="cls-1" d="M37.02,87.05q0,2-1.98,2t-2.1-2.07,1.96-2.02,2.12,2.09Z"/>
        <path class="cls-1" d="M74.13,87.01q0,2.03-2.03,2.03t-2.03-2.03,2.03-2.05,2.03,2.05Z"/>
        <path class="cls-1" d="M19.67,86.98q0,2.07-2.12,2.07-1.96,0-1.96-2t2.11-2.09,1.98,2.02Z"/>
        <path class="cls-1" d="M91.48,87.03q0,2.02-2.05,2.02t-2.03-2.05,2.07-2.03,2.02,2.07Z"/>
        <path class="cls-1" d="M19.67,41.35q0,2.1-2.09,2.1t-2-1.98,2.09-2.1,2,1.98Z"/>
        <path class="cls-1" d="M91.48,41.48q0,1.98-2.02,1.98t-2.07-2.1,2.02-1.98,2.07,2.1Z"/>
        <path class="cls-1" d="M19.67,64.15q0,2.11-2.09,2.11t-2-2,2.09-2.09,2,1.98Z"/>
        <path class="cls-1" d="M91.48,64.15q0,2.11-2.07,2.11t-2.02-1.98,2.09-2.1,2,1.98Z"/>
        <path class="cls-4" d="M61.25,69.49c.2,3.2-1.76,6.31-4.86,7.52-.65.27-.92.56-.83,1.24.05.5.04,1.03,0,1.53-.09,1.17-.95,1.98-2.07,1.96-1.06-.02-2.09-.85-1.96-1.91.23-1.82-.36-2.82-2.09-3.47-1.13-.41-1.93-1.48-2.55-2.55-.7-1.21-.5-2.39.52-3.04,1.04-.65,2.16-.31,2.93.88,1.39,2.07,3.89,2.48,5.6.94.81-.72,1.19-1.64,1.24-2.59-.02-1.94-1.4-3.49-3.26-3.69-1.01-.13-2.02-.16-2.99-.52-3-1.1-5.04-3.87-5.13-7.05-.09-3.15,1.8-6.1,4.77-7.29.74-.29,1.03-.61.92-1.39-.05-.5-.04-1.03.02-1.53.09-1.06.9-1.82,1.94-1.84,1.1-.04,2.19.74,2.05,1.8-.27,1.96.54,2.95,2.28,3.67,1.15.47,1.93,1.58,2.52,2.72.56,1.1.23,2.27-.76,2.82-.95.54-2.05.25-2.73-.76-1.28-1.82-2.77-2.45-4.5-1.84-1.55.54-2.59,2.14-2.43,3.72.16,1.66,1.39,2.99,3.02,3.26.81.13,1.64.13,2.43.32,3.35.81,5.67,3.62,5.9,7.07Z"/>
      </g>
    </g>
  </g>
</svg>