<svg width="108" height="94" viewBox="0 0 108 94" fill="none" xmlns="http://www.w3.org/2000/svg">
<path d="M107.35 70.4501C107.35 68.7201 106.76 68.1201 105.05 68.1201C84.8101 68.1201 64.56 68.1301 44.33 68.1101C43.25 68.1101 42.55 68.4901 41.96 69.3801C40.08 72.2701 38.12 75.1201 36.25 78.0201C35.83 78.6701 35.33 78.9701 34.61 79.1001C29.51 80.0001 24.4001 80.9101 19.3101 81.8601C18.5801 82.0001 18.33 81.8701 18.08 81.1601C16.69 77.3701 15.25 73.6001 13.83 69.8301C13.28 68.3701 12.93 68.1101 11.4 68.1101H3.78998C1.91998 68.1101 1.37 68.6601 1.37 70.5501C1.37 77.1301 1.40003 83.7201 1.34003 90.3001C1.34003 91.3801 1.57997 92.2201 2.46997 92.8301H106.26C107.14 92.2201 107.39 91.3801 107.38 90.3001C107.34 83.6801 107.37 77.0501 107.35 70.4301V70.4501ZM7.59003 71.6601C8.61003 71.6601 9.85999 71.3401 10.61 71.8101C11.41 72.2901 11.44 73.6701 11.84 74.6401C11.9 74.7701 11.93 74.9101 12.02 75.1901C9.75002 75.1901 7.63 75.1801 5.5 75.2001C5.02 75.2101 4.9 75.0601 4.88 74.5901C4.71 71.6601 4.70003 71.6501 7.59003 71.6601ZM103.85 88.2101C103.86 89.1301 103.65 89.3601 102.72 89.3601C86.57 89.3201 70.42 89.3301 54.27 89.3301C38.12 89.3301 22.11 89.3201 6.02002 89.3401C5.14002 89.3501 4.85 89.1901 4.87 88.2301C4.93 85.3301 4.91 82.4301 4.88 79.5101C4.87 78.9101 4.99001 78.7001 5.64001 78.7101C7.99001 78.7501 10.35 78.7401 12.7 78.7101C13.23 78.7001 13.46 78.8901 13.64 79.3801C14.24 81.0701 14.86 82.7501 15.51 84.4301C15.94 85.5201 16.64 85.9301 17.75 85.7301C23.9 84.6201 30.0299 83.4801 36.1899 82.4101C37.4499 82.1901 38.29 81.5701 38.79 80.4801C39.45 79.0201 40.52 78.6901 42.09 78.6901C62.26 78.7501 82.42 78.7401 102.6 78.7001C103.58 78.7001 103.87 78.9201 103.85 79.9301C103.77 82.6901 103.77 85.4501 103.85 88.2001V88.2101ZM101.44 75.1901H42.35C43.11 74.0601 43.79 73.1001 44.39 72.1101C44.66 71.6801 45 71.6501 45.41 71.6501C46.96 71.6601 48.5 71.6601 50.04 71.6601C67.59 71.6601 85.13 71.6701 102.67 71.6301C103.65 71.6301 103.88 71.8601 103.85 72.8101C103.77 75.1801 103.82 75.1801 101.44 75.1801V75.1901Z" fill="#131B53" stroke="#131B53" stroke-miterlimit="10"/>
<path d="M101.05 52.8402C102.03 52.3602 102.13 51.5002 101.95 50.4902C100.78 43.9902 99.51 37.5002 98.55 30.9502C97.88 26.3002 95.95 22.6802 91.8299 20.3102C91.24 19.9802 90.72 19.5302 90 19.0202C92.85 18.5102 95.45 18.0802 98.02 17.5702C99.8 17.2102 101 15.6202 100.83 13.8902C100.74 13.0102 100.59 12.1302 100.37 11.2902C99.96 9.64018 98.7699 8.62018 97.0699 8.54018C95.1999 8.45018 93.3199 8.41021 91.4399 8.45021C89.2999 8.49021 87.8299 10.2302 88.0699 12.3602C88.1699 13.2302 88.36 14.0902 88.5 14.9602C88.54 15.2002 88.68 15.4602 88.41 15.6702C87.77 16.1902 86.12 15.9502 85.6 15.2602C83.07 11.8402 80.55 8.3902 77.98 5.0002C75.8 2.1502 72.8801 0.810204 69.3101 1.1902C66.8701 1.4602 64.45 1.97022 62.02 2.39022C51.28 4.27022 40.5401 6.17022 29.8101 8.08022C25.8001 8.79022 23.09 11.0702 21.88 14.9902C20.61 19.1002 19.41 23.2102 18.18 27.3202C18.09 27.6302 18.1 27.9702 17.73 28.1502C16.3 28.8602 15.5 28.4702 15.26 26.9202C15.18 26.4502 15.12 25.9702 15.02 25.5102C14.56 23.2302 12.46 22.0102 10.26 22.7702C9.15 23.1602 8.06997 23.6102 6.97997 24.0302C2.97997 25.6002 2.55997 26.3702 3.34997 30.5702C3.34997 30.6102 3.35998 30.6302 3.35998 30.6702C3.77998 32.6702 5.50001 33.8602 7.52001 33.5202C10.09 33.0902 12.65 32.6402 15.42 32.1602C14.53 33.4202 13.77 34.5302 12.99 35.6302C11.36 38.0002 10.62 40.5902 11.04 43.4602C11.37 45.6702 11.78 47.8802 12.17 50.0902C13.1 55.4002 14.05 60.7202 14.98 66.0402C15.13 66.8802 15.5 67.5702 16.37 67.6602C17.11 67.7402 17.15 68.1402 17.25 68.6702C17.52 70.2202 17.73 71.8002 18.1 73.3302C18.75 76.0402 21.29 77.7002 24.02 77.2502C26.35 76.8802 28.67 76.4902 30.97 76.0502C33.94 75.5002 35.76 73.0502 35.37 70.0602C35.17 68.4602 34.8601 66.8702 34.5601 65.2902C34.4701 64.8202 34.55 64.6402 35.04 64.5602C36.21 64.3902 37.36 64.0802 38.51 63.9602C40.74 63.7402 42.72 63.0702 44.36 61.4902C44.77 61.1002 45.29 60.9402 45.85 60.8502C53.31 59.5402 60.75 58.2002 68.21 56.9302C70.12 56.6002 72.05 55.8602 74.01 56.8402C75.33 57.4902 76.72 57.2702 78.11 56.9802C79.51 56.6902 80.9199 56.4802 82.3199 56.2002C82.9399 56.0702 83.2201 56.1702 83.3101 56.9002C83.51 58.4302 83.82 59.9402 84.12 61.4602C84.69 64.1802 87.3 66.0502 90 65.6202C92.43 65.2402 94.86 64.8102 97.27 64.3302C100.15 63.7702 101.98 61.0502 101.47 58.1702C101.22 56.7302 100.95 55.2802 100.71 53.8302C100.66 53.4702 100.46 53.0902 101.02 52.8202L101.05 52.8402ZM94.29 12.0402H95.61C97.04 12.0702 97.19 12.2302 97.23 13.6202C97.24 13.9602 97.2199 14.1802 96.8199 14.2402C95.4499 14.4602 94.08 14.6702 92.72 14.9402C92.24 15.0402 92.03 14.9002 91.98 14.4602C91.98 14.4202 91.9699 14.3802 91.9499 14.3502C91.5766 12.7835 92.3534 12.0169 94.28 12.0502L94.29 12.0402ZM11.5 29.2702C10.16 29.4902 8.82998 29.7202 7.48998 29.9602C7.15998 30.0202 6.79997 30.1302 6.78997 29.6202C6.75997 29.0602 6.18002 28.3002 6.84002 27.9502C8.20002 27.2602 9.67997 26.7902 11.1 26.2202C11.46 26.0802 11.56 26.2702 11.61 26.5602C11.74 27.2702 11.86 28.0002 11.99 28.7202C12.07 29.1102 11.85 29.2202 11.49 29.2702H11.5ZM70.72 5.48018C71.06 4.83018 71.38 4.68019 72.09 4.93019C73.3 5.36019 74.33 6.02018 75.09 7.04018C77.41 10.1302 79.7 13.2402 82 16.3402C82.08 16.4502 82.1899 16.5602 82.0799 16.8002C75.7 17.9302 69.29 19.0702 62.84 20.2102C62.78 19.7902 63.04 19.5602 63.18 19.2902C65.69 14.6802 68.22 10.0902 70.71 5.47017L70.72 5.48018ZM62.27 6.5602C62.52 6.1002 62.79 5.85022 63.34 5.77022C64.46 5.62022 65.57 5.38018 66.66 5.17018C66.81 5.54018 66.57 5.73018 66.46 5.92018C63.86 10.6902 61.25 15.4502 58.67 20.2302C58.36 20.7902 58.02 21.1102 57.36 21.1802C56.3 21.3102 55.27 21.5502 53.97 21.7802C54.96 19.9702 55.85 18.3402 56.74 16.7002C58.59 13.3302 60.44 9.9402 62.26 6.5602H62.27ZM23.85 20.7302C24.31 19.1802 24.74 17.6202 25.22 16.0802C25.98 13.6102 27.64 12.0702 30.18 11.6102C39.36 9.97019 48.55 8.3602 57.73 6.7502C57.79 6.7502 57.87 6.76023 58.11 6.78023C55.7 11.2002 53.21 15.4702 51.02 19.9102C49.99 21.9702 48.65 22.8002 46.4 23.1602C38.67 24.3602 30.99 25.8202 23.29 27.1802C22.87 27.2602 22.44 27.3102 21.84 27.4002C22.53 25.1102 23.19 22.9202 23.84 20.7302H23.85ZM30.46 72.5402C28.14 72.9702 25.84 73.3902 23.52 73.7702C22.49 73.9402 21.67 73.3102 21.46 72.2402C21.17 70.7302 20.94 69.2002 20.65 67.7002C20.55 67.1902 20.73 67.0802 21.18 67.0002C24.25 66.4902 27.31 65.9402 30.38 65.3802C30.77 65.3202 31.02 65.3002 31.09 65.7602C31.37 67.4102 31.66 69.0802 31.93 70.6702C31.88 71.7102 31.4099 72.3502 30.4499 72.5302L30.46 72.5402ZM96.6899 60.8502C94.3099 61.3102 91.93 61.7502 89.54 62.1202C88.6 62.2702 87.86 61.7602 87.66 60.8102C87.32 59.2302 87.09 57.6302 86.78 56.0402C86.68 55.5302 86.92 55.4202 87.35 55.3402C90.35 54.8302 93.34 54.3102 96.35 53.7602C96.95 53.6602 97.16 53.7902 97.25 54.4202C97.48 55.9902 97.7999 57.5302 98.0799 59.0402C97.9999 59.9802 97.6099 60.6702 96.6899 60.8502ZM97 50.0902C94.71 50.3802 94.72 50.4602 94.34 48.1302C94.11 46.7202 93.87 45.3002 93.61 43.8902C93.32 42.2702 92.4099 41.7502 90.8199 42.2702C87.5399 43.3302 84.25 44.3702 80.99 45.4902C79.13 46.1302 77.2 46.3702 75.29 46.6902C74.59 46.8002 74.27 47.0102 74.53 47.7302C74.57 47.8302 74.59 47.9502 74.62 48.0502C75.04 50.3902 75.03 50.3202 77.42 49.9502C81.59 49.3102 85.45 47.6302 89.43 46.4102C90.28 46.1602 90.51 46.3002 90.59 47.1502C90.7 48.2102 90.92 49.2602 91.16 50.2902C91.3 50.9002 91.13 51.0902 90.51 51.1902C85.81 52.0002 81.1 52.8402 76.41 53.7002C75.98 53.7902 75.6 53.6602 75.24 53.5102C73.27 52.6802 71.31 52.7202 69.22 53.1202C61.06 54.6502 52.88 56.0602 44.71 57.4902C43.96 57.6302 43.27 57.8202 42.72 58.3402C41.24 59.7402 39.45 60.2902 37.48 60.5902C33.71 61.1802 29.9499 61.8902 26.1899 62.5802C25.4499 62.7102 25.06 62.6302 24.96 61.7502C24.82 60.4402 24.54 59.1502 24.26 57.5202C27.03 57.5202 29.72 57.4802 32.41 57.5202C34.85 57.5602 37.22 56.9602 39.61 56.6002C40.04 56.5402 40.2 56.4002 40.12 55.8902C39.73 53.0002 39.74 52.9902 36.9 53.5102C33.04 54.2202 29.14 53.9802 25.24 54.2102C24.25 54.2602 23.25 54.2202 22.26 54.3002C20.9 54.4102 20.3 55.2002 20.52 56.5502C20.84 58.5702 21.18 60.6102 21.58 62.6202C21.7099 63.2202 21.55 63.4102 20.98 63.4702C20.1 63.5802 19.1 64.0802 18.41 63.8002C17.74 63.5102 17.93 62.3102 17.79 61.5102C16.7 55.3602 15.6299 49.2002 14.5699 43.0602C14.2499 41.2002 14.7 39.4702 15.74 37.9202C17.14 35.8602 18.62 33.8302 20 31.7602C20.36 31.2402 20.8401 31.2002 21.3101 31.1202C28.1401 29.9002 34.9899 28.7002 41.8299 27.4902C51.2399 25.8402 60.64 24.1802 70.05 22.5102C74.78 21.6802 79.52 20.8402 84.25 19.9902C84.84 19.8902 85.29 20.0202 85.78 20.3702C87.18 21.3902 88.54 22.4602 90.03 23.3202C93.02 25.0802 94.48 27.6602 94.99 31.0702C95.87 36.9102 96.99 42.7302 98.04 48.5402C98.22 49.5102 98.13 49.9302 97 50.0702V50.0902ZM86 27.2102C79.31 29.1402 72.69 31.3602 65.74 32.2902C62.13 32.7602 58.54 33.3602 55.42 35.4602C54.8 35.8802 54.17 35.9102 53.43 35.7702C52.13 35.5402 50.82 35.3502 50.15 35.3502C47.8 35.3502 46.14 35.7602 44.47 36.0102C40.88 36.5602 37.36 37.4902 33.72 37.7302C29.61 38.0002 25.5 38.2602 21.39 38.5402C19.16 38.6902 17.7199 40.5002 18.0699 42.7002C18.2099 43.5402 18.34 44.3702 18.53 45.1902C19.05 47.5402 20.49 49.0802 22.77 49.8202C24.16 50.2702 25.58 50.6302 26.97 51.1102C27.99 51.4502 28.8501 51.3302 29.8101 50.8302C31.5801 49.9102 33.18 48.6802 35.28 48.3602C37.14 48.0802 38.73 48.0702 40.61 48.8302C45.83 50.9702 50.8899 49.8702 55.6899 47.1802C56.0599 46.9802 56.34 46.6102 56.87 46.7702C59.25 47.5202 61.6401 47.3302 64.0601 46.9202C67.7401 46.3202 70.97 44.9902 73.35 41.9802C73.46 41.8402 73.6 41.6602 73.76 41.6402C75.41 41.3302 77.06 40.7902 78.75 40.8502C80.28 40.9102 81.7999 41.2402 83.3199 41.5102C83.9899 41.6402 84.57 41.5202 85.09 41.1302C86.54 40.0602 88 39.0002 89.4 37.8802C90.93 36.6602 91.63 34.9802 91.6 33.0402C91.59 32.2002 91.37 31.3702 91.24 30.5302C90.76 27.4802 88.96 26.3402 86 27.2002V27.2102ZM28.49 47.4802C28.31 47.5802 28.06 47.7002 27.88 47.6502C26.3 47.1902 24.67 46.8702 23.17 46.1702C22.43 45.8302 22.08 45.1102 21.92 44.3202C21.78 43.6102 21.68 42.8802 21.55 42.0702C24.87 41.8402 28.1599 41.6002 31.4499 41.4302C32.3899 41.3802 33.52 40.8702 34.21 41.4002C34.88 41.9202 35.08 43.0402 35.48 43.9102C35.58 44.1402 35.68 44.3702 35.85 44.7602C33.01 44.7502 30.78 46.2002 28.48 47.4702L28.49 47.4802ZM71.72 35.5802C71.38 39.8302 69.19 42.2902 64.96 43.1502C62.16 43.7402 59.37 44.1202 56.6 43.0402C55.77 42.7202 55.12 43.2302 54.49 43.6902C51.1 46.1102 47.32 46.7402 43.29 46.0802C40.49 45.6202 39.03 43.7102 38.14 41.2102C37.97 40.7502 38.18 40.7102 38.48 40.6602C42.15 40.0502 45.7699 39.2502 49.0799 38.8702C51.0899 38.9002 52.67 39.2602 54.27 39.4602C54.83 39.5202 55.39 39.5602 55.87 39.2202C59.48 36.6602 63.7499 36.1702 67.9499 35.4702C68.9599 35.2902 69.99 35.1802 70.98 34.9202C71.69 34.7402 71.77 34.9502 71.72 35.5902V35.5802ZM87.41 34.9302C87.27 35.1002 87.09 35.2202 86.93 35.3802C84.91 37.3102 82.68 38.4902 79.76 37.4302C78.22 36.8802 76.7199 37.6302 75.0799 37.7202C75.1699 36.5502 75.2699 35.4902 75.3199 34.4202C75.3299 33.9602 75.6099 33.9202 75.9399 33.8202C79.6299 32.7502 83.31 31.6702 87 30.5702C87.51 30.4202 87.7 30.4702 87.74 31.0402C87.78 31.6302 87.96 32.2002 88.05 32.7702C88.18 33.5802 87.94 34.3002 87.41 34.9202V34.9302Z" fill="#DF6939" stroke="#DA693A" stroke-miterlimit="10"/>
<path d="M8.87001 49.5102C8.48001 50.1702 8.17003 50.8802 7.83003 51.5602C7.73003 51.7402 7.72002 52.0302 7.44002 51.9302C7.26002 51.8502 7.12001 51.7902 6.99001 51.7302C5.06001 50.7802 3.13002 49.8003 1.19002 48.8403C0.690017 48.6003 0.54 48.3902 0.86 47.8602C1.33 47.0802 1.53003 45.8902 2.20003 45.5602C2.68003 45.3202 3.73002 46.1602 4.50002 46.5402C5.85002 47.1902 7.17004 47.8902 8.53004 48.5402C9.03004 48.7802 9.19001 48.9903 8.87001 49.5203V49.5102Z" fill="#131B53" stroke="#131B53" stroke-miterlimit="10"/>
<path d="M8.86999 56.5802C7.66999 59.1302 7.69001 59.1402 5.20001 57.9002C3.86001 57.2302 2.52998 56.5402 1.16998 55.8902C0.659982 55.6502 0.529975 55.4301 0.849975 54.9101C1.21997 54.2901 1.49003 53.6002 1.84003 52.9502C1.94003 52.7602 1.94998 52.4201 2.22998 52.4801C2.45998 52.5801 2.58998 52.6302 2.72998 52.7002C4.64998 53.6702 6.57002 54.6502 8.52002 55.5902C9.02002 55.8302 9.11998 56.0402 8.85998 56.5802H8.86999Z" fill="#131B53" stroke="#131B53" stroke-miterlimit="10"/>
<path d="M9.06008 63.2103C8.60008 64.1303 8.17 65.0603 7.67 65.9503C7.49 66.2703 7.20002 65.9602 7.00002 65.8602C5.04002 64.8902 3.08001 63.8902 1.11001 62.9202C0.600005 62.6802 0.630037 62.4702 0.830037 62.0002C2.01004 59.4002 2.00002 59.4002 4.56002 60.6802C5.87002 61.3402 7.19001 61.9802 8.49001 62.6702C8.71001 62.7802 9.10008 62.7802 9.06008 63.2202V63.2103Z" fill="#131B53" stroke="#131B53" stroke-miterlimit="10"/>
<path d="M91.2501 30.5401C90.7701 27.4901 88.9701 26.3501 86.0101 27.2101C79.3201 29.1401 72.7001 31.3601 65.7501 32.2901C62.1401 32.7601 58.5501 33.3601 55.4301 35.4601C54.8101 35.8801 54.18 35.9101 53.44 35.7701C52.14 35.5401 50.8301 35.3501 50.1601 35.3501C47.8101 35.3501 46.15 35.7601 44.48 36.0101C40.89 36.5601 37.37 37.4901 33.73 37.7301C29.62 38.0001 25.5101 38.2601 21.4001 38.5401C19.1701 38.6901 17.73 40.5001 18.08 42.7001C18.22 43.5401 18.3501 44.3701 18.5401 45.1901C19.0601 47.5401 20.5001 49.0801 22.7801 49.8201C24.1701 50.2701 25.59 50.6301 26.98 51.1101C28 51.4501 28.86 51.3301 29.82 50.8301C31.59 49.9101 33.1901 48.6801 35.2901 48.3601C37.1501 48.0801 38.74 48.0701 40.62 48.8301C45.84 50.9701 50.9 49.8701 55.7 47.1801C56.07 46.9801 56.3501 46.6101 56.8801 46.7701C59.2601 47.5201 61.65 47.3301 64.07 46.9201C67.75 46.3201 70.98 44.9901 73.36 41.9801C73.47 41.8401 73.6101 41.6601 73.7701 41.6401C75.4201 41.3301 77.0701 40.7901 78.7601 40.8501C80.2901 40.9101 81.81 41.2401 83.33 41.5101C84 41.6401 84.58 41.5201 85.1 41.1301C86.55 40.0601 88.0101 39.0001 89.4101 37.8801C90.9401 36.6601 91.64 34.9801 91.61 33.0401C91.6 32.2001 91.3801 31.3701 91.2501 30.5301V30.5401ZM28.49 47.4801C28.31 47.5801 28.0601 47.7001 27.8801 47.6501C26.3001 47.1901 24.6701 46.8701 23.1701 46.1701C22.4301 45.8301 22.0801 45.1101 21.9201 44.3201C21.7801 43.6101 21.6801 42.8801 21.5501 42.0701C24.8701 41.8401 28.16 41.6001 31.45 41.4301C32.39 41.3801 33.52 40.8701 34.21 41.4001C34.88 41.9201 35.08 43.0401 35.48 43.9101C35.58 44.1401 35.68 44.3701 35.85 44.7601C33.01 44.7501 30.78 46.2001 28.48 47.4701L28.49 47.4801ZM71.72 35.5801C71.38 39.8301 69.19 42.2901 64.96 43.1501C62.16 43.7401 59.37 44.1201 56.6 43.0401C55.77 42.7201 55.12 43.2301 54.49 43.6901C51.1 46.1101 47.3201 46.7401 43.2901 46.0801C40.4901 45.6201 39.0301 43.7101 38.1401 41.2101C37.9701 40.7501 38.18 40.7101 38.48 40.6601C42.15 40.0501 45.77 39.2501 49.08 38.8701C51.09 38.9001 52.6701 39.2601 54.2701 39.4601C54.8301 39.5201 55.39 39.5601 55.87 39.2201C59.48 36.6601 63.75 36.1701 67.95 35.4701C68.96 35.2901 69.99 35.1801 70.98 34.9201C71.69 34.7401 71.77 34.9501 71.72 35.5901V35.5801ZM87.4101 34.9301C87.2701 35.1001 87.0901 35.2201 86.9301 35.3801C84.9101 37.3101 82.6801 38.4901 79.7601 37.4301C78.2201 36.8801 76.72 37.6301 75.08 37.7201C75.17 36.5501 75.27 35.4901 75.32 34.4201C75.33 33.9601 75.61 33.9201 75.94 33.8201C79.63 32.7501 83.3101 31.6701 87.0001 30.5701C87.5101 30.4201 87.7 30.4701 87.74 31.0401C87.78 31.6301 87.9601 32.2001 88.0501 32.7701C88.1801 33.5801 87.9401 34.3001 87.4101 34.9201V34.9301Z" fill="#DF6939" stroke="#DA693A" stroke-miterlimit="10"/>
<path d="M98.04 48.5602C96.98 42.7402 95.86 36.9302 94.99 31.0902C94.48 27.6802 93.02 25.1002 90.03 23.3402C88.54 22.4702 87.18 21.4102 85.78 20.3902C85.3 20.0302 84.84 19.9102 84.25 20.0102C79.52 20.8602 74.78 21.7002 70.05 22.5302C60.64 24.2002 51.2399 25.8502 41.8299 27.5102C34.9999 28.7202 28.15 29.9202 21.31 31.1402C20.84 31.2202 20.36 31.2502 20 31.7802C18.61 33.8502 17.14 35.8802 15.74 37.9402C14.7 39.4902 14.2499 41.2202 14.5699 43.0802C15.6299 49.2302 16.7 55.3902 17.79 61.5302C17.93 62.3302 17.74 63.5302 18.41 63.8202C19.1 64.1002 20.1 63.6002 20.98 63.4902C21.55 63.4302 21.7099 63.2402 21.5799 62.6402C21.1899 60.6302 20.84 58.5902 20.52 56.5702C20.3 55.2202 20.9 54.4302 22.26 54.3202C23.25 54.2402 24.25 54.2801 25.24 54.2301C29.13 54.0001 33.04 54.2402 36.9 53.5302C39.74 53.0102 39.73 53.0201 40.12 55.9101C40.2 56.4201 40.04 56.5602 39.61 56.6202C37.22 56.9802 34.85 57.5701 32.41 57.5401C29.72 57.5001 27.04 57.5401 24.26 57.5401C24.54 59.1701 24.8199 60.4502 24.9599 61.7702C25.0599 62.6502 25.4599 62.7201 26.1899 62.6001C29.9399 61.9101 33.71 61.2002 37.48 60.6102C39.45 60.3002 41.2499 59.7602 42.7199 58.3602C43.2699 57.8402 43.9499 57.6502 44.7099 57.5102C52.8799 56.0802 61.0599 54.6702 69.2199 53.1402C71.3099 52.7502 73.27 52.7102 75.24 53.5302C75.6 53.6802 75.98 53.8101 76.41 53.7201C81.11 52.8701 85.82 52.0302 90.51 51.2102C91.13 51.1102 91.3 50.9202 91.16 50.3102C90.92 49.2802 90.6999 48.2202 90.5899 47.1702C90.5099 46.3202 90.28 46.1802 89.43 46.4302C85.45 47.6502 81.59 49.3301 77.42 49.9701C75.03 50.3401 75.04 50.4202 74.62 48.0702C74.59 47.9702 74.57 47.8502 74.53 47.7502C74.28 47.0202 74.59 46.8202 75.29 46.7102C77.2 46.3902 79.13 46.1502 80.99 45.5102C84.25 44.3902 87.5299 43.3501 90.8199 42.2901C92.4099 41.7701 93.31 42.2901 93.61 43.9101C93.86 45.3201 94.1099 46.7402 94.3399 48.1502C94.7199 50.4802 94.71 50.4002 97 50.1102C98.13 49.9702 98.22 49.5502 98.04 48.5802V48.5602ZM89.4 37.8902C88 39.0102 86.5399 40.0702 85.0899 41.1402C84.5699 41.5302 83.9999 41.6502 83.3199 41.5202C81.8099 41.2502 80.28 40.9202 78.75 40.8602C77.06 40.8002 75.42 41.3402 73.76 41.6502C73.61 41.6802 73.4699 41.8502 73.3499 41.9902C70.9699 44.9902 67.74 46.3302 64.06 46.9302C61.64 47.3402 59.25 47.5302 56.87 46.7802C56.34 46.6102 56.0599 46.9802 55.6899 47.1902C50.8899 49.8902 45.83 50.9802 40.61 48.8402C38.73 48.0802 37.14 48.0902 35.28 48.3702C33.18 48.6902 31.58 49.9202 29.81 50.8402C28.86 51.3402 27.9899 51.4602 26.9699 51.1202C25.5799 50.6502 24.16 50.2802 22.77 49.8302C20.49 49.0902 19.05 47.5502 18.53 45.2002C18.34 44.3702 18.2099 43.5502 18.0699 42.7102C17.7299 40.5102 19.16 38.7002 21.39 38.5502C25.5 38.2702 29.6099 38.0002 33.7199 37.7402C37.3599 37.5002 40.8899 36.5702 44.4699 36.0202C46.1399 35.7702 47.79 35.3602 50.15 35.3602C50.82 35.3602 52.14 35.5502 53.43 35.7802C54.17 35.9202 54.79 35.8901 55.42 35.4701C58.54 33.3701 62.13 32.7702 65.74 32.3002C72.69 31.3702 79.31 29.1601 86 27.2201C88.97 26.3701 90.76 27.5002 91.24 30.5502C91.37 31.3902 91.5799 32.2202 91.5999 33.0602C91.6299 34.9902 90.93 36.6702 89.4 37.9002V37.8902Z" stroke="#DA693A" stroke-miterlimit="10"/>
<path d="M91.2501 30.5401C90.7701 27.4901 88.9701 26.3501 86.0101 27.2101C79.3201 29.1401 72.7001 31.3601 65.7501 32.2901C62.1401 32.7601 58.5501 33.3601 55.4301 35.4601C54.8101 35.8801 54.18 35.9101 53.44 35.7701C52.14 35.5401 50.8301 35.3501 50.1601 35.3501C47.8101 35.3501 46.15 35.7601 44.48 36.0101C40.89 36.5601 37.37 37.4901 33.73 37.7301C29.62 38.0001 25.5101 38.2601 21.4001 38.5401C19.1701 38.6901 17.73 40.5001 18.08 42.7001C18.22 43.5401 18.3501 44.3701 18.5401 45.1901C19.0601 47.5401 20.5001 49.0801 22.7801 49.8201C24.1701 50.2701 25.59 50.6301 26.98 51.1101C28 51.4501 28.86 51.3301 29.82 50.8301C31.59 49.9101 33.1901 48.6801 35.2901 48.3601C37.1501 48.0801 38.74 48.0701 40.62 48.8301C45.84 50.9701 50.9 49.8701 55.7 47.1801C56.07 46.9801 56.3501 46.6101 56.8801 46.7701C59.2601 47.5201 61.65 47.3301 64.07 46.9201C67.75 46.3201 70.98 44.9901 73.36 41.9801C73.47 41.8401 73.6101 41.6601 73.7701 41.6401C75.4201 41.3301 77.0701 40.7901 78.7601 40.8501C80.2901 40.9101 81.81 41.2401 83.33 41.5101C84 41.6401 84.58 41.5201 85.1 41.1301C86.55 40.0601 88.0101 39.0001 89.4101 37.8801C90.9401 36.6601 91.64 34.9801 91.61 33.0401C91.6 32.2001 91.3801 31.3701 91.2501 30.5301V30.5401ZM28.49 47.4801C28.31 47.5801 28.0601 47.7001 27.8801 47.6501C26.3001 47.1901 24.6701 46.8701 23.1701 46.1701C22.4301 45.8301 22.0801 45.1101 21.9201 44.3201C21.7801 43.6101 21.6801 42.8801 21.5501 42.0701C24.8701 41.8401 28.16 41.6001 31.45 41.4301C32.39 41.3801 33.52 40.8701 34.21 41.4001C34.88 41.9201 35.08 43.0401 35.48 43.9101C35.58 44.1401 35.68 44.3701 35.85 44.7601C33.01 44.7501 30.78 46.2001 28.48 47.4701L28.49 47.4801ZM71.72 35.5801C71.38 39.8301 69.19 42.2901 64.96 43.1501C62.16 43.7401 59.37 44.1201 56.6 43.0401C55.77 42.7201 55.12 43.2301 54.49 43.6901C51.1 46.1101 47.3201 46.7401 43.2901 46.0801C40.4901 45.6201 39.0301 43.7101 38.1401 41.2101C37.9701 40.7501 38.18 40.7101 38.48 40.6601C42.15 40.0501 45.77 39.2501 49.08 38.8701C51.09 38.9001 52.6701 39.2601 54.2701 39.4601C54.8301 39.5201 55.39 39.5601 55.87 39.2201C59.48 36.6601 63.75 36.1701 67.95 35.4701C68.96 35.2901 69.99 35.1801 70.98 34.9201C71.69 34.7401 71.77 34.9501 71.72 35.5901V35.5801ZM87.4101 34.9301C87.2701 35.1001 87.0901 35.2201 86.9301 35.3801C84.9101 37.3101 82.6801 38.4901 79.7601 37.4301C78.2201 36.8801 76.72 37.6301 75.08 37.7201C75.17 36.5501 75.27 35.4901 75.32 34.4201C75.33 33.9601 75.61 33.9201 75.94 33.8201C79.63 32.7501 83.3101 31.6701 87.0001 30.5701C87.5101 30.4201 87.7 30.4701 87.74 31.0401C87.78 31.6301 87.9601 32.2001 88.0501 32.7701C88.1801 33.5801 87.9401 34.3001 87.4101 34.9201V34.9301Z" fill="#DF6939"/>
</svg>
