<svg width="60" height="93" viewBox="0 0 60 93" fill="none" xmlns="http://www.w3.org/2000/svg">
<path d="M59.42 6.22009C59.42 5.50009 59.16 5.2401 58.5 5.2301C58.14 5.2301 57.78 5.22009 57.42 5.22009C52.96 5.22009 48.5 5.22009 44.04 5.22009C43.46 5.22009 42.94 5.21013 42.6 4.57013C41.22 1.98013 39.21 0.280117 36.14 0.120117H23.21C22.38 0.330117 21.5 0.260105 20.7 0.670105C19.08 1.5001 17.76 2.65015 16.95 4.28015C16.56 5.06015 16.05 5.26012 15.25 5.25012C10.64 5.22012 6.03005 5.24012 1.43005 5.25012C0.960054 5.25012 0.460049 5.17013 0.0500488 5.51013V75.8101C0.510049 76.2001 1.06998 76.0901 1.59998 76.0901C7.72998 76.0901 13.87 76.0901 20 76.0901C21.26 76.0901 21.3 76.1301 21.3 77.4101C21.3 81.7201 21.3 86.0401 21.3 90.3501C21.3 90.7101 21.2999 91.0701 21.3199 91.4301C21.3499 92.0001 21.59 92.2601 22.22 92.2601C27.19 92.2401 32.15 92.2401 37.12 92.2601C37.75 92.2601 37.99 92.0001 38.02 91.4301C38.04 91.0701 38.04 90.7101 38.04 90.3501C38.04 86.0601 38.04 81.7801 38.04 77.5001C38.04 76.1401 38.08 76.1001 39.46 76.1001C45.44 76.1001 51.43 76.1001 57.41 76.1001C57.77 76.1001 58.13 76.1002 58.49 76.0901C59.15 76.0702 59.4 75.7801 59.4 75.0801C59.38 52.1301 59.38 29.1801 59.4 6.22009H59.42ZM21.6 10.2901C21.65 9.6101 21.6 8.9101 21.61 8.2301C21.65 6.7001 22.75 5.53014 24.26 5.52014C27.88 5.49014 31.49 5.49014 35.1 5.52014C36.57 5.53014 37.7 6.66013 37.75 8.13013C37.78 9.02013 38.05 10.1601 37.62 10.7401C37.21 11.2901 36 10.8901 35.15 10.9001C33.33 10.9301 31.5101 10.9001 29.6801 10.9001C27.2001 10.9001 24.72 10.8901 22.24 10.9101C21.76 10.9101 21.54 10.8301 21.58 10.2901H21.6ZM32.39 86.2401C32.39 86.6701 32.28 86.8001 31.84 86.7901C30.43 86.7601 29.03 86.7601 27.62 86.7901C27.11 86.8001 26.97 86.6501 26.98 86.1501C27.01 83.6301 26.99 81.1201 26.99 78.6001C26.99 76.0801 27.01 73.6301 26.98 71.1401C26.98 70.5601 27.12 70.3801 27.71 70.4001C29.08 70.4501 30.46 70.4301 31.84 70.4001C32.27 70.4001 32.39 70.5201 32.39 70.9501C32.38 76.0401 32.38 81.1401 32.39 86.2301V86.2401ZM16.22 40.7701C16.22 33.2301 22.2599 27.0901 29.6899 27.0901C37.1099 27.0901 43.16 33.2402 43.15 40.7802C43.15 48.2001 37.0901 54.2401 29.6801 54.2401C22.2701 54.2401 16.23 48.1801 16.22 40.7701ZM52.95 70.4401C48.16 70.3901 43.38 70.4001 38.59 70.4401C37.94 70.4401 37.72 70.3101 37.76 69.6201C37.82 68.3001 37.76 66.9801 37.79 65.6601C37.8 65.1601 37.67 65.0001 37.16 65.0101C35.78 65.0501 34.41 65.0101 33.03 65.0401C32.53 65.0501 32.37 64.9201 32.38 64.4001C32.42 62.9601 32.43 61.5201 32.38 60.0901C32.36 59.5101 32.6199 59.4101 33.0699 59.3101C41.0999 57.5701 46.22 52.7001 48.1 44.7301C50.65 33.9301 42.91 23.1401 31.9 21.8501C21.57 20.6401 12.15 28.1301 11 38.4701C9.88 48.5501 16.3601 57.3801 26.3101 59.3101C26.8301 59.4101 27.05 59.5801 27.02 60.1601C26.97 61.5401 26.96 62.9201 27.02 64.2901C27.05 64.9601 26.81 65.0701 26.21 65.0501C24.96 65.0001 23.6999 65.0701 22.4399 65.0201C21.7999 64.9901 21.55 65.1101 21.59 65.8301C21.66 67.1501 21.59 68.4702 21.62 69.7802C21.63 70.2602 21.53 70.4401 21 70.4401C16.03 70.4201 11.06 70.4101 6.09998 70.4401C5.35998 70.4401 5.44995 70.0801 5.44995 69.6201C5.44995 59.9401 5.44995 50.2601 5.44995 40.5801C5.44995 30.9001 5.45005 21.4001 5.43005 11.8101C5.43005 11.0901 5.54996 10.8601 6.32996 10.8701C9.37996 10.9201 12.43 10.9101 15.49 10.8801C16.05 10.8801 16.26 10.9801 16.24 11.6001C16.19 12.8901 16.26 14.1801 16.21 15.4701C16.18 16.1201 16.33 16.3201 17.02 16.3101C22.08 16.2801 27.1299 16.2901 32.1899 16.2901C35.5999 16.2901 39.01 16.2801 42.42 16.3001C42.98 16.3001 43.19 16.1901 43.17 15.5801C43.12 14.2001 43.17 12.8201 43.14 11.4501C43.14 11.0301 43.2301 10.8901 43.6801 10.8901C46.9101 10.9101 50.14 10.9101 53.38 10.8901C53.8 10.8901 54.0001 10.9901 53.9301 11.4301C53.9101 11.5801 53.9301 11.7301 53.9301 11.8801C53.9301 31.0601 53.93 50.2401 53.95 69.4101C53.95 70.2001 53.79 70.4401 52.95 70.4301V70.4401Z" fill="#DA693A"/>
<path d="M39.23 37.7402C35.28 41.6602 31.3501 45.6102 27.4101 49.5502C27.2901 49.6702 27.16 49.7902 26.99 49.9402C26.83 49.8002 26.7 49.6802 26.58 49.5602C24.42 47.4002 22.27 45.2302 20.1 43.0802C19.77 42.7602 19.75 42.5602 20.1 42.2302C21.12 41.2602 22.11 40.2602 23.08 39.2402C23.4 38.9002 23.6001 38.8802 23.9301 39.2402C24.7101 40.0702 25.58 40.8102 26.32 41.6802C26.87 42.3302 27.18 42.1702 27.69 41.6502C30.2 39.0802 32.7701 36.5702 35.2801 34.0002C35.7701 33.5002 36.02 33.5502 36.45 34.0202C37.32 34.9702 38.2401 35.8702 39.1701 36.7602C39.5301 37.1102 39.65 37.3102 39.22 37.7402H39.23Z" fill="#131B53"/>
</svg>
