<svg width="96" height="95" viewBox="0 0 96 95" fill="none" xmlns="http://www.w3.org/2000/svg">
<path d="M12.2 94.45C10.72 93.86 10.15 92.7201 9.99001 91.1801C9.24001 84.0101 8.43004 76.8501 7.64004 69.6801C6.92004 63.0901 6.19 56.51 5.48 49.92C5.46 49.73 5.28998 49.42 5.57998 49.38C5.96998 49.32 5.92002 49.74 6.00002 49.97C7.52002 54.47 10.11 58.24 13.82 61.21C18.32 64.81 23.49 66.53 29.24 66.54C32.8 66.54 36.37 66.69 39.84 65.65C47.88 63.23 53.33 58.0601 56.22 50.1801C56.33 49.8801 56.33 49.53 56.71 49.29C56.92 49.61 56.8201 49.9199 56.7901 50.1899C56.2201 55.4399 55.6401 60.68 55.0601 65.92C54.8501 67.84 54.6101 69.7601 54.4301 71.6801C54.3801 72.2001 54.22 72.33 53.72 72.33C51.29 72.31 48.87 72.31 46.44 72.33C42.63 72.35 39.59 74.53 38.36 78.14C37.14 81.73 35.96 85.3401 34.74 88.9301C34.12 90.7701 34.2001 92.6 34.6801 94.45H12.2Z" fill="#DF6939"/>
<path d="M95.1301 90.95V92.4201C94.9201 93.5601 94.25 94.24 93.11 94.45H41.87C39.81 93.31 39.45 92.38 40.2 90.1C41.31 86.76 42.4201 83.43 43.5301 80.09C44.0701 78.49 44.93 77.87 46.6 77.87C60.5 77.86 74.4001 77.86 88.3001 77.87C90.0301 77.87 90.8801 78.4901 91.4301 80.1401C92.5501 83.4801 93.6501 86.8101 94.7701 90.1501C94.8601 90.4201 94.8501 90.76 95.1301 90.95Z" fill="#131B53"/>
<path d="M70.26 71.33C70.26 72.18 70.04 72.4 69.22 72.35C67.96 72.28 66.6999 72.3 65.4399 72.35C64.8099 72.38 64.7 72.16 64.7 71.59C64.72 66.64 64.71 61.7001 64.71 56.7601V37.33C64.71 26.03 64.71 14.73 64.72 3.43999C64.72 3.00999 64.7101 2.57009 64.8101 2.16009C65.1501 0.850087 66.4 -0.00997169 67.71 0.100028C69.02 0.220028 70.09 1.28006 70.23 2.63006C70.26 2.93006 70.24 3.2401 70.24 3.5501C70.24 26.1401 70.24 48.73 70.26 71.33Z" fill="#131B53"/>
<path d="M11.8199 49.3601H50.5699C49.8899 51.2301 48.88 52.8501 47.63 54.3201C44.06 58.5001 39.51 60.7701 34.01 60.9601C30.49 61.0801 26.95 61.2802 23.51 60.1802C18.24 58.4902 14.41 55.1501 12.03 50.1501C11.92 49.9101 11.7199 49.6801 11.8199 49.3501V49.3601Z" fill="#DF6939"/>
<path d="M31.1601 43.8002C22.0401 43.8002 12.9201 43.8002 3.79008 43.8002C1.60008 43.8002 0.210011 41.9502 0.970011 40.0602C1.40001 39.0002 2.23003 38.4402 3.36003 38.2902C3.57003 38.2602 3.79004 38.2701 4.00004 38.2701C22.09 38.2701 40.1801 38.2701 58.2701 38.2701C59.9901 38.2701 61.0701 39.0001 61.4201 40.3801C61.8401 42.0401 60.68 43.6602 58.98 43.7802C58.49 43.8102 58.0001 43.8002 57.5101 43.8002C48.7301 43.8002 39.9401 43.8002 31.1601 43.8002Z" fill="#DF6939"/>
</svg>
