<svg width="91" height="96" viewBox="0 0 91 96" fill="none" xmlns="http://www.w3.org/2000/svg">
<path d="M90.25 92.42C89.94 92.33 90.07 92.07 90.06 91.88C89.91 89.92 89.7 87.96 89.25 86.05C85.31 69.29 75.22 58.06 58.93 52.39C58.16 52.13 57.68 52.27 57.07 52.76C50.25 58.21 41.33 58.3799 34.38 53.0899C33.29 52.2599 32.46 52.22 31.28 52.63C13.37 58.76 1.40999 74.96 0.829986 93.88C0.799986 94.77 0.949988 95.02 1.90999 95.02C30.95 94.99 59.99 95 89.03 95C89.37 95 89.7 94.99 90.04 94.98C90.31 94.66 89.99 94.22 90.25 93.89V92.42ZM76.08 85.0899C72.49 85.0499 68.9 85.0699 65.3 85.0699C61.7 85.0699 58.19 85.0599 54.63 85.0699C54 85.0799 53.73 85.01 53.74 84.26C53.79 80.39 53.78 76.52 53.75 72.66C53.74 71.97 53.91 71.8 54.6 71.8C61.76 71.83 68.91 71.83 76.06 71.8C76.82 71.8 76.96 72.03 76.95 72.73C76.92 76.57 76.91 80.4 76.96 84.24C76.96 84.96 76.74 85.0799 76.08 85.0799V85.0899Z" fill="#DA693A"/>
<path d="M60.69 45.88C57.53 49.8 53.56 52.52 48.51 53.36C42.69 54.33 37.58 52.67 33.17 48.85C28.11 44.46 25.39 38.75 24.38 32.23C23.24 24.94 24.34 17.99 28.13 11.59C31.2 6.40997 35.46 2.67995 41.45 1.19995C42.04 1.04995 42.65 0.980005 43.26 0.880005C43.62 0.700005 44.04 0.949971 44.38 0.719971H46.04C46.41 0.869971 46.78 0.869971 47.15 0.719971H47.33C48.3 0.939971 49.28 1.11 50.23 1.38C56.04 3.05 60.12 6.85998 63.08 11.98C69.12 22.43 68.12 36.7 60.69 45.89V45.88Z" fill="#DA693A"/>
</svg>
