<svg width="93" height="94" viewBox="0 0 93 94" fill="none" xmlns="http://www.w3.org/2000/svg">
<path d="M92.2 56.5102C92.2 56.0302 92.02 55.5802 91.85 55.1302C89.94 50.1802 83.5 48.8202 79.32 52.5002C75.02 56.2802 70.74 60.0902 66.44 63.8802C65.79 64.4602 65.14 65.0202 64.38 65.6802C66.11 59.7902 61.69 55.4502 56.61 55.5802C47.99 55.8002 39.36 55.6402 30.73 55.6302C25.99 55.6202 21.7601 57.0702 18.0401 59.9702C12.7301 64.0802 7.44002 68.2102 2.13002 72.3102C1.30002 72.9602 0.919958 73.7002 0.939958 74.7502C0.979958 79.8302 0.979958 84.9002 0.939958 89.9802C0.929958 91.1902 1.29002 92.0602 2.38002 92.5902H23.36C23.72 92.4002 24.14 92.3402 24.49 92.1002C27.33 90.0602 30.2101 88.1002 33.0601 86.0502C33.7901 85.5202 34.54 85.2803 35.46 85.2803C43.46 85.3102 51.45 85.3302 59.46 85.2803C63.61 85.2503 67.25 83.7202 70.36 80.9702C71.13 80.3002 71.87 79.5902 72.62 78.9302C75.92 76.0402 79.1401 73.0602 82.4201 70.1602C84.5401 68.2802 86.64 66.3802 88.74 64.4902C90.45 62.9602 92.24 61.4702 92.36 58.9002V57.4602C92.15 57.1702 92.36 56.8102 92.22 56.5102H92.2ZM87.2 60.2302C81.51 65.3402 75.83 70.4502 70.13 75.5602C69.34 76.2702 68.53 76.9902 67.73 77.7102C65.2 80.0202 62.21 81.1502 58.77 81.1402C50.5 81.1302 42.22 81.1502 33.95 81.1302C33.13 81.1302 32.4601 81.3402 31.8001 81.8202C28.7601 83.9902 25.7 86.1202 22.65 88.2602C22.27 88.5302 21.9101 88.6802 21.4301 88.6802C16.1701 88.6502 10.9201 88.6502 5.66005 88.6802C5.05005 88.6802 4.86001 88.5602 4.87001 87.9102C4.90001 83.9102 4.88001 79.9002 4.87001 75.9002C4.87001 75.4202 5.00004 75.1002 5.40004 74.7802C10.53 70.8202 15.62 66.8102 20.74 62.8602C23.57 60.6902 26.81 59.6002 30.4 59.5902H43.39C48.08 59.5902 52.76 59.5802 57.46 59.6002C59.12 59.6002 60.5401 60.8302 60.8001 62.4202C61.0901 64.1502 60.16 65.7802 58.57 66.3502C58 66.5602 57.4001 66.5802 56.8001 66.5802H39.24C38.94 66.5802 38.64 66.5702 38.34 66.5902C37.46 66.6802 36.73 67.3802 36.61 68.2602C36.49 69.1402 36.99 70.0102 37.82 70.3402C38.22 70.5002 38.6401 70.5202 39.0501 70.5202C46.6001 70.5102 54.17 70.5102 61.73 70.5202C63.88 70.5202 65.73 69.7902 67.35 68.3502C72.17 64.0702 77.01 59.8102 81.82 55.5102C82.82 54.6302 83.92 54.1902 85.26 54.3802C86.67 54.5702 87.73 55.2902 88.21 56.6502C88.69 58.0502 88.27 59.2302 87.2 60.2102V60.2302Z" fill="#DF6939" stroke="#DF6939" stroke-miterlimit="10"/>
<path d="M92.34 57.4603C92.07 57.1803 92.13 56.8503 92.19 56.5103C92.24 56.5303 92.29 56.5402 92.34 56.5602V57.4603Z" fill="#DF6939"/>
<path d="M57.97 29.7402C58.14 29.9002 58.31 30.0702 58.47 30.2402C58.31 30.0602 58.15 29.9002 57.98 29.7402H57.97ZM62.76 39.4003C62.72 39.0403 62.67 38.6903 62.61 38.3403C62.67 38.6903 62.72 39.0403 62.75 39.4003C62.83 40.2003 62.88 40.7402 62.83 41.1102C62.9 40.7502 62.85 40.2103 62.76 39.4003Z" fill="#DF6939" stroke="#131B53" stroke-miterlimit="10"/>
<path d="M66.75 39.7202C66.26 33.8702 63.66 29.1602 59.09 25.5102C57.61 24.3302 55.97 23.4502 54.23 22.6802C60.28 17.5102 60.12 9.35021 55.32 4.46022C50.61 -0.359785 42.66 -0.359785 37.95 4.46022C33.17 9.32022 32.9701 17.5002 39.0501 22.6902C38.8601 22.7802 38.75 22.8402 38.64 22.8902C35.46 24.2502 32.78 26.2902 30.64 29.0302C27.25 33.3402 26.1801 38.3102 26.4201 43.6602C26.4901 45.0602 27.31 45.8002 28.76 45.8002H64.51C66.03 45.8002 66.83 45.0102 66.84 43.4702C66.87 42.2302 66.86 40.9802 66.75 39.7202ZM38.38 13.0502C38.38 8.45018 42.09 4.75022 46.7 4.78022C51.24 4.78022 54.9 8.51022 54.89 13.0902C54.88 17.6702 51.22 21.3002 46.62 21.2902C42.03 21.2902 38.38 17.6402 38.38 13.0502ZM62.83 41.1102C62.81 41.2202 62.79 41.3002 62.75 41.3802C62.72 41.4602 62.66 41.5302 62.6 41.5802C62.29 41.8502 61.65 41.8502 60.45 41.8502H46.5601C43.0001 41.8502 39.45 41.8502 35.9 41.8602C34.38 41.8602 32.85 41.8702 31.33 41.8802C31.28 41.8802 31.2201 41.8802 31.1801 41.8702C31.1301 41.8702 31.0801 41.8702 31.0401 41.8602C30.8201 41.8402 30.6701 41.7902 30.5601 41.6902C30.5201 41.6502 30.49 41.6202 30.46 41.5702C30.44 41.5502 30.4301 41.5302 30.4301 41.5002C30.4101 41.4702 30.4 41.4402 30.39 41.4002C30.34 41.2602 30.33 41.0802 30.34 40.8502C30.58 34.5002 34.34 29.3602 39.37 26.8902C40.21 26.4702 41.08 26.1302 41.98 25.8802C42.88 25.6202 43.8 25.4402 44.74 25.3502C46.79 25.1502 48.75 25.2602 50.59 25.7002C51.07 25.8102 51.54 25.9402 52.01 26.1002C52.49 26.2602 52.9601 26.4402 53.4201 26.6502C55.0401 27.3702 56.55 28.4002 57.96 29.7402C58.13 29.9002 58.29 30.0602 58.45 30.2402C58.95 30.7402 59.4001 31.2702 59.8101 31.8202C60.0801 32.1902 60.34 32.5602 60.57 32.9502C61.41 34.2902 62.01 35.7502 62.39 37.3202C62.47 37.6602 62.54 38.0002 62.6 38.3402C62.66 38.6902 62.71 39.0402 62.75 39.4002C62.84 40.2102 62.89 40.7502 62.82 41.1102H62.83Z" fill="#131B53" stroke="#131B53" stroke-miterlimit="10"/>
<path d="M57.97 29.7402C58.14 29.9002 58.3 30.0602 58.46 30.2402C58.3 30.0702 58.13 29.9002 57.96 29.7402H57.97Z" fill="#DF6939"/>
<path d="M62.83 41.11C62.88 40.74 62.83 40.2001 62.75 39.4001C62.72 39.0401 62.67 38.6901 62.61 38.3401C62.67 38.6901 62.72 39.0401 62.76 39.4001C62.85 40.2101 62.9 40.75 62.83 41.11Z" fill="#DF6939"/>
</svg>
