<svg width="59" height="95" viewBox="0 0 59 95" fill="none" xmlns="http://www.w3.org/2000/svg">
<path d="M58.6 35.9499C58.48 35.4799 58.2 35.1199 57.88 34.7799C52.14 28.7199 46.39 22.6799 40.64 16.6199C39.66 15.5799 38.46 15.0699 37.04 15.0899C35.99 15.0899 34.95 15.0499 33.91 15.0899C33.28 15.1299 33.22 14.8399 33.22 14.3299C33.22 13.8499 33.55 13.7299 33.83 13.5199C36.26 11.7999 37.45 9.48991 37.07 6.49991C36.7 3.54991 35.08 1.51991 32.32 0.499911C29.43 -0.560089 26.77 0.0598912 24.63 2.22989C22.49 4.39989 21.94 7.04987 22.97 9.95987C23.5 11.4499 24.44 12.6599 25.79 13.4799C26.34 13.8199 26.51 14.2099 26.38 14.7599C26.23 15.3999 25.68 15.0499 25.31 15.0699C24.46 15.1299 23.6 15.1299 22.74 15.0699C20.96 14.9799 19.56 15.6599 18.36 16.9499C12.8 22.8499 7.21004 28.7099 1.64004 34.5899C1.43004 34.8199 1.21002 35.0499 1.05002 35.29C0.280016 36.47 0.780001 37.77 2.16 38.04C2.78 38.17 3.46005 38.1899 4.09005 38.1199C4.92005 38.0399 5.29004 38.3299 5.57004 39.1399C8.54004 47.3699 11.57 55.58 14.56 63.8C15.36 66 16.89 67.2099 19.23 67.2799C19.72 67.2999 19.92 67.4799 20.06 67.8999C20.53 69.2599 21.03 70.6099 21.51 71.9599C22.34 74.2699 23.38 75.0499 25.81 74.9899C26.62 74.9699 26.74 75.2299 26.73 75.9599C26.7 80.7499 26.77 85.5399 26.69 90.3299C26.65 92.2799 27.29 93.6299 29.11 94.3799H30.57C32.36 93.9499 33.17 92.94 33.22 91.06C33.22 90.72 33.22 90.39 33.22 90.05V76.42C33.22 75.36 33.26 75.3199 34.3 75.2899C36.22 75.2399 37.53 74.34 38.26 72.5399C38.78 71.2299 39.22 69.89 39.7 68.56C39.94 67.89 40.3 67.5899 41.02 67.5099C43.02 67.2699 44.39 66.1499 45.21 64.3299C45.63 63.3999 45.9201 62.4299 46.2801 61.4799C48.8601 54.5099 51.41 47.53 53.93 40.54C54.43 39.13 54.93 38.0799 56.68 38.3899C57.11 38.4599 57.5201 38.2399 57.9001 38.0099C58.34 37.7399 58.66 37.4199 58.6501 36.8599V36.8399C58.6301 36.5299 58.7101 36.23 58.5901 35.93L58.6 35.9499ZM27.17 61.2699C27.17 61.7799 27.04 61.9499 26.51 61.9399C24.4 61.9099 22.29 61.9199 20.17 61.9399C19.77 61.9399 19.57 61.8399 19.43 61.4599C16.63 53.7599 13.82 46.0499 11.01 38.3599C11.01 38.3299 11.01 38.2999 11.04 38.1599C16.24 38.1599 21.42 38.1599 26.6 38.1599C27.34 38.1599 27.16 38.6099 27.16 38.9899V56.4899C27.16 58.0799 27.14 59.6899 27.16 61.2799L27.17 61.2699ZM45.71 46.6599C43.93 51.5199 42.1401 56.3699 40.4001 61.2299C40.1901 61.7999 39.93 61.9499 39.36 61.9399C37.34 61.9099 35.31 61.9099 33.29 61.9399C32.72 61.9399 32.57 61.7899 32.57 61.2299C32.59 53.7599 32.59 46.2999 32.57 38.8399C32.57 38.4699 32.4801 38.1399 33.0901 38.1399C38.2901 38.1599 43.51 38.1399 48.81 38.1399C47.75 41.0199 46.72 43.8299 45.69 46.6399L45.71 46.6599Z" fill="#DF6939"/>
<path d="M58.76 36.89H58.68H58.6C58.6 36.57 58.6 36.2599 58.61 35.9399C58.66 35.9399 58.72 35.94 58.77 35.96V36.88L58.76 36.89Z" fill="#DF6939"/>
</svg>
