<svg width="102" height="63" viewBox="0 0 102 63" fill="none" xmlns="http://www.w3.org/2000/svg">
<path d="M101.26 35.9901C101.09 35.2801 100.85 34.5901 100.51 33.9501C99.76 32.5401 98.71 31.3902 97.37 30.5202C95.43 29.2402 93.4899 27.9601 91.5999 26.6001C89.5899 25.1501 87.62 23.6501 85.79 21.9701C85.07 21.3101 84.37 20.6201 83.76 19.8401C83.52 19.5201 83.3499 19.1802 83.3499 18.7802C83.3499 18.7002 83.3299 18.6302 83.3299 18.5602C83.2899 17.7502 83.1699 16.9502 82.9599 16.1702C82.6999 15.2002 82.3399 14.2601 81.8499 13.3801C81.1999 12.2301 80.39 11.2401 79.39 10.3801C78.01 9.18014 76.42 8.36018 74.68 7.80018C72.92 7.24018 71.11 6.98018 69.27 6.92018C67.32 6.86018 65.42 7.12008 63.56 7.69008C62.7 7.96008 61.87 8.3001 61.06 8.7101C60.97 8.6601 60.88 8.61018 60.79 8.55018C59.6 7.79018 58.37 7.09008 57.12 6.44008C53.25 4.44008 49.16 3.08009 44.9 2.20009C41.61 1.52009 38.28 1.13018 34.93 0.920178C32.76 0.790178 30.59 0.740154 28.41 0.770154C26.06 0.800154 23.73 1.0201 21.41 1.4601C18.75 1.9801 16.19 2.79012 13.76 3.99012C9.70998 5.98012 6.39002 8.80012 3.93002 12.6101C3.07002 13.9301 2.35999 15.3302 1.76999 16.8002C1.33999 17.8902 0.99996 19.0202 0.73996 20.1702C0.52996 21.1102 0.369999 22.0602 0.279999 23.0202C0.109999 24.9202 0.120004 26.8101 0.410004 28.7001C0.520004 29.4501 0.649916 30.1902 0.819916 30.9302C1.03992 31.9102 1.31 32.8702 1.66 33.8102C1.96 34.6002 2.24995 35.3801 2.59995 36.1401C3.15995 37.3501 3.81003 38.5101 4.56003 39.6101C5.51003 41.0201 6.59003 42.3101 7.81003 43.4801C8.03003 43.6801 8.23995 43.8901 8.47995 44.1101C8.34995 44.1401 8.26002 44.1701 8.18002 44.1901C5.83002 44.7501 3.79993 45.8501 2.20993 47.7001C1.09993 49.0101 0.399931 50.5001 0.209931 52.2301C0.0399306 53.9101 0.360004 55.4901 1.16 56.9701C1.83 58.2101 2.75998 59.2202 3.88998 60.0502C5.98998 61.5902 8.35991 62.3201 10.9399 62.3201C35.0499 62.3201 59.16 62.3201 83.28 62.3201C83.62 62.3201 83.98 62.2901 84.31 62.2101C85.5 61.9201 86.4199 61.2801 86.8499 60.0701C87.0999 59.3401 87.02 58.6301 86.66 57.9601C86.25 57.2101 85.6099 56.7202 84.8199 56.4202C84.2599 56.2002 83.6799 56.1602 83.0999 56.1602H10.9799C9.64995 56.1102 8.54002 55.6401 7.80002 54.4801C7.33002 53.7301 7.28994 52.9201 7.58994 52.1201C7.87994 51.3301 8.47995 50.7802 9.22995 50.4102C9.85995 50.1102 10.5199 50.0101 11.1999 50.0101H90.5899C92.5999 50.0101 94.51 49.5801 96.3 48.6301C98.19 47.6201 99.69 46.2202 100.64 44.2702C101.16 43.1902 101.45 42.0601 101.45 40.8601C101.44 39.8701 101.44 38.8701 101.45 37.8801C101.45 37.2401 101.41 36.6101 101.26 35.9901ZM92.79 43.2101C92.14 43.6401 91.41 43.8301 90.64 43.8401C90.57 43.8501 90.49 43.8501 90.42 43.8501C68.74 43.8501 47.07 43.8501 25.39 43.8401C23.23 43.8401 21.11 43.5702 19.05 42.9002C16.35 42.0102 14.0499 40.5301 12.1899 38.3801C11.2899 37.3401 10.54 36.2201 9.91 35.0001C9.42 34.0601 9.01 33.0801 8.66 32.0701C8.32 31.0601 8.04994 30.0401 7.83994 28.9901C7.60994 27.8501 7.44002 26.7102 7.43002 25.5502C7.41002 24.5602 7.44998 23.5801 7.63998 22.6101C7.73998 22.1301 7.81002 21.6402 7.93002 21.1602C8.12002 20.4002 8.32998 19.6402 8.63998 18.9202C8.85998 18.4202 9.07001 17.9202 9.29001 17.4302C9.65001 16.6302 10.0999 15.8902 10.5999 15.1702C11.3799 14.0302 12.2899 12.9901 13.3299 12.0701C15.6499 10.0001 18.3499 8.67013 21.3399 7.87013C22.8799 7.45013 24.46 7.20018 26.06 7.05018C28.18 6.86018 30.3 6.92011 32.42 6.98011C33.35 7.00011 34.2899 7.06013 35.2199 7.12013C36.8099 7.21013 38.4 7.38012 39.99 7.61012C42.1 7.90012 44.19 8.32016 46.25 8.90016C49.39 9.79016 52.37 11.0601 55.18 12.7201C55.48 12.9001 55.7699 13.0802 56.0899 13.2702C55.9699 13.5002 55.87 13.7102 55.76 13.9102C55.36 14.6702 55.05 15.4602 54.81 16.2702C54.65 16.8502 54.56 17.4502 54.4799 18.0502C54.3299 19.0302 54.43 20.0001 54.62 20.9601C54.85 22.1001 55.31 23.1602 55.93 24.1502C56.82 25.5602 57.97 26.7301 59.3 27.7201C60.78 28.8301 63.03 28.7001 64.36 27.4401C65.06 26.7701 65.4 25.9501 65.25 24.9701C65.13 24.2101 64.73 23.6001 64.13 23.1301C63.61 22.7201 63.1099 22.2902 62.6999 21.7802C62.0099 20.9302 61.62 19.9801 61.66 18.8701C61.68 18.3401 61.7999 17.8202 61.9799 17.3102C62.22 16.6802 62.51 16.0702 62.93 15.5302C63.63 14.6502 64.5299 14.0501 65.5699 13.6401C66.4299 13.3101 67.32 13.1201 68.24 13.0901C69.4 13.0501 70.5599 13.1102 71.6899 13.4102C72.7299 13.6802 73.6699 14.1402 74.4399 14.9002C74.9799 15.4302 75.37 16.0601 75.65 16.7601C75.98 17.6001 76.07 18.4701 76.13 19.3501C76.15 19.6601 76.1799 19.9602 76.2299 20.2702C76.35 20.9002 76.6299 21.4702 76.9499 22.0202C77.8299 23.5002 79.01 24.7402 80.25 25.9202C82.16 27.7502 84.25 29.3702 86.38 30.9302C88.48 32.4502 90.63 33.9002 92.81 35.3002C93.48 35.7302 93.93 36.3401 94.14 37.1101C94.2 37.3301 94.1999 37.5802 94.1999 37.8102C94.2099 38.7602 94.1999 39.7001 94.2099 40.6401C94.2199 41.7701 93.7 42.6001 92.79 43.2101Z" fill="#DF6939"/>
<path d="M76.13 31.47C76.15 32.26 75.8599 32.94 75.3199 33.5C73.7199 35.11 70.9299 34.92 69.5799 33.36C68.6399 32.26 68.6799 30.63 69.6999 29.59C70.4699 28.81 71.42 28.48 72.51 28.46C73.55 28.47 74.49 28.79 75.26 29.53C75.81 30.07 76.11 30.72 76.13 31.47Z" fill="#131B53"/>
</svg>
