<svg width="106" height="95" viewBox="0 0 106 95" fill="none" xmlns="http://www.w3.org/2000/svg">
<path d="M103.49 45.96C101.97 44.43 100.19 43.29 98.29 42.35C95.25 40.84 92.07 39.69 88.79 38.8C80.63 36.58 72.3399 35.35 63.8599 35.49C63.4199 35.49 62.97 35.5399 62.53 35.4499C62.01 35.3499 61.51 34.57 61.63 34.02C61.75 33.41 62.26 33.61 62.63 33.6C63.38 33.57 64.14 33.6 64.89 33.59C68.96 33.57 71.7099 30.83 71.6999 26.73C71.6999 25.08 71.79 23.4399 72.04 21.8299C73.1 14.9499 76.42 9.39995 82 5.20995C82.58 4.77995 83.1399 4.32998 83.5699 3.73998C84.4999 2.45998 83.8899 0.909939 82.3399 0.569939C82.3199 0.569939 82.31 0.570051 82.29 0.560051H81.0899C80.5299 0.560051 80.0499 0.799988 79.5999 1.11999C74.5199 4.84999 70.8499 9.64996 68.7399 15.59C67.4999 19.07 67 22.68 67.04 26.38C67.06 28.18 66.3399 28.88 64.5699 28.91C63.5399 28.93 62.5199 28.91 61.4899 28.92C60.8599 28.93 60.6299 28.8 60.8699 28.09C62.3799 23.55 60.67 19.46 56.39 17.38C55.55 16.97 55.26 16.4601 55.27 15.5601C55.32 12.8901 55.29 10.22 55.29 7.55004C55.29 7.04004 55.29 6.52002 55.13 6.03002C54.79 5.01002 53.85 4.27995 52.93 4.32995C51.85 4.38995 50.85 5.29 50.67 6.38C50.61 6.75 50.6199 7.13 50.6199 7.51C50.6199 10.25 50.5999 12.98 50.6199 15.72C50.6199 16.5 50.4 17.0001 49.64 17.3101C45.21 19.1401 43.4 24.32 45.04 28.14C45.32 28.79 45.0299 28.92 44.4599 28.92C43.4299 28.91 42.41 28.93 41.38 28.92C39.59 28.89 38.8899 28.2 38.8599 26.43C38.8399 25.06 38.84 23.6999 38.68 22.3299C37.64 13.4699 33.4199 6.48002 26.3399 1.15002C25.8799 0.810017 25.3999 0.570051 24.8199 0.560051H24.7399C24.3399 0.600051 23.94 0.480007 23.55 0.640007C21.96 1.38001 21.6799 2.89994 22.9399 4.06994C23.4099 4.50994 23.9499 4.89002 24.4699 5.28002C27.7699 7.80002 30.26 10.9499 32.03 14.6899C33.86 18.5399 34.4899 22.6099 34.4799 26.8299C34.4799 30.6599 37.1 33.26 40.93 33.3C42.19 33.32 43.46 33.3 44.81 33.3C44.61 34.04 44.41 34.69 44.25 35.34C44.15 35.75 43.93 35.8499 43.52 35.8299C37.88 35.4999 32.31 36.07 26.77 37.02C20.05 38.18 13.4799 39.86 7.35994 42.96C4.95994 44.17 2.70994 45.61 1.23994 47.96C-0.400057 50.58 0.419929 53.66 3.09993 55.18C4.71993 56.1 6.48001 56.44 8.31001 56.53C12.2 56.73 16.04 56.25 19.81 55.36C27.3 53.6 34.5899 51.22 41.5899 48C41.9399 47.84 42.2699 47.58 42.7299 47.6C42.6799 50.36 42.73 53.06 42.92 55.76C42.94 56.13 42.9699 56.46 42.5799 56.74C39.6299 58.83 37.69 61.75 36.02 64.89C34.36 68 33.41 71.4 32.03 74.63C29.56 80.42 25.7099 85.04 20.3599 88.41C18.6999 89.45 16.9 90.18 15.15 91.03C14.31 91.44 13.87 92.17 14.01 93.13C14.15 94.07 14.74 94.65 15.67 94.86C16.24 94.99 16.74 94.7701 17.25 94.5601C26.87 90.62 33.2399 83.6 36.7199 73.89C38.1299 69.96 39.6499 66.09 42.2099 62.73C42.5499 62.29 42.85 61.81 43.43 61.5C43.97 65.78 44.6999 69.91 45.9699 73.93C46.6799 76.18 47.5299 78.38 48.9799 80.28C50.5899 82.4 52.79 83.12 54.8 82.14C56.17 81.47 57.0799 80.3 57.8199 79.01C59.7099 75.71 60.62 72.06 61.39 68.38C61.86 66.12 62.1799 63.84 62.5899 61.48C63.4499 62.24 64.05 63.1 64.63 63.98C66.8 67.22 68.08 70.85 69.43 74.46C72.91 83.8 79.17 90.5499 88.4 94.4499C90.11 95.1699 91.28 94.87 91.8 93.63C92.31 92.4 91.7099 91.35 89.9699 90.63C87.9499 89.79 86.0099 88.78 84.2299 87.51C79.0899 83.85 75.51 79.01 73.31 73.12C72.46 70.85 71.72 68.54 70.66 66.36C68.87 62.67 66.79 59.2 63.38 56.74C63.1 56.53 62.99 56.31 63.01 55.97C63.2 53.18 63.2599 50.38 63.2099 47.49C63.5099 47.61 63.7299 47.69 63.9399 47.79C67.9699 49.67 72.1199 51.2 76.3599 52.53C82.7599 54.54 89.1699 56.51 95.9599 56.55C99.9199 56.57 103.78 56.24 105.55 51.79V49.74C105.4 48.2 104.58 47.03 103.52 45.96H103.49ZM40.8699 43.79C35.5 46.35 29.9099 48.3 24.2099 49.96C20.0099 51.18 15.7699 52.2199 11.3699 52.4399C11.0699 52.4499 10.7599 52.4399 10.4499 52.4399C9.0099 52.4599 7.57989 52.44 6.18989 52.01C4.17989 51.39 3.96996 50.61 5.50996 49.13C7.43996 47.26 9.81998 46.1299 12.28 45.1999C21.96 41.4999 31.9899 39.77 42.3499 39.87C43.2299 39.87 43.1999 40.18 43.2299 40.92C43.3099 42.68 42.11 43.21 40.8699 43.8V43.79ZM52.8699 20.99C55.1199 20.95 57.02 22.79 57.04 25.04C57.06 27.29 55.1999 29.17 52.9599 29.18C50.7099 29.19 48.8399 27.3199 48.8399 25.0699C48.8399 22.8599 50.6699 21.02 52.8699 20.98V20.99ZM56.2199 72.03C55.6199 74.05 54.94 76.05 53.67 77.8C53.13 78.54 52.7399 78.5 52.2099 77.78C50.9499 76.03 50.23 74.04 49.67 72.01C47.04 62.49 46.32 52.79 47.14 42.96C47.41 39.68 47.97 36.47 49.18 33.38C49.43 32.74 49.6599 32.5599 50.3499 32.8199C52.0699 33.4599 53.84 33.4699 55.56 32.8199C56.29 32.5399 56.4699 32.8 56.7199 33.41C58.1399 36.91 58.6 40.6001 58.88 44.3101C59.02 46.2201 59.07 48.14 59.13 49.37C58.92 57.48 58.3599 64.87 56.2199 72.04V72.03ZM101.3 50.9399C101.04 51.9299 99.92 52.07 99.02 52.23C96.08 52.76 93.15 52.48 90.26 51.92C81.69 50.25 73.4499 47.55 65.4799 43.99C65.1399 43.84 64.8199 43.6 64.4699 43.5C62.8299 43.07 62.7099 41.76 62.6099 40.41C62.5799 39.97 62.75 39.89 63.13 39.89C64.19 39.9 65.25 39.89 66.31 39.89C75.86 40.21 85.1899 41.69 94.1099 45.25C96.1999 46.09 98.2299 47.09 99.9399 48.6C100.64 49.22 101.58 49.8999 101.31 50.9399H101.3Z" fill="#DF6939"/>
<path d="M24.8 0.449951C24.8 0.509951 24.8 0.580005 24.83 0.630005C24.4 0.630005 23.97 0.630005 23.53 0.630005C23.55 0.570005 23.5601 0.509951 23.5601 0.449951H24.79H24.8Z" fill="#DF6939"/>
<path d="M81.05 0.640015C81.08 0.580015 81.09 0.519951 81.08 0.449951H82.3101C82.3101 0.509951 82.32 0.570005 82.34 0.630005C81.91 0.630005 81.48 0.630005 81.04 0.630005L81.05 0.640015Z" fill="#DF6939"/>
<path d="M54.99 51.5501C54.96 52.8801 54.13 53.8 52.98 53.83C51.8 53.86 50.9 52.9101 50.89 51.5401C50.87 48.9801 50.87 46.4201 50.89 43.8601C50.9 42.4601 51.7499 41.5301 52.9499 41.5401C54.1399 41.5401 54.97 42.4801 54.99 43.8801C55.01 45.1801 54.99 46.4701 54.99 47.7701C54.99 49.0701 55.01 50.3001 54.99 51.5601V51.5501Z" fill="#131B53"/>
<path d="M54.98 60.03C54.96 61.1 53.9999 62.05 52.9399 62.05C51.8399 62.05 50.85 61.02 50.9 59.93C50.95 58.86 51.93 57.94 52.99 57.97C54.06 58 55 58.97 54.98 60.04V60.03Z" fill="#131B53"/>
</svg>
