<svg width="94" height="93" viewBox="0 0 94 93" fill="none" xmlns="http://www.w3.org/2000/svg">
<path d="M28.64 47.14C28.7 47.22 28.66 47.32 28.68 47.4V47.59C28.68 47.59 28.68 47.67 28.64 47.71C28.72 47.7 28.7 47.6299 28.7 47.5699C28.7 47.5199 28.7 47.4801 28.7 47.4301C28.7 47.3201 28.74 47.22 28.64 47.14ZM28.7 45.5601C28.7 45.5601 28.7 45.46 28.7 45.41C28.7 45.35 28.73 45.29 28.64 45.28C28.68 45.32 28.68 45.36 28.68 45.42V45.58C28.67 45.67 28.71 45.76 28.64 45.85C28.75 45.77 28.7 45.6601 28.7 45.5601ZM46.06 28.2H45.9C45.9 28.2 45.79 28.2 45.75 28.16C45.77 28.24 45.83 28.22 45.89 28.22H46.04C46.14 28.22 46.25 28.26 46.33 28.16C46.25 28.22 46.15 28.18 46.06 28.2ZM48.07 28.2H47.88C47.8 28.19 47.7 28.23 47.62 28.16C47.69 28.27 47.8 28.22 47.91 28.22C47.95 28.22 48 28.22 48.05 28.22C48.11 28.22 48.18 28.26 48.19 28.16C48.15 28.2 48.11 28.2 48.07 28.2Z" fill="#DF6939"/>
<path d="M46.32 28.16C46.24 28.27 46.13 28.22 46.03 28.22C46.02 28.22 46.01 28.1999 46.01 28.1899V28.1801C46.01 28.1701 46.02 28.16 46.03 28.16H46.32Z" fill="#DF6939"/>
<path d="M47.93 28.2C47.93 28.2 47.92 28.23 47.91 28.23C47.8 28.23 47.69 28.27 47.62 28.17H47.9C47.9 28.17 47.93 28.19 47.93 28.21V28.2Z" fill="#DF6939"/>
<path d="M28.64 45.8499V45.56C28.64 45.56 28.66 45.53 28.68 45.54C28.68 45.54 28.7 45.54 28.71 45.56C28.71 45.66 28.75 45.7699 28.65 45.8499H28.64Z" fill="#DF6939"/>
<path d="M28.7 47.4301C28.7 47.4301 28.68 47.44 28.67 47.45C28.66 47.45 28.64 47.45 28.63 47.42V47.14C28.74 47.22 28.69 47.3201 28.69 47.4301H28.7Z" fill="#DF6939"/>
<path d="M45.92 28.2C45.92 28.2 45.9 28.23 45.89 28.23C45.83 28.23 45.77 28.25 45.75 28.17H45.9C45.9 28.17 45.93 28.19 45.92 28.21V28.2Z" fill="#DF6939"/>
<path d="M46.04 28.16V28.22H45.89C45.89 28.22 45.89 28.1999 45.89 28.1899V28.15H46.03L46.04 28.16Z" fill="#DF6939"/>
<path d="M48.07 28.2C48.07 28.2 48.06 28.22 48.05 28.22C48 28.22 47.95 28.22 47.91 28.22C47.91 28.21 47.91 28.1999 47.91 28.1899V28.15H48.05C48.05 28.15 48.09 28.1699 48.08 28.1899L48.07 28.2Z" fill="#DF6939"/>
<path d="M48.19 28.16C48.18 28.25 48.11 28.22 48.05 28.22V28.2C48.05 28.2 48.05 28.17 48.05 28.16H48.2H48.19Z" fill="#DF6939"/>
<path d="M28.69 45.41C28.69 45.41 28.68 45.4399 28.67 45.4399C28.66 45.4399 28.64 45.44 28.63 45.42V45.28C28.71 45.29 28.69 45.36 28.69 45.41Z" fill="#DF6939"/>
<path d="M28.7 45.5601H28.64V45.42H28.68C28.68 45.42 28.69 45.42 28.7 45.42C28.7 45.47 28.7 45.5199 28.7 45.5699V45.5601Z" fill="#DF6939"/>
<path d="M28.7 47.4301C28.7 47.4301 28.7 47.5199 28.7 47.5699C28.7 47.5799 28.69 47.59 28.68 47.59C28.67 47.59 28.65 47.5899 28.64 47.5699V47.42H28.68C28.68 47.42 28.69 47.42 28.71 47.42L28.7 47.4301Z" fill="#DF6939"/>
<path d="M28.64 47.71V47.5699H28.7C28.7 47.6299 28.73 47.7 28.64 47.71Z" fill="#DF6939"/>
<path d="M93.06 42.3C93.01 40.18 92.16 38.37 90.63 36.86C89 35.25 86.92 34.7501 84.76 34.4301C81.88 34.0001 81.89 33.99 80.78 31.29C80.6 30.84 80.61 30.53 80.9 30.15C81.62 29.2 82.32 28.22 83 27.23C85.42 23.75 85.27 19.91 82.44 16.77C80.65 14.79 78.76 12.89 76.77 11.1C73.54 8.18998 69.73 8.05006 66.17 10.5601C65.19 11.2501 64.21 11.94 63.24 12.65C62.94 12.88 62.69 12.92 62.35 12.77C61.5 12.4 60.64 12.04 59.78 11.71C59.44 11.58 59.27 11.39 59.21 11.01C59.05 9.88001 58.84 8.76 58.66 7.63C58.07 3.84 55.71 1.31002 52.02 0.52002C51.73 0.36002 51.38 0.579995 51.1 0.369995H42.63C42.28 0.559995 41.92 0.409961 41.56 0.459961C38.99 0.679961 37.2 2.08996 35.87 4.20996C34.89 5.78996 34.69 7.58999 34.38 9.35999C33.98 11.66 33.98 11.64 31.79 12.45C31.23 12.66 30.76 12.61 30.28 12.25C29.37 11.56 28.44 10.9 27.5 10.25C24.53 8.18 20.5 8.1 17.81 10.25C15.09 12.43 12.54 14.85 10.46 17.64C8.45999 20.32 8.34001 23.3 9.92001 26.3C10.46 27.32 11.08 28.3 11.84 29.13C13.05 30.43 12.97 31.67 12.15 33.11C11.84 33.65 11.54 33.98 10.9 34.09C9.47999 34.32 8.03999 34.48 6.64999 34.87C3.38999 35.77 0.930004 38.8 0.910004 41.4V41.42C0.870004 41.72 1.01001 42.05 0.820007 42.34V50.99C1.03001 51.27 0.820011 51.62 0.980011 51.92C1.28001 53.56 2.02001 54.95 3.17001 56.16C4.83001 57.89 6.99 58.42 9.25 58.74C12.19 59.17 12.18 59.18 13.3 61.95C13.47 62.38 13.42 62.65 13.16 63C12.44 63.96 11.74 64.94 11.06 65.92C8.65 69.37 8.83001 73.28 11.67 76.38C13.45 78.33 15.32 80.2 17.27 81.98C20.46 84.9 24.32 85.07 27.87 82.58C28.85 81.89 29.82 81.19 30.8 80.5C31.41 80.08 34.25 81.0099 34.47 81.6899C34.5 81.7699 34.5 81.87 34.51 81.96C34.7 83.12 34.9 84.27 35.07 85.42C35.73 89.72 38.95 92.56 43.28 92.61C45.74 92.64 48.21 92.63 50.67 92.61C53.17 92.59 55.28 91.64 56.93 89.75C58.3 88.19 58.87 86.27 58.97 84.29C59.08 82.11 59.89 80.73 62.11 80.27C62.58 80.18 62.91 80.1 63.32 80.41C64.4 81.22 65.48 82.02 66.62 82.75C69.85 84.84 73.52 84.65 76.43 82.13C78.64 80.21 80.71 78.1 82.66 75.9C84.51 73.83 84.99 71.3501 84.37 68.6801C84 67.0901 83.02 65.82 82.09 64.53C80.39 62.17 80.41 62.16 81.64 59.5C81.82 59.12 82.03 58.96 82.43 58.91C83.59 58.75 84.74 58.54 85.89 58.35C90.08 57.65 92.88 54.6799 93.05 50.5699C93.15 47.8099 93.11 45.05 93.05 42.29L93.06 42.3ZM87.68 50.0601C87.67 51.7401 86.81 52.71 85.12 53C83.38 53.3 81.64 53.61 79.89 53.88C78.55 54.08 77.61 54.73 77.17 56.04C76.58 57.77 75.88 59.45 75.07 61.09C74.48 62.29 74.64 63.4 75.42 64.47C76.46 65.9 77.48 67.3501 78.49 68.8C79.58 70.34 79.48 71.56 78.17 72.89C76.54 74.53 74.91 76.1701 73.26 77.8C72.03 79.0201 70.83 79.13 69.39 78.12C67.96 77.13 66.53 76.13 65.15 75.08C63.94 74.18 62.72 74 61.37 74.7C59.88 75.4699 58.32 76.1 56.73 76.62C55.3 77.09 54.54 78.0701 54.33 79.5601C54.09 81.2901 53.76 82.99 53.46 84.71C53.16 86.37 52.18 87.22 50.49 87.23C48.11 87.25 45.75 87.25 43.37 87.23C41.73 87.22 40.76 86.38 40.47 84.75C40.15 83.01 39.85 81.26 39.59 79.51C39.39 78.1 38.69 77.1301 37.32 76.6801C35.7 76.1401 34.12 75.49 32.59 74.73C31.36 74.13 30.22 74.29 29.13 75.08C27.69 76.12 26.25 77.14 24.81 78.16C23.21 79.29 22.06 79.19 20.66 77.8C19.11 76.25 17.56 74.7 16.01 73.15C14.54 71.67 14.44 70.51 15.69 68.78C16.65 67.44 17.6 66.09 18.58 64.77C19.41 63.65 19.56 62.49 18.93 61.23C18.13 59.65 17.44 58.03 16.88 56.35C16.41 54.98 15.43 54.3 14.03 54.09C12.28 53.82 10.54 53.5 8.79999 53.2C7.08999 52.8899 6.26001 51.91 6.26001 50.15C6.25001 47.84 6.25001 45.53 6.26001 43.21C6.26001 41.47 7.10999 40.4999 8.82999 40.1899C10.57 39.8899 12.32 39.58 14.06 39.3C15.36 39.09 16.27 38.42 16.7 37.16C17.29 35.43 17.97 33.74 18.76 32.09C19.33 30.9 19.2 29.77 18.44 28.7C17.38 27.25 16.34 25.7701 15.31 24.3101C14.22 22.7501 14.32 21.57 15.66 20.22C17.29 18.58 18.93 16.9499 20.57 15.3199C21.78 14.1299 23.04 14.02 24.44 15.01C25.86 16.01 27.29 17.0101 28.68 18.0601C29.85 18.9401 31.05 19.1001 32.37 18.4301C33.92 17.6401 35.52 16.96 37.16 16.41C38.53 15.95 39.22 14.9799 39.43 13.5699C39.7 11.7899 40.01 10.02 40.33 8.25C40.62 6.67 41.64 5.80004 43.27 5.79004C45.65 5.77004 48.01 5.77004 50.39 5.79004C52.04 5.80004 53.01 6.64001 53.31 8.26001C53.63 10 53.92 11.74 54.2 13.49C54.41 14.86 55.1 15.8 56.44 16.25C58.2 16.84 59.92 17.54 61.58 18.38C62.79 18.99 63.94 18.85 65.04 18.05C66.5 16.99 67.97 15.95 69.44 14.92C70.93 13.88 72.08 13.99 73.37 15.27C75.01 16.9 76.64 18.5401 78.28 20.1801C78.89 20.7901 79.33 21.48 79.27 22.48C79.3 23.11 78.95 23.66 78.57 24.21C77.58 25.61 76.61 27.01 75.59 28.38C74.72 29.55 74.54 30.7399 75.22 32.0699C76 33.5899 76.64 35.17 77.17 36.8C77.63 38.2001 78.6 38.94 80.05 39.15C81.8 39.41 83.54 39.73 85.28 40.04C86.87 40.32 87.71 41.27 87.72 42.88C87.74 45.28 87.74 47.69 87.72 50.08L87.68 50.0601Z" fill="#DF6939"/>
<path d="M65.3 45.21C65.25 43.22 64.76 41.34 64.02 39.51C62.86 36.68 61.1 34.2701 58.74 32.3101C56.24 30.2401 53.38 28.91 50.17 28.33C49.56 28.22 48.94 28.23 48.33 28.15H48.19C48.18 28.24 48.11 28.21 48.05 28.21C48 28.21 47.95 28.21 47.91 28.21C47.8 28.21 47.69 28.25 47.62 28.15H46.33C46.25 28.26 46.14 28.21 46.04 28.21H45.89C45.83 28.21 45.77 28.23 45.75 28.15H45.54C45.17 28.21 44.79 28.19 44.41 28.23C42.05 28.54 39.85 29.34 37.78 30.51C35.86 31.6 34.21 33.01 32.8 34.71C30.73 37.21 29.4 40.07 28.82 43.28C28.71 43.84 28.72 44.41 28.64 44.98V45.27C28.72 45.28 28.7 45.35 28.7 45.4C28.7 45.45 28.7 45.5 28.7 45.55C28.7 45.65 28.74 45.76 28.64 45.84V47.13C28.75 47.21 28.7 47.31 28.7 47.42C28.7 47.47 28.7 47.5101 28.7 47.5601C28.7 47.6201 28.73 47.69 28.64 47.7V47.99C28.71 48.34 28.68 48.69 28.72 49.05C28.92 50.57 29.32 52.05 29.91 53.46C31.08 56.29 32.84 58.69 35.19 60.66C36.73 61.95 38.45 62.94 40.33 63.67C42.07 64.35 43.87 64.77 45.76 64.83C47.73 64.89 49.69 64.84 51.62 64.33C55.24 63.35 58.32 61.47 60.81 58.66C62.98 56.21 64.38 53.34 65.04 50.13C65.38 48.51 65.36 46.87 65.31 45.22L65.3 45.21ZM46.97 59.04C40.07 59.02 34.39 53.32 34.45 46.47C34.51 39.54 40.21 33.88 47.04 33.97C53.96 34.07 59.5 39.62 59.52 46.5C59.53 53.37 53.85 59.06 46.97 59.04Z" fill="#131B53"/>
<path d="M46.43 46.5601C46.43 46.5601 46.47 46.46 46.45 46.4H47.53C47.19 46.67 46.81 46.6101 46.43 46.5601Z" fill="#DF6939"/>
<path d="M47.45 46.5601C47.12 46.6201 46.8 46.67 46.52 46.41H47.42C47.42 46.41 47.44 46.5101 47.45 46.5601Z" fill="#DF6939"/>
<path d="M46.89 46.0799C46.89 46.0799 46.98 46.03 47.04 46.06C47.09 46.39 47.14 46.7099 46.89 46.9899V46.0899V46.0799Z" fill="#DF6939"/>
<path d="M46.89 46.04C47.14 46.32 47.09 46.64 47.04 46.97L46.96 46.99L46.89 46.95V46.05V46.04Z" fill="#DF6939"/>
<path d="M56.29 47.6C55.92 48.22 55.34 48.5 54.61 48.5C52.8 48.5 50.99 48.5 49.17 48.5C48.88 48.5 48.79 48.56 48.8 48.86C48.82 49.82 48.8 50.77 48.8 51.93C48.77 52.79 48.86 53.85 48.76 54.91C48.66 55.85 47.88 56.53 46.94 56.55C46 56.55 45.21 55.8799 45.07 54.9599C45.03 54.6499 45.03 54.34 45.03 54.03C45.03 52.3 45.03 50.5799 45.03 48.8399C45.03 48.5799 44.97 48.5 44.7 48.51C42.89 48.51 41.08 48.53 39.26 48.51C37.79 48.49 36.94 46.93 37.7 45.68C38.07 45.06 38.65 44.78 39.38 44.78C41.14 44.78 42.91 44.78 44.67 44.78C44.94 44.78 45.03 44.73 45.03 44.43C45.02 42.77 45.02 41.1199 45.03 39.4599C45.03 38.4099 45.64 37.6199 46.57 37.4599C47.79 37.2499 48.78 38.1199 48.79 39.4399C48.79 41.0999 48.79 42.76 48.79 44.42C48.79 44.73 48.88 44.79 49.17 44.79C51.02 44.78 52.86 44.76 54.72 44.79C56.18 44.81 57.04 46.37 56.29 47.62V47.6Z" fill="#DF6939"/>
</svg>
