<svg width="98" height="94" viewBox="0 0 98 94" fill="none" xmlns="http://www.w3.org/2000/svg">
<path d="M94.7 5.93999C94.17 5.91999 93.63 5.93999 93.1 5.93999C90.99 5.91999 88.86 5.93997 86.75 5.91997C85.76 5.91997 85.68 5.81997 85.64 4.85997C85.62 4.37997 85.66 3.92001 85.62 3.46001C85.52 2.04001 84.8299 1.35997 83.41 1.35997C80.95 1.33997 78.49 1.33997 76.03 1.35997C74.76 1.35997 74.07 1.95001 73.87 3.21001C73.77 3.80001 73.8 4.39998 73.82 4.98998C73.82 5.57998 73.59 5.90996 72.95 5.90996C70.67 5.90996 68.4 5.92996 66.12 5.90996C65.46 5.90996 65.25 5.57998 65.25 4.98998C65.25 4.35998 65.28 3.73999 65.15 3.12999C64.89 1.90999 64.23 1.35997 62.99 1.35997C60.53 1.33997 58.07 1.33997 55.61 1.35997C54.26 1.35997 53.53 2.04996 53.45 3.40996C53.4 3.96996 53.43 4.53001 53.42 5.09001C53.42 5.60001 53.21 5.89997 52.64 5.91997C50.25 5.93997 47.84 5.93997 45.44 5.91997C44.88 5.91997 44.66 5.62001 44.66 5.09001C44.6399 4.53001 44.68 3.96996 44.63 3.40996C44.55 2.03996 43.84 1.35997 42.48 1.35997C40.04 1.33997 37.61 1.33997 35.19 1.35997C33.77 1.35997 33.08 1.97 32.88 3.39C32.81 3.95 32.83 4.50999 32.83 5.06999C32.83 5.62999 32.5499 5.90996 31.9699 5.90996C29.6899 5.92996 27.42 5.90996 25.14 5.90996C24.5 5.90996 24.27 5.59998 24.27 4.98998C24.27 4.40998 24.3 3.79996 24.2 3.21996C24 1.96996 23.31 1.35997 22.05 1.35997C19.56 1.33997 17.07 1.33997 14.56 1.35997C13.27 1.35997 12.56 2.04997 12.45 3.35997C12.43 3.60997 12.43 3.85996 12.43 4.09996C12.43 5.97996 12.56 5.91998 10.58 5.92998C8.24 5.92998 5.90999 5.90998 3.56999 5.92998C1.60999 5.92998 1.04997 6.50999 1.04997 8.43999V90.61C1.04997 90.82 1.02997 91.06 1.04997 91.27C1.12997 92.46 1.47999 92.8 2.69999 92.99C15.06 92.99 27.44 92.99 39.8 92.97C40.15 92.97 40.49 93.02 40.82 92.92C41.98 92.61 42.5699 91.88 42.4699 90.91C42.3899 89.89 41.58 89.23 40.37 89.19H39.63C28.38 89.19 17.12 89.17 5.86997 89.21C5.03997 89.21 4.85996 89.03 4.85996 88.2C4.87996 67.44 4.87996 46.66 4.85996 25.89C4.83996 25.05 5.08997 24.9 5.86997 24.9C34.65 24.92 63.43 24.93 92.21 24.9C93.04 24.9 93.2199 25.08 93.2199 25.91C93.2 46.69 93.2 67.45 93.2199 88.22C93.2399 89.08 92.99 89.21 92.21 89.21C80.76 89.19 69.32 89.19 57.87 89.19C56.62 89.19 55.81 89.75 55.63 90.72C55.43 91.68 55.96 92.45 57.08 92.9C57.41 93.05 57.76 92.97 58.1 92.97C70.38 92.99 82.6699 92.99 94.9699 92.99C96.34 92.97 96.5 92.84 96.95 91.59V7.53996C96.49 6.19996 96.16 5.96999 94.71 5.93999H94.7ZM77.86 5.85997C77.86 5.35997 78.01 5.21997 78.49 5.22997C79.33 5.25997 80.17 5.27997 81.01 5.22997C81.54 5.20997 81.64 5.40998 81.62 5.86998C81.59 7.08998 81.6 8.3 81.6 9.52001C81.6 10.74 81.58 11.88 81.62 13.07C81.64 13.55 81.5 13.73 80.99 13.7C80.15 13.67 79.31 13.67 78.48 13.7C77.97 13.73 77.85 13.54 77.85 13.06C77.8699 10.67 77.8699 8.26997 77.85 5.85997H77.86ZM57.42 5.79997C57.42 5.41997 57.49 5.21998 57.92 5.23998C58.83 5.26998 59.74 5.26998 60.63 5.23998C61.13 5.21998 61.19 5.46998 61.17 5.86998C61.15 7.05998 61.17 8.22997 61.17 9.41997C61.17 10.61 61.14 11.8 61.19 12.97C61.21 13.51 61.07 13.76 60.48 13.71C59.64 13.66 58.8 13.69 57.96 13.71C57.55 13.73 57.43 13.58 57.43 13.18C57.45 10.72 57.45 8.25997 57.43 5.79997H57.42ZM37.51 5.24999C38.35 5.26999 39.19 5.27997 40.03 5.22997C40.51 5.20997 40.66 5.35997 40.66 5.85997C40.61 7.07997 40.64 8.29 40.64 9.51C40.64 10.65 40.61 11.8 40.66 12.96C40.66 13.49 40.58 13.75 39.95 13.72C39.12 13.65 38.27 13.69 37.44 13.7C37.03 13.72 36.88 13.58 36.9 13.17C36.92 10.71 36.92 8.24996 36.88 5.78996C36.88 5.28996 37.09 5.22999 37.51 5.24999ZM16.46 9.43999C16.46 8.26999 16.48 7.08 16.44 5.89C16.42 5.35 16.6 5.20997 17.12 5.22997C17.93 5.27997 18.74 5.25997 19.55 5.22997C20.01 5.20997 20.23 5.31001 20.21 5.84001C20.18 8.27001 20.19 10.69 20.21 13.13C20.21 13.59 20.05 13.71 19.62 13.69C18.81 13.67 18 13.66 17.19 13.69C16.63 13.72 16.41 13.59 16.45 12.98C16.5 11.81 16.4699 10.62 16.4699 9.42998L16.46 9.43999ZM93.21 20.62C93.21 21.07 93.08 21.25 92.63 21.2C92.43 21.17 92.25 21.18 92.07 21.18H49.03C34.66 21.18 20.28 21.18 5.90995 21.21C5.06995 21.21 4.83995 21.01 4.84995 20.15C4.89995 17 4.87995 13.85 4.84995 10.69C4.84995 10.08 5.01998 9.90998 5.62998 9.92998C7.73998 9.95998 9.86996 9.95998 11.98 9.92998C12.54 9.92998 12.7399 10.05 12.7199 10.64C12.6699 12.21 12.69 13.76 12.7 15.33C12.72 16.68 13.43 17.41 14.78 17.43C17.11 17.45 19.45 17.45 21.79 17.43C23.18 17.43 23.9 16.67 23.92 15.27C23.94 13.75 23.94 12.22 23.92 10.68C23.9 10.15 23.97 9.91999 24.6 9.93999C27.22 9.96999 29.85 9.96999 32.46 9.93999C33.07 9.91999 33.19 10.12 33.17 10.68C33.14 12.17 33.15 13.67 33.15 15.17C33.17 16.72 33.89 17.43 35.46 17.43C37.69 17.45 39.9 17.45 42.11 17.43C43.69 17.43 44.37 16.75 44.39 15.15C44.39 13.63 44.41 12.1 44.37 10.58C44.35 10.08 44.52 9.93999 45 9.93999C47.69 9.96999 50.36 9.96999 53.05 9.93999C53.53 9.93999 53.69 10.07 53.68 10.57C53.65 12.17 53.66 13.76 53.68 15.36C53.68 16.71 54.39 17.42 55.76 17.44C58.1 17.46 60.43 17.46 62.77 17.44C64.16 17.42 64.88 16.68 64.9 15.28C64.92 13.75 64.92 12.21 64.88 10.69C64.86 10.15 64.98 9.93 65.59 9.95C68.2 9.98 70.82 9.98 73.45 9.95C74.06 9.93 74.14 10.16 74.14 10.69C74.11 12.22 74.11 13.74 74.12 15.28C74.14 16.68 74.86 17.44 76.25 17.44C78.59 17.46 80.92 17.46 83.26 17.44C84.61 17.42 85.32 16.7 85.34 15.34C85.36 13.79 85.36 12.22 85.34 10.67C85.32 10.19 85.3699 9.92999 85.9699 9.93999C88.1799 9.96999 90.39 9.96999 92.62 9.93999C93.05 9.93999 93.2 10.06 93.2 10.52C93.18 13.89 93.18 17.25 93.2 20.62H93.21Z" fill="#DA693A" stroke="#DA693A" stroke-miterlimit="10"/>
<path d="M50.9 91.04C50.92 91.99 50.35 92.6601 49.3 92.9001C49.17 92.9301 49.0601 92.9401 49.0301 93.0901H48.66C48.63 92.8501 48.39 92.8601 48.25 92.7701C47.34 92.2401 46.97 91.3901 47.27 90.5101C47.57 89.6401 48.44 89.1 49.31 89.24C50.22 89.39 50.88 90.14 50.91 91.04H50.9Z" fill="#DA693A"/>
<path d="M69.55 72.3499C68.76 72.3299 67.97 72.3499 67.16 72.3499C74.5 62.1199 74.49 51.9699 67.16 41.7699C68.02 41.7699 68.83 41.7899 69.64 41.7699C70.94 41.7199 71.67 40.9899 71.69 39.7199C71.71 37.3399 71.71 34.9699 71.69 32.6099C71.67 31.2599 70.9601 30.5499 69.5901 30.5499C67.2501 30.5299 64.92 30.5299 62.58 30.5499C61.16 30.5499 60.48 31.2399 60.47 32.6799C60.45 33.8799 60.47 35.0899 60.47 36.3799C52.83 32.4999 45.24 32.5199 37.63 36.3999C37.63 35.0799 37.65 33.8599 37.63 32.6499C37.61 31.2599 36.92 30.5499 35.57 30.5499C33.19 30.5299 30.8301 30.5299 28.4601 30.5499C27.1101 30.5499 26.43 31.2599 26.41 32.6599C26.39 34.9499 26.41 37.2599 26.41 39.5699C26.41 41.0199 27.1401 41.7499 28.5901 41.7599C29.3801 41.7799 30.17 41.7599 30.93 41.7599C23.59 52.0199 23.6 62.1399 30.93 72.34H28.6C27.11 72.3699 26.41 73.07 26.41 74.53V81.3599C26.41 82.8599 27.07 83.5499 28.56 83.5699C30.87 83.5899 33.16 83.5699 35.47 83.5699C36.97 83.5499 37.63 82.8799 37.63 81.3799C37.65 80.1799 37.63 78.9899 37.63 77.7199C45.29 81.5999 52.83 81.5999 60.47 77.7399C60.47 79.0099 60.45 80.2199 60.47 81.4199C60.49 82.8699 61.15 83.5699 62.57 83.5799C64.91 83.5999 67.24 83.5999 69.58 83.5799C71.02 83.5599 71.68 82.8699 71.69 81.4299C71.71 79.1199 71.71 76.8099 71.69 74.4999C71.67 73.0999 70.98 72.3699 69.56 72.34L69.55 72.3499ZM66.1501 34.28C67.3367 34.28 67.93 34.8733 67.93 36.0599C67.93 37.3666 67.2767 38.0199 65.97 38.0199C64.79 38.0199 64.2 37.4266 64.2 36.2399C64.2 34.9332 64.8501 34.28 66.1501 34.28ZM30.14 36.1799C30.14 34.9132 30.7834 34.28 32.07 34.28C33.3567 34.28 33.9634 34.8966 33.89 36.1299C33.8167 37.3633 33.1667 37.9966 31.94 38.03C30.7134 38.0633 30.1134 37.4466 30.14 36.1799ZM32.07 79.84C30.7834 79.84 30.14 79.2066 30.14 77.9399C30.14 76.7066 30.74 76.09 31.94 76.09C33.24 76.09 33.89 76.7266 33.89 77.9999C33.89 79.2199 33.2834 79.8299 32.07 79.8299V79.84ZM49.05 76.9099C38.13 76.9299 29.2 67.9999 29.2 57.0599C29.2 46.1199 38.13 37.2099 49.07 37.2399C60.01 37.2699 68.86 46.12 68.87 57.03C68.89 67.99 59.99 76.8999 49.05 76.9199V76.9099ZM66.06 79.84C64.82 79.84 64.2 79.2199 64.2 77.9799C64.2 76.7266 64.82 76.0999 66.06 76.0999C67.3 76.0999 67.92 76.7266 67.92 77.9799C67.92 79.2199 67.3 79.84 66.06 79.84Z" fill="#131B53"/>
<path d="M19.76 72.3699C17.33 72.3399 14.91 72.3399 12.48 72.3699C11.23 72.3899 10.5 73.1499 10.5 74.3699C10.47 76.7799 10.47 79.1699 10.5 81.5699C10.5 82.8399 11.19 83.5699 12.43 83.5799C14.87 83.6099 17.2999 83.6099 19.7199 83.5799C21.0199 83.5599 21.68 82.8399 21.7 81.5199C21.72 80.3599 21.7 79.2099 21.7 78.0499C21.7 76.8899 21.72 75.6199 21.7 74.3999C21.68 73.1599 20.99 72.3899 19.75 72.3699H19.76ZM16.03 79.8399C14.83 79.8399 14.23 79.2299 14.23 78.0099C14.23 76.7899 14.8733 76.1532 16.16 76.0999C17.4466 76.0466 18.0533 76.6633 17.98 77.9499C17.9066 79.2366 17.2567 79.8699 16.03 79.8499V79.8399Z" fill="#131B53"/>
<path d="M85.59 72.3699C83.18 72.3399 80.79 72.3399 78.39 72.3699C77.09 72.3899 76.36 73.1299 76.36 74.4199C76.34 76.7999 76.34 79.1599 76.36 81.5199C76.36 82.8599 77.05 83.5699 78.36 83.5799C80.75 83.6099 83.15 83.6099 85.56 83.5799C86.86 83.5799 87.56 82.8699 87.59 81.5699C87.61 80.3799 87.59 79.1899 87.59 78.0099C87.59 76.8299 87.61 75.6499 87.59 74.4599C87.57 73.1599 86.86 72.3999 85.59 72.3799V72.3699ZM81.96 79.8399C80.72 79.8399 80.1 79.2133 80.1 77.9599C80.1 76.7066 80.7333 76.0866 82 76.0999C83.2667 76.1132 83.8833 76.7466 83.85 77.9999C83.8166 79.2533 83.19 79.8699 81.97 79.8499L81.96 79.8399Z" fill="#131B53"/>
<path d="M19.74 30.5499C18.52 30.5299 17.31 30.5499 16.09 30.5499C14.87 30.5499 13.73 30.5299 12.54 30.5499C11.22 30.5699 10.49 31.2599 10.49 32.5499C10.46 34.9399 10.46 37.3499 10.49 39.7499C10.49 40.9699 11.22 41.7499 12.45 41.7599C14.88 41.7899 17.3 41.7899 19.73 41.7599C20.97 41.7399 21.69 40.9699 21.69 39.7499C21.71 37.3399 21.71 34.9499 21.69 32.5499C21.69 31.2999 20.96 30.5699 19.73 30.5499H19.74ZM16.06 38.0299C14.84 38.0299 14.23 37.4233 14.23 36.2099C14.23 34.9966 14.8667 34.3533 16.14 34.2799C17.4133 34.2066 18.0233 34.8132 17.9699 36.0999C17.9166 37.3866 17.28 38.0299 16.06 38.0299Z" fill="#131B53"/>
<path d="M87.57 32.4599C87.57 31.2899 86.83 30.5599 85.64 30.5499C84.45 30.5299 83.26 30.5499 82.09 30.5499C80.8 30.5499 79.53 30.5299 78.24 30.5499C77.12 30.5799 76.38 31.2899 76.36 32.4299C76.34 34.8899 76.34 37.3499 76.36 39.8099C76.38 40.9499 77.09 41.7399 78.21 41.7599C80.7 41.8099 83.19 41.8099 85.69 41.7599C86.86 41.7399 87.57 40.9499 87.59 39.7599C87.61 37.3299 87.61 34.9099 87.57 32.4699V32.4599ZM81.99 38.0299C80.7233 38.0299 80.09 37.3866 80.09 36.0999C80.09 34.8132 80.7067 34.2066 81.94 34.2799C83.1733 34.3533 83.8067 34.9966 83.84 36.2099C83.8733 37.4233 83.2566 38.0299 81.99 38.0299Z" fill="#131B53"/>
<path d="M19.67 51.46C17.28 51.43 14.88 51.43 12.49 51.46C11.15 51.48 10.49 52.2 10.48 53.52C10.46 55.9 10.46 58.26 10.48 60.62C10.5 61.89 11.17 62.65 12.41 62.67C14.87 62.7 17.34 62.7 19.8 62.67C20.99 62.65 21.68 61.89 21.7 60.71C21.72 59.52 21.7 58.33 21.7 57.15C21.7 55.97 21.72 54.79 21.7 53.6C21.7 52.21 21.04 51.4899 19.67 51.4699V51.46ZM16.06 58.94C14.84 58.94 14.23 58.33 14.23 57.11C14.23 55.89 14.8667 55.2533 16.14 55.2C17.4133 55.1467 18.0233 55.7533 17.97 57.02C17.9166 58.2867 17.28 58.93 16.06 58.95V58.94Z" fill="#131B53"/>
<path d="M85.6 51.46C83.17 51.43 80.75 51.43 78.32 51.46C77.02 51.49 76.37 52.22 76.36 53.56C76.34 54.72 76.36 55.87 76.36 57.03C76.36 58.19 76.34 59.39 76.36 60.58C76.38 61.95 77.05 62.68 78.42 62.68C80.78 62.71 83.16 62.71 85.52 62.68C86.87 62.68 87.57 61.94 87.58 60.58V53.57C87.56 52.23 86.9 51.5099 85.6 51.4699V51.46ZM81.94 58.94C80.7066 58.94 80.09 58.3333 80.09 57.12C80.09 55.9066 80.7266 55.2633 82 55.19C83.2733 55.1166 83.8833 55.7233 83.83 57.01C83.7767 58.2967 83.1433 58.94 81.93 58.94H81.94Z" fill="#131B53"/>
<path d="M56.11 61.9099C56.29 64.8499 54.49 67.6999 51.65 68.8099C51.06 69.0599 50.81 69.32 50.89 69.95C50.94 70.41 50.92 70.8899 50.89 71.3499C50.81 72.4199 50.02 73.17 48.99 73.15C48.02 73.13 47.08 72.37 47.19 71.4C47.4 69.73 46.86 68.81 45.28 68.21C44.24 67.83 43.51 66.8599 42.94 65.8699C42.3 64.7599 42.48 63.68 43.42 63.08C44.38 62.49 45.4 62.8 46.11 63.89C47.38 65.79 49.67 66.1699 51.24 64.7499C51.98 64.0899 52.33 63.2499 52.38 62.3699C52.36 60.5899 51.09 59.1699 49.39 58.9899C48.47 58.8699 47.54 58.8399 46.65 58.5099C43.89 57.4999 42.03 54.9599 41.95 52.0399C41.87 49.1499 43.6 46.4499 46.32 45.3599C47 45.0999 47.2599 44.8 47.1599 44.09C47.1099 43.63 47.13 43.1499 47.18 42.6899C47.26 41.7199 48.01 41.0199 48.96 41.0099C49.97 40.9799 50.97 41.6899 50.84 42.6599C50.59 44.4599 51.34 45.37 52.94 46.03C54 46.46 54.71 47.48 55.25 48.52C55.76 49.53 55.46 50.5999 54.56 51.1099C53.69 51.6099 52.68 51.3399 52.05 50.4199C50.88 48.7499 49.51 48.1799 47.92 48.7399C46.5 49.2399 45.54 50.6999 45.69 52.1599C45.84 53.6799 46.96 54.9 48.46 55.15C49.2 55.27 49.96 55.27 50.69 55.45C53.76 56.19 55.89 58.7699 56.1 61.9399L56.11 61.9099Z" fill="#131B53"/>
</svg>
