<svg width="90" height="94" viewBox="0 0 90 94" fill="none" xmlns="http://www.w3.org/2000/svg">
<path d="M86.95 45.6902C83.61 43.1502 79.09 43.3002 75.94 46.1302C72.54 49.1702 69.19 52.2802 65.81 55.3502C65.54 55.5902 65.35 55.9702 64.92 55.4402C63.25 53.4102 61.06 52.4902 58.44 52.5002C54.93 52.5202 51.41 52.5002 47.89 52.5002C46.32 52.5002 44.77 52.3102 43.3 51.7602C41.15 50.9602 38.94 50.4302 36.65 50.2702C31.78 49.9302 27.3 50.9002 23.49 54.1902C20.22 57.0102 16.87 59.7502 13.55 62.5302C13.24 62.7802 13.02 63.0702 12.47 62.8402C10.52 62.0102 8.77999 62.4102 7.28999 63.9202C5.80999 65.4202 4.32004 66.9002 2.84004 68.3902C0.530038 70.7102 0.540007 73.2102 2.87001 75.5502C7.88001 80.5702 12.9 85.5702 17.9 90.6002C18.98 91.6802 20.03 92.7702 21.52 93.2902H23.14C23.98 93.0002 24.84 92.7502 25.49 92.0902C27.27 90.3002 29.09 88.5602 30.82 86.7202C32.3 85.1402 32.42 82.7902 31.07 81.1102C30.53 80.4302 30.66 80.1002 31.23 79.6602C31.56 79.4102 31.82 79.0702 32.14 78.7902C34.37 76.8202 36.95 75.7502 39.95 75.9102C46.94 76.2902 53.87 75.8702 60.74 74.5402C63.8 73.9502 66.7 73.0302 68.96 70.8002C75.18 64.6502 81.36 58.4702 87.52 52.2602C89.43 50.3302 89.11 47.3502 86.94 45.7002L86.95 45.6902ZM85.18 50.5402C79.3 56.4302 73.4 62.3002 67.54 68.2102C65.3 70.4702 62.48 71.2802 59.48 71.8302C52.98 73.0202 46.44 73.3102 39.84 73.0002C35.72 72.8102 32.26 74.4802 29.38 77.4102C28.46 78.3402 28.46 78.3402 27.56 77.4302C23.6 73.4402 19.65 69.4502 15.68 65.4802C15.23 65.0302 15.22 64.8302 15.72 64.4202C18.92 61.7902 22.13 59.1702 25.26 56.4502C28.55 53.5902 32.4 52.8302 36.59 53.1602C38.58 53.3202 40.49 53.8102 42.36 54.4802C44.1 55.1102 45.9 55.3702 47.75 55.3702C51.47 55.3702 55.2 55.3402 58.92 55.3902C61.54 55.4302 63.69 57.5102 63.89 60.0602C64.01 61.5902 63.43 62.2402 61.89 62.2402C53.81 62.2402 45.73 62.2402 37.65 62.2402C37.41 62.2402 37.17 62.2302 36.93 62.2402C36.12 62.3002 35.57 62.8502 35.55 63.6102C35.52 64.4202 36.07 65.0302 36.91 65.1002C37.33 65.1402 37.75 65.1102 38.17 65.1102H61.69C65.32 65.1102 67.3 62.8002 66.69 59.2102C66.6 58.7002 66.67 58.4002 67.05 58.0602C70.62 54.8402 74.15 51.5802 77.72 48.3602C79.83 46.4602 82.63 46.2302 84.85 47.7202C86.1 48.5502 86.22 49.4702 85.17 50.5202L85.18 50.5402Z" fill="#DA693A" stroke="#DA693A" stroke-miterlimit="10"/>
<path d="M76.6 20.6501C76.61 21.8601 76.08 22.4201 74.86 22.4201C68.88 22.4201 62.91 22.4201 56.93 22.4201C55.69 22.4201 55.19 21.9201 55.18 20.6801C55.18 17.6701 55.18 14.6701 55.18 11.6701C55.18 8.6701 55.18 5.78015 55.18 2.84015C55.18 1.44015 55.68 0.97011 57.1 0.99011C67.65 1.13011 76.49 10.0501 76.6 20.6601V20.6501Z" fill="#131B53"/>
<path d="M68.74 25.4301C63.51 25.4301 58.29 25.4201 53.06 25.4401C52.38 25.4401 52.14 25.3101 52.15 24.5701C52.2 21.9001 52.17 19.2201 52.17 16.5501C52.17 13.8801 52.17 11.2002 52.17 8.53015C52.17 7.39015 51.64 6.88013 50.52 6.88013C49.65 6.88013 48.78 6.95012 47.92 7.06012C36.66 8.53012 28.71 19.8401 31.17 30.9101C33.53 41.5201 43.12 48.1301 53.91 46.5901C63.17 45.2701 70.59 36.8401 70.73 27.4701C70.76 25.8601 70.34 25.4201 68.75 25.4201L68.74 25.4301ZM67.7 29.1801C66.67 37.6701 58.72 44.4001 50.19 43.9601C41.78 43.5301 35.28 37.8001 33.83 29.5201C32.23 20.4501 38.91 11.2501 48.01 9.97009C48.8633 9.85009 49.29 10.2068 49.29 11.0401V18.6101C49.29 21.2201 49.29 23.8401 49.29 26.4501C49.29 27.8001 49.79 28.3001 51.14 28.3101C56.4 28.3101 61.65 28.3201 66.91 28.3001C67.61 28.3001 67.79 28.4201 67.7 29.1801Z" fill="#131B53"/>
</svg>
