<svg width="93" height="93" viewBox="0 0 93 93" fill="none" xmlns="http://www.w3.org/2000/svg">
<path d="M91.94 37.0901C91.94 35.7201 91.79 34.3701 90.95 33.2001C89.4 31.0401 87.31 29.8601 84.64 29.8501C77.04 29.8201 69.45 29.8501 61.86 29.8401C60.42 29.8401 60.32 29.7401 60.32 28.2901C60.32 24.3001 60.31 20.3001 60.32 16.3101C60.32 15.3701 60.05 14.6401 59.37 13.9701C55.36 9.98009 51.36 5.98009 47.37 1.97009C46.8 1.39009 46.15 1.12012 45.35 1.12012C32.16 1.12012 18.97 1.12012 5.76999 1.12012C4.51999 1.12012 3.40999 1.44009 2.54999 2.47009C1.99999 3.13009 2.02998 3.9301 1.78998 4.6601V76.2201C2.03998 76.9801 1.98998 77.8101 2.61998 78.4701C3.66998 79.5601 4.88999 80.0901 6.40999 80.0901C13.67 80.0801 20.93 80.0901 28.19 80.0901C28.55 80.0901 28.92 80.0901 29.28 80.0901C30.22 80.1201 30.39 80.2801 30.42 81.2101C30.45 82.1201 30.43 83.0301 30.42 83.9301C30.42 84.9701 30.57 85.9801 31 86.9401C32.13 89.4801 33.95 91.0901 36.83 91.3001H85.68C87.13 91.1301 88.51 90.8601 89.67 89.8201C91.3 88.3601 91.95 86.5501 91.95 84.4101C91.94 68.6401 91.95 52.8801 91.94 37.1101V37.0901ZM46.83 6.56012C46.83 6.49012 46.9 6.4201 46.94 6.3501C49.54 8.9601 52.12 11.5401 54.76 14.1801C53.97 14.3501 53.2 14.2501 52.44 14.2601C51.08 14.2801 49.72 14.2801 48.36 14.2601C47.43 14.2401 46.85 13.7101 46.83 12.8201C46.8 10.7401 46.82 8.65012 46.83 6.56012ZM30.84 38.1801C30.84 50.7101 30.84 63.2401 30.86 75.7701C30.86 76.5501 30.71 76.7701 29.89 76.7601C22.17 76.7201 14.46 76.7401 6.73999 76.7401C5.12999 76.7401 4.68999 76.3101 4.68999 74.7001V6.25012C4.68999 4.50012 5.07999 4.09015 6.79999 4.09015C18.84 4.09015 30.89 4.09013 42.93 4.07013C43.79 4.07013 43.95 4.33012 43.94 5.12012C43.89 7.60012 43.91 10.0801 43.92 12.5601C43.93 15.3301 45.76 17.1501 48.54 17.1601C51.08 17.1601 53.62 17.1901 56.17 17.1501C56.84 17.1401 57.03 17.2901 57.02 17.9901C56.98 21.8001 56.98 25.6201 57.02 29.4301C57.02 30.1301 56.83 30.2701 56.17 30.2601C50.39 30.2301 44.61 30.2401 38.83 30.2401C33.85 30.2401 30.85 33.2201 30.85 38.1801H30.84ZM88.95 83.4101C88.95 86.6701 87.24 88.3601 83.95 88.3601C76.41 88.3601 68.88 88.3601 61.34 88.3601C53.8 88.3601 46.21 88.3601 38.64 88.3601C35.48 88.3601 33.73 86.6301 33.73 83.5001C33.73 68.3401 33.73 53.1701 33.73 38.0101C33.73 34.8801 35.47 33.1501 38.63 33.1501C53.76 33.1501 68.89 33.1501 84.03 33.1501C87.23 33.1501 88.94 34.8701 88.94 38.1001V83.4101H88.95Z" fill="#DF6939" stroke="#DF6939" stroke-width="2" stroke-miterlimit="10"/>
<path d="M18.45 28.7202C17.85 28.8202 17.69 29.0102 17.76 29.5502C17.78 29.7302 17.76 29.9102 17.76 30.0902C17.72 31.0702 17.14 31.7102 16.28 31.6902C15.46 31.6702 14.9 31.0602 14.86 30.1302C14.82 29.2369 14.35 28.7902 13.45 28.7902C12.97 28.7902 12.48 28.8102 12 28.7902C11.09 28.7402 10.48 28.1302 10.5 27.3102C10.52 26.5202 11.11 25.9302 11.98 25.9002C12.95 25.8702 13.92 25.9002 14.89 25.9002C15.8 25.9002 16.71 25.9102 17.61 25.9002C18.59 25.8802 19.22 25.2802 19.21 24.4202C19.19 23.6002 18.58 23.0302 17.65 23.0002C16.74 22.9802 15.83 23.0002 14.93 23.0002C12.59 22.9702 10.7 21.2602 10.52 19.0202C10.34 16.7802 11.82 14.7602 14.09 14.3802C14.86 14.2502 14.92 13.9302 14.87 13.3402C14.82 12.7602 14.86 12.1702 15.35 11.7602C15.8 11.3802 16.3 11.2602 16.87 11.5002C17.46 11.7602 17.73 12.2202 17.77 12.8502C17.87 14.2802 17.87 14.2802 19.35 14.2802C19.74 14.2802 20.14 14.2702 20.53 14.2802C21.51 14.3102 22.14 14.9102 22.12 15.7702C22.1 16.5902 21.48 17.1702 20.55 17.1802C18.73 17.2002 16.92 17.1902 15.1 17.1802C14.59 17.1802 14.13 17.2702 13.79 17.6702C13.41 18.1202 13.28 18.6302 13.53 19.1902C13.79 19.7802 14.25 20.0702 14.88 20.0902C15.82 20.1002 16.76 20.0902 17.69 20.0902C20.04 20.1202 21.92 21.8202 22.1 24.0602C22.29 26.3302 20.77 28.3302 18.44 28.7302L18.45 28.7202Z" fill="#141857" stroke="#141857" stroke-miterlimit="10"/>
<path d="M27.58 39.89C27.23 40.33 26.74 40.42 26.2 40.42C23.88 40.41 21.55 40.42 19.22 40.42C16.89 40.42 14.57 40.42 12.24 40.42C11.16 40.42 10.52 39.88 10.5 39C10.48 38.12 11.13 37.53 12.18 37.52C16.86 37.52 21.54 37.52 26.22 37.52C26.91 37.52 27.46 37.72 27.78 38.38C28.04 38.94 27.94 39.44 27.57 39.9L27.58 39.89Z" fill="#141857" stroke="#141857" stroke-miterlimit="10"/>
<path d="M27.58 47.1503C27.23 47.5903 26.74 47.6902 26.2 47.6802C23.88 47.6802 21.55 47.6802 19.22 47.6802C16.89 47.6802 14.57 47.6802 12.24 47.6802C11.16 47.6802 10.52 47.1403 10.5 46.2603C10.48 45.3803 11.13 44.7903 12.18 44.7803C16.86 44.7803 21.54 44.7803 26.22 44.7803C26.91 44.7803 27.46 44.9803 27.78 45.6403C28.04 46.2003 27.94 46.7002 27.57 47.1602L27.58 47.1503Z" fill="#141857" stroke="#141857" stroke-miterlimit="10"/>
<path d="M27.93 53.5002C27.93 54.4102 27.26 54.9402 26.12 54.9402C23.79 54.9402 21.47 54.9402 19.14 54.9402C16.81 54.9402 14.61 54.9402 12.34 54.9402C11.18 54.9402 10.52 54.4203 10.5 53.5203C10.47 52.5803 11.15 52.0303 12.36 52.0303C16.95 52.0303 21.54 52.0303 26.13 52.0303C27.27 52.0303 27.93 52.5802 27.93 53.4902V53.5002Z" fill="#141857" stroke="#141857" stroke-miterlimit="10"/>
<path d="M20.66 60.7402C20.66 61.5902 20.04 62.2002 19.06 62.2002C16.74 62.2202 14.42 62.2202 12.09 62.2002C11.11 62.2002 10.48 61.5801 10.5 60.7201C10.52 59.9001 11.12 59.3202 12.05 59.3102C13.23 59.2902 14.4 59.3102 15.58 59.3102C16.76 59.3102 17.87 59.3002 19.02 59.3102C20.01 59.3202 20.64 59.8902 20.65 60.7402H20.66Z" fill="#141857" stroke="#141857" stroke-miterlimit="10"/>
<path d="M85.33 56.57C77.72 50.39 70.12 44.21 62.5 38.03C61.62 37.31 61.09 37.3 60.24 38C52.6 44.2 44.97 50.4 37.34 56.6C36.77 57.06 36.48 57.62 36.75 58.35C37.02 59.07 37.59 59.32 38.33 59.31C39.9 59.3 41.48 59.35 43.05 59.29C43.79 59.26 43.93 59.51 43.92 60.19C43.89 67.42 43.9 74.66 43.91 81.89C43.91 83.6 44.32 84 46.06 84H61.31C66.45 84 71.6 84 76.74 84C78.33 84 78.77 83.56 78.77 81.94C78.77 74.74 78.79 67.53 78.75 60.33C78.75 59.42 79.01 59.23 79.85 59.28C81.33 59.35 82.81 59.28 84.3 59.31C85.07 59.32 85.68 59.08 85.95 58.31C86.21 57.58 85.89 57.03 85.32 56.57H85.33ZM65.72 80.45C65.72 80.95 65.6 81.12 65.07 81.11C62.59 81.08 60.11 81.08 57.64 81.11C57.13 81.11 56.97 80.98 56.98 80.46C57.01 78.5 56.99 76.53 56.99 74.57C56.99 72.61 57 70.64 56.98 68.68C56.98 68.18 57.1 68.01 57.63 68.02C60.11 68.05 62.59 68.05 65.06 68.02C65.57 68.02 65.72 68.15 65.72 68.67C65.7 72.6 65.7 76.53 65.72 80.46V80.45ZM80.27 56.4C79.41 56.4 78.55 56.4 77.69 56.4C76.39 56.4 75.88 56.91 75.88 58.22C75.88 65.54 75.86 72.87 75.9 80.19C75.9 80.96 75.7 81.14 74.96 81.12C73.18 81.06 71.39 81.04 69.61 81.12C68.73 81.16 68.6 80.84 68.61 80.06C68.64 75.73 68.63 71.4 68.62 67.08C68.62 65.59 68.16 65.12 66.68 65.12C63.17 65.12 59.66 65.12 56.15 65.12C54.53 65.12 54.09 65.55 54.09 67.14C54.09 71.53 54.08 75.92 54.1 80.31C54.1 80.93 53.97 81.13 53.32 81.12C51.41 81.07 49.51 81.07 47.6 81.12C46.95 81.14 46.81 80.95 46.81 80.32C46.83 73.03 46.83 65.73 46.82 58.44C46.82 56.84 46.38 56.41 44.77 56.41H42.24C42.67 56.05 42.93 55.81 43.2 55.59C49.02 50.86 54.85 46.12 60.67 41.39C61.05 41.08 61.32 40.79 61.88 41.25C67.92 46.2 73.98 51.11 80.04 56.03C80.13 56.1 80.24 56.15 80.35 56.2C80.32 56.27 80.29 56.34 80.26 56.4H80.27Z" fill="#141857" stroke="#141857" stroke-miterlimit="10"/>
</svg>
