<svg width="80" height="92" viewBox="0 0 80 92" fill="none" xmlns="http://www.w3.org/2000/svg">
<path d="M32.85 58.36C32.94 61.15 30.64 63.53 27.76 63.62C24.9 63.71 22.51 61.43 22.42 58.51C22.33 55.74 24.63 53.35 27.52 53.22C30.31 53.09 32.77 55.45 32.86 58.35L32.85 58.36Z" fill="#DF6939"/>
<path d="M57.85 58.59C57.77 61.44 55.37 63.7201 52.54 63.6301C49.61 63.5501 47.37 61.2001 47.44 58.2901C47.51 55.4601 49.97 53.11 52.74 53.22C55.67 53.34 57.92 55.71 57.85 58.59Z" fill="#DF6939"/>
<path d="M70.68 48.6601C69.77 47.9901 68.88 47.4701 69.07 46.1601C69.07 46.1101 69.04 46.04 69.01 45.99C68.29 44.94 68.29 43.6901 67.96 42.5301C67.76 41.8101 67.73 41.2601 68.26 40.6801C68.67 40.2301 68.57 39.9101 67.92 39.6801C66.74 39.2501 65.56 38.84 64.36 38.5C57.41 36.58 50.29 35.9001 43.11 35.6801C36.86 35.4901 30.63 35.84 24.44 36.74C20.39 37.33 16.4 38.16 12.55 39.61C11.58 39.98 11.53 40.08 12.14 40.88C12.47 41.3 12.51 41.6701 12.4 42.1801C12.12 43.5401 11.64 44.8501 11.29 46.1801C11 47.2801 10.7 48.07 9.63001 48.48C9.58001 48.5 9.53001 48.55 9.49001 48.59C5.41001 51.75 3.56 58.3001 5.55 63.0501C7.22 67.0501 10.24 69.8001 14.13 71.6401C14.69 71.9101 15.11 72.2 15.31 72.84C16.03 75.19 17.17 77.36 18.62 79.33C22.85 85.07 28.49 88.82 35.26 90.96C36.32 91.3 37.41 91.55 38.48 91.85H41.35C41.69 91.52 42.13 91.71 42.52 91.61C53.05 88.92 61.05 83.24 65.02 72.75C65.16 72.37 65.34 72.11 65.76 71.95C68.86 70.75 71.21 68.64 73.18 65.99C77.48 60.2 75.22 51.9701 70.68 48.6601ZM66.36 64.09C65.1 65.22 63.75 66.0901 61.97 66.2901C60.6 66.4501 59.82 67.4701 59.48 68.7901C59.09 70.3201 58.62 71.82 57.87 73.22C55.16 78.36 50.84 81.68 45.62 83.98C44.39 84.52 43.1 84.87 41.8 85.22C39.72 85.79 37.75 85.16 35.86 84.45C30.83 82.57 26.57 79.62 23.51 75.11C22.28 73.29 21.4 71.3201 20.91 69.1801C20.53 67.5101 19.48 66.68 17.86 66.19C14.88 65.3 12.68 63.34 11.47 60.49C10.78 58.86 11.32 57.1601 11.94 55.5301C14.18 57.1701 16.59 56.6001 17.37 54.3001C17.5 53.9201 17.53 53.5401 17.52 53.1601C17.46 51.0701 17.7 49 18.01 46.94C18.16 45.95 18.15 45.95 19.06 46.48C23.52 49.09 28.27 50.9401 33.35 51.9101C39.48 53.0801 45.52 52.6201 51.47 50.7701C54.75 49.7501 57.89 48.3901 60.86 46.6701C61.24 46.4501 61.63 46.22 62.08 45.96C62.45 47.74 62.61 49.47 62.69 51.21C62.73 51.95 62.66 52.7 62.72 53.44C62.94 56.01 65.57 57.35 67.7 55.94C68.26 55.57 68.36 55.75 68.54 56.21C69.65 59.11 68.92 61.75 66.34 64.07L66.36 64.09Z" fill="#DF6939"/>
<path d="M79.12 18C78.86 17.5 78.21 17.66 77.72 17.65C75.21 17.61 72.71 17.3999 70.24 16.9399C63.54 15.6799 57.72 12.65 52.55 8.26001C50.1 6.17001 47.76 3.94995 45.13 2.06995C43.63 0.999946 42 0.239951 40.12 0.199951C38.32 0.249951 36.8 0.990049 35.44 2.05005C33.53 3.55005 31.86 5.30001 30.15 7.01001C23.85 13.31 16.23 16.66 7.39001 17.41C5.63001 17.56 3.87001 17.55 2.11001 17.67C1.07001 17.75 0.790004 18.13 1.06 19.14C1.2 19.65 1.39001 20.17 1.64001 20.63C2.63001 22.43 3.68001 24.19 4.66001 26C6.08001 28.61 7.65001 31.17 7.94001 34.23C8.01001 34.93 8.45 34.57 8.7 34.51C16.77 32.56 24.99 31.73 33.26 31.36C40.88 31.02 48.49 31.1799 56.08 32.0699C59.96 32.5299 63.82 33.1501 67.57 34.3101C68.64 34.6401 68.63 34.66 68.84 33.61C68.89 33.38 68.96 33.15 69.04 32.92C69.91 30.26 71.68 28.14 73.37 25.99C75.08 23.81 77.01 21.8 78.62 19.54C78.94 19.09 79.41 18.57 79.11 18.01L79.12 18ZM47.28 20.87C47.28 22.63 46.13 23.76 44.98 24.84C43.68 26.07 42.16 27.02 40.59 27.9C40.26 28.08 40.02 28.09 39.7 27.9C37.75 26.79 35.89 25.57 34.37 23.89C33.45 22.87 32.95 21.73 32.98 20.34C33.02 18.43 33.02 16.53 32.98 14.62C32.97 13.97 33.18 13.83 33.79 13.84C35.91 13.87 38.03 13.85 40.15 13.85C42.27 13.85 44.45 13.87 46.6 13.84C47.13 13.84 47.32 13.95 47.31 14.52C47.27 16.64 47.3 18.75 47.3 20.87H47.28Z" fill="#131B53"/>
<path d="M32.85 58.36C32.94 61.15 30.64 63.53 27.76 63.62C24.9 63.71 22.51 61.43 22.42 58.51C22.33 55.74 24.63 53.35 27.52 53.22C30.31 53.09 32.77 55.45 32.86 58.35L32.85 58.36Z" fill="#DF6939"/>
<path d="M57.85 58.59C57.77 61.44 55.37 63.7201 52.54 63.6301C49.61 63.5501 47.37 61.2001 47.44 58.2901C47.51 55.4601 49.97 53.11 52.74 53.22C55.67 53.34 57.92 55.71 57.85 58.59Z" fill="#DF6939"/>
<path d="M57.85 58.59C57.77 61.44 55.37 63.7201 52.54 63.6301C49.61 63.5501 47.37 61.2001 47.44 58.2901C47.51 55.4601 49.97 53.11 52.74 53.22C55.67 53.34 57.92 55.71 57.85 58.59Z" fill="#DF6939"/>
<path d="M27.76 63.62C24.9 63.71 22.51 61.43 22.42 58.51C22.33 55.74 24.63 53.35 27.52 53.22C30.31 53.09 32.77 55.45 32.86 58.35C32.95 61.14 30.65 63.52 27.77 63.61L27.76 63.62Z" fill="#DF6939"/>
</svg>
