<svg width="79" height="95" viewBox="0 0 79 95" fill="none" xmlns="http://www.w3.org/2000/svg">
<path d="M58.71 4.30005C58.71 2.51005 58.1199 1.24003 56.45 0.530029H22.33C20.61 1.25003 20.0699 2.58001 20.0699 4.39001C20.0999 33.15 20.09 61.91 20.09 90.66C20.09 90.94 20.09 91.21 20.09 91.49C20.17 93.32 21.3699 94.52 23.1899 94.52C33.9799 94.53 44.7799 94.53 55.5699 94.52C57.0999 94.52 58.25 93.64 58.58 92.21C58.69 91.75 58.6801 91.24 58.6801 90.75C58.6801 61.94 58.67 33.12 58.7 4.30005H58.71ZM39.41 10.1C45.51 10.12 50.56 15.19 50.53 21.27C50.51 27.4 45.46 32.42 39.37 32.39C33.24 32.36 28.23 27.33 28.25 21.23C28.27 15.13 33.32 10.09 39.41 10.1ZM39.38 85.1899C33.24 85.1799 28.23 80.1701 28.24 74.05C28.26 67.93 33.28 62.9299 39.41 62.9399C45.53 62.9499 50.56 67.98 50.54 74.08C50.52 80.22 45.51 85.1999 39.38 85.1899ZM39.42 58.78C33.29 58.8 28.28 53.8299 28.25 47.6899C28.22 41.5999 33.26 36.53 39.37 36.52C45.47 36.51 50.51 41.52 50.54 47.64C50.57 53.74 45.56 58.76 39.42 58.78Z" fill="#DF6939"/>
<path d="M15.72 73.4002C15.72 76.7602 15.71 80.1201 15.73 83.4901C15.73 84.0701 15.61 84.3202 14.99 84.2502C14.54 84.2002 14.07 84.2501 13.62 84.2301C11.91 84.1401 10.66 82.8802 10.59 81.1702C10.59 81.0502 10.57 80.9202 10.59 80.8002C11.1 78.1802 9.99008 76.3502 8.04008 74.6602C5.76008 72.6802 3.74 70.4102 1.59 68.2802C0.500004 67.2002 -0.0699034 65.9701 0.560097 64.4901C1.1901 63.0201 2.44003 62.5502 3.99003 62.5602C7.66003 62.5902 11.32 62.5902 14.99 62.5602C15.6 62.5602 15.74 62.7301 15.74 63.3201C15.71 66.6801 15.73 70.0402 15.73 73.4102L15.72 73.4002Z" fill="#DF6939"/>
<path d="M63.0601 73.4C63.0601 70.04 63.08 66.6801 63.05 63.3101C63.05 62.7201 63.19 62.55 63.8 62.55C67.53 62.58 71.25 62.58 74.98 62.55C76.47 62.55 77.63 63.09 78.22 64.47C78.82 65.87 78.3599 67.09 77.3199 68.13C74.4699 70.98 71.62 73.8401 68.76 76.6801C68.36 77.0801 68.1599 77.46 68.1899 78.03C68.2399 79.07 68.2299 80.11 68.1899 81.15C68.1399 82.86 66.88 84.12 65.16 84.21C63.76 84.29 63.0601 83.6434 63.0601 82.27V73.38V73.4Z" fill="#DF6939"/>
<path d="M15.72 21.9698C15.72 25.3298 15.71 28.6899 15.73 32.0499C15.73 32.6299 15.62 32.8898 14.99 32.8198C14.51 32.7598 14.01 32.8299 13.53 32.7899C11.79 32.6299 10.64 31.3799 10.59 29.6399C10.59 29.5199 10.57 29.3899 10.59 29.2699C11.04 26.7799 10.0801 24.9899 8.18006 23.3499C5.79006 21.2699 3.63004 18.9199 1.41004 16.6399C-0.40996 14.7799 0.129948 12.1099 2.43995 11.3099C2.84995 11.1699 3.27996 11.1499 3.69996 11.1499C7.45996 11.1499 11.21 11.1599 14.97 11.1299C15.56 11.1299 15.73 11.2699 15.73 11.8799C15.7 15.2399 15.72 18.5998 15.72 21.9598V21.9698Z" fill="#DF6939"/>
<path d="M63.0601 21.9501C63.0601 18.6201 63.08 15.2901 63.05 11.9601C63.05 11.3401 63.16 11.1401 63.83 11.1401C67.56 11.1801 71.28 11.1701 75.01 11.1501C76.5 11.1501 77.66 11.7001 78.23 13.0901C78.81 14.4901 78.34 15.7001 77.3 16.7401C74.48 19.5401 71.69 22.3701 68.86 25.1501C68.36 25.6401 68.1499 26.1401 68.1899 26.8301C68.2399 27.7401 68.2199 28.6601 68.1899 29.5801C68.1599 31.4501 66.92 32.7101 65.04 32.8201C63.7134 32.8934 63.05 32.2667 63.05 30.9401C63.05 27.9501 63.05 24.9501 63.05 21.9601L63.0601 21.9501Z" fill="#DF6939"/>
<path d="M15.7199 47.7299C15.7199 51.0599 15.6999 54.3898 15.7299 57.7198C15.7299 58.3398 15.6199 58.6199 14.9499 58.5399C14.4999 58.4799 14.0299 58.5399 13.5799 58.5199C11.8599 58.3999 10.6399 57.1299 10.5899 55.4099C10.5599 54.3699 10.5499 53.3299 10.5899 52.2899C10.6099 51.7499 10.43 51.3899 10.06 51.0099C7.19002 48.1699 4.33997 45.3198 1.49997 42.4598C-0.110034 40.8398 -0.0800148 38.7899 1.51999 37.5199C2.08999 37.0699 2.74995 36.8599 3.47995 36.8599C7.35995 36.8599 11.24 36.8698 15.12 36.8398C15.7 36.8398 15.7399 37.0799 15.7299 37.5399C15.7099 40.9299 15.7299 44.3198 15.7299 47.7198L15.7199 47.7299Z" fill="#DF6939"/>
<path d="M63.0601 47.6898C63.0601 44.3298 63.08 40.9698 63.05 37.6098C63.05 37.0098 63.2 36.8498 63.8 36.8598C67.56 36.8898 71.3099 36.8898 75.0699 36.8598C76.5299 36.8598 77.65 37.4298 78.22 38.7698C78.8 40.1198 78.4 41.3398 77.38 42.3598C74.49 45.2598 71.5999 48.1599 68.6899 51.0399C68.3399 51.3899 68.1701 51.7298 68.1801 52.2398C68.2201 53.2798 68.2101 54.3198 68.1801 55.3598C68.1401 57.1298 66.91 58.3999 65.15 58.5299C63.75 58.6232 63.05 57.9765 63.05 56.5898C63.05 53.6298 63.05 50.6598 63.05 47.6998L63.0601 47.6898Z" fill="#DF6939"/>
<path d="M45.82 47.8799C45.7 51.3999 42.68 54.2599 39.23 54.1199C35.63 53.9699 32.86 51.0399 32.96 47.4799C33.06 43.9599 36.0301 41.1099 39.5001 41.2199C43.1501 41.3299 45.94 44.2799 45.82 47.8799Z" fill="#131B53"/>
<path d="M45.83 21.3301C45.78 24.8701 42.88 27.7301 39.36 27.7101C35.8 27.6801 32.91 24.7401 32.95 21.1701C33 17.6401 35.8901 14.7902 39.4201 14.8102C43.0001 14.8402 45.88 17.7701 45.83 21.3301Z" fill="#131B53"/>
<path d="M45.83 74.02C45.86 77.56 42.95 80.51 39.42 80.54C35.9 80.56 32.95 77.6099 32.95 74.0699C32.95 70.5299 35.7699 67.69 39.3199 67.61C42.8099 67.53 45.81 70.48 45.83 74.02Z" fill="#131B53"/>
</svg>
