<svg width="113" height="75" viewBox="0 0 113 75" fill="none" xmlns="http://www.w3.org/2000/svg">
<path d="M112.16 58.16C110.6 57.64 110.59 57.64 110.59 55.99C110.59 50.05 110.58 44.1 110.6 38.16C110.61 36.96 110.27 36 109.41 35.14C105.87 31.6 102.1 28.3 98.55 24.77C97.55 23.78 96.34 23.37 94.9 23.39C90.73 23.44 86.55 23.41 82.38 23.41C79.2 23.41 78.55 24.06 78.55 27.23C78.54 36.83 78.55 46.44 78.55 56.05C78.55 56.45 78.56 56.85 78.52 57.24C78.48 57.59 78.36 57.84 77.97 57.96C76.31 58.47 75.52 57.91 75.51 56.19V6.28001C75.51 5.69001 75.53 5.11996 75.48 4.53996C75.33 2.71996 73.81 0.429983 71.26 0.559983C71.22 0.559983 71.17 0.569992 71.13 0.569992H7.81994C7.75994 0.569992 7.70001 0.580002 7.64001 0.580002C5.48001 0.710002 4.16 1.81999 3.63 3.93999C3.4 4.82999 3.39001 5.73 3.39001 6.64V56.36C3.39001 57.92 3.38 57.94 1.88 58.02C1.08 58.07 0.709995 58.33 0.749995 59.21C0.809995 60.87 0.770014 62.54 0.770014 64.21C0.770014 65.53 0.829946 65.6 2.19995 65.62C4.18995 65.64 6.18994 65.65 8.18994 65.61C9.10994 65.59 9.64997 65.91 9.96997 66.82C10.44 68.11 11.09 69.32 11.97 70.41C16.5 75.99 25.53 75.84 29.85 70.41C30.52 69.56 30.58 69.59 31.28 70.43C34.51 74.27 39.2001 75.34 43.8101 73.99C47.4601 72.91 49.88 70.38 51.13 66.8C51.43 65.94 51.89 65.62 52.8 65.62C62.49 65.64 72.19 65.64 81.88 65.62C82.88 65.62 83.3199 65.98 83.6899 66.92C86.1199 73.17 91.8101 75.71 98.0601 74.02C101.74 73.03 104.15 70.44 105.47 66.91C105.85 65.9 106.38 65.57 107.39 65.62C108.62 65.68 109.86 65.64 111.09 65.63C111.56 65.63 112.05 65.66 112.44 65.32V58.35C112.35 58.29 112.27 58.21 112.16 58.17V58.16ZM20.83 68.54C17.85 68.51 15.4 66.05 15.38 63.05C15.36 60.02 17.86 57.49 20.88 57.5C23.9 57.5 26.4 60.01 26.39 63.04C26.38 66.07 23.84 68.58 20.83 68.54ZM40.21 68.54C37.21 68.54 34.6501 65.96 34.68 62.98C34.71 60.02 37.21 57.52 40.17 57.49C43.16 57.46 45.74 60 45.75 63C45.76 65.99 43.2 68.55 40.21 68.54ZM68.84 44.69C68.84 45.96 67.81 46.99 66.53 46.99H12.8101C11.5401 46.99 10.51 45.96 10.51 44.69V11.44C10.51 10.17 11.5401 9.14 12.8101 9.14H66.53C67.81 9.14 68.84 10.17 68.84 11.44V44.69ZM94.6 68.54C91.62 68.55 89.13 66.1 89.09 63.12C89.04 60.07 91.46 57.56 94.5 57.5C97.51 57.44 100.05 59.93 100.08 62.97C100.1 66.01 97.62 68.53 94.6 68.54ZM102.38 41.9C101.81 42.43 100.65 42.04 99.75 42.05C97.79 42.07 95.83 42.06 93.87 42.06C91.3 42.06 88.72 42.03 86.14 42.07C85.45 42.08 85.22 41.92 85.22 41.18C85.27 37.92 85.26 34.66 85.22 31.4C85.22 30.68 85.41 30.49 86.13 30.5C88.66 30.54 91.2 30.53 93.74 30.5C94.26 30.5 94.62 30.65 94.99 31C97.22 33.12 99.45 35.25 101.73 37.33C102.34 37.89 102.66 38.45 102.56 39.29C102.46 40.18 102.95 41.35 102.37 41.9H102.38Z" fill="#DF6939"/>
<path d="M59.49 18.7198C59.43 19.5998 58.43 20.3699 57.04 20.5599C56.6 20.6199 56.1499 20.6499 55.6999 20.6499C45.1199 20.6499 34.5499 20.6499 23.9699 20.6499C21.7199 20.6499 20.2499 19.8599 20.2199 18.6399C20.1899 17.4199 21.62 16.5599 23.74 16.5499C26.59 16.5399 29.43 16.5499 32.28 16.5499H39.92C45.22 16.5499 50.5199 16.5499 55.8299 16.5499C58.1199 16.5499 59.58 17.4298 59.49 18.7198Z" fill="#131B53"/>
<path d="M59.49 29.2399C59.43 30.1199 58.43 30.8899 57.04 31.0799C56.6 31.1399 56.1499 31.1698 55.6999 31.1698C45.1199 31.1698 34.5499 31.1698 23.9699 31.1698C21.7199 31.1698 20.2499 30.3798 20.2199 29.1598C20.1899 27.9398 21.62 27.0799 23.74 27.0699C26.59 27.0599 29.43 27.0699 32.28 27.0699H39.92C45.22 27.0699 50.5199 27.0699 55.8299 27.0699C58.1199 27.0699 59.58 27.9499 59.49 29.2399Z" fill="#131B53"/>
<path d="M59.49 39.68C59.43 40.56 58.43 41.3301 57.04 41.5201C56.6 41.5801 56.1499 41.61 55.6999 41.61C45.1199 41.61 34.5499 41.61 23.9699 41.61C21.7199 41.61 20.2499 40.82 20.2199 39.6C20.1899 38.38 21.62 37.5201 23.74 37.5101C26.59 37.5001 29.43 37.5101 32.28 37.5101H39.92C45.22 37.5101 50.5199 37.5101 55.8299 37.5101C58.1199 37.5101 59.58 38.39 59.49 39.68Z" fill="#131B53"/>
</svg>
