<svg width="77" height="95" viewBox="0 0 77 95" fill="none" xmlns="http://www.w3.org/2000/svg">
<path d="M76.6001 12.98C76.5501 11.88 75.9601 11.1701 75.0701 10.6501C74.4201 10.2701 73.71 10.1301 72.96 10.1301H68.5701C66.6801 10.1301 66.8 10.24 66.8 8.32001C66.79 6.76001 66.8201 5.20008 66.7901 3.64008C66.7401 1.59008 65.55 0.430006 63.49 0.440006C62.42 0.440006 61.36 0.550035 60.3 0.720035C41.74 3.81003 23.1701 6.92007 4.60006 10.0101C3.94006 10.1201 3.27005 10.2 2.65005 10.48C1.56005 10.97 0.860056 11.73 0.880056 12.96V91.45C0.880056 91.57 0.890045 91.6901 0.900045 91.8101C1.00005 93.2501 1.63006 93.93 3.17006 94.33H74.21C75.88 93.89 76.4101 93.26 76.6301 91.48C76.6801 91.05 76.6701 90.62 76.6701 90.2V14.6201C76.6701 14.0801 76.6301 13.53 76.6001 12.98ZM7.88006 87.44C7.12006 87.57 7.03006 87.4 7.04006 86.72C7.05006 75.09 7.05004 63.45 7.05004 51.82C7.05004 40.19 7.06005 28.68 7.03005 17.1101C7.03005 16.39 7.19005 16.1401 7.94005 16.0201C18.1301 14.3601 28.3101 12.65 38.5 10.95C45.5601 9.77001 52.6201 8.61009 59.6701 7.40009C60.3501 7.28009 60.4201 7.4501 60.4201 8.0401C60.4101 31.3401 60.4101 54.6301 60.4201 77.9301C60.4201 78.4701 60.3201 78.7001 59.7001 78.8001C48.7001 80.6001 37.71 82.4401 26.71 84.2801C20.43 85.3201 14.1501 86.35 7.88006 87.44ZM70.3501 87.08C70.3501 87.88 70.19 88.1401 69.33 88.1301C60.7 88.1001 52.06 88.11 43.43 88.11H42.34C42.34 88.11 42.33 88.03 42.33 87.98C45.02 87.53 47.71 87.0801 50.4 86.6301C54.88 85.8901 59.35 85.1601 63.83 84.4001C65.54 84.1101 66.4901 82.9901 66.59 81.2701C66.61 80.9301 66.59 80.6001 66.59 80.2601C66.59 59.4101 66.59 38.56 66.5601 17.71C66.5601 16.83 66.76 16.5101 67.65 16.6401C68.5201 16.7601 69.68 16.26 70.18 16.84C70.61 17.33 70.3201 18.4601 70.3201 19.3101C70.3201 41.9001 70.3101 64.49 70.34 87.08H70.3501Z" fill="#DF6939"/>
<path d="M0.790039 12.98C0.840039 12.98 0.900043 12.97 0.950043 12.96C0.950043 13.39 0.970032 13.81 0.970032 14.24C0.970032 39.67 0.970032 65.1 0.970032 90.52C0.970032 90.95 0.950043 91.37 0.950043 91.8C0.890043 91.84 0.840039 91.83 0.790039 91.77V12.98Z" fill="#DF6939"/>
<path d="M50.36 27.2801C46.94 27.8701 43.5 28.3801 40.07 28.9101C33.15 29.9901 26.23 31.0701 19.3 32.1301C18.67 32.2301 18.05 32.41 17.4 32.33C15.79 32.12 14.67 30.9001 14.63 29.3101C14.59 27.7401 15.65 26.4401 17.27 26.1801C20.82 25.6101 24.37 25.0701 27.92 24.5201C34.82 23.4501 41.71 22.38 48.61 21.32C48.97 21.26 49.33 21.22 49.49 21.2C51.29 21.19 52.63 22.33 52.8 23.85C52.99 25.55 52.04 26.9901 50.36 27.2801Z" fill="#131B53"/>
<path d="M50.36 43.7499C46.94 44.3399 43.5 44.8499 40.07 45.3799C33.15 46.4599 26.23 47.5399 19.3 48.5999C18.67 48.6999 18.05 48.88 17.4 48.8C15.79 48.59 14.67 47.37 14.63 45.78C14.59 44.21 15.65 42.91 17.27 42.65C20.82 42.08 24.37 41.5399 27.92 40.9899C34.82 39.9199 41.71 38.85 48.61 37.79C48.97 37.73 49.33 37.69 49.49 37.67C51.29 37.66 52.63 38.7999 52.8 40.3199C52.99 42.0199 52.04 43.4599 50.36 43.7499Z" fill="#131B53"/>
<path d="M50.36 61.3601C46.94 61.9501 43.5 62.4601 40.07 62.9901C33.15 64.0701 26.23 65.15 19.3 66.21C18.67 66.31 18.05 66.4901 17.4 66.4101C15.79 66.2001 14.67 64.9801 14.63 63.3901C14.59 61.8201 15.65 60.5201 17.27 60.2601C20.82 59.6901 24.37 59.15 27.92 58.6C34.82 57.53 41.71 56.4601 48.61 55.4001C48.97 55.3401 49.33 55.3001 49.49 55.2801C51.29 55.2701 52.63 56.4101 52.8 57.9301C52.99 59.6301 52.04 61.0701 50.36 61.3601Z" fill="#131B53"/>
</svg>
