<svg width="105" height="81" viewBox="0 0 105 81" fill="none" xmlns="http://www.w3.org/2000/svg">
<path d="M104.63 27.8001C104.63 25.8001 104.11 23.99 102.78 22.45C101.09 20.49 98.96 19.39 96.36 19.19C94.51 19.06 92.9 20.27 92.55 22.12C92.27 23.69 93.43 25.4101 95.1 25.8801C95.5 25.9801 95.91 26.0301 96.29 26.1301C97.29 26.4101 97.75 26.97 97.87 28C97.93 28.43 97.9 28.8801 97.9 29.3101V67.6601C97.9 68.0901 97.91 68.54 97.89 68.97C97.55 73 92.99 75.4101 89.48 73.4001C87.4 72.2101 86.54 70.37 86.54 67.99C86.55 49.22 86.55 30.46 86.55 11.71C86.55 10.55 86.48 9.41006 86.31 8.26006C85.7 4.18006 82.05 0.939991 77.93 0.939991C54.83 0.929991 31.71 0.939991 8.59998 0.939991C7.43998 0.939991 6.33003 1.19005 5.28003 1.75005C2.47003 3.20005 0.759988 5.42007 0.549988 8.65007V73.1601C0.799988 73.9501 0.669998 74.82 1.06 75.61C2.73 79.01 5.37999 80.8501 9.23999 80.7601H92.43C98.96 81.2401 104.64 75.1601 104.63 69.2601C104.57 55.4301 104.6 41.6001 104.62 27.7801L104.63 27.8001ZM81.36 74.46H10.01C9.16001 74.46 8.30999 74.49 7.60999 73.86C6.94999 73.26 6.80001 72.5001 6.82001 71.6501V10.61C6.82001 8.13003 7.55 7.38005 10 7.38005H76.69C79.2 7.38005 79.95 8.13007 79.95 10.6501C79.95 29.5101 79.96 48.37 79.94 67.23C79.94 69.63 80.21 71.95 81.36 74.08C81.4 74.17 81.37 74.27 81.37 74.45L81.36 74.46Z" fill="#DF6939"/>
<path d="M68.58 45.5699C68.74 47.4499 67.4 48.94 65.43 49C63.74 49.04 62.0399 49.01 60.3499 49.01H22.3C20.13 49.01 18.7 47.71 18.73 45.84C18.74 44.29 19.88 43.03 21.46 42.79C21.74 42.75 22.06 42.75 22.36 42.75H64.99C67.04 42.75 68.42 43.8601 68.57 45.5601L68.58 45.5699Z" fill="#131B53"/>
<path d="M68.59 61.4701C68.56 63.0201 67.38 64.3501 65.83 64.4601C64.7 64.5301 63.53 64.4902 62.38 64.4902H43.71C36.5 64.4902 29.3 64.5002 22.1 64.4902C19.88 64.4902 18.46 62.9102 18.78 60.8602C19 59.5502 20.02 58.5302 21.35 58.3502C21.81 58.2902 22.29 58.2902 22.75 58.2902C36.7 58.2802 50.63 58.2802 64.56 58.2902C65.04 58.2902 65.52 58.2902 65.98 58.3502C67.5 58.5602 68.61 59.9001 68.58 61.4701H68.59Z" fill="#131B53"/>
<path d="M36.76 24.2299C36.76 25.3899 36.77 26.5398 36.77 27.7098C36.77 28.5798 36.76 29.4399 36.74 30.3099C36.71 32.2199 35.55 33.4499 33.65 33.4799C29.48 33.5099 25.33 33.5098 21.17 33.4698C19.56 33.4598 18.38 32.3498 18.18 30.8398C17.97 29.2998 18.82 27.9398 20.27 27.4498C20.76 27.2698 21.27 27.2999 21.78 27.2999C24.38 27.2999 26.99 27.2599 29.59 27.3099C30.43 27.3199 30.59 27.0599 30.59 26.2899C30.55 23.4499 30.55 20.5999 30.6 17.7599C30.61 16.4199 31.59 15.2798 32.84 14.9698C34.17 14.6298 35.54 15.1599 36.29 16.2999C36.69 16.9299 36.77 17.6298 36.77 18.3498C36.76 20.3098 36.76 22.2599 36.76 24.2299Z" fill="#131B53"/>
<path d="M66.59 33.2799C66.32 33.3799 66.01 33.4598 65.71 33.4598C59.08 33.4598 52.45 33.4898 45.82 33.4498C44.31 33.4398 43.16 32.2099 43.01 30.7499C42.85 29.2599 43.71 27.9298 45.13 27.4498C45.62 27.2898 46.13 27.2999 46.62 27.2999H55.76C59.05 27.3099 62.32 27.2898 65.6 27.3298C67.14 27.3398 68.33 28.4499 68.56 29.8799C68.78 31.3599 67.99 32.7499 66.59 33.2799Z" fill="#131B53"/>
</svg>
