<svg width="64" height="94" viewBox="0 0 64 94" fill="none" xmlns="http://www.w3.org/2000/svg">
<path d="M63.16 82.7802V11.4002C63.28 10.2302 62.81 9.33016 61.98 8.52016C59.88 6.47016 57.74 4.44016 55.77 2.27016C54.3 0.650164 51.49 0.480164 49.89 2.27016C48.86 3.43016 47.7 4.49017 46.6 5.59017C45.9 6.28017 45.9 6.28015 45.18 5.57015C44.03 4.43015 42.85 3.32015 41.76 2.13015C40.28 0.510149 37.44 0.650118 36.14 2.16012C35.07 3.41012 33.81 4.49014 32.67 5.68014C32.16 6.21014 31.77 6.22014 31.26 5.68014C30.12 4.49014 28.86 3.40012 27.79 2.16012C26.47 0.630118 23.64 0.52013 22.17 2.11013C21.1 3.28013 19.94 4.37013 18.81 5.49013C18.06 6.24013 17.99 6.23013 17.23 5.49013C16.06 4.33013 14.87 3.18013 13.73 1.99013C12.34 0.540135 9.59 0.740123 8.37 2.04012C6.24 4.32012 3.98 6.47014 1.78 8.68014C1.02 9.44014 0.640015 10.2901 0.640015 11.4101C0.660015 35.2601 0.660015 59.1201 0.640015 82.9701C0.640015 84.0401 0.980011 84.8701 1.73001 85.6201C3.87001 87.7201 5.99 89.8401 8.09 91.9901C8.74 92.6501 9.43999 93.1502 10.37 93.2802H11.81C12.71 93.1602 13.39 92.6602 14 92.0202C14.79 91.2102 15.61 90.4201 16.4 89.6001C16.96 89.0201 17.6 88.5301 18.02 87.8501C18.12 88.1401 18.38 88.3502 18.61 88.5802C19.77 89.7502 20.94 90.9002 22.09 92.0702C22.69 92.6802 23.37 93.1202 24.22 93.2602H25.66C26.56 93.1402 27.24 92.6602 27.86 92.0102C29.02 90.8002 30.24 89.6401 31.4 88.4401C31.81 88.0201 32.11 88.0201 32.51 88.4401C33.68 89.6401 34.89 90.8002 36.05 92.0102C36.67 92.6602 37.35 93.1402 38.25 93.2602H39.69C40.59 93.1402 41.27 92.6401 41.88 92.0001C42.67 91.1901 43.49 90.4002 44.28 89.5802C44.84 89.0002 45.48 88.5102 45.9 87.8302C46 88.1202 46.26 88.3301 46.49 88.5601C47.65 89.7301 48.82 90.8801 49.97 92.0501C50.57 92.6601 51.25 93.1001 52.1 93.2401H53.54C54.44 93.1201 55.11 92.6401 55.74 92.0001C57.77 89.9301 59.81 87.8601 61.89 85.8501C62.79 84.9801 63.31 84.0201 63.16 82.7501V82.7802ZM56.58 80.8402C56.58 81.4302 56.42 81.8501 55.99 82.2501C55.07 83.1101 54.18 84.0001 53.32 84.9201C52.98 85.2801 52.79 85.3101 52.42 84.9301C51.15 83.6101 49.85 82.3301 48.55 81.0401C46.78 79.2901 44.99 79.2801 43.22 81.0401C41.92 82.3301 40.62 83.6101 39.35 84.9301C39 85.3001 38.81 85.2901 38.45 84.9301C37.18 83.6101 35.88 82.3301 34.58 81.0401C32.82 79.2901 31.04 79.3002 29.26 81.0702C27.96 82.3602 26.66 83.6502 25.39 84.9602C25.07 85.2902 24.89 85.3102 24.56 84.9602C23.27 83.6302 21.95 82.3202 20.63 81.0102C18.91 79.3002 17.09 79.3002 15.37 81.0102C14.05 82.3202 12.73 83.6302 11.43 84.9602C11.1 85.3002 10.92 85.2902 10.6 84.9602C9.76001 84.0702 8.89999 83.1801 7.98999 82.3501C7.48999 81.8901 7.29999 81.4001 7.29999 80.7201C7.31999 65.0301 7.32001 49.3302 7.32001 33.6402C7.32001 26.9502 7.32 20.2602 7.31 13.5702C7.31 12.9502 7.47999 12.5102 7.92999 12.0902C8.82999 11.2502 9.70001 10.3801 10.54 9.48013C10.91 9.08013 11.11 9.06012 11.5 9.47012C12.76 10.7901 14.07 12.0701 15.37 13.3601C17.09 15.0701 18.92 15.0701 20.63 13.3601C21.95 12.0501 23.27 10.7401 24.56 9.41012C24.88 9.07012 25.07 9.08012 25.39 9.41012C26.56 10.6201 27.75 11.8001 28.94 12.9901C31.16 15.2201 32.71 15.2102 34.96 12.9602C36.13 11.7902 37.31 10.6402 38.45 9.45016C38.8 9.09016 38.98 9.06015 39.35 9.44015C40.64 10.7801 41.96 12.0802 43.28 13.3902C44.96 15.0502 46.8 15.0502 48.48 13.3902C49.8 12.0802 51.13 10.7801 52.42 9.44015C52.78 9.07015 53.02 9.03016 53.31 9.45016C53.34 9.50016 53.39 9.53016 53.44 9.58016C54.47 10.6202 55.91 11.5002 56.43 12.7602C56.95 14.0202 56.57 15.6501 56.57 17.1201C56.57 27.1401 56.57 37.1601 56.57 47.1901C56.57 58.4101 56.57 69.6301 56.58 80.8601V80.8402Z" fill="#DA693A"/>
<path d="M51.58 40.44C51.52 41.86 50.52 43.0801 49.13 43.4001C48.69 43.5001 48.24 43.54 47.79 43.54C37.21 43.54 26.64 43.54 16.06 43.54C13.81 43.54 12.34 42.26 12.31 40.31C12.28 38.35 13.71 36.9601 15.83 36.9501C18.68 36.9301 21.52 36.9501 24.37 36.9501H32.01C37.31 36.9501 42.61 36.9501 47.92 36.9501C50.21 36.9501 51.67 38.37 51.58 40.44Z" fill="#131B53"/>
<path d="M51.58 68.0302C51.56 69.4902 50.58 70.7902 49.17 71.1202C48.68 71.2402 48.16 71.2702 47.66 71.2702C42.42 71.2802 37.18 71.2702 31.93 71.2702C26.68 71.2702 21.27 71.2702 15.93 71.2702C13.84 71.2702 12.4 70.0202 12.31 68.1902C12.23 66.4302 13.32 65.0502 15.06 64.7602C15.47 64.6902 15.89 64.6802 16.31 64.6802C26.74 64.6802 37.16 64.6802 47.58 64.6802C48.12 64.6802 48.66 64.6902 49.19 64.8302C50.61 65.2002 51.59 66.5202 51.57 68.0302H51.58Z" fill="#131B53"/>
<path d="M39.61 57.2801C39.17 57.3701 38.72 57.4001 38.27 57.4001C34.58 57.4001 30.9 57.4001 27.21 57.4001C23.52 57.4001 19.66 57.4101 15.89 57.4001C13.66 57.3901 12.23 55.96 12.32 53.91C12.38 52.49 13.38 51.2601 14.76 50.9501C15.2 50.8501 15.65 50.8101 16.1 50.8101C23.53 50.8101 30.96 50.8101 38.39 50.8101C40.38 50.8101 41.65 51.6901 42.06 53.3201C42.51 55.1001 41.41 56.9001 39.61 57.2801Z" fill="#131B53"/>
<path d="M36.09 26.3601C36.09 28.2201 34.69 29.6301 32.68 29.6601C29.84 29.7001 26.9901 29.6701 24.1401 29.6701C21.2901 29.6701 18.57 29.7001 15.78 29.6701C13.25 29.6301 11.65 27.4302 12.52 25.2102C13.07 23.8002 14.19 23.1101 15.67 23.1001C21.36 23.0701 27.05 23.0601 32.74 23.1001C34.7 23.1101 36.08 24.5501 36.09 26.3701V26.3601Z" fill="#131B53"/>
</svg>
