<?xml version="1.0" encoding="UTF-8"?>
<svg xmlns="http://www.w3.org/2000/svg" version="1.1" viewBox="0 0 106.97 106.97">
  <defs>
    <style>
      .cls-1 {
        fill: none;
      }

      .cls-2 {
        fill: #ee6126;
      }
    </style>
  </defs>
  <!-- Generator: Adobe Illustrator 28.6.0, SVG Export Plug-In . SVG Version: 1.2.0 Build 709)  -->
  <g>
    <g id="Camada_1">
      <g>
        <path class="cls-2" d="M84.09,41.57c-.13-.49-.42-.88-.77-1.24-6.08-6.42-12.17-12.82-18.26-19.24-1.04-1.1-2.31-1.65-3.82-1.62-1.11.01-2.21-.04-3.31.01-.67.04-.73-.26-.73-.81-.01-.51.35-.64.65-.86,2.58-1.82,3.84-4.27,3.43-7.44-.39-3.12-2.11-5.27-5.03-6.35-3.06-1.12-5.88-.46-8.15,1.83-2.26,2.3-2.85,5.11-1.76,8.19.57,1.58,1.56,2.86,2.99,3.73.59.36.77.78.63,1.35-.16.68-.74.3-1.13.33-.9.06-1.81.06-2.73.01-1.89-.09-3.37.63-4.64,1.99-5.89,6.25-11.81,12.46-17.72,18.69-.22.24-.45.48-.63.74-.82,1.25-.28,2.63,1.17,2.91.66.14,1.37.16,2.04.08.88-.08,1.27.22,1.57,1.08,3.14,8.72,6.35,17.42,9.53,26.12.85,2.33,2.46,3.62,4.95,3.69.52.02.73.21.88.66.5,1.44,1.03,2.87,1.54,4.3.88,2.44,1.98,3.27,4.56,3.21.86-.02.99.25.97,1.03-.03,5.07.04,10.15-.04,15.22-.04,2.07.64,3.5,2.57,4.29h1.55c1.9-.45,2.76-1.53,2.81-3.52.01-.36,0-.71,0-1.07v-14.45c0-1.12.04-1.16,1.14-1.2,2.03-.05,3.42-1.01,4.19-2.91.56-1.38,1.02-2.81,1.53-4.21.25-.71.64-1.03,1.39-1.11,2.12-.25,3.57-1.44,4.43-3.37.44-.99.75-2.01,1.13-3.02,2.74-7.38,5.43-14.78,8.1-22.18.53-1.5,1.06-2.61,2.91-2.27.45.07.89-.16,1.29-.4.46-.28.81-.63.8-1.22v-.02c-.02-.33.06-.65-.06-.96ZM50.78,68.4c.01.55-.14.72-.7.71-2.23-.03-4.48-.02-6.72,0-.42.01-.64-.1-.79-.51-2.97-8.16-5.94-16.32-8.92-24.48-.01-.03.01-.06.03-.21,5.51,0,11,.01,16.49-.01.79-.01.6.47.6.88v18.54c0,1.69-.02,3.39.01,5.07ZM70.43,52.91c-1.89,5.15-3.78,10.28-5.63,15.44-.22.61-.49.77-1.1.75-2.14-.03-4.29-.03-6.43.01-.61.01-.77-.16-.77-.75.02-7.91.02-15.82.01-23.72,0-.39-.09-.74.56-.74,5.51.02,11.04.01,16.66.01-1.12,3.05-2.21,6.03-3.3,9.01Z"/>
        <path class="cls-2" d="M84.25,42.56h-.09s-.09.01-.09.01c0-.33,0-.67.01-1,.06,0,.11,0,.17.02v.98Z"/>
        <path class="cls-1" d="M73.73,43.91c-1.12,3.05-2.21,6.03-3.3,9.01-1.89,5.15-3.78,10.28-5.63,15.44-.22.61-.49.77-1.1.75-2.14-.03-4.29-.03-6.43.01-.61.01-.77-.16-.77-.75.02-7.91.02-15.82.01-23.72,0-.39-.09-.74.56-.74,5.51.02,11.04.01,16.66.01Z"/>
        <path class="cls-1" d="M50.78,68.4c.01.55-.14.72-.7.71-2.23-.03-4.48-.02-6.72,0-.42.01-.64-.1-.79-.51-2.97-8.16-5.94-16.32-8.92-24.48-.01-.03.01-.06.03-.21,5.51,0,11,.01,16.49-.01.79-.01.6.47.6.88v18.54c0,1.69-.02,3.39.01,5.07Z"/>
      </g>
    </g>
  </g>
</svg>