<?xml version="1.0" encoding="UTF-8"?>
<svg xmlns="http://www.w3.org/2000/svg" version="1.1" viewBox="0 0 106.97 106.97">
  <defs>
    <style>
      .cls-1 {
        fill: none;
      }

      .cls-2 {
        fill: #16155b;
        stroke: #16155b;
        stroke-width: 1.11px;
      }

      .cls-2, .cls-3 {
        stroke-miterlimit: 10;
      }

      .cls-3 {
        fill: #ee6126;
        stroke: #ee6126;
        stroke-width: 2.22px;
      }
    </style>
  </defs>
  <!-- Generator: Adobe Illustrator 28.6.0, SVG Export Plug-In . SVG Version: 1.2.0 Build 709)  -->
  <g>
    <g id="Camada_1">
      <g>
        <path class="cls-3" d="M103.47,43.4c0-1.51-.17-3.01-1.1-4.31-1.72-2.39-4.04-3.7-7-3.72-8.42-.04-16.84,0-25.27-.02-1.6,0-1.71-.12-1.71-1.72-.01-4.43-.01-8.86,0-13.29,0-1.04-.3-1.86-1.05-2.6-4.45-4.42-8.89-8.86-13.31-13.31-.63-.64-1.35-.94-2.24-.94-14.63,0-29.26,0-43.89,0-1.39,0-2.61.35-3.57,1.5-.61.73-.57,1.62-.85,2.42v79.35c.28.84.22,1.77.92,2.49,1.17,1.21,2.52,1.8,4.21,1.8,8.05-.01,16.11,0,24.16,0,.4,0,.81,0,1.21,0,1.05.04,1.24.21,1.27,1.24.03,1.01.01,2.01.01,3.02,0,1.15.17,2.27.64,3.33,1.25,2.82,3.28,4.6,6.46,4.83h54.17c1.61-.19,3.14-.49,4.43-1.64,1.81-1.62,2.53-3.62,2.53-6-.01-17.48,0-34.97-.02-52.45ZM53.44,9.54c0-.08.08-.16.12-.23,2.88,2.89,5.75,5.76,8.67,8.68-.87.18-1.73.07-2.57.08-1.51.02-3.02.02-4.52,0-1.03-.02-1.68-.61-1.69-1.6-.03-2.31-.01-4.63,0-6.94ZM35.71,44.61c0,13.89,0,27.79.02,41.68,0,.86-.17,1.11-1.08,1.1-8.56-.04-17.11-.02-25.67-.02-1.79,0-2.27-.48-2.27-2.26V9.2c0-1.94.44-2.39,2.34-2.39,13.36,0,26.71.01,40.07-.03.96,0,1.13.29,1.12,1.16-.05,2.75-.03,5.5-.02,8.26.01,3.07,2.04,5.09,5.12,5.11,2.82.01,5.64.03,8.46-.02.74-.01.95.16.94.93-.04,4.23-.04,8.46,0,12.68,0,.77-.21.93-.95.92-6.41-.03-12.82-.02-19.23-.02-5.53,0-8.84,3.3-8.85,8.8ZM100.15,94.77c0,3.62-1.9,5.49-5.54,5.49-8.36,0-16.71,0-25.07,0s-16.78,0-25.17,0c-3.5,0-5.44-1.91-5.44-5.39,0-16.81,0-33.63,0-50.45,0-3.47,1.93-5.39,5.44-5.39,16.78,0,33.56,0,50.34,0,3.55,0,5.44,1.91,5.44,5.49v50.24Z"/>
        <path class="cls-1" d="M64.73,22.22c0-.77-.2-.94-.94-.93-2.82.04-5.64.03-8.46.02-3.08-.01-5.11-2.04-5.12-5.11-.01-2.75-.04-5.5.02-8.26.02-.87-.16-1.16-1.12-1.16-13.36.04-26.71.02-40.07.03-1.9,0-2.34.45-2.34,2.39v75.91c0,1.78.48,2.26,2.27,2.26,8.56,0,17.11-.02,25.67.02.91,0,1.08-.24,1.08-1.1-.03-13.89-.02-27.79-.02-41.68,0-5.5,3.32-8.8,8.85-8.8,6.41,0,12.82-.01,19.23.02.74,0,.95-.15.95-.92-.04-4.23-.04-8.46,0-12.68ZM32.32,44.82c.29.62.18,1.18-.23,1.69-.39.48-.93.59-1.53.59-2.58-.01-5.16,0-7.74,0s-5.16,0-7.74,0c-1.19,0-1.91-.6-1.93-1.58-.02-.98.7-1.64,1.86-1.64,5.19-.01,10.38,0,15.57,0,.77,0,1.38.22,1.73.95ZM17.13,18.2c.86-.14.92-.49.87-1.15-.05-.65-.01-1.29.53-1.76.49-.42,1.06-.56,1.68-.28.65.29.95.8,1,1.5.11,1.59.12,1.59,1.75,1.59.44,0,.87-.01,1.31,0,1.09.04,1.79.7,1.76,1.65-.02.91-.7,1.55-1.74,1.56-2.01.02-4.03.01-6.04,0-.57,0-1.08.1-1.45.54-.42.49-.56,1.06-.29,1.68.29.65.8.98,1.5.99,1.04.02,2.08,0,3.12,0,2.6.03,4.69,1.92,4.9,4.41.21,2.52-1.48,4.74-4.05,5.17-.66.11-.85.33-.77.92.03.2.01.4,0,.6-.04,1.09-.69,1.79-1.64,1.77-.91-.02-1.53-.7-1.58-1.73q-.07-1.48-1.56-1.48c-.54,0-1.07.02-1.61,0-1.01-.05-1.68-.73-1.66-1.65.02-.88.67-1.53,1.64-1.56,1.07-.03,2.15,0,3.22,0h0c1.01,0,2.01.01,3.02,0,1.09-.02,1.79-.69,1.77-1.64-.02-.91-.7-1.55-1.73-1.57-1.01-.02-2.01,0-3.02,0-2.6-.04-4.69-1.93-4.89-4.41-.2-2.49,1.44-4.72,3.96-5.14ZM22.65,71.25c-2.57.02-5.15.02-7.73,0-1.08,0-1.78-.69-1.76-1.64.02-.91.69-1.55,1.72-1.57,1.3-.02,2.61,0,3.91,0s2.54-.01,3.81,0c1.1.01,1.8.64,1.81,1.59.01.94-.69,1.62-1.78,1.62ZM30.47,63.2c-2.58,0-5.16,0-7.74,0s-5.03,0-7.54,0c-1.29,0-2.01-.57-2.04-1.57-.03-1.04.72-1.65,2.06-1.65,5.09,0,10.18,0,15.27,0,1.26,0,2,.61,1.99,1.62,0,1.01-.74,1.6-2.01,1.6ZM32.09,54.56c-.39.48-.93.59-1.53.59-2.58-.01-5.16,0-7.74,0s-5.16,0-7.74,0c-1.19,0-1.91-.6-1.93-1.58-.02-.98.7-1.64,1.86-1.64,5.19,0,10.38,0,15.57,0,.77,0,1.38.22,1.73.95.29.62.18,1.18-.23,1.69Z"/>
        <path class="cls-1" d="M94.71,39.04c-16.78,0-33.56,0-50.34,0-3.5,0-5.44,1.92-5.44,5.39,0,16.82,0,33.63,0,50.45,0,3.47,1.94,5.39,5.44,5.39,8.39,0,16.78,0,25.17,0s16.71,0,25.07,0c3.64,0,5.54-1.88,5.54-5.49v-50.24c0-3.58-1.89-5.49-5.44-5.49ZM96.83,66.94c-.3.85-.97,1.12-1.83,1.1-1.65-.02-3.29.05-4.93-.03-.93-.05-1.23.16-1.22,1.17.05,7.99.03,15.98.03,23.96,0,1.79-.48,2.28-2.25,2.28-5.71,0-11.41,0-17.11,0h-16.91c-1.94,0-2.39-.44-2.39-2.34,0-8.02-.01-16.04.02-24.06,0-.76-.14-1.04-.97-1-1.74.07-3.49.01-5.24.03-.82,0-1.45-.27-1.76-1.07-.31-.81.02-1.43.65-1.94,8.46-6.87,16.92-13.75,25.39-20.62.95-.77,1.53-.76,2.51.03,8.44,6.85,16.88,13.71,25.31,20.56.63.51.99,1.12.7,1.93Z"/>
        <path class="cls-1" d="M62.23,18c-.87.18-1.73.07-2.57.08-1.51.02-3.02.02-4.52,0-1.03-.02-1.68-.61-1.69-1.6-.03-2.31-.01-4.63,0-6.94,0-.08.08-.16.12-.23,2.88,2.89,5.75,5.76,8.67,8.68Z"/>
        <path class="cls-2" d="M21.97,34.12c-.66.11-.85.33-.77.92.03.2.01.4,0,.6-.04,1.09-.69,1.79-1.64,1.77-.91-.02-1.53-.7-1.58-1.73q-.07-1.48-1.56-1.48c-.54,0-1.07.02-1.61,0-1.01-.05-1.68-.73-1.66-1.65.02-.88.67-1.53,1.64-1.56,1.07-.03,2.15,0,3.22,0h0c1.01,0,2.01.01,3.02,0,1.09-.02,1.79-.69,1.77-1.64-.02-.91-.7-1.55-1.73-1.57-1.01-.02-2.01,0-3.02,0-2.6-.04-4.69-1.93-4.89-4.41-.2-2.49,1.44-4.72,3.96-5.14.86-.14.92-.49.87-1.15-.05-.65-.01-1.29.53-1.76.49-.42,1.06-.56,1.68-.28.65.29.95.8,1,1.5.11,1.59.12,1.59,1.75,1.59.44,0,.87-.01,1.31,0,1.09.04,1.79.7,1.76,1.65-.02.91-.7,1.55-1.74,1.56-2.01.02-4.03.01-6.04,0-.57,0-1.08.1-1.45.54-.42.49-.56,1.06-.29,1.68.29.65.8.98,1.5.99,1.04.02,2.08,0,3.12,0,2.6.03,4.69,1.92,4.9,4.41.21,2.52-1.48,4.74-4.05,5.17Z"/>
        <path class="cls-2" d="M32.09,46.51c-.39.48-.93.59-1.53.59-2.58-.01-5.16,0-7.74,0s-5.16,0-7.74,0c-1.19,0-1.91-.6-1.93-1.58-.02-.98.7-1.64,1.86-1.64,5.19-.01,10.38,0,15.57,0,.77,0,1.38.22,1.73.95.29.62.18,1.18-.23,1.69Z"/>
        <path class="cls-2" d="M32.09,54.56c-.39.48-.93.59-1.53.59-2.58-.01-5.16,0-7.74,0s-5.16,0-7.74,0c-1.19,0-1.91-.6-1.93-1.58-.02-.98.7-1.64,1.86-1.64,5.19,0,10.38,0,15.57,0,.77,0,1.38.22,1.73.95.29.62.18,1.18-.23,1.69Z"/>
        <path class="cls-2" d="M32.48,61.6c0,1.01-.74,1.6-2.01,1.6-2.58,0-5.16,0-7.74,0s-5.03,0-7.54,0c-1.29,0-2.01-.57-2.04-1.57-.03-1.04.72-1.65,2.06-1.65,5.09,0,10.18,0,15.27,0,1.26,0,2,.61,1.99,1.62Z"/>
        <path class="cls-2" d="M24.42,69.63c.01.94-.69,1.62-1.78,1.62-2.57.02-5.15.02-7.73,0-1.08,0-1.78-.69-1.76-1.64.02-.91.69-1.55,1.72-1.57,1.3-.02,2.61,0,3.91,0s2.54-.01,3.81,0c1.1.01,1.8.64,1.81,1.59Z"/>
        <path class="cls-2" d="M96.13,65.01c-8.44-6.85-16.87-13.71-25.31-20.56-.98-.8-1.56-.81-2.51-.03-8.47,6.87-16.93,13.75-25.39,20.62-.63.51-.96,1.13-.65,1.94.3.79.94,1.07,1.76,1.07,1.75-.02,3.49.04,5.24-.03.83-.03.97.25.97,1-.03,8.02-.02,16.04-.02,24.06,0,1.9.45,2.34,2.39,2.34h16.91c5.7,0,11.41,0,17.11,0,1.77,0,2.25-.49,2.25-2.28,0-7.99.02-15.98-.03-23.96,0-1.01.28-1.22,1.22-1.17,1.64.08,3.29,0,4.93.03.86.01,1.53-.26,1.83-1.1.29-.81-.07-1.42-.7-1.93ZM74.39,91.48c0,.56-.14.74-.72.73-2.75-.03-5.5-.03-8.24,0-.57,0-.74-.14-.73-.72.03-2.18.01-4.36.01-6.54s.02-4.36-.01-6.53c0-.56.14-.74.72-.74,2.75.03,5.5.03,8.24,0,.57,0,.73.14.73.72-.02,4.36-.02,8.71,0,13.07ZM90.52,64.81c-.95,0-1.91,0-2.86,0-1.45.01-2.01.57-2.01,2.01,0,8.12-.02,16.24.02,24.37,0,.85-.22,1.06-1.05,1.03-1.98-.07-3.96-.08-5.94,0-.98.04-1.12-.31-1.11-1.17.04-4.8.02-9.6.02-14.4,0-1.66-.51-2.18-2.15-2.18-3.89,0-7.79,0-11.68,0-1.8,0-2.28.47-2.28,2.24,0,4.87-.01,9.73.01,14.6,0,.68-.14.91-.87.9-2.11-.05-4.23-.05-6.34,0-.72.02-.88-.19-.88-.89.03-8.09.02-16.18.02-24.27,0-1.77-.48-2.25-2.28-2.25h-2.8c.48-.4.77-.66,1.07-.9,6.46-5.25,12.92-10.5,19.37-15.75.42-.34.72-.67,1.35-.16,6.69,5.49,13.42,10.93,20.14,16.39.1.08.22.13.34.19-.03.07-.06.15-.1.23Z"/>
        <path class="cls-1" d="M90.62,64.59c-.03.07-.06.15-.1.23-.95,0-1.91,0-2.86,0-1.45.01-2.01.57-2.01,2.01,0,8.12-.02,16.24.02,24.37,0,.85-.22,1.06-1.05,1.03-1.98-.07-3.96-.08-5.94,0-.98.04-1.12-.31-1.11-1.17.04-4.8.02-9.6.02-14.4,0-1.66-.51-2.18-2.15-2.18-3.89,0-7.79,0-11.68,0-1.8,0-2.28.47-2.28,2.24,0,4.87-.01,9.73.01,14.6,0,.68-.14.91-.87.9-2.11-.05-4.23-.05-6.34,0-.72.02-.88-.19-.88-.89.03-8.09.02-16.18.02-24.27,0-1.77-.48-2.25-2.28-2.25h-2.8c.48-.4.77-.66,1.07-.9,6.46-5.25,12.92-10.5,19.37-15.75.42-.34.72-.67,1.35-.16,6.69,5.49,13.42,10.93,20.14,16.39.1.08.22.13.34.19Z"/>
        <path class="cls-1" d="M74.39,91.48c0,.56-.14.74-.72.73-2.75-.03-5.5-.03-8.24,0-.57,0-.74-.14-.73-.72.03-2.18.01-4.36.01-6.54s.02-4.36-.01-6.53c0-.56.14-.74.72-.74,2.75.03,5.5.03,8.24,0,.57,0,.73.14.73.72-.02,4.36-.02,8.71,0,13.07Z"/>
      </g>
    </g>
  </g>
</svg>