<?xml version="1.0" encoding="UTF-8"?>
<svg xmlns="http://www.w3.org/2000/svg" version="1.1" viewBox="0 0 106.97 106.97">
  <defs>
    <style>
      .cls-1 {
        fill: #131956;
      }

      .cls-2 {
        fill: #ee6126;
      }
    </style>
  </defs>
  <!-- Generator: Adobe Illustrator 28.6.0, SVG Export Plug-In . SVG Version: 1.2.0 Build 709)  -->
  <g>
    <g id="Camada_1">
      <g>
        <path class="cls-2" d="M15.6,103.48c-1.57-.62-2.17-1.83-2.34-3.46-.79-7.6-1.66-15.19-2.49-22.78-.77-6.98-1.53-13.96-2.29-20.94-.02-.2-.2-.53.11-.58.42-.07.36.38.45.63,1.61,4.77,4.36,8.77,8.29,11.91,4.77,3.82,10.25,5.63,16.34,5.65,3.77,0,7.56.16,11.23-.95,8.52-2.56,14.3-8.05,17.36-16.39.12-.31.12-.69.52-.94.22.34.12.67.08.96-.61,5.56-1.22,11.12-1.84,16.67-.23,2.04-.48,4.07-.67,6.11-.05.55-.22.69-.76.69-2.57-.03-5.14-.02-7.71,0-4.04.02-7.26,2.33-8.56,6.15-1.29,3.81-2.54,7.63-3.84,11.43-.66,1.95-.57,3.89-.06,5.85H15.6Z"/>
        <path class="cls-1" d="M103.49,99.78v1.56c-.22,1.21-.93,1.93-2.14,2.15h-54.3c-2.18-1.21-2.56-2.19-1.77-4.61,1.18-3.54,2.35-7.07,3.53-10.61.57-1.7,1.48-2.35,3.25-2.35,14.73-.01,29.46-.01,44.19,0,1.83,0,2.73.66,3.32,2.41,1.19,3.54,2.35,7.07,3.54,10.61.1.29.08.65.38.85Z"/>
        <path class="cls-1" d="M77.13,78.98c0,.9-.23,1.13-1.1,1.08-1.34-.07-2.67-.05-4.01,0-.67.03-.78-.2-.78-.81.02-5.25.01-10.48.01-15.72v-20.59c0-11.98,0-23.95.01-35.92,0-.46-.01-.92.1-1.36.36-1.39,1.69-2.3,3.07-2.18,1.39.13,2.52,1.25,2.67,2.68.03.32.01.65.01.98,0,23.94,0,47.88.02,71.83Z"/>
        <path class="cls-2" d="M15.2,55.7h41.07c-.72,1.98-1.79,3.7-3.11,5.26-3.79,4.43-8.61,6.84-14.44,7.04-3.73.13-7.49.34-11.13-.82-5.59-1.79-9.65-5.33-12.17-10.63-.12-.25-.33-.5-.22-.84Z"/>
        <path class="cls-2" d="M35.7,49.81c-9.67,0-19.33,0-29,0-2.32,0-3.8-1.96-2.99-3.97.45-1.13,1.34-1.72,2.53-1.87.22-.03.46-.02.68-.02,19.17,0,38.34,0,57.51,0,1.83,0,2.97.77,3.34,2.24.44,1.76-.78,3.48-2.59,3.6-.52.04-1.04.02-1.56.02-9.31,0-18.62,0-27.93,0Z"/>
      </g>
    </g>
  </g>
</svg>