<?xml version="1.0" encoding="UTF-8"?>
<svg xmlns="http://www.w3.org/2000/svg" version="1.1" viewBox="0 0 106.97 106.97">
  <defs>
    <style>
      .cls-1 {
        fill: none;
      }

      .cls-2 {
        fill: #e96128;
      }

      .cls-3 {
        fill: #131956;
      }
    </style>
  </defs>
  <!-- Generator: Adobe Illustrator 28.6.0, SVG Export Plug-In . SVG Version: 1.2.0 Build 709)  -->
  <g>
    <g id="Camada_1">
      <g>
        <path class="cls-2" d="M87.34,92.12V14.78c.13-1.27-.38-2.24-1.28-3.12-2.28-2.23-4.6-4.42-6.73-6.77-1.59-1.76-4.64-1.94-6.38,0-1.12,1.26-2.37,2.41-3.57,3.6-.75.75-.76.75-1.54-.02-1.24-1.24-2.53-2.44-3.71-3.73-1.61-1.75-4.68-1.6-6.09.04-1.16,1.35-2.52,2.53-3.76,3.82-.55.58-.98.58-1.53,0-1.24-1.29-2.6-2.47-3.76-3.82-1.43-1.66-4.5-1.78-6.09-.05-1.16,1.27-2.42,2.45-3.64,3.66-.82.81-.89.81-1.72,0-1.27-1.26-2.55-2.5-3.79-3.79-1.51-1.58-4.49-1.35-5.8.05-2.31,2.47-4.75,4.8-7.14,7.19-.82.82-1.23,1.75-1.23,2.95.02,25.84.02,51.69,0,77.53,0,1.16.36,2.06,1.18,2.87,2.31,2.28,4.62,4.57,6.89,6.9.7.72,1.46,1.26,2.47,1.39h1.56c.97-.13,1.71-.68,2.38-1.36.86-.88,1.74-1.73,2.6-2.62.6-.62,1.3-1.16,1.76-1.89.1.32.39.54.64.79,1.25,1.26,2.52,2.51,3.77,3.78.65.66,1.38,1.14,2.31,1.29h1.56c.97-.13,1.71-.65,2.38-1.36,1.26-1.31,2.57-2.57,3.84-3.87.44-.45.76-.45,1.21,0,1.27,1.3,2.58,2.56,3.84,3.87.67.7,1.41,1.22,2.38,1.36h1.56c.98-.13,1.71-.68,2.38-1.36.86-.88,1.75-1.73,2.6-2.62.6-.62,1.3-1.16,1.76-1.89.1.32.39.54.64.79,1.26,1.26,2.52,2.51,3.77,3.78.65.66,1.38,1.14,2.31,1.29h1.56c.97-.13,1.7-.65,2.38-1.35,2.2-2.25,4.41-4.48,6.67-6.67.97-.94,1.54-1.98,1.37-3.35ZM80.22,90c0,.64-.17,1.09-.64,1.52-.99.93-1.96,1.9-2.89,2.89-.37.39-.58.43-.97.02-1.37-1.43-2.79-2.82-4.19-4.21-1.91-1.9-3.86-1.9-5.77,0-1.41,1.4-2.82,2.79-4.19,4.21-.38.4-.59.4-.97,0-1.37-1.43-2.79-2.82-4.19-4.22-1.91-1.9-3.84-1.89-5.76.03-1.4,1.4-2.81,2.79-4.19,4.22-.34.35-.54.38-.9,0-1.4-1.45-2.83-2.86-4.26-4.28-1.87-1.85-3.84-1.85-5.7,0-1.43,1.42-2.86,2.84-4.27,4.28-.35.37-.56.36-.9,0-.92-.97-1.85-1.92-2.83-2.83-.54-.5-.75-1.03-.75-1.77.02-17,.02-34.01.02-51.01,0-7.25,0-14.5-.02-21.75,0-.67.18-1.15.67-1.61.98-.91,1.92-1.85,2.83-2.82.4-.43.62-.46,1.04-.02,1.37,1.43,2.78,2.82,4.19,4.21,1.87,1.85,3.84,1.85,5.7,0,1.43-1.42,2.86-2.84,4.26-4.28.35-.36.55-.36.9,0,1.26,1.31,2.56,2.59,3.85,3.87,2.41,2.42,4.09,2.41,6.52-.03,1.26-1.27,2.54-2.51,3.78-3.8.38-.39.58-.42.97-.01,1.4,1.45,2.83,2.86,4.26,4.28,1.82,1.8,3.81,1.8,5.63,0,1.43-1.42,2.87-2.83,4.27-4.28.39-.4.65-.45.96.01.04.05.09.09.14.14,1.12,1.13,2.67,2.08,3.24,3.44.57,1.36.15,3.13.16,4.72,0,10.86,0,21.72,0,32.58,0,12.16,0,24.32.01,36.48Z"/>
        <path class="cls-1" d="M80.2,20.95c0-1.59.41-3.36-.16-4.72-.57-1.36-2.12-2.31-3.24-3.44-.04-.05-.1-.09-.14-.14-.32-.46-.58-.41-.96-.01-1.4,1.45-2.83,2.87-4.27,4.28-1.82,1.8-3.81,1.8-5.63,0-1.43-1.42-2.87-2.83-4.26-4.28-.39-.41-.6-.38-.97.01-1.24,1.29-2.51,2.54-3.78,3.8-2.44,2.44-4.11,2.45-6.52.03-1.29-1.29-2.58-2.56-3.85-3.87-.35-.36-.55-.37-.9,0-1.4,1.45-2.83,2.86-4.26,4.28-1.86,1.85-3.84,1.84-5.7,0-1.41-1.39-2.82-2.78-4.19-4.21-.42-.44-.64-.41-1.04.02-.91.97-1.85,1.92-2.83,2.82-.49.46-.67.93-.67,1.61.03,7.25.02,14.5.02,21.75,0,17,0,34.01-.02,51.01,0,.74.2,1.27.75,1.77.98.9,1.91,1.86,2.83,2.83.34.36.55.37.9,0,1.4-1.45,2.83-2.86,4.27-4.28,1.87-1.85,3.84-1.85,5.7,0,1.43,1.42,2.86,2.84,4.26,4.28.36.37.56.34.9,0,1.38-1.42,2.79-2.82,4.19-4.22,1.92-1.92,3.85-1.93,5.76-.03,1.41,1.4,2.82,2.79,4.19,4.22.38.4.59.4.97,0,1.38-1.43,2.79-2.82,4.19-4.21,1.91-1.9,3.86-1.9,5.77,0,1.4,1.4,2.82,2.79,4.19,4.21.39.41.6.38.97-.02.93-.99,1.9-1.96,2.89-2.89.46-.43.64-.89.64-1.52-.02-12.16-.01-24.32-.01-36.48,0-10.86,0-21.72,0-32.58ZM32.48,29.73c.6-1.53,1.81-2.28,3.41-2.29,6.17-.03,12.33-.04,18.5,0,2.12.02,3.62,1.57,3.63,3.54,0,2.01-1.52,3.54-3.7,3.57-3.08.04-6.17.01-9.25.01s-6.04.03-9.05,0c-2.75-.04-4.47-2.43-3.53-4.83ZM36.07,42.45c3.08-.03,6.17,0,9.25,0h8.28c5.74,0,11.49,0,17.23,0,2.48,0,4.06,1.54,3.96,3.79-.07,1.54-1.15,2.86-2.65,3.21-.47.11-.96.15-1.45.15-11.46,0-22.92,0-34.37,0-2.44,0-4.03-1.38-4.07-3.5-.03-2.12,1.51-3.63,3.82-3.65ZM61.83,64.48c-.47.1-.97.13-1.45.13-3.99,0-7.99,0-11.98,0s-8.18.02-12.27,0c-2.41-.01-3.97-1.56-3.87-3.78.07-1.54,1.14-2.87,2.65-3.21.47-.11.96-.15,1.45-.15,8.05,0,16.1,0,24.15,0,2.16,0,3.53.95,3.98,2.72.49,1.93-.7,3.88-2.65,4.29ZM72.2,79.47c-.53.13-1.09.16-1.64.16-5.68.01-11.36,0-17.04,0s-11.55,0-17.33,0c-2.27,0-3.83-1.35-3.92-3.33-.09-1.9,1.1-3.4,2.98-3.72.44-.08.9-.09,1.36-.09,11.3,0,22.59,0,33.88,0,.59,0,1.17.02,1.74.16,1.54.4,2.6,1.83,2.58,3.47-.02,1.59-1.09,2.99-2.61,3.34Z"/>
        <path class="cls-3" d="M74.8,46.23c-.07,1.54-1.15,2.86-2.65,3.21-.47.11-.96.15-1.45.15-11.46,0-22.92,0-34.37,0-2.44,0-4.03-1.38-4.07-3.5-.03-2.12,1.51-3.63,3.82-3.65,3.08-.03,6.17,0,9.25,0h8.28c5.74,0,11.49,0,17.23,0,2.48,0,4.06,1.54,3.96,3.79Z"/>
        <path class="cls-3" d="M74.8,76.13c-.02,1.59-1.09,2.99-2.61,3.34-.53.13-1.09.16-1.64.16-5.68.01-11.36,0-17.04,0s-11.55,0-17.33,0c-2.27,0-3.83-1.35-3.92-3.33-.09-1.9,1.1-3.4,2.98-3.72.44-.08.9-.09,1.36-.09,11.3,0,22.59,0,33.88,0,.59,0,1.17.02,1.74.16,1.54.4,2.6,1.83,2.58,3.47Z"/>
        <path class="cls-3" d="M61.83,64.48c-.47.1-.97.13-1.45.13-3.99,0-7.99,0-11.98,0s-8.18.02-12.27,0c-2.41-.01-3.97-1.56-3.87-3.78.07-1.54,1.14-2.87,2.65-3.21.47-.11.96-.15,1.45-.15,8.05,0,16.1,0,24.15,0,2.16,0,3.53.95,3.98,2.72.49,1.93-.7,3.88-2.65,4.29Z"/>
        <path class="cls-3" d="M58.02,30.98c0,2.01-1.52,3.54-3.7,3.57-3.08.04-6.17.01-9.25.01s-6.04.03-9.05,0c-2.75-.04-4.47-2.43-3.53-4.83.6-1.53,1.81-2.28,3.41-2.29,6.17-.03,12.33-.04,18.5,0,2.12.02,3.62,1.57,3.63,3.54Z"/>
      </g>
    </g>
  </g>
</svg>