<?xml version="1.0" encoding="UTF-8"?>
<svg xmlns="http://www.w3.org/2000/svg" version="1.1" viewBox="0 0 140.1 140.1">
  <defs>
    <style>
      .cls-1 {
        fill: none;
      }

      .cls-2 {
        fill: #131956;
      }

      .cls-3 {
        fill: #ee6126;
      }
    </style>
  </defs>
  <!-- Generator: Adobe Illustrator 28.6.0, SVG Export Plug-In . SVG Version: 1.2.0 Build 709)  -->
  <g>
    <g id="Camada_1">
      <g>
        <path class="cls-3" d="M135.21,53.66c0-2.51-.65-4.77-2.32-6.7-2.11-2.45-4.79-3.83-8.04-4.08-2.32-.17-4.34,1.35-4.77,3.67-.36,1.96,1.1,4.11,3.2,4.71.5.13,1.01.19,1.5.32,1.25.36,1.83,1.05,1.98,2.34.07.54.04,1.1.04,1.65v48.02c0,.54.02,1.1-.02,1.65-.43,5.05-6.13,8.06-10.53,5.55-2.6-1.5-3.68-3.8-3.68-6.77.02-23.51.02-47,.02-70.49,0-1.46-.09-2.88-.3-4.32-.77-5.11-5.33-9.16-10.49-9.16-28.93-.02-57.88,0-86.83,0-1.46,0-2.84.32-4.15,1.01-3.52,1.81-5.67,4.6-5.93,8.64v80.79c.32.99.15,2.08.64,3.07,2.09,4.26,5.4,6.56,10.25,6.45h104.19c8.17.6,15.3-7.01,15.28-14.4-.07-17.32-.04-34.63-.02-51.95ZM106.07,112.11H16.71c-1.07,0-2.13.04-3.01-.75-.82-.75-1.01-1.7-.99-2.77V32.14c0-3.1.92-4.04,3.98-4.04h83.52c3.14,0,4.08.94,4.08,4.1,0,23.62.02,47.24-.02,70.86,0,3.01.34,5.91,1.78,8.58.06.11.02.24.02.47Z"/>
        <path class="cls-1" d="M106.05,111.64c-1.44-2.67-1.78-5.57-1.78-8.58.04-23.62.02-47.24.02-70.86,0-3.16-.94-4.1-4.08-4.1H16.69c-3.07,0-3.98.94-3.98,4.04v76.45c-.02,1.07.17,2.02.99,2.77.88.79,1.95.75,3.01.75h89.36c0-.22.04-.36-.02-.47ZM29.56,53.22c.62-.22,1.25-.19,1.89-.19,3.25,0,6.53-.06,9.78.02,1.05.02,1.25-.32,1.25-1.27-.06-3.55-.06-7.13.02-10.68.02-1.68,1.23-3.1,2.81-3.5,1.66-.43,3.38.24,4.32,1.66.5.79.6,1.66.6,2.56-.02,2.45-.02,4.9-.02,7.37,0,1.46.02,2.9.02,4.36,0,1.08-.02,2.17-.04,3.25-.04,2.39-1.5,3.93-3.87,3.96-5.22.04-10.42.04-15.63-.02-2.02-.02-3.5-1.4-3.74-3.29-.26-1.93.8-3.63,2.62-4.25ZM31.06,72.46c.36-.06.75-.06,1.12-.06h53.39c2.56,0,4.3,1.38,4.49,3.52.21,2.36-1.48,4.23-3.95,4.3-2.11.06-4.25.02-6.36.02h-47.65c-2.71,0-4.51-1.63-4.47-3.96.02-1.95,1.44-3.52,3.42-3.82ZM86.62,99.58c-1.42.09-2.88.04-4.32.04h-23.38c-9.03,0-18.05.02-27.06,0-2.79,0-4.56-1.98-4.15-4.54.28-1.65,1.55-2.92,3.22-3.14.58-.07,1.18-.07,1.76-.07,17.47-.02,34.92-.02,52.36,0,.6,0,1.2,0,1.78.07,1.91.26,3.29,1.95,3.25,3.91-.04,1.95-1.51,3.61-3.46,3.74ZM87.57,60.53c-.34.13-.73.22-1.1.22-8.3,0-16.61.04-24.91-.02-1.89-.02-3.33-1.55-3.52-3.39-.21-1.87.88-3.53,2.66-4.13.62-.21,1.25-.19,1.87-.19h11.45v.02c4.11,0,8.21-.04,12.32.02,1.93.02,3.42,1.4,3.7,3.2.28,1.85-.71,3.59-2.47,4.26Z"/>
        <path class="cls-2" d="M90.06,75.92c.21,2.36-1.48,4.23-3.95,4.3-2.11.06-4.25.02-6.36.02h-47.65c-2.71,0-4.51-1.63-4.47-3.96.02-1.95,1.44-3.52,3.42-3.82.36-.06.75-.06,1.12-.06h53.39c2.56,0,4.3,1.38,4.49,3.52Z"/>
        <path class="cls-2" d="M90.08,95.84c-.04,1.95-1.51,3.61-3.46,3.74-1.42.09-2.88.04-4.32.04h-23.38c-9.03,0-18.05.02-27.06,0-2.79,0-4.56-1.98-4.15-4.54.28-1.65,1.55-2.92,3.22-3.14.58-.07,1.18-.07,1.76-.07,17.47-.02,34.92-.02,52.36,0,.6,0,1.2,0,1.78.07,1.91.26,3.29,1.95,3.25,3.91Z"/>
        <path class="cls-2" d="M50.21,49.19c0,1.46.02,2.9.02,4.36,0,1.08-.02,2.17-.04,3.25-.04,2.39-1.5,3.93-3.87,3.96-5.22.04-10.42.04-15.63-.02-2.02-.02-3.5-1.4-3.74-3.29-.26-1.93.8-3.63,2.62-4.25.62-.22,1.25-.19,1.89-.19,3.25,0,6.53-.06,9.78.02,1.05.02,1.25-.32,1.25-1.27-.06-3.55-.06-7.13.02-10.68.02-1.68,1.23-3.1,2.81-3.5,1.66-.43,3.38.24,4.32,1.66.5.79.6,1.66.6,2.56-.02,2.45-.02,4.9-.02,7.37Z"/>
        <path class="cls-2" d="M87.57,60.53c-.34.13-.73.22-1.1.22-8.3,0-16.61.04-24.91-.02-1.89-.02-3.33-1.55-3.52-3.39-.21-1.87.88-3.53,2.66-4.13.62-.21,1.25-.19,1.87-.19h11.45v.02c4.11,0,8.21-.04,12.32.02,1.93.02,3.42,1.4,3.7,3.2.28,1.85-.71,3.59-2.47,4.26Z"/>
      </g>
    </g>
  </g>
</svg>