<?xml version="1.0" encoding="UTF-8"?>
<svg xmlns="http://www.w3.org/2000/svg" version="1.1" viewBox="0 0 106.97 106.97">
  <defs>
    <style>
      .cls-1 {
        fill: none;
      }

      .cls-2 {
        fill: #131956;
      }

      .cls-3 {
        fill: #ee6126;
      }
    </style>
  </defs>
  <!-- Generator: Adobe Illustrator 28.6.0, SVG Export Plug-In . SVG Version: 1.2.0 Build 709)  -->
  <g>
    <g id="Camada_1">
      <g>
        <g>
          <path class="cls-3" d="M33.61,54.17c.07.08.02.19.04.28v.21s0,.09-.04.13c.09-.02.07-.09.06-.15,0-.05,0-.1,0-.15,0-.11.05-.23-.07-.31ZM33.67,52.46c0-.05,0-.11,0-.16,0-.06.03-.13-.06-.15.05.04.04.09.04.15v.18c-.02.1.03.2-.04.29.11-.08.07-.21.07-.31ZM52.49,33.64h-.18c-.05,0-.11,0-.16-.04.02.09.09.07.15.07h.16c.11,0,.23.05.31-.07-.09.07-.19.02-.29.04ZM54.66,33.64h-.21c-.09-.02-.2.03-.28-.04.08.11.2.07.31.07.05,0,.1,0,.15,0,.06,0,.14.04.15-.06-.04.04-.08.04-.13.04Z"/>
          <path class="cls-3" d="M52.78,33.6c-.08.11-.21.07-.31.07-.02,0-.02-.02-.02-.03,0,0,0-.02,0-.02,0-.02.02-.02.02-.02h.31Z"/>
          <path class="cls-3" d="M54.51,33.64h0s-.02.03-.02.03c-.11,0-.24.05-.31-.07h.31s.03.02.03.04Z"/>
          <path class="cls-3" d="M33.61,52.77v-.31s.02-.03.04-.02c0,0,.02,0,.03.02,0,.11.05.23-.07.31Z"/>
          <path class="cls-3" d="M33.67,54.48s-.02.02-.03.02c-.02,0-.03,0-.04-.03v-.31c.11.08.07.2.07.31Z"/>
          <path class="cls-3" d="M52.33,33.64h0s-.02.03-.03.03c-.06,0-.13.02-.15-.07h.16s.03.02.02.04Z"/>
          <path class="cls-3" d="M52.46,33.6v.07h-.16s0-.02,0-.03v-.04h.15Z"/>
          <path class="cls-3" d="M54.66,33.64s-.02.02-.02.02c-.05,0-.11,0-.15,0,0-.02,0-.02,0-.03v-.04h.15s.04.02.03.04Z"/>
          <path class="cls-3" d="M54.79,33.6c-.02.1-.09.07-.15.06v-.02s0-.03,0-.04h.16Z"/>
          <path class="cls-3" d="M33.67,52.3s-.02.03-.02.03c-.02,0-.03,0-.04-.02v-.15c.09.02.07.08.06.15Z"/>
          <path class="cls-3" d="M33.67,52.46h-.07v-.15h.04s.02,0,.02,0c0,.05,0,.11,0,.16Z"/>
          <path class="cls-3" d="M33.67,54.48c0,.05,0,.1,0,.15,0,.02-.02.02-.02.02-.02,0-.03,0-.04-.02v-.16h.04s.02,0,.03,0Z"/>
          <path class="cls-3" d="M33.61,54.79v-.15h.06c0,.06.03.14-.06.15Z"/>
        </g>
        <path class="cls-3" d="M103.43,48.93c-.05-2.3-.98-4.26-2.64-5.9-1.76-1.75-4.02-2.28-6.36-2.63-3.12-.47-3.11-.47-4.31-3.41-.2-.49-.18-.83.13-1.24.78-1.03,1.54-2.09,2.28-3.16,2.62-3.77,2.46-7.94-.6-11.34-1.94-2.15-3.99-4.21-6.14-6.14-3.5-3.16-7.63-3.3-11.49-.59-1.06.75-2.12,1.5-3.17,2.27-.32.24-.6.3-.96.13-.92-.4-1.85-.79-2.79-1.15-.37-.15-.56-.35-.62-.76-.18-1.22-.4-2.44-.6-3.66-.63-4.11-3.19-6.85-7.2-7.7-.31-.17-.7.07-1-.16h-9.18c-.37.21-.77.05-1.16.1h0c-2.79.24-4.73,1.76-6.17,4.06-1.06,1.71-1.28,3.67-1.61,5.58-.44,2.49-.44,2.48-2.8,3.35-.61.23-1.12.18-1.64-.21-.99-.75-1.99-1.46-3.01-2.16-3.22-2.24-7.59-2.33-10.51,0-2.95,2.36-5.71,4.98-7.96,8.01-2.16,2.9-2.3,6.14-.59,9.38.58,1.1,1.25,2.17,2.09,3.06,1.31,1.41,1.23,2.76.34,4.32-.34.59-.66.95-1.35,1.06-1.54.24-3.09.43-4.61.84-3.53.98-6.2,4.26-6.22,7.07v.02c-.05.33.11.68-.1.99v9.37c.23.31,0,.69.17,1.01.32,1.77,1.12,3.29,2.38,4.59,1.8,1.88,4.14,2.44,6.59,2.8,3.19.47,3.17.48,4.39,3.48.18.47.13.76-.15,1.14-.78,1.04-1.54,2.1-2.28,3.16-2.61,3.74-2.41,7.98.66,11.34,1.93,2.11,3.96,4.14,6.07,6.07,3.46,3.16,7.64,3.35,11.48.65,1.06-.75,2.12-1.51,3.18-2.25.66-.46,3.74.55,3.98,1.29.03.09.03.19.05.29.21,1.25.42,2.5.61,3.75.71,4.66,4.2,7.74,8.9,7.79,2.67.03,5.34.02,8.01,0,2.71-.02,5-1.05,6.78-3.09,1.48-1.69,2.1-3.77,2.22-5.92.12-2.36.99-3.86,3.41-4.35.51-.1.86-.18,1.31.15,1.17.88,2.35,1.74,3.58,2.54,3.5,2.27,7.48,2.06,10.63-.67,2.4-2.09,4.64-4.37,6.75-6.75,2.01-2.25,2.53-4.93,1.86-7.82-.4-1.72-1.47-3.09-2.48-4.49-1.84-2.56-1.82-2.57-.49-5.46.19-.41.42-.58.86-.64,1.25-.18,2.51-.4,3.75-.6,4.54-.76,7.58-3.98,7.75-8.43.11-2.99.07-5.98,0-8.98ZM97.6,57.33c-.02,1.82-.95,2.87-2.77,3.19-1.89.33-3.77.66-5.67.96-1.45.22-2.47.92-2.95,2.34-.63,1.88-1.4,3.7-2.28,5.48-.63,1.3-.47,2.51.37,3.66,1.12,1.55,2.23,3.12,3.33,4.69,1.18,1.67,1.07,2.99-.35,4.43-1.76,1.78-3.54,3.55-5.32,5.32-1.34,1.32-2.64,1.44-4.19.35-1.55-1.08-3.09-2.16-4.6-3.29-1.31-.98-2.63-1.17-4.1-.41-1.61.83-3.3,1.51-5.03,2.08-1.55.5-2.37,1.57-2.6,3.19-.26,1.87-.62,3.72-.95,5.58-.32,1.8-1.38,2.72-3.22,2.73-2.57.02-5.14.02-7.72,0-1.78-.02-2.83-.92-3.15-2.69-.34-1.89-.67-3.78-.96-5.68-.22-1.53-.98-2.58-2.46-3.07-1.76-.58-3.47-1.29-5.13-2.11-1.33-.65-2.57-.48-3.75.37-1.56,1.12-3.12,2.23-4.68,3.34-1.73,1.22-2.98,1.12-4.49-.39-1.68-1.68-3.36-3.36-5.04-5.04-1.6-1.6-1.7-2.87-.35-4.74,1.04-1.45,2.07-2.91,3.13-4.35.9-1.21,1.06-2.47.38-3.84-.86-1.71-1.61-3.47-2.22-5.29-.5-1.48-1.57-2.22-3.09-2.45-1.89-.29-3.78-.63-5.67-.96-1.86-.34-2.75-1.4-2.76-3.3-.02-2.51-.02-5.01,0-7.52,0-1.89.92-2.94,2.78-3.27,1.89-.33,3.78-.66,5.67-.96,1.41-.23,2.4-.96,2.86-2.32.63-1.88,1.38-3.71,2.23-5.49.62-1.29.48-2.51-.35-3.67-1.15-1.57-2.28-3.17-3.39-4.76-1.18-1.69-1.08-2.96.38-4.43,1.76-1.78,3.55-3.55,5.33-5.31,1.31-1.29,2.67-1.41,4.19-.34,1.54,1.08,3.09,2.17,4.59,3.31,1.27.96,2.57,1.13,4,.4,1.68-.86,3.42-1.59,5.2-2.19,1.49-.5,2.23-1.55,2.46-3.08.29-1.93.63-3.84.97-5.77.31-1.71,1.42-2.65,3.19-2.67,2.57-.02,5.14-.02,7.72,0,1.79.02,2.84.92,3.16,2.68.34,1.89.66,3.77.96,5.67.23,1.48.97,2.51,2.43,2.99,1.91.64,3.77,1.4,5.57,2.31,1.31.66,2.56.5,3.75-.36,1.58-1.15,3.17-2.28,4.77-3.39,1.61-1.12,2.86-1.01,4.26.37,1.77,1.76,3.55,3.55,5.32,5.32.66.66,1.14,1.41,1.07,2.49.03.68-.34,1.28-.76,1.87-1.07,1.51-2.12,3.03-3.23,4.52-.94,1.27-1.14,2.56-.4,4,.84,1.65,1.54,3.36,2.12,5.13.5,1.51,1.55,2.32,3.12,2.54,1.89.28,3.78.63,5.67.96,1.73.31,2.63,1.34,2.64,3.08.02,2.61.02,5.21,0,7.81Z"/>
        <path class="cls-2" d="M73.34,52.08c-.05-2.15-.58-4.19-1.39-6.17-1.25-3.07-3.16-5.68-5.72-7.8-2.71-2.25-5.81-3.68-9.29-4.31-.66-.12-1.33-.11-1.99-.2h-.15c-.02.1-.09.07-.15.06-.05,0-.11,0-.15,0-.11,0-.24.05-.31-.07h-1.4c-.08.11-.21.07-.31.07h-.16c-.06,0-.13.02-.15-.07h-.23c-.4.07-.82.04-1.22.09-2.56.34-4.94,1.2-7.18,2.47-2.09,1.18-3.87,2.71-5.4,4.55-2.25,2.71-3.69,5.81-4.31,9.28-.11.61-.11,1.23-.2,1.84v.31c.09.02.07.08.06.15,0,.05,0,.11,0,.16,0,.11.05.23-.07.31v1.4c.11.08.07.2.07.31,0,.05,0,.1,0,.15,0,.06.03.14-.06.15v.31c.08.37.04.76.09,1.15.21,1.65.65,3.25,1.29,4.78,1.27,3.06,3.18,5.67,5.72,7.8,1.67,1.4,3.54,2.48,5.57,3.26,1.89.73,3.84,1.19,5.88,1.25,2.14.07,4.26.02,6.35-.54,3.93-1.06,7.27-3.1,9.96-6.15,2.35-2.66,3.87-5.76,4.58-9.24.37-1.76.34-3.54.29-5.33ZM53.47,67.07c-7.48-.02-13.63-6.2-13.57-13.62.06-7.51,6.24-13.65,13.65-13.55,7.5.11,13.5,6.13,13.52,13.58.02,7.45-6.15,13.61-13.6,13.59Z"/>
        <path class="cls-3" d="M52.89,53.55c.04-.05.05-.11.02-.17h1.17c-.36.29-.78.23-1.19.17Z"/>
        <path class="cls-3" d="M53.99,53.54c-.35.06-.71.11-1-.16h.98c.02.05.03.11.03.16Z"/>
        <path class="cls-3" d="M53.38,53.02s.1-.06.16-.03c.06.35.11.7-.16,1v-.98Z"/>
        <path class="cls-3" d="M53.38,52.98c.28.3.22.65.16,1l-.09.02-.08-.04v-.98Z"/>
        <path class="cls-1" d="M53.55,39.91c-7.4-.1-13.58,6.04-13.65,13.55-.06,7.43,6.09,13.6,13.57,13.62,7.45.02,13.61-6.14,13.6-13.59-.02-7.45-6.02-13.47-13.52-13.58ZM61.76,55.65c-1.96,0-3.93,0-5.9,0-.31,0-.41.06-.4.39.02,1.04,0,2.07,0,3.32-.03.93.07,2.09-.04,3.23-.11,1.02-.96,1.76-1.97,1.77-1.02,0-1.87-.73-2.02-1.73-.05-.34-.04-.67-.04-1.01,0-1.87,0-3.74,0-5.62,0-.28-.06-.37-.36-.36-1.96,0-3.93.02-5.9,0-1.59-.02-2.51-1.71-1.69-3.06.4-.67,1.03-.98,1.82-.98,1.91,0,3.83,0,5.74,0,.3,0,.39-.05.39-.37-.02-1.8-.02-3.59,0-5.39,0-1.14.66-1.99,1.67-2.17,1.32-.23,2.39.72,2.41,2.15,0,1.8,0,3.6,0,5.39,0,.34.1.4.41.4,2-.02,4-.03,6.01,0,1.58.02,2.51,1.71,1.7,3.06-.4.67-1.03.98-1.82.98Z"/>
        <path class="cls-3" d="M63.58,54.67c-.4.67-1.03.98-1.82.98-1.96,0-3.93,0-5.9,0-.31,0-.41.06-.4.39.02,1.04,0,2.07,0,3.32-.03.93.07,2.09-.04,3.23-.11,1.02-.96,1.76-1.97,1.77-1.02,0-1.87-.73-2.02-1.73-.05-.34-.04-.67-.04-1.01,0-1.87,0-3.74,0-5.62,0-.28-.06-.37-.36-.36-1.96,0-3.93.02-5.9,0-1.59-.02-2.51-1.71-1.69-3.06.4-.67,1.03-.98,1.82-.98,1.91,0,3.83,0,5.74,0,.3,0,.39-.05.39-.37-.02-1.8-.02-3.59,0-5.39,0-1.14.66-1.99,1.67-2.17,1.32-.23,2.39.72,2.41,2.15,0,1.8,0,3.6,0,5.39,0,.34.1.4.41.4,2-.02,4-.03,6.01,0,1.58.02,2.51,1.71,1.7,3.06Z"/>
      </g>
    </g>
  </g>
</svg>