<?xml version="1.0" encoding="UTF-8"?>
<svg xmlns="http://www.w3.org/2000/svg" version="1.1" viewBox="0 0 106.97 106.97">
  <defs>
    <style>
      .cls-1 {
        fill: #e96128;
        stroke: #e96128;
        stroke-miterlimit: 10;
        stroke-width: 1.08px;
      }

      .cls-2 {
        fill: #131956;
      }
    </style>
  </defs>
  <!-- Generator: Adobe Illustrator 28.6.0, SVG Export Plug-In . SVG Version: 1.2.0 Build 709)  -->
  <g>
    <g id="Camada_1">
      <g>
        <path class="cls-1" d="M98.99,51.92c-3.62-2.75-8.51-2.58-11.93.48-3.69,3.3-7.32,6.66-10.98,9.99-.29.26-.49.67-.97.09-1.81-2.2-4.18-3.2-7.02-3.18-3.81.02-7.62,0-11.43,0-1.71,0-3.38-.21-4.98-.8-2.33-.86-4.73-1.44-7.2-1.61-5.28-.37-10.13.68-14.26,4.25-3.55,3.06-7.18,6.03-10.77,9.03-.33.28-.58.58-1.17.33-2.11-.89-3.99-.47-5.61,1.17-1.6,1.62-3.22,3.23-4.83,4.84-2.5,2.51-2.49,5.23.03,7.75,5.43,5.44,10.87,10.86,16.29,16.31,1.17,1.17,2.31,2.35,3.92,2.91h1.76c.91-.32,1.84-.59,2.55-1.3,1.93-1.93,3.91-3.83,5.78-5.82,1.61-1.71,1.73-4.26.27-6.08-.59-.74-.45-1.09.18-1.58.36-.28.64-.64.98-.95,2.41-2.14,5.22-3.3,8.46-3.12,7.57.41,15.08-.04,22.53-1.48,3.31-.64,6.46-1.63,8.9-4.05,6.73-6.66,13.43-13.36,20.1-20.08,2.07-2.09,1.72-5.33-.62-7.1ZM97.08,57.18c-6.37,6.38-12.76,12.74-19.11,19.15-2.42,2.44-5.48,3.33-8.73,3.92-7.05,1.29-14.13,1.61-21.28,1.27-4.46-.21-8.22,1.61-11.33,4.78-.99,1.01-1,1.01-1.98.03-4.29-4.32-8.57-8.65-12.88-12.95-.49-.49-.5-.7.05-1.15,3.47-2.85,6.95-5.69,10.34-8.63,3.57-3.1,7.74-3.92,12.27-3.56,2.15.17,4.22.7,6.25,1.44,1.88.68,3.84.97,5.84.97,4.03,0,8.07-.04,12.11.03,2.84.04,5.17,2.3,5.39,5.06.13,1.66-.5,2.36-2.17,2.36-8.76,0-17.51,0-26.27,0-.26,0-.52-.01-.78,0-.88.06-1.47.66-1.5,1.49-.03.88.56,1.53,1.48,1.61.45.04.91.01,1.37.01h25.48c3.93,0,6.08-2.51,5.42-6.39-.09-.55-.02-.88.39-1.25,3.86-3.49,7.69-7.02,11.56-10.51,2.28-2.06,5.32-2.3,7.72-.7,1.35.9,1.48,1.9.35,3.03Z"/>
        <path class="cls-2" d="M87.78,24.8c.01,1.31-.56,1.91-1.88,1.91-6.48,0-12.95,0-19.43,0-1.35,0-1.89-.54-1.89-1.89,0-3.26,0-6.51,0-9.77s0-6.38,0-9.57c0-1.52.54-2.02,2.08-2,11.43.15,21.01,9.81,21.13,21.31Z"/>
        <path class="cls-2" d="M79.26,29.97c-5.66,0-11.33-.01-16.99.02-.73,0-1-.14-.98-.95.05-2.9.02-5.79.02-8.69s0-5.79,0-8.69c0-1.23-.57-1.79-1.79-1.78-.94,0-1.88.08-2.82.2-12.2,1.59-20.81,13.85-18.15,25.84,2.56,11.5,12.94,18.66,24.64,16.99,10.03-1.43,18.07-10.57,18.23-20.72.03-1.75-.42-2.22-2.15-2.22ZM78.14,34.03c-1.11,9.2-9.73,16.49-18.97,16.01-9.12-.47-16.15-6.68-17.73-15.64-1.73-9.82,5.5-19.79,15.36-21.18q1.39-.2,1.39,1.16v8.2c0,2.83,0,5.67,0,8.5,0,1.46.54,2.01,2.01,2.01,5.7,0,11.39.02,17.09-.01.76,0,.95.13.85.95Z"/>
      </g>
    </g>
  </g>
</svg>