<?xml version="1.0" encoding="UTF-8"?>
<svg xmlns="http://www.w3.org/2000/svg" version="1.1" viewBox="0 0 159.34 159.34">
  <defs>
    <style>
      .cls-1 {
        fill: none;
      }

      .cls-2 {
        fill: #131956;
      }

      .cls-3 {
        fill: #ee6126;
      }
    </style>
  </defs>
  <!-- Generator: Adobe Illustrator 28.6.0, SVG Export Plug-In . SVG Version: 1.2.0 Build 709)  -->
  <g>
    <g id="Camada_1">
      <g>
        <g>
          <path class="cls-3" d="M154.78,107.53c-2.11-.7-2.12-.7-2.12-2.93,0-8.03-.01-16.07.01-24.1.01-1.62-.45-2.92-1.61-4.08-4.78-4.78-9.88-9.25-14.68-14.02-1.35-1.34-2.99-1.89-4.93-1.87-5.64.07-11.29.03-16.92.03-4.3,0-5.18.88-5.18,5.16-.01,12.98,0,25.97,0,38.95,0,.54.01,1.08-.04,1.61-.05.47-.22.81-.74.97-2.24.69-3.31-.07-3.33-2.39V37.41c0-.8.03-1.57-.04-2.35-.2-2.46-2.26-5.56-5.7-5.38-.05,0-.12.01-.18.01H13.74c-.08,0-.16.01-.24.01-2.92.18-4.7,1.68-5.42,4.54-.31,1.2-.32,2.42-.32,3.65v67.2c0,2.11-.01,2.14-2.04,2.24-1.08.07-1.58.42-1.53,1.61.08,2.24.03,4.5.03,6.76,0,1.78.08,1.88,1.93,1.91,2.69.03,5.39.04,8.1-.01,1.24-.03,1.97.41,2.41,1.64.64,1.74,1.51,3.38,2.7,4.85,6.12,7.54,18.33,7.34,24.17-.01.91-1.15.99-1.11,1.93.03,4.37,5.19,10.71,6.64,16.94,4.81,4.93-1.46,8.2-4.88,9.89-9.72.41-1.16,1.03-1.59,2.26-1.59,13.1.03,26.21.03,39.31,0,1.35,0,1.95.49,2.45,1.76,3.28,8.45,10.98,11.88,19.42,9.6,4.97-1.34,8.23-4.84,10.02-9.61.51-1.37,1.23-1.81,2.6-1.74,1.66.08,3.34.03,5,.01.64,0,1.3.04,1.82-.42v-9.42c-.12-.08-.23-.19-.38-.24ZM31.33,121.56c-4.03-.04-7.34-3.37-7.37-7.42-.03-4.1,3.35-7.52,7.43-7.5,4.08,0,7.46,3.39,7.45,7.49-.01,4.1-3.45,7.49-7.52,7.43ZM57.52,121.56c-4.05,0-7.52-3.49-7.47-7.52.04-4,3.42-7.38,7.42-7.42,4.04-.04,7.53,3.39,7.54,7.45.01,4.04-3.45,7.5-7.49,7.49ZM96.22,89.32c0,1.72-1.39,3.11-3.12,3.11H20.49c-1.72,0-3.11-1.39-3.11-3.11v-44.94c0-1.72,1.39-3.11,3.11-3.11h72.61c1.73,0,3.12,1.39,3.12,3.11v44.94ZM131.04,121.56c-4.03.01-7.39-3.3-7.45-7.33-.07-4.12,3.2-7.52,7.31-7.6,4.07-.08,7.5,3.28,7.54,7.39.03,4.11-3.33,7.52-7.41,7.53ZM141.56,85.55c-.77.72-2.34.19-3.56.2-2.65.03-5.3.01-7.95.01-3.47,0-6.96-.04-10.45.01-.93.01-1.24-.2-1.24-1.2.07-4.41.05-8.81.01-13.22-.01-.97.26-1.23,1.23-1.22,3.42.05,6.85.04,10.29,0,.7,0,1.19.2,1.69.68,3.01,2.87,6.03,5.74,9.11,8.56.82.76,1.26,1.51,1.12,2.65-.14,1.2.53,2.78-.26,3.53Z"/>
          <path class="cls-1" d="M138.45,114.03c.03,4.11-3.33,7.52-7.41,7.53-4.03.01-7.39-3.3-7.45-7.33-.07-4.12,3.2-7.52,7.31-7.6,4.07-.08,7.5,3.28,7.54,7.39Z"/>
          <path class="cls-1" d="M38.84,114.13c-.01,4.1-3.45,7.49-7.52,7.43-4.03-.04-7.34-3.37-7.37-7.42-.03-4.1,3.35-7.52,7.43-7.5,4.08,0,7.46,3.39,7.45,7.49Z"/>
          <path class="cls-1" d="M65.01,114.07c.01,4.04-3.45,7.5-7.49,7.49-4.05,0-7.52-3.49-7.47-7.52.04-4,3.42-7.38,7.42-7.42,4.04-.04,7.53,3.39,7.54,7.45Z"/>
        </g>
        <path class="cls-2" d="M83.59,54.22c-.09,1.19-1.44,2.22-3.31,2.49-.59.08-1.2.12-1.81.12-14.29,0-28.59,0-42.88,0-3.04,0-5.03-1.07-5.07-2.71-.04-1.65,1.89-2.81,4.76-2.83,3.85-.02,7.69,0,11.54,0h10.33c7.17,0,14.33,0,21.5,0,3.1,0,5.07,1.19,4.94,2.94Z"/>
        <path class="cls-2" d="M83.59,68.44c-.09,1.19-1.44,2.22-3.31,2.49-.59.08-1.2.12-1.81.12-14.29,0-28.59,0-42.88,0-3.04,0-5.03-1.07-5.07-2.71-.04-1.65,1.89-2.81,4.76-2.83,3.85-.02,7.69,0,11.54,0h10.33c7.17,0,14.33,0,21.5,0,3.1,0,5.07,1.19,4.94,2.94Z"/>
        <path class="cls-2" d="M83.59,82.56c-.09,1.19-1.44,2.22-3.31,2.49-.59.08-1.2.12-1.81.12-14.29,0-28.59,0-42.88,0-3.04,0-5.03-1.07-5.07-2.71-.04-1.65,1.89-2.81,4.76-2.83,3.85-.02,7.69,0,11.54,0h10.33c7.17,0,14.33,0,21.5,0,3.1,0,5.07,1.19,4.94,2.94Z"/>
      </g>
    </g>
  </g>
</svg>