<?xml version="1.0" encoding="UTF-8"?>
<svg xmlns="http://www.w3.org/2000/svg" version="1.1" viewBox="0 0 121.4 121.4">
  <defs>
    <style>
      .cls-1, .cls-2 {
        fill: none;
      }

      .cls-2, .cls-3 {
        stroke: #e96128;
      }

      .cls-2, .cls-3, .cls-4 {
        stroke-miterlimit: 10;
        stroke-width: 1.09px;
      }

      .cls-3, .cls-5 {
        fill: #ee6126;
      }

      .cls-4 {
        fill: #131956;
        stroke: #131956;
      }
    </style>
  </defs>
  <!-- Generator: Adobe Illustrator 28.6.0, SVG Export Plug-In . SVG Version: 1.2.0 Build 709)  -->
  <g>
    <g id="Camada_1">
      <g>
        <path class="cls-4" d="M118.83,86.27c0-1.89-.64-2.54-2.51-2.54-22.06,0-44.14.01-66.21-.01-1.18,0-1.94.42-2.58,1.39-2.05,3.15-4.19,6.26-6.23,9.42-.46.71-1,1.04-1.79,1.18-5.56.99-11.13,1.97-16.68,3.01-.79.15-1.07.01-1.35-.76-1.51-4.14-3.08-8.24-4.63-12.35-.6-1.6-.99-1.87-2.65-1.87H5.9c-2.04,0-2.64.6-2.64,2.66,0,7.17.03,14.36-.03,21.54,0,1.18.26,2.1,1.24,2.76h113.17c.96-.67,1.24-1.58,1.22-2.76-.04-7.22-.01-14.45-.03-21.66ZM10.06,87.59c1.11,0,2.47-.35,3.29.17.87.53.9,2.03,1.35,3.08.07.14.1.29.19.6-2.47,0-4.79-.01-7.11.01-.53.01-.65-.15-.68-.67-.18-3.19-.19-3.21,2.96-3.19ZM115.02,105.63c.01,1-.22,1.25-1.24,1.25-17.61-.04-35.22-.03-52.83-.03s-35.07-.01-52.61.01c-.96.01-1.28-.17-1.25-1.21.07-3.16.04-6.33.01-9.51-.01-.65.12-.89.83-.87,2.57.04,5.13.03,7.7,0,.58-.01.83.19,1.03.74.65,1.85,1.33,3.68,2.04,5.51.47,1.19,1.24,1.64,2.44,1.42,6.7-1.21,13.39-2.46,20.11-3.62,1.37-.24,2.29-.92,2.83-2.11.72-1.6,1.89-1.96,3.59-1.96,22,.07,43.98.06,65.97.01,1.07,0,1.39.24,1.36,1.35-.08,3.01-.08,6.02,0,9.02ZM112.4,91.44H47.96c.83-1.24,1.57-2.28,2.22-3.36.29-.47.67-.5,1.11-.5,1.69.01,3.37.01,5.05.01,19.14,0,38.26.01,57.38-.03,1.07,0,1.32.25,1.29,1.29-.08,2.58-.03,2.58-2.62,2.58Z"/>
        <path class="cls-3" d="M111.97,67.07c1.07-.53,1.18-1.46.99-2.57-1.28-7.09-2.66-14.17-3.71-21.3-.74-5.07-2.83-9.02-7.33-11.6-.64-.36-1.21-.85-2-1.4,3.11-.56,5.94-1.03,8.74-1.58,1.94-.39,3.25-2.12,3.07-4.01-.1-.96-.26-1.92-.5-2.83-.44-1.8-1.75-2.91-3.59-3-2.04-.1-4.09-.14-6.13-.1-2.33.04-3.94,1.94-3.68,4.26.11.94.32,1.89.47,2.83.04.26.19.54-.1.78-.69.57-2.5.31-3.07-.44-2.76-3.73-5.51-7.49-8.31-11.19-2.37-3.11-5.56-4.57-9.45-4.15-2.66.29-5.3.85-7.95,1.3-11.71,2.05-23.42,4.12-35.12,6.2-4.37.78-7.33,3.26-8.65,7.54-1.39,4.48-2.69,8.96-4.04,13.45-.1.33-.08.71-.49.9-1.55.78-2.43.35-2.69-1.35-.08-.51-.15-1.04-.26-1.54-.5-2.48-2.79-3.82-5.19-2.98-1.21.43-2.39.92-3.58,1.37-4.36,1.71-4.82,2.55-3.95,7.13,0,.04.01.07.01.11.46,2.18,2.33,3.48,4.54,3.11,2.8-.47,5.59-.96,8.62-1.48-.97,1.37-1.8,2.58-2.65,3.79-1.78,2.58-2.58,5.41-2.12,8.53.36,2.41.8,4.82,1.24,7.23,1.01,5.79,2.05,11.59,3.07,17.39.17.92.57,1.67,1.51,1.76.8.08.85.53.96,1.1.29,1.69.53,3.41.93,5.08.71,2.96,3.48,4.76,6.45,4.27,2.54-.4,5.07-.83,7.58-1.3,3.23-.6,5.22-3.28,4.8-6.54-.22-1.75-.56-3.48-.89-5.2-.1-.51-.01-.71.53-.79,1.28-.18,2.53-.53,3.79-.65,2.43-.24,4.59-.97,6.38-2.69.44-.43,1.01-.6,1.62-.69,8.13-1.43,16.25-2.89,24.38-4.27,2.08-.36,4.19-1.17,6.33-.1,1.44.71,2.96.47,4.47.15,1.53-.32,3.07-.54,4.59-.85.68-.14.99-.03,1.08.76.22,1.67.56,3.32.89,4.97.62,2.97,3.47,5.01,6.41,4.54,2.65-.42,5.3-.89,7.92-1.4,3.14-.61,5.13-3.58,4.58-6.72-.28-1.57-.57-3.15-.83-4.73-.06-.39-.28-.8.33-1.1ZM104.6,22.58h1.44c1.55.03,1.72.21,1.76,1.72.01.37-.01.61-.44.68-1.5.24-2.98.47-4.47.76-.53.11-.75-.04-.8-.53,0-.04-.01-.08-.03-.12q-.61-2.57,2.54-2.51ZM14.32,41.37c-1.46.24-2.91.49-4.37.75-.36.07-.75.18-.76-.37-.03-.61-.67-1.44.06-1.82,1.48-.75,3.09-1.26,4.65-1.89.39-.15.5.06.56.37.14.78.28,1.57.42,2.36.08.43-.15.54-.54.6ZM78.9,15.43c.37-.71.72-.87,1.5-.6,1.32.47,2.44,1.19,3.28,2.3,2.53,3.37,5.02,6.76,7.54,10.14.08.12.21.24.08.5-6.95,1.24-13.95,2.47-20.98,3.72-.07-.46.22-.71.37-1,2.73-5.02,5.5-10.03,8.22-15.07ZM69.68,16.61c.28-.5.57-.78,1.17-.86,1.22-.17,2.43-.43,3.62-.65.17.4-.1.61-.22.82-2.83,5.2-5.68,10.39-8.49,15.6-.33.61-.71.96-1.43,1.04-1.15.14-2.28.4-3.69.65,1.08-1.97,2.05-3.75,3.03-5.54,2.01-3.68,4.04-7.37,6.02-11.06ZM27.8,32.06c.5-1.69.97-3.39,1.5-5.07.83-2.69,2.64-4.37,5.41-4.87,10.01-1.79,20.02-3.54,30.04-5.3.07,0,.15.01.42.03-2.62,4.82-5.34,9.48-7.73,14.32-1.12,2.25-2.58,3.15-5.04,3.54-8.42,1.3-16.81,2.9-25.2,4.39-.46.08-.93.14-1.58.24.75-2.5,1.47-4.88,2.18-7.27ZM35,88.55c-2.53.47-5.04.93-7.56,1.35-1.12.18-2.01-.5-2.25-1.67-.32-1.65-.57-3.32-.89-4.95-.11-.56.08-.68.58-.76,3.34-.56,6.69-1.15,10.03-1.76.43-.07.69-.08.78.42.31,1.8.62,3.62.92,5.36-.06,1.14-.57,1.83-1.61,2.03ZM107.22,75.8c-2.59.5-5.19.99-7.8,1.39-1.03.17-1.83-.39-2.05-1.43-.37-1.72-.62-3.47-.96-5.2-.11-.56.15-.68.62-.76,3.28-.56,6.54-1.12,9.81-1.72.65-.11.89.03.99.72.25,1.71.6,3.39.9,5.04-.08,1.03-.51,1.78-1.51,1.97ZM107.55,64.07c-2.5.32-2.48.4-2.9-2.14-.25-1.54-.51-3.08-.79-4.62-.32-1.76-1.3-2.33-3.04-1.76-3.58,1.15-7.16,2.29-10.71,3.51-2.03.69-4.14.96-6.22,1.3-.76.12-1.11.35-.83,1.14.04.11.07.24.1.35.46,2.55.44,2.47,3.05,2.07,4.55-.69,8.76-2.53,13.1-3.86.93-.28,1.18-.12,1.26.8.13,1.15.36,2.3.62,3.43.15.67-.03.87-.71.99-5.12.89-10.26,1.8-15.38,2.73-.47.1-.89-.04-1.28-.21-2.15-.9-4.29-.86-6.56-.43-8.9,1.67-17.82,3.21-26.73,4.76-.82.15-1.57.36-2.16.93-1.61,1.53-3.57,2.12-5.72,2.46-4.11.64-8.22,1.42-12.31,2.16-.8.14-1.24.06-1.35-.9-.15-1.43-.46-2.83-.76-4.61,3.03,0,5.95-.04,8.88,0,2.66.04,5.25-.61,7.85-1,.47-.07.64-.22.56-.78-.43-3.15-.42-3.16-3.51-2.6-4.2.78-8.47.51-12.71.76-1.08.06-2.16.01-3.25.1-1.48.12-2.14.99-1.9,2.46.35,2.21.72,4.43,1.15,6.62.14.65-.03.86-.65.93-.96.12-2.05.67-2.8.36-.74-.32-.53-1.62-.68-2.5-1.19-6.7-2.36-13.42-3.51-20.12-.35-2.03.14-3.91,1.28-5.61,1.53-2.25,3.14-4.45,4.65-6.72.39-.57.92-.61,1.43-.69,7.45-1.33,14.92-2.64,22.37-3.95,10.26-1.8,20.51-3.61,30.77-5.43,5.16-.9,10.32-1.82,15.49-2.75.64-.11,1.14.03,1.67.42,1.53,1.11,3.01,2.28,4.63,3.22,3.26,1.92,4.86,4.73,5.41,8.45.96,6.37,2.18,12.71,3.33,19.05.19,1.05.1,1.51-1.14,1.67ZM95.56,39.12c-7.3,2.11-14.52,4.52-22.09,5.54-3.94.51-7.85,1.17-11.25,3.46-.68.46-1.36.49-2.16.33-1.42-.25-2.84-.46-3.58-.46-2.57,0-4.37.44-6.19.72-3.91.6-7.76,1.61-11.73,1.87-4.48.29-8.96.58-13.45.89-2.43.17-4,2.14-3.62,4.54.15.92.29,1.82.5,2.72.57,2.57,2.14,4.25,4.62,5.05,1.51.49,3.07.89,4.58,1.4,1.11.37,2.05.24,3.09-.31,1.93-1,3.68-2.35,5.97-2.69,2.03-.31,3.76-.32,5.81.51,5.69,2.33,11.21,1.14,16.44-1.8.4-.22.71-.62,1.29-.44,2.6.82,5.2.61,7.84.17,4.01-.65,7.54-2.11,10.13-5.38.12-.15.28-.35.44-.37,1.8-.33,3.59-.93,5.44-.86,1.67.07,3.33.43,4.98.72.74.14,1.36.01,1.93-.42,1.58-1.17,3.18-2.32,4.7-3.54,1.67-1.33,2.43-3.16,2.4-5.27-.01-.92-.25-1.82-.39-2.73-.53-3.33-2.48-4.57-5.72-3.64ZM32.85,61.23c-.19.11-.47.24-.67.18-1.72-.5-3.5-.85-5.13-1.61-.8-.37-1.19-1.15-1.36-2.01-.15-.78-.26-1.57-.4-2.46,3.62-.25,7.2-.51,10.8-.69,1.03-.06,2.26-.61,3.01-.03.74.57.94,1.79,1.39,2.73.11.25.22.5.4.93-3.09-.01-5.52,1.57-8.03,2.96ZM79.99,48.25c-.37,4.64-2.76,7.31-7.37,8.26-3.05.64-6.09,1.05-9.12-.12-.9-.35-1.61.21-2.3.71-3.69,2.64-7.81,3.33-12.21,2.61-3.05-.5-4.65-2.58-5.62-5.31-.18-.5.04-.54.37-.6,4-.67,7.95-1.54,11.56-1.96,2.19.03,3.91.43,5.66.64.61.07,1.22.11,1.75-.26,3.94-2.79,8.59-3.33,13.17-4.09,1.1-.19,2.22-.32,3.3-.6.78-.19.86.03.8.74ZM97.1,47.54c-.15.18-.35.32-.53.49-2.21,2.11-4.64,3.39-7.81,2.23-1.68-.6-3.32.22-5.11.32.1-1.28.21-2.43.26-3.59.01-.5.32-.54.68-.65,4.02-1.17,8.03-2.35,12.06-3.54.56-.17.76-.11.8.51.04.64.24,1.26.33,1.89.14.89-.12,1.67-.69,2.35Z"/>
        <path class="cls-4" d="M11.47,63.43c-.43.72-.76,1.5-1.14,2.23-.11.19-.12.51-.43.4-.19-.08-.35-.15-.49-.22-2.11-1.04-4.2-2.11-6.33-3.15-.54-.26-.71-.49-.36-1.07.51-.85.74-2.15,1.46-2.51.53-.26,1.67.65,2.51,1.07,1.47.71,2.91,1.47,4.4,2.18.54.26.72.49.37,1.07Z"/>
        <path class="cls-4" d="M11.47,71.15c-1.3,2.78-1.29,2.79-4,1.44-1.46-.74-2.91-1.48-4.4-2.19-.56-.26-.69-.5-.35-1.07.4-.68.69-1.43,1.08-2.14.11-.21.12-.58.43-.51.25.11.39.17.54.24,2.1,1.05,4.19,2.12,6.31,3.15.54.26.65.49.37,1.08Z"/>
        <path class="cls-4" d="M11.67,78.38c-.5,1-.97,2.01-1.51,2.98-.19.35-.51.01-.74-.1-2.14-1.05-4.27-2.15-6.43-3.21-.56-.26-.53-.49-.31-1,1.29-2.83,1.28-2.83,4.07-1.44,1.43.72,2.87,1.42,4.29,2.16.24.12.67.12.62.6Z"/>
        <path class="cls-1" d="M115.02,105.63c.01,1-.22,1.25-1.24,1.25-17.61-.04-35.22-.03-52.83-.03s-35.07-.01-52.61.01c-.96.01-1.28-.17-1.25-1.21.07-3.16.04-6.33.01-9.51-.01-.65.12-.89.83-.87,2.57.04,5.13.03,7.7,0,.58-.01.83.19,1.03.74.65,1.85,1.33,3.68,2.04,5.51.47,1.19,1.24,1.64,2.44,1.42,6.7-1.21,13.39-2.46,20.11-3.62,1.37-.24,2.29-.92,2.83-2.11.72-1.6,1.89-1.96,3.59-1.96,22,.07,43.98.06,65.97.01,1.07,0,1.39.24,1.36,1.35-.08,3.01-.08,6.02,0,9.02Z"/>
        <path class="cls-1" d="M115.02,88.86c-.08,2.58-.03,2.58-2.62,2.58H47.96c.83-1.24,1.57-2.28,2.22-3.36.29-.47.67-.5,1.11-.5,1.69.01,3.37.01,5.05.01,19.14,0,38.26.01,57.38-.03,1.07,0,1.32.25,1.29,1.29Z"/>
        <path class="cls-1" d="M14.89,91.44c-2.47,0-4.79-.01-7.11.01-.53.01-.65-.15-.68-.67-.18-3.19-.19-3.21,2.96-3.19,1.11,0,2.47-.35,3.29.17.87.53.9,2.03,1.35,3.08.07.14.1.29.19.6Z"/>
        <g>
          <path class="cls-3" d="M101.28,42.76c-.53-3.33-2.48-4.57-5.72-3.64-7.3,2.11-14.52,4.52-22.09,5.54-3.94.51-7.85,1.17-11.25,3.46-.68.46-1.36.49-2.16.33-1.42-.25-2.84-.46-3.58-.46-2.57,0-4.37.44-6.19.72-3.91.6-7.76,1.61-11.73,1.87-4.48.29-8.96.58-13.45.89-2.43.17-4,2.14-3.62,4.54.15.92.29,1.82.5,2.72.57,2.57,2.14,4.25,4.62,5.05,1.51.49,3.07.89,4.58,1.4,1.11.37,2.05.24,3.09-.31,1.93-1,3.68-2.35,5.97-2.69,2.03-.31,3.76-.32,5.81.51,5.69,2.33,11.21,1.14,16.44-1.8.4-.22.71-.62,1.29-.44,2.6.82,5.2.61,7.84.17,4.01-.65,7.54-2.11,10.13-5.38.12-.15.28-.35.44-.37,1.8-.33,3.59-.93,5.44-.86,1.67.07,3.33.43,4.98.72.74.14,1.36.01,1.93-.42,1.58-1.17,3.18-2.32,4.7-3.54,1.67-1.33,2.43-3.16,2.4-5.27-.01-.92-.25-1.82-.39-2.73ZM32.85,61.23c-.19.11-.47.24-.67.18-1.72-.5-3.5-.85-5.13-1.61-.8-.37-1.19-1.15-1.36-2.01-.15-.78-.26-1.57-.4-2.46,3.62-.25,7.2-.51,10.8-.69,1.03-.06,2.26-.61,3.01-.03.74.57.94,1.79,1.39,2.73.11.25.22.5.4.93-3.09-.01-5.52,1.57-8.03,2.96ZM79.99,48.25c-.37,4.64-2.76,7.31-7.37,8.26-3.05.64-6.09,1.05-9.12-.12-.9-.35-1.61.21-2.3.71-3.69,2.64-7.81,3.33-12.21,2.61-3.05-.5-4.65-2.58-5.62-5.31-.18-.5.04-.54.37-.6,4-.67,7.95-1.54,11.56-1.96,2.19.03,3.91.43,5.66.64.61.07,1.22.11,1.75-.26,3.94-2.79,8.59-3.33,13.17-4.09,1.1-.19,2.22-.32,3.3-.6.78-.19.86.03.8.74ZM97.1,47.54c-.15.18-.35.32-.53.49-2.21,2.11-4.64,3.39-7.81,2.23-1.68-.6-3.32.22-5.11.32.1-1.28.21-2.43.26-3.59.01-.5.32-.54.68-.65,4.02-1.17,8.03-2.35,12.06-3.54.56-.17.76-.11.8.51.04.64.24,1.26.33,1.89.14.89-.12,1.67-.69,2.35Z"/>
          <path class="cls-2" d="M108.69,62.41c-1.15-6.34-2.37-12.68-3.33-19.05-.56-3.72-2.15-6.54-5.41-8.45-1.62-.94-3.11-2.11-4.63-3.22-.53-.39-1.03-.53-1.67-.42-5.16.93-10.32,1.85-15.49,2.75-10.26,1.82-20.51,3.62-30.77,5.43-7.45,1.32-14.92,2.62-22.37,3.95-.51.08-1.04.12-1.43.69-1.51,2.26-3.12,4.47-4.65,6.72-1.14,1.69-1.62,3.58-1.28,5.61,1.15,6.7,2.32,13.42,3.51,20.12.15.87-.06,2.18.68,2.5.75.31,1.85-.24,2.8-.36.62-.07.79-.28.65-.93-.43-2.19-.8-4.41-1.15-6.62-.24-1.47.42-2.33,1.9-2.46,1.08-.08,2.16-.04,3.25-.1,4.25-.25,8.51.01,12.71-.76,3.09-.57,3.08-.56,3.51,2.6.08.56-.08.71-.56.78-2.61.39-5.19,1.04-7.85,1-2.93-.04-5.86,0-8.88,0,.31,1.78.61,3.18.76,4.61.11.96.54,1.04,1.35.9,4.09-.75,8.2-1.53,12.31-2.16,2.15-.33,4.11-.93,5.72-2.46.6-.57,1.35-.78,2.16-.93,8.91-1.55,17.83-3.09,26.73-4.76,2.28-.43,4.41-.47,6.56.43.39.17.8.31,1.28.21,5.12-.93,10.26-1.85,15.38-2.73.68-.11.86-.32.71-.99-.26-1.12-.5-2.28-.62-3.43-.08-.93-.33-1.08-1.26-.8-4.34,1.33-8.55,3.16-13.1,3.86-2.61.4-2.6.49-3.05-2.07-.03-.11-.06-.24-.1-.35-.28-.79.07-1.01.83-1.14,2.08-.35,4.19-.61,6.22-1.3,3.55-1.22,7.13-2.36,10.71-3.51,1.73-.57,2.72,0,3.04,1.76.28,1.54.54,3.08.79,4.62.42,2.54.4,2.46,2.9,2.14,1.24-.15,1.33-.61,1.14-1.67ZM99.27,50.76c-1.53,1.22-3.12,2.37-4.7,3.54-.57.43-1.19.56-1.93.42-1.65-.29-3.32-.65-4.98-.72-1.85-.07-3.64.53-5.44.86-.17.03-.32.22-.44.37-2.6,3.28-6.12,4.73-10.13,5.38-2.64.44-5.25.65-7.84-.17-.58-.18-.89.22-1.29.44-5.23,2.94-10.75,4.14-16.44,1.8-2.05-.83-3.79-.82-5.81-.51-2.29.35-4.04,1.69-5.97,2.69-1.04.54-1.98.68-3.09.31-1.51-.51-3.07-.92-4.58-1.4-2.48-.8-4.05-2.48-4.62-5.05-.21-.9-.35-1.8-.5-2.72-.37-2.4,1.19-4.37,3.62-4.54,4.48-.31,8.96-.6,13.45-.89,3.97-.26,7.81-1.28,11.73-1.87,1.82-.28,3.62-.72,6.19-.72.74,0,2.16.21,3.58.46.8.15,1.48.12,2.16-.33,3.4-2.29,7.31-2.94,11.25-3.46,7.58-1.01,14.79-3.43,22.09-5.54,3.23-.93,5.19.31,5.72,3.64.14.92.37,1.82.39,2.73.03,2.11-.74,3.94-2.4,5.27Z"/>
        </g>
        <path class="cls-1" d="M108.73,73.83c-.08,1.03-.51,1.78-1.51,1.97-2.59.5-5.19.99-7.8,1.39-1.03.17-1.83-.39-2.05-1.43-.37-1.72-.62-3.47-.96-5.2-.11-.56.15-.68.62-.76,3.28-.56,6.54-1.12,9.81-1.72.65-.11.89.03.99.72.25,1.71.6,3.39.9,5.04Z"/>
        <path class="cls-1" d="M36.61,86.52c-.06,1.14-.57,1.83-1.61,2.03-2.53.47-5.04.93-7.56,1.35-1.12.18-2.01-.5-2.25-1.67-.32-1.65-.57-3.32-.89-4.95-.11-.56.08-.68.58-.76,3.34-.56,6.69-1.15,10.03-1.76.43-.07.69-.08.78.42.31,1.8.62,3.62.92,5.36Z"/>
        <path class="cls-5" d="M101.28,42.76c-.53-3.33-2.48-4.57-5.72-3.64-7.3,2.11-14.52,4.52-22.09,5.54-3.94.51-7.85,1.17-11.25,3.46-.68.46-1.36.49-2.16.33-1.42-.25-2.84-.46-3.58-.46-2.57,0-4.37.44-6.19.72-3.91.6-7.76,1.61-11.73,1.87-4.48.29-8.96.58-13.45.89-2.43.17-4,2.14-3.62,4.54.15.92.29,1.82.5,2.72.57,2.57,2.14,4.25,4.62,5.05,1.51.49,3.07.89,4.58,1.4,1.11.37,2.05.24,3.09-.31,1.93-1,3.68-2.35,5.97-2.69,2.03-.31,3.76-.32,5.81.51,5.69,2.33,11.21,1.14,16.44-1.8.4-.22.71-.62,1.29-.44,2.6.82,5.2.61,7.84.17,4.01-.65,7.54-2.11,10.13-5.38.12-.15.28-.35.44-.37,1.8-.33,3.59-.93,5.44-.86,1.67.07,3.33.43,4.98.72.74.14,1.36.01,1.93-.42,1.58-1.17,3.18-2.32,4.7-3.54,1.67-1.33,2.43-3.16,2.4-5.27-.01-.92-.25-1.82-.39-2.73ZM32.85,61.23c-.19.11-.47.24-.67.18-1.72-.5-3.5-.85-5.13-1.61-.8-.37-1.19-1.15-1.36-2.01-.15-.78-.26-1.57-.4-2.46,3.62-.25,7.2-.51,10.8-.69,1.03-.06,2.26-.61,3.01-.03.74.57.94,1.79,1.39,2.73.11.25.22.5.4.93-3.09-.01-5.52,1.57-8.03,2.96ZM79.99,48.25c-.37,4.64-2.76,7.31-7.37,8.26-3.05.64-6.09,1.05-9.12-.12-.9-.35-1.61.21-2.3.71-3.69,2.64-7.81,3.33-12.21,2.61-3.05-.5-4.65-2.58-5.62-5.31-.18-.5.04-.54.37-.6,4-.67,7.95-1.54,11.56-1.96,2.19.03,3.91.43,5.66.64.61.07,1.22.11,1.75-.26,3.94-2.79,8.59-3.33,13.17-4.09,1.1-.19,2.22-.32,3.3-.6.78-.19.86.03.8.74ZM97.1,47.54c-.15.18-.35.32-.53.49-2.21,2.11-4.64,3.39-7.81,2.23-1.68-.6-3.32.22-5.11.32.1-1.28.21-2.43.26-3.59.01-.5.32-.54.68-.65,4.02-1.17,8.03-2.35,12.06-3.54.56-.17.76-.11.8.51.04.64.24,1.26.33,1.89.14.89-.12,1.67-.69,2.35Z"/>
      </g>
    </g>
  </g>
</svg>