<?xml version="1.0" encoding="UTF-8"?>
<svg xmlns="http://www.w3.org/2000/svg" version="1.1" viewBox="0 0 170.99 170.99">
  <defs>
    <style>
      .cls-1 {
        fill: #131956;
      }

      .cls-2 {
        fill: #ee6126;
      }
    </style>
  </defs>
  <!-- Generator: Adobe Illustrator 28.6.0, SVG Export Plug-In . SVG Version: 1.2.0 Build 709)  -->
  <g>
    <g id="Camada_1">
      <g>
        <path class="cls-2" d="M167.45,92.72c-.28-1.15-.67-2.27-1.22-3.31-1.22-2.29-2.92-4.16-5.1-5.57-3.15-2.08-6.3-4.16-9.37-6.37-3.26-2.36-6.46-4.79-9.44-7.52-1.17-1.07-2.31-2.19-3.3-3.46-.39-.52-.67-1.07-.67-1.72-.02-.13-.03-.24-.03-.36-.07-1.32-.26-2.62-.6-3.88-.42-1.58-1.01-3.1-1.8-4.53-1.06-1.87-2.37-3.48-4-4.87-2.24-1.95-4.82-3.28-7.65-4.19-2.86-.91-5.8-1.33-8.79-1.43-3.17-.1-6.25.32-9.28,1.25-1.4.44-2.75.99-4.06,1.66-.15-.08-.29-.16-.44-.26-1.93-1.23-3.93-2.37-5.96-3.43-6.29-3.25-12.93-5.46-19.85-6.89-5.34-1.1-10.75-1.74-16.19-2.08-3.52-.21-7.05-.29-10.59-.24-3.82.05-7.6.41-11.37,1.12-4.32.84-8.48,2.16-12.43,4.11-6.58,3.23-11.97,7.81-15.97,14-1.4,2.14-2.55,4.42-3.51,6.81-.7,1.77-1.25,3.61-1.67,5.47-.34,1.53-.6,3.07-.75,4.63-.28,3.09-.26,6.16.21,9.23.18,1.22.39,2.42.67,3.62.36,1.59.8,3.15,1.36,4.68.49,1.28.96,2.55,1.53,3.78.91,1.97,1.97,3.85,3.18,5.64,1.54,2.29,3.3,4.39,5.28,6.29.36.32.7.67,1.09,1.02-.21.05-.36.1-.49.13-3.82.91-7.11,2.7-9.7,5.7-1.8,2.13-2.94,4.55-3.25,7.36-.28,2.73.24,5.3,1.54,7.7,1.09,2.01,2.6,3.65,4.43,5,3.41,2.5,7.26,3.69,11.45,3.69,39.16.02,78.33,0,117.51,0,.55,0,1.14-.05,1.67-.18,1.93-.47,3.43-1.51,4.13-3.48.41-1.19.28-2.34-.31-3.43-.67-1.22-1.71-2.01-2.99-2.5-.91-.36-1.85-.42-2.79-.42H20.8c-2.16-.08-3.96-.84-5.17-2.73-.76-1.22-.83-2.53-.34-3.83.47-1.28,1.45-2.18,2.66-2.78,1.02-.49,2.1-.65,3.2-.65h128.96c3.26,0,6.37-.7,9.28-2.24,3.07-1.64,5.51-3.91,7.05-7.08.84-1.75,1.32-3.59,1.32-5.54-.02-1.61-.02-3.23,0-4.84,0-1.04-.07-2.06-.31-3.07ZM153.69,104.45c-1.06.7-2.24,1.01-3.49,1.02-.11.02-.24.02-.36.02-35.22,0-70.42,0-105.63-.02-3.51,0-6.95-.44-10.3-1.53-4.39-1.45-8.12-3.85-11.14-7.34-1.46-1.69-2.68-3.51-3.7-5.49-.8-1.53-1.46-3.12-2.03-4.76-.55-1.64-.99-3.3-1.33-5-.37-1.85-.65-3.7-.67-5.59-.03-1.61.03-3.2.34-4.78.16-.78.28-1.58.47-2.36.31-1.23.65-2.47,1.15-3.64.36-.81.7-1.62,1.06-2.42.58-1.3,1.32-2.5,2.13-3.67,1.27-1.85,2.75-3.54,4.43-5.04,3.77-3.36,8.15-5.52,13.01-6.82,2.5-.68,5.07-1.09,7.67-1.33,3.44-.31,6.89-.21,10.33-.11,1.51.03,3.04.13,4.55.23,2.58.15,5.17.42,7.75.8,3.43.47,6.82,1.15,10.17,2.1,5.1,1.45,9.94,3.51,14.51,6.21.49.29.96.58,1.48.89-.2.37-.36.71-.54,1.04-.65,1.23-1.15,2.52-1.54,3.83-.26.94-.41,1.92-.54,2.89-.24,1.59-.08,3.17.23,4.73.37,1.85,1.12,3.57,2.13,5.18,1.45,2.29,3.31,4.19,5.47,5.8,2.4,1.8,6.06,1.59,8.22-.45,1.14-1.09,1.69-2.42,1.45-4.01-.19-1.23-.84-2.23-1.82-2.99-.84-.67-1.66-1.36-2.32-2.19-1.12-1.38-1.75-2.92-1.69-4.73.03-.86.23-1.71.52-2.53.39-1.02.86-2.01,1.54-2.89,1.14-1.43,2.6-2.4,4.29-3.07,1.4-.54,2.84-.84,4.34-.89,1.88-.06,3.77.03,5.6.52,1.69.44,3.22,1.19,4.47,2.42.88.86,1.51,1.88,1.97,3.02.54,1.36.68,2.78.78,4.21.03.5.08.99.16,1.49.19,1.02.65,1.95,1.17,2.84,1.43,2.4,3.35,4.42,5.36,6.33,3.1,2.97,6.5,5.6,9.96,8.14,3.41,2.47,6.9,4.82,10.44,7.1,1.09.7,1.82,1.69,2.16,2.94.1.36.1.76.1,1.14.02,1.54,0,3.07.02,4.6.02,1.84-.83,3.18-2.31,4.17Z"/>
        <path class="cls-1" d="M126.63,85.38c.03,1.28-.44,2.39-1.32,3.3-2.6,2.62-7.13,2.31-9.32-.23-1.53-1.79-1.46-4.43.19-6.12,1.25-1.27,2.79-1.8,4.56-1.84,1.69.02,3.22.54,4.47,1.74.89.88,1.38,1.93,1.41,3.15Z"/>
      </g>
    </g>
  </g>
</svg>