<?xml version="1.0" encoding="UTF-8"?>
<svg xmlns="http://www.w3.org/2000/svg" version="1.1" viewBox="0 0 106.97 106.97">
  <defs>
    <style>
      .cls-1 {
        fill: none;
      }

      .cls-2 {
        fill: #e96128;
      }
    </style>
  </defs>
  <!-- Generator: Adobe Illustrator 28.6.0, SVG Export Plug-In . SVG Version: 1.2.0 Build 709)  -->
  <g>
    <g id="Camada_1">
      <g>
        <path class="cls-2" d="M100.9,100.73c-.33-.1-.19-.37-.2-.57-.16-2.08-.38-4.16-.86-6.18-4.18-17.77-14.88-29.68-32.15-35.69-.82-.28-1.33-.13-1.97.39-7.23,5.78-16.69,5.96-24.06.35-1.16-.88-2.04-.92-3.29-.49-18.99,6.5-31.67,23.68-32.29,43.74-.03.94.13,1.21,1.15,1.21,30.79-.03,61.59-.02,92.38-.02.36,0,.71-.01,1.07-.02.29-.34-.05-.81.22-1.16v-1.56ZM85.87,92.96c-3.81-.04-7.61-.02-11.43-.02s-7.54-.01-11.31.01c-.67.01-.95-.06-.94-.86.05-4.1.04-8.21.01-12.3-.01-.73.17-.91.9-.91,7.59.03,15.17.03,22.76,0,.81,0,.95.24.94.99-.03,4.07-.04,8.13.01,12.2,0,.76-.23.89-.93.89Z"/>
        <path class="cls-2" d="M69.55,51.38c-3.36,4.15-7.56,7.04-12.91,7.93-6.17,1.03-11.59-.74-16.26-4.78-5.37-4.66-8.24-10.71-9.32-17.62-1.2-7.73-.04-15.1,3.97-21.89,3.25-5.5,7.78-9.45,14.12-11.02.63-.16,1.28-.23,1.92-.34.38-.2.82.07,1.19-.17h1.76c.39.16.78.16,1.17,0h.19c1.03.23,2.06.41,3.07.7,6.16,1.77,10.49,5.81,13.63,11.24,6.4,11.08,5.34,26.21-2.53,35.96Z"/>
        <path class="cls-1" d="M86.8,92.06c0,.76-.23.89-.93.89-3.81-.04-7.61-.02-11.43-.02s-7.54-.01-11.31.01c-.67.01-.95-.06-.94-.86.05-4.1.04-8.21.01-12.3-.01-.73.17-.91.9-.91,7.59.03,15.17.03,22.76,0,.81,0,.95.24.94.99-.03,4.07-.04,8.13.01,12.2Z"/>
      </g>
    </g>
  </g>
</svg>