<?xml version="1.0" encoding="UTF-8"?>
<svg xmlns="http://www.w3.org/2000/svg" version="1.1" viewBox="0 0 106.97 106.97">
  <defs>
    <style>
      .cls-1 {
        fill: none;
      }

      .cls-2 {
        fill: #131956;
      }

      .cls-3 {
        fill: #ee6126;
      }
    </style>
  </defs>
  <!-- Generator: Adobe Illustrator 28.6.0, SVG Export Plug-In . SVG Version: 1.2.0 Build 709)  -->
  <g>
    <g id="Camada_1">
      <g>
        <path class="cls-3" d="M45.58,66.95c.1,3.04-2.42,5.64-5.56,5.74-3.12.1-5.73-2.39-5.83-5.57-.09-3.02,2.42-5.63,5.56-5.77,3.05-.14,5.72,2.43,5.83,5.6Z"/>
        <path class="cls-3" d="M72.86,67.2c-.09,3.11-2.71,5.59-5.8,5.5-3.19-.09-5.64-2.65-5.56-5.83.07-3.09,2.76-5.65,5.79-5.53,3.2.13,5.66,2.72,5.57,5.85Z"/>
        <path class="cls-3" d="M86.86,56.36c-1-.73-1.96-1.3-1.76-2.73,0-.06-.03-.13-.07-.18-.78-1.14-.78-2.51-1.14-3.78-.22-.78-.25-1.39.33-2.01.45-.49.33-.84-.37-1.09-1.28-.47-2.57-.92-3.89-1.28-7.59-2.09-15.35-2.84-23.18-3.08-6.82-.2-13.62.17-20.38,1.15-4.42.64-8.78,1.54-12.97,3.13-1.06.4-1.11.51-.44,1.39.36.46.4.86.28,1.42-.31,1.49-.83,2.91-1.21,4.36-.32,1.2-.65,2.06-1.81,2.51-.06.02-.1.08-.15.12-4.46,3.44-6.47,10.6-4.3,15.78,1.82,4.36,5.12,7.37,9.36,9.37.61.29,1.07.61,1.28,1.31.79,2.57,2.02,4.93,3.61,7.08,4.61,6.27,10.77,10.36,18.15,12.69,1.16.37,2.34.65,3.51.97h3.13c.37-.36.85-.15,1.28-.26,11.49-2.94,20.22-9.14,24.55-20.58.16-.42.35-.7.8-.87,3.38-1.31,5.95-3.61,8.09-6.5,4.69-6.32,2.22-15.3-2.72-18.91ZM82.14,73.2c-1.37,1.23-2.85,2.18-4.79,2.4-1.49.17-2.35,1.28-2.72,2.72-.42,1.67-.94,3.3-1.75,4.84-2.96,5.61-7.67,9.23-13.36,11.74-1.34.59-2.75.97-4.17,1.35-2.27.62-4.41-.07-6.48-.84-5.49-2.06-10.14-5.27-13.47-10.19-1.34-1.98-2.31-4.14-2.84-6.47-.42-1.82-1.56-2.73-3.33-3.26-3.26-.97-5.65-3.11-6.97-6.22-.76-1.78-.16-3.63.52-5.41,2.44,1.79,5.08,1.16,5.93-1.34.14-.42.17-.83.16-1.25-.06-2.28.2-4.54.53-6.79.16-1.08.15-1.08,1.15-.5,4.86,2.85,10.05,4.87,15.59,5.92,6.69,1.27,13.28.78,19.77-1.24,3.58-1.11,7-2.6,10.25-4.47.42-.24.84-.49,1.33-.78.4,1.94.58,3.83.67,5.73.04.81-.04,1.63.03,2.44.24,2.81,3.11,4.26,5.44,2.73.61-.4.72-.21.91.3,1.21,3.16.42,6.04-2.4,8.57Z"/>
        <path class="cls-2" d="M96.06,22.91c-.28-.54-.99-.37-1.52-.38-2.74-.05-5.47-.27-8.16-.78-7.31-1.37-13.67-4.68-19.3-9.47-2.68-2.28-5.23-4.71-8.1-6.75-1.63-1.17-3.42-2-5.46-2.04-1.97.05-3.62.86-5.1,2.02-2.08,1.63-3.9,3.55-5.77,5.41-6.87,6.87-15.19,10.53-24.84,11.35-1.92.16-3.84.15-5.76.29-1.14.08-1.44.51-1.14,1.6.15.56.36,1.12.64,1.63,1.08,1.96,2.22,3.89,3.29,5.86,1.55,2.85,3.26,5.64,3.57,8.98.07.77.55.37.83.3,8.81-2.13,17.78-3.04,26.8-3.43,8.31-.37,16.62-.2,24.9.77,4.24.5,8.44,1.18,12.53,2.44,1.16.36,1.15.38,1.39-.77.05-.25.14-.5.22-.75.95-2.91,2.88-5.21,4.72-7.56,1.87-2.38,3.98-4.57,5.73-7.04.35-.49.86-1.06.54-1.67ZM61.32,26.04c0,1.92-1.25,3.15-2.51,4.33-1.42,1.34-3.08,2.38-4.79,3.34-.36.2-.62.21-.97,0-2.13-1.22-4.16-2.54-5.82-4.38-1.01-1.11-1.55-2.36-1.52-3.88.04-2.08.04-4.16,0-6.24-.02-.71.22-.86.89-.85,2.31.04,4.62.02,6.94.02s4.69.02,7.03-.01c.58,0,.79.12.78.74-.04,2.31-.01,4.62-.02,6.92Z"/>
        <path class="cls-1" d="M84.54,64.63c-.19-.51-.31-.7-.91-.3-2.33,1.54-5.2.08-5.44-2.73-.07-.81,0-1.63-.03-2.44-.09-1.9-.27-3.79-.67-5.73-.5.29-.91.53-1.33.78-3.25,1.87-6.67,3.36-10.25,4.47-6.49,2.02-13.08,2.52-19.77,1.24-5.54-1.06-10.73-3.07-15.59-5.92-.99-.58-.98-.58-1.15.5-.34,2.25-.6,4.51-.53,6.79.01.42-.02.83-.16,1.25-.85,2.5-3.49,3.13-5.93,1.34-.68,1.78-1.27,3.63-.52,5.41,1.32,3.11,3.72,5.25,6.97,6.22,1.77.53,2.91,1.44,3.33,3.26.54,2.33,1.5,4.48,2.84,6.47,3.34,4.92,7.99,8.13,13.47,10.19,2.06.77,4.2,1.46,6.48.84,1.41-.38,2.82-.76,4.17-1.35,5.69-2.51,10.4-6.13,13.36-11.74.81-1.53,1.33-3.17,1.75-4.84.37-1.44,1.23-2.55,2.72-2.72,1.94-.22,3.42-1.17,4.79-2.4,2.82-2.53,3.61-5.41,2.4-8.57ZM40.03,72.69c-3.12.1-5.73-2.39-5.83-5.57-.09-3.02,2.42-5.63,5.56-5.77,3.05-.14,5.72,2.43,5.83,5.6.1,3.04-2.42,5.64-5.56,5.74ZM72.86,67.2c-.09,3.11-2.71,5.59-5.8,5.5-3.19-.09-5.64-2.65-5.56-5.83.07-3.09,2.76-5.65,5.79-5.53,3.2.13,5.66,2.72,5.57,5.85Z"/>
        <path class="cls-3" d="M45.58,66.95c.1,3.04-2.42,5.64-5.56,5.74-3.12.1-5.73-2.39-5.83-5.57-.09-3.02,2.42-5.63,5.56-5.77,3.05-.14,5.72,2.43,5.83,5.6Z"/>
        <path class="cls-3" d="M72.86,67.2c-.09,3.11-2.71,5.59-5.8,5.5-3.19-.09-5.64-2.65-5.56-5.83.07-3.09,2.76-5.65,5.79-5.53,3.2.13,5.66,2.72,5.57,5.85Z"/>
        <path class="cls-1" d="M61.32,26.04c0,1.92-1.25,3.15-2.51,4.33-1.42,1.34-3.08,2.38-4.79,3.34-.36.2-.62.21-.97,0-2.13-1.22-4.16-2.54-5.82-4.38-1.01-1.11-1.55-2.36-1.52-3.88.04-2.08.04-4.16,0-6.24-.02-.71.22-.86.89-.85,2.31.04,4.62.02,6.94.02s4.69.02,7.03-.01c.58,0,.79.12.78.74-.04,2.31-.01,4.62-.02,6.92Z"/>
        <path class="cls-3" d="M72.86,67.2c-.09,3.11-2.71,5.59-5.8,5.5-3.19-.09-5.64-2.65-5.56-5.83.07-3.09,2.76-5.65,5.79-5.53,3.2.13,5.66,2.72,5.57,5.85Z"/>
        <path class="cls-3" d="M40.03,72.69c-3.12.1-5.73-2.39-5.83-5.57-.09-3.02,2.42-5.63,5.56-5.77,3.05-.14,5.72,2.43,5.83,5.6.1,3.04-2.42,5.64-5.56,5.74Z"/>
      </g>
    </g>
  </g>
</svg>