<?xml version="1.0" encoding="UTF-8"?>
<svg xmlns="http://www.w3.org/2000/svg" version="1.1" viewBox="0 0 117.12 117.12">
  <defs>
    <style>
      .cls-1 {
        fill: none;
      }

      .cls-2 {
        fill: #131956;
      }

      .cls-3 {
        fill: #ee6126;
      }
    </style>
  </defs>
  <!-- Generator: Adobe Illustrator 28.6.0, SVG Export Plug-In . SVG Version: 1.2.0 Build 709)  -->
  <g>
    <g id="Camada_1">
      <g>
        <path class="cls-3" d="M112.08,56.75c-1.61-1.62-3.5-2.83-5.51-3.82-3.22-1.6-6.59-2.82-10.06-3.76-8.64-2.35-17.42-3.66-26.39-3.5-.47,0-.95.05-1.41-.04-.55-.11-1.07-.94-.96-1.52.13-.64.67-.43,1.06-.45.8-.03,1.59,0,2.39-.01,4.31-.02,7.23-2.93,7.21-7.26,0-1.74.09-3.48.36-5.19,1.13-7.29,4.64-13.16,10.54-17.6.61-.46,1.21-.93,1.66-1.55.98-1.36.34-2.99-1.3-3.36-.02,0-.04,0-.06-.01h-1.27c-.6,0-1.1.25-1.57.6-5.38,3.95-9.26,9.03-11.5,15.32-1.31,3.69-1.85,7.51-1.81,11.42.02,1.91-.74,2.65-2.62,2.68-1.09.02-2.18,0-3.26.01-.66.01-.91-.13-.66-.88,1.59-4.81-.21-9.14-4.74-11.34-.89-.43-1.2-.97-1.18-1.93.05-2.83.02-5.65.02-8.48,0-.55,0-1.09-.17-1.61-.36-1.08-1.35-1.85-2.33-1.81-1.15.06-2.2,1.01-2.4,2.17-.07.39-.05.79-.05,1.19,0,2.9-.02,5.8,0,8.69,0,.82-.24,1.36-1.04,1.69-4.69,1.94-6.61,7.42-4.87,11.47.29.68-.01.83-.62.82-1.09-.01-2.17.01-3.26,0-1.9-.03-2.64-.76-2.67-2.64-.03-1.45-.02-2.89-.19-4.34-1.1-9.38-5.57-16.78-13.07-22.43-.48-.36-1-.62-1.61-.63h-.09c-.42.04-.85-.09-1.26.08-1.68.79-1.98,2.39-.65,3.63.5.47,1.07.87,1.62,1.28,3.49,2.66,6.13,6,8.01,9.97,1.94,4.08,2.6,8.39,2.59,12.86,0,4.06,2.77,6.8,6.83,6.85,1.34.02,2.68,0,4.11,0-.22.78-.42,1.47-.59,2.16-.11.43-.34.54-.78.51-5.97-.35-11.87.25-17.74,1.26-7.11,1.22-14.07,3.01-20.55,6.29-2.54,1.28-4.92,2.81-6.48,5.29-1.73,2.77-.87,6.03,1.96,7.65,1.71.97,3.58,1.33,5.51,1.43,4.12.21,8.18-.3,12.18-1.24,7.93-1.86,15.65-4.38,23.06-7.8.37-.17.72-.44,1.2-.42-.06,2.92,0,5.78.2,8.64.02.39.05.74-.36,1.04-3.13,2.22-5.18,5.31-6.95,8.62-1.76,3.3-2.77,6.9-4.23,10.32-2.61,6.13-6.7,11.03-12.36,14.59-1.76,1.11-3.66,1.87-5.51,2.78-.89.44-1.35,1.21-1.2,2.22.15,1,.78,1.61,1.76,1.83.6.14,1.14-.09,1.68-.31,10.19-4.18,16.93-11.6,20.62-21.88,1.49-4.16,3.1-8.25,5.81-11.81.36-.46.68-.98,1.29-1.3.58,4.53,1.35,8.91,2.69,13.16.75,2.38,1.65,4.71,3.18,6.73,1.7,2.25,4.03,3.01,6.17,1.97,1.45-.71,2.41-1.95,3.19-3.32,2-3.5,2.97-7.36,3.78-11.25.49-2.39.84-4.81,1.27-7.31.91.81,1.54,1.72,2.16,2.64,2.29,3.43,3.66,7.27,5.09,11.1,3.69,9.89,10.31,17.04,20.09,21.17,1.81.76,3.05.44,3.6-.87.55-1.3-.1-2.41-1.93-3.17-2.14-.89-4.19-1.96-6.08-3.31-5.45-3.87-9.23-9-11.56-15.24-.9-2.4-1.69-4.84-2.81-7.16-1.89-3.91-4.09-7.58-7.71-10.19-.3-.22-.41-.45-.39-.81.2-2.96.26-5.92.21-8.98.32.13.55.21.77.31,4.26,1.99,8.67,3.61,13.15,5.02,6.77,2.13,13.56,4.21,20.75,4.26,4.19.02,8.28-.32,10.15-5.04v-2.18c-.16-1.63-1.02-2.87-2.15-4ZM45.78,54.45c-5.68,2.71-11.6,4.78-17.64,6.53-4.45,1.29-8.94,2.4-13.59,2.63-.32.02-.65,0-.97,0-1.52.02-3.04,0-4.51-.46-2.13-.66-2.35-1.48-.72-3.05,2.04-1.98,4.57-3.17,7.17-4.17,10.25-3.92,20.87-5.75,31.84-5.64.93,0,.9.33.94,1.12.09,1.87-1.19,2.42-2.5,3.05ZM58.48,30.31c2.39-.04,4.39,1.91,4.42,4.29.02,2.38-1.94,4.38-4.33,4.39-2.38.01-4.37-1.97-4.36-4.35,0-2.33,1.94-4.29,4.27-4.33ZM62.02,84.36c-.64,2.14-1.36,4.26-2.7,6.11-.57.79-.99.74-1.54-.02-1.34-1.85-2.1-3.96-2.69-6.11-2.78-10.09-3.54-20.35-2.68-30.76.29-3.48.87-6.88,2.16-10.14.27-.68.51-.87,1.24-.59,1.82.68,3.7.69,5.52,0,.77-.29.97-.02,1.23.62,1.51,3.71,1.99,7.61,2.29,11.55.15,2.02.2,4.05.26,5.36-.23,8.59-.82,16.41-3.08,24ZM109.76,62.02c-.28,1.05-1.47,1.2-2.41,1.37-3.11.56-6.22.27-9.28-.33-9.07-1.77-17.8-4.63-26.24-8.4-.36-.16-.7-.42-1.07-.52-1.74-.46-1.86-1.84-1.97-3.28-.03-.47.15-.55.55-.55,1.12.01,2.25,0,3.37,0,10.11.34,19.99,1.9,29.43,5.68,2.22.89,4.36,1.94,6.17,3.55.75.66,1.74,1.38,1.45,2.48Z"/>
        <path class="cls-3" d="M28.75,8.56c0,.07,0,.13.03.19-.46,0-.91,0-1.37,0,.02-.06.04-.13.03-.19h1.31Z"/>
        <path class="cls-3" d="M88.32,8.76c.03-.06.04-.13.03-.2h1.31c0,.07.01.13.03.19-.46,0-.91,0-1.37,0Z"/>
        <path class="cls-1" d="M64.84,55c-.3-3.94-.78-7.84-2.29-11.55-.26-.64-.46-.92-1.23-.62-1.82.7-3.7.69-5.52,0-.73-.27-.97-.09-1.24.59-1.28,3.27-1.87,6.66-2.16,10.14-.87,10.41-.1,20.67,2.68,30.76.59,2.15,1.35,4.26,2.69,6.11.55.76.97.8,1.54.02,1.34-1.85,2.07-3.97,2.7-6.11,2.26-7.59,2.85-15.41,3.08-24-.06-1.31-.11-3.34-.26-5.36ZM58.55,73.78c-1.16,0-2.21-1.09-2.16-2.25.05-1.13,1.09-2.11,2.22-2.08,1.14.03,2.13,1.06,2.11,2.19-.02,1.13-1.04,2.14-2.16,2.14ZM60.72,62.67c-.03,1.41-.91,2.38-2.12,2.41-1.25.03-2.2-.97-2.21-2.43-.02-2.71-.02-5.42,0-8.13.01-1.48.91-2.47,2.18-2.46,1.26,0,2.14.99,2.16,2.48.02,1.37,0,2.74,0,4.12s.02,2.68,0,4.01Z"/>
        <path class="cls-1" d="M109.76,62.02c-.28,1.05-1.47,1.2-2.41,1.37-3.11.56-6.22.27-9.28-.33-9.07-1.77-17.8-4.63-26.24-8.4-.36-.16-.7-.42-1.07-.52-1.74-.46-1.86-1.84-1.97-3.28-.03-.47.15-.55.55-.55,1.12.01,2.25,0,3.37,0,10.11.34,19.99,1.9,29.43,5.68,2.22.89,4.36,1.94,6.17,3.55.75.66,1.74,1.38,1.45,2.48Z"/>
        <path class="cls-1" d="M45.78,54.45c-5.68,2.71-11.6,4.78-17.64,6.53-4.45,1.29-8.94,2.4-13.59,2.63-.32.02-.65,0-.97,0-1.52.02-3.04,0-4.51-.46-2.13-.66-2.35-1.48-.72-3.05,2.04-1.98,4.57-3.17,7.17-4.17,10.25-3.92,20.87-5.75,31.84-5.64.93,0,.9.33.94,1.12.09,1.87-1.19,2.42-2.5,3.05Z"/>
        <path class="cls-1" d="M62.9,34.61c.02,2.38-1.94,4.38-4.33,4.39-2.38.01-4.37-1.97-4.36-4.35,0-2.33,1.94-4.29,4.27-4.33,2.39-.04,4.39,1.91,4.42,4.29Z"/>
        <path class="cls-2" d="M60.72,62.67c-.03,1.41-.91,2.38-2.12,2.41-1.25.03-2.2-.97-2.21-2.43-.02-2.71-.02-5.42,0-8.13.01-1.48.91-2.47,2.18-2.46,1.26,0,2.14.99,2.16,2.48.02,1.37,0,2.74,0,4.12s.02,2.68,0,4.01Z"/>
        <path class="cls-2" d="M60.71,71.64c-.02,1.13-1.04,2.14-2.16,2.14-1.16,0-2.21-1.09-2.16-2.25.05-1.13,1.09-2.11,2.22-2.08,1.14.03,2.13,1.06,2.11,2.19Z"/>
      </g>
    </g>
  </g>
</svg>