<?xml version="1.0" encoding="UTF-8"?>
<svg xmlns="http://www.w3.org/2000/svg" version="1.1" viewBox="0 0 106.97 106.97">
  <defs>
    <style>
      .cls-1 {
        fill: #131956;
      }

      .cls-2 {
        fill: #ee6126;
      }
    </style>
  </defs>
  <!-- Generator: Adobe Illustrator 28.6.0, SVG Export Plug-In . SVG Version: 1.2.0 Build 709)  -->
  <g>
    <g id="Camada_1">
      <g>
        <path class="cls-2" d="M74.04,7.5c0-1.9-.63-3.26-2.4-4.01h-36.3c-1.83.77-2.4,2.18-2.4,4.11.03,30.6.02,61.19.02,91.78,0,.3,0,.59.01.88.09,1.95,1.36,3.22,3.3,3.22,11.48.01,22.97.01,34.45,0,1.63,0,2.85-.94,3.2-2.46.12-.49.11-1.03.11-1.55,0-30.65-.01-61.31.02-91.97ZM53.5,13.67c6.49.02,11.86,5.42,11.83,11.88-.02,6.52-5.39,11.86-11.87,11.83-6.52-.03-11.85-5.38-11.83-11.87.02-6.49,5.39-11.85,11.87-11.84ZM53.47,93.55c-6.53-.01-11.86-5.34-11.85-11.85.02-6.51,5.36-11.83,11.88-11.82,6.51.01,11.86,5.36,11.84,11.85-.02,6.53-5.35,11.83-11.87,11.82ZM53.51,65.45c-6.52.02-11.85-5.27-11.88-11.8-.03-6.48,5.33-11.87,11.83-11.88,6.49-.01,11.85,5.32,11.88,11.83.03,6.49-5.3,11.83-11.83,11.85Z"/>
        <path class="cls-2" d="M28.3,81.01c0,3.58-.01,7.15.01,10.73,0,.62-.12.89-.79.81-.48-.06-.97,0-1.46-.02-1.82-.09-3.15-1.44-3.23-3.26,0-.13-.03-.26,0-.39.54-2.78-.64-4.74-2.71-6.54-2.42-2.11-4.57-4.52-6.86-6.78-1.16-1.15-1.77-2.46-1.09-4.03.67-1.56,2-2.07,3.65-2.05,3.9.04,7.8.03,11.7,0,.65,0,.8.18.79.81-.03,3.58-.01,7.15-.01,10.73Z"/>
        <path class="cls-2" d="M78.67,81.01c0-3.58.02-7.15-.01-10.73,0-.63.15-.81.8-.8,3.96.03,7.93.03,11.89,0,1.58,0,2.82.58,3.45,2.05.64,1.49.15,2.78-.96,3.89-3.04,3.03-6.06,6.08-9.11,9.1-.42.42-.64.83-.61,1.44.05,1.1.04,2.21,0,3.32-.06,1.82-1.4,3.16-3.22,3.26q-2.23.12-2.23-2.06v-9.46Z"/>
        <path class="cls-2" d="M28.3,26.3c0,3.58-.01,7.15.01,10.73,0,.61-.12.9-.79.82-.51-.06-1.04.01-1.56-.04-1.85-.18-3.07-1.5-3.13-3.35,0-.13-.02-.26,0-.39.48-2.65-.54-4.55-2.56-6.3-2.55-2.21-4.84-4.72-7.2-7.13-1.93-1.98-1.36-4.82,1.1-5.67.44-.15.89-.17,1.35-.17,4,0,7.99.01,11.99-.02.63,0,.81.15.81.8-.03,3.58-.02,7.15-.02,10.73Z"/>
        <path class="cls-2" d="M78.67,26.27c0-3.54.02-7.09-.02-10.63,0-.66.12-.88.83-.87,3.96.04,7.93.03,11.89.01,1.59,0,2.82.58,3.43,2.06.62,1.49.12,2.78-.99,3.88-3,2.98-5.96,5.99-8.98,8.95-.54.53-.76,1.05-.72,1.78.06.97.03,1.95.01,2.93-.04,1.99-1.35,3.33-3.35,3.45q-2.11.12-2.11-2c0-3.19,0-6.37,0-9.56Z"/>
        <path class="cls-2" d="M28.3,53.7c0,3.54-.02,7.09.02,10.63,0,.65-.12.96-.83.87-.48-.06-.98,0-1.46-.03-1.83-.13-3.13-1.47-3.18-3.3-.03-1.1-.04-2.21,0-3.32.02-.57-.17-.96-.57-1.36-3.05-3.02-6.08-6.05-9.1-9.1-1.71-1.72-1.69-3.91.02-5.25.61-.48,1.31-.7,2.08-.7,4.13,0,8.25.01,12.38-.02.62,0,.65.26.65.75-.02,3.61,0,7.22,0,10.83Z"/>
        <path class="cls-2" d="M78.67,53.66c0-3.58.02-7.15-.02-10.73,0-.63.16-.81.8-.8,4,.03,7.99.03,11.99,0,1.55,0,2.74.61,3.35,2.04.62,1.44.19,2.73-.89,3.82-3.08,3.08-6.15,6.17-9.24,9.23-.37.37-.56.73-.54,1.27.04,1.1.03,2.21,0,3.32-.04,1.89-1.35,3.24-3.22,3.37q-2.24.15-2.24-2.06c0-3.15,0-6.31,0-9.46Z"/>
        <path class="cls-1" d="M60.32,53.86c-.13,3.74-3.34,6.79-7.01,6.64-3.83-.16-6.78-3.28-6.67-7.06.11-3.74,3.27-6.78,6.96-6.66,3.88.12,6.85,3.26,6.72,7.09Z"/>
        <path class="cls-1" d="M60.33,25.61c-.05,3.77-3.14,6.81-6.88,6.79-3.79-.03-6.86-3.16-6.82-6.96.05-3.76,3.13-6.79,6.88-6.77,3.81.03,6.87,3.15,6.82,6.94Z"/>
        <path class="cls-1" d="M60.33,81.67c.03,3.77-3.06,6.9-6.82,6.94-3.74.02-6.88-3.12-6.88-6.88s3-6.79,6.78-6.87c3.71-.09,6.9,3.05,6.93,6.82Z"/>
      </g>
    </g>
  </g>
</svg>