<svg width="1112" height="989" viewBox="0 0 1112 989" fill="none" xmlns="http://www.w3.org/2000/svg">
<path d="M1111.17 223.26V275.299C1110.29 277.149 1109.26 278.95 1108.55 280.87C1101.27 300.58 1088.16 310.21 1067.01 311.14C1062.11 311.36 1057.19 311.169 1051.87 311.169V923.709C1074.1 925.089 1099.31 917.71 1111.17 945.3V964.81C1106.48 978.33 1096.97 986.14 1082.98 988.66H31.3391C30.7091 988.31 30.1191 987.82 29.4391 987.64C8.34915 981.99 -1.36087 969.3 1.23913 950.77C3.59913 934.02 16.9791 924.129 37.5891 923.969C46.1491 923.909 54.7191 923.959 63.6491 923.959V311.08C57.9591 311.08 52.9491 311.35 47.9691 311.03C19.7891 309.22 1.41913 289.91 0.989134 261.74C0.889134 255.24 0.969145 248.739 0.969145 242.229C0.969145 205.169 17.4791 184.13 53.3791 176.19C162.899 151.95 272.439 127.76 382.039 103.9C391.239 101.9 396.979 97.6995 401.859 89.6695C473.659 -28.3205 645.249 -28.1305 716.349 90.0595C721.279 98.2495 727.179 102.09 736.219 104.09C846.099 128.35 955.969 152.719 1065.67 177.799C1075.7 180.089 1086.48 185.59 1093.51 192.87C1101.41 201.05 1105.45 212.96 1111.17 223.24V223.26ZM494.739 494.299V431.719H618.009V494.299C653.569 494.299 687.869 494.299 722.179 494.299C758.489 494.299 774.869 510.81 774.879 547.49C774.899 627.71 774.879 707.93 774.879 788.15C774.879 792.05 774.879 795.94 774.879 799.49C797.469 807.4 804.679 815.209 804.489 832.329C804.279 851.449 794.029 862.35 775.439 864.75V923.39H863.539V311.979C861.439 311.669 860.049 311.289 858.649 311.289C806.249 311.239 753.859 311.08 701.459 311.5C697.149 311.53 692.009 314.659 688.709 317.859C615.929 388.529 502.479 388.519 429.619 317.979C425.749 314.239 419.089 311.55 413.689 311.5C363.469 311.01 313.239 311.2 263.009 311.24C259.519 311.24 256.029 311.639 252.379 311.859V923.17H341.249C341.249 906.16 341.029 889.96 341.359 873.76C341.489 867.54 340.119 864.45 333.349 862.42C319.829 858.37 311.399 846.349 311.249 833.329C311.089 819.059 318.709 809.64 330.909 803.49C334.049 801.91 337.559 801.06 341.249 799.75V787.5C341.249 707.28 341.239 627.06 341.249 546.84C341.249 512.13 359.159 494.339 394.089 494.299C426.949 494.269 459.809 494.299 494.729 494.299H494.739ZM587.089 289.28C629.859 289.87 656.109 265.99 656.049 224.87C656.029 207.92 652.159 190.57 647.409 174.15C641.859 154.96 632.089 153.719 617.949 167.719C609.369 176.209 599.969 183.85 590.929 191.87C589.229 187.45 589.579 184.73 590.019 182.03C596.619 141.46 578.219 98.5095 546.149 79.6695C529.999 70.1795 520.619 74.8395 519.619 93.6395C518.579 113.14 511.269 130.02 499.989 145.46C492.959 155.08 485.619 164.47 478.449 174C464.249 192.89 459.149 214.09 462.899 237.32C468.169 269.91 500.149 293.869 531.369 288.219C532.489 259.189 543.429 233.3 559.109 208.06C574.979 233.39 585.519 259.46 587.079 289.28H587.089ZM401.379 923.319H713.869V865.42H401.379V923.319ZM523.219 680.54V558.21H401.799V680.54H523.219ZM588.739 680.579H710.319V558.27H588.739V680.579ZM498.419 800.06H620.479V741.99H498.419V800.06ZM404.999 741.29C387.969 741.29 373.989 755.249 374.149 772.099C374.309 788.989 388.419 802.63 405.489 802.41C422.209 802.2 435.489 788.88 435.669 772.14C435.849 755.01 422.209 741.29 404.999 741.29ZM710.749 802.4C728.009 802.74 742.179 789.139 742.339 772.099C742.499 755.559 728.939 741.65 712.329 741.31C694.829 740.95 681.059 754.229 680.919 771.599C680.779 788.519 693.899 802.07 710.739 802.4H710.749Z" fill="#EF6126" stroke="#EF6126" stroke-width="0.66" stroke-miterlimit="10"/>
<path d="M587.089 289.279C585.539 259.469 574.989 233.399 559.119 208.059C543.439 233.299 532.509 259.189 531.379 288.219C500.159 293.869 468.179 269.909 462.909 237.319C459.149 214.089 464.249 192.879 478.459 173.999C485.619 164.479 492.969 155.089 499.999 145.459C511.279 130.009 518.589 113.139 519.629 93.6394C520.629 74.8394 529.999 70.1794 546.159 79.6694C578.229 98.5094 596.629 141.459 590.029 182.029C589.589 184.729 589.239 187.449 590.939 191.869C599.969 183.849 609.379 176.199 617.959 167.719C632.109 153.719 641.879 154.969 647.419 174.149C652.159 190.559 656.029 207.919 656.059 224.869C656.119 265.989 629.859 289.869 587.099 289.279H587.089Z" fill="#131956" stroke="#131956" stroke-width="0.66" stroke-linecap="round" stroke-linejoin="round"/>
<path d="M523.219 680.54H401.799V558.21H523.219V680.54Z" fill="#131956" stroke="#131956" stroke-width="0.66" stroke-linecap="round" stroke-linejoin="round"/>
<path d="M588.738 680.579V558.27H710.318V680.579H588.738Z" fill="#131956" stroke="#131956" stroke-width="0.66" stroke-linecap="round" stroke-linejoin="round"/>
<path d="M498.42 800.059V741.989H620.48V800.059H498.42Z" fill="#131956" stroke="#131956" stroke-width="0.66" stroke-linecap="round" stroke-linejoin="round"/>
<path d="M405 741.289C422.22 741.289 435.85 755.009 435.67 772.139C435.49 788.879 422.21 802.199 405.49 802.409C388.42 802.629 374.31 788.989 374.15 772.099C373.99 755.249 387.96 741.289 405 741.289Z" fill="#131956" stroke="#131956" stroke-width="0.66" stroke-linecap="round" stroke-linejoin="round"/>
<path d="M710.749 802.4C693.909 802.07 680.789 788.52 680.929 771.6C681.069 754.23 694.839 740.95 712.339 741.31C728.949 741.65 742.499 755.56 742.349 772.1C742.189 789.14 728.009 802.74 710.759 802.4H710.749Z" fill="#131956" stroke="#131956" stroke-width="0.66" stroke-linecap="round" stroke-linejoin="round"/>
</svg>
