<svg width="1000" height="1150" viewBox="0 0 1000 1150" fill="none" xmlns="http://www.w3.org/2000/svg">
<path d="M228.83 1148.81C220.98 1143.43 214.83 1136.95 218.54 1126.56C222.19 1116.34 230.85 1115.09 240.48 1115.1C410.73 1115.22 580.99 1114.53 751.23 1115.69C789.26 1115.95 824.91 1090.54 815.9 1036.64C803.56 1036.64 790.98 1036.34 778.42 1036.91C776.09 1037.02 773.07 1040.17 771.81 1042.65C760.93 1064.14 743.46 1074.65 719.58 1074.65C523.94 1074.68 328.3 1074.7 132.66 1074.63C97.3303 1074.62 74.6903 1051.84 74.6703 1016.23C74.5903 822.37 74.6203 628.5 74.7003 434.64C74.7003 430.6 74.2103 425.13 76.4903 422.82C81.0303 418.22 87.0703 412.99 92.9603 412.35C100.81 411.5 106.74 417.46 107.88 426.06C108.46 430.47 108.23 435.01 108.23 439.49C108.24 629.62 108.24 819.75 108.24 1009.87C108.24 1035.48 113.72 1041.04 138.91 1041.04C331.19 1041.04 523.47 1041.03 715.75 1041.08C725.29 1041.08 734.26 1040.41 739.35 1031.1C722.64 1022.82 705.41 1016.32 690.35 1006.48C623.21 962.62 589.1 899.92 595.61 819.84C602.58 734.21 649.34 675.52 729.55 644.53C740.03 640.48 743.19 635.93 743.15 624.77C742.69 494.04 742.86 363.3 742.85 232.56C742.85 206.96 737.76 201.93 711.96 201.92C680.22 201.91 648.49 202.03 616.75 201.82C610.56 201.78 606.91 203.25 603.78 209.42C593.8 229.13 577.22 238.95 554.94 238.94C468.69 238.9 382.45 238.9 296.2 238.94C273.87 238.94 257.53 228.82 247.38 209.29C244.53 203.81 241.62 201.76 235.56 201.8C201.21 202.06 166.86 201.77 132.51 202C115.43 202.11 108.33 209.6 108.27 227.05C108.15 264.78 108.23 302.5 108.23 340.23C108.23 343.22 108.33 346.21 108.16 349.19C107.58 359.91 101.28 366.55 91.7403 366.63C82.2403 366.7 74.9103 360.19 74.8403 349.53C74.5503 305.83 73.6903 262.09 75.2503 218.44C76.3103 188.58 99.5903 168.85 130.73 168.41C163.21 167.95 195.69 168.29 228.17 168.28C232.22 168.28 236.26 168.28 241.15 168.28V127.42C236.92 127.42 232.93 127.42 228.94 127.42C185.63 127.42 142.32 127.37 99.0103 127.44C57.0603 127.51 34.0703 150.65 34.0703 192.75C34.0603 478.5 34.0703 764.25 34.0703 1050.01C34.0703 1092.15 57.0203 1115.15 99.0103 1115.17C115.81 1115.17 132.61 1115.36 149.41 1115.1C158.94 1114.95 167.54 1116.06 171.43 1126.39C175.4 1136.95 168.9 1143.09 161.59 1148.79H78.6903C78.0603 1148.39 77.4903 1147.81 76.8103 1147.63C24.6003 1133.73 0.460295 1102.29 0.450295 1048.09C0.450295 762.71 0.430295 477.33 0.450295 191.95C0.450295 132.26 38.7003 93.9799 98.4803 93.8199C141.79 93.7099 185.1 93.7999 228.41 93.7999C232.74 93.7999 237.08 93.7999 241.13 93.7999C245.11 67.4999 257.2 57.0599 282.03 57.0199C302.56 56.9899 323.12 56.5199 343.63 57.2499C352.19 57.5499 355.74 54.7299 358.74 46.8199C369.35 18.8899 396.03 1.17993 425.67 1.16993C455.16 1.15993 481.73 19.1799 492.87 46.7599C494.22 50.0999 495.48 53.4799 496.86 57.0199C519.95 57.0199 542.33 57.0199 564.71 57.0199C594.46 57.0199 603.57 64.0899 611.06 93.7999C614.81 93.7999 618.86 93.7999 622.9 93.7999C666.21 93.7999 709.52 93.4299 752.82 94.0399C764.96 94.2099 777.6 95.6199 789.09 99.3399C828.34 112.06 850.82 146.47 850.84 192.01C850.9 336.94 850.92 481.87 850.72 626.8C850.71 635.56 852.34 640.04 861.88 643.48C927.2 667.1 970.69 712.27 991.03 778.97C994.81 791.37 996.72 804.34 999.49 817.05V852.91C998.84 855.02 997.9 857.09 997.58 859.24C986.12 936.42 944.83 991.53 873.04 1021.4C854.96 1028.92 850.14 1036.93 850.32 1055.43C850.78 1102.48 822.58 1136.16 777.14 1146.94C775.76 1147.27 774.52 1148.15 773.21 1148.78H228.79L228.83 1148.81ZM797.03 666.33C703.89 666.24 628.01 741.81 627.93 834.73C627.85 927.69 703.58 1003.45 796.66 1003.52C889.84 1003.59 965.66 928.06 965.73 835.1C965.79 742.05 890.2 666.42 797.04 666.33H797.03ZM443.26 204.53C445.09 204.83 446.52 205.26 447.94 205.26C483.77 205.3 519.61 205.45 555.44 205.21C568.71 205.12 575.75 197.64 575.91 183.89C576.15 163.73 575.98 143.56 575.98 123.39C575.98 112.72 575.98 102.04 575.98 91.5599H275.62C275.62 122.69 275.52 152.92 275.66 183.15C275.73 198.7 282.53 205.23 298.54 205.28C331.39 205.39 364.24 205.31 397.09 205.32C400.7 205.32 404.31 205.32 407.73 205.32C410.99 190.76 402.36 169.55 425.4 169.24C449.06 168.92 439.85 190.42 443.26 204.53ZM817.3 632.77V620.47C817.3 477.87 817.32 335.27 817.28 192.67C817.27 150.61 794.22 127.52 752.26 127.46C708.6 127.39 664.95 127.44 621.29 127.44H610.4V168.3C615.26 168.3 619.31 168.3 623.36 168.3C655.82 168.3 688.29 168.03 720.74 168.42C747.56 168.74 767.99 183.69 774.24 207.61C776.19 215.06 776.37 223.12 776.37 230.9C776.49 360.06 776.46 489.22 776.46 618.39V632.77H817.29H817.3ZM391.16 56.2099H460.33C451.84 42.1699 440.8 35.0399 425.94 34.9699C411.06 34.8999 399.75 41.6799 391.15 56.2099H391.16Z" fill="#EF6126" stroke="#EF6126" stroke-width="0.68" stroke-miterlimit="10"/>
<path d="M350.92 647.27C297.18 647.27 243.44 647.3 189.7 647.27C162.3 647.25 149.09 634.17 148.92 607C148.86 596.92 148.72 586.83 148.97 576.76C149.54 554 163.66 539.53 186.28 539.5C296.37 539.33 406.46 539.34 516.55 539.5C539.25 539.53 553.5 554.2 553.73 576.71C553.85 587.91 553.85 599.11 553.73 610.31C553.49 633.13 539.61 647.16 516.61 647.23C461.38 647.39 406.15 647.28 350.92 647.28V647.27ZM183.21 612.77H519.55V573.74H183.21V612.77Z" fill="#131956" stroke="#131956" stroke-width="0.68" stroke-linecap="round" stroke-linejoin="round"/>
<path d="M350.91 796.15C297.55 796.15 244.18 796.18 190.82 796.15C162.41 796.13 149.02 782.76 148.92 754.42C148.89 745.46 148.84 736.5 148.93 727.54C149.2 702.02 162.81 688.29 188.57 688.11C219.17 687.89 249.77 688.05 280.37 688.05C356.87 688.05 433.37 688.03 509.87 688.05C541.72 688.06 553.74 700.15 553.75 732.01C553.75 740.6 553.8 749.18 553.74 757.77C553.58 781.87 539.75 796 515.47 796.09C460.61 796.28 405.76 796.15 350.9 796.15H350.91ZM182.52 722.41C182.52 731.97 183.18 740.88 182.35 749.64C181.37 759.96 184.98 762.79 195.33 762.76C299.44 762.38 403.55 762.53 507.66 762.53C511.6 762.53 515.54 762.53 519.63 762.53V722.41H182.52Z" fill="#131956" stroke="#131956" stroke-width="0.68" stroke-linecap="round" stroke-linejoin="round"/>
<path d="M352.01 836.839C405.75 836.839 459.49 836.799 513.23 836.849C540.68 836.879 553.7 849.9 553.76 877.18C553.78 887.63 553.9 898.09 553.72 908.54C553.35 930.19 538.78 944.499 516.59 944.599C478.9 944.769 441.2 944.649 403.51 944.649C332.23 944.649 260.95 944.669 189.66 944.649C162.65 944.639 149.08 931.099 148.92 904.079C148.86 893.999 148.7 883.909 148.96 873.839C149.55 850.799 163.35 836.969 186.3 836.899C241.53 836.729 296.77 836.849 352 836.839H352.01ZM183.18 910.199H519.6V871.089H183.18V910.199Z" fill="#131956" stroke="#131956" stroke-width="0.68" stroke-linecap="round" stroke-linejoin="round"/>
<path d="M371.951 443.02C363.521 443.02 356.841 443.29 350.191 442.97C331.021 442.06 316.741 427.56 316.231 408.29C315.901 395.98 315.971 383.65 316.201 371.33C316.581 350.47 331.441 335.84 352.511 335.35C358.441 335.21 364.381 335.33 371.951 335.33C371.951 328.44 371.841 322.24 371.971 316.05C372.411 294.9 386.621 280.29 407.791 279.61C419.351 279.24 430.931 279.33 442.491 279.58C464.831 280.07 479.261 294.76 479.651 317.17C479.751 322.71 479.661 328.26 479.661 335.33C486.151 335.33 491.981 335.26 497.801 335.34C520.071 335.66 534.881 350.21 535.391 372.52C535.651 383.71 535.651 394.92 535.391 406.12C534.881 428.11 520.621 442.46 498.861 443.08C492.961 443.25 487.051 443.11 479.651 443.11C479.651 450.25 479.791 456.46 479.621 462.66C479.051 483.86 464.541 498.44 443.511 498.82C431.951 499.02 420.371 498.98 408.811 498.83C386.821 498.56 372.391 484.28 371.961 462.48C371.841 456.57 371.941 450.67 371.941 443.02H371.951ZM446.081 314.15H405.521C405.521 323.71 405.741 332.27 405.471 340.82C404.931 358.32 394.721 368.49 377.381 368.89C368.541 369.1 359.701 368.93 350.551 368.93V409.53C359.141 409.53 366.931 409.46 374.711 409.54C395.331 409.75 405.311 419.85 405.511 440.72C405.591 448.73 405.521 456.74 405.521 464.5H446.051C446.051 455.67 445.981 447.54 446.061 439.41C446.251 419.92 456.241 409.84 475.701 409.54C484.111 409.41 492.521 409.52 501.091 409.52V368.89C491.171 368.89 481.931 369.14 472.721 368.83C456.631 368.3 446.521 358 446.101 341.82C445.861 332.9 446.061 323.97 446.061 314.14L446.081 314.15Z" fill="#131956" stroke="#131956" stroke-width="0.68" stroke-linecap="round" stroke-linejoin="round"/>
<path d="M701.961 593.72C701.961 600.8 702.301 607.91 701.891 614.96C700.851 632.8 687.311 646.39 669.421 647.07C655.651 647.6 641.841 647.55 628.061 647.11C609.801 646.53 595.621 632.99 594.561 614.57C593.771 600.82 593.831 586.96 594.491 573.2C595.421 553.94 609.841 540.26 629.521 539.52C641.431 539.07 653.371 539.2 665.291 539.45C687.901 539.91 701.701 554.08 702.081 576.93C702.171 582.52 702.091 588.11 702.091 593.71C702.041 593.71 701.991 593.71 701.941 593.71L701.961 593.72ZM628.691 573.03V612.77H667.471V573.03H628.691Z" fill="#131956" stroke="#131956" stroke-width="0.68" stroke-linecap="round" stroke-linejoin="round"/>
<path d="M778.06 799.26C798.52 781.29 818.16 764.09 837.75 746.83C857.16 729.72 876.99 730.84 894.39 750.16C901.63 758.2 909.02 766.13 915.93 774.45C928.97 790.14 928.46 810.1 913.39 823.7C874.33 858.94 834.82 893.7 795.21 928.33C784.47 937.72 771.61 937.58 760.47 928.3C733.82 906.08 707.27 883.73 681.13 860.9C665.5 847.24 664.34 826.49 677.68 810.9C686.17 800.98 694.97 791.3 704.17 782.04C717.68 768.44 735.32 767.03 750.88 778.16C759.94 784.65 768.51 791.82 778.05 799.27L778.06 799.26ZM729.44 803.95C719.97 814.33 711.24 823.89 701.63 834.42C727.42 856.26 752.56 877.55 777.91 899.01C816.4 864.94 853.79 831.85 892.03 798C882.72 787.59 873.97 777.81 864.95 767.73C852.61 778.56 841.68 788.13 830.76 797.72C819.83 807.33 809.02 817.07 797.97 826.54C784.7 837.91 773.44 838.23 759.69 827.7C749.7 820.05 739.9 812.17 729.44 803.95Z" fill="#131956" stroke="#131956" stroke-width="0.68" stroke-linecap="round" stroke-linejoin="round"/>
</svg>
