<svg width="1300" height="1300" viewBox="0 0 1300 1300" fill="none" xmlns="http://www.w3.org/2000/svg">
<path d="M1228.13 72.85C1174.87 31.09 1099.63 43.96 1060.94 101.44L640.65 725.87L399.79 537.03C346.53 495.27 271.29 508.14 232.6 565.62C193.91 623.11 205.83 704.31 259.09 746.06L596.79 1010.83C650.05 1052.59 725.29 1039.72 763.98 982.24L1254.62 253.29C1293.31 195.81 1281.39 114.61 1228.13 72.85Z" fill="#EE6126"/>
<path d="M1230.72 357.76L1128.29 507.65C1141.74 552.78 1149.01 600.55 1149.01 649.99C1149.01 925.15 925.15 1149 650 1149C374.85 1149 150.99 925.14 150.99 649.99C150.99 374.84 374.85 150.98 650 150.98C752.95 150.98 848.72 182.32 928.27 235.96L1010.41 108.95C976.64 86.42 940.79 67.07 903.04 51.1C822.86 17.19 737.73 -0.0100098 650.01 -0.0100098C562.29 -0.0100098 477.16 17.19 396.98 51.1C319.57 83.84 250.06 130.7 190.39 190.37C130.72 250.04 83.8598 319.55 51.1198 396.96C17.2098 477.14 0.00976562 562.28 0.00976562 649.99C0.00976562 737.7 17.2098 822.84 51.1198 903.02C83.8598 980.43 130.72 1049.94 190.39 1109.61C250.06 1169.28 319.57 1216.14 396.98 1248.88C477.16 1282.8 562.3 1299.99 650.01 1299.99C737.72 1299.99 822.86 1282.79 903.04 1248.88C980.45 1216.14 1049.96 1169.28 1109.63 1109.61C1169.3 1049.94 1216.16 980.43 1248.9 903.02C1282.82 822.84 1300.01 737.71 1300.01 649.99C1300.01 562.27 1282.81 477.14 1248.9 396.96C1243.27 383.65 1237.19 370.59 1230.73 357.76H1230.72Z" fill="#131956"/>
</svg>
