<svg width="1224" height="1090" viewBox="0 0 1224 1090" fill="none" xmlns="http://www.w3.org/2000/svg">
<path d="M159.909 1089.41C142.699 1079.41 136.839 1064.65 136.939 1044.73C137.579 924.18 136.869 803.61 137.919 683.06C138.009 672.41 144.939 658.92 153.079 651.67C299.319 521.44 446.239 391.98 593.009 262.35C598.729 257.3 604.479 252.28 612.019 245.66C655.769 284.14 699.279 322.29 742.659 360.6C853.549 458.52 964.509 556.36 1074.89 654.84C1081.35 660.61 1086.29 671.79 1086.34 680.48C1087.07 802.74 1086.53 925.01 1087.14 1047.28C1087.24 1066.62 1079.92 1079.75 1064.19 1089.4H159.909V1089.41ZM679.569 680.43C679.569 643.34 678.469 609.3 679.939 575.38C680.979 551.42 671.409 543.28 648.289 544.65C624.419 546.06 600.299 546.29 576.469 544.6C551.359 542.83 542.999 552.82 544.139 577.3C545.709 611.03 544.529 644.9 544.529 680.44C506.389 680.44 472.219 681.07 438.089 680.21C416.439 679.66 406.449 687.9 407.269 710.26C408.209 735.88 408.159 761.58 407.269 787.21C406.529 808.88 414.699 818.32 437.339 817.5C472.119 816.23 506.989 817.17 544.519 817.17C544.519 854.69 545.479 889.55 544.179 924.32C543.329 947.02 552.919 955.09 574.499 954.37C599.279 953.55 624.149 953.36 648.919 954.42C672.359 955.42 680.859 945.66 679.919 922.4C678.509 887.77 679.549 853.03 679.549 817.16C717.729 817.16 751.949 816.25 786.079 817.49C808.139 818.29 817.619 810.12 816.809 787.86C815.899 763.09 815.609 738.22 816.889 713.49C818.149 689.24 808.759 679.21 784.079 680.13C750.159 681.4 716.149 680.45 679.559 680.45L679.569 680.43Z" fill="#EF6126"/>
<path d="M1223.48 539.92C1207.81 557.86 1192.36 575.99 1176.43 593.69C1154.05 618.55 1138.61 619.39 1113.2 596.95C976.589 476.34 840.069 355.62 703.519 234.94C683.649 217.38 663.939 199.62 643.899 182.25C617.259 159.16 606.569 159.1 579.779 182.73C455.319 292.55 330.989 402.52 206.629 512.45C174.579 540.78 142.689 569.29 110.499 597.46C85.2793 619.52 70.0793 618.35 47.2293 593.23C36.8693 581.84 26.4993 570.45 16.3293 558.89C-5.71072 533.83 -5.0507 518.59 20.4393 495.96C115.119 411.87 210.009 328.03 304.879 244.16C385.639 172.75 466.449 101.4 547.289 30.0903C591.849 -9.21969 632.389 -9.26968 677.069 30.1903C850.229 183.1 1023.35 336.04 1196.26 489.23C1206.33 498.15 1214.45 509.28 1223.47 519.39V539.93L1223.48 539.92Z" fill="#131956" stroke="#131956" stroke-width="0.02" stroke-linecap="round" stroke-linejoin="round"/>
<path d="M679.569 680.431C716.159 680.431 750.169 681.38 784.089 680.11C808.769 679.19 818.159 689.21 816.899 713.47C815.619 738.2 815.909 763.08 816.819 787.84C817.639 810.1 808.149 818.27 786.089 817.47C751.959 816.23 717.739 817.14 679.559 817.14C679.559 853.01 678.519 887.74 679.929 922.38C680.879 945.64 672.369 955.4 648.929 954.4C624.159 953.34 599.299 953.53 574.509 954.35C552.939 955.07 543.349 947.001 544.189 924.301C545.489 889.531 544.529 854.67 544.529 817.15C506.999 817.15 472.129 816.21 437.349 817.48C414.699 818.31 406.529 808.86 407.279 787.19C408.159 761.57 408.209 735.86 407.279 710.24C406.459 687.89 416.449 679.65 438.099 680.19C472.229 681.05 506.399 680.421 544.539 680.421C544.539 644.881 545.719 611.011 544.149 577.281C543.009 552.801 551.369 542.81 576.479 544.58C600.319 546.26 624.429 546.04 648.299 544.63C671.419 543.26 680.979 551.41 679.949 575.36C678.479 609.29 679.579 643.331 679.579 680.411L679.569 680.431Z" fill="#131956" stroke="#131956" stroke-width="0.02" stroke-linecap="round" stroke-linejoin="round"/>
</svg>
