<svg width="1358" height="1360" viewBox="0 0 1358 1360" fill="none" xmlns="http://www.w3.org/2000/svg">
<path d="M748.03 1157.36H612.29C612.29 1164.14 612.29 1171.05 612.29 1177.97C612.29 1220.98 612.46 1263.98 612.23 1306.99C612.05 1341.82 594.39 1359.37 559.52 1359.43C481.4 1359.56 403.27 1359.55 325.15 1359.43C289.28 1359.38 272.02 1341.84 271.94 1305.57C271.82 1253.96 271.35 1202.35 272.23 1150.76C272.51 1134.2 276.59 1117.71 279.52 1097.08C240.04 1057.65 197.32 1014.36 153.87 971.8C127.03 945.52 106.06 915.65 90.7497 881.35C63.2897 819.84 34.6097 758.87 7.29968 697.3C-8.19032 662.37 2.41968 626.61 32.4897 606.1C59.8097 587.46 98.9797 591.24 123.15 616.33C131.17 624.66 136.6 635.74 142.14 646.13C147.62 656.42 151.73 667.44 158.29 678.39C172.83 520.15 236.44 389.16 368.29 292.12C325.08 246.68 309.14 192.54 322.44 130.87C331.67 88.07 356.76 55.63 391.5 30.2C453.3 -15.02 545.82 -7.57 605.03 48.37C639.28 80.72 656.52 121.33 657.01 168.73C657.42 208.1 652.01 222.06 609.03 291.52C632.93 311.86 656.9 332.25 680.8 352.58C704.15 332.65 727.63 312.6 753.11 290.85C710.83 248.51 696.13 195.79 706.04 137.21C712.63 98.28 733.23 65.94 763.9 40.53C828.2 -12.75 916.36 -12.99 980.78 40.2C1019.63 72.28 1040.12 113.63 1042.08 164.09C1044 213.52 1026.37 255.63 992.3 290.91C1127.27 390.08 1188.1 523.17 1202.13 680.99C1210.01 663.39 1215.51 650.03 1221.89 637.09C1235.79 608.88 1259.4 594.01 1290.23 594.51C1321.64 595.02 1345.62 611.79 1354.33 641.73C1359.11 658.17 1359.26 679.57 1352.74 695.06C1323.28 765.04 1291.96 834.33 1258.52 902.51C1247.13 925.74 1229.41 946.72 1211.35 965.67C1167.6 1011.58 1121.96 1055.69 1080.57 1097.03C1083.36 1117.22 1087.22 1133.12 1087.46 1149.07C1088.26 1201.99 1087.91 1254.92 1087.7 1307.85C1087.57 1342.08 1070.51 1359.34 1036.56 1359.42C957.77 1359.61 878.99 1359.6 800.2 1359.42C765.47 1359.34 748.2 1341.78 748.08 1306.69C747.91 1257.25 748.04 1207.81 748.04 1157.36H748.03ZM730.44 367.33C733.8 370.68 734.55 372.02 735.65 372.45C828.86 409.42 867.1 518.44 815.57 604.45C813.04 608.67 814.54 618.73 818.03 622.61C864.26 674 889.01 734.94 899.95 802.25C902.31 816.76 904.27 831.33 907.18 851.07C944.37 828.82 977.98 809.29 1010.78 788.51C1016.35 784.98 1021.84 775.96 1021.68 769.62C1020.65 728.14 1022.09 685.98 1014.9 645.43C1006.77 599.56 990.82 555.03 977.48 510.15C973.26 495.94 974.86 484.5 988.95 478.82C1002.9 473.2 1013.26 479.61 1019.26 493.11C1020.06 494.92 1021.14 496.66 1021.66 498.55C1035.28 548.81 1050.55 598.72 1061.77 649.51C1068.47 679.84 1068.83 711.57 1071.67 739.11H1156.96C1159.22 669.42 1150.03 600.97 1124.96 535.37C1092.78 451.18 1041.63 380.92 966.1 330.07C960.03 325.98 949.42 323.02 943.3 325.48C896.01 344.44 849.35 344.46 802.27 325.32C798.04 323.6 791.13 323.26 787.73 325.59C768.38 338.85 749.72 353.11 730.44 367.32V367.33ZM549.63 614.7C495.9 502.55 517.09 437.35 630.65 367.62C613.78 354.67 597.59 342.31 581.49 329.83C572.39 322.78 564.02 321.88 552.55 326.81C518.12 341.61 480.09 347.84 446.15 333.54C410.66 318.59 387.66 330.37 364.05 352.7C360.69 355.88 357.04 358.75 353.65 361.9C246.17 462.21 202.94 588.4 204.35 732.51C204.37 734.89 205.56 737.27 206.04 739H284.79C294.74 682.98 303.77 625.74 315.49 569.05C320.66 544.03 330.96 520.02 339.59 495.79C344.61 481.7 354.71 473.02 370.22 478.41C386.15 483.95 387.05 496.98 382.24 511.1C380.75 515.47 378.71 519.65 377.19 524C349.39 603.78 329.09 684.77 338.29 770.33C338.86 775.68 340.9 783.08 344.78 785.51C379.71 807.34 415.2 828.27 453.94 851.52C461.88 758.85 487.34 679.63 549.62 614.68L549.63 614.7ZM533.2 918.87C535.19 910.66 536.53 904.93 537.97 899.22C548.6 857.17 565.29 817.89 591.7 783.16C600.3 771.85 611.58 766.58 624.36 775.27C637.2 784 636.17 796.22 628.76 808.47C619.89 823.14 609.37 837.06 602.38 852.57C570.09 924.2 564.44 1000.39 566.16 1077.6C566.23 1080.93 568.36 1086.15 570.9 1087.21C596.68 1097.96 619.6 1117.8 651.16 1110.44C662.46 1107.8 674.93 1110.59 686.8 1109.91C717.28 1108.15 748.06 1116.28 776.79 1092.8C788.56 1083.18 794.43 1077.56 793.77 1063.72C793.33 1054.48 794.08 1045.19 793.77 1035.94C791.04 955.86 781.11 877.73 732.41 810.09C723.56 797.8 721.85 784.8 735.6 775.4C749.23 766.08 760.58 772.53 769.51 784.56C795.94 820.14 812.57 860.12 822.98 902.92C824.11 907.56 825.78 912.07 828.01 919.25C833.93 910.56 836.88 903.26 842.23 898.89C860.54 883.91 863.1 864.16 858.95 843.45C851.58 806.7 845.05 769.47 833.46 733.98C822.68 700.96 804.25 670.98 777.46 647.71C718.68 686.88 651.97 693.38 582.31 647.87C579.15 650.82 575.51 653.63 572.58 657.05C520.04 718.41 502.3 791.77 499.58 870.15C499.44 874.26 501.89 879.07 504.48 882.55C513.11 894.15 522.35 905.28 533.18 918.89L533.2 918.87ZM840.09 1086.16C901.1 1086.16 959.96 1086.5 1018.81 1085.69C1025.48 1085.6 1033.33 1080.26 1038.5 1075.17C1084.68 1029.7 1131.34 984.65 1175.78 937.51C1194.55 917.6 1211.71 894.66 1223.78 870.23C1254.16 808.72 1281.33 745.63 1309.55 683.07C1317.92 664.51 1313.71 648.97 1299.35 642.16C1283.89 634.83 1269.17 642.02 1260.58 661.76C1245.58 696.24 1233.09 732.02 1215.52 765.11C1198.66 796.87 1179.46 828.27 1156.26 855.56C1126.37 890.71 1091.51 921.65 1058.7 954.3C1043.14 969.79 1029.12 972.51 1019.64 961.04C1006.63 945.31 1015.81 933.36 1027.54 921.8C1057.68 892.08 1087.72 862.26 1117.31 832C1129.07 819.98 1139.52 806.69 1150.72 793.81C1123.84 774.84 1100.17 774.8 1076.23 795.24C1030.07 834.65 978.68 864.85 923.61 890.04C906.88 897.69 891.28 911.15 879.43 925.47C841.24 971.61 834.87 1026.54 840.09 1086.16ZM210.49 793.59C213.57 797.91 215.49 801.46 218.19 804.25C256.84 844.17 295.43 884.15 334.43 923.72C345.95 935.41 353.38 948.04 339.86 961.32C326.34 974.59 313.56 966.85 302.17 955.33C272.39 925.2 242.64 895.04 212.24 865.53C182.34 836.5 159.75 802.85 143.7 764.51C129.41 730.38 115.36 696.11 99.4897 662.71C95.2297 653.75 85.7797 644.27 76.7397 641.51C69.6897 639.36 55.3597 644.93 51.8697 651.26C47.3397 659.47 46.8597 673.36 50.6997 682.18C77.8397 744.55 105.99 806.51 135.07 868.01C143.45 885.73 153.54 903.78 166.92 917.79C219.47 972.81 273.6 1026.33 327.36 1080.2C330.32 1083.17 335.24 1085.83 339.26 1085.86C399.33 1086.22 459.41 1086.11 520.57 1086.11C522.92 1047.91 522.95 1011.68 509.68 977.1C496.44 942.58 478.72 909.5 443.74 893.43C384.46 866.19 328.85 834.09 279 791.66C258.17 773.93 233.35 776.05 210.48 793.6L210.49 793.59ZM362.77 171.24C363.42 239.66 420.86 295.9 488.89 294.74C556.91 293.58 612.06 237.95 612.22 170.34C612.38 102.26 555.32 45.54 486.96 45.82C418.48 46.11 362.12 103.02 362.77 171.24ZM748.1 170.89C748.49 239.33 805.54 295.55 873.81 294.74C941.55 293.94 997.15 238.22 997.59 170.69C998.03 102.79 940.95 45.74 872.65 45.82C804.07 45.9 747.72 102.49 748.1 170.89ZM795.67 1133.8V1312.41H1041.03V1133.8H795.67ZM318.9 1133.79V1312.38H564.12V1133.79H318.9ZM681.97 409.9C616.92 409.66 567.63 456.86 567 520C566.38 582.79 616.3 633.6 679.14 634.15C742.28 634.69 792.64 584.92 792.78 521.83C792.93 458.73 744.82 410.14 681.97 409.91V409.9Z" fill="#EF6126"/>
<path d="M919.039 1195.48C935.579 1204.77 952.749 1209.52 960.929 1220.78C966.139 1227.97 959.849 1254.87 955.569 1255.65C932.739 1259.79 908.589 1260.72 885.719 1257.29C880.819 1256.55 872.839 1229.08 877.809 1221.19C885.019 1209.74 902.739 1204.91 919.039 1195.48Z" fill="#131956" stroke="#131956" stroke-width="0.05" stroke-linecap="round" stroke-linejoin="round"/>
<path d="M448.159 1202.72C469.269 1201.53 489.339 1206.23 491.769 1231.66C492.669 1241.09 483.609 1259.12 476.989 1260.18C456.259 1263.52 434.069 1262.94 413.469 1258.79C407.319 1257.55 399.889 1238.98 401.129 1229.39C404.529 1203.1 426.299 1202.23 448.159 1202.72Z" fill="#131956" stroke="#131956" stroke-width="0.05" stroke-linecap="round" stroke-linejoin="round"/>
</svg>
