<svg width="1314" height="778" viewBox="0 0 1314 778" fill="none" xmlns="http://www.w3.org/2000/svg">
<path d="M1305.02 280.24C1297.83 282.27 1292.77 283.81 1287.37 285.13C1280.78 286.74 1274.1 289.34 1267.47 289.32C1138.08 288.88 1008.69 288.07 879.308 287.51C865.268 287.45 854.808 281.8 846.478 270.72C824.418 241.39 801.888 212.41 780.018 182.94C774.308 175.25 768.208 171.62 758.308 171.67C688.098 172.04 617.898 172.02 547.688 171.7C538.178 171.66 532.658 175.02 528.028 183.21C498.898 234.71 469.038 285.8 440.088 337.4C430.778 353.99 418.248 362.59 399.048 361.53C389.438 361 379.778 361.59 370.148 361.4C338.938 360.8 322.778 335.63 335.938 307.38C354.528 267.47 373.678 227.83 392.568 188.06C416.178 138.35 440.138 88.7997 463.168 38.8197C471.748 20.1997 485.078 11.8597 505.208 11.8897C624.058 12.0597 742.898 12.0597 861.748 11.8597C879.258 11.8297 892.548 17.8397 902.368 32.7997C913.428 49.6697 926.558 65.2297 936.978 82.4497C944.958 95.6397 953.388 96.9097 967.538 92.7797C1062.61 65.0197 1157.92 38.0597 1253.33 11.4697C1262.55 8.89967 1273.63 8.3697 1282.7 10.9397C1297.13 15.0297 1305.25 26.8097 1305.29 42.1297C1305.48 121.5 1304.28 200.87 1305.2 280.23C1305.2 280.26 1305.03 280.23 1305.03 280.23L1305.02 280.24ZM1071.37 261.63C1071.9 261.82 1072.19 261.63 1073.33 261.74C1135.73 261.74 1198.13 261.41 1260.52 262C1274.01 262.13 1277.74 257.51 1277.64 244.47C1277.16 181.62 1277.57 118.76 1277.62 55.9097C1277.64 34.5097 1276.36 33.6097 1255.58 39.5297C1159.44 66.9097 1063.3 94.3297 967.138 121.64C944.388 128.1 932.348 123.72 918.568 104.44C905.768 86.5197 892.698 68.7797 880.438 50.4997C875.208 42.6997 869.038 40.0197 859.858 40.0397C742.388 40.2697 624.918 40.2997 507.448 40.0097C497.178 39.9797 491.868 43.7897 487.608 52.9297C463.578 104.47 438.978 155.74 414.578 207.11C397.258 243.56 379.858 279.97 362.678 316.49C356.668 329.25 359.188 333.16 373.058 333.53C379.938 333.71 386.898 332.92 393.688 333.72C405.268 335.08 411.918 330.45 417.638 320.24C445.878 269.82 475.288 220.06 503.408 169.57C513.478 151.49 526.948 143.39 547.738 143.57C618.398 144.19 689.068 144.07 759.728 143.62C777.328 143.51 790.328 149.46 800.798 163.78C821.648 192.29 843.728 219.9 864.568 248.41C870.708 256.8 877.298 259.74 887.528 259.67C949.458 259.23 1009.44 261.64 1071.37 261.64V261.63Z" fill="#EF6126" stroke="#EF6126" stroke-width="17.2" stroke-miterlimit="10"/>
<path d="M239.899 489.149C303.229 489.149 366.559 489.409 429.879 488.979C447.529 488.859 460.279 495.229 470.699 509.579C491.449 538.159 513.459 565.829 534.509 594.209C539.919 601.499 545.709 604.949 555.079 604.909C625.759 604.569 696.439 604.559 767.119 604.909C776.779 604.959 781.979 601.259 786.549 593.149C815.199 542.419 844.689 492.149 873.019 441.249C883.049 423.219 896.229 413.679 917.239 415.439C926.359 416.199 935.589 415.459 944.769 415.599C975.099 416.049 991.399 441.119 978.649 468.779C960.979 507.099 942.509 545.049 924.399 583.169C899.799 634.959 874.929 686.619 850.779 738.619C842.419 756.629 829.519 764.779 809.759 764.739C689.969 764.489 570.179 764.519 450.399 764.729C434.309 764.759 422.239 758.929 413.159 745.559C401.569 728.479 388.539 712.329 377.629 694.839C369.809 682.289 361.989 679.439 347.269 683.769C252.669 711.579 157.719 738.239 62.8891 765.259C58.9191 766.389 54.9491 767.629 50.8891 768.239C28.1391 771.709 9.21911 756.879 9.06911 733.829C8.60911 663.159 8.6091 592.489 9.0891 521.829C9.2391 500.019 24.6191 487.259 48.5491 487.229C112.339 487.139 174.539 489.209 238.329 489.209C239.019 489.229 238.999 489.229 239.919 489.159L239.899 489.149ZM243.319 514.929C242.639 514.899 242.659 514.959 242.259 514.949C179.869 514.949 117.469 514.999 55.0791 514.919C37.5791 514.899 36.6991 515.559 36.6891 533.709C36.6591 596.559 36.6591 659.409 36.6891 722.259C36.6891 741.829 38.3691 743.059 57.3791 737.659C154.399 710.079 251.399 682.419 348.449 654.909C369.569 648.919 382.179 653.459 394.959 671.229C407.549 688.729 420.379 706.089 432.239 724.079C438.179 733.089 444.909 736.539 455.869 736.509C572.409 736.109 688.949 736.109 805.489 736.509C816.819 736.549 822.669 732.859 827.419 722.669C858.079 657.029 889.359 591.669 920.429 526.219C931.049 503.849 941.799 481.539 952.169 459.059C957.279 447.959 954.619 443.879 942.549 443.409C935.219 443.129 927.789 444.019 920.549 443.189C908.959 441.859 902.349 446.449 896.629 456.669C867.939 507.879 838.219 558.519 809.419 609.679C800.319 625.839 787.729 633.069 769.219 632.969C697.189 632.579 625.149 632.549 553.119 632.999C535.879 633.109 523.559 626.749 513.459 612.959C492.579 584.479 470.559 556.829 449.679 528.349C443.569 520.019 436.969 516.899 426.709 516.979C365.239 517.409 304.829 514.959 243.359 514.959L243.319 514.929Z" fill="#EF6126" stroke="#EF6126" stroke-width="17.2" stroke-miterlimit="10"/>
<path d="M659.939 484.32C630.119 484.32 600.309 484.52 570.489 484.28C534.729 483.98 518.749 455.8 536.869 425.05C566.429 374.88 596.109 324.77 625.869 274.72C643.489 245.1 674.839 244.76 692.639 274.06C723.349 324.61 753.949 375.24 784.369 425.96C801.859 455.12 786.059 483.77 752.119 484.22C721.389 484.63 690.659 484.31 659.919 484.31L659.939 484.32ZM660.309 456.34C689.679 456.34 719.049 456.5 748.409 456.28C764.139 456.16 766.859 451.34 758.889 438.08C729.329 388.95 699.689 339.87 669.969 290.84C661.749 277.28 656.989 277.3 648.879 290.95C619.839 339.85 590.899 388.82 562.019 437.82C554.099 451.25 556.709 456.14 572.209 456.27C601.579 456.52 630.939 456.34 660.309 456.34Z" fill="#131956" stroke="#131956" stroke-width="17.2" stroke-linecap="round" stroke-linejoin="round"/>
</svg>
