<svg width="1216" height="1216" viewBox="0 0 1216 1216" fill="none" xmlns="http://www.w3.org/2000/svg">
<path d="M315.37 360.21C315.37 266.05 315.35 175.54 315.37 85.0301C315.39 24.3601 339.05 0.610142 400.13 0.560142C539.34 0.450142 678.54 0.450131 817.75 0.580131C876.13 0.640131 900.62 25.1201 900.64 82.8601C900.67 167.32 900.64 251.78 900.62 336.24C900.62 343.47 900.62 350.7 900.62 360.21C929.06 360.21 955.22 360.21 981.38 360.21C1018.55 360.22 1055.71 360.17 1092.88 360.28C1143.84 360.42 1170.55 386.86 1170.57 437.65C1170.66 620.09 1170.6 802.52 1170.6 984.96C1170.6 1015.26 1170.6 1045.57 1170.6 1077.15C1177.14 1077.73 1182.27 1078.57 1187.41 1078.58C1205.64 1078.61 1215.23 1087.7 1215.43 1105.76C1215.73 1133.46 1215.57 1161.16 1215.37 1188.86C1215.25 1206.22 1205.95 1214.83 1188.84 1215.23C1179.39 1215.45 1169.93 1215.47 1160.47 1215.47C787.45 1215.49 414.43 1215.5 41.4097 1215.53C5.43966 1215.53 0.309656 1210.47 0.369656 1174.75C0.399656 1157.86 0.419654 1140.97 0.429654 1124.07C0.449654 1082.63 1.76966 1081.16 45.4097 1077.19C45.4097 1069.64 45.4097 1061.8 45.4097 1053.96C45.4097 850.58 45.4097 647.2 45.4097 443.82C45.4097 384.79 69.9097 360.32 129.1 360.26C183.16 360.2 237.22 360.23 291.28 360.22C298.53 360.22 305.77 360.22 315.34 360.22L315.37 360.21ZM449.91 1077.78C449.91 1068.75 449.91 1061.45 449.91 1054.14C449.92 954.16 449.91 854.17 449.97 754.19C449.99 725.47 455.88 719.34 484.25 719.29C566.68 719.14 649.1 719.11 731.53 719.18C759.67 719.2 766.05 725.63 766.07 754C766.15 853.98 766.09 953.97 766.09 1053.95C766.09 1061.75 766.09 1069.56 766.09 1077.07H854.5C854.5 1070.2 854.5 1064.91 854.5 1059.61C854.51 733.31 854.55 407.01 854.5 80.7101C854.5 53.4901 848.62 47.7601 820.97 47.7501C679.76 47.6801 538.55 47.7001 397.35 47.7401C366.4 47.7401 361.51 52.8102 361.51 84.5702C361.51 408.17 361.52 731.76 361.53 1055.36C361.53 1062.55 361.53 1069.74 361.53 1077.77H449.92L449.91 1077.78ZM314.47 410.16C312.65 409.01 311.52 407.68 310.39 407.67C244.21 407.35 178.02 406.64 111.86 407.73C105.44 407.84 94.0397 418.87 93.7497 425.24C92.0197 462.74 92.8997 500.36 92.8997 539.63C137.41 539.63 179.85 539.77 222.28 539.56C238.62 539.48 249.02 547.45 248.99 563.22C248.97 579.16 238.17 586.71 221.99 586.63C186.85 586.46 151.72 586.65 116.58 586.69C108.86 586.69 101.15 586.69 93.5697 586.69V719.2C101.21 719.2 107.78 719.2 114.36 719.2C148.82 719.23 183.28 719.51 217.74 719.2C234.54 719.05 247.79 723.45 249.25 742.56C250.37 757.27 238.32 765.88 218.24 765.96C189.18 766.08 160.13 766.02 131.07 766.04C118.56 766.04 106.06 766.04 94.2497 766.04V899.36C135.76 899.36 175.55 899.68 215.33 899.21C232.31 899.01 247.37 900.76 249.02 921.81C250.26 937.65 238.41 945.32 214.29 945.36C181.86 945.42 149.42 945.36 116.99 945.36C109.27 945.36 101.55 945.36 94.0997 945.36V1077.2H314.46V410.13L314.47 410.16ZM1123.49 539.59C1123.49 504.07 1123.57 471.1 1123.46 438.13C1123.38 412.73 1117.74 406.67 1092.81 406.57C1035.37 406.34 977.94 406.42 920.5 406.55C914.13 406.56 907.76 407.69 901.95 408.25V1076.95H1121.66V945.38C1078.01 945.38 1036.21 945.23 994.4 945.45C978.51 945.53 967.08 939.27 967.12 922.66C967.15 906.54 977.55 899.19 993.92 899.32C1036.32 899.65 1078.72 899.43 1121.75 899.43V766.89C1116.71 766.55 1113.39 766.14 1110.06 766.13C1070.87 766.04 1031.68 765.92 992.48 766.02C976.92 766.06 967.46 758 966.96 743.28C966.45 728.18 976.21 719.99 991.46 719.51C1002.94 719.15 1014.43 719.23 1025.92 719.22C1058.04 719.19 1090.16 719.21 1121.93 719.21V586.6C1079.87 586.6 1039.39 586.69 998.91 586.56C977.57 586.5 964.94 577.31 966.74 562.02C968.95 543.36 982.04 539.16 998.98 539.4C1039.45 539.98 1079.94 539.59 1123.49 539.59ZM718.13 767.59H497.97V1077.51H718.13V767.59ZM1167.45 1127.07H48.8697V1166.58H1167.46V1127.07H1167.45Z" fill="#EF6126"/>
<path d="M651.85 218.92H756.75V308.01H653.32V412.41H563.34V309.43H459.5V219.61H562.81V114.91H651.85V218.93V218.92Z" fill="#131956"/>
</svg>
