<svg width="1551" height="1108" viewBox="0 0 1551 1108" fill="none" xmlns="http://www.w3.org/2000/svg">
<path d="M1549.87 786.89C1540.17 810.35 1531.84 834.52 1520.31 857.04C1511.96 873.35 1495.8 876.67 1483.54 868.49C1471.16 860.23 1468.79 845.07 1480.1 830.06C1509.61 790.88 1505.45 733.71 1470.4 698.65C1463.55 691.8 1460.4 679.14 1459.54 668.82C1456.89 637.28 1460.34 604.71 1453.96 574.1C1434.96 482.97 1351.04 424.19 1258.08 433.19C1169.21 441.79 1100.1 517.23 1096.5 610.07C1095.7 630.71 1096.42 651.4 1096.19 672.07C1095.98 691.16 1086.95 702.11 1071.8 702.18C1056.57 702.25 1047.18 691.28 1047.24 672.28C1047.38 625.05 1044.53 577.79 1061.9 531.97C1095.64 442.97 1186.42 380.05 1280.02 382.69C1383.26 385.59 1470.64 451.81 1499.01 547.56C1509.24 582.09 1507.76 617.24 1508.84 652.44C1509.11 661.18 1512.36 671.38 1517.74 678.14C1535.58 700.53 1543.43 726.67 1549.9 753.61V786.88L1549.87 786.89Z" fill="#131956" stroke="#131956" stroke-width="0.92" stroke-linecap="round" stroke-linejoin="round"/>
<path d="M1549.87 1089.38C1543.19 1101 1534.71 1110.16 1519.76 1106.58C1504.14 1102.84 1501.07 1090.51 1500.08 1076.45C1493.12 977.2 1443.35 908.83 1350.41 873.14C1309.88 857.58 1267.86 858.09 1225.4 866.44C1216.33 868.22 1203.46 865.92 1196.55 860.32C1181.5 848.13 1189.56 825.15 1209.87 820.13C1280.95 802.55 1349.11 810.39 1412.54 847.41C1488.45 891.71 1533.13 958.02 1546.94 1044.94C1547.38 1047.74 1548.87 1050.38 1549.87 1053.09V1089.39V1089.38Z" fill="#EF6126"/>
<path d="M1060.02 201.72C1055.32 215.91 1062.48 227.32 1073.01 239.87C1109.01 282.71 1106.53 352.13 1068.42 394.22C1061 402.41 1058.39 410.14 1059.25 421.11C1063.25 472.11 1042.83 512.4 999.259 537.94C954.559 564.14 908.539 561.54 865.349 532.15C857.359 526.71 851.259 525.55 842.169 528.48C797.699 542.77 752.869 542.68 708.339 528.77C699.479 526 693.319 526.1 685.069 531.7C611.699 581.53 518.539 548.4 494.139 463.46C489.949 448.87 492.159 432.54 490.309 417.15C489.489 410.28 487.679 402.22 483.369 397.26C440.719 348.24 440.519 280.66 482.919 231.9C487.289 226.88 490.949 218.45 490.179 212.19C482.139 147.1 528.089 85.6998 591.199 75.3498C596.189 74.5298 602.229 69.7198 604.629 65.1298C633.309 10.0698 706.489 -16.5602 766.299 12.6298C771.219 15.0298 779.179 14.5298 784.469 12.3398C848.319 -14.0802 908.469 5.61979 945.049 64.5298C948.599 70.2398 957.099 74.6298 964.079 76.1998C1020.53 88.8898 1062.08 141.73 1060.03 201.71L1060.02 201.72ZM645.029 498.32C640.909 494.75 638.729 492.71 636.399 490.85C514.689 393.64 523.039 211.09 653.109 125.78C681.069 107.44 696.489 114.07 702.569 147.05C716.309 221.49 782.479 281.59 858.119 288.44C893.189 291.61 926.019 284.44 957.629 269.11C979.849 258.33 996.539 267.61 998.549 290.97C1003.68 350.66 989.489 405.1 951.679 452.13C938.229 468.86 922.289 483.58 907.199 499.52C933.739 510.58 959.709 508.29 982.779 489.58C1005.67 471.02 1016.01 446.29 1008.68 417.11C1003.92 398.17 1005.13 384.13 1021.88 370.62C1058.91 340.76 1058.7 288.48 1021.92 257.86C1007.1 245.52 1003.24 232.93 1007.97 214.35C1019.43 169.29 990.109 127.73 944.079 123.97C923.489 122.29 911.619 114.63 903.939 94.6598C888.239 53.8498 837.479 37.0998 800.629 60.3898C782.389 71.9198 767.939 72.3598 749.529 60.6198C712.659 37.1098 661.629 53.5198 646.099 94.2898C638.159 115.14 625.779 122.43 604.679 124.09C560.539 127.57 530.199 169.87 541.519 212.42C546.989 232.97 542.069 246.22 525.969 259.59C491.719 288.03 491.949 341.13 526.419 369.41C542.239 382.38 547.239 395.45 541.619 415.24C533.199 444.92 543.539 470.2 566.729 489.28C589.709 508.19 615.859 510.66 645.029 498.32ZM949.009 328.7C811.809 359.91 716.249 310.19 659.049 183.81C602.389 229.31 583.289 317.07 614.809 386.05C648.669 460.16 727.599 501.48 807.319 486.85C883.479 472.87 944.469 404.98 948.999 328.7H949.009Z" fill="#EF6126" stroke="#EF6126" stroke-width="0.92" stroke-miterlimit="10"/>
<path d="M1039.91 817.19C862.819 937.98 687.299 938.1 510.219 817.39C483.019 843.13 460.649 873.88 442.739 907.8C415.269 959.82 400.569 1015.32 399.469 1074.28C399.409 1077.3 399.379 1080.35 398.919 1083.32C396.599 1098.45 385.929 1108.17 372.759 1107.31C359.229 1106.42 348.759 1095.63 350.079 1080.37C352.789 1048.84 353.689 1016.57 361.389 986.14C396.779 846.27 480.309 744.54 614.519 690.48C761.839 631.14 902.449 650.51 1030.63 744.39C1112.89 804.64 1165.08 886.7 1188.41 985.84C1195.5 1015.98 1196.87 1047.55 1199.7 1078.57C1201.21 1095.07 1191.45 1106.18 1177.35 1107.29C1163.16 1108.4 1152.82 1097.59 1150.51 1080.62C1145.89 1046.82 1143.46 1012.42 1135.22 979.48C1119.5 916.61 1085.63 863.33 1039.92 817.19H1039.91ZM551.439 782.63C682.469 887.49 883.759 877.86 998.159 781.97C865.019 679.16 672.339 686.38 551.439 782.63Z" fill="#EF6126"/>
<path d="M39.7891 696.26C41.4991 655.55 40.0191 614.39 45.5491 574.2C59.0891 475.78 145.589 394.84 243.979 384.6C365.359 371.97 471.739 446.1 496.469 565.19C504.429 603.54 501.339 644.3 502.019 683.97C502.249 697.27 490.619 705.91 477.639 705.68C464.209 705.44 454.459 696.16 453.869 681.46C452.629 650.28 454.189 618.84 450.809 587.91C441.309 500.97 363.539 433.5 274.089 432.5C184.439 431.49 106.099 496.73 93.7391 583.79C90.9291 603.61 90.9991 623.93 90.8391 644.02C90.4591 693.4 90.7191 742.78 90.7091 792.17C90.7091 796.2 90.9191 800.25 90.5691 804.26C89.2391 819.58 79.2691 829.49 65.5991 829.34C51.8791 829.19 41.9091 819.37 41.6991 803.64C41.2091 767.87 41.5491 732.09 41.5491 696.31C40.9691 696.29 40.3791 696.27 39.7991 696.25L39.7891 696.26Z" fill="#131956" stroke="#131956" stroke-width="0.92" stroke-linecap="round" stroke-linejoin="round"/>
<path d="M420.49 612.17C420.47 684.01 365.6 748.62 296.99 759.49C223.77 771.09 153.49 728.31 131.45 658.73C110.96 594.05 135.06 525.65 191.05 489.56C214.11 474.7 229.67 480.84 236.63 507.55C254.44 575.94 313.93 605.18 379.17 577.59C402.37 567.78 417.23 576.68 419.85 602.02C420.26 606.02 420.36 610.05 420.49 612.18V612.17ZM366.28 635.4C290.47 646.44 234.25 617.65 197.57 550.67C169.89 580.35 165.73 624.94 186.47 662.06C206.71 698.28 250.19 718.54 290.44 710.49C329.44 702.69 362.65 670.23 366.28 635.4Z" fill="#EF6126" stroke="#EF6126" stroke-width="0.92" stroke-miterlimit="10"/>
<path d="M1278.37 557.5C1315.19 557.5 1352.02 557.41 1388.84 557.53C1411.77 557.61 1418.95 563.84 1423.29 586.7C1438.1 664.69 1389.25 737.85 1308.77 758.22C1238.31 776.05 1160.14 730.36 1137.17 658.55C1129.62 634.95 1127.48 611.44 1132.03 587.1C1136.26 564.52 1143.7 557.64 1166.38 557.55C1203.71 557.4 1241.04 557.51 1278.37 557.51V557.5ZM1180.48 608.48C1175.82 663.69 1220.6 711.21 1276.92 711.74C1333.59 712.27 1379.52 664.76 1375.61 608.48H1180.48Z" fill="#EF6126" stroke="#EF6126" stroke-width="0.92" stroke-miterlimit="10"/>
<path d="M273.26 810.1C290.81 812.52 311.83 814.77 332.6 818.47C353.67 822.22 363.06 833.56 359.98 849.1C356.91 864.59 343.66 871.05 322.82 866.56C270.26 855.25 219.27 859.67 171.59 884.89C100.11 922.69 59.48 982.3 50.71 1063.02C50 1069.52 49.81 1076.09 49.04 1082.58C47.17 1098.28 37.46 1107.76 23.95 1107.34C9.92998 1106.9 0.00998322 1095.86 0.129983 1079.63C0.389983 1043.98 6.85997 1009.18 21.76 976.94C70.47 871.55 154.26 817.47 273.26 810.09V810.1Z" fill="#EF6126"/>
</svg>
