<svg width="1266" height="1118" viewBox="0 0 1266 1118" fill="none" xmlns="http://www.w3.org/2000/svg">
<path d="M1000.55 753.03C1000.55 734.47 1000.42 719.22 1000.61 703.98C1000.7 696.47 1000.41 688.77 1001.95 681.5C1007.18 656.85 1027.07 641.16 1053.01 640.94C1082.46 640.69 1111.91 640.89 1141.36 640.85C1145.46 640.85 1149.6 640.85 1153.67 640.42C1183.14 637.35 1200.07 618.91 1200.2 589.27C1200.38 547.15 1200.16 505.02 1200.35 462.9C1200.38 456.82 1200.87 450.49 1202.63 444.73C1207.41 429.13 1220.89 421.24 1237.83 423.22C1252.87 424.98 1263.81 436.26 1265.49 451.76C1265.64 453.12 1265.81 454.49 1265.81 455.86C1265.73 504.49 1266.54 553.14 1265.3 601.74C1263.92 655.82 1221.41 700.19 1167.59 703.99C1137.6 706.11 1107.42 705.78 1077.33 705.97C1069.16 706.02 1065.76 707.95 1065.99 716.83C1066.56 738.39 1066.16 759.97 1066.18 781.55C1066.21 805.24 1057.05 823.4 1034.6 833.23C1013.09 842.65 991.621 838.15 973.491 820.32C954.451 801.59 935.691 782.57 916.781 763.7C914.201 761.12 911.491 758.66 906.931 754.34C906.641 760.32 906.321 763.86 906.311 767.39C906.161 803.69 906.871 840.01 905.751 876.28C903.841 937.86 858.601 984.13 797.211 985.5C732.181 986.95 667.091 986.05 602.031 985.76C584.581 985.68 572.511 976.01 569.351 961.56C565.951 946.02 571.701 930.77 584.881 924.93C591.801 921.86 600.031 920.58 607.681 920.54C667.261 920.2 726.851 920.36 786.431 920.34C821.311 920.33 840.541 901.29 840.621 866.44C840.731 817.81 840.671 769.18 840.631 720.54C840.621 706.54 840.531 706.52 826.281 706.52C713.271 706.52 600.261 706.47 487.251 706.56C467.241 706.58 447.501 705.07 428.981 696.94C382.661 676.63 361.461 639.21 360.801 590.4C359.751 513.03 360.511 435.63 360.511 358.25C360.511 354.88 360.511 351.51 360.511 347.07C355.951 346.86 352.311 346.54 348.671 346.54C272.651 346.51 196.621 346.46 120.601 346.54C85.2909 346.58 67.0409 364.01 66.9809 399.42C66.7109 555.25 66.7309 711.08 66.9609 866.9C67.0109 902.71 85.4409 920.3 121.181 920.34C148.921 920.37 176.661 920.28 204.401 920.4C210.191 920.43 216.091 920.56 221.761 921.62C249.931 926.89 265.311 944.42 266.571 973.21C267.241 988.59 266.791 1004.03 266.901 1019.44C266.921 1022.73 267.181 1026.01 267.451 1031.68C271.611 1027.83 274.291 1025.49 276.811 1022.99C302.821 997.18 329.141 971.68 354.661 945.39C371.421 928.13 390.661 919.48 415.021 920.32C443.071 921.28 471.171 920.48 499.251 920.57C520.941 920.63 534.391 933.27 534.381 953.34C534.361 973.06 520.621 985.73 498.941 985.99C471.571 986.32 444.181 986.24 416.831 987.3C411.061 987.52 404.141 990.59 399.961 994.64C364.561 1028.96 329.781 1063.92 294.611 1098.47C277.421 1115.36 256.961 1122.66 233.661 1113.9C212.701 1106.01 202.021 1089.35 201.411 1067.06C200.821 1045.84 201.321 1024.6 201.231 1003.36C201.151 984.01 203.171 986.09 183.361 986.01C160.461 985.92 137.551 986.08 114.651 985.97C63.2909 985.73 21.3509 955.19 6.25089 906.06C2.81089 894.86 0.710888 882.77 0.690888 871.08C0.330888 710.8 -0.82911 550.51 1.13089 390.25C1.83089 332.41 43.1709 290.31 91.1409 283.49C102.271 281.91 113.601 281 124.841 280.97C199.151 280.75 273.461 280.86 347.781 280.85C360.821 280.85 360.211 280.8 360.281 267.83C360.581 212.38 359.421 156.84 362.361 101.52C365.301 46.2903 410.201 4.88028 465.551 1.74028C479.551 0.950284 493.581 0.460285 507.601 0.460285C714.781 0.380285 921.951 0.200295 1129.13 0.720295C1149.75 0.770295 1171.17 2.4103 1190.8 8.1603C1234.83 21.0503 1264.49 60.1703 1265.22 106.04C1266.44 182.73 1265.78 259.46 1265.91 336.17C1265.92 343.36 1266.14 350.57 1265.78 357.74C1264.89 375.7 1251.75 388.46 1233.99 388.94C1216.53 389.41 1202.41 377.01 1200.51 359.36C1200.11 355.63 1200.28 351.83 1200.28 348.07C1200.33 273.76 1200.42 199.45 1200.46 125.14C1200.48 87.0103 1180.61 66.5703 1142.5 66.4403C1094.57 66.2803 1046.63 66.8103 998.701 66.8303C831.591 66.8903 664.471 66.8403 497.361 66.8703C488.131 66.8703 478.771 66.1803 469.711 67.4803C443.791 71.1903 426.791 91.7903 426.551 119.33C426.281 149.12 426.441 178.92 426.491 208.72C426.621 279.26 426.861 349.8 426.961 420.35C427.031 476.5 426.461 532.66 427.141 588.81C427.541 622.14 442.671 637.32 475.721 640.43C480.481 640.88 485.301 640.88 490.091 640.88C593.171 640.9 696.251 640.91 799.321 640.88C820.551 640.88 841.771 640.62 863.001 640.73C880.321 640.82 894.801 647.76 906.941 659.92C934.771 687.78 962.611 715.61 990.471 743.44C992.981 745.95 995.611 748.33 1000.58 753.05L1000.55 753.03Z" fill="#EF6126"/>
<path d="M708.791 289.8C710.191 233.55 755.391 188.61 813.821 185.39C866.071 182.51 916.451 223.74 924.431 275.92C931.971 325.18 911.211 367.27 867.461 390.5C858.161 395.44 854.271 401.57 855.301 412.62C856.331 423.7 855.791 435.34 853.511 446.23C849.771 464.12 833.071 474.94 814.221 473.7C795.751 472.48 780.481 458.87 779.641 439.29C778.801 419.67 779.321 399.63 782.421 380.28C786.691 353.65 804.521 336.25 828.331 324.92C842.001 318.42 849.871 308.5 849.201 292.85C848.541 277.35 836.611 264.41 821.041 262.31C805.941 260.27 790.801 270.23 786.501 285.25C785.471 288.84 785.071 292.61 784.501 296.32C780.731 320.79 764.921 333.99 741.661 332.07C721.701 330.43 708.221 313.09 708.801 289.8H708.791Z" fill="#131956" stroke="#131956" stroke-width="0.15" stroke-linecap="round" stroke-linejoin="round"/>
<path d="M465.291 743.3C493.371 743.7 515.301 766.2 514.791 794.07C514.281 821.74 491.351 843.98 463.691 843.62C436.661 843.27 414.101 820.53 414.031 793.54C413.951 765.35 436.861 742.89 465.291 743.3Z" fill="#131956" stroke="#131956" stroke-width="0.15" stroke-linecap="round" stroke-linejoin="round"/>
<path d="M601.331 743.29C629.361 743.65 651.341 766.16 650.911 794.06C650.491 821.74 627.541 843.99 599.821 843.61C571.981 843.23 550.221 820.67 550.571 792.56C550.921 764.34 572.991 742.92 601.331 743.28V743.29Z" fill="#131956" stroke="#131956" stroke-width="0.15" stroke-linecap="round" stroke-linejoin="round"/>
<path d="M378.192 793.24C378.262 821.39 356.302 843.62 328.432 843.62C300.852 843.62 277.982 820.89 277.862 793.38C277.742 765.9 300.432 743.37 328.312 743.29C356.762 743.21 378.122 764.6 378.192 793.25V793.24Z" fill="#131956" stroke="#131956" stroke-width="0.15" stroke-linecap="round" stroke-linejoin="round"/>
<path d="M854.89 532.53C854.48 553.79 837.38 570.4 816.58 569.77C795.47 569.12 778.62 551.22 779.2 530.06C779.77 509.4 797.16 493.27 818.49 493.64C839.48 494 855.31 510.92 854.89 532.54V532.53Z" fill="#131956" stroke="#131956" stroke-width="0.15" stroke-linecap="round" stroke-linejoin="round"/>
</svg>
