<svg width="1504" height="1130" viewBox="0 0 1504 1130" fill="none" xmlns="http://www.w3.org/2000/svg">
<path d="M1.82031 377.07C1.82031 371.09 1.82031 365.11 1.82031 359.13C2.36031 358.26 3.1403 357.45 3.4203 356.5C8.7803 337.76 21.1903 326.62 40.0403 322.41C48.2403 320.58 56.4803 318.93 64.6503 316.99C142.06 298.66 215.36 269.29 286.51 234.19C366.84 194.55 442.91 147.41 519.61 101.39C565.63 73.7803 611.78 46.4803 660.57 23.8903C718.63 -2.98967 776.67 -5.32969 835.91 20.7503C888.46 43.8803 937.23 73.6903 986.57 102.58C1046.21 137.51 1105.33 173.38 1165.74 206.94C1260.43 259.56 1359.64 301.09 1466.31 323.07C1482.07 326.32 1492.52 336.47 1498.81 351.09C1499.96 353.76 1501.07 356.45 1502.19 359.13V377.07C1501.69 377.97 1500.96 378.8 1500.72 379.76C1488.96 426.72 1471.64 471.65 1450.65 515.16C1415.46 588.11 1370.72 654.89 1319.27 717.31C1316.66 720.48 1314.87 725.37 1314.85 729.47C1314.57 783.28 1314.9 837.1 1314.54 890.91C1314.44 906.37 1315.84 921.8 1308.23 936.87C1290.4 972.14 1263.14 998.48 1231.64 1020.8C1183.04 1055.24 1128.34 1076.39 1071.23 1091.73C980.3 1116.15 887.29 1124.76 793.56 1126.96C720.23 1128.68 646.89 1127.35 574.11 1117.4C532.58 1111.72 491.05 1104.96 450.17 1095.79C388.78 1082.02 330.16 1060.28 277.77 1024.37C243.83 1001.11 213.48 974.19 196.13 935.68C192.66 927.97 189.85 919.23 189.66 910.89C188.93 878.04 189.26 845.17 189.39 812.31C189.52 779.99 189.93 747.67 189.99 715.36C189.99 713.29 188.37 710.92 186.92 709.18C174.24 693.98 160.94 679.27 148.72 663.7C98.0503 599.09 55.8403 529.46 26.6803 452.47C17.3203 427.75 10.0703 402.23 1.85031 377.08L1.82031 377.07ZM1391.02 396.72C1389.38 395.86 1388.93 395.51 1388.42 395.38C1309.52 373.82 1233.95 343.54 1160.34 308.13C1072.68 265.97 990.62 213.96 907.18 164.38C871.29 143.05 835.21 121.95 796.09 106.85C775.45 98.8803 754.49 91.5803 732.06 99.0003C717.16 103.93 701.77 108.24 687.99 115.48C648.43 136.28 609.33 158.01 570.49 180.13C508.78 215.28 448.09 252.28 385.74 286.24C311.59 326.62 233.81 359.06 153.08 384.16C140.07 388.2 126.98 391.97 113.23 396.07C148.23 492.39 201.31 576.73 265.15 654.31C283.16 646.55 300.04 638.48 317.48 631.9C384.43 606.66 453.78 591.11 524.45 580.53C586.83 571.2 649.53 566.37 712.49 565.01C802.15 563.08 891.47 567.26 980.3 580.66C1035.85 589.04 1090.82 599.96 1144.18 617.51C1178.06 628.65 1211.08 642.41 1245.85 655.5C1305.2 577.15 1356.7 491.99 1391.01 396.7L1391.02 396.72ZM305.52 924.8C316.27 933.88 325.63 943.43 336.51 950.69C374.16 975.83 416.52 990.17 459.83 1001.78C533.32 1021.48 608.54 1029.41 684.28 1032.2C778.25 1035.67 872.03 1033.22 965.15 1018.29C1025.36 1008.63 1084.1 993.97 1139.16 967C1160.94 956.33 1181.49 943.77 1197.88 923.11C1180.9 915.51 1164.74 907.13 1147.79 900.91C1084.13 877.56 1017.89 865.15 950.85 856.92C890.99 849.58 830.81 846.5 770.52 846.13C695.28 845.67 620.22 848.48 545.47 858.07C488.91 865.33 433.14 876.03 378.67 893.08C353.77 900.88 329.72 910.6 305.52 924.79V924.8ZM1220.73 828.9C1220.73 804.12 1220.86 780.23 1220.51 756.36C1220.48 754.09 1217.9 750.97 1215.68 749.76C1201.66 742.13 1187.85 733.88 1173.17 727.77C1097.57 696.29 1018.15 679.67 937.32 669.33C879.66 661.95 821.66 658.23 763.53 658.71C721.2 659.06 678.82 660.18 636.58 662.92C600.9 665.23 565.23 669.19 529.88 674.53C476.8 682.55 424.45 694.34 373.51 711.7C344.25 721.67 315.04 731.84 289.06 749.17C286.64 750.79 283.55 753.81 283.51 756.23C283.1 780.33 283.26 804.45 283.26 829.26C285.96 828.3 287.94 827.6 289.91 826.89C319.19 816.38 348.07 804.51 377.84 795.65C440.37 777.03 504.68 766.54 569.53 760.86C621.93 756.27 674.58 753.5 727.17 752.49C816.82 750.77 906.23 755.31 995.12 768.32C1053.7 776.89 1111.38 789.09 1167.42 808.34C1185.01 814.38 1202.16 821.69 1220.74 828.9H1220.73Z" fill="#EF6126" stroke="#EF6126" stroke-width="3.26" stroke-miterlimit="10"/>
<path d="M846.251 335.26C839.021 380.67 823.591 420.18 791.761 451.83C766.111 477.34 737.131 477.29 711.821 451.43C679.941 418.84 663.231 379.01 658.451 334C658.161 331.24 659.521 327.42 661.481 325.45C717.441 269.1 787.351 269.46 842.851 325.89C845.251 328.33 845.441 332.94 846.231 335.26H846.251Z" fill="#131956" stroke="#131956" stroke-width="3.26" stroke-linecap="round" stroke-linejoin="round"/>
</svg>
