<svg width="45" height="50" viewBox="0 0 45 50" fill="none" xmlns="http://www.w3.org/2000/svg">
<path d="M34.4204 26.5499C33.6004 25.8699 32.4205 25.9498 31.7105 26.8298C30.2605 28.6398 28.5204 30.1599 26.8804 31.7799C25.6204 33.0299 24.4004 34.3199 23.7904 36.0499C23.7104 36.2799 23.5604 36.2699 23.3804 36.2699C20.6404 36.2699 17.9005 36.2699 15.1505 36.2699C14.8605 36.2699 14.7504 36.1599 14.6704 35.9199C14.4804 35.3499 14.1804 34.8398 13.8504 34.3398C13.1804 33.3198 12.3304 32.4598 11.4704 31.6098C10.0504 30.2198 8.56047 28.9099 7.28047 27.3899C5.38047 25.1299 4.31041 22.5498 4.22041 19.5798C4.09041 15.2798 5.55045 11.5799 8.57045 8.52989C10.4504 6.62989 12.7104 5.32986 15.3004 4.62986C16.6304 4.26986 17.9904 4.13983 19.3604 4.09983C20.3204 4.06983 21.1004 3.36981 21.2204 2.44981C21.3504 1.53981 20.8204 0.679831 19.9404 0.349831C19.8504 0.319831 19.7704 0.279846 19.6804 0.239846H18.6204C18.5204 0.239846 18.4305 0.219846 18.3305 0.239846C18.2005 0.239846 18.0804 0.239846 17.9404 0.239846L17.4005 0.309914C17.3005 0.349914 17.2204 0.339831 17.1304 0.349831C16.6004 0.429831 16.0804 0.489831 15.5504 0.599831C13.1604 1.06983 10.9304 1.9599 8.88045 3.2999C6.65045 4.7599 4.79047 6.59981 3.34047 8.82981C1.51047 11.6398 0.520416 14.7298 0.350416 18.0898C0.190416 21.3598 0.850431 24.4299 2.49043 27.2699C3.63043 29.2499 5.15046 30.9098 6.77046 32.4898C7.92046 33.6198 9.15044 34.6699 10.1904 35.9099C10.9004 36.7499 11.3005 37.6898 11.2605 38.8198C11.2105 40.4998 11.2404 42.1798 11.2504 43.8498C11.2604 47.2798 13.7905 49.7899 17.2105 49.7999C18.5505 49.7999 19.8904 49.7999 21.2304 49.7999C24.6904 49.7899 27.2104 47.2798 27.2204 43.8198C27.2204 42.0898 27.2304 40.3699 27.2204 38.6399C27.2204 37.7799 27.4605 37.0298 27.9605 36.3398C28.6805 35.3398 29.5904 34.5099 30.4704 33.6599C31.9204 32.2599 33.4105 30.8899 34.6405 29.2899C35.3405 28.3799 35.2504 27.2199 34.4104 26.5199L34.4204 26.5499ZM23.3704 40.5399C23.3404 41.6499 23.3704 42.7599 23.3604 43.8799C23.3604 45.1599 22.5505 45.9498 21.2705 45.9498C19.9205 45.9498 18.5605 45.9498 17.2105 45.9498C15.9505 45.9498 15.1505 45.1499 15.1405 43.8999C15.1405 42.7699 15.1504 41.6399 15.1304 40.5099C15.1304 40.1599 15.2604 40.1299 15.5404 40.1299C16.7804 40.1399 18.0205 40.1299 19.2605 40.1299C20.5005 40.1299 21.7104 40.1399 22.9404 40.1299C23.2604 40.1299 23.3804 40.1699 23.3804 40.5299L23.3704 40.5399Z" fill="white"/>
<path d="M41.8108 10.45C42.2708 10.1 42.7108 9.72001 43.1808 9.39001C43.6708 9.04001 44.0208 8.60999 44.0708 7.98999V7.21997C43.9208 6.35997 43.4608 5.64005 43.0008 4.93005C42.3708 3.96005 41.4808 3.72 40.3908 4.12C40.0608 4.24 39.7008 4.29997 39.3908 4.46997C38.6708 4.86997 38.0408 4.77004 37.3908 4.29004C37.1108 4.08004 36.9208 3.88004 36.8708 3.54004C36.7908 2.98004 36.6908 2.43 36.5708 1.88C36.3808 1.01 35.9008 0.4 34.9708 0.25H32.2608C31.3908 0.6 30.8308 1.19003 30.7308 2.16003C30.6808 2.69003 30.5908 3.20999 30.5208 3.73999C30.4808 4.08999 29.0508 5.13006 28.7108 5.06006C28.6008 5.04006 28.4908 4.98996 28.3908 4.95996C27.8208 4.77996 27.2608 4.59004 26.6908 4.42004C25.6508 4.13004 24.8008 4.48994 24.3008 5.43994C24.0308 5.94994 23.7708 6.46999 23.5208 6.98999C23.0208 8.02999 23.2708 8.94999 24.2108 9.60999C24.6808 9.93999 25.1708 10.26 25.6408 10.59C26.0508 10.87 26.0708 11.67 25.6808 11.98C25.1508 12.41 24.6108 12.81 24.0908 13.25C23.3108 13.9 23.1408 14.83 23.6208 15.73C23.9008 16.24 24.2008 16.73 24.5008 17.23C25.0608 18.13 25.9108 18.43 26.9108 18.09C27.5008 17.89 28.0908 17.67 28.6808 17.46C28.8108 17.41 28.9408 17.3301 29.0908 17.4301C29.4808 17.7101 29.8908 17.96 30.3308 18.17C30.4908 18.24 30.4908 18.39 30.5108 18.53C30.6308 19.21 30.7408 19.8999 30.8908 20.5699C31.0908 21.4799 31.8208 22.09 32.7408 22.11C33.3408 22.13 33.9308 22.13 34.5308 22.11C35.4808 22.09 36.2208 21.47 36.4108 20.54C36.5008 20.11 36.5908 19.68 36.6108 19.25C36.6508 18.55 36.8908 18.0401 37.6108 17.8101C37.8408 17.7401 38.0508 17.54 38.2508 17.38C38.4708 17.2 38.6708 17.15 38.9508 17.25C39.5108 17.45 40.0908 17.6 40.6608 17.76C41.7708 18.06 42.5808 17.7099 43.1108 16.6899C43.4308 16.0799 43.7308 15.47 44.0408 14.86V13.99C43.9508 13.36 43.6108 12.9201 43.0908 12.5601C42.6408 12.2501 42.1908 11.94 41.7708 11.6C41.3308 11.24 41.3308 10.7999 41.7708 10.4399L41.8108 10.45ZM37.5308 11.33C37.4208 13.54 35.6208 15.1801 33.4408 15.0601C31.3708 14.9501 29.7108 13.1301 29.8008 11.0601C29.9008 8.86006 31.7208 7.20996 33.9008 7.32996C35.9808 7.43996 37.6308 9.26996 37.5308 11.33Z" fill="#131956"/>
<path d="M18.3208 10.1297C18.3208 10.9397 17.8608 11.6197 17.0508 11.9497C16.2108 12.2797 15.3808 12.6297 14.6708 13.1997C12.8408 14.6497 11.9408 16.5697 11.8408 18.8897C11.8008 19.8397 11.3108 20.5197 10.5208 20.7797C9.24081 21.1997 7.96076 20.2797 7.97076 18.8897C7.99076 16.4497 8.71078 14.2297 10.1808 12.2697C11.5908 10.3797 13.4308 9.07967 15.6708 8.33967C17.0208 7.89967 18.3208 8.76971 18.3208 10.1297Z" fill="#131956"/>
<path d="M15.32 25.1599C15.31 26.2199 14.43 27.0798 13.37 27.0698C12.31 27.0598 11.45 26.1698 11.46 25.1098C11.47 24.0498 12.35 23.1898 13.41 23.1998C14.47 23.2098 15.33 24.0899 15.32 25.1499V25.1599Z" fill="#131956"/>
</svg>
