<svg width="55" height="48" viewBox="0 0 55 48" fill="none" xmlns="http://www.w3.org/2000/svg">
<path d="M53.4308 27.1501C51.6908 25.4201 49.2808 25.12 47.0508 26.48C46.9008 26.58 46.7808 26.6301 46.6708 26.6301L44.1509 29.5601C44.1209 29.6501 44.0609 29.75 43.9609 29.85C43.8009 30.01 43.6408 30.17 43.4808 30.34C42.9108 30.95 42.3309 31.5801 41.7109 32.2401C41.3809 31.3501 40.9309 30.6301 40.2709 30.0601C39.4009 29.3201 38.4009 28.9201 37.2509 28.9101C35.5909 28.9001 33.9309 28.9001 32.2709 28.9101C31.7809 28.9201 31.3508 28.78 30.9708 28.46C29.6408 27.3 28.1509 26.4001 26.5009 25.7401L26.4609 25.72L22.5408 24.6101H22.5309C21.6909 24.5701 20.8609 24.5201 20.0209 24.5601C18.3909 24.6301 16.8309 24.9401 15.3209 25.5301C13.1509 26.3801 11.1308 27.5501 9.04083 28.5601C8.60083 28.7701 8.17085 28.8801 7.68085 28.8801C6.02085 28.8601 4.36087 28.8701 2.70087 28.8701C1.65087 28.8801 1.19086 29.2101 0.880859 30.1701V43.4901C0.970859 43.7901 1.02087 44.1 1.27087 44.33C1.65087 44.69 2.12085 44.7901 2.62085 44.7901C4.56085 44.7901 6.51087 44.8101 8.45087 44.7901C11.0409 44.7601 13.5308 45.2401 15.9108 46.2401C18.5608 47.3601 21.3008 47.8801 24.1808 47.8601C30.0108 47.8101 35.8309 47.8401 41.6509 47.8601C42.4909 47.8601 43.0609 47.5801 43.5609 46.9101C45.6309 44.1501 47.7208 41.4101 49.7908 38.6701C51.1908 36.8301 52.6009 35.0001 53.9609 33.1401C54.9709 31.7701 54.9908 28.6901 53.4308 27.1501ZM51.0109 31.6101C48.7109 34.6401 46.4108 37.68 44.1108 40.72C43.2008 41.91 42.2909 43.1001 41.3909 44.3101C41.2109 44.5701 41.0209 44.6601 40.7009 44.6501C37.8009 44.6401 34.9008 44.6501 31.9908 44.6501C29.5608 44.6501 27.1309 44.6301 24.7009 44.6501C22.0109 44.6801 19.4309 44.1701 16.9509 43.1201C14.3509 42.0201 11.6208 41.5001 8.79083 41.5001C7.35083 41.5001 5.92084 41.5001 4.49084 41.5101C4.14084 41.5101 4.02087 41.45 4.02087 41.07C4.04087 38.25 4.04087 35.4301 4.02087 32.6201C4.01087 32.1901 4.16087 32.1501 4.52087 32.1501C5.88087 32.1701 7.24084 32.1601 8.61084 32.1701C9.02084 32.1701 9.40086 32.0801 9.76086 31.8901C11.5509 30.9901 13.3309 30.05 15.1409 29.2C20.0309 26.89 24.6208 27.4001 28.8508 30.8001C29.8708 31.6201 30.9909 32.0801 32.3109 32.0601C33.8809 32.0401 35.4609 32.0501 37.0309 32.0601C38.0409 32.0601 38.7609 32.7101 38.7609 33.6301C38.7709 34.5601 38.0708 35.2 37.0508 35.2C32.8908 35.21 28.7309 35.2 24.5609 35.21C23.3909 35.21 22.6208 36.15 22.9208 37.21C23.1208 37.91 23.7308 38.35 24.5408 38.35C28.5308 38.35 32.5209 38.35 36.5109 38.34H38.0809C39.5809 38.35 40.8308 37.82 41.8508 36.71C44.0708 34.31 46.3109 31.9201 48.5309 29.5201C49.0009 29.0201 49.5708 28.81 50.2308 28.96C50.8408 29.09 51.2408 29.49 51.4108 30.1C51.5708 30.68 51.3609 31.1601 51.0109 31.6101Z" fill="white"/>
<path d="M50.2012 0.580078H45.7912C45.5912 0.690078 45.3712 0.610127 45.1612 0.630127H45.1512C43.1812 0.620127 41.4112 1.3101 39.7312 2.2301C37.3312 3.5501 35.4612 5.43007 34.1212 7.82007C33.8312 8.34007 33.8412 8.45012 33.3712 7.87012C31.4412 5.47012 28.9512 4.05017 25.8812 3.67017C24.4512 3.50017 23.0212 3.61009 21.5912 3.59009C20.4412 3.59009 19.7412 4.3201 19.7412 5.4801C19.7412 7.2301 20.1612 8.89016 20.9812 10.4102C22.8512 13.8602 25.7412 15.8701 29.6512 16.3901C30.3512 16.4801 31.0412 16.4601 31.7412 16.4501C32.1612 16.4501 32.3512 16.5902 32.3312 17.0302C32.3112 17.5902 32.3312 18.1501 32.3312 18.7101C32.3312 19.4201 32.3312 19.4002 31.6312 19.5402C29.7212 19.9002 27.9312 20.5601 26.2912 21.6201C25.1312 22.3701 24.1512 23.3002 23.2112 24.3002C23.0212 24.5002 22.8412 24.6301 22.5512 24.6101L26.4712 25.7201C26.6512 25.3901 26.9612 25.2101 27.2212 25.0001C32.7912 20.5401 41.1612 22.5701 44.0912 29.0801C44.1712 29.2701 44.2012 29.4202 44.1612 29.5602L46.6812 26.6301C46.5512 26.6201 46.4512 26.5201 46.3212 26.3201C45.5012 24.9001 44.4312 23.6701 43.1812 22.6201C41.2012 20.9601 38.9212 19.9501 36.3812 19.5201C35.9512 19.4501 35.7312 19.2902 35.7612 18.8102C35.8012 18.2402 35.7712 17.6601 35.7712 17.0801C35.7712 16.5001 35.8112 16.4601 36.4012 16.4701C37.3912 16.4801 38.3612 16.4602 39.3312 16.3002C43.7312 15.5702 47.1112 13.3001 49.4512 9.51013C50.8012 7.34013 51.4512 4.95014 51.5112 2.39014C51.5312 1.35014 51.1712 0.890078 50.2112 0.580078H50.2012ZM32.0612 13.1702C29.0412 13.3502 26.4612 12.4601 24.5712 9.97009C23.8812 9.06009 23.4212 8.04016 23.2012 6.91016C26.5812 6.64016 29.3212 7.67015 31.2312 10.5302C31.7012 11.2302 32.0112 12.0001 32.2212 12.8201C32.2512 12.9501 32.4012 13.1602 32.0612 13.1702ZM35.7612 13.1401C36.3612 8.15014 41.1012 3.06015 48.0812 3.78015C47.1812 9.70015 41.8412 13.7601 35.7612 13.1401Z" fill="#131956"/>
</svg>
