<svg width="55" height="56" viewBox="0 0 55 56" fill="none" xmlns="http://www.w3.org/2000/svg">
<path d="M54.1298 33.6903C54.1298 33.4003 54.0198 33.1302 53.9198 32.8702C52.7898 29.9402 48.9698 29.1302 46.4898 31.3102C43.9398 33.5502 41.3998 35.8102 38.8598 38.0602C38.4798 38.4102 38.0898 38.7403 37.6398 39.1303C38.6598 35.6403 36.0499 33.0703 33.0299 33.1403C27.9199 33.2703 22.7998 33.1802 17.6898 33.1702C14.8798 33.1702 12.3698 34.0202 10.1598 35.7402C7.0098 38.1802 3.8698 40.6302 0.729805 43.0602C0.239805 43.4402 0.00984362 43.8803 0.0198436 44.5103C0.0398436 47.5203 0.0398436 50.5302 0.0198436 53.5402C0.0198436 54.2602 0.229819 54.7703 0.869819 55.0903H13.3098C13.5298 54.9703 13.7698 54.9402 13.9798 54.8002C15.6698 53.5902 17.3698 52.4303 19.0598 51.2103C19.4898 50.8903 19.9398 50.7603 20.4798 50.7603C25.2198 50.7803 29.9598 50.7903 34.7098 50.7603C37.1698 50.7403 39.3298 49.8403 41.1698 48.2103C41.6198 47.8103 42.0598 47.3903 42.5098 47.0003C44.4598 45.2803 46.3698 43.5202 48.3198 41.8002C49.5698 40.6802 50.8198 39.5603 52.0698 38.4403C53.0898 37.5303 54.1498 36.6502 54.2198 35.1202V34.2703C54.0998 34.1003 54.2198 33.8902 54.1398 33.7202L54.1298 33.6903ZM51.1698 35.8903C47.7998 38.9203 44.4298 41.9502 41.0498 44.9802C40.5798 45.4002 40.0998 45.8303 39.6298 46.2603C38.1298 47.6303 36.3598 48.3002 34.3198 48.2902C29.4198 48.2902 24.5098 48.2902 19.6098 48.2902C19.1298 48.2902 18.7198 48.4103 18.3298 48.7003C16.5298 49.9903 14.7098 51.2503 12.8998 52.5203C12.6798 52.6803 12.4598 52.7703 12.1798 52.7703C9.05982 52.7503 5.94984 52.7503 2.82984 52.7703C2.46984 52.7703 2.34981 52.7003 2.35981 52.3203C2.37981 49.9503 2.35981 47.5703 2.35981 45.2003C2.35981 44.9203 2.43982 44.7202 2.67982 44.5402C5.71982 42.1902 8.73985 39.8102 11.7799 37.4802C13.4599 36.1902 15.3798 35.5502 17.5098 35.5402H25.2098C27.9898 35.5402 30.7698 35.5402 33.5498 35.5402C34.5398 35.5402 35.3699 36.2703 35.5299 37.2103C35.6999 38.2303 35.1498 39.2002 34.2098 39.5402C33.8698 39.6602 33.5198 39.6802 33.1598 39.6802H22.7498C22.5698 39.6802 22.3998 39.6802 22.2198 39.6802C21.6998 39.7302 21.2698 40.1502 21.1998 40.6702C21.1298 41.1902 21.4198 41.7103 21.9198 41.9003C22.1598 41.9903 22.3998 42.0103 22.6498 42.0103C27.1298 42.0103 31.6199 42.0103 36.0899 42.0103C37.3699 42.0103 38.4598 41.5802 39.4198 40.7202C42.2798 38.1802 45.1498 35.6602 47.9998 33.1102C48.5898 32.5902 49.2498 32.3303 50.0398 32.4403C50.8798 32.5603 51.4998 32.9802 51.7898 33.7902C52.0698 34.6202 51.8298 35.3203 51.1898 35.9003L51.1698 35.8903Z" fill="white"/>
<path d="M54.2201 34.2504C54.0601 34.0804 54.1001 33.8904 54.1301 33.6904C54.1601 33.7004 54.1901 33.7104 54.2201 33.7204V34.2504Z" fill="white"/>
<path d="M39.05 23.7303C38.76 20.2603 37.22 17.4603 34.51 15.3003C33.63 14.6003 32.65 14.0803 31.62 13.6203C35.21 10.5603 35.12 5.72029 32.27 2.82029C29.48 -0.0397069 24.77 -0.0397069 21.97 2.82029C19.14 5.70029 19.02 10.5503 22.63 13.6303C22.51 13.6903 22.45 13.7203 22.38 13.7503C20.49 14.5503 18.91 15.7603 17.64 17.3903C15.63 19.9403 14.99 22.8903 15.14 26.0603C15.18 26.8903 15.66 27.3303 16.52 27.3303H37.72C38.62 27.3303 39.09 26.8603 39.1 25.9503C39.12 25.2103 39.11 24.4703 39.05 23.7303ZM22.23 7.91026C22.23 5.19026 24.43 3.0003 27.16 3.0103C29.85 3.0203 32.02 5.22029 32.01 7.94029C32.01 10.6503 29.84 12.8103 27.11 12.8003C24.39 12.8003 22.23 10.6403 22.23 7.91026ZM36.73 24.5503C36.72 24.6103 36.7 24.6703 36.68 24.7103C36.67 24.7303 36.66 24.7603 36.64 24.7803C36.63 24.7903 36.62 24.8003 36.61 24.8103C36.6 24.8103 36.59 24.8103 36.59 24.8103C36.58 24.8303 36.57 24.8303 36.55 24.8403C36.53 24.8703 36.49 24.8803 36.45 24.9003C36.43 24.9103 36.41 24.9203 36.38 24.9203H36.37C36.37 24.9203 36.32 24.9403 36.29 24.9403C36.07 24.9803 35.76 24.9803 35.31 24.9803H22.57C21.97 24.9803 21.36 24.9803 20.76 24.9803C19.86 24.9803 18.96 24.9803 18.05 24.9903C18.01 24.9903 17.98 24.9903 17.95 24.9803C17.92 24.9803 17.89 24.9803 17.86 24.9803C17.74 24.9703 17.65 24.9403 17.59 24.8803C17.54 24.8403 17.51 24.7803 17.49 24.7003C17.48 24.6603 17.47 24.6103 17.47 24.5603C17.46 24.5103 17.46 24.4503 17.46 24.3903C17.5 23.4503 17.66 22.5503 17.94 21.7103C17.99 21.5703 18.03 21.4303 18.09 21.3003C18.13 21.2003 18.16 21.1003 18.2 21.0103C18.33 20.7003 18.47 20.4103 18.63 20.1203C18.77 19.8703 18.91 19.6303 19.07 19.3903C19.2 19.1903 19.35 18.9903 19.5 18.8103C19.61 18.6603 19.73 18.5203 19.85 18.3803C19.95 18.2703 20.04 18.1703 20.14 18.0703C20.3 17.9003 20.46 17.7403 20.63 17.6003C20.78 17.4603 20.94 17.3203 21.11 17.2003C21.13 17.1703 21.15 17.1503 21.18 17.1403C21.33 17.0203 21.49 16.9003 21.65 16.8003C21.7 16.7603 21.75 16.7203 21.8 16.7003C21.93 16.6103 22.06 16.5203 22.2 16.4403C22.29 16.3903 22.37 16.3403 22.46 16.3003C22.59 16.2203 22.73 16.1503 22.87 16.0903C23.29 15.8803 23.71 15.7103 24.15 15.5803C24.32 15.5203 24.5 15.4803 24.68 15.4403C24.87 15.3803 25.05 15.3403 25.24 15.3103C25.49 15.2603 25.74 15.2203 26 15.2003C27.04 15.1003 28.04 15.1303 28.99 15.3103C29.14 15.3303 29.29 15.3603 29.44 15.4003C29.59 15.4303 29.73 15.4603 29.87 15.5103C30.02 15.5403 30.16 15.5903 30.3 15.6403C31.16 15.9203 31.97 16.3303 32.73 16.8803C32.98 17.0603 33.23 17.2603 33.48 17.4703C33.6 17.5803 33.72 17.6903 33.84 17.8003C33.95 17.9003 34.05 18.0003 34.14 18.1003C34.24 18.2003 34.33 18.3003 34.42 18.4003C34.61 18.6103 34.78 18.8203 34.94 19.0303C35.22 19.4103 35.48 19.8103 35.69 20.2303C35.78 20.3903 35.86 20.5503 35.93 20.7203C36.01 20.8803 36.07 21.0403 36.13 21.2103C36.18 21.3303 36.23 21.4603 36.26 21.5903C36.33 21.7603 36.38 21.9403 36.42 22.1203C36.47 22.3103 36.52 22.5003 36.56 22.6903C36.61 22.9703 36.65 23.2503 36.68 23.5303C36.71 23.7803 36.73 23.9903 36.74 24.1603C36.75 24.3103 36.75 24.4403 36.73 24.5403V24.5503Z" fill="#131956"/>
</svg>
