<?xml version="1.0" encoding="UTF-8"?>
<svg id="Camada_1" xmlns="http://www.w3.org/2000/svg" viewBox="0 0 1300 1300">
  <defs>
    <style>
      .cls-1 {
        fill: #fff;
      }

      .cls-2 {
        fill: #131956;
      }
    </style>
  </defs>
  <path class="cls-1" d="M219.66,1120.75V179.19c3.69-9.76,10-17.12,19.57-21.53h821.92c14.39,6.2,19.21,17.32,19.2,32.67-.22,306.53-.16,613.06-.18,919.59,0,23.58-8.8,32.21-32.65,32.21-264.71,0-529.43-.09-794.14.22-16.8.02-28.23-5.4-33.72-21.59ZM271.11,208.48v882.49h758.14V208.48H271.11Z"/>
  <path class="cls-2" d="M585.21,375.18h13.14c96.85,0,193.69,0,290.54,0,20.92,0,32.77,9.07,32.84,25.09.07,16.05-11.84,25.31-32.64,25.31-96.85,0-193.69,0-290.54,0h-12.8v65.29h-127.75v-65.3c-18.33,0-35.53.31-52.72-.08-19.43-.45-31.21-16.8-24.95-33.94,3.7-10.13,12.7-16.14,25.39-16.3,16.93-.21,33.86-.05,52.26-.05,0-15.17-.01-29.73,0-44.28.02-25.11,7.51-32.55,32.72-32.56,22.17,0,44.35-.09,66.52.03,18.16.1,27.67,9.48,27.94,27.76.24,15.92.05,31.84.05,49.04ZM508.49,347.69v92.11h25.69v-92.11h-25.69Z"/>
  <path class="cls-2" d="M558.09,926.71c-5.26,0-9.42,0-13.58,0-45.96,0-91.92.14-137.88-.07-20.58-.09-33.25-16.99-26.07-34.5,4.82-11.75,14.56-15.88,26.7-15.86,46.29.06,92.57.02,138.86.02,3.54,0,7.09,0,11.97,0,0-12.91-.04-25.18,0-37.45.08-20.17,9.13-29.4,29.09-29.48,23.47-.09,46.94-.14,70.41.02,17.96.13,27.51,9.88,27.7,28.02.13,12.63.03,25.26.03,38.89h12.42c62.91,0,125.82,0,188.73,0,2.28,0,4.56-.03,6.85,0,17.2.3,28.71,10.69,28.4,25.59-.3,14.64-11.48,24.72-28.24,24.75-65.19.12-130.39.05-195.58.05-3.83,0-7.66,0-12.59,0,0,15.77.04,30.67,0,45.57-.06,21.08-9.34,30.53-30.3,30.64-22.49.11-44.98.15-67.47-.01-19.63-.14-29.36-10.03-29.44-29.59-.06-14.97-.01-29.95-.01-46.6ZM634.22,951.18v-91.94h-25.45v91.94h25.45Z"/>
  <path class="cls-2" d="M748.24,625.75c0-13.28-.06-25.29.01-37.3.12-20.06,9.39-29.54,29.15-29.62,23.16-.1,46.31-.11,69.47,0,19.47.09,28.44,9.27,28.6,28.96.1,11.74.14,23.48.26,35.22,0,.57.53,1.13,1.35,2.77,5.9,0,12.34-.24,18.76.05,15.23.68,25.91,11.17,25.89,25.12-.02,13.97-10.67,24.43-25.91,25.12-6.43.29-12.87.05-20.35.05,0,16.33.06,31.58-.02,46.82-.1,19.91-9.37,29.28-29.38,29.41-22.83.15-45.66.18-68.49,0-19.35-.16-29.23-10.35-29.33-29.92-.08-14.96-.02-29.92-.02-46.27-4.41,0-8.18,0-11.95,0-108.28,0-216.56,0-324.84,0-20.91,0-32.76-9.09-32.83-25.13-.07-16.03,11.85-25.27,32.67-25.27,107.95,0,215.91,0,323.86,0h13.09ZM799.15,608.36v92.83c6.57,0,12.68-.3,18.75.09,5.96.38,8.02-1.87,7.86-7.83-.34-13-.1-26.02-.1-39.03,0-15.21,0-30.41,0-46.05h-26.51Z"/>
</svg>