<svg width="53" height="47" viewBox="0 0 53 47" fill="none" xmlns="http://www.w3.org/2000/svg">
<path d="M52.0201 40.9598C51.5401 40.6698 51.0501 40.3999 50.5401 40.1499C47.7001 38.7699 44.6801 38.2199 41.5401 38.2799C41.3601 38.2899 41.1801 38.3499 41.0101 38.2799C41.0101 38.2199 41.0301 38.1799 41.0501 38.1499C41.1301 38.0199 41.2301 37.9099 41.3301 37.7899C43.3501 35.2599 44.8201 32.4399 45.6301 29.2899C46.3801 26.3699 46.6201 23.3999 46.2101 20.3899C45.8401 17.7399 45.0701 15.2098 43.8301 12.8398C42.4701 10.2498 40.7001 7.97981 38.4801 6.06981C36.0101 3.93981 33.2101 2.3998 30.1001 1.4398C27.7001 0.699801 25.2501 0.43985 22.7401 0.48985C20.3501 0.53985 18.0401 0.959879 15.8001 1.76988C12.0001 3.13988 8.74015 5.31988 6.09015 8.39988C3.63015 11.2699 1.96014 14.5298 1.08014 18.2098C0.830139 19.2498 0.740117 20.3099 0.620117 21.3699V25.4598C0.740117 26.8298 0.93012 28.1799 1.31012 29.5099C2.86012 34.9699 5.9701 39.3098 10.6601 42.4798C15.2501 45.5698 20.3501 46.7598 25.8501 46.2398C28.3001 46.0098 30.6301 45.3598 32.8701 44.3498C34.3101 43.6998 35.7801 43.1098 37.3101 42.6998C40.2801 41.9198 43.2501 41.7699 46.2401 42.5499C47.6601 42.9199 48.9802 43.5398 50.2802 44.2398C51.2402 44.7598 52.3902 44.4299 52.7802 43.5299C53.1902 42.5699 53.0701 41.5698 52.0201 40.9698V40.9598ZM23.4801 6.24986C26.1301 6.25986 28.3701 8.5099 28.3801 11.1699C28.3901 13.8399 26.1201 16.1098 23.4401 16.1098C20.7501 16.0998 18.5001 13.8399 18.5101 11.1599C18.5301 8.46989 20.7901 6.23986 23.4801 6.24986ZM7.1701 19.2699C7.1901 16.6099 9.47013 14.4999 12.2601 14.5299C14.8801 14.5599 17.0001 16.8099 16.9701 19.5299C17.0501 22.0199 14.7501 24.4498 11.8701 24.3498C9.24012 24.2498 7.1401 22.0399 7.1701 19.2699ZM16.4901 37.7098C13.8401 37.7498 11.5101 35.7099 11.5101 32.7599C11.5101 30.0299 13.7201 27.9099 16.3701 27.8899C19.0801 27.8199 21.3301 30.0098 21.3301 32.8198C21.3401 35.5898 19.1401 37.6698 16.4901 37.7098ZM23.4401 25.3498C22.3701 25.3498 21.5001 24.4799 21.4901 23.4099C21.4801 22.3299 22.3801 21.4498 23.4801 21.4598C24.5401 21.4698 25.4101 22.3599 25.4001 23.4199C25.3801 24.4899 24.5101 25.3498 23.4401 25.3498ZM30.3901 37.7098C27.6501 37.6298 25.4701 35.3999 25.5501 32.7699C25.6401 29.9699 27.8301 27.8399 30.5201 27.8899C33.1801 27.9299 35.4101 30.0499 35.3701 32.7599C35.3301 35.6399 33.1401 37.7798 30.3901 37.7098ZM34.8301 24.3298C32.1901 24.4198 29.8301 22.0698 29.9001 19.3398C29.9601 16.7398 32.1001 14.5499 34.7701 14.5299C37.5201 14.4999 39.7101 16.6798 39.7301 19.4498C39.7501 22.1198 37.5601 24.3098 34.8301 24.3298Z" fill="white"/>
<path d="M39.7299 19.4495C39.7499 22.1195 37.5599 24.3095 34.8299 24.3295C32.1899 24.4195 29.83 22.0695 29.9 19.3395C29.96 16.7395 32.1 14.5496 34.77 14.5296C37.52 14.4996 39.7099 16.6795 39.7299 19.4495Z" fill="#131956"/>
<path d="M35.37 32.76C35.33 35.64 33.14 37.78 30.39 37.71C27.65 37.63 25.47 35.4 25.55 32.77C25.64 29.97 27.83 27.84 30.52 27.89C33.18 27.93 35.41 30.05 35.37 32.76Z" fill="#131956"/>
<path d="M21.3298 32.8197C21.3398 35.5897 19.1397 37.6698 16.4897 37.7098C13.8397 37.7498 11.5098 35.7098 11.5098 32.7598C11.5098 30.0298 13.7198 27.9098 16.3698 27.8898C19.0798 27.8198 21.3298 30.0097 21.3298 32.8197Z" fill="#131956"/>
<path d="M16.9702 19.5296C17.0502 22.0196 14.7503 24.4496 11.8703 24.3496C9.24025 24.2496 7.14024 22.0396 7.17024 19.2696C7.19024 16.6096 9.47027 14.4996 12.2603 14.5296C14.8803 14.5596 17.0002 16.8096 16.9702 19.5296Z" fill="#131956"/>
<path d="M28.3798 11.1701C28.3898 13.8401 26.1198 16.11 23.4398 16.11C20.7498 16.1 18.4998 13.8401 18.5098 11.1601C18.5298 8.47007 20.7898 6.24003 23.4798 6.25003C26.1298 6.26003 28.3698 8.51008 28.3798 11.1701Z" fill="#131956"/>
</svg>
