<svg width="353" height="254" viewBox="0 0 353 254" fill="none" xmlns="http://www.w3.org/2000/svg">
<path d="M342.86 65.9701C339.85 65.2001 336.86 64.3501 333.82 63.5301C331.04 70.2801 328.51 76.9401 325.61 83.4401C299.78 141.4 257.87 183.94 201.51 212.57C169 229.09 134.5 239.49 98.69 245.84C69.29 251.06 39.66 253.38 9.81999 253.08C2.89999 253.01 0.379983 250.52 0.379983 243.54C0.379983 236.77 0.359983 230.01 0.379983 223.24C0.409983 218.03 3.47999 215.08 8.62999 214.9C25.07 214.32 41.58 214.4 57.93 212.88C107.71 208.25 155.42 196.22 199 170.75C245.46 143.58 277.85 104.55 296.5 54.0901C296.57 53.9001 296.6 53.7001 296.75 53.1801C293.69 52.3001 290.79 51.5001 287.9 50.6301C281.4 48.6901 279.56 41.6801 284.6 37.1801C297.77 25.4101 311.05 13.7601 324.37 2.15012C328.59 -1.52989 334.99 0.160116 336.7 5.51012C342.14 22.4801 347.46 39.4901 352.58 56.5501C354.4 62.5901 349.07 67.5701 342.88 65.9801L342.86 65.9701Z" fill="#242852"/>
<path d="M255.738 17.5006C255.738 11.6306 255.588 11.6006 249.728 11.0006C248.568 10.8806 246.668 9.5506 246.618 8.6906C246.408 5.2006 244.518 4.60059 241.568 4.62059C230.968 4.70059 220.368 4.6606 209.758 4.6606C202.388 4.6606 195.018 4.6606 187.638 4.6606C185.728 4.6606 183.608 4.8406 183.568 7.2206C183.528 10.6306 181.708 11.1806 178.888 11.1506C173.818 11.1106 172.528 12.5206 172.528 17.6506V91.5606C172.528 116.301 172.518 141.031 172.528 165.771C172.528 170.711 175.708 172.701 180.148 170.451C208.068 156.371 232.388 137.721 252.348 113.531C254.708 110.661 255.798 107.611 255.788 103.851C255.688 75.0806 255.738 46.3006 255.738 17.5206V17.5006ZM196.078 50.5706C199.528 50.5606 200.028 51.1106 200.078 54.6706C200.098 56.0806 200.088 57.4906 200.088 58.9106C200.078 62.9506 199.648 63.3706 195.548 63.3906H193.428C192.518 63.4006 191.608 63.3506 190.708 63.4106C188.078 63.5806 187.108 62.2506 187.118 59.7606C187.158 49.3906 186.238 50.6206 196.078 50.5906V50.5706ZM200.078 99.1106C200.078 103.617 197.828 105.871 193.328 105.871C192.318 105.871 191.308 105.871 190.298 105.871C188.188 105.881 187.128 104.841 187.138 102.721C187.138 100.601 187.138 98.4806 187.138 96.3606C187.128 94.1406 188.168 92.9906 190.448 93.0206C192.558 93.0506 194.688 93.0706 196.808 93.0106C198.958 92.9506 199.988 93.9906 200.068 96.0706C200.108 97.0806 200.068 98.0906 200.068 99.1006L200.078 99.1106ZM196.588 84.4906C186.928 84.9306 186.858 84.8506 187.108 75.1406C187.168 72.6406 188.218 71.4006 190.698 71.3606C191.598 71.3506 192.508 71.3606 193.408 71.3606C197.861 71.3606 200.091 73.5639 200.098 77.9706C200.098 78.9806 200.098 79.9806 200.098 80.9806C200.108 83.3406 198.948 84.3806 196.588 84.4906ZM200.108 32.5406C200.018 34.0506 200.098 35.5706 200.088 37.0806C200.048 41.1306 199.638 41.5306 195.518 41.5406H193.698C192.688 41.5406 191.678 41.5206 190.678 41.5506C188.288 41.6206 187.138 40.5106 187.148 38.1006C187.188 27.4906 186.138 28.8006 196.158 28.6406C199.038 28.6006 200.278 29.6906 200.108 32.5406ZM214.388 63.3906C213.578 63.3906 212.768 63.3206 211.968 63.4006C209.038 63.6806 208.038 62.2706 208.068 59.4706C208.178 49.3906 207.138 50.6206 216.988 50.5706C220.428 50.5506 220.978 51.1506 221.028 54.6406C221.028 55.3506 221.028 56.0606 221.028 56.7606C221.028 61.1806 218.818 63.3873 214.398 63.3806L214.388 63.3906ZM208.108 75.5106C208.148 72.1006 208.758 71.4706 212.118 71.3806C212.918 71.3606 213.728 71.3606 214.528 71.3606C220.998 71.3406 221.028 71.3606 221.028 77.9106C221.028 78.9206 221.008 79.9206 221.028 80.9206C221.078 83.2906 219.908 84.3506 217.558 84.4806C211.178 84.8206 208.028 81.8339 208.108 75.5206V75.5106ZM220.978 102.971C220.938 104.911 219.958 105.921 217.958 105.891C216.748 105.871 215.548 105.961 214.348 105.961C210.181 105.961 208.095 103.851 208.088 99.6306C208.088 95.2239 210.295 93.0206 214.708 93.0206C215.818 93.0206 216.918 93.0206 218.028 93.0206C220.018 93.0306 220.968 94.1206 220.998 96.0306C221.038 98.3406 221.018 100.651 220.978 102.961V102.971ZM214.748 41.5406C213.938 41.5406 213.128 41.5406 212.328 41.5406C208.618 41.5206 208.148 41.0706 208.118 37.3406C208.098 35.4306 208.118 33.5106 208.138 31.5906C208.158 29.6006 209.188 28.6406 211.178 28.6806C212.288 28.7006 213.398 28.6806 214.508 28.6806C218.855 28.6806 221.031 30.8306 221.038 35.1306C221.045 39.4306 218.951 41.5706 214.758 41.5506L214.748 41.5406ZM241.618 99.2306C241.618 103.677 239.411 105.897 234.998 105.891C234.298 105.891 233.588 105.891 232.888 105.891C229.188 105.851 228.688 105.381 228.678 101.691C228.648 91.9906 227.978 93.0406 237.238 93.0306C241.028 93.0306 241.598 93.6106 241.628 97.4206C241.628 98.0306 241.628 98.6306 241.628 99.2406L241.618 99.2306ZM241.618 79.5806C241.618 83.8206 240.998 84.4506 236.768 84.4606H234.958C233.948 84.4606 232.948 84.4606 231.948 84.4606C229.898 84.4406 228.738 83.4406 228.678 81.3606C228.628 79.1506 228.628 76.9406 228.628 74.7306C228.628 72.5206 229.748 71.3906 231.968 71.3806C234.078 71.3806 236.188 71.3406 238.298 71.4006C240.448 71.4506 241.668 72.4806 241.628 74.7606C241.598 76.3706 241.628 77.9706 241.628 79.5806H241.618ZM241.628 58.6606C241.618 62.9906 241.228 63.3906 237.008 63.4006C236.398 63.4006 235.798 63.4006 235.188 63.4006C230.841 63.4006 228.665 61.2573 228.658 56.9706C228.658 52.6973 230.741 50.5606 234.908 50.5606C239.381 50.5606 241.618 52.7539 241.618 57.1406V58.6506L241.628 58.6606ZM232.798 41.5306C229.288 41.5306 228.758 41.0006 228.668 37.5706C228.648 36.8706 228.668 36.1706 228.668 35.4706C228.668 34.4106 228.668 33.5106 228.688 32.7606C228.698 32.4906 228.708 32.2406 228.728 32.0006C228.738 31.8106 228.758 31.6206 228.778 31.4506C228.788 31.3706 228.798 31.2806 228.818 31.2006C228.858 30.8906 228.918 30.6206 228.998 30.3906C229.018 30.3206 229.048 30.2606 229.078 30.1906C229.098 30.1306 229.128 30.0706 229.158 30.0106C229.158 29.9906 229.168 29.9706 229.178 29.9606C229.208 29.9006 229.248 29.8406 229.288 29.7906C229.338 29.7106 229.398 29.6406 229.458 29.5706C229.488 29.5306 229.528 29.4906 229.578 29.4506C229.628 29.4006 229.698 29.3506 229.758 29.3106C229.818 29.2706 229.878 29.2306 229.948 29.1906C230.028 29.1406 230.128 29.0906 230.228 29.0606C230.278 29.0406 230.338 29.0206 230.398 29.0006C230.558 28.9506 230.748 28.9006 230.948 28.8606C231.048 28.8406 231.148 28.8206 231.258 28.8106C231.468 28.7806 231.708 28.7606 231.958 28.7406C232.208 28.7206 232.488 28.7006 232.778 28.7006C233.508 28.6806 234.358 28.6806 235.358 28.6806C235.608 28.6806 235.858 28.6806 236.108 28.6906C236.658 28.7106 237.218 28.7206 237.768 28.6706C240.668 28.4206 241.688 29.8306 241.668 32.6006C241.588 42.5206 242.518 41.5206 232.818 41.5306H232.798Z" fill="#242852"/>
<path d="M161.199 55.4198C161.199 50.6598 159.869 49.3398 155.089 49.3398C134.799 49.3398 114.489 49.3398 94.1986 49.3398C87.8186 49.3398 85.9486 51.2198 85.9486 57.6498V123.98H85.9586V130.94C85.9586 151.34 85.9286 171.74 85.9586 192.13C85.9586 196.97 88.8886 199.44 93.5686 198.61C114.539 194.9 134.999 189.28 154.869 181.61C159.999 179.63 161.199 177.9 161.199 172.32C161.199 133.35 161.199 94.3799 161.189 55.4099L161.199 55.4198ZM109.899 143.87C104.399 143.87 101.642 141.08 101.629 135.5C101.615 129.92 104.459 127.11 110.159 127.07C115.592 127.083 118.295 129.82 118.269 135.28C118.269 135.38 118.269 135.48 118.269 135.58C118.269 141.107 115.479 143.87 109.899 143.87ZM109.849 116.08C104.362 116.08 101.619 113.29 101.619 107.71C101.619 102.203 104.379 99.4499 109.899 99.4499C115.492 99.4499 118.289 102.28 118.289 107.94C118.289 113.367 115.475 116.08 109.849 116.08ZM109.969 89.2198C104.409 89.2198 101.629 86.3432 101.629 80.5898C101.629 75.1565 104.345 72.4398 109.779 72.4398C115.472 72.4398 118.319 75.2465 118.319 80.8598C118.319 86.4332 115.535 89.2198 109.969 89.2198ZM145.209 135.53C145.182 141.09 142.382 143.87 136.809 143.87C131.275 143.87 128.479 141.1 128.419 135.56C128.329 127.12 128.349 127.1 136.639 127.05C142.379 127.017 145.235 129.843 145.209 135.53ZM128.409 107.61C128.409 102.156 131.129 99.4298 136.569 99.4298C142.335 99.4298 145.219 102.303 145.219 108.05C145.219 113.397 142.442 116.077 136.889 116.09C131.235 116.09 128.409 113.267 128.409 107.62V107.61ZM137.029 89.1898H136.729C131.189 89.1898 128.419 86.3898 128.419 80.7898C128.419 75.2298 131.192 72.4465 136.739 72.4398C142.392 72.4265 145.222 75.2599 145.229 80.9398C145.229 86.4398 142.499 89.1898 137.039 89.1898H137.029Z" fill="#242852"/>
<path d="M75.5194 127.68C75.5094 123.21 73.9394 119.19 70.8494 115.86C62.8894 107.28 54.9294 98.6898 46.9294 90.1398C40.8394 83.6398 34.8794 83.7698 28.8994 90.3898C21.0494 99.0698 13.1594 107.73 5.26941 116.38C2.07941 119.88 0.349418 123.91 0.359418 128.7C0.399418 140.21 0.36942 151.72 0.36942 163.23V197.76C0.36942 203.54 2.41942 205.75 8.12942 205.69C18.7294 205.57 29.3394 205.58 39.9094 204.99C49.9694 204.43 59.9994 203.28 70.0294 202.2C73.7094 201.8 75.5394 199.49 75.5394 195.83C75.5594 173.12 75.5794 150.4 75.5094 127.68H75.5194ZM25.6294 179.75C20.2094 179.75 17.4994 177.016 17.4994 171.55C17.4994 165.97 20.2461 163.18 25.7394 163.18C31.4461 163.18 34.2994 166.06 34.2994 171.82C34.2994 177.113 31.4094 179.76 25.6294 179.76V179.75ZM25.9494 155.37C20.3227 155.37 17.5094 152.513 17.5094 146.8C17.5094 141.32 20.2461 138.58 25.7194 138.58C31.4394 138.58 34.2994 141.396 34.2994 147.03C34.2994 152.663 31.5161 155.443 25.9494 155.37ZM49.1794 179.73C43.7727 179.73 41.0694 177.01 41.0694 171.57C41.0694 165.963 43.9028 163.166 49.5694 163.18C55.1028 163.186 57.8728 165.956 57.8794 171.49C57.8794 176.99 54.9828 179.74 49.1894 179.74L49.1794 179.73ZM57.8794 146.82C57.8794 152.54 55.0461 155.393 49.3794 155.38C43.8328 155.366 41.0628 152.576 41.0694 147.01C41.0694 141.383 43.9328 138.573 49.6594 138.58C57.8294 138.58 57.8994 138.64 57.8894 146.82H57.8794Z" fill="#242852"/>
<path d="M241.619 79.5803C241.619 83.8203 240.999 84.4503 236.769 84.4603H234.959C233.949 84.4603 232.949 84.4603 231.949 84.4603C229.899 84.4403 228.739 83.4403 228.679 81.3603C228.629 79.1503 228.629 76.9402 228.629 74.7302C228.629 72.5202 229.749 71.3903 231.969 71.3803C234.079 71.3803 236.189 71.3402 238.299 71.4002C240.449 71.4502 241.669 72.4802 241.629 74.7602C241.599 76.3702 241.629 77.9703 241.629 79.5803H241.619Z" fill="white"/>
<path d="M200.11 80.9799C200.12 83.3399 198.96 84.3799 196.6 84.4899C186.94 84.9299 186.87 84.8499 187.12 75.1399C187.18 72.6399 188.23 71.3999 190.71 71.3599C191.61 71.3499 192.52 71.3599 193.42 71.3599C197.873 71.3599 200.103 73.5632 200.11 77.9699C200.11 78.9799 200.11 79.9799 200.11 80.9799Z" fill="white"/>
<path d="M221.019 80.9201C221.069 83.2901 219.899 84.3501 217.549 84.4801C211.169 84.8201 208.019 81.8334 208.099 75.5201C208.139 72.1101 208.749 71.4801 212.109 71.3901C212.909 71.3701 213.719 71.3701 214.519 71.3701C220.989 71.3501 221.019 71.3701 221.019 77.9201C221.019 78.9301 220.999 79.9301 221.019 80.9301V80.9201Z" fill="white"/>
<path d="M214.748 41.5399C213.938 41.5399 213.128 41.5399 212.328 41.5399C208.618 41.5199 208.148 41.0699 208.118 37.3399C208.098 35.4299 208.118 33.5099 208.138 31.5899C208.158 29.5999 209.188 28.6399 211.178 28.6799C212.288 28.6999 213.398 28.6799 214.508 28.6799C218.854 28.6799 221.031 30.8299 221.038 35.1299C221.044 39.4299 218.951 41.5699 214.758 41.5499L214.748 41.5399Z" fill="white"/>
<path d="M200.099 58.9099C200.089 62.9499 199.659 63.3699 195.559 63.3899H193.439C192.529 63.3999 191.619 63.3499 190.719 63.4099C188.089 63.5799 187.119 62.2499 187.129 59.7599C187.169 49.3899 186.249 50.6199 196.089 50.5899C199.539 50.5799 200.039 51.1299 200.089 54.6899C200.109 56.0999 200.099 57.5099 200.099 58.9299V58.9099Z" fill="white"/>
<path d="M214.391 63.3899C213.581 63.3899 212.771 63.3199 211.971 63.3999C209.041 63.6799 208.041 62.2699 208.071 59.4699C208.181 49.3899 207.141 50.6199 216.991 50.5699C220.431 50.5499 220.981 51.1499 221.031 54.6399C221.031 55.3499 221.031 56.0599 221.031 56.7599C221.031 61.1799 218.821 63.3866 214.401 63.3799L214.391 63.3899Z" fill="white"/>
<path d="M241.63 57.1399V58.6499C241.62 62.9799 241.23 63.3799 237.01 63.3899C236.4 63.3899 235.8 63.3899 235.19 63.3899C230.844 63.3899 228.667 61.2465 228.66 56.9599C228.654 52.6732 230.737 50.5365 234.91 50.5499C239.384 50.5499 241.62 52.7432 241.62 57.1299L241.63 57.1399Z" fill="white"/>
<path d="M241.617 97.4098C241.617 98.0198 241.617 98.6198 241.617 99.2298C241.617 103.676 239.411 105.897 234.997 105.89C234.297 105.89 233.588 105.89 232.888 105.89C229.188 105.85 228.687 105.38 228.677 101.69C228.647 91.9898 227.977 93.0398 237.237 93.0298C241.027 93.0298 241.597 93.6098 241.627 97.4198L241.617 97.4098Z" fill="white"/>
<path d="M200.108 32.5397C200.018 34.0497 200.098 35.5697 200.088 37.0797C200.048 41.1297 199.638 41.5297 195.518 41.5397H193.698C192.688 41.5397 191.678 41.5197 190.678 41.5497C188.288 41.6197 187.138 40.5097 187.148 38.0997C187.188 27.4897 186.138 28.7997 196.158 28.6397C199.038 28.5997 200.278 29.6897 200.108 32.5397Z" fill="white"/>
<path d="M232.799 41.5302C229.289 41.5302 228.759 41.0002 228.669 37.5702C228.649 36.8702 228.669 36.1702 228.669 35.4702C228.669 34.4102 228.669 33.5102 228.689 32.7602C228.699 32.4902 228.709 32.2402 228.729 32.0002C228.739 31.8102 228.759 31.6202 228.779 31.4502C228.789 31.3702 228.799 31.2802 228.819 31.2002C228.859 30.8902 228.919 30.6202 228.999 30.3902C229.019 30.3202 229.049 30.2602 229.079 30.1902C229.099 30.1302 229.129 30.0702 229.159 30.0102C229.159 29.9902 229.169 29.9702 229.179 29.9602C229.209 29.9002 229.249 29.8402 229.289 29.7902C229.339 29.7102 229.399 29.6402 229.459 29.5702C229.499 29.5302 229.539 29.4902 229.579 29.4502C229.629 29.4002 229.699 29.3502 229.759 29.3102C229.819 29.2702 229.879 29.2302 229.949 29.1902C230.029 29.1402 230.129 29.0902 230.229 29.0602C230.279 29.0402 230.339 29.0202 230.399 29.0002C230.559 28.9502 230.749 28.9002 230.949 28.8602C231.049 28.8402 231.149 28.8302 231.259 28.8102C231.469 28.7802 231.709 28.7602 231.959 28.7402C232.209 28.7202 232.489 28.7102 232.779 28.7002C233.499 28.6802 234.359 28.6802 235.359 28.6802C235.609 28.6802 235.859 28.6802 236.109 28.6802C236.659 28.7002 237.219 28.7102 237.769 28.6602C240.669 28.4102 241.689 29.8202 241.669 32.5902C241.589 42.5102 242.519 41.5102 232.819 41.5202L232.799 41.5302Z" fill="white"/>
<path d="M200.081 99.1102C200.081 103.617 197.831 105.87 193.331 105.87C192.321 105.87 191.311 105.87 190.301 105.87C188.191 105.88 187.131 104.84 187.141 102.72C187.141 100.6 187.141 98.4802 187.141 96.3602C187.131 94.1402 188.171 92.9902 190.451 93.0202C192.561 93.0502 194.691 93.0703 196.811 93.0103C198.961 92.9503 199.991 93.9903 200.071 96.0703C200.111 97.0803 200.071 98.0903 200.071 99.1003L200.081 99.1102Z" fill="white"/>
<path d="M220.98 102.971C220.94 104.911 219.96 105.921 217.96 105.891C216.75 105.871 215.55 105.961 214.35 105.961C210.183 105.961 208.097 103.851 208.09 99.6305C208.09 95.2239 210.297 93.0205 214.71 93.0205C215.82 93.0205 216.92 93.0205 218.03 93.0205C220.02 93.0305 220.97 94.1205 221 96.0305C221.04 98.3405 221.02 100.651 220.98 102.961V102.971Z" fill="white"/>
<path d="M145.208 135.53C145.181 141.09 142.381 143.87 136.808 143.87C131.235 143.87 128.438 141.1 128.418 135.56C128.328 127.12 128.348 127.1 136.638 127.05C142.378 127.017 145.235 129.843 145.208 135.53Z" fill="white"/>
<path d="M145.218 80.9397C145.218 86.4397 142.488 89.1897 137.028 89.1897H136.728C131.188 89.1897 128.418 86.3897 128.418 80.7897C128.418 75.1897 131.191 72.4064 136.738 72.4397C142.391 72.4264 145.221 75.2597 145.228 80.9397H145.218Z" fill="white"/>
<path d="M118.319 80.8604C118.319 86.4338 115.536 89.2204 109.969 89.2204C104.402 89.2204 101.622 86.3438 101.629 80.5904C101.629 75.1571 104.346 72.4404 109.779 72.4404C115.472 72.4404 118.319 75.2471 118.319 80.8604Z" fill="white"/>
<path d="M118.27 135.58C118.27 141.107 115.48 143.87 109.9 143.87C104.32 143.87 101.563 141.08 101.63 135.5C101.697 129.92 104.54 127.11 110.16 127.07C115.593 127.084 118.297 129.82 118.27 135.28C118.27 135.38 118.27 135.48 118.27 135.58Z" fill="white"/>
<path d="M136.89 116.08C131.237 116.08 128.41 113.256 128.41 107.61C128.41 102.156 131.13 99.4297 136.57 99.4297C142.337 99.4297 145.22 102.303 145.22 108.05C145.22 113.396 142.444 116.076 136.89 116.09V116.08Z" fill="white"/>
<path d="M118.291 107.93C118.291 113.357 115.478 116.07 109.851 116.07C104.364 116.07 101.621 113.28 101.621 107.7C101.621 102.12 104.381 99.3666 109.901 99.4399C115.421 99.5132 118.218 102.343 118.291 107.93Z" fill="white"/>
<path d="M34.2978 147.03C34.2978 152.59 31.5145 155.37 25.9478 155.37C20.3811 155.37 17.5678 152.513 17.5078 146.8C17.5078 141.32 20.2445 138.58 25.7178 138.58C31.4378 138.58 34.2978 141.397 34.2978 147.03Z" fill="white"/>
<path d="M57.8803 146.82C57.8803 152.54 55.047 155.393 49.3803 155.38C43.8337 155.367 41.0637 152.577 41.0703 147.01C41.077 141.443 43.9403 138.633 49.6603 138.58C57.8303 138.58 57.9003 138.64 57.8903 146.82H57.8803Z" fill="white"/>
<path d="M34.2883 171.81C34.2883 177.103 31.3983 179.75 25.6183 179.75C20.1983 179.75 17.4883 177.016 17.4883 171.55C17.4883 165.97 20.2349 163.18 25.7283 163.18C31.4349 163.18 34.2883 166.06 34.2883 171.82V171.81Z" fill="white"/>
<path d="M49.1803 179.73C43.7736 179.73 41.0703 177.01 41.0703 171.57C41.0703 165.963 43.9036 163.166 49.5703 163.18C55.1036 163.186 57.8736 165.956 57.8803 171.49C57.887 177.023 54.9903 179.773 49.1903 179.74L49.1803 179.73Z" fill="white"/>
</svg>
