<?xml version="1.0" encoding="UTF-8"?>
<svg xmlns="http://www.w3.org/2000/svg" version="1.1" viewBox="0 0 595.28 595.28">
  <defs>
    <style>
      .cls-1 {
        fill: #fff;
      }

      .cls-2 {
        fill: #242753;
      }
    </style>
  </defs>
  <!-- Generator: Adobe Illustrator 28.7.2, SVG Export Plug-In . SVG Version: 1.2.0 Build 154)  -->
  <g>
    <g id="Camada_1">
      <g id="o5RSxy">
        <g>
          <path class="cls-2" d="M392.83,343.95h-41.7c.39-.69.52-1.02.73-1.27,3.01-3.58,5.38-8.6,9.23-10.34,4.04-1.83,9.49-.55,14.33-.57,5.97-.03,11.95,0,18.24,0-.46-9.24-1.51-18.11-4.76-26.45-1.73-4.44-1.36-7.53,1.94-10.94,3.67-3.79,6.76-8.13,10.16-12.29,25.18,46.07,15.24,115.25-41.35,150.89-60.49,38.1-136.18,13.67-166.05-46.51-30.29-61.04-2.17-130.42,54.45-156.84,1.52,6.56,3.03,13.13,4.66,20.14-13.02,7.44-24.79,16.98-34.05,30.67,12.58,3.63,24.6,7.09,36.88,10.63,1.86-8.48,3.57-16.29,5.4-24.64,3.24,4.23,6.24,7.94,8.96,11.84.58.83.4,2.39.2,3.55-.58,3.48-1.33,6.93-2.09,10.74,4.24.45,8.15.67,11.98,1.35,1.57.28,3.3,1.2,4.38,2.37,2.92,3.16,5.52,6.62,8.89,10.74-9.41-.67-18.12-1.28-27.15-1.92-.64,8.78-1.27,17.47-1.95,26.68h4.57c12.88,0,25.76.16,38.63-.09,4.18-.08,7.25.65,9.49,4.52,1.54,2.65,3.89,4.84,6.43,7.9h-58.78c.79,9.11,1.55,17.77,2.35,26.95,5.68-.41,11.18-1.14,16.68-1.13,12.43.01,24.88.02,37.29.75,7.1.42,7.16,1.08,8.13-5.88.7-5.01,1.08-10.07,1.57-14.78,3.85.17,7.7.34,12.17.54-.42,5.11-.86,10.38-1.31,15.65-.03.37-.25.73-.31,1.1-.91,5.45-.66,5.7,4.5,7.12,10.55,2.9,21.06,5.97,31.63,8.8,1.12.3,3.25-.11,3.71-.89,6.59-11.22,10.59-23.34,12.08-36.28.06-.5-.05-1.01-.12-2.08ZM325.94,383.86c-1.13-.37-1.82-.75-2.55-.8-8.09-.56-16.19-1.49-24.29-1.47-8.99.02-17.97.99-26.96,1.38-3.2.14-2.79,2.2-2.27,3.95,3.96,13.37,8.08,26.7,12.07,40.07.59,1.99,1.57,2.82,3.69,2.8,8.95-.08,17.9-.04,26.56-.04,6.25-15.14,10.69-30.24,13.74-45.89ZM253.79,303.08c-.52-.2-.84-.35-1.18-.45-12.86-3.8-25.71-7.63-38.61-11.29-.73-.21-2.35.76-2.7,1.56-2,4.6-4.26,9.18-5.45,14.01-1.98,8-3.23,16.18-4.83,24.54h50.83c.66-9.66,1.31-19,1.95-28.37ZM202.28,344.1c1.13,13.48,5.29,25.61,11.38,37.22,1.41,2.69,2.81,2.6,5.35,1.79,8.68-2.76,17.46-5.25,26.22-7.74,2.89-.82,6.98-.45,8.47-2.29,1.41-1.75.13-5.67.04-8.63,0-.25.02-.51,0-.76-.57-6.51-1.15-13.02-1.74-19.59h-49.73ZM327.72,425.52c14.58-3.39,37.51-19.32,44.57-31.38-11.35-3.07-22.54-6.09-33.36-9.01-3.87,13.94-7.53,27.12-11.21,40.39ZM222.94,394.17c7.76,12.44,33.05,29.81,44.72,31.27-3.7-13.23-7.44-26.59-11.29-40.35-11.05,3-22.13,6.01-33.43,9.08Z"/>
          <path class="cls-2" d="M408.39,196.32c-9.35-30.2-38.47-52.39-71.27-52.26-3.79.35-7.6.52-11.36,1.09-18.96,2.83-34.61,11.84-46.69,26.51-11.86,14.38-17.57,31.1-16.95,49.92.53,16.07,5.53,30.52,15.34,43.16,9.16,11.81,18.74,23.29,28.14,34.92,9.32,11.54,18.62,23.07,27.95,34.58,2.38,2.94,3.86,2.98,6.53.29.8-.81,1.54-1.7,2.26-2.59,17.58-21.79,35.27-43.5,52.71-65.4,16.71-21,21.28-44.57,13.35-70.21ZM335.84,273.54c-29.31-.41-54.11-24.29-53.74-55.6.37-30.45,25.34-54.46,54.77-54.04,29.48-.34,55.21,22.93,55.09,54.97-.12,31.6-25.04,55.1-56.12,54.66Z"/>
          <path class="cls-1" d="M336.88,163.9c-29.43-.42-54.4,23.59-54.77,54.04-.37,31.3,24.42,55.19,53.74,55.6,31.08.44,56-23.06,56.12-54.66.12-32.04-25.61-55.31-55.09-54.97ZM356.79,186.78c-.38,1.44-2.72,2.76-4.46,3.34-3.21,1.07-6.61,1.68-9.96,2.27-13.03,2.27-23.87,8.58-33.21,17.75-1.81,1.77-3.67,3.56-5.78,4.93-1.45.96-3.7,2.07-4.98,1.56-1.26-.5-2.33-2.9-2.49-4.56-1.12-12.22,4.29-21.8,13.02-29.66,6.57-5.91,14.58-8.43,23.21-8.26,6.84-.08,13.01,1.64,18.78,4.81,1.32.72,2.74,1.58,3.6,2.75,1.12,1.51,2.65,3.66,2.27,5.06Z"/>
          <path class="cls-2" d="M356.79,186.78c-.38,1.44-2.72,2.76-4.46,3.34-3.21,1.07-6.61,1.68-9.96,2.27-13.03,2.27-23.87,8.58-33.21,17.75-1.81,1.77-3.67,3.56-5.78,4.93-1.45.96-3.7,2.07-4.98,1.56-1.26-.5-2.33-2.9-2.49-4.56-1.12-12.22,4.29-21.8,13.02-29.66,6.57-5.91,14.58-8.43,23.21-8.26,6.84-.08,13.01,1.64,18.78,4.81,1.32.72,2.74,1.58,3.6,2.75,1.12,1.51,2.65,3.66,2.27,5.06Z"/>
        </g>
      </g>
    </g>
  </g>
</svg>