<?xml version="1.0" encoding="UTF-8"?>
<svg xmlns="http://www.w3.org/2000/svg" version="1.1" viewBox="0 0 595.28 595.28">
  <defs>
    <style>
      .cls-1 {
        fill: #fff;
      }

      .cls-2 {
        fill: #242852;
      }
    </style>
  </defs>
  <!-- Generator: Adobe Illustrator 28.7.2, SVG Export Plug-In . SVG Version: 1.2.0 Build 154)  -->
  <g>
    <g id="Camada_1">
      <g id="czE7r7">
        <g>
          <path class="cls-2" d="M463.86,236.97c-3.01-.77-6-1.62-9.04-2.44-2.78,6.75-5.31,13.41-8.21,19.91-25.83,57.96-67.74,100.5-124.1,129.13-32.51,16.52-67.01,26.92-102.82,33.27-29.4,5.22-59.03,7.54-88.87,7.24-6.92-.07-9.44-2.56-9.44-9.54,0-6.77-.02-13.53,0-20.3.03-5.21,3.1-8.16,8.25-8.34,16.44-.58,32.95-.5,49.3-2.02,49.78-4.63,97.49-16.66,141.07-42.13,46.46-27.17,78.85-66.2,97.5-116.66.07-.19.1-.39.25-.91-3.06-.88-5.96-1.68-8.85-2.55-6.5-1.94-8.34-8.95-3.3-13.45,13.17-11.77,26.45-23.42,39.77-35.03,4.22-3.68,10.62-1.99,12.33,3.36,5.44,16.97,10.76,33.98,15.88,51.04,1.82,6.04-3.51,11.02-9.7,9.43Z"/>
          <path class="cls-2" d="M376.74,188.5c0-5.87-.15-5.9-6.01-6.5-1.16-.12-3.06-1.45-3.11-2.31-.21-3.49-2.1-4.09-5.05-4.07-10.6.08-21.2.04-31.81.04-7.37,0-14.74,0-22.12,0-1.91,0-4.03.18-4.07,2.56-.04,3.41-1.86,3.96-4.68,3.93-5.07-.04-6.36,1.37-6.36,6.5v73.91c0,24.74-.01,49.47,0,74.21,0,4.94,3.18,6.93,7.62,4.68,27.92-14.08,52.24-32.73,72.2-56.92,2.36-2.87,3.45-5.92,3.44-9.68-.1-28.77-.05-57.55-.05-86.33ZM317.08,221.57c3.45-.01,3.95.54,4,4.1.02,1.41.01,2.82.01,4.24-.01,4.04-.44,4.46-4.54,4.48h-2.12c-.91.01-1.82-.04-2.72.02-2.63.17-3.6-1.16-3.59-3.65.04-10.37-.88-9.14,8.96-9.17ZM321.08,270.11q0,6.76-6.75,6.76c-1.01,0-2.02,0-3.03,0-2.11.01-3.17-1.03-3.16-3.15,0-2.12,0-4.24,0-6.36-.01-2.22,1.03-3.37,3.31-3.34,2.11.03,4.24.05,6.36-.01,2.15-.06,3.18.98,3.26,3.06.04,1.01,0,2.02,0,3.03ZM317.59,255.49c-9.66.44-9.73.36-9.48-9.35.06-2.5,1.11-3.74,3.59-3.78.9-.01,1.81,0,2.71,0q6.68,0,6.69,6.61c0,1.01,0,2.01,0,3.01.01,2.36-1.15,3.4-3.51,3.51ZM321.11,203.54c-.09,1.51-.01,3.03-.02,4.54-.04,4.05-.45,4.45-4.57,4.46h-1.82c-1.01,0-2.02-.02-3.02.01-2.39.07-3.54-1.04-3.53-3.45.04-10.61-1.01-9.3,9.01-9.46,2.88-.04,4.12,1.05,3.95,3.9ZM335.39,234.39c-.81,0-1.62-.07-2.42.01-2.93.28-3.93-1.13-3.9-3.93.11-10.08-.93-8.85,8.92-8.9,3.44-.02,3.99.58,4.04,4.07,0,.71,0,1.42,0,2.12q0,6.63-6.63,6.62ZM329.11,246.51c.04-3.41.65-4.04,4.01-4.13.8-.02,1.61-.02,2.41-.02,6.47-.02,6.5,0,6.5,6.55,0,1.01-.02,2.01,0,3.01.05,2.37-1.12,3.43-3.47,3.56q-9.57.51-9.45-8.96ZM341.98,273.97c-.04,1.94-1.02,2.95-3.02,2.92-1.21-.02-2.41.07-3.61.07q-6.25,0-6.26-6.33,0-6.61,6.62-6.61c1.11,0,2.21,0,3.32,0,1.99.01,2.94,1.1,2.97,3.01.04,2.31.02,4.62-.02,6.93ZM335.75,212.54c-.81,0-1.62,0-2.42,0-3.71-.02-4.18-.47-4.21-4.2-.02-1.91,0-3.83.02-5.75.02-1.99,1.05-2.95,3.04-2.91,1.11.02,2.22,0,3.33,0q6.52,0,6.53,6.45t-6.28,6.42ZM362.62,270.23q0,6.67-6.62,6.66c-.7,0-1.41,0-2.11,0-3.7-.04-4.2-.51-4.21-4.2-.03-9.7-.7-8.65,8.56-8.66,3.79,0,4.36.58,4.39,4.39,0,.61,0,1.21,0,1.82ZM362.62,250.58c0,4.24-.62,4.87-4.85,4.88h-1.81c-1.01,0-2.01,0-3.01,0-2.05-.02-3.21-1.02-3.27-3.1-.05-2.21-.05-4.42-.05-6.63s1.12-3.34,3.34-3.35c2.11,0,4.22-.04,6.33.02,2.15.05,3.37,1.08,3.33,3.36-.03,1.61,0,3.21,0,4.82ZM362.63,229.66c-.01,4.33-.4,4.73-4.62,4.74-.61,0-1.21,0-1.82,0q-6.52,0-6.53-6.43,0-6.41,6.25-6.41,6.71,0,6.71,6.58v1.51ZM353.8,212.53c-3.51,0-4.04-.53-4.13-3.96-.02-.7,0-1.4,0-2.1,0-1.06,0-1.96.02-2.71.01-.27.02-.52.04-.76.01-.19.03-.38.05-.55.01-.08.02-.17.04-.25.04-.31.1-.58.18-.81.02-.07.05-.13.08-.2.02-.06.05-.12.08-.18,0-.02.01-.04.02-.05.03-.06.07-.12.11-.17.05-.08.11-.15.17-.22.03-.04.07-.08.12-.12.05-.05.12-.1.18-.14.06-.04.12-.08.19-.12.08-.05.18-.1.28-.13.05-.02.11-.04.17-.06.16-.05.35-.1.55-.14.1-.02.2-.04.31-.05.21-.03.45-.05.7-.07.25-.02.53-.04.82-.04.73-.02,1.58-.02,2.58-.02.25,0,.5,0,.75.01.55.02,1.11.03,1.66-.02,2.9-.25,3.92,1.16,3.9,3.93-.08,9.92.85,8.92-8.85,8.93Z"/>
          <path class="cls-2" d="M282.2,226.42c0-4.76-1.33-6.08-6.11-6.08-20.29,0-40.6,0-60.89,0-6.38,0-8.25,1.88-8.25,8.31v66.33h.01v6.96c0,20.4-.03,40.8,0,61.19,0,4.84,2.93,7.31,7.61,6.48,20.97-3.71,41.43-9.33,61.3-17,5.13-1.98,6.33-3.71,6.33-9.29,0-38.97,0-77.94-.01-116.91ZM230.9,314.87q-8.25,0-8.27-8.37t8.53-8.43q8.15.02,8.11,8.21c0,.1,0,.2,0,.3q0,8.29-8.37,8.29ZM230.85,287.08q-8.23,0-8.23-8.37,0-8.26,8.28-8.26,8.39,0,8.39,8.49,0,8.14-8.44,8.14ZM230.97,260.22q-8.34,0-8.34-8.63,0-8.15,8.15-8.15,8.54,0,8.54,8.42,0,8.36-8.35,8.36ZM266.21,306.53q-.04,8.34-8.4,8.34-8.3,0-8.39-8.31c-.09-8.44-.07-8.46,8.22-8.51q8.61-.05,8.57,8.48ZM249.41,278.61q0-8.18,8.16-8.18,8.65,0,8.65,8.62,0,8.02-8.33,8.04-8.48,0-8.48-8.47ZM258.03,260.19h-.3q-8.31,0-8.31-8.4,0-8.34,8.32-8.35,8.48-.02,8.49,8.5,0,8.25-8.19,8.25Z"/>
          <path class="cls-2" d="M196.52,298.68c-.01-4.47-1.58-8.49-4.67-11.82-7.96-8.58-15.92-17.17-23.92-25.72-6.09-6.5-12.05-6.37-18.03.25-7.85,8.68-15.74,17.34-23.63,25.99-3.19,3.5-4.92,7.53-4.91,12.32.04,11.51.01,23.02.01,34.53v34.53c0,5.78,2.05,7.99,7.76,7.93,10.6-.12,21.21-.11,31.78-.7,10.06-.56,20.09-1.71,30.12-2.79,3.68-.4,5.51-2.71,5.51-6.37.02-22.71.04-45.43-.03-68.15ZM146.63,350.75q-8.13,0-8.13-8.2,0-8.37,8.24-8.37,8.56,0,8.56,8.64,0,7.94-8.67,7.94ZM146.95,326.37q-8.44,0-8.44-8.57,0-8.22,8.21-8.22,8.58,0,8.58,8.45t-8.35,8.34ZM170.18,350.73q-8.11,0-8.11-8.16,0-8.41,8.5-8.39,8.3.01,8.31,8.31,0,8.25-8.69,8.25ZM178.88,317.82q0,8.58-8.5,8.56-8.32-.02-8.31-8.37,0-8.44,8.59-8.43c8.17,0,8.24.06,8.23,8.24Z"/>
          <path class="cls-1" d="M362.62,250.58c0,4.24-.62,4.87-4.85,4.88h-1.81c-1.01,0-2.01,0-3.01,0-2.05-.02-3.21-1.02-3.27-3.1-.05-2.21-.05-4.42-.05-6.63s1.12-3.34,3.34-3.35c2.11,0,4.22-.04,6.33.02,2.15.05,3.37,1.08,3.33,3.36-.03,1.61,0,3.21,0,4.82Z"/>
          <path class="cls-1" d="M321.11,251.98c.01,2.36-1.15,3.4-3.51,3.51-9.66.44-9.73.36-9.48-9.35.06-2.5,1.11-3.74,3.59-3.78.9-.01,1.81,0,2.71,0q6.68,0,6.69,6.61c0,1.01,0,2.01,0,3.01Z"/>
          <path class="cls-1" d="M342.02,251.92c.05,2.37-1.12,3.43-3.47,3.56q-9.57.51-9.45-8.96c.04-3.41.65-4.04,4.01-4.13.8-.02,1.61-.02,2.41-.02,6.47-.02,6.5,0,6.5,6.55,0,1.01-.02,2.01,0,3.01Z"/>
          <path class="cls-1" d="M335.75,212.54c-.81,0-1.62,0-2.42,0-3.71-.02-4.18-.47-4.21-4.2-.02-1.91,0-3.83.02-5.75.02-1.99,1.05-2.95,3.04-2.91,1.11.02,2.22,0,3.33,0q6.52,0,6.53,6.45t-6.28,6.42Z"/>
          <path class="cls-1" d="M321.1,229.91c-.01,4.04-.44,4.46-4.54,4.48h-2.12c-.91.01-1.82-.04-2.72.02-2.63.17-3.6-1.16-3.59-3.65.04-10.37-.88-9.14,8.96-9.17,3.45-.01,3.95.54,4,4.1.02,1.41.01,2.82.01,4.24Z"/>
          <path class="cls-1" d="M335.39,234.39c-.81,0-1.62-.07-2.42.01-2.93.28-3.93-1.13-3.9-3.93.11-10.08-.93-8.85,8.92-8.9,3.44-.02,3.99.58,4.04,4.07,0,.71,0,1.42,0,2.12q0,6.63-6.63,6.62Z"/>
          <path class="cls-1" d="M362.63,228.14v1.51c-.01,4.33-.4,4.73-4.62,4.74-.61,0-1.21,0-1.82,0q-6.52,0-6.53-6.43t6.25-6.41q6.71,0,6.71,6.58Z"/>
          <path class="cls-1" d="M362.62,268.41c0,.61,0,1.21,0,1.82q0,6.67-6.62,6.66c-.7,0-1.41,0-2.11,0-3.7-.04-4.2-.51-4.21-4.2-.03-9.7-.7-8.65,8.56-8.66,3.79,0,4.36.58,4.39,4.39Z"/>
          <path class="cls-1" d="M321.11,203.54c-.09,1.51-.01,3.03-.02,4.54-.04,4.05-.45,4.45-4.57,4.46h-1.82c-1.01,0-2.02-.02-3.02.01-2.39.07-3.54-1.04-3.53-3.45.04-10.61-1.01-9.3,9.01-9.46,2.88-.04,4.12,1.05,3.95,3.9Z"/>
          <path class="cls-1" d="M353.8,212.53c-3.51,0-4.04-.53-4.13-3.96-.02-.7,0-1.4,0-2.1,0-1.06,0-1.96.02-2.71.01-.27.02-.52.04-.76.01-.19.03-.38.05-.55.01-.08.02-.17.04-.25.04-.31.1-.58.18-.81.02-.07.05-.13.08-.2.02-.06.05-.12.08-.18,0-.02.01-.04.02-.05.03-.06.07-.12.11-.17.05-.08.11-.15.17-.22.04-.04.08-.08.12-.12.05-.05.12-.1.18-.14.06-.04.12-.08.19-.12.08-.05.18-.1.28-.13.05-.02.11-.04.17-.06.16-.05.35-.1.55-.14.1-.02.2-.03.31-.05.21-.03.45-.05.7-.07.25-.02.53-.03.82-.04.72-.02,1.58-.02,2.58-.02.25,0,.5,0,.75,0,.55.02,1.11.03,1.66-.02,2.9-.25,3.92,1.16,3.9,3.93-.08,9.92.85,8.92-8.85,8.93Z"/>
          <path class="cls-1" d="M321.08,270.11q0,6.76-6.75,6.76c-1.01,0-2.02,0-3.03,0-2.11.01-3.17-1.03-3.16-3.15,0-2.12,0-4.24,0-6.36-.01-2.22,1.03-3.37,3.31-3.34,2.11.03,4.24.05,6.36-.01,2.15-.06,3.18.98,3.26,3.06.04,1.01,0,2.02,0,3.03Z"/>
          <path class="cls-1" d="M341.98,273.97c-.04,1.94-1.02,2.95-3.02,2.92-1.21-.02-2.41.07-3.61.07q-6.25,0-6.26-6.33,0-6.61,6.62-6.61c1.11,0,2.21,0,3.32,0,1.99.01,2.94,1.1,2.97,3.01.04,2.31.02,4.62-.02,6.93Z"/>
          <path class="cls-1" d="M266.21,306.53q-.04,8.34-8.4,8.34t-8.39-8.31c-.09-8.44-.07-8.46,8.22-8.51q8.61-.05,8.57,8.48Z"/>
          <path class="cls-1" d="M266.22,251.94q0,8.25-8.19,8.25h-.3q-8.31,0-8.31-8.4t8.32-8.35q8.48-.02,8.49,8.5Z"/>
          <path class="cls-1" d="M239.32,251.86q0,8.36-8.35,8.36t-8.34-8.63q0-8.15,8.15-8.15,8.54,0,8.54,8.42Z"/>
          <path class="cls-1" d="M239.27,306.58q0,8.29-8.37,8.29t-8.27-8.37,8.53-8.43q8.15.02,8.11,8.21c0,.1,0,.2,0,.3Z"/>
          <path class="cls-1" d="M257.89,287.08q-8.48,0-8.48-8.47,0-8.18,8.16-8.18,8.65,0,8.65,8.62,0,8.02-8.33,8.04Z"/>
          <path class="cls-1" d="M239.29,278.93q0,8.14-8.44,8.14-8.23,0-8.23-8.37t8.28-8.26,8.39,8.49Z"/>
          <path class="cls-1" d="M155.3,318.03q0,8.34-8.35,8.34t-8.44-8.57q0-8.22,8.21-8.22,8.58,0,8.58,8.45Z"/>
          <path class="cls-1" d="M178.88,317.82q0,8.58-8.5,8.56-8.32-.02-8.31-8.37t8.59-8.43c8.17,0,8.24.06,8.23,8.24Z"/>
          <path class="cls-1" d="M155.29,342.81q0,7.94-8.67,7.94-8.13,0-8.13-8.2,0-8.37,8.24-8.37,8.56,0,8.56,8.64Z"/>
          <path class="cls-1" d="M170.18,350.73q-8.11,0-8.11-8.16,0-8.41,8.5-8.39,8.3.01,8.31,8.31t-8.69,8.25Z"/>
        </g>
      </g>
    </g>
  </g>
</svg>