<svg width="234" height="308" viewBox="0 0 234 308" fill="none" xmlns="http://www.w3.org/2000/svg">
<path d="M211.831 199.95H170.131C170.521 199.26 170.651 198.93 170.861 198.68C173.871 195.1 176.241 190.08 180.091 188.34C184.131 186.51 189.581 187.79 194.421 187.77C200.391 187.74 206.371 187.77 212.661 187.77C212.201 178.53 211.151 169.66 207.901 161.32C206.171 156.88 206.541 153.79 209.841 150.38C213.511 146.59 216.601 142.25 220.001 138.09C245.181 184.16 235.241 253.34 178.651 288.98C118.161 327.08 42.4705 302.65 12.6005 242.47C-17.6895 181.43 10.4305 112.05 67.0505 85.6304C68.5705 92.1904 70.0805 98.7604 71.7105 105.77C58.6905 113.21 46.9205 122.75 37.6605 136.44C50.2405 140.07 62.2605 143.53 74.5405 147.07C76.4005 138.59 78.1105 130.78 79.9405 122.43C83.1805 126.66 86.1805 130.37 88.9005 134.27C89.4805 135.1 89.3005 136.66 89.1005 137.82C88.5205 141.3 87.7705 144.75 87.0105 148.56C91.2505 149.01 95.1605 149.23 98.9905 149.91C100.561 150.19 102.291 151.11 103.371 152.28C106.291 155.44 108.891 158.9 112.261 163.02C102.851 162.35 94.1405 161.74 85.1105 161.1C84.4705 169.88 83.8405 178.57 83.1605 187.78H87.7305C100.611 187.78 113.49 187.94 126.36 187.69C130.54 187.61 133.611 188.34 135.851 192.21C137.391 194.86 139.741 197.05 142.281 200.11H83.5005C84.2905 209.22 85.0505 217.88 85.8505 227.06C91.5305 226.65 97.0305 225.92 102.531 225.93C114.961 225.94 127.411 225.95 139.821 226.68C146.921 227.1 146.981 227.76 147.951 220.8C148.651 215.79 149.031 210.73 149.521 206.02C153.371 206.19 157.221 206.36 161.691 206.56C161.271 211.67 160.831 216.94 160.381 222.21C160.351 222.58 160.131 222.94 160.071 223.31C159.161 228.76 159.411 229.01 164.571 230.43C175.121 233.33 185.631 236.4 196.201 239.23C197.321 239.53 199.451 239.12 199.911 238.34C206.501 227.12 210.501 215 211.991 202.06C212.051 201.56 211.941 201.05 211.871 199.98L211.831 199.95ZM144.941 239.86C143.811 239.49 143.121 239.11 142.391 239.06C134.301 238.5 126.201 237.57 118.101 237.59C109.111 237.61 100.131 238.58 91.1405 238.97C87.9405 239.11 88.3505 241.17 88.8705 242.92C92.8305 256.29 96.9505 269.62 100.941 282.99C101.531 284.98 102.511 285.81 104.631 285.79C113.581 285.71 122.531 285.75 131.191 285.75C137.441 270.61 141.881 255.51 144.931 239.86H144.941ZM72.7905 159.08C72.2705 158.88 71.9505 158.73 71.6105 158.63C58.7505 154.83 45.9005 151 33.0005 147.34C32.2705 147.13 30.6505 148.1 30.3005 148.9C28.3005 153.5 26.0405 158.08 24.8505 162.91C22.8705 170.91 21.6205 179.09 20.0205 187.45H70.8505C71.5105 177.79 72.1605 168.45 72.8005 159.08H72.7905ZM21.2805 200.1C22.4105 213.58 26.5705 225.71 32.6605 237.32C34.0705 240.01 35.4705 239.92 38.0105 239.11C46.6905 236.35 55.4705 233.86 64.2305 231.37C67.1205 230.55 71.2105 230.92 72.7005 229.08C74.1105 227.33 72.8305 223.41 72.7405 220.45C72.7405 220.2 72.7605 219.94 72.7405 219.69C72.1705 213.18 71.5905 206.67 71.0005 200.1H21.2705H21.2805ZM146.721 281.52C161.301 278.13 184.231 262.2 191.291 250.14C179.941 247.07 168.751 244.05 157.931 241.13C154.061 255.07 150.401 268.25 146.721 281.52ZM41.9405 250.17C49.7005 262.61 74.9905 279.98 86.6605 281.44C82.9605 268.21 79.2205 254.85 75.3705 241.09C64.3205 244.09 53.2405 247.1 41.9405 250.17Z" fill="#242753"/>
<path d="M227.39 52.3201C218.04 22.1201 188.92 -0.0698615 156.12 0.0601385C152.33 0.410139 148.52 0.580135 144.76 1.15013C125.8 3.98013 110.15 12.9901 98.0698 27.6601C86.2098 42.0401 80.4998 58.7601 81.1198 77.5801C81.6498 93.6501 86.6498 108.1 96.4598 120.74C105.62 132.55 115.2 144.03 124.6 155.66C133.92 167.2 143.22 178.73 152.55 190.24C154.93 193.18 156.41 193.22 159.08 190.53C159.88 189.72 160.62 188.83 161.34 187.94C178.92 166.15 196.61 144.44 214.05 122.54C230.76 101.54 235.33 77.9701 227.4 52.3301L227.39 52.3201ZM154.84 129.54C125.53 129.13 100.73 105.25 101.1 73.9401C101.47 43.4901 126.44 19.4801 155.87 19.9001C185.35 19.5601 211.08 42.8301 210.96 74.8701C210.84 106.47 185.92 129.97 154.84 129.53V129.54Z" fill="#242753"/>
<path d="M155.88 19.9C126.45 19.48 101.48 43.49 101.11 73.94C100.74 105.24 125.53 129.13 154.85 129.54C185.93 129.98 210.85 106.48 210.97 74.88C211.09 42.84 185.36 19.57 155.88 19.91V19.9ZM175.79 42.78C175.41 44.22 173.07 45.54 171.33 46.12C168.12 47.19 164.72 47.8 161.37 48.39C148.34 50.66 137.5 56.97 128.16 66.14C126.35 67.91 124.49 69.7 122.38 71.07C120.93 72.03 118.68 73.14 117.4 72.63C116.14 72.13 115.07 69.73 114.91 68.07C113.79 55.85 119.2 46.27 127.93 38.41C134.5 32.5 142.51 29.98 151.14 30.15C157.98 30.07 164.15 31.79 169.92 34.96C171.24 35.68 172.66 36.54 173.52 37.71C174.64 39.22 176.17 41.37 175.79 42.77V42.78Z" fill="white"/>
<path d="M175.79 42.7801C175.41 44.2201 173.07 45.5401 171.33 46.1201C168.12 47.1901 164.72 47.8001 161.37 48.3901C148.34 50.6601 137.5 56.9701 128.16 66.1401C126.35 67.9101 124.49 69.7001 122.38 71.0701C120.93 72.0301 118.68 73.1401 117.4 72.6301C116.14 72.1301 115.07 69.7301 114.91 68.0701C113.79 55.8501 119.2 46.2701 127.93 38.4101C134.5 32.5001 142.51 29.9801 151.14 30.1501C157.98 30.0701 164.15 31.7901 169.92 34.9601C171.24 35.6801 172.66 36.5401 173.52 37.7101C174.64 39.2201 176.17 41.3701 175.79 42.7701V42.7801Z" fill="#242753"/>
</svg>
