<svg width="1078" height="979" viewBox="0 0 1078 979" fill="none" xmlns="http://www.w3.org/2000/svg">
<path d="M708.799 373.15C690.929 391.01 673.129 408.8 655.339 426.59C653.879 428.05 652.319 429.46 651.049 431.08C647.509 435.63 647.939 442.07 651.909 446.11C656.089 450.36 662.509 450.78 667.239 447.06C668.399 446.15 669.409 445.06 670.459 444.01C687.319 427.16 704.179 410.32 720.999 393.43C722.139 392.29 722.949 390.82 723.999 389.37C725.489 390.48 726.169 390.96 726.819 391.47C737.879 400.11 748.849 408.87 760.079 417.29C762.559 419.15 763.219 420.31 761.939 423.27C753.009 443.91 744.289 464.65 735.509 485.35C734.819 486.98 734.089 488.61 733.459 490.27C730.929 496.86 733.399 503.27 739.439 505.88C745.389 508.45 751.809 505.74 754.709 499.18C758.359 490.92 761.799 482.58 765.329 474.27C770.989 460.92 776.649 447.57 782.329 434.22C782.839 433.03 783.459 431.89 783.599 431.62C801.769 436.92 819.459 442.15 837.189 447.21C840.139 448.05 839.649 450.09 839.649 452.08C839.669 474.43 839.659 496.79 839.669 519.14C839.669 520.91 839.629 522.71 839.869 524.46C840.629 530.02 845.249 534.17 850.739 534.36C856.539 534.57 861.389 530.76 862.479 524.98C862.779 523.4 862.769 521.74 862.769 520.12C862.789 500.13 862.779 480.15 862.779 460.16C862.779 458.41 862.779 456.66 862.779 454.43C864.639 454.79 866.039 454.98 867.389 455.34C889.549 461.23 911.749 466.99 933.859 473.08C986.939 487.69 1018.04 541.49 1004.24 594.61C1003.94 595.75 1003.57 596.87 1003.09 598.47C998.769 598.02 994.419 597.45 990.059 597.12C940.719 593.42 894.739 619.6 872.819 664.05C871.139 667.45 869.349 668.66 865.519 668.64C835.169 668.46 804.819 668.5 774.469 668.6C771.429 668.61 769.879 667.72 768.419 664.91C745.969 621.86 710.469 598.61 661.909 596.75C635.849 595.75 612.029 603.87 590.669 618.93C588.759 620.28 586.869 621.67 584.499 623.37C582.979 617.84 581.689 612.74 580.189 607.71C547.649 498.74 461.849 418.28 351.069 393.05C346.519 392.01 345.369 390.32 345.379 385.79C345.539 316.65 345.489 247.52 345.489 178.38C345.489 159.83 357.809 147.57 376.429 147.56C439.789 147.56 503.159 147.56 566.519 147.56H572.509C572.509 154.37 572.509 160.82 572.509 167.28C572.519 178.7 576.279 182.5 587.599 182.5C611.579 182.5 635.569 182.5 659.549 182.5C661.139 182.5 662.739 182.5 664.629 182.5V243.25C662.779 243.25 661.059 243.25 659.339 243.25C638.469 243.25 617.589 243.25 596.719 243.25C595.389 243.25 594.049 243.25 592.719 243.28C585.289 243.5 580.119 248.24 580.109 254.84C580.099 261.38 585.339 266.37 592.709 266.4C615.209 266.49 637.719 266.59 660.219 266.3C665.089 266.24 666.169 267.88 666.909 272.35C669.019 285.01 671.879 297.55 674.579 310.84C673.449 311.33 671.629 312.17 669.769 312.92C649.739 321.01 629.709 329.09 609.669 337.18C608.709 337.57 607.729 337.93 606.809 338.4C600.959 341.35 598.459 347.62 600.849 353.32C603.249 359.07 609.409 361.92 615.559 359.6C625.939 355.67 636.189 351.41 646.479 347.26C657.729 342.72 668.969 338.14 680.219 333.6C681.429 333.11 682.679 332.74 683.419 332.49C691.959 346.17 700.299 359.53 708.799 373.15ZM980.279 561.62C977.329 553.93 975.019 545.92 971.319 538.62C959.729 515.79 941.249 500.95 916.679 493.85C907.669 491.25 899.919 497.76 901.369 506.49C902.309 512.15 906.289 514.76 911.499 516.39C931.829 522.74 946.019 535.85 953.789 555.73C954.969 558.75 955.609 561.97 956.619 565.06C958.529 570.88 963.919 574.22 969.709 573.27C974.969 572.41 979.169 567.46 980.279 561.61V561.62Z" fill="white"/>
<path d="M277.831 777.42C262.301 777.42 246.761 777.29 231.231 777.51C227.731 777.56 226.011 776.32 224.341 773.42C208.771 746.21 193.071 719.06 177.311 691.95C175.961 689.62 175.851 687.89 177.231 685.52C192.991 658.42 208.691 631.27 224.281 604.06C226.081 600.92 228.391 599.84 231.831 599.85C263.201 599.91 294.561 599.83 325.931 600.01C327.671 600.01 330.141 601.47 331.021 602.98C347.071 630.43 362.901 658.01 378.871 685.51C380.241 687.86 380.211 689.62 378.841 691.97C363.001 719.2 347.231 746.47 331.561 773.8C330.061 776.42 328.451 777.53 325.331 777.5C309.501 777.33 293.671 777.42 277.841 777.42H277.831Z" fill="white"/>
<path d="M292.09 978.36C265.52 978.08 246.28 976.1 227.2 972.41C224.12 971.81 222.33 970.39 220.81 967.73C206.47 942.7 192.05 917.73 177.55 892.8C176.22 890.51 175.98 888.78 177.39 886.35C193.38 858.86 209.26 831.31 225.09 803.73C226.34 801.55 227.71 800.64 230.3 800.64C262.4 800.73 294.51 800.72 326.62 800.64C329.15 800.64 330.62 801.4 331.91 803.63C347.66 831.08 363.48 858.5 379.39 885.86C380.68 888.08 380.69 889.69 379.41 891.9C364.04 918.38 348.8 944.93 333.37 971.38C332.49 972.89 330.38 974.43 328.69 974.62C314.16 976.27 299.59 977.61 292.1 978.35L292.09 978.36Z" fill="white"/>
<path d="M453.039 702.05C469.019 702.05 484.999 702.12 500.989 701.98C503.859 701.96 505.499 702.77 506.959 705.31C521.879 731.37 536.989 757.33 551.849 783.42C552.829 785.14 553.109 788.14 552.289 789.87C547.099 800.79 541.779 811.68 535.969 822.28C528.709 835.51 520.959 848.46 513.379 861.51C507.046 872.41 497.626 877.857 485.119 877.85C458.629 877.85 432.139 877.79 405.649 877.93C402.379 877.95 400.659 876.83 399.079 874.06C383.579 846.97 367.969 819.93 352.269 792.96C350.669 790.22 350.489 788.2 352.149 785.35C367.649 758.77 383.029 732.12 398.319 705.41C399.769 702.88 401.299 701.96 404.219 701.98C420.499 702.13 436.779 702.05 453.049 702.05H453.039Z" fill="white"/>
<path d="M455.16 677.16C439.18 677.16 423.19 677.09 407.21 677.23C404.35 677.25 402.75 676.43 401.28 673.86C385.93 647.02 370.45 620.24 354.89 593.52C353.44 591.03 353.39 589.24 354.87 586.7C370.66 559.6 386.36 532.44 401.89 505.19C403.62 502.15 405.53 501.26 408.87 501.28C436.1 501.41 463.34 501.4 490.57 501.29C493.53 501.28 495.47 502.22 497.38 504.4C521.09 531.36 539.28 561.63 551.75 595.29C552.44 597.16 552.2 600.02 551.22 601.75C537.69 625.55 523.9 649.19 510.36 672.98C508.48 676.28 506.39 677.31 502.67 677.25C486.84 677.02 471 677.15 455.16 677.16Z" fill="white"/>
<path d="M111.109 877.85C98.0791 877.85 85.0591 877.77 72.0291 877.91C69.1091 877.94 67.0991 877.14 65.2191 874.82C40.9091 844.96 22.9291 811.73 11.9291 774.8C11.3791 772.95 11.6691 770.32 12.6191 768.65C25.0591 746.78 37.7191 725.05 50.2091 703.21C51.4891 700.97 52.9791 700.22 55.4991 700.22C87.3191 700.29 119.149 700.3 150.969 700.21C153.739 700.21 155.199 701.21 156.519 703.52C172.289 730.98 188.109 758.41 204.019 785.79C205.369 788.12 205.459 789.85 204.079 792.22C188.159 819.6 172.329 847.02 156.579 874.49C155.139 877.01 153.519 877.94 150.619 877.91C137.449 877.76 124.269 877.84 111.099 877.84L111.109 877.85Z" fill="white"/>
<path d="M280.261 576.77C264.281 576.77 248.301 576.7 232.321 576.83C229.491 576.85 227.821 576.12 226.351 573.54C210.931 546.58 195.401 519.68 179.781 492.83C178.381 490.43 178.541 488.73 179.881 486.42C192.901 464.05 205.771 441.59 218.851 419.25C219.821 417.59 221.931 415.94 223.781 415.54C261.241 407.37 298.861 406.64 336.571 413.65C338.181 413.95 340.081 415.32 340.911 416.73C354.561 440.1 368.111 463.53 381.491 487.06C382.291 488.46 382.201 491.14 381.381 492.58C365.911 519.68 350.241 546.67 334.721 573.75C333.331 576.17 331.721 576.85 329.081 576.83C312.811 576.72 296.531 576.77 280.261 576.77Z" fill="white"/>
<path d="M102.701 677.17C87.0207 677.17 71.3307 677.11 55.6507 677.23C52.9607 677.25 51.3807 676.48 50.0107 674.08C38.1107 653.28 26.0507 632.58 14.1807 611.76C13.3607 610.32 13.1407 608.02 13.6407 606.43C26.0607 566.99 46.6707 532.28 74.5007 501.8C75.6907 500.5 78.0207 499.609 79.8207 499.599C103.491 499.459 127.171 499.55 150.841 499.44C153.631 499.43 155.021 500.47 156.351 502.77C172.181 530.35 188.081 557.9 204.071 585.39C205.381 587.65 205.201 589.28 203.961 591.42C188.001 618.93 172.091 646.47 156.271 674.05C154.911 676.42 153.371 677.26 150.661 677.24C134.681 677.11 118.701 677.18 102.721 677.18L102.701 677.17Z" fill="white"/>
<path d="M980.791 619.67C1033.8 619.67 1077.9 663.47 1077.9 716.13C1077.9 770.65 1034.88 814.13 980.811 814.24C927.021 814.35 883.47 770.77 883.48 716.82C883.49 663.37 927.251 619.68 980.791 619.67ZM980.561 771.58C1010.47 771.66 1035.21 747.07 1035.29 717.17C1035.37 687.26 1010.77 662.56 980.83 662.49C950.89 662.42 926.27 686.91 926.13 716.9C925.99 746.76 950.611 771.49 980.561 771.58Z" fill="#131956"/>
<path d="M661.92 619.68C710.89 619.73 752.82 658.67 757.13 709.78C761.27 758.85 726.3 804.46 677.14 812.63C640.02 818.8 608.97 806.82 584.46 778.11C582.36 775.65 581.79 773.32 582.64 770.07C592.64 731.68 594.96 692.8 589.9 653.45C589.67 651.66 590.78 649.11 592.13 647.81C611.04 629.48 633.76 620.18 661.93 619.68H661.92ZM660.13 771.57C690.13 771.56 714.64 747.04 714.65 717.04C714.65 687.05 690.12 662.49 660.15 662.47C630.29 662.45 605.52 687.18 605.52 717.03C605.52 746.91 630.23 771.59 660.13 771.58V771.57Z" fill="#131956"/>
<path d="M664.638 159.22H595.968C595.838 157.8 595.628 156.53 595.628 155.25C595.608 129.49 595.388 103.73 595.668 77.9796C596.078 40.4396 624.598 7.2096 661.728 0.539597C662.578 0.389597 663.468 0.419609 664.628 0.349609V159.21L664.638 159.22Z" fill="#131956"/>
<path d="M777.969 692.24H862.829C859.759 708.02 859.419 723.71 862.509 739.79H778.379C781.299 723.94 781.169 708.24 777.969 692.24Z" fill="white"/>
<path d="M363.398 967.08C368.158 958.82 372.248 951.69 376.358 944.58C384.118 931.13 391.908 917.71 399.618 904.24C400.788 902.2 401.918 900.9 404.678 900.91C428.338 901.04 451.998 900.98 475.668 900.99C476.368 900.99 477.078 901.11 479.038 901.28C445.388 932.37 407.598 953.93 363.408 967.09L363.398 967.08Z" fill="white"/>
<path d="M562.542 750.85C559.962 746.45 557.372 742.06 554.812 737.65C546.372 723.05 537.882 708.48 529.632 693.78C528.742 692.19 528.402 689.35 529.232 687.89C539.542 669.59 550.102 651.44 560.622 633.26C560.952 632.68 561.462 632.21 562.362 631.12C571.202 671.32 571.572 710.85 562.552 750.85H562.542Z" fill="white"/>
<path d="M91.3711 900.98H125.931C134.811 900.98 143.701 900.88 152.571 901.08C154.031 901.11 156.121 902.04 156.811 903.2C167.961 922.22 178.941 941.34 189.941 960.45C190.071 960.68 190.031 961.01 190.161 962C152.751 948.68 119.941 928.6 91.3711 900.98Z" fill="white"/>
<path d="M468.761 478.091C455.781 478.091 442.801 478.091 429.811 478.091C421.971 478.091 414.131 478.17 406.301 478.01C404.901 477.98 402.851 477.34 402.241 476.3C391.911 458.74 381.761 441.07 370.871 422.23C408.111 434.33 440.361 452.58 469.191 476.97C469.041 477.35 468.901 477.72 468.751 478.1L468.761 478.091Z" fill="white"/>
<path d="M187.35 427.36C181.75 437.07 176.15 446.79 170.54 456.5C167.21 462.26 163.95 468.07 160.5 473.75C159.84 474.84 158.42 476.21 157.34 476.21C139.05 476.36 120.75 476.32 102.27 475.8C127.4 454.13 155.58 437.88 186.54 426.42C186.81 426.73 187.08 427.04 187.35 427.36Z" fill="white"/>
<path d="M5.00038 642.25C11.8704 654.13 18.3204 665.22 24.6804 676.35C27.0904 680.56 31.0504 684.87 31.0804 689.15C31.1004 693.25 26.9604 697.39 24.6004 701.48C17.8304 713.23 11.0404 724.97 4.14038 736.93C-1.61962 724.46 -1.13962 664.18 5.00038 642.25Z" fill="white"/>
<path d="M980.638 748.44C963.358 748.38 949.238 734.27 949.238 717.08C949.238 699.64 963.578 685.43 980.968 685.63C998.298 685.83 1012.23 699.94 1012.12 717.2C1012.01 734.49 997.888 748.5 980.638 748.44Z" fill="#131956"/>
<path d="M659.91 748.44C642.68 748.32 628.61 734.12 628.66 716.91C628.71 699.52 643.08 685.46 660.6 685.66C677.89 685.86 691.66 699.98 691.55 717.37C691.44 734.58 677.2 748.56 659.92 748.43L659.91 748.44Z" fill="#131956"/>
</svg>
