<?xml version="1.0" encoding="UTF-8"?>
<svg xmlns="http://www.w3.org/2000/svg" version="1.1" viewBox="0 0 595.28 595.28">
  <defs>
    <style>
      .cls-1 {
        fill: #fff;
      }

      .cls-2 {
        fill: #242753;
      }
    </style>
  </defs>
  <!-- Generator: Adobe Illustrator 28.7.2, SVG Export Plug-In . SVG Version: 1.2.0 Build 154)  -->
  <g>
    <g id="Camada_1">
      <g>
        <path class="cls-2" d="M486.57,249.45c-20.25,10.81-39.92,21.29-59.57,31.77-42.1,22.46-84.2,44.89-126.25,67.43-2.52,1.35-4.4,1.29-6.9-.05-29.71-15.96-59.49-31.8-89.25-47.67-1.34-.72-2.62-1.53-4.35-2.53,17.71-9.43,34.98-18.63,52.24-27.84,9.46-5.05,18.94-10.08,28.36-15.2,2.2-1.19,4.14-1.54,6.71-.76,9.67,2.96,19.09,2,27.68-3.49,12.35-7.86,12.33-22.59.12-30.69-11.17-7.41-28.62-6.57-38.58,1.85-6.2,5.26-8.2,12.24-5.17,19.77.92,2.28.15,2.88-1.54,3.78-27.42,14.58-54.81,29.18-82.2,43.81-1.44.77-2.58,1.04-4.22.17-24.75-13.28-49.55-26.46-74.32-39.68-.23-.13-.37-.39-.62-.65.47-1.37,1.87-1.52,2.91-2.08,60.89-32.5,121.8-64.98,182.68-97.5,2.02-1.08,3.56-1.37,5.76-.19,61.48,32.87,123.01,65.66,184.53,98.46.48.25.91.59,2,1.29Z"/>
        <path class="cls-2" d="M433.31,365.76c.02,2.71-1.58,3.69-3.26,4.89-26.88,19.37-56.59,32.45-89.21,38.09-42.44,7.33-84.23,4.89-124.84-10.52-4.77-1.81-6.91-8.11-4.28-12.58,8.74-14.92,2.6-32.82-13.54-39.24-1.69-.67-2.91-1.07-2.87-3.36.14-10.31.06-20.63.06-30.97,1.76-.16,2.83.91,4.03,1.54,30.65,16.31,61.33,32.58,91.91,49.05,4.17,2.25,7.55,2.43,11.83.14,41.77-22.46,83.65-44.71,125.5-67.02,1.35-.72,2.7-1.41,4.61-2.4,0,24.52-.06,48.46.08,72.38Z"/>
        <path class="cls-1" d="M196.65,444.9c-7.04,2.47-13.56,1.65-19.97-1.81-1.11-.6-1.73-1.19-1.73-2.53-.09-13.7-.17-27.38,3.1-40.84.5-2.09.83-2.8,3.21-1.98,4.78,1.63,9.79,1.63,14.58,0,2.33-.79,2.75-.2,3.22,1.95,2.2,9.83,3.17,19.77,3.09,29.81,0,2.41-.32,4.86.07,7.2.78,4.69-1.45,6.73-5.57,8.19Z"/>
        <path class="cls-2" d="M181.79,342.7c.01,1.68-.14,2.8-2.09,3.5-9.67,3.42-15.35,10.46-18.09,20.25v-73c6.38,3.39,12.4,6.7,18.52,9.81,1.63.83,1.65,2,1.65,3.43-.02,12.01-.03,24.01.01,36.01Z"/>
        <path class="cls-1" d="M202.14,371.66c0,7.53-6.26,13.7-13.78,13.6-7.32-.1-13.37-6.23-13.37-13.58-.01-7.56,6.2-13.68,13.77-13.58,7.33.09,13.37,6.21,13.39,13.56Z"/>
        <path class="cls-1" d="M308.45,239.57c-3.35,2.4-7.27,2.95-11.27,3.01-3.87-.08-7.64-.67-10.89-2.91-3.45-2.38-3.37-5.37.02-7.87,5.23-3.83,17.18-3.75,22.2.17,3.17,2.46,3.22,5.26-.06,7.6Z"/>
      </g>
    </g>
  </g>
</svg>