<svg width="379" height="299" viewBox="0 0 379 299" fill="none" xmlns="http://www.w3.org/2000/svg">
<path d="M378.571 101.45C358.321 112.26 338.651 122.74 319.001 133.22C276.901 155.68 234.801 178.11 192.751 200.65C190.231 202 188.351 201.94 185.851 200.6C156.141 184.64 126.361 168.8 96.6009 152.93C95.2609 152.21 93.9809 151.4 92.2509 150.4C109.961 140.97 127.231 131.77 144.491 122.56C153.951 117.51 163.431 112.48 172.851 107.36C175.051 106.17 176.991 105.82 179.561 106.6C189.231 109.56 198.651 108.6 207.241 103.11C219.591 95.2504 219.571 80.5204 207.361 72.4204C196.191 65.0104 178.741 65.8504 168.781 74.2704C162.581 79.5304 160.581 86.5104 163.611 94.0404C164.531 96.3204 163.761 96.9204 162.071 97.8204C134.651 112.4 107.261 127 79.8709 141.63C78.4309 142.4 77.2909 142.67 75.6509 141.8C50.9009 128.52 26.1009 115.34 1.33094 102.12C1.10094 101.99 0.960938 101.73 0.710938 101.47C1.18094 100.1 2.58094 99.9504 3.62094 99.3904C64.5109 66.8904 125.421 34.4104 186.301 1.89044C188.321 0.810436 189.861 0.520434 192.061 1.70043C253.541 34.5704 315.071 67.3604 376.591 100.16C377.071 100.41 377.501 100.75 378.591 101.45H378.571Z" fill="#242753"/>
<path d="M325.31 217.761C325.33 220.471 323.73 221.451 322.05 222.651C295.17 242.021 265.46 255.101 232.84 260.741C190.4 268.071 148.61 265.631 108 250.221C103.23 248.411 101.09 242.111 103.72 237.641C112.46 222.721 106.32 204.821 90.1795 198.401C88.4895 197.731 87.2695 197.331 87.3095 195.041C87.4495 184.731 87.3695 174.411 87.3695 164.071C89.1295 163.911 90.1995 164.981 91.3995 165.611C122.05 181.921 152.73 198.191 183.31 214.661C187.48 216.911 190.86 217.091 195.14 214.801C236.91 192.341 278.79 170.091 320.64 147.781C321.99 147.061 323.34 146.371 325.25 145.381C325.25 169.901 325.19 193.841 325.33 217.761H325.31Z" fill="#242753"/>
<path d="M88.6506 296.9C81.6106 299.37 75.0906 298.55 68.6806 295.09C67.5706 294.49 66.9506 293.9 66.9506 292.56C66.8606 278.86 66.7806 265.18 70.0506 251.72C70.5506 249.63 70.8806 248.92 73.2606 249.74C78.0406 251.37 83.0506 251.37 87.8406 249.74C90.1706 248.95 90.5906 249.54 91.0606 251.69C93.2606 261.52 94.2306 271.46 94.1506 281.5C94.1506 283.91 93.8306 286.36 94.2206 288.7C95.0006 293.39 92.7706 295.43 88.6506 296.89V296.9Z" fill="white"/>
<path d="M73.7894 194.7C73.7994 196.38 73.6494 197.5 71.6994 198.2C62.0294 201.62 56.3494 208.66 53.6094 218.45V145.45C59.9894 148.84 66.0094 152.15 72.1294 155.26C73.7594 156.09 73.7794 157.26 73.7794 158.69C73.7594 170.7 73.7494 182.7 73.7894 194.7Z" fill="#242753"/>
<path d="M94.1422 223.661C94.1422 231.191 87.8822 237.361 80.3622 237.261C73.0422 237.161 66.9922 231.031 66.9922 223.681C66.9822 216.121 73.1922 210.001 80.7622 210.101C88.0922 210.191 94.1322 216.311 94.1522 223.661H94.1422Z" fill="white"/>
<path d="M200.45 91.5705C197.1 93.9705 193.18 94.5205 189.18 94.5805C185.31 94.5005 181.54 93.9105 178.29 91.6705C174.84 89.2905 174.92 86.3005 178.31 83.8005C183.54 79.9705 195.49 80.0505 200.51 83.9705C203.68 86.4305 203.73 89.2305 200.45 91.5705Z" fill="white"/>
</svg>
