<?xml version="1.0" encoding="UTF-8"?>
<svg xmlns="http://www.w3.org/2000/svg" version="1.1" viewBox="0 0 595.28 595.28">
  <defs>
    <style>
      .cls-1 {
        fill: #fff;
      }

      .cls-2 {
        fill: #242753;
      }
    </style>
  </defs>
  <!-- Generator: Adobe Illustrator 28.7.2, SVG Export Plug-In . SVG Version: 1.2.0 Build 154)  -->
  <g>
    <g id="Camada_1">
      <g>
        <path class="cls-2" d="M454.7,254.76c-.07-.02-.14-.04-.21-.06-.03,1.39-.05,2.77-.08,4.16-1.58,4.53-4.26,6.42-9.46,6.43-16.01.04-32.02.11-48.04-.06-3.27-.03-4.34.59-4.34,4.16.13,61.98.09,123.96.12,185.95,0,3.54-.42,6.76-3.54,9.03-1.56,1.13-3.22,1.81-5.17,1.81-26.98,0-53.96,0-80.94-.02-.16,0-.34-.16-.16-.08,47.93-34.71,66.83-80.28,49.84-138.19-7.83-26.68-24.98-47.22-48.41-62.23-23.33-14.95-49-20.45-76.52-17.86.02-1.34,1-1.85,1.62-2.53,33.71-37.24,67.45-74.46,101.15-111.71,1.72-1.9,3.65-3.4,5.96-4.45h3.95c3.16.36,5.19,2.32,7.17,4.64,5.04,5.91,10.44,11.52,15.62,17.33,7.72,8.66,15.57,17.22,23.36,25.82,7.29,8.04,14.56,16.07,21.87,24.09,7.6,8.33,15.13,16.73,22.71,25.1,6.91,7.64,13.84,15.24,20.73,22.91,1.54,1.71,2.85,3.44,2.78,5.79Z"/>
        <path class="cls-2" d="M241.15,264.35c-55.66.21-100.54,44.42-100.58,100.59-.05,56.4,45.44,100.5,100.52,100.61,55.32.11,100.63-45.2,100.67-100.55.04-55.27-45.26-100.86-100.61-100.65ZM248.11,321.23c.18,8.11.07,16.24.07,24.35,0,7.33,0,7.43,7.19,7.31,7.08-.12,13.55,1.6,19.74,5.1,17.23,9.76,22.22,34.77,9.97,50.36-7.99,10.18-18.47,14.64-31.26,14.29-5.64-.15-5.7-.03-5.62,5.56.05,4.15,0,8.16-3.95,10.84-5.29,3.59-12.47.42-13.15-5.94-.26-2.39-.29-4.83-.11-7.23.18-2.48-.45-3.38-3.18-3.33-10.09.18-20.18.06-30.27.08-1.77.01-3.54-.06-5.17-.76-3.63-1.56-5.84-5.61-5.21-9.36.63-3.74,3.99-6.9,8.01-7.03,5.69-.17,11.4-.04,17.1-.04v-.07c5.38,0,10.76-.1,16.13.03,2.06.06,2.6-.62,2.58-2.61-.09-10.09-.11-20.19.01-30.29.03-2.2-.83-2.47-2.7-2.45-4.37.06-8.74.2-13.11-.59-22.38-4-34.99-29.98-24.16-49.96,6.97-12.86,17.94-18.99,32.44-19.1,2.3,0,5.12.71,6.75-.35,1.85-1.19.53-4.23.74-6.44.42-4.61,3.78-8.15,8.15-8.39,4.24-.23,8.18,3.11,8.92,7.58.12.75.14,1.53.15,2.3q.1,5.31,5.26,5.31c9.77,0,19.54-.01,29.3.01,4.01.01,6.97,1.88,8.54,5.54,1.32,3.06.74,6.02-1.44,8.59-1.99,2.36-4.58,3.13-7.6,3.11-10.2-.04-20.4.13-30.6-.1-3.06-.07-3.58.91-3.52,3.68Z"/>
        <path class="cls-1" d="M275.11,357.99c-6.19-3.5-12.66-5.22-19.74-5.1-7.19.12-7.19.02-7.19-7.31,0-8.11.11-16.24-.07-24.35-.06-2.77.46-3.75,3.52-3.68,10.2.23,20.4.06,30.6.1,3.02.02,5.61-.75,7.6-3.11,2.18-2.57,2.76-5.53,1.44-8.59-1.57-3.66-4.53-5.53-8.54-5.54-9.76-.02-19.53-.01-29.3-.01q-5.17,0-5.26-5.31c-.01-.77-.03-1.55-.15-2.3-.74-4.47-4.68-7.81-8.92-7.58-4.37.24-7.73,3.78-8.15,8.39-.21,2.21,1.11,5.25-.74,6.44-1.63,1.06-4.45.34-6.75.35-14.5.11-25.47,6.24-32.44,19.1-10.83,19.98,1.78,45.96,24.16,49.96,4.37.79,8.74.65,13.11.59,1.87-.02,2.73.25,2.7,2.45-.12,10.1-.1,20.2-.01,30.29.02,1.99-.52,2.67-2.58,2.61-5.37-.13-10.75-.03-16.13-.03v.07c-5.7,0-11.41-.13-17.1.04-4.02.13-7.38,3.29-8.01,7.03-.63,3.75,1.58,7.8,5.21,9.36,1.63.7,3.4.77,5.17.76,10.09-.02,20.18.1,30.27-.08,2.73-.05,3.36.85,3.18,3.33-.18,2.4-.15,4.84.11,7.23.68,6.36,7.86,9.53,13.15,5.94,3.95-2.68,4-6.69,3.95-10.84-.08-5.59-.02-5.71,5.62-5.56,12.79.35,23.27-4.11,31.26-14.29,12.25-15.59,7.26-40.6-9.97-50.36ZM228.21,352.97c-6.38,0-12.79.25-17.92-4.55-5.46-5.1-7.4-11.33-5.07-18.46,2.26-6.93,7.18-11.1,14.52-11.99,11.19-1.35,11.2-1.29,11.2,9.65v7.89c0,4.92-.12,9.85.05,14.77.07,2.22-.68,2.69-2.78,2.69ZM258.52,405.1c-2.72.28-5.47.1-8.21.28-1.82.13-2.19-.66-2.17-2.29.09-5.16.04-10.32.04-15.47s.07-10.1-.04-15.14c-.04-1.79.34-2.58,2.31-2.43,2.51.19,5.05-.06,7.56.13,9.45.7,16.48,7.98,16.65,17.11.18,9.45-6.47,16.84-16.14,17.81Z"/>
        <path class="cls-2" d="M230.99,350.28c.07,2.22-.68,2.69-2.78,2.69-6.38,0-12.79.25-17.92-4.55-5.46-5.1-7.4-11.33-5.07-18.46,2.26-6.93,7.18-11.1,14.52-11.99,11.19-1.35,11.2-1.29,11.2,9.65v7.89c0,4.92-.12,9.85.05,14.77Z"/>
        <path class="cls-2" d="M274.66,387.29c.18,9.45-6.47,16.84-16.14,17.81-2.72.28-5.47.1-8.21.28-1.82.13-2.19-.66-2.17-2.29.09-5.16.04-10.32.04-15.47s.07-10.1-.04-15.14c-.04-1.79.34-2.58,2.31-2.43,2.51.19,5.05-.06,7.56.13,9.45.7,16.48,7.98,16.65,17.11Z"/>
      </g>
    </g>
  </g>
</svg>