<svg width="315" height="338" viewBox="0 0 315 338" fill="none" xmlns="http://www.w3.org/2000/svg">
<path d="M314.699 125.76C314.629 125.74 314.559 125.72 314.489 125.7C314.459 127.09 314.439 128.47 314.409 129.86C312.829 134.39 310.149 136.28 304.949 136.29C288.939 136.33 272.929 136.4 256.909 136.23C253.639 136.2 252.569 136.82 252.569 140.39C252.699 202.37 252.659 264.35 252.689 326.34C252.689 329.88 252.269 333.1 249.149 335.37C247.589 336.5 245.929 337.18 243.979 337.18C216.999 337.18 190.019 337.18 163.039 337.16C162.879 337.16 162.699 337 162.879 337.08C210.809 302.37 229.709 256.8 212.719 198.89C204.889 172.21 187.739 151.67 164.309 136.66C140.979 121.71 115.309 116.21 87.7891 118.8C87.8091 117.46 88.7891 116.95 89.4091 116.27C123.119 79.0304 156.859 41.8103 190.559 4.56035C192.279 2.66035 194.209 1.16035 196.519 0.110352H200.469C203.629 0.470352 205.659 2.43035 207.639 4.75035C212.679 10.6604 218.079 16.2704 223.259 22.0804C230.979 30.7404 238.829 39.3003 246.619 47.9003C253.909 55.9403 261.179 63.9704 268.489 71.9904C276.089 80.3204 283.619 88.7203 291.199 97.0903C298.109 104.73 305.039 112.33 311.929 120C313.469 121.71 314.779 123.44 314.709 125.79L314.699 125.76Z" fill="#242753"/>
<path d="M101.15 135.35C45.4903 135.56 0.610354 179.77 0.570354 235.94C0.520354 292.34 46.0103 336.44 101.09 336.55C156.41 336.66 201.72 291.35 201.76 236C201.8 180.73 156.5 135.14 101.15 135.35ZM108.11 192.23C108.29 200.34 108.18 208.47 108.18 216.58C108.18 223.91 108.18 224.01 115.37 223.89C122.45 223.77 128.92 225.49 135.11 228.99C152.34 238.75 157.33 263.76 145.08 279.35C137.09 289.53 126.61 293.99 113.82 293.64C108.18 293.49 108.12 293.61 108.2 299.2C108.25 303.35 108.2 307.36 104.25 310.04C98.9603 313.63 91.7803 310.46 91.1003 304.1C90.8403 301.71 90.8103 299.27 90.9903 296.87C91.1703 294.39 90.5403 293.49 87.8103 293.54C77.7203 293.72 67.6303 293.6 57.5403 293.62C55.7703 293.63 54.0003 293.56 52.3703 292.86C48.7403 291.3 46.5304 287.25 47.1604 283.5C47.7904 279.76 51.1503 276.6 55.1703 276.47C60.8603 276.3 66.5703 276.43 72.2703 276.43V276.36C77.6503 276.36 83.0303 276.26 88.4003 276.39C90.4603 276.45 91.0003 275.77 90.9803 273.78C90.8903 263.69 90.8703 253.59 90.9903 243.49C91.0203 241.29 90.1603 241.02 88.2903 241.04C83.9203 241.1 79.5503 241.24 75.1803 240.45C52.8003 236.45 40.1904 210.47 51.0204 190.49C57.9904 177.63 68.9604 171.5 83.4604 171.39C85.7603 171.39 88.5804 172.1 90.2104 171.04C92.0604 169.85 90.7403 166.81 90.9503 164.6C91.3703 159.99 94.7303 156.45 99.1003 156.21C103.34 155.98 107.28 159.32 108.02 163.79C108.14 164.54 108.16 165.32 108.17 166.09C108.237 169.63 109.99 171.4 113.43 171.4C123.2 171.4 132.97 171.39 142.73 171.41C146.74 171.42 149.7 173.29 151.27 176.95C152.59 180.01 152.01 182.97 149.83 185.54C147.84 187.9 145.25 188.67 142.23 188.65C132.03 188.61 121.83 188.78 111.63 188.55C108.57 188.48 108.05 189.46 108.11 192.23Z" fill="#242753"/>
<path d="M135.112 228.99C128.922 225.49 122.452 223.77 115.372 223.89C108.182 224.01 108.182 223.91 108.182 216.58C108.182 208.47 108.292 200.34 108.112 192.23C108.052 189.46 108.572 188.48 111.632 188.55C121.832 188.78 132.032 188.61 142.232 188.65C145.252 188.67 147.842 187.9 149.832 185.54C152.012 182.97 152.592 180.01 151.272 176.95C149.702 173.29 146.742 171.42 142.732 171.41C132.972 171.39 123.202 171.4 113.432 171.4C109.985 171.4 108.232 169.63 108.172 166.09C108.162 165.32 108.142 164.54 108.022 163.79C107.282 159.32 103.342 155.98 99.1015 156.21C94.7315 156.45 91.3715 159.99 90.9515 164.6C90.7415 166.81 92.0615 169.85 90.2115 171.04C88.5815 172.1 85.7615 171.38 83.4615 171.39C68.9615 171.5 57.9915 177.63 51.0215 190.49C40.1915 210.47 52.8015 236.45 75.1815 240.45C79.5515 241.24 83.9215 241.1 88.2915 241.04C90.1615 241.02 91.0215 241.29 90.9915 243.49C90.8715 253.59 90.8915 263.69 90.9815 273.78C91.0015 275.77 90.4615 276.45 88.4015 276.39C83.0315 276.26 77.6515 276.36 72.2715 276.36V276.43C66.5715 276.43 60.8615 276.3 55.1715 276.47C51.1515 276.6 47.7915 279.76 47.1615 283.5C46.5315 287.25 48.7415 291.3 52.3715 292.86C54.0015 293.56 55.7715 293.63 57.5415 293.62C67.6315 293.6 77.7215 293.72 87.8115 293.54C90.5415 293.49 91.1715 294.39 90.9915 296.87C90.8115 299.27 90.8415 301.71 91.1015 304.1C91.7815 310.46 98.9615 313.63 104.252 310.04C108.202 307.36 108.252 303.35 108.202 299.2C108.122 293.61 108.182 293.49 113.822 293.64C126.612 293.99 137.092 289.53 145.082 279.35C157.332 263.76 152.342 238.75 135.112 228.99ZM88.2115 223.97C81.8315 223.97 75.4215 224.22 70.2915 219.42C64.8315 214.32 62.8915 208.09 65.2215 200.96C67.4815 194.03 72.4015 189.86 79.7415 188.97C90.9315 187.62 90.9415 187.68 90.9415 198.62V206.51C90.9415 211.43 90.8215 216.36 90.9915 221.28C91.0615 223.5 90.3115 223.97 88.2115 223.97ZM118.522 276.1C115.802 276.38 113.052 276.2 110.312 276.38C108.492 276.51 108.122 275.72 108.142 274.09C108.232 268.93 108.182 263.77 108.182 258.62C108.182 253.47 108.252 248.52 108.142 243.48C108.102 241.69 108.482 240.9 110.452 241.05C112.962 241.24 115.502 240.99 118.012 241.18C127.462 241.88 134.492 249.16 134.662 258.29C134.842 267.74 128.192 275.13 118.522 276.1Z" fill="white"/>
<path d="M90.9894 221.281C91.0594 223.501 90.3094 223.971 88.2094 223.971C81.8294 223.971 75.4194 224.221 70.2894 219.421C64.8294 214.321 62.8894 208.091 65.2194 200.961C67.4794 194.031 72.3994 189.861 79.7394 188.971C90.9294 187.621 90.9394 187.681 90.9394 198.621V206.511C90.9394 211.431 90.8194 216.361 90.9894 221.281Z" fill="#242753"/>
<path d="M134.659 258.29C134.839 267.74 128.189 275.13 118.519 276.1C115.799 276.38 113.049 276.2 110.309 276.38C108.489 276.51 108.119 275.72 108.139 274.09C108.229 268.93 108.179 263.77 108.179 258.62C108.179 253.47 108.249 248.52 108.139 243.48C108.099 241.69 108.479 240.9 110.449 241.05C112.959 241.24 115.499 240.99 118.009 241.18C127.459 241.88 134.489 249.16 134.659 258.29Z" fill="#242753"/>
</svg>
