<?xml version="1.0" encoding="UTF-8"?>
<svg id="Camada_1" xmlns="http://www.w3.org/2000/svg" viewBox="0 0 1300 1300">
  <defs>
    <style>
      .cls-1 {
        fill: #fff;
      }

      .cls-2 {
        fill: #131956;
      }
    </style>
  </defs>
  <path class="cls-1" d="M819.8,534.15c-17.87,17.86-35.67,35.65-53.46,53.44-1.46,1.46-3.02,2.87-4.29,4.49-3.54,4.55-3.11,10.99.86,15.03,4.18,4.25,10.6,4.67,15.33.95,1.16-.91,2.17-2,3.22-3.05,16.86-16.85,33.72-33.69,50.54-50.58,1.14-1.14,1.95-2.61,3-4.06,1.49,1.11,2.17,1.59,2.82,2.1,11.06,8.64,22.03,17.4,33.26,25.82,2.48,1.86,3.14,3.02,1.86,5.98-8.93,20.64-17.65,41.38-26.43,62.08-.69,1.63-1.42,3.26-2.05,4.92-2.53,6.59-.06,13,5.98,15.61,5.95,2.57,12.37-.14,15.27-6.7,3.65-8.26,7.09-16.6,10.62-24.91,5.66-13.35,11.32-26.7,17-40.05.51-1.19,1.13-2.33,1.27-2.6,18.17,5.3,35.86,10.53,53.59,15.59,2.95.84,2.46,2.88,2.46,4.87.02,22.35.01,44.71.02,67.06,0,1.77-.04,3.57.2,5.32.76,5.56,5.38,9.71,10.87,9.9,5.8.21,10.65-3.6,11.74-9.38.3-1.58.29-3.24.29-4.86.02-19.99.01-39.97.01-59.96,0-1.75,0-3.5,0-5.73,1.86.36,3.26.55,4.61.91,22.16,5.89,44.36,11.65,66.47,17.74,53.08,14.61,84.18,68.41,70.38,121.53-.3,1.14-.67,2.26-1.15,3.86-4.32-.45-8.67-1.02-13.03-1.35-49.34-3.7-95.32,22.48-117.24,66.93-1.68,3.4-3.47,4.61-7.3,4.59-30.35-.18-60.7-.14-91.05-.04-3.04.01-4.59-.88-6.05-3.69-22.45-43.05-57.95-66.3-106.51-68.16-26.06-1-49.88,7.12-71.24,22.18-1.91,1.35-3.8,2.74-6.17,4.44-1.52-5.53-2.81-10.63-4.31-15.66-32.54-108.97-118.34-189.43-229.12-214.66-4.55-1.04-5.7-2.73-5.69-7.26.16-69.14.11-138.27.11-207.41,0-18.55,12.32-30.81,30.94-30.82,63.36,0,126.73,0,190.09,0h5.99c0,6.81,0,13.26,0,19.72.01,11.42,3.77,15.22,15.09,15.22,23.98,0,47.97,0,71.95,0,1.59,0,3.19,0,5.08,0v60.75c-1.85,0-3.57,0-5.29,0-20.87,0-41.75,0-62.62,0-1.33,0-2.67,0-4,.03-7.43.22-12.6,4.96-12.61,11.56-.01,6.54,5.23,11.53,12.6,11.56,22.5.09,45.01.19,67.51-.1,4.87-.06,5.95,1.58,6.69,6.05,2.11,12.66,4.97,25.2,7.67,38.49-1.13.49-2.95,1.33-4.81,2.08-20.03,8.09-40.06,16.17-60.1,24.26-.96.39-1.94.75-2.86,1.22-5.85,2.95-8.35,9.22-5.96,14.92,2.4,5.75,8.56,8.6,14.71,6.28,10.38-3.93,20.63-8.19,30.92-12.34,11.25-4.54,22.49-9.12,33.74-13.66,1.21-.49,2.46-.86,3.2-1.11,8.54,13.68,16.88,27.04,25.38,40.66ZM1091.28,722.62c-2.95-7.69-5.26-15.7-8.96-23-11.59-22.83-30.07-37.67-54.64-44.77-9.01-2.6-16.76,3.91-15.31,12.64.94,5.66,4.92,8.27,10.13,9.9,20.33,6.35,34.52,19.46,42.29,39.34,1.18,3.02,1.82,6.24,2.83,9.33,1.91,5.82,7.3,9.16,13.09,8.21,5.26-.86,9.46-5.81,10.57-11.66Z"/>
  <path class="cls-1" d="M388.83,938.42c-15.53,0-31.07-.13-46.6.09-3.5.05-5.22-1.19-6.89-4.09-15.57-27.21-31.27-54.36-47.03-81.47-1.35-2.33-1.46-4.06-.08-6.43,15.76-27.1,31.46-54.25,47.05-81.46,1.8-3.14,4.11-4.22,7.55-4.21,31.37.06,62.73-.02,94.1.16,1.74,0,4.21,1.46,5.09,2.97,16.05,27.45,31.88,55.03,47.85,82.53,1.37,2.35,1.34,4.11-.03,6.46-15.84,27.23-31.61,54.5-47.28,81.83-1.5,2.62-3.11,3.73-6.23,3.7-15.83-.17-31.66-.08-47.49-.08Z"/>
  <path class="cls-1" d="M403.09,1139.36c-26.57-.28-45.81-2.26-64.89-5.95-3.08-.6-4.87-2.02-6.39-4.68-14.34-25.03-28.76-50-43.26-74.93-1.33-2.29-1.57-4.02-.16-6.45,15.99-27.49,31.87-55.04,47.7-82.62,1.25-2.18,2.62-3.09,5.21-3.09,32.1.09,64.21.08,96.32,0,2.53,0,4,.76,5.29,2.99,15.75,27.45,31.57,54.87,47.48,82.23,1.29,2.22,1.3,3.83.02,6.04-15.37,26.48-30.61,53.03-46.04,79.48-.88,1.51-2.99,3.05-4.68,3.24-14.53,1.65-29.1,2.99-36.59,3.73Z"/>
  <path class="cls-1" d="M564.04,863.05c15.98,0,31.96.07,47.95-.07,2.87-.02,4.51.79,5.97,3.33,14.92,26.06,30.03,52.02,44.89,78.11.98,1.72,1.26,4.72.44,6.45-5.19,10.92-10.51,21.81-16.32,32.41-7.26,13.23-15.01,26.18-22.59,39.23q-9.5,16.35-28.26,16.34c-26.49,0-52.98-.06-79.47.08-3.27.02-4.99-1.1-6.57-3.87-15.5-27.09-31.11-54.13-46.81-81.1-1.6-2.74-1.78-4.76-.12-7.61,15.5-26.58,30.88-53.23,46.17-79.94,1.45-2.53,2.98-3.45,5.9-3.43,16.28.15,32.56.07,48.83.07Z"/>
  <path class="cls-1" d="M566.16,838.16c-15.98,0-31.97-.07-47.95.07-2.86.02-4.46-.8-5.93-3.37-15.35-26.84-30.83-53.62-46.39-80.34-1.45-2.49-1.5-4.28-.02-6.82,15.79-27.1,31.49-54.26,47.02-81.51,1.73-3.04,3.64-3.93,6.98-3.91,27.23.13,54.47.12,81.7.01,2.96-.01,4.9.93,6.81,3.11,23.71,26.96,41.9,57.23,54.37,90.89.69,1.87.45,4.73-.53,6.46-13.53,23.8-27.32,47.44-40.86,71.23-1.88,3.3-3.97,4.33-7.69,4.27-15.83-.23-31.67-.1-47.51-.09Z"/>
  <path class="cls-1" d="M222.11,1038.85c-13.03,0-26.05-.08-39.08.06-2.92.03-4.93-.77-6.81-3.09-24.31-29.86-42.29-63.09-53.29-100.02-.55-1.85-.26-4.48.69-6.15,12.44-21.87,25.1-43.6,37.59-65.44,1.28-2.24,2.77-2.99,5.29-2.99,31.82.07,63.65.08,95.47-.01,2.77,0,4.23,1,5.55,3.31,15.77,27.46,31.59,54.89,47.5,82.27,1.35,2.33,1.44,4.06.06,6.43-15.92,27.38-31.75,54.8-47.5,82.27-1.44,2.52-3.06,3.45-5.96,3.42-13.17-.15-26.35-.07-39.52-.07Z"/>
  <path class="cls-1" d="M391.26,737.77c-15.98,0-31.96-.07-47.94.06-2.83.02-4.5-.71-5.97-3.29-15.42-26.96-30.95-53.86-46.57-80.71-1.4-2.4-1.24-4.1.1-6.41,13.02-22.37,25.89-44.83,38.97-67.17.97-1.66,3.08-3.31,4.93-3.71,37.46-8.17,75.08-8.9,112.79-1.89,1.61.3,3.51,1.67,4.34,3.08,13.65,23.37,27.2,46.8,40.58,70.33.8,1.4.71,4.08-.11,5.52-15.47,27.1-31.14,54.09-46.66,81.17-1.39,2.42-3,3.1-5.64,3.08-16.27-.11-32.55-.06-48.82-.06Z"/>
  <path class="cls-1" d="M213.7,838.17c-15.68,0-31.37-.06-47.05.06-2.69.02-4.27-.75-5.64-3.15-11.9-20.8-23.96-41.5-35.83-62.32-.82-1.44-1.04-3.74-.54-5.33,12.42-39.44,33.03-74.15,60.86-104.63,1.19-1.3,3.52-2.19,5.32-2.2,23.67-.14,47.35-.05,71.02-.16,2.79-.01,4.18,1.03,5.51,3.33,15.83,27.58,31.73,55.13,47.72,82.62,1.31,2.26,1.13,3.89-.11,6.03-15.96,27.51-31.87,55.05-47.69,82.63-1.36,2.37-2.9,3.21-5.61,3.19-15.98-.13-31.96-.06-47.94-.06Z"/>
  <path class="cls-2" d="M1091.79,780.67c53.01,0,97.11,43.8,97.11,96.46,0,54.52-43.02,98-97.09,98.11-53.79.11-97.34-43.47-97.33-97.42.01-53.45,43.77-97.14,97.31-97.15ZM1091.56,932.58c29.91.08,54.65-24.51,54.73-54.41.08-29.91-24.52-54.61-54.46-54.68-29.94-.07-54.56,24.42-54.7,54.41-.14,29.86,24.48,54.59,54.43,54.68Z"/>
  <path class="cls-2" d="M772.92,780.68c48.97.05,90.9,38.99,95.21,90.1,4.14,49.07-30.83,94.68-79.99,102.85-37.12,6.17-68.17-5.81-92.68-34.52-2.1-2.46-2.67-4.79-1.82-8.04,10-38.39,12.32-77.27,7.26-116.62-.23-1.79.88-4.34,2.23-5.64,18.91-18.33,41.63-27.63,69.8-28.13ZM771.13,932.57c30-.01,54.51-24.53,54.52-54.53,0-29.99-24.53-54.55-54.5-54.57-29.86-.02-54.63,24.71-54.63,54.56,0,29.88,24.71,54.56,54.61,54.55Z"/>
  <path class="cls-2" d="M775.64,320.22h-68.67c-.13-1.42-.34-2.69-.34-3.97-.02-25.76-.24-51.52.04-77.27.41-37.54,28.93-70.77,66.06-77.44.85-.15,1.74-.12,2.9-.19v158.86Z"/>
  <path class="cls-1" d="M888.97,853.24h84.86c-3.07,15.78-3.41,31.47-.32,47.55h-84.13c2.92-15.85,2.79-31.55-.41-47.55Z"/>
  <path class="cls-1" d="M474.4,1128.08c4.76-8.26,8.85-15.39,12.96-22.5,7.76-13.45,15.55-26.87,23.26-40.34,1.17-2.04,2.3-3.34,5.06-3.33,23.66.13,47.32.07,70.99.08.7,0,1.41.12,3.37.29-33.65,31.09-71.44,52.65-115.63,65.81Z"/>
  <path class="cls-1" d="M673.54,911.85c-2.58-4.4-5.17-8.79-7.73-13.2-8.44-14.6-16.93-29.17-25.18-43.87-.89-1.59-1.23-4.43-.4-5.89,10.31-18.3,20.87-36.45,31.39-54.63.33-.58.84-1.05,1.74-2.14,8.84,40.2,9.21,79.73.19,119.73Z"/>
  <path class="cls-1" d="M202.37,1061.98h34.56c8.88,0,17.77-.1,26.64.1,1.46.03,3.55.96,4.24,2.12,11.15,19.02,22.13,38.14,33.13,57.25.13.23.09.56.22,1.55-37.41-13.32-70.22-33.4-98.79-61.02Z"/>
  <path class="cls-1" d="M579.76,639.09c-12.98,0-25.96,0-38.95,0-7.84,0-15.68.08-23.51-.08-1.4-.03-3.45-.67-4.06-1.71-10.33-17.56-20.48-35.23-31.37-54.07,37.24,12.1,69.49,30.35,98.32,54.74-.15.38-.29.75-.44,1.13Z"/>
  <path class="cls-1" d="M298.35,588.36c-5.6,9.71-11.2,19.43-16.81,29.14-3.33,5.76-6.59,11.57-10.04,17.25-.66,1.09-2.08,2.46-3.16,2.46-18.29.15-36.59.11-55.07-.41,25.13-21.67,53.31-37.92,84.27-49.38.27.31.54.62.81.94Z"/>
  <path class="cls-1" d="M116,803.25c6.87,11.88,13.32,22.97,19.68,34.1,2.41,4.21,6.37,8.52,6.4,12.8.02,4.1-4.12,8.24-6.48,12.33-6.77,11.75-13.56,23.49-20.46,35.45-5.76-12.47-5.28-72.75.86-94.68Z"/>
  <path class="cls-2" d="M1091.64,909.44c-17.28-.06-31.4-14.17-31.4-31.36,0-17.44,14.34-31.65,31.73-31.45,17.33.2,31.26,14.31,31.15,31.57-.11,17.29-14.23,31.3-31.48,31.24Z"/>
  <path class="cls-2" d="M770.91,909.44c-17.23-.12-31.3-14.32-31.25-31.53.05-17.39,14.42-31.45,31.94-31.25,17.29.2,31.06,14.32,30.95,31.71-.11,17.21-14.35,31.19-31.63,31.06Z"/>
</svg>