<?xml version="1.0" encoding="UTF-8"?>
<svg id="Camada_1" xmlns="http://www.w3.org/2000/svg" viewBox="0 0 1300 1300">
  <defs>
    <style>
      .cls-1 {
        fill: #fff;
      }

      .cls-2 {
        fill: #131956;
      }
    </style>
  </defs>
  <path class="cls-1" d="M291.56,1141.43c-14.93-7.22-25.82-17.27-25.08-35.58.68-16.63,13.49-30.55,30.14-31.58,11.05-.68,22.18-.13,33.96-.13v-215.27c-9.41,0-18.81.26-28.2-.05-20.24-.68-34.24-12.68-35.79-30.28-1.85-21.1,12.9-37.14,35.2-37.55,20.1-.38,40.22-.09,60.33-.09,3.46,0,6.93,0,11.03,0v-107.68c-8,0-15.88.11-23.75-.02-21.13-.35-36.41-14.71-36.33-34.02.08-18.93,14.81-32.9,35.56-33.69,2.87-.11,5.75-.04,8.62-.04,195.04,0,390.09,0,585.13,0,3.83,0,7.67-.04,11.48.23,18.79,1.35,32.62,15.57,32.7,33.49.08,18.16-14.41,33.03-33.45,33.92-8.58.4-17.2.07-26.52.07v107.74c3.26,0,6.62,0,9.98,0,20.11,0,40.22-.18,60.33.06,21.06.25,35.81,13.78,36.3,32.8.51,19.9-13.39,34.02-34.97,35.03-9.51.44-19.05.07-29.21.07v214.99c8.49,0,16.95-.04,25.42,0,20.85.11,34.41,9.47,38.18,26.29,3.81,16.99-4.43,31.01-23.39,39.89-.49.23-.75.93-1.12,1.41H291.56ZM399.29,1073.05h73.5v-213.54h-73.5v213.54ZM900.4,859.65h-73.51v213.6h73.51v-213.6ZM615.26,1073.22v-213.47h-73.52v213.47h73.52ZM684.32,1073.09h73.39v-213.49h-73.39v213.49ZM494,790.41v-106.57h-52.09v106.57h52.09ZM563.17,683.55v106.67h51.94v-106.67h-51.94ZM684.64,683.57v106.57h51.82v-106.57h-51.82ZM805.68,683.65v106.58h52.11v-106.58h-52.11Z"/>
  <path class="cls-2" d="M375.28,503.22c16.27-130.41,123.13-225.89,240.51-240.59,0-9.64,0-19.45,0-29.27,0-11.82-.13-23.64.03-35.45.3-22.8,14.22-38.09,34.32-37.92,19.72.16,33.45,15.26,33.72,37.55.22,18.2.05,36.41.05,54.61,0,3.45,0,6.9,0,9.65,134.82,26.44,214.56,106.28,241.21,241.45,8.77,0,18.58-.4,28.34.09,17.71.89,30.57,13.06,32.83,30.39,1.94,14.86-7.61,30.22-22.43,35.03-4.75,1.54-10.02,2.05-15.05,2.06-199.18.1-398.37.11-597.55.05-19.5,0-32.33-8.81-36.66-24.47-5.98-21.63,9.13-42.02,32.24-43.11,9.21-.43,18.47-.07,28.45-.07ZM445.11,502.61h409.49c-12.23-87.8-92.68-173.85-204.74-173.85-112.15,0-192.55,86.14-204.75,173.85Z"/>
</svg>