<svg width="768" height="983" viewBox="0 0 768 983" fill="none" xmlns="http://www.w3.org/2000/svg">
<path d="M25.5598 982.43C10.6298 975.21 -0.260158 965.16 0.479842 946.85C1.15984 930.22 13.9698 916.3 30.6198 915.27C41.6698 914.59 52.7998 915.14 64.5798 915.14V699.87C55.1698 699.87 45.7698 700.13 36.3798 699.82C16.1398 699.14 2.13983 687.14 0.589827 669.54C-1.26017 648.44 13.4898 632.4 35.7898 631.99C55.8898 631.61 76.0098 631.9 96.1198 631.9C99.5798 631.9 103.05 631.9 107.15 631.9V524.22C99.1498 524.22 91.2698 524.33 83.3998 524.2C62.2698 523.85 46.9898 509.49 47.0698 490.18C47.1498 471.25 61.8798 457.28 82.6298 456.49C85.4998 456.38 88.3798 456.45 91.2498 456.45C286.29 456.45 481.34 456.45 676.38 456.45C680.21 456.45 684.05 456.41 687.86 456.68C706.65 458.03 720.48 472.25 720.56 490.17C720.64 508.33 706.15 523.2 687.11 524.09C678.53 524.49 669.91 524.16 660.59 524.16V631.9C663.85 631.9 667.21 631.9 670.57 631.9C690.68 631.9 710.79 631.72 730.9 631.96C751.96 632.21 766.71 645.74 767.2 664.76C767.71 684.66 753.81 698.78 732.23 699.79C722.72 700.23 713.18 699.86 703.02 699.86V914.85C711.51 914.85 719.97 914.81 728.44 914.85C749.29 914.96 762.85 924.32 766.62 941.14C770.43 958.13 762.19 972.15 743.23 981.03C742.74 981.26 742.48 981.96 742.11 982.44H25.5598V982.43ZM133.29 914.05H206.79V700.51H133.29V914.05ZM634.4 700.65H560.89V914.25H634.4V700.65ZM349.26 914.22V700.75H275.74V914.22H349.26ZM418.32 914.09H491.71V700.6H418.32V914.09ZM228 631.41V524.84H175.91V631.41H228ZM297.17 524.55V631.22H349.11V524.55H297.17ZM418.64 524.57V631.14H470.46V524.57H418.64ZM539.68 524.65V631.23H591.79V524.65H539.68Z" fill="white"/>
<path d="M109.281 344.22C125.551 213.81 232.411 118.33 349.791 103.63C349.791 93.9897 349.791 84.1797 349.791 74.3597C349.791 62.5397 349.661 50.7197 349.821 38.9097C350.121 16.1097 364.041 0.819685 384.141 0.989685C403.861 1.14968 417.591 16.2497 417.861 38.5397C418.081 56.7397 417.911 74.9497 417.911 93.1497C417.911 96.5997 417.911 100.05 417.911 102.8C552.731 129.24 632.471 209.08 659.121 344.25C667.891 344.25 677.701 343.85 687.461 344.34C705.171 345.23 718.031 357.4 720.291 374.73C722.231 389.59 712.681 404.95 697.861 409.76C693.111 411.3 687.841 411.81 682.811 411.82C483.631 411.92 284.441 411.93 85.2608 411.87C65.7608 411.87 52.9308 403.06 48.6008 387.4C42.6208 365.77 57.7308 345.38 80.8408 344.29C90.0508 343.86 99.3108 344.22 109.291 344.22H109.281ZM179.111 343.61H588.601C576.371 255.81 495.921 169.76 383.861 169.76C271.711 169.76 191.311 255.9 179.111 343.61Z" fill="#131956"/>
</svg>
