<?xml version="1.0" encoding="UTF-8"?>
<svg id="Camada_1" xmlns="http://www.w3.org/2000/svg" viewBox="0 0 1300 1300">
  <defs>
    <style>
      .cls-1 {
        fill: #fff;
      }

      .cls-2 {
        fill: #131956;
      }
    </style>
  </defs>
  <path class="cls-1" d="M572.13,1068.65c0,10.23,0,19.32,0,28.4,0,8.93.13,17.86-.07,26.79-.21,9.41-6.55,15.58-15.95,15.81-4.09.1-8.18.03-12.28.03-113.1,0-226.21,0-339.31,0-11.76,0-17.82-6.12-17.81-17.88.02-180.07,0-360.15.16-540.22,0-5.23,1.26-10.73,3.14-15.64,31.52-82.39,84.22-146.86,161.91-189.82,35.68-19.73,74.07-31.72,114.31-37.88,13.36-2.04,20.73,4.35,20.76,17.75.03,17.3,0,34.6,0,51.9,0,2.01,0,4.02,0,6.04,12.7,1.54,24.86,2.99,37.01,4.52,3.32.42,6.64.95,9.9,1.67,8.86,1.96,13.41,7.45,13.47,16.55.11,15.07.15,30.14-.04,45.2-.05,3.89.85,5.38,5.06,5.94,17.51,2.32,34.97,5.03,52.4,7.84,9.85,1.59,14.59,7.27,14.65,17.26.11,17.11.03,34.23.03,51.34,0,163.52-.01,327.03.05,490.55,0,6.26-.64,12.53-6.39,15.67-3.92,2.14-9.15,3.08-13.64,2.7-8.82-.76-17.54-2.81-27.34-4.51ZM455.35,372.32c-2.18.29-3.82.38-5.41.75-111.33,25.73-186.61,93.1-228.87,198.45-1.63,4.05-2.9,8.59-2.9,12.9-.15,154-.13,308-.11,462.01,0,1.33.26,2.65.52,5.11,55.49-89.92,133.5-145.76,236.77-165.56V372.32ZM588.12,1039.43c0-2.91,0-4.93,0-6.95,0-163.35,0-326.69-.04-490.04,0-5.88,1.7-13.68-1.33-17.12-3.09-3.51-11.01-2.9-16.87-3.78-7.25-1.09-14.55-1.84-22.43-2.82v8.08c0,150.7,0,301.39,0,452.09,0,15.18-7.48,21.29-22.41,18.55-30.61-5.6-61.38-6.7-92.22-2.51-56,7.62-105.28,30.7-149.33,65.62-.99.78-2.1,1.4-3.16,2.1.26.45.52.9.78,1.34,99.72-37.28,202.11-41.29,307.02-24.56ZM487.01,445.78v7.93c0,147.33,0,294.65,0,441.98,0,12.92-4.3,17.76-16.9,19.77-74.11,11.84-136.92,44.71-187.16,100.87-3.1,3.47-6.05,7.08-9.06,10.63,35.51-24.55,73.17-43.8,114.74-55.09,41.77-11.34,84.14-13.42,127.05-7.83V448.58c-9.56-.93-18.74-1.83-28.66-2.8ZM540.49,1064.85c-48.01-4.95-95.46-4.5-142.8,2.31-47.22,6.78-92.7,19.41-135.54,40.86h278.34v-43.16Z"/>
  <path class="cls-1" d="M575.58,302.39c-.47-79.97,65.73-146.89,145.74-147.33,82.22-.46,148.77,64.99,149.14,146.67.37,81.36-65.25,147.7-146.53,148.14-81.78.45-147.86-65.26-148.35-147.49ZM606.95,302.03c-.22,64.03,51.73,116.38,115.64,116.53,64.37.15,116.41-51.74,116.52-116.2.11-63.19-51.73-115.7-114.5-115.98-64.99-.29-117.44,51.26-117.65,115.64Z"/>
  <path class="cls-1" d="M965.59,744.16c-81.47-.22-147.43-66.67-147.11-148.21.32-81.21,66.49-146.78,148-146.66,81.35.12,147.08,66.56,146.81,148.39-.26,80.69-66.81,146.69-147.7,146.48ZM966.09,712.78c63.83.03,115.81-52.14,115.89-116.31.08-63.6-51.97-115.7-115.75-115.86-63.86-.16-116.27,51.67-116.44,115.15-.18,64.75,51.75,116.99,116.3,117.02Z"/>
  <path class="cls-1" d="M970.85,944.93c-.22,81.28-66.55,147.23-147.73,146.9-81.68-.34-147.34-66.45-147.12-148.14.22-80.99,66.91-147.05,148.09-146.69,81.28.36,146.98,66.59,146.76,147.94ZM939.5,944.58c.16-63.7-51.88-116.15-115.35-116.26-64.21-.11-116.49,51.55-116.84,115.44-.35,64.19,51.73,116.59,116.03,116.76,63.98.16,116-51.76,116.16-115.94Z"/>
  <path class="cls-2" d="M719.1,726.45c-9.67,0-19.33.05-29,0-10.16-.07-17.36-6.68-17.24-15.72.12-9.34,6.91-15.54,17.33-15.57,19.52-.07,39.03-.07,58.55.01,10.23.05,17.09,6.61,16.97,15.93-.12,8.87-7.14,15.19-17.06,15.35-.19,0-.37,0-.56,0-9.67,0-19.33,0-29,0Z"/>
  <path class="cls-2" d="M733.22,551.48c-9.67,0-19.33.08-28.99-.03-9.59-.11-16.3-6.48-16.38-15.31-.08-9.16,6.6-15.85,16.44-15.92,19.51-.14,39.03-.16,58.55,0,9.65.08,16.69,7.15,16.46,15.97-.23,8.78-7.06,15.18-16.52,15.27-9.85.1-19.7.02-29.55.02Z"/>
  <path class="cls-2" d="M263.02,711.9c-12.88.05-20.64-13.26-13.71-24.03,10.23-15.91,20.77-31.75,32.63-46.45,21.92-27.15,47.68-50.06,79.92-64.57,7.92-3.56,16.27-6.38,24.66-8.63,8.84-2.37,16.82,2.75,18.98,11.1,2.12,8.17-2.14,16.5-10.7,18.8-33.68,9.07-59.85,29.52-81.89,55.31-13.1,15.32-24.19,32.38-35.8,48.93-3.79,5.4-7.97,9.19-14.09,9.53Z"/>
  <path class="cls-2" d="M405.99,782.53c-.11,6.62-3.87,12.57-10.37,14.37-45.86,12.72-76.59,44.66-103.54,81.32-5.82,7.92-10.76,16.48-16.08,24.76-4.88,7.61-13.87,10.13-21.32,5.92-7.36-4.15-10.36-13.55-5.77-21.28,26.65-44.96,59.47-84.05,106.73-108.68,9.63-5.02,20.2-8.53,30.66-11.61,10.38-3.06,19.87,4.8,19.71,15.19Z"/>
  <path class="cls-2" d="M262.2,612.35c-11.8-.08-19.66-12.9-13.29-23.18,9.08-14.66,18.6-29.17,29.23-42.73,20.21-25.79,43.69-48.32,72.98-63.7,10.93-5.74,22.86-9.68,34.54-13.87,6.79-2.44,12.86-.14,17.34,5.58,3.8,4.86,4.35,12.01.6,17.21-2.04,2.84-5.2,5.84-8.42,6.71-36.44,9.9-63.79,32.9-87.17,61.06-11.35,13.67-20.94,28.82-30.98,43.54-3.73,5.47-8.04,9.14-14.81,9.38Z"/>
  <path class="cls-2" d="M405.99,682.59c.04,6.58-3.66,12.91-10.01,14.65-44.46,12.21-74.85,42.64-101.36,78.01-6.45,8.6-12.05,17.85-17.83,26.94-5.54,8.69-14.5,11.65-22.26,7.05-8.17-4.84-10.08-14.1-4.54-23.28,23.88-39.63,53-74.41,92.57-99.41,13.43-8.48,27.8-15,43.28-18.75,10.72-2.6,20.08,4.42,20.14,14.79Z"/>
  <path class="cls-2" d="M725.6,282.38c10.73,0,21.46.1,32.19-.03,7.53-.09,13.58,2.28,16.75,9.53,3.29,7.54.64,13.61-4.88,19.09-18.75,18.61-37.37,37.34-56.08,55.99-7.32,7.3-16.67,7.78-23.31,1.32-6.49-6.31-6.17-15.92,1.04-23.31,8.31-8.52,16.75-16.92,25.27-25.23,1.56-1.52,3.78-2.38,5.7-3.54-.51-.83-1.02-1.66-1.53-2.49-3.96,0-7.93,0-11.89,0-7.44,0-14.88-.03-22.32,0-7.04.03-12.24-3.02-15.05-9.48-2.83-6.5-1.41-12.5,3.5-17.45,16.5-16.64,33.04-33.25,49.71-49.72,6.5-6.42,15.91-6.48,22.14-.6,6.35,6,6.67,15.74.18,22.5-7.18,7.48-14.82,14.54-22.25,21.78l.85,1.65Z"/>
  <path class="cls-2" d="M965.64,671.34c-35.61-.37-60.79-31.81-53.95-67.67,6.03-31.57,22.11-58.08,42.55-82.2,5.87-6.93,17.12-7.28,22.85-.48,22.07,26.21,39.94,54.69,43.92,89.73,3.66,32.15-22.88,60.96-55.36,60.62ZM965.89,557.39c-11.99,18.03-21.77,35.62-24.02,56.41-1.48,13.6,9.1,25.57,22.97,26.11,14.05.56,26.06-10.89,25.12-24.68-1.47-21.53-11.83-39.47-24.08-57.85Z"/>
  <path class="cls-2" d="M770.72,980.68c-.21-9.57,5.74-16.64,14.54-17.27,8.79-.63,15.93,5.6,16.68,15.05.75,9.52,5.71,15.62,14.56,18.34,9.11,2.81,17.38.82,23.91-6.34,4.66-5.1,5.76-11.24,3.15-17.66-3.2-7.85-9.69-11.47-17.75-12.56-4.41-.59-8.94-.49-13.29-1.33-22.74-4.41-39.55-22.7-41.63-45.03-2-21.39,10.91-41.61,32.35-50.28,3.1-1.25,4.52-2.88,5.25-6.18,1.58-7.2,7.79-11.75,15.02-11.73,7.21.02,13.51,4.64,14.98,11.79.7,3.41,2.3,4.82,5.32,6.11,18.81,8.01,30.02,21.96,32.27,42.57,1.12,10.21-4.45,18.01-13.49,19.16-9.38,1.19-16.36-4.99-17.69-15.66-1.21-9.74-6.64-15.79-16.24-18.12-8.65-2.1-18.36,1.35-23.28,8.38-3.84,5.48-4.51,11.39-1.46,17.39,3.81,7.5,10.38,11.09,18.54,11.33,10.64.32,20.74,2.44,29.71,8.26,16.4,10.66,25.28,25.74,23.79,45.53-1.53,20.43-12.86,34.41-31.39,42.52-3.62,1.58-5.45,3.16-5.89,7.36-.76,7.3-7.32,12.51-14.72,12.74-7.66.23-14.61-4.73-15.52-12.32-.56-4.71-2.78-6.38-6.69-8-18.2-7.57-30.62-25.45-31.02-44.06Z"/>
</svg>