<?xml version="1.0" encoding="UTF-8"?>
<svg xmlns="http://www.w3.org/2000/svg" version="1.1" viewBox="0 0 595.28 595.28">
  <defs>
    <style>
      .cls-1 {
        fill: #fff;
      }

      .cls-2 {
        fill: #242753;
      }
    </style>
  </defs>
  <!-- Generator: Adobe Illustrator 28.7.2, SVG Export Plug-In . SVG Version: 1.2.0 Build 154)  -->
  <g>
    <g id="Camada_1">
      <g id="vLS7mq.tif">
        <g>
          <path class="cls-2" d="M467.72,323.8c-6.14,12.9-18.3,16.73-30.69,19.99-14.26,3.75-28.83,4.59-43.52,4.09-.45-.02-.89-.13-1.66-.24v-59.52c-5.88-.62-11.46-1.2-17.35-1.81,2.1-9.43,1.38-18.47-.97-27.41-.62-2.36.93-2.82,2.52-3.36,16.99-5.8,33.93-5.75,50.35,1.6,23.01,10.31,36.61,28.12,40.65,53.07.09.54.43,1.05.66,1.57v12.02Z"/>
          <path class="cls-2" d="M127.55,311.78c.91-3.74,1.66-7.52,2.74-11.21,8.65-29.51,35.65-49.62,66.42-48.83,7.42.19,14.8,2.36,22.19,3.68,2.54.45,3.27,1.74,2.59,4.5-1.87,7.59-3.02,14.99-.73,26.37-5.61.59-11.18,1.18-17.31,1.82,0,9.89,0,19.86,0,29.82s0,19.73,0,30.39c-9.42-.43-18.55-.18-27.47-1.44-9.5-1.34-18.96-3.61-28.15-6.4-8.83-2.68-16.28-7.78-20.28-16.68,0-4.01,0-8.02,0-12.02Z"/>
          <path class="cls-2" d="M382.08,364.96c-.57-21.32-.12-42.66-.12-63.99v-3.87c-3.03-.44-5.72-.77-8.38-1.22-17.87-3-33.9-10.37-48.83-20.41-1.54-1.03-3.65-1.71-5.5-1.72-14.17-.14-28.35-.18-42.51.01-2.3.03-4.89.83-6.8,2.1-11.27,7.47-23.15,13.65-36.21,17.26-6.63,1.83-13.48,2.92-20.41,4.39v3.12c0,23.22.04,46.44-.01,69.66-.01,9.54,1.79,18.72,5.32,27.55,8.92,22.3,24.56,39.06,43.94,52.73,10.37,7.32,21.75,12.59,33.66,16.82h2.83c.28-.21.53-.5.85-.6,23.72-7.53,43.22-21.36,59.22-40.11,15.12-17.71,23.59-37.89,22.95-61.7ZM353.81,418.35c-13.98,17.54-31.45,30.37-52.56,38.12-1.67.61-3.85,1.11-5.39.55-31.1-11.38-54.49-31.35-68.13-61.86-3.69-8.25-5.17-17.08-5.17-26.12-.01-20.03.06-40.07-.09-60.1-.02-3.03.97-3.86,3.83-4.44,16.78-3.49,32.3-10.08,46.68-19.43,1.84-1.19,4.32-1.92,6.52-1.96,12.28-.18,24.56-.13,36.84-.03,1.67.01,3.59.42,4.95,1.31,15.13,9.96,31.47,16.94,49.29,20.42.67.13,1.3.5,2.15.83v21.18c0,13.2-.21,26.41.05,39.6.37,19.8-6.87,36.75-18.97,51.93Z"/>
          <path class="cls-1" d="M372.78,366.42c-.26-13.2-.05-26.4-.05-39.6v-21.18c-.84-.33-1.47-.7-2.15-.83-17.82-3.48-34.16-10.46-49.29-20.42-1.36-.89-3.29-1.3-4.95-1.31-12.28-.11-24.56-.16-36.84.03-2.2.04-4.68.77-6.52,1.96-14.38,9.35-29.9,15.93-46.68,19.43-2.86.59-3.85,1.41-3.83,4.44.15,20.03.07,40.07.09,60.1,0,9.04,1.49,17.87,5.17,26.12,13.64,30.52,37.04,50.48,68.13,61.86,1.54.56,3.72.06,5.39-.55,21.11-7.75,38.59-20.58,52.56-38.12,12.1-15.19,19.34-32.13,18.97-51.93ZM362.7,373.37c-.21,11.2-4.54,21.34-10.58,30.63-12.64,19.41-29.77,33.47-51.21,42.37-2.39.99-4.37.92-6.67-.07-25.65-11.06-45.47-28.28-57.16-53.98-3.3-7.24-4.73-14.95-4.67-22.97.12-17.43.04-34.87.04-52.3v-2.66c11.16-4.59,21.59-8.83,31.97-13.19,2.16-.9,4.34-1.98,6.17-3.4,5.59-4.37,11.81-5.56,18.81-5.16,8.12.47,16.29.04,24.43.17,1.54.03,3.28.5,4.59,1.31,13.03,8.2,26.84,14.61,41.82,18.37,1.9.47,2.66,1.2,2.65,3.29-.09,19.21.19,38.4-.18,57.6Z"/>
          <path class="cls-2" d="M364.71,283.81c-9.15-2.37-17.21-6.17-25-10.58-1.95-1.1-4.04-2.08-5.7-3.54-5.58-4.91-11.98-6.03-19.26-5.78-13.21.45-26.45.21-39.67.07-3.57-.04-6.51.76-9.49,2.86-9.86,6.94-20.43,12.62-32.05,16.15-.88.27-1.78.46-2.76.71-2.82-5.37-1.7-10.87-.86-16.09,4.71-29.52,25.39-51.06,54.59-57.3,36.58-7.82,74.67,18.17,80.39,55,.75,4.83.66,9.81.81,14.72.03,1.1-.56,2.23-.98,3.8Z"/>
          <path class="cls-2" d="M297.39,190.93c-17.36-.13-31.5-14.26-31.5-31.49,0-17.66,14.46-31.67,32.54-31.52,16.93.13,31.1,14.63,30.96,31.68-.14,17.43-14.47,31.47-32.01,31.34Z"/>
          <path class="cls-2" d="M195.86,233.36c-17.66-.03-31.57-14-31.51-31.65.06-17.59,14.07-31.41,31.81-31.37,17.53.04,31.39,14.13,31.33,31.84-.06,17.37-14.1,31.21-31.62,31.18Z"/>
          <path class="cls-2" d="M399.3,233.36c-17.66-.03-31.53-13.97-31.51-31.66.02-17.53,14.09-31.4,31.81-31.36,17.41.04,31.33,14.02,31.33,31.49,0,17.63-13.97,31.56-31.64,31.53Z"/>
          <path class="cls-2" d="M362.88,315.76c.01-2.09-.75-2.81-2.65-3.29-14.97-3.76-28.79-10.17-41.82-18.37-1.3-.81-3.04-1.28-4.59-1.31-8.14-.13-16.31.3-24.43-.17-6.99-.4-13.22.79-18.81,5.16-1.84,1.42-4.01,2.5-6.17,3.4-10.38,4.36-20.81,8.6-31.97,13.19v2.66c0,17.43.09,34.87-.04,52.3-.06,8.02,1.37,15.73,4.67,22.97,11.69,25.7,31.51,42.93,57.16,53.98,2.3.99,4.28,1.06,6.67.07,21.44-8.89,38.57-22.95,51.21-42.37,6.05-9.29,10.37-19.43,10.58-30.63.37-19.2.09-38.4.18-57.6ZM344.11,345.68c-22.62,16.58-45.27,33.1-67.96,49.57-3.4,2.47-6.23,1.78-8.12-1.96-6.27-12.38-12.46-24.8-18.62-37.22-1.59-3.22-.77-6.06,1.87-7.26,2.66-1.21,5.19-.12,6.85,3.14,4.89,9.65,9.72,19.33,14.58,28.99.52,1.04,1.07,2.08,1.83,3.54,12.71-9.27,25.08-18.28,37.44-27.31,8.85-6.46,17.71-12.91,26.55-19.37,2.01-1.47,4.3-2.1,6.1-.29,1.14,1.15,1.77,3.22,1.79,4.9.01,1.1-1.25,2.51-2.3,3.28Z"/>
          <path class="cls-1" d="M346.42,342.4c.01,1.1-1.25,2.51-2.3,3.28-22.62,16.58-45.27,33.1-67.96,49.57-3.4,2.47-6.23,1.78-8.12-1.96-6.27-12.38-12.46-24.8-18.62-37.22-1.59-3.22-.77-6.06,1.87-7.26,2.66-1.21,5.19-.12,6.85,3.14,4.89,9.65,9.72,19.33,14.58,28.99.52,1.04,1.07,2.08,1.83,3.54,12.71-9.27,25.08-18.28,37.44-27.31,8.85-6.46,17.71-12.91,26.55-19.37,2.01-1.47,4.3-2.1,6.1-.29,1.14,1.15,1.77,3.22,1.79,4.9Z"/>
        </g>
      </g>
    </g>
  </g>
</svg>