<svg width="341" height="341" viewBox="0 0 341 341" fill="none" xmlns="http://www.w3.org/2000/svg">
<path d="M340.72 196.8C334.58 209.7 322.42 213.53 310.03 216.79C295.77 220.54 281.2 221.38 266.51 220.88C266.06 220.86 265.62 220.75 264.85 220.64V161.12C258.97 160.5 253.39 159.92 247.5 159.31C249.6 149.88 248.88 140.84 246.53 131.9C245.91 129.54 247.46 129.08 249.05 128.54C266.04 122.74 282.98 122.79 299.4 130.14C322.41 140.45 336.01 158.26 340.05 183.21C340.14 183.75 340.48 184.26 340.71 184.78V196.8H340.72Z" fill="#242753"/>
<path d="M0.550781 184.78C1.46078 181.04 2.21077 177.26 3.29077 173.57C11.9408 144.06 38.9408 123.95 69.7108 124.74C77.1308 124.93 84.5108 127.1 91.9008 128.42C94.4408 128.87 95.1708 130.16 94.4908 132.92C92.6208 140.51 91.4708 147.91 93.7608 159.29C88.1508 159.88 82.5808 160.47 76.4508 161.11C76.4508 171 76.4508 180.97 76.4508 190.93C76.4508 200.89 76.4508 210.66 76.4508 221.32C67.0308 220.89 57.9008 221.14 48.9808 219.88C39.4808 218.54 30.0208 216.27 20.8308 213.48C12.0008 210.8 4.55078 205.7 0.550781 196.8C0.550781 192.79 0.550781 188.78 0.550781 184.78Z" fill="#242753"/>
<path d="M255.083 237.96C254.513 216.64 254.963 195.3 254.963 173.97V170.1C251.933 169.66 249.243 169.33 246.583 168.88C228.713 165.88 212.683 158.51 197.753 148.47C196.213 147.44 194.103 146.76 192.253 146.75C178.083 146.61 163.903 146.57 149.743 146.76C147.443 146.79 144.853 147.59 142.943 148.86C131.673 156.33 119.793 162.51 106.733 166.12C100.103 167.95 93.2526 169.04 86.3226 170.51V173.63C86.3226 196.85 86.3625 220.07 86.3125 243.29C86.3025 252.83 88.1025 262.01 91.6325 270.84C100.553 293.14 116.193 309.9 135.573 323.57C145.943 330.89 157.323 336.16 169.233 340.39H172.063C172.343 340.18 172.593 339.89 172.913 339.79C196.633 332.26 216.133 318.43 232.133 299.68C247.253 281.97 255.723 261.79 255.083 237.98V237.96ZM226.813 291.35C212.833 308.89 195.363 321.72 174.253 329.47C172.583 330.08 170.403 330.58 168.863 330.02C137.763 318.64 114.373 298.67 100.733 268.16C97.0425 259.91 95.5625 251.08 95.5625 242.04C95.5525 222.01 95.6225 201.97 95.4725 181.94C95.4525 178.91 96.4425 178.08 99.3025 177.5C116.083 174.01 131.603 167.42 145.983 158.07C147.823 156.88 150.303 156.15 152.503 156.11C164.783 155.93 177.063 155.98 189.343 156.08C191.013 156.09 192.933 156.5 194.293 157.39C209.423 167.35 225.763 174.33 243.583 177.81C244.253 177.94 244.883 178.31 245.733 178.64V199.82C245.733 213.02 245.523 226.23 245.783 239.42C246.153 259.22 238.913 276.17 226.813 291.35Z" fill="#242753"/>
<path d="M245.779 239.42C245.519 226.22 245.729 213.02 245.729 199.82V178.64C244.889 178.31 244.259 177.94 243.579 177.81C225.759 174.33 209.419 167.35 194.289 157.39C192.929 156.5 190.999 156.09 189.339 156.08C177.059 155.97 164.779 155.92 152.499 156.11C150.299 156.15 147.819 156.88 145.979 158.07C131.599 167.42 116.079 174 99.299 177.5C96.439 178.09 95.449 178.91 95.469 181.94C95.619 201.97 95.539 222.01 95.559 242.04C95.559 251.08 97.049 259.91 100.729 268.16C114.369 298.68 137.769 318.64 168.859 330.02C170.399 330.58 172.579 330.08 174.249 329.47C195.359 321.72 212.839 308.89 226.809 291.35C238.909 276.16 246.149 259.22 245.779 239.42ZM235.699 246.37C235.489 257.57 231.159 267.71 225.119 277C212.479 296.41 195.349 310.47 173.909 319.37C171.519 320.36 169.539 320.29 167.239 319.3C141.589 308.24 121.769 291.02 110.079 265.32C106.779 258.08 105.349 250.37 105.409 242.35C105.529 224.92 105.449 207.48 105.449 190.05V187.39C116.609 182.8 127.039 178.56 137.419 174.2C139.579 173.3 141.759 172.22 143.589 170.8C149.179 166.43 155.399 165.24 162.399 165.64C170.519 166.11 178.689 165.68 186.829 165.81C188.369 165.84 190.109 166.31 191.419 167.12C204.449 175.32 218.259 181.73 233.239 185.49C235.139 185.96 235.899 186.69 235.889 188.78C235.799 207.99 236.079 227.18 235.709 246.38L235.699 246.37Z" fill="white"/>
<path d="M237.711 156.81C228.561 154.44 220.501 150.64 212.711 146.23C210.761 145.13 208.671 144.15 207.011 142.69C201.431 137.78 195.031 136.66 187.751 136.91C174.541 137.36 161.301 137.12 148.081 136.98C144.511 136.94 141.571 137.74 138.591 139.84C128.731 146.78 118.161 152.46 106.541 155.99C105.661 156.26 104.761 156.45 103.781 156.7C100.961 151.33 102.081 145.83 102.921 140.61C107.631 111.09 128.311 89.5503 157.511 83.3103C194.091 75.4903 232.181 101.48 237.901 138.31C238.651 143.14 238.561 148.12 238.711 153.03C238.741 154.13 238.151 155.26 237.731 156.83L237.711 156.81Z" fill="#242753"/>
<path d="M170.391 63.9301C153.031 63.8001 138.891 49.6701 138.891 32.4401C138.891 14.7801 153.351 0.770139 171.431 0.920139C188.361 1.05014 202.531 15.5501 202.391 32.6001C202.251 50.0301 187.921 64.0701 170.381 63.9401L170.391 63.9301Z" fill="#242753"/>
<path d="M68.8617 106.36C51.2017 106.33 37.2918 92.3599 37.3518 74.7099C37.4118 57.1199 51.4218 43.2999 69.1618 43.3399C86.6918 43.3799 100.552 57.4699 100.492 75.1799C100.432 92.5499 86.3917 106.39 68.8717 106.36H68.8617Z" fill="#242753"/>
<path d="M272.299 106.36C254.639 106.33 240.769 92.3899 240.789 74.6999C240.809 57.1699 254.879 43.2999 272.599 43.3399C290.009 43.3799 303.929 57.3599 303.929 74.8299C303.929 92.4599 289.959 106.39 272.289 106.36H272.299Z" fill="#242753"/>
<path d="M235.88 188.76C235.89 186.67 235.13 185.95 233.23 185.47C218.26 181.71 204.44 175.3 191.41 167.1C190.11 166.29 188.37 165.82 186.82 165.79C178.68 165.66 170.51 166.09 162.39 165.62C155.4 165.22 149.17 166.41 143.58 170.78C141.74 172.2 139.57 173.28 137.41 174.18C127.03 178.54 116.6 182.78 105.44 187.37V190.03C105.44 207.46 105.53 224.9 105.4 242.33C105.34 250.35 106.77 258.06 110.07 265.3C121.76 291 141.58 308.23 167.23 319.28C169.53 320.27 171.51 320.34 173.9 319.35C195.34 310.46 212.47 296.4 225.11 276.98C231.16 267.69 235.48 257.55 235.69 246.35C236.06 227.15 235.78 207.95 235.87 188.75L235.88 188.76ZM217.11 218.68C194.49 235.26 171.84 251.78 149.15 268.25C145.75 270.72 142.92 270.03 141.03 266.29C134.76 253.91 128.57 241.49 122.41 229.07C120.82 225.85 121.64 223.01 124.28 221.81C126.94 220.6 129.47 221.69 131.13 224.95C136.02 234.6 140.85 244.28 145.71 253.94C146.23 254.98 146.78 256.02 147.54 257.48C160.25 248.21 172.62 239.2 184.98 230.17C193.83 223.71 202.69 217.26 211.53 210.8C213.54 209.33 215.83 208.7 217.63 210.51C218.77 211.66 219.4 213.73 219.42 215.41C219.43 216.51 218.17 217.92 217.12 218.69L217.11 218.68Z" fill="#242753"/>
<path d="M219.423 215.4C219.433 216.5 218.173 217.91 217.123 218.68C194.503 235.26 171.853 251.78 149.163 268.25C145.763 270.72 142.933 270.03 141.043 266.29C134.773 253.91 128.583 241.49 122.423 229.07C120.833 225.85 121.653 223.01 124.293 221.81C126.953 220.6 129.483 221.69 131.143 224.95C136.033 234.6 140.863 244.28 145.723 253.94C146.243 254.98 146.793 256.02 147.553 257.48C160.263 248.21 172.633 239.2 184.993 230.17C193.843 223.71 202.703 217.26 211.543 210.8C213.553 209.33 215.843 208.7 217.643 210.51C218.783 211.66 219.413 213.73 219.433 215.41L219.423 215.4Z" fill="white"/>
</svg>
