<svg width="928" height="985" viewBox="0 0 928 985" fill="none" xmlns="http://www.w3.org/2000/svg">
<path d="M386.131 913.65C386.131 923.88 386.131 932.97 386.131 942.05C386.131 950.98 386.261 959.91 386.061 968.84C385.851 978.25 379.511 984.42 370.111 984.65C366.021 984.75 361.931 984.68 357.831 984.68C244.731 984.68 131.621 984.68 18.5209 984.68C6.76095 984.68 0.70095 978.56 0.71095 966.8C0.73095 786.73 0.710938 606.65 0.870938 426.58C0.870938 421.35 2.13094 415.85 4.01094 410.94C35.5309 328.55 88.231 264.08 165.921 221.12C201.601 201.39 239.991 189.4 280.231 183.24C293.591 181.2 300.961 187.59 300.991 200.99C301.021 218.29 300.991 235.59 300.991 252.89C300.991 254.9 300.991 256.91 300.991 258.93C313.691 260.47 325.851 261.92 338.001 263.45C341.321 263.87 344.641 264.4 347.901 265.12C356.761 267.08 361.311 272.57 361.371 281.67C361.481 296.74 361.521 311.81 361.331 326.87C361.281 330.76 362.181 332.25 366.391 332.81C383.901 335.13 401.361 337.84 418.791 340.65C428.641 342.24 433.381 347.92 433.441 357.91C433.551 375.02 433.471 392.14 433.471 409.25C433.471 572.77 433.461 736.28 433.521 899.8C433.521 906.06 432.881 912.33 427.131 915.47C423.211 917.61 417.981 918.55 413.491 918.17C404.671 917.41 395.951 915.36 386.151 913.66L386.131 913.65ZM269.351 217.32C267.171 217.61 265.531 217.7 263.941 218.07C152.611 243.8 77.3309 311.17 35.0709 416.52C33.4409 420.57 32.1709 425.11 32.1709 429.42C32.0209 583.42 32.0409 737.42 32.0609 891.43C32.0609 892.76 32.3209 894.08 32.5809 896.54C88.0709 806.62 166.081 750.78 269.351 730.98V217.32ZM402.121 884.43C402.121 881.52 402.121 879.5 402.121 877.48C402.121 714.13 402.121 550.79 402.081 387.44C402.081 381.56 403.781 373.76 400.751 370.32C397.661 366.81 389.741 367.42 383.881 366.54C376.631 365.45 369.331 364.7 361.451 363.72V371.8C361.451 522.5 361.451 673.19 361.451 823.89C361.451 839.07 353.971 845.18 339.041 842.44C308.431 836.84 277.661 835.74 246.821 839.93C190.821 847.55 141.541 870.63 97.4909 905.55C96.5009 906.33 95.3909 906.95 94.3309 907.65C94.5909 908.1 94.8509 908.55 95.1109 908.99C194.831 871.71 297.221 867.7 402.131 884.43H402.121ZM301.011 290.78V298.71C301.011 446.04 301.011 593.36 301.011 740.69C301.011 753.61 296.711 758.45 284.111 760.46C210.001 772.3 147.191 805.17 96.951 861.33C93.851 864.8 90.901 868.41 87.891 871.96C123.401 847.41 161.061 828.16 202.631 816.87C244.401 805.53 286.771 803.45 329.681 809.04V293.58C320.121 292.65 310.941 291.75 301.021 290.78H301.011ZM354.491 909.85C306.481 904.9 259.031 905.35 211.691 912.16C164.471 918.94 118.991 931.57 76.1509 953.02H354.491V909.86V909.85Z" fill="white"/>
<path d="M389.581 147.39C389.111 67.42 455.311 0.500027 535.321 0.0600271C617.541 -0.399973 684.091 65.05 684.461 146.73C684.831 228.09 619.211 294.43 537.931 294.87C456.151 295.32 390.071 229.61 389.581 147.38V147.39ZM420.951 147.03C420.731 211.06 472.681 263.41 536.591 263.56C600.961 263.71 653.001 211.82 653.111 147.36C653.221 84.17 601.381 31.66 538.611 31.38C473.621 31.09 421.171 82.64 420.961 147.02L420.951 147.03Z" fill="white"/>
<path d="M779.592 589.16C698.122 588.94 632.162 522.49 632.482 440.95C632.802 359.74 698.972 294.17 780.482 294.29C861.832 294.41 927.562 360.85 927.292 442.68C927.032 523.37 860.482 589.37 779.592 589.16ZM780.092 557.78C843.922 557.81 895.902 505.64 895.982 441.47C896.062 377.87 844.012 325.77 780.232 325.61C716.372 325.45 663.962 377.28 663.792 440.76C663.612 505.51 715.542 557.75 780.092 557.78Z" fill="white"/>
<path d="M784.851 789.93C784.631 871.21 718.301 937.16 637.121 936.83C555.441 936.49 489.781 870.38 490.001 788.69C490.221 707.7 556.911 641.64 638.091 642C719.371 642.36 785.071 708.59 784.851 789.94V789.93ZM753.501 789.58C753.661 725.88 701.621 673.43 638.151 673.32C573.941 673.21 521.661 724.87 521.311 788.76C520.961 852.95 573.041 905.35 637.341 905.52C701.321 905.68 753.341 853.76 753.501 789.58Z" fill="white"/>
<path d="M533.101 571.45C523.431 571.45 513.771 571.5 504.101 571.45C493.941 571.38 486.741 564.77 486.861 555.73C486.981 546.39 493.771 540.19 504.191 540.16C523.711 540.09 543.221 540.09 562.741 540.17C572.971 540.22 579.831 546.78 579.711 556.1C579.591 564.97 572.571 571.29 562.651 571.45C562.461 571.45 562.281 571.45 562.091 571.45C552.421 571.45 542.761 571.45 533.091 571.45H533.101Z" fill="#131956"/>
<path d="M547.22 396.48C537.55 396.48 527.89 396.56 518.23 396.45C508.64 396.34 501.93 389.97 501.85 381.14C501.77 371.98 508.45 365.29 518.29 365.22C537.8 365.08 557.32 365.06 576.84 365.22C586.49 365.3 593.53 372.37 593.3 381.19C593.07 389.97 586.24 396.37 576.78 396.46C566.93 396.56 557.08 396.48 547.23 396.48H547.22Z" fill="#131956"/>
<path d="M77.0195 556.9C64.1395 556.95 56.3796 543.64 63.3096 532.87C73.5396 516.96 84.0796 501.12 95.9396 486.42C117.86 459.27 143.62 436.36 175.86 421.85C183.78 418.29 192.13 415.47 200.52 413.22C209.36 410.85 217.34 415.97 219.5 424.32C221.62 432.49 217.36 440.82 208.8 443.12C175.12 452.19 148.95 472.64 126.91 498.43C113.81 513.75 102.72 530.81 91.1095 547.36C87.3195 552.76 83.1395 556.55 77.0195 556.89V556.9Z" fill="#131956"/>
<path d="M219.99 627.53C219.88 634.15 216.12 640.1 209.62 641.9C163.76 654.62 133.03 686.56 106.08 723.22C100.26 731.14 95.3196 739.7 89.9996 747.98C85.1196 755.59 76.1296 758.11 68.6796 753.9C61.3196 749.75 58.3196 740.35 62.9096 732.62C89.5596 687.66 122.38 648.57 169.64 623.94C179.27 618.92 189.84 615.41 200.3 612.33C210.68 609.27 220.17 617.13 220.01 627.52L219.99 627.53Z" fill="#131956"/>
<path d="M76.1995 457.35C64.3995 457.27 56.5395 444.45 62.9095 434.17C71.9895 419.51 81.5095 405 92.1395 391.44C112.35 365.65 135.829 343.12 165.119 327.74C176.049 322 187.979 318.06 199.66 313.87C206.45 311.43 212.519 313.73 216.999 319.45C220.799 324.31 221.35 331.46 217.6 336.66C215.56 339.5 212.399 342.5 209.179 343.37C172.739 353.27 145.389 376.27 122.009 404.43C110.659 418.1 101.069 433.25 91.0295 447.97C87.2995 453.44 82.9895 457.11 76.2195 457.35H76.1995Z" fill="#131956"/>
<path d="M219.99 527.59C220.03 534.17 216.33 540.5 209.98 542.24C165.52 554.45 135.13 584.88 108.62 620.25C102.17 628.85 96.5698 638.1 90.7898 647.19C85.2498 655.88 76.2898 658.84 68.5298 654.24C60.3598 649.4 58.4498 640.14 63.9898 630.96C87.8698 591.33 116.99 556.55 156.56 531.55C169.99 523.07 184.36 516.55 199.84 512.8C210.56 510.2 219.92 517.22 219.98 527.59H219.99Z" fill="#131956"/>
<path d="M539.6 127.38C550.33 127.38 561.06 127.48 571.79 127.35C579.32 127.26 585.37 129.63 588.54 136.88C591.83 144.42 589.18 150.49 583.66 155.97C564.91 174.58 546.29 193.31 527.58 211.96C520.26 219.26 510.91 219.74 504.27 213.28C497.78 206.97 498.1 197.36 505.31 189.97C513.62 181.45 522.06 173.05 530.58 164.74C532.14 163.22 534.36 162.36 536.28 161.2C535.77 160.37 535.26 159.54 534.75 158.71C530.79 158.71 526.82 158.71 522.86 158.71C515.42 158.71 507.98 158.68 500.54 158.71C493.5 158.74 488.3 155.69 485.49 149.23C482.66 142.73 484.08 136.73 488.99 131.78C505.49 115.14 522.03 98.5299 538.7 82.0599C545.2 75.6399 554.61 75.5799 560.84 81.4599C567.19 87.4599 567.51 97.1999 561.02 103.96C553.84 111.44 546.2 118.5 538.77 125.74L539.62 127.39L539.6 127.38Z" fill="#131956"/>
<path d="M779.64 516.34C744.03 515.97 718.85 484.53 725.69 448.67C731.72 417.1 747.8 390.59 768.24 366.47C774.11 359.54 785.36 359.19 791.09 365.99C813.16 392.2 831.03 420.68 835.01 455.72C838.67 487.87 812.13 516.68 779.65 516.34H779.64ZM779.89 402.39C767.9 420.42 758.12 438.01 755.87 458.8C754.39 472.4 764.97 484.37 778.84 484.91C792.89 485.47 804.9 474.02 803.96 460.23C802.49 438.7 792.13 420.76 779.88 402.38L779.89 402.39Z" fill="#131956"/>
<path d="M584.721 825.68C584.511 816.11 590.461 809.04 599.261 808.41C608.051 807.78 615.191 814.01 615.941 823.46C616.691 832.98 621.651 839.08 630.501 841.8C639.611 844.61 647.881 842.62 654.411 835.46C659.071 830.36 660.171 824.22 657.561 817.8C654.361 809.95 647.871 806.33 639.811 805.24C635.401 804.65 630.871 804.75 626.521 803.91C603.781 799.5 586.971 781.21 584.891 758.88C582.891 737.49 595.801 717.27 617.241 708.6C620.341 707.35 621.761 705.72 622.491 702.42C624.071 695.22 630.281 690.67 637.511 690.69C644.721 690.71 651.021 695.33 652.491 702.48C653.191 705.89 654.791 707.3 657.811 708.59C676.621 716.6 687.831 730.55 690.081 751.16C691.201 761.37 685.631 769.17 676.591 770.32C667.211 771.51 660.231 765.33 658.901 754.66C657.691 744.92 652.261 738.87 642.661 736.54C634.011 734.44 624.301 737.89 619.381 744.92C615.541 750.4 614.871 756.31 617.921 762.31C621.731 769.81 628.301 773.4 636.461 773.64C647.101 773.96 657.201 776.08 666.171 781.9C682.571 792.56 691.451 807.64 689.961 827.43C688.431 847.86 677.101 861.84 658.571 869.95C654.951 871.53 653.121 873.11 652.681 877.31C651.921 884.61 645.361 889.82 637.961 890.05C630.301 890.28 623.351 885.32 622.441 877.73C621.881 873.02 619.661 871.35 615.751 869.73C597.551 862.16 585.131 844.28 584.731 825.67L584.721 825.68Z" fill="#131956"/>
</svg>
