<svg width="321" height="344" viewBox="0 0 321 344" fill="none" xmlns="http://www.w3.org/2000/svg">
<path d="M306.52 293.44C300.65 290.2 294.35 289.98 287.96 290.31C285.4 290.44 284.28 289.61 283.48 287.19C277.08 267.98 270.55 248.82 264.06 229.64C240.52 159.98 216.97 90.32 193.45 20.64C189.78 9.76001 182.32 2.88001 171.18 0.700009C165.89 -0.329991 160.25 0.580013 154.8 0.180013C143.71 -0.649987 130.79 7.50001 126.51 20.58C104.69 87.17 82.6198 153.69 60.6398 220.24C53.2798 242.53 45.8698 264.8 38.5798 287.11C37.8098 289.49 36.7698 290.57 34.1398 290.31C31.5998 290.05 28.9898 290.13 26.4298 290.31C15.5298 291.03 7.47976 296.34 3.17976 306.28C-1.01024 315.94 0.469769 325.21 7.08977 333.59C11.2398 338.85 17.0098 341.29 23.1498 343.17H298.3C299.44 342.75 300.57 342.3 301.72 341.94C311.9 338.81 319.42 329.82 320.34 319.67C321.35 308.55 316.09 298.74 306.52 293.46V293.44ZM110.96 155.48C115.66 139.84 120.4 124.2 125.08 108.55C125.58 106.89 126.13 105.98 128.19 105.99C150.09 106.08 171.99 106.04 193.9 106.05C194.34 106.05 194.78 106.12 195.44 106.18C200.87 123.64 206.3 141.09 211.8 158.77H110.16C110.46 157.54 110.66 156.49 110.97 155.48H110.96ZM73.4698 264.44C73.6798 263.52 73.8198 262.7 74.0798 261.92C79.3798 246.1 84.7598 230.3 89.9498 214.45C90.6498 212.3 91.6498 211.8 93.7398 211.8C138.35 211.85 182.95 211.85 227.56 211.84C229.11 211.84 230.51 211.61 231.22 213.72C236.72 230.05 242.35 246.34 247.94 262.65C248.11 263.15 248.15 263.7 248.29 264.44H73.4698Z" fill="#242753"/>
<path d="M248.291 264.44H73.4707C73.6807 263.52 73.8207 262.7 74.0807 261.92C79.3807 246.1 84.7607 230.3 89.9507 214.45C90.6507 212.3 91.6507 211.8 93.7407 211.8C138.351 211.85 182.951 211.85 227.561 211.84C229.111 211.84 230.511 211.61 231.221 213.72C236.721 230.05 242.351 246.34 247.941 262.65C248.111 263.15 248.151 263.7 248.291 264.44Z" fill="white"/>
<path d="M211.8 158.76H110.16C110.46 157.53 110.66 156.48 110.97 155.47C115.67 139.83 120.41 124.19 125.09 108.54C125.59 106.88 126.14 105.97 128.2 105.98C150.1 106.07 172 106.03 193.91 106.04C194.35 106.04 194.79 106.11 195.45 106.17C200.88 123.63 206.31 141.08 211.81 158.76H211.8Z" fill="white"/>
</svg>
