<?xml version="1.0" encoding="UTF-8"?>
<svg xmlns="http://www.w3.org/2000/svg" version="1.1" viewBox="0 0 595.28 595.28">
  <defs>
    <style>
      .cls-1 {
        fill: #fff;
      }

      .cls-2 {
        fill: #242753;
      }
    </style>
  </defs>
  <!-- Generator: Adobe Illustrator 28.7.2, SVG Export Plug-In . SVG Version: 1.2.0 Build 154)  -->
  <g>
    <g id="Camada_1">
      <g id="iLNoOs.tif">
        <g>
          <path class="cls-2" d="M443.52,419.44c-5.87-3.24-12.17-3.46-18.56-3.13-2.56.13-3.68-.7-4.48-3.12-6.4-19.21-12.93-38.37-19.42-57.55-23.54-69.66-47.09-139.32-70.61-209-3.67-10.88-11.13-17.76-22.27-19.94-5.29-1.03-10.93-.12-16.38-.52-11.09-.83-24.01,7.32-28.29,20.4-21.82,66.59-43.89,133.11-65.87,199.66-7.36,22.29-14.77,44.56-22.06,66.87-.77,2.38-1.81,3.46-4.44,3.2-2.54-.26-5.15-.18-7.71,0-10.9.72-18.95,6.03-23.25,15.97-4.19,9.66-2.71,18.93,3.91,27.31,4.15,5.26,9.92,7.7,16.06,9.58h275.15c1.14-.42,2.27-.87,3.42-1.23,10.18-3.13,17.7-12.12,18.62-22.27,1.01-11.12-4.25-20.93-13.82-26.21ZM247.96,281.48c4.7-15.64,9.44-31.28,14.12-46.93.5-1.66,1.05-2.57,3.11-2.56,21.9.09,43.8.05,65.71.06.44,0,.88.07,1.54.13,5.43,17.46,10.86,34.91,16.36,52.59h-101.64c.3-1.23.5-2.28.81-3.29ZM210.47,390.44c.21-.92.35-1.74.61-2.52,5.3-15.82,10.68-31.62,15.87-47.47.7-2.15,1.7-2.65,3.79-2.65,44.61.05,89.21.05,133.82.04,1.55,0,2.95-.23,3.66,1.88,5.5,16.33,11.13,32.62,16.72,48.93.17.5.21,1.05.35,1.79h-174.82Z"/>
          <path class="cls-1" d="M385.29,390.44h-174.82c.21-.92.35-1.74.61-2.52,5.3-15.82,10.68-31.62,15.87-47.47.7-2.15,1.7-2.65,3.79-2.65,44.61.05,89.21.05,133.82.04,1.55,0,2.95-.23,3.66,1.88,5.5,16.33,11.13,32.62,16.72,48.93.17.5.21,1.05.35,1.79Z"/>
          <path class="cls-1" d="M348.8,284.76h-101.64c.3-1.23.5-2.28.81-3.29,4.7-15.64,9.44-31.28,14.12-46.93.5-1.66,1.05-2.57,3.11-2.56,21.9.09,43.8.05,65.71.06.44,0,.88.07,1.54.13,5.43,17.46,10.86,34.91,16.36,52.59Z"/>
        </g>
      </g>
    </g>
  </g>
</svg>