<svg width="910" height="985" viewBox="0 0 910 985" fill="none" xmlns="http://www.w3.org/2000/svg">
<path d="M637.55 0.450195C652.07 3.9902 666.97 6.4002 681.04 11.2502C783.67 46.6202 837.12 157.25 801.54 259.76C800.4 263.03 799.43 266.36 797.88 271.23C806.6 271.23 814.43 271.1 822.25 271.26C835.28 271.53 843.2 278.54 843.49 289.78C843.79 301.37 835.55 309.42 822.46 309.7C809.33 309.98 796.17 309.33 783.07 310.04C779 310.26 774.32 312.77 771.28 315.66C764.34 322.26 758.53 330.03 751.75 336.82C680.69 408.02 609.55 479.14 538.4 550.25C509.46 579.18 477.33 579.18 448.47 550.33C377.56 479.43 306.64 408.55 235.78 337.6C229.68 331.49 223.27 325.45 218.4 318.41C213.36 311.13 207.44 308.88 199.03 309.65C191.72 310.32 184.3 309.99 176.94 309.72C164.28 309.26 156.35 301.66 156.34 290.37C156.34 279.02 164.22 271.68 176.97 271.26C180.46 271.15 183.96 271.24 188.47 271.24C187.62 268.11 187.14 265.74 186.34 263.49C143.66 143.36 218.44 19.9602 344.76 2.0802C346.26 1.8702 347.66 1.02021 349.11 0.460205C362.57 0.460205 376.03 0.460205 389.49 0.460205C390.92 1.02021 392.32 1.9202 393.8 2.1002C429.27 6.5202 460.99 19.9002 489.22 41.7402C490.65 42.8502 492.32 43.6502 493.88 44.5902C493.57 43.6202 493.26 42.6502 492.96 41.6702C513.15 31.5502 532.84 20.2102 553.69 11.7302C567.99 5.91019 583.9 4.0702 599.09 0.450195C611.91 0.450195 624.73 0.450195 637.55 0.450195ZM466.44 337.98C473.21 318.39 479.38 300.68 485.46 282.94C501.01 237.56 516.51 192.16 532.08 146.79C536.5 133.92 544.99 127.75 555.19 129.93C563.53 131.71 568.02 137.34 570.98 145.11C586.02 184.55 601.4 223.87 616.44 263.32C618.48 268.68 620.82 271.44 627.27 271.39C667.32 271.06 707.37 271.06 747.42 271.39C753.42 271.44 755.91 268.86 758.16 264.17C767.27 245.16 772.71 225.17 773.81 204.16C777.16 139.96 741.97 80.9402 684.59 53.9902C626.25 26.5902 558.64 37.0002 511.19 80.6902C497.26 93.5102 489.8 93.4602 475.82 80.9502C435.03 44.4302 387.65 31.4902 334.17 42.9602C236.88 63.8202 183.88 174.94 228.42 263.82C230.64 268.25 232.63 271.51 238.92 271.42C269.67 270.98 300.44 271.42 331.19 270.94C334.63 270.89 339.47 267.78 341.19 264.71C350.69 247.67 359.57 230.28 368.36 212.85C372.67 204.31 377.96 197.7 388.62 198.06C398.8 198.4 403.63 204.96 407.51 213.31C425.18 251.31 443.06 289.22 460.88 327.14C462.31 330.18 463.93 333.12 466.42 337.98H466.44ZM262.91 309.77C267.03 314.11 269.34 316.65 271.76 319.07C339.7 387.03 407.66 454.98 475.61 522.92C489.69 537 497.11 537.05 511.09 523.08C579.73 454.47 648.36 385.83 716.97 317.19C718.88 315.28 720.58 313.15 723.56 309.78H712.41C680.06 309.78 647.7 309.78 615.35 309.78C595.75 309.78 592.35 307.48 585.44 289.57C575.88 264.81 566.34 240.05 556.73 215.31C555.77 212.84 554.42 210.53 552.46 206.54C549.63 214.61 547.4 220.85 545.26 227.11C526.59 281.55 507.94 336 489.28 390.44C488.87 391.65 488.3 392.81 487.93 394.03C485.21 402.9 479.44 408.42 470.04 408.9C460.65 409.38 454.6 404.39 450.67 395.98C431.18 354.25 411.53 312.6 391.92 270.93C390.51 267.94 388.95 265.03 386.89 260.94C380.5 273.19 374.5 283.77 369.38 294.77C364.25 305.78 356.13 310.1 344.17 309.91C317.96 309.5 291.74 309.78 262.89 309.78L262.91 309.77Z" fill="#131956"/>
<path d="M127.88 670.59C143.45 654.93 157.26 638.25 173.76 624.92C255.9 558.58 373.82 563.71 450.81 635.79C454.8 639.52 460.13 642.58 465.38 644.09C497.97 653.44 530.46 663.36 563.47 670.98C610.34 681.81 635.41 728.44 622.08 769.2C621.72 770.31 621.78 771.57 621.5 774.08C627.82 770.75 633.22 768.12 638.41 765.13C691.38 734.6 744.18 703.77 797.32 673.51C838.28 650.19 887.68 667.35 904.25 710.04C917.74 744.79 903.7 782.17 869.4 802.05C810.96 835.92 752.54 869.82 693.85 903.25C679.43 911.46 664.42 918.94 649 925.02C573.14 954.93 496.14 956.99 418.61 932.06C372.92 917.37 326.31 911.19 278.45 913.92C270.88 914.35 263.15 913.94 259.48 923.27C258.39 926.04 254.31 927.87 251.3 929.61C222.24 946.5 193.15 963.33 164 980.06C149.15 988.59 140.21 986.11 131.52 971.09C89.5399 898.48 47.5899 825.85 5.66994 753.21C-3.06006 738.08 -0.500059 728.71 14.7199 719.9C42.6999 703.7 70.8699 687.82 98.6499 671.28C109.32 664.92 119.18 662.75 127.88 670.57V670.59ZM302.24 874.17C346.25 874.47 388.81 882.31 430.67 895.48C514.02 921.71 594.41 914.26 671.02 871.89C706.02 852.53 740.41 832.06 775.07 812.07C801.13 797.04 827.3 782.17 853.18 766.84C866.27 759.09 872.07 746.97 870.17 731.86C868.42 717.96 860.46 708.34 847.32 703.54C836.08 699.43 825.49 701.51 815.16 707.51C762.85 737.89 710.27 767.82 658.06 798.36C626.16 817.03 592.11 826.16 555.24 823.29C542.2 822.28 529.26 819.73 516.35 817.44C491.78 813.08 467.25 808.46 442.72 803.83C429.1 801.26 422.08 792.32 424.12 780.54C426.02 769.55 435.6 763.83 449.15 765.79C454.21 766.52 459.22 767.65 464.25 768.59C489.41 773.3 514.56 778.08 539.75 782.69C551.54 784.84 562.86 783.69 572.5 775.78C583.76 766.55 589.04 754.66 586.38 740.09C583.53 724.47 574.15 714.22 558.88 709.93C522.23 699.64 485.42 689.93 448.9 679.2C441.33 676.98 433.68 672.5 427.9 667.11C381.64 623.9 327.68 607.81 265.87 621.5C215.81 632.59 179.64 663.33 153.26 706.34C152.08 708.26 152.82 712.39 154.12 714.66C184.22 767.13 214.59 819.45 244.67 871.94C247.33 876.58 250.1 877.94 255.3 877.46C270.92 876.04 286.59 875.2 302.24 874.14V874.17ZM157.59 939.35C178.23 927.42 198.3 915.82 218.79 903.98C181.43 839.29 144.55 775.44 107.29 710.92C86.3999 723.01 66.3999 734.57 46.1199 746.31C83.6599 811.32 120.42 874.98 157.58 939.35H157.59Z" fill="white"/>
</svg>
