<?xml version="1.0" encoding="UTF-8"?>
<svg id="Camada_1" xmlns="http://www.w3.org/2000/svg" viewBox="0 0 1300 1300">
  <defs>
    <style>
      .cls-1 {
        fill: #fff;
      }

      .cls-2 {
        fill: #131956;
      }
    </style>
  </defs>
  <path class="cls-2" d="M832.55,161.45c14.52,3.54,29.42,5.95,43.49,10.8,102.63,35.37,156.08,146,120.5,248.51-1.14,3.27-2.11,6.6-3.66,11.47,8.72,0,16.55-.13,24.37.03,13.03.27,20.95,7.28,21.24,18.52.3,11.59-7.94,19.64-21.03,19.92-13.13.28-26.29-.37-39.39.34-4.07.22-8.75,2.73-11.79,5.62-6.94,6.6-12.75,14.37-19.53,21.16-71.06,71.2-142.2,142.32-213.35,213.43-28.94,28.93-61.07,28.93-89.93.08-70.91-70.9-141.83-141.78-212.69-212.73-6.1-6.11-12.51-12.15-17.38-19.19-5.04-7.28-10.96-9.53-19.37-8.76-7.31.67-14.73.34-22.09.07-12.66-.46-20.59-8.06-20.6-19.35,0-11.35,7.88-18.69,20.63-19.11,3.49-.11,6.99-.02,11.5-.02-.85-3.13-1.33-5.5-2.13-7.75-42.68-120.13,32.1-243.53,158.42-261.41,1.5-.21,2.9-1.06,4.35-1.62,13.46,0,26.92,0,40.38,0,1.43.56,2.83,1.46,4.31,1.64,35.47,4.42,67.19,17.8,95.42,39.64,1.43,1.11,3.1,1.91,4.66,2.85-.31-.97-.62-1.94-.92-2.92,20.19-10.12,39.88-21.46,60.73-29.94,14.3-5.82,30.21-7.66,45.4-11.28,12.82,0,25.64,0,38.46,0ZM661.44,498.98c6.77-19.59,12.94-37.3,19.02-55.04,15.55-45.38,31.05-90.78,46.62-136.15,4.42-12.87,12.91-19.04,23.11-16.86,8.34,1.78,12.83,7.41,15.79,15.18,15.04,39.44,30.42,78.76,45.46,118.21,2.04,5.36,4.38,8.12,10.83,8.07,40.05-.33,80.1-.33,120.15,0,6,.05,8.49-2.53,10.74-7.22,9.11-19.01,14.55-39,15.65-60.01,3.35-64.2-31.84-123.22-89.22-150.17-58.34-27.4-125.95-16.99-173.4,26.7-13.93,12.82-21.39,12.77-35.37.26-40.79-36.52-88.17-49.46-141.65-37.99-97.29,20.86-150.29,131.98-105.75,220.86,2.22,4.43,4.21,7.69,10.5,7.6,30.75-.44,61.52,0,92.27-.48,3.44-.05,8.28-3.16,10-6.23,9.5-17.04,18.38-34.43,27.17-51.86,4.31-8.54,9.6-15.15,20.26-14.79,10.18.34,15.01,6.9,18.89,15.25,17.67,38,35.55,75.91,53.37,113.83,1.43,3.04,3.05,5.98,5.54,10.84ZM457.91,470.77c4.12,4.34,6.43,6.88,8.85,9.3,67.94,67.96,135.9,135.91,203.85,203.85,14.08,14.08,21.5,14.13,35.48.16,68.64-68.61,137.27-137.25,205.88-205.89,1.91-1.91,3.61-4.04,6.59-7.41h-11.15c-32.35,0-64.71,0-97.06,0-19.6,0-23-2.3-29.91-20.21-9.56-24.76-19.1-49.52-28.71-74.26-.96-2.47-2.31-4.78-4.27-8.77-2.83,8.07-5.06,14.31-7.2,20.57-18.67,54.44-37.32,108.89-55.98,163.33-.41,1.21-.98,2.37-1.35,3.59-2.72,8.87-8.49,14.39-17.89,14.87-9.39.48-15.44-4.51-19.37-12.92-19.49-41.73-39.14-83.38-58.75-125.05-1.41-2.99-2.97-5.9-5.03-9.99-6.39,12.25-12.39,22.83-17.51,33.83-5.13,11.01-13.25,15.33-25.21,15.14-26.21-.41-52.43-.13-81.28-.13Z"/>
  <path class="cls-1" d="M322.88,831.59c15.57-15.66,29.38-32.34,45.88-45.67,82.14-66.34,200.06-61.21,277.05,10.87,3.99,3.73,9.32,6.79,14.57,8.3,32.59,9.35,65.08,19.27,98.09,26.89,46.87,10.83,71.94,57.46,58.61,98.22-.36,1.11-.3,2.37-.58,4.88,6.32-3.33,11.72-5.96,16.91-8.95,52.97-30.53,105.77-61.36,158.91-91.62,40.96-23.32,90.36-6.16,106.93,36.53,13.49,34.75-.55,72.13-34.85,92.01-58.44,33.87-116.86,67.77-175.55,101.2-14.42,8.21-29.43,15.69-44.85,21.77-75.86,29.91-152.86,31.97-230.39,7.04-45.69-14.69-92.3-20.87-140.16-18.14-7.57.43-15.3.02-18.97,9.35-1.09,2.77-5.17,4.6-8.18,6.34-29.06,16.89-58.15,33.72-87.3,50.45-14.85,8.53-23.79,6.05-32.48-8.97-41.98-72.61-83.93-145.24-125.85-217.88-8.73-15.13-6.17-24.5,9.05-33.31,27.98-16.2,56.15-32.08,83.93-48.62,10.67-6.36,20.53-8.53,29.23-.71ZM497.24,1035.17c44.01.3,86.57,8.14,128.43,21.31,83.35,26.23,163.74,18.78,240.35-23.59,35-19.36,69.39-39.83,104.05-59.82,26.06-15.03,52.23-29.9,78.11-45.23,13.09-7.75,18.89-19.87,16.99-34.98-1.75-13.9-9.71-23.52-22.85-28.32-11.24-4.11-21.83-2.03-32.16,3.97-52.31,30.38-104.89,60.31-157.1,90.85-31.9,18.67-65.95,27.8-102.82,24.93-13.04-1.01-25.98-3.56-38.89-5.85-24.57-4.36-49.1-8.98-73.63-13.61-13.62-2.57-20.64-11.51-18.6-23.29,1.9-10.99,11.48-16.71,25.03-14.75,5.06.73,10.07,1.86,15.1,2.8,25.16,4.71,50.31,9.49,75.5,14.1,11.79,2.15,23.11,1,32.75-6.91,11.26-9.23,16.54-21.12,13.88-35.69-2.85-15.62-12.23-25.87-27.5-30.16-36.65-10.29-73.46-20-109.98-30.73-7.57-2.22-15.22-6.7-21-12.09-46.26-43.21-100.22-59.3-162.03-45.61-50.06,11.09-86.23,41.83-112.61,84.84-1.18,1.92-.44,6.05.86,8.32,30.1,52.47,60.47,104.79,90.55,157.28,2.66,4.64,5.43,6,10.63,5.52,15.62-1.42,31.29-2.26,46.94-3.32ZM352.59,1100.35c20.64-11.93,40.71-23.53,61.2-35.37-37.36-64.69-74.24-128.54-111.5-193.06-20.89,12.09-40.89,23.65-61.17,35.39,37.54,65.01,74.3,128.67,111.46,193.04Z"/>
</svg>