<svg width="42" height="48" viewBox="0 0 42 48" fill="none" xmlns="http://www.w3.org/2000/svg">
<path d="M40.83 8.28979C38.87 7.87979 36.9399 7.35975 35.0399 6.73975C30.7499 5.33975 26.64 3.56977 22.9 1.00977C22.37 0.649766 21.8999 0.199766 21.2599 0.00976562H21.1599C20.8699 0.0897656 20.59 0.159854 20.33 0.349854C16.91 2.84985 13.1299 4.62979 9.15991 6.03979C6.70991 6.90979 4.21993 7.61967 1.67993 8.15967C0.999932 8.30967 0.81991 8.50968 0.71991 9.16968C0.71991 9.17968 0.669922 9.82983 0.669922 9.82983V10.4998V11.0798V11.5598C0.669922 11.5598 0.669922 11.8499 0.669922 11.8699C0.669922 11.8699 1.06997 17.8298 1.52997 20.7998C2.17997 25.0698 3.24997 29.2297 5.08997 33.1497C8.29997 39.9797 13.36 44.7597 20.58 47.1497C21.03 47.2997 21.44 47.3097 21.89 47.1497C27.23 45.3797 31.5599 42.2596 34.7999 37.6396C37.4199 33.9096 39.03 29.7298 40.08 25.3298C41.33 20.0798 41.7599 14.7399 41.7499 9.35986C41.7499 8.73986 41.4499 8.41979 40.8099 8.27979L40.83 8.28979ZM37.03 28.5598C35.6 32.7998 33.5 36.6498 30.27 39.8098C27.77 42.2598 24.82 43.9799 21.52 45.1199C21.31 45.1899 21.1199 45.1498 20.9199 45.0798C15.2499 43.1598 11.0199 39.5199 8.05994 34.3499C5.88994 30.5599 4.62991 26.4397 3.84991 22.1697C3.24991 18.9197 2.94993 15.6298 2.79993 12.3298C2.79993 11.7498 2.82992 11.1699 2.78992 10.5999C2.75992 10.2299 2.90993 10.1198 3.23993 10.0498C7.02993 9.1998 10.6899 7.96964 14.2199 6.37964C16.5699 5.31964 18.83 4.08986 20.95 2.60986C21.14 2.47986 21.29 2.38981 21.53 2.55981C25.73 5.48981 30.3699 7.46974 35.2399 8.97974C36.6099 9.40974 37.9999 9.77984 39.4099 10.0898C39.6499 10.1398 39.7499 10.2197 39.7399 10.4897C39.6299 16.6297 39.0199 22.7098 37.0399 28.5698L37.03 28.5598Z" fill="white"/>
<path d="M36.5497 13.6997C36.5497 13.9397 36.5198 14.1797 36.5098 14.4197C36.2898 18.0297 35.8397 21.5998 34.9197 25.0998C33.9897 28.6498 32.6298 32.0197 30.4398 34.9997C28.1898 38.0597 25.3097 40.2897 21.7997 41.7297C21.3697 41.9097 20.9997 41.8397 20.5997 41.6797C15.8497 39.7097 12.4297 36.3298 10.0997 31.7898C8.35973 28.3998 7.36974 24.7698 6.73974 21.0298C6.32974 18.6198 6.10973 16.1998 5.97973 13.7698C5.92973 12.7898 6.12975 12.5197 7.05975 12.2597C11.7598 10.9497 16.2298 9.05982 20.4398 6.58982C21.0198 6.24982 21.4998 6.23982 22.0898 6.58982C26.3098 9.06982 30.7898 10.9598 35.5098 12.2698C36.3798 12.5098 36.5897 12.8097 36.5497 13.7197V13.6997Z" fill="#131956"/>
</svg>
