<svg width="100" height="100" viewBox="0 0 100 100" fill="none" xmlns="http://www.w3.org/2000/svg">
<path d="M84.2502 0.550049C84.2502 3.66005 84.2703 6.76988 84.2703 9.87988C84.2703 24.8599 84.2703 39.8401 84.2703 54.8201C84.2703 55.2001 84.2703 55.5699 84.2703 56.1299C83.9103 55.7999 83.6702 55.6099 83.4602 55.3999C80.6702 52.6099 77.8902 49.81 75.0802 47.04C74.6102 46.57 74.4203 46.11 74.4203 45.45C74.4403 34.19 74.4303 22.9299 74.4303 11.6699V10.45H10.4502V89.25H11.6102C27.7802 89.25 43.9402 89.25 60.1102 89.24C60.8402 89.24 61.3602 89.43 61.8802 89.96C64.6202 92.75 67.4003 95.5 70.1703 98.27C70.3903 98.49 70.5903 98.72 70.8903 99.04H0.530273V0.550049H84.2502Z" fill="#131B53"/>
<path d="M99.0702 90.24C98.6202 92.33 97.8702 94.2601 96.3702 95.8601C92.5702 99.9201 86.5103 100.2 82.5403 96.31C76.8703 90.74 71.3002 85.0601 65.5902 79.3401C66.7302 78.2701 67.8902 77.1999 68.9802 76.1799C63.9402 71.1399 59.0502 66.25 54.0902 61.29C48.6202 64.86 42.5302 65.4299 36.1902 63.6899C30.9502 62.2599 26.8702 59.1299 23.7702 54.6799C17.7902 46.0799 19.6602 33.6899 26.7302 26.6799C33.9102 19.5399 46.3002 17.9599 54.8402 23.8999C62.9802 29.5599 68.3702 41.8301 61.0802 54.3701C65.9702 59.2201 70.9002 64.11 75.8702 69.04C77.0202 67.84 78.1002 66.71 79.2302 65.53C79.5902 65.87 79.8502 66.1001 80.0902 66.3401C84.9002 71.1501 89.6602 76 94.5302 80.74C96.7402 82.89 98.6003 85.16 99.0603 88.32V90.24H99.0702ZM54.7202 42.4199C54.7202 35.5299 49.2702 30.0999 42.3702 30.1299C35.4802 30.1499 30.1402 35.4899 30.1002 42.3799C30.0702 49.2699 35.4702 54.72 42.3802 54.74C49.2402 54.77 54.7202 49.2899 54.7202 42.4199Z" fill="#DF6939"/>
</svg>
