<svg width="85" height="84" viewBox="0 0 85 84" fill="none" xmlns="http://www.w3.org/2000/svg">
<path d="M2.5 25.0101C2.77 23.6801 3.14001 22.3901 3.98001 21.2901C5.56001 19.2101 7.69001 18.17 10.29 18.16C17.66 18.14 25.04 18.16 32.41 18.16C33.96 18.16 35.06 19.1902 35.09 20.6102C35.12 22.0402 33.99 23.13 32.4 23.13C25.19 23.14 17.97 23.13 10.76 23.14C10.34 23.14 9.9 23.1501 9.5 23.2501C8.45 23.5001 7.79999 24.1901 7.57999 25.2401C7.51999 25.5001 7.5 25.7701 7.5 26.0301C7.5 42.1001 7.5 58.1701 7.5 74.2401C7.5 76.2001 8.57 77.17 10.66 77.17C21.99 77.17 33.31 77.17 44.64 77.17C49.2 77.17 53.76 77.17 58.33 77.17C60.56 77.17 61.54 76.1901 61.54 73.9801C61.54 66.7901 61.54 59.61 61.54 52.42C61.54 50.91 62.21 49.96 63.43 49.66C64.92 49.3 66.36 50.3202 66.5 51.8502C66.52 52.0302 66.51 52.22 66.51 52.41C66.51 59.68 66.52 66.9401 66.51 74.2101C66.51 77.4701 65.1 79.93 62.15 81.38C61.38 81.76 60.5 81.9 59.67 82.15H9.35999C9.25999 82.11 9.17001 82.0501 9.07001 82.0401C7.10001 81.7701 5.51001 80.8302 4.23001 79.3202C3.25001 78.1502 2.81001 76.7602 2.51001 75.3102V25.0101H2.5Z" fill="#131B53" stroke="#131B53" stroke-width="3.07" stroke-miterlimit="10"/>
<path d="M58.2499 15.6001C57.9599 15.6001 57.6699 15.6001 57.3899 15.6001C52.3499 15.6001 47.3099 15.6001 42.2699 15.6001C39.6499 15.6001 37.4399 14.67 35.8699 12.52C34.2299 10.26 33.9399 7.75997 35.0299 5.21997C36.0899 2.73997 38.0299 1.22005 40.7299 0.800049C41.4099 0.690049 42.0999 0.669922 42.7899 0.669922C53.8799 0.669922 64.9699 0.669922 76.0599 0.669922C79.2799 0.669922 81.7999 1.94992 83.1999 4.91992C83.6899 5.95992 83.9699 7.21011 83.9799 8.36011C84.0399 19.7601 84.0299 31.1701 84.0099 42.5801C84.0099 46.2901 81.8399 49.06 78.2799 50.04C74.2099 51.17 69.5999 48.0301 69.1999 43.8401C69.1199 42.9701 69.0699 42.1 69.0699 41.22C69.0599 36.29 69.0699 31.36 69.0699 26.22C68.7399 26.53 68.5299 26.7199 68.3199 26.9299C58.8299 36.4199 49.3299 45.9099 39.8499 55.3999C37.9299 57.3199 35.6899 58.3101 32.9499 57.8401C30.2299 57.3701 28.2799 55.81 27.2699 53.28C26.2299 50.68 26.5899 48.1799 28.3299 45.9399C28.7199 45.4399 29.1599 44.97 29.6099 44.53C38.9799 35.15 48.3599 25.7699 57.7499 16.3999C57.9499 16.1999 58.1899 16.0301 58.4099 15.8501C58.3599 15.7801 58.3199 15.6999 58.2699 15.6299L58.2499 15.6001ZM59.1999 5.63989C53.6599 5.63989 48.1099 5.63989 42.5699 5.63989C42.1499 5.63989 41.7199 5.65999 41.3099 5.73999C40.2399 5.95999 39.4599 6.91001 39.4299 8.01001C39.3899 9.16001 40.0999 10.19 41.1799 10.47C41.6099 10.58 42.0699 10.5801 42.5199 10.5801C49.5999 10.5801 56.6799 10.5801 63.7699 10.5801C64.1699 10.5801 64.5699 10.5999 64.9599 10.6599C66.1599 10.8399 66.9799 11.81 67.0299 13.01C67.0699 13.98 66.5299 14.64 65.8999 15.27C54.9299 26.24 43.9499 37.2099 32.9799 48.1799C32.7199 48.4399 32.4399 48.7 32.2199 48.99C31.1099 50.46 31.9299 52.5299 33.7399 52.8799C34.8399 53.0899 35.6099 52.5501 36.3299 51.8201C47.3199 40.8301 58.3099 29.8401 69.3099 18.8501C69.6099 18.5501 69.9199 18.25 70.2599 18.01C71.5699 17.12 73.5199 17.8001 73.9499 19.3201C74.0799 19.8001 74.0899 20.3201 74.0899 20.8201C74.0899 27.8701 74.0899 34.93 74.0899 41.98C74.0899 42.35 74.0899 42.7201 74.1399 43.0901C74.2999 44.2901 75.2599 45.1599 76.4599 45.1899C77.7099 45.2299 78.7399 44.42 78.9599 43.2C79.0299 42.84 79.0399 42.4601 79.0399 42.0901C79.0399 30.9801 79.0399 19.87 79.0399 8.75C79.0399 6.47 78.1499 5.59009 75.8499 5.59009C70.3099 5.59009 64.7599 5.59009 59.2199 5.59009L59.1999 5.63989Z" fill="#DF6939"/>
</svg>
