<svg width="100" height="93" viewBox="0 0 100 93" fill="none" xmlns="http://www.w3.org/2000/svg">
<path d="M98.5595 1.21997C99.3995 1.79997 99.6095 2.61011 99.6095 3.61011C99.5895 20.7401 99.5895 37.86 99.5895 54.99C99.5895 56.88 99.1095 57.3601 97.2095 57.3601C75.3395 57.3601 53.4695 57.3601 31.5895 57.3601C31.1795 57.3601 30.7795 57.3601 30.2395 57.3601C30.2395 59.1701 30.2395 60.9099 30.2395 62.6499C30.2395 63.5099 30.2095 64.37 30.2395 65.23C30.2895 66.25 29.9095 67.0201 28.9295 67.3101C27.2395 67.8101 26.8095 68.8501 26.8795 70.5701C27.0295 74.2401 26.9295 77.9301 26.9295 81.6101C26.9295 83.2301 26.3795 83.78 24.7695 83.78C18.5095 83.78 12.2495 83.78 5.9895 83.78C4.3695 83.78 3.81952 83.2301 3.81952 81.6201C3.81952 77.5301 3.78954 73.4301 3.83954 69.3401C3.84954 68.5101 3.5695 68.15 2.8595 67.8C2.0195 67.39 1.28953 66.77 0.519531 66.24C0.519531 61.15 0.519531 56.06 0.519531 50.97C0.599531 50.68 0.679512 50.3801 0.749512 50.0901C1.74951 46.3201 4.10951 43.8701 7.86951 42.8201C8.43951 42.6601 9.03953 42.59 9.70953 42.46C5.99953 39.38 4.43951 35.6 6.05951 31.05C7.84951 26.01 11.7895 24.0799 17.0295 24.3899V23.21C17.0295 16.68 17.0495 10.1501 17.0095 3.62012C17.0095 2.61012 17.2195 1.80998 18.0595 1.22998H98.5595V1.21997ZM20.9095 42.5C22.4195 42.5 23.6495 42.45 24.8795 42.51C26.0495 42.57 27.0895 42.3 28.1495 41.8C31.7595 40.11 35.3895 38.4601 39.0295 36.8501C42.0695 35.5001 45.3795 36.92 46.4495 39.95C47.3395 42.48 46.3295 45.09 43.8495 46.55C39.9395 48.85 36.0195 51.1199 32.0995 53.4099C31.8495 53.5499 31.6195 53.72 31.2595 53.97H96.2495V4.58008H20.4295C20.3895 4.71008 20.3595 4.77009 20.3595 4.84009C20.3595 11.5801 20.3395 18.3201 20.3795 25.0701C20.3795 25.4101 20.7195 25.8501 21.0195 26.0801C23.7895 28.1101 25.2795 30.82 25.2895 34.25C25.2995 37.61 23.8095 40.26 20.9295 42.49L20.9095 42.5ZM23.6295 80.4299C23.6295 76.5399 23.7595 72.75 23.5795 68.98C23.4795 66.9 24.0795 65.6 26.0895 65.04C26.8395 64.83 26.9495 64.3299 26.9395 63.6399C26.9095 60.4399 26.9495 57.24 26.9095 54.04C26.8995 53.03 27.2695 52.3601 28.1495 51.8601C30.3295 50.6201 32.4895 49.3401 34.6595 48.0801C37.2095 46.5901 39.7695 45.1001 42.3095 43.6101C43.1295 43.1301 43.5395 42.4 43.4095 41.45C43.2795 40.56 42.7495 39.88 41.8595 39.74C41.2895 39.65 40.6195 39.77 40.0895 40.01C36.2295 41.72 32.3995 43.51 28.5295 45.21C27.7395 45.56 26.8295 45.77 25.9695 45.78C20.8095 45.83 15.6495 45.8001 10.4895 45.8101C6.5495 45.8101 3.82951 48.55 3.80951 52.51C3.79951 55.88 3.88953 59.2601 3.76953 62.6201C3.70953 64.1301 4.06953 65.07 5.57953 65.5C6.76953 65.84 7.14952 66.72 7.12952 67.96C7.06952 71.74 7.1095 75.5301 7.1095 79.3101C7.1095 79.6801 7.1095 80.0399 7.1095 80.4399H23.6195L23.6295 80.4299ZM15.3595 27.6399C11.7095 27.6399 8.74953 30.64 8.76953 34.28C8.78953 37.93 11.7795 40.8701 15.4395 40.8401C19.0295 40.8201 21.9695 37.85 21.9695 34.24C21.9695 30.59 18.9995 27.6199 15.3495 27.6299L15.3595 27.6399Z" fill="#131B53" stroke="#131B53" stroke-width="0.63" stroke-miterlimit="10"/>
<path d="M53.1495 75.7801C55.4095 76.3401 57.3495 77.3101 58.9995 78.8201C62.4395 81.9701 63.5594 85.98 63.2294 90.49C63.1694 91.39 62.5794 91.9 61.6694 92C61.3994 92.03 61.1194 92.01 60.8494 92.01C51.4294 92.01 42.0095 92.01 32.5895 92.01C30.6995 92.01 30.2794 91.5299 30.2194 89.6299C30.0594 84.5799 31.8195 80.4699 36.0895 77.6399C37.3295 76.8199 38.7794 76.3101 40.2194 75.6201C38.5794 73.3401 37.9595 70.7001 38.9495 67.8201C39.5795 66.0001 40.7294 64.5801 42.3594 63.5501C45.6094 61.4901 49.8695 61.99 52.5895 64.72C55.5195 67.66 55.7495 71.6101 53.1395 75.7801H53.1495ZM59.9094 88.6699C60.1194 84.0299 56.7295 79.6201 52.1895 79.0501C49.1395 78.6701 46.0195 78.8201 42.9295 78.8201C40.7695 78.8201 38.8095 79.5499 37.1295 80.9199C34.7095 82.9099 33.5194 85.4799 33.5494 88.6699H59.8995H59.9094ZM46.7695 75.49C49.4695 75.48 51.6795 73.2701 51.6995 70.5701C51.7095 67.8301 49.4794 65.5901 46.7294 65.5901C44.0494 65.5901 41.8095 67.82 41.8095 70.51C41.8095 73.26 44.0395 75.5 46.7795 75.49H46.7695Z" fill="#EE6126"/>
<path d="M89.6295 75.5401C91.2695 76.4101 92.9895 77.0699 94.4195 78.1299C98.5495 81.1899 99.9095 85.52 99.5595 90.48C99.4995 91.38 98.9095 91.89 97.9995 91.99C97.7295 92.02 97.4495 92 97.1795 92C87.7595 92 78.3395 92 68.9195 92C67.0295 92 66.6095 91.5202 66.5495 89.6202C66.3895 84.5702 68.1495 80.4599 72.4195 77.6299C73.6595 76.8099 75.1095 76.3002 76.5495 75.6102C74.9095 73.3302 74.2895 70.6901 75.2795 67.8101C75.9095 65.9901 77.0595 64.5701 78.6895 63.5401C81.9395 61.4801 86.1995 61.98 88.9195 64.72C91.8495 67.67 92.0795 71.6301 89.6195 75.5301L89.6295 75.5401ZM69.9195 88.6299H96.2395C96.4395 84.1099 93.1595 79.6201 88.7195 79.1001C85.0695 78.6701 81.2895 78.6601 77.6295 79.0701C73.0195 79.5901 69.6795 84.0499 69.9195 88.6299ZM78.1295 70.46C78.1095 73.21 80.3195 75.47 83.0495 75.49C85.7495 75.5 87.9895 73.3102 88.0195 70.6202C88.0595 67.8802 85.8495 65.6201 83.0995 65.6001C80.4095 65.5801 78.1495 67.79 78.1295 70.47V70.46Z" fill="#EE6126"/>
<path d="M50.0996 25.9099V22.74H92.9396V25.9099H50.0996Z" fill="#EE6126"/>
<path d="M92.9294 34.3101V37.49H50.1294V34.3101H92.9294Z" fill="#EE6126"/>
<path d="M50.0996 49.03V45.8501H92.8997V49.03H50.0996Z" fill="#EE6126"/>
<path d="M63.3096 16V12.8301H92.9396V16H63.3096Z" fill="#EE6126"/>
</svg>
