<svg width="138" height="138" viewBox="0 0 138 138" fill="none" xmlns="http://www.w3.org/2000/svg">
<path d="M137.59 70.4C136.8 72.32 136.3 74.42 135.17 76.11C132.74 79.72 129.03 81.08 124.77 81.08C110.8 81.08 96.8298 81.08 82.8598 81.08H81.0398C81.0398 81.65 81.0398 82.16 81.0398 82.67C81.0398 96.73 81.0498 110.78 81.0398 124.84C81.0398 130.06 78.8698 134.03 74.1298 136.44C67.1098 140.01 57.9898 135.03 57.2198 127.21C57.0898 125.93 57.0198 124.63 57.0198 123.34C57.0098 109.82 57.0198 96.3 57.0198 82.78V81.08C56.3598 81.08 55.8298 81.08 55.3098 81.08C41.3398 81.08 27.3698 81.08 13.3998 81.08C10.1298 81.08 7.16983 80.26 4.61983 78.09C1.17983 75.17 -0.34017 70.1 0.99983 65.71C2.43983 61 6.32983 57.68 10.9898 57.24C12.2298 57.12 13.4798 57.05 14.7298 57.05C28.2498 57.04 41.7798 57.05 55.2998 57.05H57.0198C57.0198 56.4 57.0198 55.88 57.0198 55.36C57.0198 41.39 57.0198 27.43 57.0198 13.46C57.0198 10.3 57.7398 7.38 59.8298 4.89C61.7498 2.62 64.1498 1.22 67.0798 0.72C67.2898 0.68 67.4898 0.58 67.6998 0.51C68.5798 0.5 69.4698 0.5 70.3598 0.5C70.5698 0.57 70.7698 0.68 70.9798 0.71C73.9098 1.21 76.3098 2.6 78.2298 4.88C80.3298 7.36 81.0398 10.28 81.0498 13.44C81.0498 27.45 81.0498 41.45 81.0498 55.46V57.04C81.8098 57.04 82.3498 57.04 82.8798 57.04C96.8398 57.04 110.81 57.04 124.77 57.04C129.03 57.04 132.74 58.4 135.17 62.01C136.3 63.69 136.81 65.8 137.6 67.71V70.39L137.59 70.4Z" fill="#131B53"/>
</svg>
