<svg width="127" height="29" viewBox="0 0 127 29" fill="none" xmlns="http://www.w3.org/2000/svg">
<path d="M0.5 16.27C0.5 15.13 0.5 14 0.5 12.86C1.1 11.15 1.46 9.3 2.34 7.75C5.18 2.75 9.69 0.5 15.42 0.5C47.31 0.5 79.21 0.5 111.1 0.5C111.35 0.5 111.59 0.5 111.84 0.5C118.7 0.71 124.02 4.9 125.64 11.34C127.14 17.33 124.4 23.74 118.78 26.74C116.96 27.71 114.8 28.05 112.79 28.68H13.74C13.47 28.61 13.2 28.51 12.92 28.47C7.71 27.74 3.98 24.98 1.77 20.28C1.17 19.03 0.91 17.61 0.5 16.27Z" fill="#131B53"/>
</svg>
