<svg width="44" height="55" viewBox="0 0 44 55" fill="none" xmlns="http://www.w3.org/2000/svg">
<path d="M13.2599 54.0299C13.11 53.8599 12.8799 53.8899 12.6899 53.8199C11.2399 53.3199 10.4599 52.0499 10.7299 50.5499C11.6899 45.2199 12.6399 39.8999 13.6299 34.5799C14.1899 31.6099 14.53 28.5999 14.91 25.6099C14.97 25.1099 14.9399 24.5999 14.9399 24.0899C14.9399 23.0899 14.48 22.3799 13.52 22.0499C12.65 21.7499 11.7599 21.4699 10.8799 21.1999C8.48994 20.4499 6.07989 19.7299 3.69989 18.9599C2.78989 18.6599 1.90996 18.2799 1.14996 17.6699C-0.570035 16.2899 -0.150074 13.1699 1.85993 12.2599C2.44993 11.9899 3.04996 12.0299 3.64996 12.2099C8.07996 13.5599 12.59 14.5399 17.18 15.1799C20.81 15.6899 24.43 15.5299 28.04 14.9599C32.13 14.3099 36.1499 13.3599 40.1199 12.2099C41.7499 11.7399 43.1599 12.7199 43.5799 14.5799C43.6099 14.6899 43.5499 14.8299 43.6899 14.8999V16.0499C43.5599 17.2399 42.72 17.8399 41.79 18.3699C40.59 19.0399 39.2599 19.3799 37.9799 19.8299C35.5899 20.6699 33.19 21.4799 30.81 22.3499C29.01 23.0099 28.6899 23.3699 28.8799 25.4799C29.2799 29.8299 30.0599 34.1299 30.8799 38.4299C31.6499 42.4099 32.3799 46.3999 33.0999 50.3899C33.3699 51.8899 32.8499 52.9899 31.6099 53.7299C31.1799 53.9899 30.7 53.9299 30.26 54.0399H28.9C27.6 53.8499 26.9199 52.9899 26.4999 51.8399C26.2299 51.1099 26.0999 50.3599 25.9499 49.5999C25.1199 45.2399 24.2299 40.8899 22.9499 36.6299C22.7599 35.9899 22.5399 35.3599 22.1999 34.7899C21.9299 34.3499 21.6999 34.3499 21.4399 34.7899C20.9799 35.5699 20.75 36.4399 20.51 37.2899C19.4799 40.8699 18.75 44.5299 18.03 48.1799C17.83 49.2099 17.68 50.2499 17.42 51.2699C17.35 51.5599 17.2499 51.8399 17.1299 52.1099C16.6499 53.2099 15.91 53.9699 14.64 54.0399H13.28L13.2599 54.0299Z" fill="#131B53"/>
<path d="M21.89 0.299833C25.12 0.309833 27.74 2.94985 27.74 6.18985C27.74 9.43985 25.0699 12.0798 21.8199 12.0498C18.5999 12.0198 15.98 9.36986 16 6.13986C16.02 2.91986 18.67 0.289833 21.9 0.299833H21.89Z" fill="#131B53"/>
</svg>
