<svg width="108" height="112" viewBox="0 0 108 112" fill="none" xmlns="http://www.w3.org/2000/svg">
<path d="M28.78 25.0698C29.48 29.3698 30.15 33.4898 30.87 37.9098C31.79 37.9098 32.63 37.9098 33.47 37.9098C42.09 37.9098 50.71 37.8798 59.33 37.9298C62.65 37.9498 65.03 40.0598 65.43 43.0998C65.81 45.9798 64.12 48.7298 61.34 49.5298C60.37 49.8098 59.31 49.8098 58.29 49.8098C50.78 49.8298 43.27 49.8198 35.75 49.8198C34.89 49.8198 34.04 49.8198 33.2 49.8198C32.88 53.3298 32.99 53.4498 36.06 53.4698C47.29 53.5298 58.52 53.6498 69.75 53.6098C73.38 53.5998 75.66 55.0498 77.07 58.4098C80.66 67.0098 84.41 75.5498 88.1 84.1098C88.47 84.9698 88.88 85.8098 89.35 86.8098C92.64 85.6498 95.82 84.5098 99.02 83.3998C102.9 82.0598 106.28 83.4298 107.42 86.7698C108.57 90.1498 106.83 93.2598 102.95 94.6598C98.27 96.3498 93.57 97.9998 88.87 99.6398C84.64 101.12 81.92 99.9198 80.12 95.7498C76.07 86.3998 72.02 77.0398 68.07 67.6498C67.38 66.0098 66.51 65.4798 64.73 65.4798C53.03 65.4998 41.32 65.4098 29.62 65.3398C24.86 65.3098 22.92 63.6198 22.16 58.8998C19.81 44.3898 17.44 29.8798 15.1 15.3598C13.96 8.45977 17.81 2.36977 24.23 0.839767C30.56 -0.670233 36.88 2.89977 38.84 9.09977C40.84 15.4198 37.4 22.2098 31.09 24.3798C30.42 24.6098 29.74 24.7798 28.78 25.0698Z" fill="#131B53"/>
<path d="M35.7802 111.13C22.2902 110.48 10.8002 103.75 4.3002 90.0196C-2.1898 76.2796 -0.249804 63.0896 9.1502 51.1396C10.2302 49.7696 12.0502 48.6896 13.7402 48.1396C15.9802 47.4196 18.5402 48.8996 19.6902 51.0496C20.9802 53.4696 20.7302 55.8096 18.9602 57.8796C15.8102 61.5696 13.7002 65.7296 12.9502 70.5496C11.0702 82.6996 18.1702 94.2996 29.7702 97.9996C41.5102 101.75 54.1102 96.3896 59.5902 85.3296C59.8702 84.7596 60.1202 84.1796 60.4202 83.6296C62.0102 80.7196 65.1702 79.5596 68.0802 80.7996C71.0502 82.0696 72.7602 85.5396 71.1802 88.4696C69.0202 92.4596 66.7102 96.5396 63.6602 99.8496C56.6902 107.42 47.7202 110.96 35.7802 111.13Z" fill="#131B53"/>
</svg>
