<svg width="50" height="62" viewBox="0 0 50 62" fill="none" xmlns="http://www.w3.org/2000/svg">
<path d="M49.68 45.0801V45.2002C49.18 47.4302 48.11 49.4199 47.02 51.3799C45.66 53.7999 44.08 56.0699 42.25 58.1499C40.96 59.6099 39.44 60.7698 37.41 61.0298C37.18 61.0598 36.93 60.9699 36.72 61.1099H35.54C33.74 61.0599 32.11 60.37 30.48 59.71C27.5 58.51 24.55 58.6101 21.59 59.7901C20.94 60.0601 20.27 60.2901 19.61 60.5401C18.78 60.8601 17.92 61.0099 17.05 61.1099H15.28C13.48 60.9399 12.11 59.92 10.87 58.73C8.51 56.45 6.67 53.7602 5.07 50.9102C2.51 46.3602 0.920004 41.4898 0.480004 36.2998C0.160004 32.5298 0.259999 28.76 1.81 25.19C3.23 21.94 5.23 19.1899 8.33 17.3599C10.7 15.9699 13.23 15.1701 16.02 15.3501C17.82 15.4701 19.52 16.0199 21.2 16.6499C22 16.9499 22.8 17.2899 23.61 17.5899C24.87 18.0699 26.09 18 27.33 17.5C29.19 16.75 31.05 15.9701 33.02 15.5801C37.96 14.5901 42.4 15.6402 46.24 18.9702C46.85 19.4902 47.39 20.0998 47.83 20.7798C48.17 21.2998 48.15 21.4899 47.63 21.8399C46.55 22.5699 45.59 23.4302 44.71 24.3902C42.99 26.2802 42.09 28.4998 41.81 31.0098C41.57 33.1398 41.81 35.2 42.46 37.23C43.28 39.78 44.88 41.7801 47.04 43.3301C47.71 43.8201 48.42 44.2302 49.14 44.6402C49.35 44.7502 49.56 44.8601 49.68 45.0801Z" fill="white"/>
<path d="M37.1 2.22025C37.04 5.94025 35.44 8.9701 32.88 11.5601C31.57 12.8701 30.09 13.8899 28.27 14.3799C27.31 14.6399 26.35 14.7 25.36 14.69C25.01 14.69 24.96 14.57 24.95 14.25C24.84 11.14 25.8 8.39 27.71 5.96C29.95 3.09 32.93 1.47984 36.47 0.799844C36.94 0.709844 37.16 0.809883 37.1 1.33988C37.07 1.62988 37.1 1.92025 37.1 2.22025Z" fill="white"/>
</svg>
