<svg width="77" height="95" viewBox="0 0 77 95" fill="none" xmlns="http://www.w3.org/2000/svg">
<path d="M1.7403 7.83997C1.7403 7.55997 1.89031 7.23 1.57031 7C1.74031 7.32 1.66028 7.64998 1.66028 7.97998V87.29C1.66028 87.62 1.74031 87.96 1.57031 88.27C1.89031 88.05 1.7403 87.7199 1.7403 87.4399C1.7503 60.8999 1.7503 34.37 1.7403 7.83997Z" fill="#EE6126"/>
<path d="M74.0403 11.1195C71.2503 8.32951 68.4803 5.52952 65.6703 2.75952C64.7203 1.81952 63.5703 1.30957 62.1903 1.30957C43.9403 1.31957 25.6803 1.31957 7.42029 1.30957C5.70029 1.30957 4.28033 1.91957 3.09033 3.17957C2.21033 4.10957 1.77031 5.21947 1.57031 6.45947V6.99951C1.89031 7.22951 1.7403 7.55948 1.7403 7.83948C1.7503 34.3695 1.7503 60.8995 1.7403 87.4395C1.7403 87.7195 1.89031 88.0495 1.57031 88.2695V88.8096C2.14031 91.6096 3.7203 93.3995 6.6203 93.8695H70.3503C71.5203 93.7295 72.6103 93.4395 73.5403 92.6095C75.0503 91.2395 75.6803 89.5696 75.6803 87.5596C75.6603 63.4596 75.6603 39.3595 75.6803 15.2595C75.6803 13.6195 75.1803 12.2695 74.0403 11.1195ZM64.7803 6.86951C66.5603 8.64951 68.3003 10.3995 70.0103 12.1095C66.9203 12.4995 64.2603 12.2295 64.7803 6.86951ZM72.4803 20.9095V87.1595C72.4803 89.1095 71.6603 90.3095 70.0603 90.6895C69.7103 90.7795 69.3503 90.7896 68.9903 90.7896H8.17029C5.91029 90.7896 4.67029 89.5495 4.67029 87.2695V8.27954C4.67029 5.60954 5.79031 4.47949 8.44031 4.47949C25.8503 4.47949 43.2703 4.48947 60.6803 4.45947C61.4903 4.45947 61.7503 4.63949 61.7003 5.47949C61.6203 6.66949 61.6703 7.87948 61.6803 9.08948C61.7303 12.5295 64.3303 15.1795 67.7803 15.2795C69.1403 15.3195 70.4903 15.3095 71.8403 15.2795C72.3703 15.2595 72.5003 15.4495 72.4903 15.9395C72.4603 17.5995 72.4803 19.2495 72.4803 20.9095Z" fill="#EE6126" stroke="#EE6126" stroke-width="2" stroke-miterlimit="10"/>
<path d="M33.8212 16.9393C32.9412 16.0693 31.7311 16.1494 30.7311 17.1494C30.1511 17.7394 29.5711 18.3393 28.9911 18.9493L28.4512 19.5094C27.3312 18.3494 25.8911 17.8093 24.0611 17.8493C22.2711 17.8893 20.4612 17.8794 18.7012 17.8794C17.7212 17.8694 16.7512 17.8693 15.7712 17.8693C12.4912 17.8793 10.3612 19.9994 10.3412 23.2594C10.3212 26.1394 10.3212 29.0294 10.3412 31.9194C10.3612 35.1994 12.4911 37.3193 15.7511 37.3293C17.1911 37.3393 18.6312 37.3393 20.0812 37.3393C21.5312 37.3393 22.9612 37.3393 24.4012 37.3293C27.6912 37.3193 29.8312 35.1693 29.8412 31.8593V31.6893C29.8412 29.2293 29.8612 26.7494 29.8312 24.2894C29.8312 23.9194 29.9211 23.6993 30.1711 23.4693C31.3411 22.3393 32.4811 21.1794 33.6311 20.0194C34.6011 19.0294 34.6812 17.7893 33.8212 16.9393ZM25.3412 22.5693C24.1812 23.6393 23.0311 24.7993 21.8011 26.0993C21.7011 26.2193 21.6312 26.2594 21.6312 26.2794C21.6012 26.2594 21.5411 26.2093 21.4411 26.0993C20.9511 25.5193 20.4111 25.0094 20.0011 24.6394C19.0911 23.8194 17.9311 23.8294 17.1211 24.6494C16.3411 25.4494 16.3512 26.7194 17.1512 27.5394C18.1312 28.5594 19.1411 29.5694 20.1611 30.5494C21.0711 31.4194 22.1912 31.4094 23.0912 30.5494C23.6212 30.0494 24.1312 29.5394 24.6412 29.0294L25.7511 27.9194C25.7511 28.1494 25.7511 28.3693 25.7511 28.5993C25.7511 29.8393 25.7511 31.0694 25.7311 32.3094C25.7111 32.8994 25.3211 33.2494 24.6811 33.2494C21.6111 33.2694 18.5411 33.2694 15.4811 33.2494C15.1011 33.2494 14.4612 33.1294 14.4512 32.2994C14.4112 29.3394 14.4111 26.1793 14.4411 22.9393C14.4511 22.2993 14.8311 21.9693 15.5511 21.9593C18.5611 21.9493 21.5712 21.9593 24.5712 21.9493C24.8812 21.9493 25.0811 21.9993 25.2311 22.1093C25.4711 22.2793 25.5112 22.3393 25.5212 22.3393C25.5212 22.3393 25.5012 22.4093 25.3312 22.5793L25.3412 22.5693Z" fill="#131956"/>
<path d="M29.8397 44.7394C29.8097 41.6394 27.6497 39.4594 24.5997 39.4294C21.5897 39.3894 18.5497 39.3894 15.5597 39.4294C12.5497 39.4594 10.4097 41.5793 10.3497 44.5793C10.2897 47.6493 10.2897 50.7494 10.3497 53.7994C10.4197 56.7894 12.5697 58.8994 15.5897 58.9294C17.3397 58.9494 18.9397 58.9593 20.4297 58.9593C21.9197 58.9593 23.2897 58.9494 24.6197 58.9294C27.5997 58.8994 29.7997 56.6893 29.8397 53.6893C29.8597 52.5593 29.8397 51.4393 29.8397 50.3193V48.0294C29.8397 46.9294 29.8497 45.8294 29.8397 44.7394ZM25.7697 49.1694C25.7697 50.5694 25.7697 51.9694 25.7697 53.3694C25.7697 54.5094 25.4397 54.8393 24.3097 54.8493C23.2397 54.8693 22.1497 54.8593 21.0697 54.8593H19.9897C18.6397 54.8593 17.2897 54.8593 15.9297 54.8493C14.7697 54.8493 14.4397 54.5294 14.4397 53.4194C14.4397 50.5894 14.4397 47.7693 14.4397 44.9393C14.4397 43.8293 14.7497 43.5094 15.8397 43.4994C17.2497 43.4994 18.6597 43.4894 20.0797 43.4894C21.4997 43.4894 22.8997 43.4994 24.3097 43.4994C25.4597 43.5094 25.7697 43.8293 25.7697 44.9793C25.7697 46.3793 25.7697 47.7694 25.7697 49.1694Z" fill="#131956"/>
<path d="M29.8308 66.1198C29.7908 63.1998 27.6208 61.0498 24.6808 61.0298C21.8108 60.9998 18.8308 60.9998 15.5608 61.0198C12.5708 61.0398 10.4408 63.1197 10.3608 66.0697C10.2808 69.1797 10.2808 72.3498 10.3608 75.4798C10.4508 78.3898 12.6008 80.4498 15.5908 80.4798C16.5808 80.4898 17.5708 80.4898 18.5508 80.4898H20.0208H21.5508H23.0908C23.6008 80.4898 24.1108 80.4898 24.6308 80.4798C27.6008 80.4498 29.8008 78.2797 29.8408 75.3397C29.8808 71.6397 29.8708 68.7998 29.8308 66.1198ZM25.7608 66.3098C25.7808 69.2598 25.7808 72.2098 25.7608 75.1498C25.7608 76.0498 25.3908 76.3998 24.4608 76.3998C21.5408 76.4098 18.6308 76.4098 15.7108 76.3998C14.7708 76.3998 14.4408 76.0698 14.4308 75.1398C14.4108 72.1998 14.4108 69.2498 14.4308 66.3098C14.4408 65.4398 14.7808 65.1098 15.6808 65.0998H21.5708C22.5508 65.0998 23.5308 65.0898 24.5108 65.0998C25.3908 65.1098 25.7508 65.4598 25.7608 66.3098Z" fill="#131956"/>
<path d="M66.801 22.9792C66.801 23.9692 66.0611 24.8292 65.0911 24.9792C64.8611 25.0192 64.631 25.0193 64.411 25.0193H38.911C38.911 25.0193 38.801 25.0293 38.751 25.0293C38.691 25.0293 38.631 25.0193 38.571 25.0193C37.371 24.9393 36.541 24.0992 36.541 22.9792C36.541 21.8592 37.4011 20.9992 38.5811 20.9492C39.1211 20.9292 39.6711 20.9292 40.2111 20.9392H64.2711C64.5111 20.9392 64.741 20.9392 64.981 20.9592C66.021 21.0792 66.801 21.9492 66.801 22.9792Z" fill="#131956"/>
<path d="M66.681 66.7899C66.431 67.4899 65.8411 67.9999 65.0911 68.1399H65.0811C64.9211 68.1699 64.7511 68.1799 64.5911 68.1799C64.5211 68.1799 64.451 68.1699 64.381 68.1699H39.001C38.881 68.1799 38.7611 68.1799 38.6511 68.1699C37.4111 68.1199 36.541 67.2799 36.541 66.1299C36.541 64.9799 37.421 64.1099 38.681 64.0999C39.731 64.0899 40.771 64.0899 41.821 64.0999H51.671C55.911 64.0999 60.141 64.0998 64.381 64.0898C65.071 64.0898 65.781 64.1798 66.311 64.8198C66.781 65.3698 66.921 66.1099 66.681 66.7899Z" fill="#131956"/>
<path d="M66.7807 44.58C66.7707 45.61 66.1606 46.33 65.1606 46.52C64.8006 46.59 64.4307 46.59 64.0807 46.59H39.2707C38.9207 46.59 38.5507 46.59 38.1907 46.52C37.2407 46.36 36.6407 45.7 36.5607 44.71C36.4907 43.67 37.0407 42.89 38.0107 42.63C38.4107 42.51 38.8407 42.5 39.2107 42.5H64.1206C64.5906 42.5 64.9706 42.54 65.3006 42.61C66.2506 42.86 66.7907 43.59 66.7807 44.58Z" fill="#131956"/>
<path d="M56.0204 52.269C56.0204 53.499 55.0604 54.2891 53.5904 54.2891H38.9004C37.4804 54.2791 36.5803 53.5191 36.5503 52.2991C36.5303 51.7491 36.7103 51.259 37.0603 50.889C37.4803 50.449 38.1303 50.219 38.9203 50.209H53.6103C54.4003 50.209 55.0403 50.439 55.4803 50.879C55.8403 51.249 56.0304 51.729 56.0204 52.269Z" fill="#131956"/>
<path d="M56.0208 30.6497C56.0508 31.8497 55.1308 32.6897 53.7408 32.7397C53.6208 32.7497 53.4908 32.7497 53.3508 32.7397H43.8708C43.0808 32.7397 42.2908 32.7497 41.5008 32.7497C40.7108 32.7497 39.9208 32.7397 39.1308 32.7397C38.7408 32.7297 38.3208 32.7196 37.9108 32.5896C36.9308 32.2496 36.4508 31.4696 36.5708 30.4396C36.6908 29.4596 37.3408 28.8096 38.3008 28.6996C38.7208 28.6496 39.1608 28.6597 39.5708 28.6597H44.5008C47.5808 28.6597 50.6608 28.6497 53.7508 28.6597C55.0808 28.6597 55.9908 29.4597 56.0208 30.6497Z" fill="#131956"/>
<path d="M56.0208 73.7798C56.0608 74.8698 55.2308 75.7498 54.0508 75.8698C53.8208 75.8898 53.5908 75.8998 53.3508 75.8898H39.8508C39.5108 75.8898 39.1808 75.8898 38.8508 75.8798C37.4608 75.8598 36.5508 75.0497 36.5508 73.8297C36.5508 72.6097 37.4608 71.8098 38.8808 71.7998C40.5208 71.7998 42.1608 71.7998 43.8008 71.7998H50.6408C51.7308 71.7998 52.8308 71.7998 53.9308 71.8098C55.1308 71.8198 55.9908 72.6298 56.0208 73.7798Z" fill="#131956"/>
</svg>
