<svg width="114" height="114" viewBox="0 0 114 114" fill="none" xmlns="http://www.w3.org/2000/svg">
<path d="M60.8198 113.97H53.7298C53.4498 113.91 53.1698 113.81 52.8798 113.79C41.5398 112.89 31.2098 109.14 22.4198 101.93C4.15977 86.9298 -2.99023 67.5498 2.09977 44.4998C9.07977 12.8698 40.9098 -5.87019 72.2198 2.4898C93.2298 8.09981 109.6 26.0798 113.13 47.4598C113.47 49.5298 113.71 51.6198 113.99 53.6898V60.7798C113.93 61.0698 113.83 61.3498 113.81 61.6398C112.81 74.0698 108.26 85.0398 100.08 94.4298C91.2798 104.52 80.2398 110.77 67.0398 113.11C64.9798 113.48 62.8898 113.69 60.8098 113.97H60.8198ZM61.7498 104.85C85.3098 102.91 106.39 82.3098 105.06 54.9198C103.73 27.5598 81.2798 10.8098 61.7498 9.69981V104.85Z" fill="#131B53"/>
</svg>
