<svg width="89" height="96" viewBox="0 0 89 96" fill="none" xmlns="http://www.w3.org/2000/svg">
<path d="M20.9885 0.369385C21.2785 0.539385 21.6285 0.519375 21.9385 0.609375C24.1485 1.21938 25.6486 2.65942 26.6486 4.65942C27.9286 7.24942 28.8286 9.97938 29.6386 12.7394C30.4086 15.3594 31.0586 18.0194 31.5386 20.7094C31.7486 21.8794 31.7485 23.0594 31.4385 24.2294C30.9185 26.1794 29.5286 27.3593 27.8786 28.3193C25.7586 29.5493 23.4385 30.3194 21.2085 31.2994C20.5985 31.5694 19.9886 31.8093 19.3786 32.0693C18.1686 32.5793 17.7086 33.5893 18.1286 34.8293C20.3086 41.3393 23.2585 47.4894 26.8385 53.3394C31.2485 60.5494 36.4586 67.1094 42.6286 72.9094C43.9086 74.1094 45.0886 74.0194 46.1786 72.6494C47.8486 70.5494 49.6085 68.5494 51.8185 66.9894C53.3685 65.8994 55.0185 65.0994 56.9785 65.1194C57.9685 65.1194 58.9186 65.3294 59.7586 65.8394C64.9886 69.0294 69.7885 72.7394 73.7385 77.4694C74.6685 78.5794 75.3785 79.8394 75.7285 81.2594C76.1485 82.9294 75.8486 84.5094 75.0386 85.9994C73.8786 88.1594 72.1785 89.8394 70.2085 91.2394C65.0885 94.8894 59.3986 96.2894 53.1586 95.4094C48.5286 94.7594 44.3886 92.8494 40.4186 90.4694C30.6286 84.6194 22.7686 76.7494 16.2786 67.4294C11.7586 60.9394 7.96852 54.0694 5.21852 46.6394C3.34852 41.5894 1.9685 36.4093 1.1985 31.0793C0.7585 28.0293 0.50851 24.9494 0.70851 21.8694C1.11851 15.4494 3.77861 10.1093 8.55861 5.81934C10.9286 3.68934 13.5885 2.02936 16.6085 0.96936C17.3785 0.69936 18.1985 0.609375 18.9685 0.359375H21.0086L20.9885 0.369385Z" fill="#EE6126"/>
<path d="M88.4876 43.3591C88.2676 43.5991 88.4277 43.8792 88.4077 44.1392V45.4092C88.4077 45.5692 88.4077 45.7292 88.4077 45.8992C88.3077 48.3592 88.0477 50.7991 87.5277 53.2191C87.0977 55.2491 85.3776 56.6791 83.3676 56.6891C81.2976 56.6991 79.5576 55.3092 79.1076 53.2692C78.9476 52.5392 79.0476 51.8191 79.1876 51.0991C80.9576 41.5191 79.0977 32.6791 73.5377 24.6891C68.3277 17.1891 61.1576 12.5191 52.2176 10.5891C50.0876 10.1191 48.5976 8.21915 48.7376 6.12915C48.8876 3.89915 50.5876 2.1792 52.8176 2.0592C53.9476 1.9992 55.0176 2.36917 56.0976 2.65917C71.1676 6.67917 82.6876 18.0691 86.8776 33.0691C87.7676 36.2591 88.2576 39.5191 88.3976 42.8291C88.4076 42.9491 88.3176 43.0992 88.4976 43.1692V43.3591H88.4876Z" fill="#131956"/>
<path d="M88.4389 45.4294C88.4289 45.5894 88.4689 45.7394 88.3989 45.8994C88.3989 45.7294 88.3989 45.5694 88.3989 45.4094V44.1394C88.4189 43.8794 88.2589 43.5994 88.4789 43.3594C88.3689 43.6094 88.449 43.8794 88.429 44.1394V45.4294H88.4389Z" fill="#EE6126"/>
<path d="M88.4887 43.3594V44.1394C88.4887 44.1394 88.4486 44.1794 88.4386 44.1594C88.4286 44.1594 88.4187 44.1594 88.4087 44.1394C88.4287 43.8794 88.2687 43.5994 88.4887 43.3594Z" fill="#EE6126"/>
<path d="M88.4882 44.1396V44.9197C88.4882 44.9197 88.4481 44.9496 88.4381 44.9396C88.4281 44.9396 88.4182 44.9397 88.4082 44.9197V44.1396H88.4882Z" fill="#EE6126"/>
<path d="M88.4882 44.9199V45.4099C88.4882 45.4099 88.4481 45.4399 88.4381 45.4299C88.4281 45.4299 88.4182 45.4199 88.4082 45.4099V44.9199H88.4882Z" fill="#EE6126"/>
<path d="M88.4884 45.4092V45.8892C88.4884 45.8892 88.4284 45.8892 88.3984 45.8992C88.3984 45.7292 88.3984 45.5692 88.3984 45.4092H88.4784H88.4884Z" fill="#EE6126"/>
<path d="M74.1291 45.7797C74.1291 47.9697 73.9492 50.1497 73.4192 52.2797C72.8592 54.5297 70.6491 55.8797 68.3891 55.4097C66.1791 54.9597 64.6791 52.8196 65.0391 50.5696C65.3191 48.8196 65.5891 47.0797 65.5191 45.2997C65.2791 38.8397 62.7391 33.4297 57.9691 29.0897C55.0091 26.3897 51.4891 24.7597 47.5891 23.8997C45.5991 23.4597 44.2091 21.6397 44.2591 19.6597C44.3091 17.5697 45.7691 15.8597 47.8391 15.4797C48.8991 15.2897 49.8991 15.5997 50.8991 15.8497C62.2491 18.6897 71.2491 28.1796 73.5191 39.6996C73.6591 40.4396 73.7891 41.1896 73.8891 41.9496C74.0691 43.2196 74.1291 44.4997 74.1291 45.7797Z" fill="#131956"/>
<path d="M59.7186 47.029C59.7186 48.389 59.6086 49.659 59.3186 50.919C58.7986 53.199 56.5586 54.6689 54.3486 54.2089C51.9586 53.7089 50.4587 51.5789 50.9287 49.2089C51.9687 43.9589 48.8887 39.419 44.7787 37.869C44.1987 37.659 43.5987 37.519 43.0087 37.359C40.7087 36.729 39.3487 34.449 39.9187 32.179C40.5187 29.839 42.7486 28.469 45.1086 29.039C52.4186 30.819 57.0687 35.3789 59.1587 42.5889C59.3587 43.3089 59.4786 44.039 59.5786 44.779C59.6786 45.549 59.7286 46.329 59.7186 47.029Z" fill="#131956"/>
</svg>
