<svg width="111" height="108" viewBox="0 0 111 108" fill="none" xmlns="http://www.w3.org/2000/svg">
<path d="M110.011 75.53C109.791 74.97 109.871 74.35 109.641 73.78C108.511 70.97 105.141 68.96 102.181 69.61C100.701 69.93 99.7309 69.49 98.7709 68.53C97.0509 66.82 95.1909 65.25 93.3909 63.63C89.0509 59.71 84.6709 55.84 80.3609 51.88C79.8609 51.42 79.8109 50.99 79.9209 50.37C80.2309 48.69 80.1609 47.04 79.3609 45.46C78.8309 44.41 78.0009 43.63 77.1309 42.89C76.7309 42.55 76.4909 42.23 76.8209 41.71C77.4809 40.69 78.0809 39.64 78.7909 38.65C79.0709 38.27 79.4209 38.0601 79.8909 38.1801C80.6109 38.3601 81.3009 38.24 82.0109 38.11C84.9909 37.58 87.0109 35.86 87.9609 33.03C88.9009 30.24 88.1909 27.74 86.1209 25.67C78.5009 18.04 70.8809 10.42 63.2509 2.80005C62.2709 1.82005 61.1309 1.14003 59.7209 0.910034C59.2009 0.820034 58.6509 1.02 58.1509 0.75H57.7209C57.6509 1.05 57.3909 0.95999 57.2009 0.98999C53.2409 1.69999 50.7509 4.82998 51.1009 8.84998C51.1809 9.79998 50.8709 10.21 50.1509 10.67C39.9609 17.18 31.5509 25.49 25.0609 35.7C24.4409 36.67 23.8809 37.07 22.6409 36.95C19.7409 36.65 17.041 38.39 15.781 41.1C14.581 43.68 15.0109 46.78 16.9709 48.75C24.6509 56.46 32.3509 64.16 40.0709 71.84C42.2609 74.02 45.5709 74.44 48.2809 73.02C51.1009 71.54 52.5309 68.7 52.0009 65.53C51.9109 65.02 52.0409 64.76 52.4609 64.49C53.6409 63.75 54.8209 63.0099 55.9409 62.1899C56.5209 61.7599 56.7209 61.95 57.0509 62.45C58.8509 65.14 61.6809 66.23 64.7509 65.4C65.2809 65.26 65.5709 65.32 65.9409 65.73C71.8809 72.33 77.8409 78.93 83.8109 85.51C84.2009 85.94 84.3309 86.3 84.1509 86.92C83.2809 90.03 84.6709 93.31 87.4409 94.9C90.3609 96.57 93.751 96.1499 96.091 93.8199C99.9109 90.0099 103.711 86.2 107.521 82.39C108.701 81.2 109.591 79.86 109.811 78.15C109.731 77.75 109.661 77.36 109.991 77.03V75.53H110.011ZM56.5309 7.06006C57.1709 6.01006 58.4309 5.79997 59.3809 6.58997C59.5709 6.74997 59.7409 6.94 59.9109 7.12C67.2509 14.46 74.6009 21.81 81.9409 29.15C82.4009 29.61 82.8909 30.03 82.8809 30.76C82.8509 31.53 82.5009 32.12 81.8309 32.5C81.1809 32.87 80.5309 32.82 79.9209 32.42C79.6609 32.24 79.4309 32.01 79.2009 31.79C71.8109 24.44 64.4309 17.09 57.0409 9.72998C56.1409 8.82998 55.9809 7.97995 56.5309 7.06995V7.06006ZM46.3809 68.08C45.5709 68.92 44.4309 68.87 43.4609 67.91C35.9809 60.45 28.5009 52.98 21.0109 45.53C20.3609 44.89 20.0709 44.1899 20.4509 43.3199C20.8009 42.5399 21.411 42.1 22.281 42.08C22.871 42.05 23.3009 42.34 23.6909 42.73C31.1909 50.23 38.6909 57.72 46.1809 65.22C47.0909 66.13 47.1509 67.2699 46.3809 68.0699V68.08ZM57.5009 54.5601C54.9509 56.6301 52.2609 58.51 49.5009 60.28C49.0509 60.57 48.8009 60.54 48.4209 60.16C41.9009 53.61 35.3609 47.07 28.8109 40.55C28.4209 40.16 28.4709 39.92 28.7309 39.5C35.1109 29.28 43.4109 20.99 53.6109 14.58C54.0409 14.31 54.2809 14.27 54.6709 14.66C61.2009 21.2 67.7609 27.73 74.3009 34.26C74.4709 34.43 74.7109 34.55 74.7309 34.89C74.6209 35.07 74.5009 35.29 74.3709 35.5C69.8009 42.79 64.1709 49.1401 57.4909 54.5601H57.5009ZM64.2109 59.92C63.3809 60.74 62.4009 60.72 61.6209 60.01C60.8709 59.32 60.8809 58.5 61.6609 57.85C65.3909 54.73 68.8209 51.31 71.9609 47.6C72.3509 47.14 72.6809 46.59 73.4509 46.95C74.2009 47.3 74.6309 47.83 74.7009 48.98C74.7209 49.21 74.4909 49.66 74.1409 50.02C70.8409 53.33 67.5409 56.64 64.2209 59.92H64.2109ZM104.051 78.58C100.211 82.42 96.381 86.26 92.531 90.08C91.651 90.96 90.5009 90.96 89.6709 90.17C88.8409 89.37 88.8509 88.25 89.7609 87.33C92.0409 85.02 94.3609 82.7501 96.6409 80.4301C98.0909 78.9601 97.901 76.98 96.281 76.1C95.201 75.52 94.0709 75.73 93.0009 76.79C91.4209 78.34 89.8509 79.9 88.3109 81.49C87.8509 81.96 87.601 82.07 87.091 81.5C81.4209 75.18 75.7209 68.88 70.0009 62.6C69.5709 62.13 69.5509 61.88 70.0309 61.42C71.8609 59.66 73.6609 57.88 75.4009 56.04C75.9509 55.47 76.2409 55.48 76.8209 56C83.7409 62.28 90.7009 68.54 97.6409 74.79C98.1909 75.29 98.7109 75.83 99.5009 75.98C100.411 76.16 101.151 75.81 101.901 75.34C103.301 74.46 104.801 75.21 104.831 76.83C104.781 77.44 104.551 78.0601 104.041 78.5601L104.051 78.58Z" fill="#EE6126"/>
<path d="M109.83 78.1503C109.75 77.7503 109.68 77.3603 110.01 77.0303C109.76 77.3703 110.01 77.8003 109.83 78.1503Z" fill="black"/>
<path d="M110.01 77.0303V78.1002L109.93 78.1703L109.83 78.1503C109.75 77.7503 109.68 77.3603 110.01 77.0303Z" fill="#393939"/>
<path d="M81.3302 96.44C80.4102 92.52 77.5202 90.0402 73.5502 89.5602C72.7102 89.4602 72.3802 89.2201 72.1802 88.3601C70.8602 82.8501 66.2802 79.2301 60.6502 79.2201C47.4802 79.2001 34.3102 79.2001 21.1402 79.2201C15.7902 79.2301 11.2302 82.6901 9.89023 87.8701C9.56023 89.1301 9.07019 89.5001 7.85019 89.6501C2.73019 90.2801 -0.799765 95.8001 0.650235 100.75C1.91023 105.03 5.2002 107.47 9.8002 107.47C20.1502 107.48 30.5002 107.47 40.8502 107.47C51.2002 107.47 61.6202 107.47 72.0102 107.47C74.2202 107.47 76.2702 107 78.0102 105.61C80.9902 103.24 82.2002 100.12 81.3302 96.4202V96.44ZM21.2102 84.4001C34.3402 84.3801 47.4802 84.3801 60.6102 84.4001C63.8502 84.4001 66.5202 86.5501 67.0302 89.4101H14.8302C15.7902 86.2101 18.0502 84.4001 21.2102 84.4001ZM72.8702 102.27C72.4802 102.31 72.0902 102.3 71.6902 102.3C61.4102 102.3 51.1202 102.3 40.8402 102.3C30.5602 102.3 20.1302 102.3 9.78024 102.3C8.06024 102.3 6.71018 101.7 5.91018 100.14C4.69018 97.7601 6.25019 94.9401 8.92019 94.6301C9.31019 94.5901 9.71019 94.6001 10.1002 94.6001H71.8002C72.0902 94.6001 72.3702 94.6001 72.6602 94.6001C74.7602 94.7201 76.3502 96.2701 76.4102 98.2601C76.4702 100.32 74.9802 102.02 72.8802 102.26L72.8702 102.27Z" fill="#131956"/>
</svg>
