<svg width="77" height="78" viewBox="0 0 77 78" fill="none" xmlns="http://www.w3.org/2000/svg">
<path d="M22.09 26.0601C22.02 26.0001 21.9501 25.93 21.8101 25.8H55.38C53.03 27.67 50.77 29.4601 48.52 31.2601C45.36 33.7701 42.2 36.2701 39.05 38.7901C38.69 39.0801 38.47 39.0901 38.11 38.7901C32.78 34.5401 27.43 30.3001 22.09 26.0601Z" fill="black"/>
<path d="M58.76 28.1801C58.89 28.0801 59.03 27.98 59.28 27.8V29.5201C59.28 36.75 59.28 43.9701 59.28 51.2001C59.28 52.5001 59.11 52.6701 57.83 52.6701H19.33C18.04 52.6701 17.87 52.5001 17.86 51.2101C17.86 43.6801 17.86 36.1601 17.86 28.6301C17.86 28.3901 17.79 28.1401 17.96 27.8501C19.69 29.2201 21.4 30.5701 23.1 31.9201C27.74 35.6001 32.38 39.2901 37.02 42.9801C38.17 43.8901 38.95 43.9001 40.09 42.9901C46.31 38.0501 52.53 33.1101 58.75 28.1701L58.76 28.1801Z" fill="black"/>
<path d="M76.7 34.04C75.64 26.18 72.39 19.31 67.1 13.42C63.09 8.95999 58.2601 5.59998 52.6801 3.40998C49.0201 1.97998 45.25 1.00998 41.28 0.909978C38.39 0.839978 35.51 0.749977 32.64 1.18998C26.41 2.14998 20.76 4.53997 15.71 8.27997C11.83 11.15 8.58001 14.64 6.01001 18.75C3.68001 22.48 2.00002 26.47 1.02002 30.77C0.62002 32.52 0.460039 34.29 0.290039 36.07V36.67C0.370039 36.74 0.369995 36.83 0.369995 36.92C0.369995 36.93 0.369995 36.95 0.369995 36.97C0.369995 36.99 0.369995 37 0.369995 37.01V37.38C0.369995 37.38 0.369995 37.4 0.369995 37.41C0.369995 37.43 0.369995 37.44 0.369995 37.46C0.369995 37.55 0.370039 37.64 0.290039 37.71V40.7C0.390039 40.8 0.359995 40.92 0.369995 41.04V41.4C0.369995 41.52 0.400039 41.65 0.290039 41.74V42.34C0.450039 43.09 0.36999 43.87 0.48999 44.62C1.94999 54.43 6.55 62.51 14.13 68.86C19.42 73.29 25.53 76.02 32.34 77.17C33.37 77.34 34.4099 77.29 35.4399 77.48H36.04C36.13 77.38 36.26 77.41 36.37 77.4C36.51 77.41 36.67 77.36 36.79 77.48H37.39C37.69 77.36 37.99 77.36 38.29 77.48H38.89C39.14 77.36 39.39 77.36 39.64 77.48H40.39C40.51 77.36 40.6701 77.42 40.8101 77.4C40.9301 77.4 41.05 77.38 41.14 77.48H41.59C42.35 77.35 43.12 77.41 43.88 77.31C47.13 76.88 50.28 76.03 53.3 74.76C58.96 72.38 63.79 68.87 67.79 64.21C70.38 61.2 72.46 57.88 74 54.22C75.67 50.27 76.76 46.18 76.89 41.85C76.97 39.23 77.07 36.61 76.72 34.02L76.7 34.04ZM63.24 51.48C63.24 54.56 61.23 56.59 58.16 56.59C51.63 56.59 45.0999 56.59 38.5699 56.59C32.0399 56.59 25.66 56.52 19.21 56.62C15.96 56.67 13.84 54.25 13.87 51.25C13.96 43.1 13.9 34.95 13.9 26.8C13.9 24.38 15.29 22.55 17.54 21.94C18.03 21.81 18.52 21.8 19.02 21.8C32.05 21.8 45.09 21.8 58.12 21.8C61.25 21.8 63.24 23.81 63.24 26.95C63.24 35.12 63.24 43.3 63.24 51.48Z" fill="#DF6939"/>
<path d="M37.38 77.4901C37.68 77.2601 37.98 77.2701 38.28 77.4901H37.38Z" fill="#101010"/>
<path d="M38.87 77.49C39.12 77.27 39.37 77.27 39.62 77.49H38.87Z" fill="#101010"/>
<path d="M36.32 77.3598C36.49 77.3398 36.6701 77.2898 36.7801 77.4898H36.33C36.33 77.4898 36.2701 77.4399 36.2801 77.4099C36.2901 77.3799 36.31 77.3598 36.32 77.3598Z" fill="#5D5D5D"/>
<path d="M40.37 77.4898C40.48 77.2898 40.66 77.3398 40.83 77.3598C40.87 77.3898 40.89 77.4199 40.87 77.4499C40.85 77.4799 40.8399 77.4898 40.8199 77.4898H40.37Z" fill="#5D5D5D"/>
<path d="M36.3199 77.3599C36.3199 77.3599 36.3199 77.4499 36.3199 77.4899H36.02C36.05 77.3099 36.1901 77.3499 36.3101 77.3599H36.3199Z" fill="#828282"/>
<path d="M40.8101 77.49C40.8101 77.49 40.8101 77.4 40.8101 77.36C40.9301 77.35 41.07 77.3 41.1 77.49H40.8H40.8101Z" fill="#828282"/>
<path d="M22.09 26.0601C22.02 26.0001 21.9501 25.93 21.8101 25.8H55.38C53.03 27.67 50.77 29.4601 48.52 31.2601C45.36 33.7701 42.2 36.2701 39.05 38.7901C38.69 39.0801 38.47 39.0901 38.11 38.7901C32.78 34.5401 27.43 30.3001 22.09 26.0601Z" fill="#FDFDFD"/>
<path d="M59.28 27.79V29.51C59.28 36.74 59.28 43.96 59.28 51.19C59.28 52.49 59.11 52.66 57.83 52.66H19.33C18.04 52.66 17.87 52.49 17.86 51.2C17.86 43.67 17.86 36.15 17.86 28.62C17.86 28.38 17.79 28.13 17.96 27.84C19.69 29.21 21.4 30.56 23.1 31.91C27.74 35.59 32.38 39.28 37.02 42.97C38.17 43.88 38.95 43.89 40.09 42.98C46.31 38.04 52.53 33.1 58.75 28.16C58.88 28.06 59.02 27.96 59.27 27.78L59.28 27.79Z" fill="#FDFDFD"/>
<path d="M59.28 27.79V29.51C59.28 36.74 59.28 43.96 59.28 51.19C59.28 52.49 59.11 52.66 57.83 52.66H19.33C18.04 52.66 17.87 52.49 17.86 51.2C17.86 43.67 17.86 36.15 17.86 28.62C17.86 28.38 17.79 28.13 17.96 27.84C19.69 29.21 21.4 30.56 23.1 31.91C27.74 35.59 32.38 39.28 37.02 42.97C38.17 43.88 38.95 43.89 40.09 42.98C46.31 38.04 52.53 33.1 58.75 28.16C58.88 28.06 59.02 27.96 59.27 27.78L59.28 27.79Z" fill="#DF6939"/>
<path d="M55.38 25.8C53.03 27.67 50.77 29.4601 48.52 31.2601C45.36 33.7701 42.2 36.2701 39.05 38.7901C38.69 39.0801 38.47 39.0901 38.11 38.7901C32.78 34.5401 27.43 30.3001 22.09 26.0601C22.02 26.0001 21.9501 25.93 21.8101 25.8H55.38Z" fill="#DF6939"/>
</svg>
