<svg width="78" height="78" viewBox="0 0 78 78" fill="none" xmlns="http://www.w3.org/2000/svg">
<path d="M36.42 0.669922H38.23C38.63 0.909922 39.0301 0.909922 39.4301 0.669922H40.63C43.39 1.00992 46.2 0.959908 48.92 1.74991C60.29 5.03991 68.59 11.9299 73.9 22.5399C77.16 29.0499 77.78 35.9099 77.36 43.0199C76.78 52.7399 72.59 60.7699 65.76 67.4099C60.1 72.9099 53.3 76.4599 45.38 77.5999C43.56 77.8599 43.23 77.5899 43.22 75.7399C43.19 66.8099 43.19 57.8899 43.22 48.9599C43.22 47.2399 43.56 46.9399 45.25 46.8999C47.05 46.8599 48.86 46.8499 50.66 46.8999C51.87 46.9299 52.5 46.5399 52.63 45.2399C52.86 42.9999 53.2099 40.7699 53.45 38.5199C53.61 37.0099 53.5299 36.9299 51.9399 36.9199C49.7299 36.8999 47.5299 36.9399 45.3199 36.8999C43.5399 36.8699 43.24 36.5699 43.21 34.7599C43.18 32.7499 43.16 30.7499 43.21 28.7399C43.29 26.1999 44.53 24.7799 47.02 24.2399C48.81 23.8499 50.62 24.0099 52.42 24.0199C53.56 24.0199 54.07 23.6299 54.04 22.4499C53.99 20.5499 54.01 18.6399 54.04 16.7299C54.05 15.7599 53.69 15.2799 52.67 15.1799C49.32 14.8599 45.96 14.5999 42.64 15.3299C36.74 16.6299 32.9701 21.4199 32.9301 27.4699C32.9101 29.9299 32.96 32.3799 32.92 34.8399C32.89 36.5699 32.59 36.8599 30.89 36.8999C28.99 36.9399 27.0801 36.9499 25.1801 36.8999C23.9901 36.8699 23.58 37.3699 23.6 38.5099C23.64 40.7699 23.65 43.0199 23.6 45.2799C23.57 46.5599 24.1199 46.9399 25.3199 46.8999C27.1199 46.8399 28.93 46.8499 30.73 46.8999C32.5 46.9399 32.9201 47.3599 32.9301 49.1899C32.9601 57.9699 32.9601 66.7399 32.9301 75.5199C32.9301 77.3399 32.33 77.7599 30.41 77.3199C24.39 75.9599 18.9699 73.3699 14.1899 69.4399C7.61994 64.0399 3.35999 57.1899 1.10999 49.0099C0.599985 47.1599 0.749946 45.2399 0.319946 43.3999V37.6799C0.509946 37.4799 0.509946 37.2799 0.319946 37.0799V34.9699C0.689946 31.7499 1.24998 28.5799 2.47998 25.5399C6.89998 14.5899 14.53 6.96991 25.61 2.77991C29.11 1.45991 32.74 0.969912 36.42 0.659912V0.669922Z" fill="#DF6939"/>
<path d="M39.4301 0.669922C39.0301 1.10992 38.63 1.10992 38.23 0.669922H39.4301Z" fill="#DF6939"/>
<path d="M0.310059 37.0798C0.700059 37.2798 0.640059 37.4798 0.310059 37.6798V37.0798Z" fill="#DF6939"/>
</svg>
