<svg width="59" height="59" viewBox="0 0 59 59" fill="none" xmlns="http://www.w3.org/2000/svg">
<path d="M30.45 58.8499C29.87 58.5399 29.22 58.5 28.62 58.24C27.43 57.72 26.5 56.9399 25.79 55.8499C24.58 53.9999 24.84 51.83 26.08 50.2C27.24 48.67 28.85 47.97 30.7 47.7C33.2299 47.33 35.41 48.0397 37.21 49.8597C37.64 50.2897 37.9499 50.8197 38.1899 51.3797C38.2899 51.5997 38.4199 51.6997 38.6899 51.6897C39.7899 51.6697 40.89 51.69 41.99 51.68C42.65 51.68 43.16 51.27 43.66 50.91C46.29 49.05 48.17 46.5597 49.53 43.6697C50.23 42.1897 50.62 40.6098 51.03 39.0398C51.1 38.7798 51.06 38.6697 50.7 38.6897C50 38.7297 49.28 38.84 48.61 38.47C47.85 38.05 47.41 37.4196 47.4 36.5496C47.39 31.2796 47.38 26.01 47.4 20.74C47.4 19.89 47.73 19.1096 48.63 18.7596C48.96 18.6296 48.99 18.4799 48.84 18.1399C48.08 16.3599 47.09 14.6998 45.89 13.2098C44.85 11.9198 43.69 10.7197 42.35 9.68975C40.99 8.63975 39.57 7.70979 38.02 6.97979C36.39 6.20979 34.67 5.73969 32.91 5.37969C31.81 5.15969 30.68 5.1099 29.58 5.0999C28.41 5.0999 27.2 5.15994 26.03 5.38994C23.92 5.80994 21.89 6.45004 20 7.49004C17.61 8.81004 15.51 10.4996 13.73 12.5896C12.49 14.0396 11.48 15.6296 10.61 17.3196C10.58 17.3696 10.57 17.42 10.54 17.47C10.39 17.78 10.14 18.09 10.13 18.41C10.11 18.84 10.67 18.76 10.9 18.99C11.35 19.45 11.67 20.0097 11.67 20.6497C11.69 25.9797 11.7 31.2997 11.67 36.6297C11.67 37.8097 10.82 38.62 9.72998 38.68C7.15998 38.83 4.93 38.0399 3.12 36.1199C1.59 34.4999 0.820039 32.5697 0.540039 30.3997C0.540039 30.3597 0.469941 30.3298 0.439941 30.2898C0.439941 29.1498 0.439941 28.0197 0.439941 26.8797C0.529941 25.8597 0.719995 24.8697 1.12 23.9197C1.8 22.2797 2.81 20.9197 4.25 19.8997C4.61 19.6397 4.83997 19.3397 4.96997 18.9197C5.93997 15.8997 7.37995 13.1099 9.31995 10.5999C12.1199 6.9899 15.6 4.21998 19.83 2.42998C21.97 1.51998 24.19 0.889727 26.51 0.669727C28.15 0.509727 29.7899 0.549903 31.4399 0.599903C33.7199 0.659903 35.9 1.19 38.03 1.95C41.32 3.12 44.21 4.95988 46.78 7.32988C48.53 8.94988 50.03 10.7696 51.28 12.7796C52.48 14.7196 53.45 16.77 54.14 18.95C54.26 19.33 54.46 19.6099 54.78 19.8499C57.4 21.7899 58.66 24.43 58.7 27.66C58.7099 28.57 58.75 29.4797 58.66 30.3797C58.42 33.0797 57.2599 35.3096 55.1899 37.0496C54.8299 37.3496 54.64 37.6997 54.58 38.1497C54.24 40.7797 53.52 43.3097 52.34 45.6897C51.24 47.9097 49.84 49.9197 48.04 51.6497C47.02 52.6197 45.98 53.5398 44.75 54.2498C43.91 54.7398 43.0401 55.0396 42.0601 55.0096C41.0201 54.9796 39.9801 55.0098 38.9301 54.9998C38.5701 54.9998 38.35 55.1198 38.17 55.4598C37.12 57.4198 35.48 58.5298 33.27 58.7898C33.23 58.7898 33.2 58.8196 33.17 58.8396H30.4399L30.45 58.8499Z" fill="#DF6939"/>
</svg>
