<svg width="50" height="56" viewBox="0 0 50 56" fill="none" xmlns="http://www.w3.org/2000/svg">
<path d="M46.69 22.54C35.1 15.91 23.5 9.2699 11.89 2.6499C10.27 1.7199 8.74001 0.599766 6.83001 0.259766H5.21001C4.39001 0.349766 3.60001 0.55002 2.89001 1.02002C1.30001 2.09002 0.20001 3.4702 0.0100098 5.4502V6.20996C0.11001 6.38996 0.0600052 6.60004 0.0600052 6.79004V49.1201C0.0600052 49.3101 0.11001 49.5202 0.0100098 49.7002V50.46C0.19001 50.62 0.150005 50.8498 0.200005 51.0498C0.580005 52.4798 1.34001 53.66 2.56001 54.5C4.77001 56.01 7.06001 56.03 9.37001 54.71C14.76 51.64 20.14 48.56 25.53 45.48C32.58 41.44 39.64 37.4099 46.69 33.3799C48.63 32.2699 49.81 30.6402 49.95 28.4102C50.12 25.7902 48.95 23.83 46.68 22.54H46.69ZM13.24 7.68994C13.43 7.78994 13.59 7.8702 13.73 7.9502C19.18 11.0702 24.63 14.18 30.08 17.29C30.48 17.51 30.51 17.6398 30.24 18.0098C28.69 20.1398 27.16 22.2799 25.64 24.4199C25.45 24.6899 25.35 24.8002 25.1 24.4502C21.2 19.0002 17.29 13.5601 13.39 8.12012C13.31 8.02012 13.21 7.9402 13.24 7.7002V7.68994ZM6.17001 51.5601C5.90001 51.9401 5.65 51.9501 5.27 51.8101C4.28 51.4201 3.71001 50.5598 3.71001 49.3398C3.71001 46.6698 3.71001 44.0101 3.71001 41.3301V6.66016C3.71001 5.39016 4.26001 4.53012 5.26001 4.12012C5.67001 3.95012 5.91001 4.00014 6.19001 4.39014C11.72 12.1201 17.27 19.8401 22.82 27.5601C23.03 27.8501 23.06 28.0298 22.84 28.3398C17.27 36.0698 11.72 43.8098 6.18001 51.5498L6.17001 51.5601ZM30.2 38.5801C24.63 41.7401 19.08 44.9201 13.52 48.1001C13.45 48.1401 13.37 48.1802 13.29 48.2202C13.25 48.1902 13.22 48.1499 13.18 48.1099C17.23 42.4699 21.27 36.84 25.31 31.21C25.49 31.23 25.53 31.37 25.59 31.46C27.16 33.64 28.72 35.8202 30.3 37.9902C30.48 38.2402 30.55 38.3701 30.2 38.5801ZM45.05 30.0698C41.39 32.1798 37.71 34.2699 34.05 36.3799C33.81 36.5199 33.71 36.4398 33.58 36.2598C31.66 33.5798 29.74 30.9 27.81 28.23C27.66 28.03 27.67 27.9 27.81 27.71C29.74 25.03 31.66 22.3502 33.58 19.6802C33.72 19.4902 33.82 19.4398 34.05 19.5698C37.72 21.6798 41.39 23.7699 45.05 25.8799C45.85 26.3299 46.25 27.0502 46.31 27.9902C46.27 28.8902 45.86 29.6198 45.05 30.0898V30.0698Z" fill="white"/>
</svg>
