<svg width="1682" height="694" viewBox="0 0 1682 694" fill="none" xmlns="http://www.w3.org/2000/svg">
<path d="M378.51 331.8C375.16 319 374.9 305.76 370.89 293.01C361.09 261.91 343 236.76 308.34 223.27C301.88 220.75 294.94 219.2 288.22 217.21C278.21 214.32 267.85 214.49 257.51 214.47C257.27 214.47 256.65 214.38 256.6 214.5C256.36 215.09 257.33 215.02 257.43 215.49C224.29 219.91 197.7 234.61 176.44 256.93C157.52 276.78 144.02 299.46 135.52 324.3C127.63 347.39 117.21 369.29 100.35 388.49C78.9697 412.84 51.0097 429.37 19.4697 441.57C12.5997 444.22 7.9597 440.89 5.4197 435.6C2.1797 428.84 8.3497 425.77 13.5297 423.93C28.2097 418.73 41.7897 412.03 53.9997 403.2C82.6297 382.47 103.85 357.58 114.9 325.61C127.62 288.82 146.88 254.85 180.24 228.7C202.26 211.44 227.32 199.96 257.25 198.23C260.42 199.32 263.6 199.29 266.77 198.24C320.13 201.18 359.65 223.56 382.24 270.64C391.84 290.65 396.5 311.72 397.99 333.37C396.81 346.57 396.79 359.76 398.01 372.96C396.07 401.83 389.07 429.86 379.94 457.51C357.34 525.95 307.72 576.47 243.74 617.36C216.98 634.46 188.27 648.63 158.84 661.79C151.51 665.07 146.35 663.29 143.25 658.12C139.88 652.5 144.96 649.23 150.31 646.96C177.1 635.56 203.15 622.87 227.42 607.77C303.71 560.31 354.12 497.46 370.79 415.18C373.64 401.1 375.96 386.93 378.53 372.8C380.45 359.13 380.45 345.46 378.53 331.79L378.51 331.8Z" fill="white"/>
<path d="M352.92 376.44C351.46 404.93 342.88 431.99 332.19 458.68C307.52 520.28 261.01 566.64 202.4 604.63C181.33 618.29 159.79 631.29 136.3 641.54C130.64 644.01 118.19 641.26 115.36 636.51C111.46 629.98 117.03 627.02 122.21 624.4C134.39 618.26 146.97 612.7 158.92 606.24C213.42 576.73 260.12 539.98 292.03 490.31C313.65 456.66 326.43 420.13 333.52 382.02C333.89 380.04 333.6 377.94 335.43 376.38C337.93 364.06 335.86 351.63 336.53 339.26C336.59 338.11 336.25 337.41 336.32 338.57C336.32 338.59 335.72 338.65 335.4 338.69C333.76 331.71 332.48 324.65 330.42 317.77C322.1 290.08 302.95 271.98 270.63 265.8C262.2 264.13 253.78 263.95 245.37 265.95C213.31 276.3 196.63 300.19 180 324.07C163.21 348.19 152.3 375 136.34 399.47C110.68 438.8 72.8301 466.13 26.3801 484.65C20.5001 486.99 16.0601 485.61 13.2301 480.84C10.2301 475.78 12.4901 471.64 17.9501 469.39C30.0701 464.4 42.4101 459.8 53.5701 453.22C87.7301 433.07 113.8 406.85 130.7 373.54C146.05 343.28 161.68 313.08 184.54 286.47C201.41 266.83 221.96 252.01 251.4 250.28C254.57 251.3 257.74 251.32 260.91 250.27C301.32 251.66 333.85 274.02 345.29 308.29C349.54 321.01 352.56 333.94 352.92 347.26C351.74 356.99 351.72 366.72 352.93 376.45L352.92 376.44Z" fill="white"/>
<path d="M265.07 175.27C209.09 175.52 168.2 199.99 135.54 238C117.08 259.47 105.98 283.99 96.53 309.26C93.25 318.03 89.6 326.67 84.76 334.87C81.6 340.23 76.76 342.92 70.37 339.64C64.61 336.69 64.34 332.19 67.55 327C78.71 308.97 84.67 288.99 94.29 270.4C120.92 218.94 162.66 181.72 224.53 163.89C231.32 161.93 238.29 160.45 245.49 160.12C255.84 161.26 266.19 161.17 276.55 160.18C339.1 164.88 387.49 189.74 417.48 239.33C442.07 279.99 450.32 323.6 445.92 369.57C443.66 393.16 439.22 416.28 433.36 439.26C427.45 462.44 430.31 484.93 438.82 507.11C440.81 512.29 442.72 517.46 435.38 520.34C427.88 523.29 418.43 520.02 415.74 513.84C410.82 502.53 407.52 490.86 406.38 478.75C407.6 470.16 407.63 461.57 406.36 452.99C406.62 441.91 410.91 431.57 413.96 421.02C418.55 405.15 420.07 388.83 423.59 372.81C425.55 356.84 425.53 340.88 423.6 324.91C421.66 315.07 420.21 305.13 417.7 295.4C409.29 262.82 394.72 233.18 366.06 209.99C342.84 191.2 315.39 181.29 284.75 177.29C282.5 177 280.15 177.2 278.33 175.67C278.57 175.48 278.8 175.28 279.04 175.1C279.87 174.49 279.96 174.39 279.26 174.49C274.56 175.16 269.71 173.77 265.07 175.3V175.27Z" fill="white"/>
<path d="M259.23 288.12C296.75 289.38 312.59 305.48 317.8 339.01C322.84 371.45 312.22 401.7 298.54 431.24C278.95 473.52 249.72 510.06 212.44 541.46C180.45 568.4 145.22 591.66 106.49 610.64C104.78 611.48 102.73 612.04 101.44 613.24C95.77 618.5 90.54 615.35 87.54 611.48C84.03 606.94 87.15 602.74 92.48 600.19C112.88 590.44 132.37 579.44 151.09 567.33C199.03 536.31 240.68 500.25 267.62 452.64C285.99 420.17 300.19 386.62 298.47 349.36C298.15 342.32 296.6 335.6 293.83 329.15C289.23 318.44 280.7 311.21 267.65 309.28C253.44 307.18 241.12 310.65 231.86 320.82C218.06 336.01 208.3 353.33 198.95 370.8C177.57 410.71 152.25 448.16 114.23 477.71C93.55 493.78 70.97 507.4 45.78 517.42C42.08 518.89 38.2 521.45 33.82 519.3C30.3 517.57 27.62 515.12 27.54 511.13C27.45 506.66 30.54 504.42 34.6 502.68C54.04 494.34 72.11 484.08 89.28 472.5C120.1 451.73 144.82 426.4 162.86 396.05C177.28 371.8 191.11 347.27 206.16 323.34C216.3 307.22 229.32 293.13 251.49 289.04C254.66 288.45 257.92 288.28 259.23 288.13V288.12Z" fill="white"/>
<path d="M502.089 307.47C498.439 292.93 496.799 278.06 492.349 263.63C475.129 207.84 442.439 161.66 385.829 130.77C351.389 111.98 313.929 101.97 273.049 100.55C188.689 97.62 125.899 130.65 77.5294 189.18C75.4794 191.67 74.4094 195.23 70.5094 196.09C66.2594 197.03 62.0394 197.05 58.9494 193.48C55.7494 189.8 57.2094 186.37 59.7294 183.12C75.3194 163.05 92.8194 144.52 114.569 129.34C153.809 101.97 198.179 86.61 248.149 83.32C324.789 78.27 390.579 99.55 443.019 148.79C483.699 186.98 507.939 233.42 517.939 285.35C521.219 302.38 523.989 319.47 523.539 336.83C522.319 341.94 522.319 347.06 523.539 352.17C523.599 375.18 520.139 397.84 514.769 420.29C513.469 425.74 511.539 431.8 503.089 430.1C495.539 428.58 493.129 423.24 494.379 416.75C496.869 403.84 499.519 390.96 502.099 378.06C504.509 375.11 502.279 371.49 503.879 368.41C506.279 348.04 504.999 327.71 503.189 307.39C503.169 307.19 502.909 307.01 502.769 306.81C502.549 307.02 502.329 307.24 502.109 307.45L502.089 307.47Z" fill="white"/>
<path d="M286.26 372.98C282.65 397.87 270.51 419.87 255.68 440.66C226.86 481.07 189.58 514.86 148.27 545.34C125.46 562.17 101.89 578.08 75.8898 590.95C67.8798 594.91 62.2298 592.97 59.9898 586.03C58.1498 580.34 62.9298 578.31 66.9498 576C87.7298 564.04 108.03 551.47 127.41 537.78C179.84 500.77 227.57 460.16 255.71 404.85C262.56 391.39 268.27 377.57 267.04 362.38C266.72 358.41 267.26 353.68 261.48 352.46C255.72 351.24 250.65 352.43 247.18 357.48C242.72 363.97 239.81 370.95 237.6 378.19C221.84 429.9 187.93 470.99 142.49 505.34C116.61 524.91 88.8398 542.01 58.3298 555.5C55.1898 556.89 52.1598 559.01 48.2798 558.1C43.7398 557.04 40.7398 554.25 40.0098 550.33C39.1198 545.51 43.2498 543.06 47.3598 541.15C65.2998 532.82 82.4798 523.38 98.9998 513.06C136.68 489.52 169.57 461.93 192.42 425.89C204.3 407.15 211.27 386.68 219.86 366.77C223 359.49 226.33 352.32 231.63 345.95C239.73 336.21 250.45 331.7 263.88 333.86C277.4 336.03 284.58 343.93 286.26 355.87C285 361.56 285.03 367.26 286.24 372.95L286.26 372.98Z" fill="white"/>
<path d="M462.81 316.09C458.57 298.73 456.13 281.05 449.22 264.18C423 200.14 374.26 158.01 298.46 141.71C293.75 140.7 288.51 142.13 284.3 139.19C277.93 137.26 271.51 138.03 265.08 138.86C220.93 137.89 181.59 149.95 147.15 174.04C113.32 197.7 89.93 228.17 75.05 263.85C74.15 266.01 73.66 268.32 72.57 270.4C69.81 275.71 65.17 280.7 58.52 278.64C51.83 276.58 50.15 270.93 52.59 264.2C61.95 238.34 76.24 214.79 95.16 193.58C126.25 158.72 165.71 134.61 215.21 125.17C277.68 113.26 335.07 124.44 385.89 158.67C435.77 192.27 462.65 238.36 474.72 291.92C475.48 295.29 475.91 298.72 476.49 302.12C473.48 309.89 477.37 317.4 477.92 325.01C478.68 335.62 478.41 346.2 478.66 356.78C478.18 363.32 476.58 369.85 478.36 376.41C477.21 391.33 473.87 405.94 470.36 420.53C469.89 422.49 469.07 424.42 468.91 426.4C468.57 430.62 469.82 436.17 462.13 435.21C455.9 434.44 452.54 430.11 453.2 424.58C453.92 418.62 455.63 412.75 457.03 406.86C463.27 380.79 463.66 354.35 463.29 327.87C463.93 323.91 465.21 319.93 462.8 316.07L462.81 316.09Z" fill="white"/>
<path d="M263.24 59.45C247.95 61.87 232.44 63.52 217.4 66.86C184.3 74.2 153.13 85.78 124.67 102.69C123.32 103.49 121.94 104.28 120.48 104.91C115.62 107 110.83 107.46 107.61 102.79C104.36 98.06 105.77 94.05 110.99 90.94C130.53 79.28 151.22 69.52 173.15 61.88C201.47 52.02 230.62 45.24 261.19 43.96C268.93 45.09 276.68 45.06 284.43 43.98C328.38 45.92 369.97 55.83 408.42 74.66C487.6 113.42 530.31 175.55 551.14 251.3C553.44 259.67 555.1 268.18 556.85 276.66C557.95 281.94 557.23 286.89 549.97 288C542.92 289.08 538.33 287.04 536.95 279.81C530.64 246.71 519.82 214.87 502.44 184.84C463.82 118.12 403.86 76.64 319.89 63.27C310.03 61.7 299.86 62.02 290.16 59.48C281.19 57.79 272.21 57.84 263.23 59.45H263.24Z" fill="white"/>
<path d="M310.19 19.25C297.69 19.25 285.19 19.25 272.68 19.26C266.82 17.76 260.85 19.1 254.95 18.52C256.49 18.69 258.12 18.37 259.36 19.58C245.06 22.06 230.67 24.19 216.49 27.12C199.94 30.55 183.98 35.72 169.03 42.93C162.64 46.01 157.54 45.67 154.18 40.06C150.7 34.24 154.17 30.36 160.17 27.52C193.2 11.89 228.72 5.15 265.78 1.72C322.91 -3.57 375.12 9.68999 424.89 32.18C462.95 49.37 496.63 72.08 523.78 101.74C528.39 106.78 530.49 111.28 523.98 116.64C516.71 122.63 512.21 120.18 506.58 114.41C457.96 64.7 397.24 33.26 324.08 20.89C323.18 20.74 322.39 20.09 321.54 19.67C317.84 17.6 314 18.47 310.17 19.25H310.19Z" fill="white"/>
<path d="M388.539 540.61C365.269 585.62 326.619 616.47 283.729 643.97C261.759 658.05 238.679 670.45 214.139 680.67C211.069 681.95 208.309 683.97 204.119 682.69C198.559 680.99 191.799 680.4 190.959 674.16C190.149 668.12 196.359 666.57 201.409 664.38C249.509 643.57 293.819 617.88 330.319 582.87C351.469 562.58 368.889 540.07 375.129 512.18C376.199 507.39 378.709 503.33 385.179 503.14C392.469 502.92 395.469 507.56 397.499 512.56C405.109 531.37 415.089 549.14 427.159 565.98C435.909 578.19 445.409 589.9 459.679 597.75C464.719 600.53 469.019 603.88 465.009 609.59C460.529 615.97 454.359 615.35 448.149 611.65C429.539 600.57 417.069 584.73 405.759 568.11C399.919 559.52 394.749 550.57 388.549 540.61H388.539Z" fill="white"/>
<path d="M439.49 626.94C439.32 631.25 436.55 633.82 433.27 635.73C429.66 637.82 426.64 635.98 423.61 633.88C411.19 625.28 399.72 615.97 392.1 603.5C390.02 600.09 388.11 599.46 385.04 602.97C356.7 635.31 321.15 660.39 282.53 682.38C277.88 685.03 273.35 687.88 268.94 690.83C263.17 694.69 257.76 694.33 253.68 689.25C249.6 684.16 250.81 679.79 257.29 676.3C283.22 662.33 308.2 647.11 331.36 629.72C346.04 618.7 360.33 607.28 371.17 592.95C374.49 588.57 377.27 583.97 378.29 578.83C379.12 574.66 380.94 571.38 385.81 570.98C390.68 570.58 394.43 572.85 396.94 576.75C402.75 585.77 408.75 594.67 415.84 603C421.58 609.74 427.79 615.99 435.5 620.95C438.12 622.63 439.79 624.42 439.49 626.93V626.94Z" fill="white"/>
<path d="M562.74 366.05C561.67 397.2 558.62 428.09 547.55 457.94C546.14 461.74 544.36 465.6 541.8 468.84C538.38 473.16 533.51 475.73 527.53 472.27C521.79 468.96 520.55 465.37 524.51 459.29C534.26 444.3 536.24 427.19 539.58 410.47C541.16 402.57 540.03 394.38 543.23 386.71C543.46 386.9 543.93 387.19 543.88 387.27C543.46 388.06 544.21 388.23 544.2 387.87C544.07 381.25 545.22 374.6 543.63 368.02C542.55 355.13 544.42 342.19 542.05 329.27C541.12 324.22 545.36 320.43 551.28 319.9C556.61 319.42 560.84 321.86 562.46 326.53C563.19 328.64 562.64 331.08 562.68 333.38C561.51 344.27 561.45 355.16 562.72 366.05H562.74Z" fill="white"/>
<path d="M445.75 453.04C447.99 448.48 451.62 447.56 456.85 449.14C462.23 450.77 463.41 453.94 463.06 458.53C460.57 491.17 478.81 515.15 504.66 535.94C509.1 539.51 515.04 542.48 512.57 549.43C510.6 554.96 504.6 557.57 499.82 553.86C472.04 532.26 449.99 507.52 445.56 473.53C446.89 466.71 446.64 459.88 445.74 453.04H445.75Z" fill="white"/>
<path d="M0.219727 291.9C3.58973 280.69 8.30973 268.48 13.7997 256.48C19.7797 243.39 26.4497 230.57 34.2597 218.27C37.3597 213.38 41.2897 207.55 49.5397 212.08C54.0897 214.57 56.1897 218.16 53.6197 223.1C41.1197 247.13 28.3797 271.08 20.5597 296.78C19.0797 301.65 15.2497 304.81 8.85973 303.61C4.09973 302.72 0.259727 297.96 0.219727 291.91V291.9Z" fill="white"/>
<path d="M334.429 686.78C329.399 686.18 323.939 685 322.179 680.02C320.259 674.6 324.649 671.76 329.629 669.4C350.029 659.7 369.969 649.38 386.129 634.32C391.249 629.55 397.64 629.66 402.77 633.35C407.77 636.95 407.119 642.55 403.109 646.6C385.179 664.78 362.249 676.71 337.649 686.41C336.799 686.75 335.729 686.64 334.409 686.77L334.429 686.78Z" fill="white"/>
<path d="M31.0393 189.16C24.5793 188.78 20.2293 180.5 23.6693 174.26C32.9993 157.33 44.9593 141.9 59.1393 127.88C65.0093 122.08 71.4093 116.7 77.8293 111.37C81.6193 108.22 86.1493 106.07 90.5393 110.56C94.6793 114.79 95.4093 118.95 89.8793 123.25C70.8193 138.03 55.7793 155.72 43.0993 175.03C40.9893 178.24 39.1693 181.65 37.6693 185.12C36.4193 188.01 34.3293 189.21 31.0193 189.16H31.0393Z" fill="white"/>
<path d="M482.869 454.72C482.239 447.43 487.779 444.67 494.319 444.5C501.949 444.3 504.339 450.25 503.809 455.37C501.809 474.75 510.579 489.45 527.209 501.2C531.819 504.45 532.799 508.48 528.969 512.43C525.189 516.33 520.299 519.07 514.559 515.12C497.159 503.16 486.219 487.72 482.899 468.29C483.989 463.76 484.029 459.24 482.869 454.72Z" fill="white"/>
<path d="M4.44928 344.41C3.33928 339.54 5.68928 336.19 11.8393 333.05C25.3293 326.16 31.6093 314.11 35.0693 301.38C37.2593 293.3 42.7493 294.68 48.9393 294.97C56.1693 295.31 56.3293 300.37 56.1793 304.28C55.4593 322.94 35.0993 346.59 15.5193 352.28C5.15929 355.29 4.47928 354.86 4.44928 344.4V344.41Z" fill="white"/>
<path d="M11.4896 399.13C5.75958 399.17 1.93958 396.96 0.67958 392.63C-0.68042 387.94 1.58958 383.45 6.54958 381.87C23.1796 376.57 35.6996 367.15 45.9696 354.63C48.9396 351.01 55.0896 349.56 59.8196 352.47C64.6296 355.42 63.7796 359.77 60.7996 363.99C51.8196 376.67 40.7596 387.45 25.7096 394.66C21.0996 396.87 16.2096 398.42 11.4996 399.13H11.4896Z" fill="white"/>
<path d="M550.15 192.87C546.23 192.35 542.79 190.26 540.64 186.16C533.76 173.08 526.83 160.02 519.57 147.11C516.31 141.31 518.85 137.42 524.21 134.84C529.85 132.12 534.22 134.3 536.91 139.28C544.62 153.61 552.56 167.84 559.93 182.3C563.07 188.47 558.55 193.44 550.16 192.86L550.15 192.87Z" fill="white"/>
<path d="M492.43 586.09C484.12 587.44 477.93 584.91 471.5 579.83C462.46 572.68 453.72 565.42 446.51 556.82C443.24 552.92 440.86 548.28 446.65 544.69C451.73 541.54 456.9 541.61 460.92 546.91C469.74 558.55 482.57 566.69 493.9 576.14C492.33 579.33 494.57 582.96 492.43 586.09Z" fill="white"/>
<path d="M92.6395 78.35C87.7295 77.72 85.3495 75.27 83.6895 71.87C81.9095 68.21 82.3295 65.04 86.0095 62.67C95.7095 56.4 105.439 50.16 115.319 44.11C119.659 41.45 123.859 41.85 127.259 45.81C130.489 49.57 130.879 53.67 126.769 56.62C116.699 63.85 106.199 70.61 95.7995 77.48C94.8395 78.11 93.3895 78.16 92.6395 78.35Z" fill="white"/>
<path d="M502.09 307.47C502.19 305.79 502.3 304.12 502.47 301.31C506.61 316.7 507.53 361.37 504.16 369.65C503.45 368.84 503.13 367.93 503.21 366.91C503.62 362.55 502.26 358.09 504.04 353.8C504.03 345.33 504.02 336.85 504.01 328.38C502.04 325 504.32 321.15 502.47 317.76C502.34 314.33 502.21 310.91 502.08 307.48L502.09 307.47Z" fill="white"/>
<path d="M476.71 357.51C476 342.64 478.23 327.7 474.96 312.85C474.22 309.49 473.29 305.38 476.48 302.12C476.28 310.73 479.82 319.07 478.79 327.74C480.56 337.31 479.29 346.94 479.48 356.54C478.96 357.77 478.03 358.09 476.7 357.5L476.71 357.51Z" fill="white"/>
<path d="M423.6 324.88C423.75 323.75 423.91 322.62 424.06 321.49H424.96V376.38C423.01 375.68 424.11 373.97 423.58 372.79C423.58 356.82 423.58 340.85 423.59 324.88H423.6Z" fill="white"/>
<path d="M378.51 331.8C378.66 330.67 378.81 329.54 378.96 328.41C379.26 328.41 379.56 328.41 379.87 328.41V376.38C377.91 375.71 379.03 373.99 378.51 372.82C378.51 359.15 378.51 345.48 378.51 331.8Z" fill="white"/>
<path d="M335.409 338.69C335.559 337.56 335.699 336.43 335.849 335.31L337.459 335.28C337.459 349.42 337.459 363.57 337.429 377.71C337.429 377.86 337.009 378.02 336.779 378.17C336.329 377.58 335.879 376.98 335.429 376.39C335.419 363.82 335.409 351.26 335.399 338.69H335.409Z" fill="white"/>
<path d="M257.44 215.49C256.15 215.36 254.87 215.23 253.58 215.11C265.92 213.82 278.24 212.52 290.38 216.06C290.28 216.28 290.25 216.64 290.07 216.7C289.48 216.92 288.84 217.04 288.22 217.21C277.96 216.64 267.7 216.07 257.44 215.5V215.49Z" fill="white"/>
<path d="M398.01 372.98C395.21 359.78 395.26 346.59 397.99 333.39C397.99 346.59 398 359.78 398.01 372.98Z" fill="white"/>
<path d="M478.6 357.56C478.66 347.62 478.73 337.69 478.79 327.75C481.64 339.49 481.61 351.23 478.82 362.97C477.24 361.21 477.41 359.4 478.6 357.56Z" fill="white"/>
<path d="M562.74 366.05C559.87 355.16 559.94 344.27 562.7 333.38C562.71 344.27 562.73 355.16 562.74 366.05Z" fill="white"/>
<path d="M263.24 59.45C262.92 59.39 262.54 59.41 262.31 59.25C261.9 58.97 261.57 58.59 261.21 58.25C271.56 57.24 281.91 57.11 292.26 58.29C292.17 58.5 292.14 58.82 291.98 58.89C291.41 59.13 290.78 59.28 290.18 59.47C281.2 59.47 272.23 59.45 263.25 59.44L263.24 59.45Z" fill="white"/>
<path d="M352.92 376.44C350.13 366.71 350.14 356.98 352.91 347.25C352.91 356.98 352.91 366.71 352.92 376.44Z" fill="white"/>
<path d="M276.549 160.16C266.189 162.46 255.839 162.55 245.489 160.1C255.839 160.12 266.199 160.14 276.549 160.16Z" fill="white"/>
<path d="M406.359 452.96C409.209 461.55 409.179 470.13 406.379 478.72C406.379 470.13 406.369 461.54 406.359 452.96Z" fill="white"/>
<path d="M543.64 368.02C547.25 375.9 544.33 384.02 545.57 392.61C542.29 390.69 543.88 388.45 543.24 386.71C543.37 380.48 543.51 374.25 543.64 368.02Z" fill="white"/>
<path d="M245.38 265.94C253.54 261.93 262.24 264.44 270.72 264.34C270.83 264.34 271.06 264.79 271.04 265.01C271.02 265.28 270.78 265.53 270.63 265.79C262.21 265.84 253.79 265.89 245.37 265.94H245.38Z" fill="white"/>
<path d="M265.08 138.86C272.65 135.72 280.51 138.05 288.76 137.39C287.89 138.24 287.6 138.81 287.16 138.91C286.25 139.13 285.26 139.11 284.3 139.19C277.89 139.08 271.49 138.97 265.08 138.86Z" fill="white"/>
<path d="M445.749 453.04C448.109 459.89 448.469 466.72 445.569 473.53C445.629 466.7 445.689 459.87 445.749 453.04Z" fill="white"/>
<path d="M284.42 43.97C276.67 46.36 268.92 46.4 261.18 43.95C268.93 43.95 276.67 43.96 284.42 43.97Z" fill="white"/>
<path d="M259.37 19.59C257.39 19.05 254.88 20.4 252.89 17.88C259.81 18.27 266.41 16.22 272.69 19.26C268.25 19.37 263.81 19.47 259.37 19.58V19.59Z" fill="white"/>
<path d="M478.6 357.56C478.67 359.36 478.75 361.16 478.82 362.97C478.67 367.46 478.51 371.94 478.36 376.43C474.79 370.33 477.61 363.8 476.72 357.51C477.35 357.51 477.98 357.53 478.61 357.56H478.6Z" fill="white"/>
<path d="M265.069 175.27C270.669 172.23 276.609 174.32 282.759 173.85C281.579 176.14 279.689 175.2 278.329 175.63C273.909 175.51 269.489 175.39 265.079 175.27H265.069Z" fill="white"/>
<path d="M286.26 372.98C283.54 367.28 283.5 361.59 286.28 355.9C286.28 361.59 286.27 367.29 286.26 372.98Z" fill="white"/>
<path d="M523.519 352.18C520.829 347.06 520.819 341.95 523.519 336.83C523.519 341.95 523.519 347.06 523.519 352.18Z" fill="white"/>
<path d="M504.16 367.91C504.16 368.49 504.16 369.07 504.16 369.64C504.16 373.64 504.16 377.63 504.16 382C501.5 380.86 502.51 379.25 502.08 378.07C502.2 374.68 502.33 371.3 502.46 367.91C503.02 367.14 503.59 367.1 504.16 367.91Z" fill="white"/>
<path d="M504.16 367.91C503.59 367.91 503.02 367.91 502.46 367.91C502.68 363.17 501.11 358.28 504.06 353.78C504.09 358.48 504.13 363.19 504.16 367.9V367.91Z" fill="white"/>
<path d="M482.87 454.72C485.54 459.24 485.52 463.77 482.89 468.29C482.89 463.77 482.87 459.24 482.87 454.72Z" fill="white"/>
<path d="M462.81 316.09C466.89 319.9 465.37 323.88 463.29 327.89C463.13 323.96 462.97 320.02 462.81 316.09Z" fill="white"/>
<path d="M310.189 19.25C313.819 16.64 317.869 17.74 321.849 18.24C321.969 18.25 322.109 18.73 322.059 18.96C321.999 19.22 321.739 19.44 321.559 19.67C317.769 19.53 313.979 19.39 310.189 19.25Z" fill="white"/>
<path d="M492.43 586.09C492.9 582.77 491.09 579.19 493.9 576.14C494.4 579.57 496.1 583.14 492.43 586.09Z" fill="white"/>
<path d="M502.48 317.74C505.58 320.99 503.65 324.8 504.02 328.36C501.34 325.07 502.53 321.33 502.48 317.74Z" fill="white"/>
<path d="M266.78 198.25C263.6 200.49 260.42 200.51 257.26 198.24C260.44 198.24 263.61 198.25 266.78 198.25Z" fill="white"/>
<path d="M260.9 250.26C257.73 252.5 254.56 252.5 251.39 250.27C254.56 250.27 257.73 250.27 260.9 250.26Z" fill="white"/>
<path d="M687.03 80.1V266.19H646.11V80.1H687.03Z" fill="white"/>
<path d="M833.24 264.76C824.38 268.49 815.43 270.36 806.39 270.36C792.14 270.36 779.32 267.88 767.95 262.93C756.57 257.98 746.97 251.16 739.15 242.47C731.33 233.78 725.34 223.57 721.17 211.85C717 200.12 714.92 187.48 714.92 173.93C714.92 160.38 717 147.13 721.17 135.23C725.34 123.33 731.33 112.95 739.15 104.08C746.97 95.22 756.57 88.27 767.95 83.23C779.33 78.19 792.14 75.67 806.39 75.67C815.94 75.67 825.2 77.1 834.15 79.97C843.1 82.84 851.18 87.05 858.39 92.61C865.6 98.17 871.55 105.04 876.24 113.2C880.93 121.37 883.8 130.75 884.84 141.35H845.74C843.31 130.92 838.61 123.11 831.67 117.89C824.72 112.68 816.29 110.07 806.39 110.07C797.18 110.07 789.36 111.85 782.93 115.41C776.5 118.97 771.29 123.75 767.29 129.74C763.29 135.73 760.38 142.56 758.56 150.2C756.74 157.85 755.82 165.75 755.82 173.92C755.82 182.09 756.73 189.34 758.56 196.73C760.38 204.12 763.29 210.76 767.29 216.67C771.29 222.58 776.5 227.32 782.93 230.87C789.36 234.43 797.18 236.21 806.39 236.21C819.94 236.21 830.41 232.78 837.8 225.92C845.18 219.06 849.48 209.11 850.7 196.08H809.52V165.59H887.71V266.2H861.65L857.48 245.09C850.18 254.47 842.1 261.03 833.24 264.77V264.76Z" fill="white"/>
<path d="M1057.65 251.99C1043.58 264.24 1024.11 270.36 999.27 270.36C974.43 270.36 954.57 264.28 940.76 252.12C926.95 239.96 920.04 221.19 920.04 195.82V80.1H960.96V195.82C960.96 200.86 961.39 205.81 962.26 210.68C963.13 215.55 964.95 219.85 967.73 223.58C970.51 227.32 974.38 230.36 979.33 232.7C984.28 235.04 990.93 236.22 999.27 236.22C1013.87 236.22 1023.94 232.96 1029.5 226.45C1035.06 219.93 1037.84 209.73 1037.84 195.83V80.11H1078.76V195.83C1078.76 221.03 1071.72 239.75 1057.65 252V251.99Z" fill="white"/>
<path d="M1206.73 80.1L1276.32 266.19H1233.84L1219.76 224.75H1150.17L1135.57 266.19H1094.39L1164.76 80.1H1206.72H1206.73ZM1209.08 194.26L1185.62 125.97H1185.1L1160.86 194.26H1209.08Z" fill="white"/>
<path d="M1411.85 129.75C1409.42 125.84 1406.38 122.41 1402.73 119.45C1399.08 116.5 1394.95 114.2 1390.35 112.54C1385.74 110.89 1380.92 110.06 1375.88 110.06C1366.67 110.06 1358.85 111.84 1352.42 115.4C1345.99 118.96 1340.78 123.74 1336.78 129.73C1332.78 135.72 1329.87 142.55 1328.05 150.19C1326.22 157.84 1325.31 165.74 1325.31 173.91C1325.31 182.08 1326.22 189.33 1328.05 196.72C1329.87 204.11 1332.78 210.75 1336.78 216.66C1340.78 222.57 1345.99 227.31 1352.42 230.86C1358.85 234.42 1366.67 236.2 1375.88 236.2C1388.39 236.2 1398.16 232.38 1405.2 224.73C1412.24 217.09 1416.54 207.01 1418.1 194.5H1457.72C1456.68 206.14 1453.98 216.61 1449.64 225.91C1445.29 235.21 1439.6 243.11 1432.57 249.63C1425.53 256.15 1417.28 261.19 1407.81 264.75C1398.34 268.31 1387.96 270.18 1376.66 270.35L1369.88 279.73H1370.4C1372.48 278.86 1375.44 278.43 1379.26 278.43C1382.21 278.43 1385.12 278.78 1387.99 279.47C1390.86 280.16 1393.42 281.25 1395.68 282.73C1397.94 284.2 1399.76 286.12 1401.15 288.46C1402.54 290.81 1403.24 293.54 1403.24 296.67C1403.24 301.71 1402.37 305.92 1400.63 309.31C1398.89 312.7 1396.59 315.39 1393.72 317.39C1390.85 319.39 1387.59 320.78 1383.95 321.56C1380.3 322.34 1376.56 322.73 1372.74 322.73C1368.57 322.73 1365.01 322.6 1362.05 322.34C1359.09 322.08 1356.45 321.69 1354.1 321.17C1351.75 320.65 1349.49 320.04 1347.32 319.34C1345.14 318.64 1342.84 317.86 1340.41 316.99L1345.88 304.48C1348.66 305.69 1351.87 306.78 1355.52 307.74C1359.17 308.69 1363.25 309.17 1367.77 309.17C1370.9 309.17 1373.41 308.47 1375.33 307.08C1377.24 305.69 1378.2 303.43 1378.2 300.3C1378.2 297 1377.2 294.78 1375.2 293.65C1373.2 292.52 1370.73 291.96 1367.77 291.96C1363.95 291.96 1360.47 292.57 1357.34 293.78L1351.87 287.52L1364.38 269.54C1351.69 268.32 1340.4 264.98 1330.5 259.5C1320.6 254.03 1312.21 247.03 1305.35 238.52C1298.48 230.01 1293.27 220.23 1289.71 209.2C1286.15 198.17 1284.37 186.39 1284.37 173.88C1284.37 159.98 1286.45 147.08 1290.62 135.18C1294.79 123.28 1300.78 112.9 1308.6 104.03C1316.42 95.17 1326.02 88.22 1337.4 83.18C1348.78 78.14 1361.6 75.62 1375.84 75.62C1386.09 75.62 1395.78 77.1 1404.9 80.05C1414.02 83.01 1422.19 87.31 1429.4 92.95C1436.61 98.6 1442.56 105.59 1447.25 113.93C1451.94 122.27 1454.89 131.83 1456.11 142.6H1416.49C1415.79 137.91 1414.23 133.61 1411.8 129.7L1411.85 129.75Z" fill="white"/>
<path d="M1622.44 251.99C1608.37 264.24 1588.9 270.36 1564.06 270.36C1539.22 270.36 1519.36 264.28 1505.55 252.12C1491.74 239.96 1484.83 221.19 1484.83 195.82V80.1H1525.75V195.82C1525.75 200.86 1526.18 205.81 1527.05 210.68C1527.92 215.55 1529.74 219.85 1532.52 223.58C1535.3 227.32 1539.17 230.36 1544.12 232.7C1549.07 235.05 1555.72 236.22 1564.06 236.22C1578.65 236.22 1588.73 232.96 1594.29 226.45C1599.85 219.93 1602.63 209.73 1602.63 195.83V80.11H1643.55V195.83C1643.55 221.03 1636.51 239.75 1622.44 252V251.99Z" fill="white"/>
<path d="M811.23 433.96C809.09 418.76 804.91 405.5 798.77 394.55C792.43 383.24 783.41 374.41 771.98 368.31C760.69 362.3 745.86 359.26 727.92 359.26H641.46V614.58H724.85C742.02 614.58 756.53 611.87 767.96 606.52C779.65 601.05 789.12 592.6 796.09 581.39C802.83 570.55 807.64 556.68 810.37 540.17C813.03 524.13 814.37 505.05 814.37 483.51C814.37 465.37 813.33 448.71 811.24 433.95L811.23 433.96ZM718.38 566.31H702.65V407.51H717.35C725.45 407.51 731.86 408.97 736.39 411.85C740.91 414.7 744.26 418.9 746.62 424.67C749.21 430.99 750.96 439.18 751.82 448.94C752.71 459.21 753.16 471.29 753.16 484.86C753.16 501.18 752.66 514.97 751.65 525.85C750.69 536.26 748.8 544.65 746.04 550.82C743.52 556.4 740.2 560.38 736.15 562.67C731.88 565.09 725.9 566.3 718.37 566.3L718.38 566.31Z" fill="white"/>
<path d="M898.14 359.26H836.93V614.58H898.14V359.26Z" fill="white"/>
<path d="M1092.25 471.3V614.58H1044V602.49C1039.93 606.38 1035.5 609.49 1030.74 611.77C1021.65 616.13 1010.74 618.34 998.32 618.34C982.35 618.34 969.04 615.44 958.76 609.74C948.27 603.92 939.98 594.9 934.1 582.91C928.49 571.44 924.68 557.19 922.81 540.57C920.97 524.45 920.03 505.49 920.03 484.2C920.03 462.91 921.39 445.07 924.04 429.38C926.77 413.24 931.56 399.51 938.31 388.55C945.23 377.29 954.54 368.69 965.97 362.97C977.21 357.34 991.3 354.49 1007.85 354.49C1036.33 354.49 1057.34 361.87 1070.3 376.45C1083.07 390.82 1089.55 411.38 1089.55 437.54V443.62H1030.39V437.54C1030.39 433.44 1029.92 429.18 1028.98 424.86C1028.11 420.72 1026.67 416.9 1024.71 413.48C1022.89 410.27 1020.51 407.57 1017.69 405.47C1015.22 403.65 1012.23 402.76 1008.55 402.76C1002.71 402.76 994.32 404.41 988.65 418.68C983.73 431.05 981.25 452.3 981.25 481.82C981.25 496.15 981.7 509.29 982.59 520.86C983.46 532.17 985.06 541.92 987.32 549.77C989.41 557.02 992.32 562.56 995.99 566.22C999.26 569.49 1003.48 571.09 1008.88 571.09C1010.95 571.09 1013.38 570.46 1016.09 569.25C1018.89 567.98 1021.58 566.02 1024.08 563.41C1026.62 560.79 1028.77 557.35 1030.51 553.19C1032.23 549.09 1033.12 544.09 1033.12 538.33V519.56H1000.77V471.29H1092.27L1092.25 471.3Z" fill="white"/>
<path d="M1175.35 359.26H1114.14V614.58H1175.35V359.26Z" fill="white"/>
<path d="M1354.16 359.26V411.59H1301.02V614.58H1239.82V411.59H1186.69V359.26H1354.16Z" fill="white"/>
<path d="M1463.1 359.26H1393.11L1325.52 614.58H1389.41L1400.65 563.15H1455.56L1466.8 614.58H1530.67L1463.1 359.26ZM1444.42 510.81H1411.79L1428.11 434.91L1444.43 510.81H1444.42Z" fill="white"/>
<path d="M1681.78 562.22V614.58H1533.73V359.26H1594.93V562.22H1681.78Z" fill="white"/>
</svg>
