<svg width="682" height="248" viewBox="0 0 682 248" fill="none" xmlns="http://www.w3.org/2000/svg">
<path d="M246.91 115.02C245.25 92.9001 238.19 72.6401 225.69 54.2901C217.05 41.6301 206.36 30.9001 193.67 22.2401C180.73 13.3801 166.54 7.21009 151.23 3.72009C144 2.06009 136.71 1.0701 129.31 0.850098C128.63 0.850098 127.99 0.680098 127.34 0.600098H120.61C118.08 0.800098 115.57 1.02009 113.04 1.22009C101.11 2.12009 89.6499 4.9601 78.5399 9.3501C61.2299 16.2201 46.2299 26.5201 33.5699 40.1901C20.3399 54.4601 11.1099 70.9501 5.59993 89.6101C3.37993 97.1501 1.96993 104.83 1.31993 112.66C1.08993 115.31 0.869922 117.92 0.669922 120.57V126.99C0.869922 129.61 1.05992 132.25 1.28992 134.87C2.38992 149.14 6.06992 162.73 12.1199 175.67C12.9599 177.42 13.7499 179.22 14.7399 180.85C15.4999 182.14 15.5799 183.35 15.3299 184.76C12.3999 200.15 9.49993 215.57 6.62993 230.97C5.44993 237.36 10.6799 242.45 17.0699 241.27C32.7699 238.32 48.4799 235.39 64.1799 232.49C64.9399 232.35 65.8999 232.6 66.5699 233C77.0899 238.54 88.1499 242.6 99.8299 244.85C112.32 247.24 124.88 247.78 137.57 246.4C157.55 244.2 175.87 237.45 192.56 226.34C205.2 217.95 215.89 207.46 224.67 195.02C234.04 181.71 240.54 167.08 244.17 151.2C246.87 139.3 247.8 127.22 246.9 115.04L246.91 115.02ZM229.85 132.16C228.16 152.96 221.18 171.81 208.43 188.33C193.71 207.44 174.69 220.33 151.3 226.57C139.54 229.72 127.55 230.85 115.39 229.81C101.66 228.66 88.5399 225.17 76.2499 218.81C66.5399 213.77 69.1899 214.28 58.4699 216.19C47.7199 218.1 36.9699 220.16 26.2199 222.16C26.1399 222.19 26.0199 222.13 25.6899 222.1C26.4499 217.91 27.2099 213.83 27.9699 209.75C29.6299 200.8 31.2899 191.85 32.9199 182.88C33.3399 180.63 32.7199 178.57 31.7099 176.58C29.5399 172.25 27.2899 167.94 25.4099 163.49C21.8599 155.1 19.7799 146.3 18.6299 137.26C17.7299 130.25 17.5899 123.22 18.0999 116.21C18.9199 104.36 21.6199 92.9701 26.3199 82.0501C32.1999 68.4001 40.6199 56.4701 51.4799 46.3101C63.7499 34.8601 77.8999 26.7801 93.9399 22.0201C105.22 18.7001 116.76 17.3801 128.53 17.8801C140.12 18.3601 151.35 20.6101 162.19 24.7801C175.95 30.1001 188.02 37.9501 198.52 48.2801C212.31 61.8201 221.62 77.9401 226.63 96.5701C229.75 108.22 230.85 120.12 229.87 132.17L229.85 132.16Z" fill="white"/>
<path d="M226.62 96.5603C221.61 77.9303 212.3 61.8103 198.51 48.2703C188.01 37.9403 175.94 30.0903 162.18 24.7703C151.35 20.6103 140.12 18.3503 128.52 17.8703C116.76 17.3603 105.22 18.6903 93.9297 22.0103C77.8897 26.7703 63.7297 34.8403 51.4697 46.3003C40.6097 56.4603 32.1897 68.3903 26.3097 82.0403C21.6097 92.9603 18.9097 104.36 18.0897 116.2C17.5797 123.21 17.7197 130.24 18.6197 137.25C19.7697 146.28 21.8597 155.09 25.3997 163.48C27.2897 167.93 29.5397 172.23 31.6997 176.57C32.7097 178.57 33.3297 180.62 32.9097 182.87C31.2797 191.85 29.6197 200.8 27.9597 209.74C27.1997 213.82 26.4397 217.9 25.6797 222.09C26.0197 222.12 26.1297 222.17 26.2097 222.15C36.9597 220.15 47.7097 218.1 58.4597 216.18C69.1797 214.27 66.5397 213.76 76.2397 218.8C88.5397 225.16 101.65 228.65 115.38 229.8C127.54 230.84 139.52 229.72 151.29 226.56C174.68 220.31 193.7 207.42 208.42 188.32C221.17 171.8 228.15 152.95 229.84 132.15C230.83 120.11 229.73 108.2 226.6 96.5503L226.62 96.5603ZM123.99 56.2303C134.23 56.2303 141.13 63.9703 141.58 73.7103C141.19 83.3903 134.07 91.1903 123.99 91.1903C113.91 91.1903 106.46 83.3903 106.49 73.7103C106.52 63.9703 113.75 56.2303 123.99 56.2303ZM141.55 173.81C141.49 182.45 135.98 189.34 127.79 191.2C117.88 193.42 107.87 186.67 106.68 176.26C106.46 174.09 106.4 171.9 106.4 169.7C106.37 162.27 106.37 154.81 106.37 147.38C106.37 138.71 106.34 130.05 106.4 121.38C106.43 116.79 107.83 112.71 110.9 109.2C116.75 102.47 126.74 101.24 133.98 106.41C138.96 109.98 141.52 114.96 141.55 121.02C141.64 138.61 141.66 156.22 141.55 173.81Z" fill="#DF6939"/>
<path d="M106.48 73.71C106.51 63.97 113.74 56.23 123.98 56.23C134.22 56.23 141.12 63.97 141.57 73.71C141.18 83.39 134.06 91.19 123.98 91.19C113.9 91.19 106.45 83.39 106.48 73.71Z" fill="white"/>
<path d="M141.55 173.81C141.49 182.45 135.98 189.34 127.79 191.2C117.88 193.42 107.87 186.67 106.68 176.26C106.46 174.09 106.4 171.9 106.4 169.7C106.37 162.27 106.37 154.81 106.37 147.38C106.37 138.71 106.34 130.05 106.4 121.38C106.43 116.79 107.83 112.71 110.9 109.2C116.75 102.47 126.74 101.24 133.98 106.41C138.96 109.98 141.52 114.96 141.55 121.02C141.64 138.61 141.66 156.22 141.55 173.81Z" fill="white"/>
<path d="M141.55 173.81C141.49 182.45 135.98 189.34 127.79 191.2C117.88 193.42 107.87 186.67 106.68 176.26C106.46 174.09 106.4 171.9 106.4 169.7C106.37 162.27 106.37 154.81 106.37 147.38C106.37 138.71 106.34 130.05 106.4 121.38C106.43 116.79 107.83 112.71 110.9 109.2C116.75 102.47 126.74 101.24 133.98 106.41C138.96 109.98 141.52 114.96 141.55 121.02C141.64 138.61 141.66 156.22 141.55 173.81Z" fill="#131B53"/>
<path d="M141.58 73.71C141.19 83.39 134.07 91.19 123.99 91.19C113.91 91.19 106.46 83.39 106.49 73.71C106.52 63.97 113.75 56.23 123.99 56.23C134.23 56.23 141.13 63.97 141.58 73.71Z" fill="#131B53"/>
<path d="M314.849 87.0499H294.849L291.089 98.2099H279.229L298.599 43.9199H311.419L330.649 98.2099H318.349L314.849 87.0499ZM311.679 77.6999L304.899 56.3399L297.899 77.6999H311.679Z" fill="white"/>
<path d="M371.419 72.4701H360.659C360.459 70.9701 359.959 69.6201 359.149 68.4201C357.969 66.8001 356.139 65.9901 353.659 65.9901C350.119 65.9901 347.699 67.7501 346.399 71.2601C345.709 73.1301 345.369 75.6101 345.369 78.7001C345.369 81.7901 345.709 84.0201 346.399 85.8101C347.649 89.1501 350.009 90.8201 353.469 90.8201C355.929 90.8201 357.669 90.1601 358.699 88.8301C359.729 87.5001 360.359 85.7901 360.579 83.6701H371.299C371.049 86.8601 369.899 89.8801 367.839 92.7301C364.549 97.3201 359.679 99.6201 353.219 99.6201C346.759 99.6201 342.009 97.7001 338.969 93.8701C335.929 90.0401 334.399 85.0701 334.399 78.9501C334.399 72.0501 336.079 66.6801 339.449 62.8501C342.809 59.0201 347.459 57.1001 353.369 57.1001C358.399 57.1001 362.519 58.2301 365.729 60.4901C368.929 62.7501 370.829 66.7401 371.419 72.4601V72.4701Z" fill="white"/>
<path d="M413.01 86.43C412.74 88.81 411.5 91.23 409.29 93.69C405.85 97.59 401.04 99.55 394.85 99.55C389.74 99.55 385.24 97.91 381.33 94.61C377.43 91.32 375.47 85.97 375.47 78.55C375.47 71.6 377.23 66.27 380.76 62.56C384.28 58.85 388.86 57 394.48 57C397.82 57 400.83 57.63 403.5 58.88C406.18 60.13 408.39 62.11 410.13 64.81C411.7 67.19 412.72 69.95 413.19 73.1C413.46 74.94 413.57 77.59 413.52 81.06H386.04C386.19 85.09 387.45 87.91 389.83 89.53C391.28 90.54 393.02 91.04 395.06 91.04C397.22 91.04 398.98 90.43 400.33 89.2C401.07 88.54 401.72 87.62 402.28 86.44H413L413.01 86.43ZM402.62 74.12C402.45 71.35 401.61 69.24 400.1 67.8C398.59 66.36 396.72 65.65 394.48 65.65C392.05 65.65 390.16 66.41 388.83 67.93C387.49 69.45 386.65 71.52 386.31 74.12H402.63H402.62Z" fill="white"/>
<path d="M448.26 59.9102C451.4 61.9202 453.21 65.3902 453.67 70.3002H443.17C443.02 68.9502 442.64 67.8802 442.03 67.1002C440.88 65.6802 438.91 64.9602 436.14 64.9602C433.86 64.9602 432.23 65.3202 431.26 66.0302C430.29 66.7402 429.81 67.5802 429.81 68.5302C429.81 69.7302 430.33 70.6102 431.36 71.1502C432.39 71.7202 436.04 72.6902 442.3 74.0602C446.47 75.0402 449.61 76.5302 451.69 78.5202C453.75 80.5302 454.78 83.0502 454.78 86.0702C454.78 90.0502 453.3 93.3002 450.34 95.8102C447.38 98.3302 442.81 99.5902 436.62 99.5902C430.43 99.5902 425.65 98.2602 422.64 95.5902C419.63 92.9302 418.13 89.5302 418.13 85.4102H428.77C428.99 87.2802 429.47 88.6002 430.21 89.3902C431.51 90.7902 433.92 91.4902 437.43 91.4902C439.49 91.4902 441.13 91.1802 442.35 90.5702C443.57 89.9602 444.17 89.0402 444.17 87.8102C444.17 86.5802 443.68 85.7402 442.7 85.1202C441.72 84.5102 438.07 83.4502 431.76 81.9502C427.22 80.8202 424.01 79.4102 422.15 77.7102C420.28 76.0402 419.35 73.6302 419.35 70.4902C419.35 66.7802 420.8 63.6002 423.71 60.9302C426.62 58.2702 430.71 56.9302 435.99 56.9302C441.27 56.9302 445.09 57.9202 448.26 59.9102Z" fill="white"/>
<path d="M490.209 59.9102C493.349 61.9202 495.159 65.3902 495.619 70.3002H485.119C484.969 68.9502 484.589 67.8802 483.979 67.1002C482.829 65.6802 480.859 64.9602 478.089 64.9602C475.809 64.9602 474.179 65.3202 473.209 66.0302C472.239 66.7402 471.759 67.5802 471.759 68.5302C471.759 69.7302 472.279 70.6102 473.309 71.1502C474.339 71.7202 477.989 72.6902 484.249 74.0602C488.419 75.0402 491.559 76.5302 493.639 78.5202C495.699 80.5302 496.729 83.0502 496.729 86.0702C496.729 90.0502 495.249 93.3002 492.289 95.8102C489.329 98.3302 484.759 99.5902 478.569 99.5902C472.379 99.5902 467.599 98.2602 464.589 95.5902C461.579 92.9302 460.079 89.5302 460.079 85.4102H470.719C470.939 87.2802 471.419 88.6002 472.159 89.3902C473.459 90.7902 475.869 91.4902 479.379 91.4902C481.439 91.4902 483.079 91.1802 484.299 90.5702C485.519 89.9602 486.119 89.0402 486.119 87.8102C486.119 86.5802 485.629 85.7402 484.649 85.1202C483.669 84.5102 480.019 83.4502 473.709 81.9502C469.169 80.8202 465.959 79.4102 464.099 77.7102C462.229 76.0402 461.299 73.6302 461.299 70.4902C461.299 66.7802 462.749 63.6002 465.659 60.9302C468.569 58.2702 472.659 56.9302 477.939 56.9302C483.219 56.9302 487.039 57.9202 490.209 59.9102Z" fill="white"/>
<path d="M537.979 63.1503C541.369 67.4003 543.059 72.4203 543.059 78.2203C543.059 84.0203 541.369 89.1503 537.979 93.3403C534.589 97.5303 529.449 99.6203 522.549 99.6203C515.649 99.6203 510.509 97.5303 507.119 93.3403C503.729 89.1503 502.039 84.1103 502.039 78.2203C502.039 72.3303 503.729 67.4003 507.119 63.1503C510.509 58.9003 515.649 56.7803 522.549 56.7803C529.449 56.7803 534.589 58.9003 537.979 63.1503ZM522.509 65.6503C519.439 65.6503 517.079 66.7403 515.419 68.9103C513.759 71.0803 512.929 74.1803 512.929 78.2103C512.929 82.2403 513.759 85.3403 515.419 87.5303C517.079 89.7203 519.439 90.8103 522.509 90.8103C525.579 90.8103 527.939 89.7203 529.579 87.5303C531.219 85.3403 532.049 82.2403 532.049 78.2103C532.049 74.1803 531.229 71.0803 529.579 68.9103C527.929 66.7403 525.579 65.6503 522.509 65.6503Z" fill="white"/>
<path d="M573.049 62.4101C575.819 58.8701 580.589 57.1101 587.339 57.1101C591.739 57.1101 595.639 57.9801 599.049 59.7301C602.459 61.4701 604.169 64.7601 604.169 69.6001V88.0201C604.169 89.3001 604.189 90.8401 604.239 92.6601C604.309 94.0401 604.519 94.9701 604.869 95.4601C605.209 95.9501 605.729 96.3601 606.419 96.6801V98.2301H594.999C594.679 97.4201 594.459 96.6601 594.339 95.9501C594.219 95.2401 594.119 94.4301 594.049 93.5201C592.599 95.0901 590.929 96.4301 589.039 97.5301C586.779 98.8301 584.229 99.4801 581.379 99.4801C577.749 99.4801 574.739 98.4401 572.369 96.3701C569.999 94.3001 568.819 91.3601 568.819 87.5501C568.819 82.6101 570.719 79.0401 574.529 76.8301C576.619 75.6301 579.689 74.7701 583.739 74.2501L587.309 73.8101C589.249 73.5601 590.639 73.2601 591.469 72.8901C592.969 72.2501 593.719 71.2601 593.719 69.9101C593.719 68.2701 593.149 67.1301 592.009 66.5001C590.869 65.8701 589.189 65.5601 586.979 65.5601C584.499 65.5601 582.739 66.1701 581.709 67.4001C580.969 68.3101 580.479 69.5401 580.239 71.0801H570.109C570.329 67.5701 571.309 64.6801 573.059 62.4201L573.049 62.4101ZM575.329 41.6401H587.009L594.079 52.6501H586.489L575.329 41.6401ZM580.859 90.6301C581.839 91.4401 583.049 91.8501 584.469 91.8501C586.729 91.8501 588.809 91.1901 590.709 89.8601C592.609 88.5301 593.599 86.1201 593.679 82.6001V78.7001C593.019 79.1201 592.349 79.4601 591.669 79.7101C590.989 79.9701 590.069 80.2101 588.889 80.4301L586.529 80.8701C584.319 81.2601 582.739 81.7401 581.779 82.3101C580.159 83.2701 579.349 84.7501 579.349 86.7701C579.349 88.5601 579.849 89.8501 580.859 90.6401V90.6301Z" fill="white"/>
<path d="M282.18 134.44H293.45V188.73H282.18V134.44Z" fill="white"/>
<path d="M322.069 156.36C318.509 156.36 316.069 157.87 314.739 160.89C314.049 162.49 313.709 164.52 313.709 167V188.73H303.249V148.66H313.379V154.52C314.729 152.46 316.009 150.97 317.209 150.06C319.369 148.44 322.109 147.63 325.419 147.63C329.569 147.63 332.959 148.72 335.599 150.89C338.239 153.06 339.559 156.67 339.559 161.7V188.74H328.799V164.32C328.799 162.21 328.519 160.59 327.949 159.46C326.919 157.4 324.949 156.37 322.059 156.37L322.069 156.36Z" fill="white"/>
<path d="M368.069 134.11V142.66C367.479 142.59 366.489 142.53 365.099 142.49C363.709 142.45 362.749 142.76 362.229 143.41C361.699 144.06 361.439 144.78 361.439 145.56V148.95H368.329V156.35H361.439V188.73H350.979V156.35H345.119V148.95H350.869V146.37C350.869 142.07 351.589 139.11 353.039 137.49C354.559 135.08 358.229 133.88 364.049 133.88C364.709 133.88 365.309 133.9 365.849 133.94C366.389 133.98 367.129 134.03 368.059 134.11H368.069Z" fill="white"/>
<path d="M407.849 153.67C411.239 157.92 412.929 162.94 412.929 168.74C412.929 174.54 411.239 179.67 407.849 183.86C404.459 188.05 399.319 190.14 392.419 190.14C385.519 190.14 380.379 188.05 376.989 183.86C373.599 179.67 371.909 174.63 371.909 168.74C371.909 162.85 373.599 157.92 376.989 153.67C380.379 149.42 385.519 147.3 392.419 147.3C399.319 147.3 404.459 149.42 407.849 153.67ZM392.379 156.18C389.309 156.18 386.949 157.27 385.289 159.44C383.629 161.61 382.799 164.71 382.799 168.74C382.799 172.77 383.629 175.87 385.289 178.06C386.949 180.25 389.309 181.34 392.379 181.34C395.449 181.34 397.809 180.25 399.449 178.06C401.089 175.87 401.919 172.77 401.919 168.74C401.919 164.71 401.099 161.61 399.449 159.44C397.799 157.27 395.449 156.18 392.379 156.18Z" fill="white"/>
<path d="M440.629 158.27C436.409 158.27 433.569 159.65 432.119 162.4C431.309 163.95 430.899 166.33 430.899 169.55V188.74H420.329V148.59H430.349V155.59C431.969 152.91 433.379 151.08 434.589 150.1C436.549 148.46 439.109 147.63 442.249 147.63C442.449 147.63 442.609 147.63 442.749 147.65C442.879 147.66 443.189 147.68 443.649 147.71V158.47C442.989 158.4 442.399 158.35 441.879 158.32C441.359 158.3 440.949 158.28 440.629 158.28V158.27Z" fill="white"/>
<path d="M472.35 159.64C471.47 157.7 469.73 156.73 467.16 156.73C464.16 156.73 462.15 157.7 461.12 159.64C460.55 160.74 460.27 162.39 460.27 164.58V188.74H449.63V148.67H459.83V154.53C461.13 152.44 462.36 150.96 463.51 150.07C465.55 148.5 468.19 147.71 471.43 147.71C474.5 147.71 476.98 148.39 478.87 149.74C480.39 150.99 481.55 152.6 482.33 154.57C483.7 152.21 485.41 150.48 487.45 149.38C489.61 148.28 492.02 147.72 494.67 147.72C496.44 147.72 498.18 148.06 499.9 148.75C501.62 149.44 503.18 150.64 504.58 152.36C505.71 153.76 506.47 155.48 506.86 157.52C507.11 158.87 507.23 160.85 507.23 163.45L507.16 188.75H496.4V163.19C496.4 161.67 496.15 160.42 495.66 159.43C494.73 157.56 493.01 156.63 490.5 156.63C487.6 156.63 485.6 157.83 484.5 160.24C483.93 161.52 483.65 163.05 483.65 164.84V188.74H473.08V164.84C473.08 162.46 472.83 160.73 472.34 159.65L472.35 159.64Z" fill="white"/>
<path d="M518.389 152.93C521.159 149.39 525.929 147.63 532.679 147.63C537.079 147.63 540.979 148.5 544.389 150.25C547.799 151.99 549.509 155.28 549.509 160.12V178.54C549.509 179.82 549.529 181.36 549.579 183.18C549.649 184.56 549.859 185.49 550.209 185.98C550.549 186.47 551.069 186.88 551.759 187.2V188.75H540.339C540.019 187.94 539.799 187.18 539.679 186.47C539.559 185.76 539.459 184.95 539.389 184.04C537.939 185.61 536.269 186.95 534.379 188.05C532.119 189.35 529.569 190 526.719 190C523.089 190 520.079 188.96 517.709 186.89C515.339 184.82 514.159 181.88 514.159 178.07C514.159 173.13 516.059 169.56 519.869 167.35C521.959 166.15 525.029 165.29 529.079 164.77L532.649 164.33C534.589 164.08 535.979 163.78 536.809 163.41C538.309 162.77 539.059 161.78 539.059 160.43C539.059 158.79 538.489 157.65 537.349 157.02C536.209 156.39 534.529 156.08 532.319 156.08C529.839 156.08 528.079 156.69 527.049 157.92C526.309 158.83 525.819 160.06 525.579 161.6H515.449C515.669 158.09 516.649 155.2 518.399 152.94L518.389 152.93ZM526.199 181.15C527.179 181.96 528.389 182.37 529.809 182.37C532.069 182.37 534.149 181.71 536.049 180.38C537.949 179.05 538.939 176.64 539.019 173.12V169.22C538.359 169.64 537.689 169.98 537.009 170.23C536.329 170.49 535.409 170.73 534.229 170.95L531.869 171.39C529.659 171.78 528.079 172.26 527.119 172.83C525.499 173.79 524.689 175.27 524.689 177.29C524.689 179.08 525.189 180.37 526.199 181.16V181.15Z" fill="white"/>
<path d="M572.87 202.22C574.34 202.22 575.4 201.91 576.04 201.28C576.68 200.65 577 200 577 199.31C577 198.28 576.64 197.55 575.93 197.14C575.22 196.72 574.46 196.51 573.65 196.51C573.18 196.51 572.7 196.57 572.21 196.68C571.72 196.79 571.17 196.94 570.55 197.14L568.97 195.67L572.62 190.15C568 190.15 564.17 188.23 561.13 184.4C558.09 180.57 556.56 175.6 556.56 169.48C556.56 162.58 558.24 157.21 561.61 153.38C564.97 149.55 569.62 147.63 575.53 147.63C580.56 147.63 584.68 148.76 587.89 151.02C591.09 153.28 592.99 157.27 593.58 162.99H582.82C582.62 161.49 582.12 160.14 581.31 158.94C580.13 157.32 578.3 156.51 575.82 156.51C572.28 156.51 569.86 158.27 568.56 161.78C567.87 163.65 567.53 166.13 567.53 169.22C567.53 172.31 567.87 174.54 568.56 176.33C569.81 179.67 572.17 181.34 575.63 181.34C578.09 181.34 579.83 180.68 580.86 179.35C581.89 178.02 582.52 176.31 582.74 174.19H593.46C593.21 177.38 592.06 180.4 590 183.25C586.71 187.84 582.22 190.14 576.52 190.14L574.2 193.57C575.01 193.4 575.59 193.28 575.93 193.22C576.27 193.16 576.64 193.13 577.04 193.13C579.03 193.13 580.61 193.61 581.79 194.59C582.97 195.56 583.56 196.95 583.56 198.77C583.56 201.03 582.64 202.82 580.8 204.13C578.96 205.44 576.59 206.1 573.69 206.1C572.44 206.1 570.93 205.84 569.16 205.33C568.35 205.08 567.21 204.69 565.73 204.15L567.13 200.98C568.53 201.4 569.49 201.67 570 201.79C571.18 202.08 572.14 202.23 572.87 202.23V202.22Z" fill="white"/>
<path d="M602.299 152.93C605.069 149.39 609.839 147.63 616.589 147.63C620.989 147.63 624.889 148.5 628.299 150.25C631.709 151.99 633.419 155.28 633.419 160.12V178.54C633.419 179.82 633.439 181.36 633.489 183.18C633.559 184.56 633.769 185.49 634.119 185.98C634.459 186.47 634.979 186.88 635.669 187.2V188.75H624.249C623.929 187.94 623.709 187.18 623.589 186.47C623.469 185.76 623.369 184.95 623.299 184.04C621.849 185.61 620.179 186.95 618.289 188.05C616.029 189.35 613.479 190 610.629 190C606.999 190 603.989 188.96 601.619 186.89C599.249 184.82 598.069 181.88 598.069 178.07C598.069 173.13 599.969 169.56 603.779 167.35C605.869 166.15 608.939 165.29 612.989 164.77L616.559 164.33C618.499 164.08 619.889 163.78 620.719 163.41C622.219 162.77 622.969 161.78 622.969 160.43C622.969 158.79 622.399 157.65 621.259 157.02C620.119 156.39 618.439 156.08 616.229 156.08C613.749 156.08 611.989 156.69 610.959 157.92C610.219 158.83 609.729 160.06 609.489 161.6H599.359C599.579 158.09 600.559 155.2 602.309 152.94L602.299 152.93ZM622.519 142.14C621.759 142.14 620.679 141.96 619.279 141.59C618.469 141.39 617.699 141.17 616.959 140.93L613.979 139.94C613.559 139.79 613.159 139.69 612.759 139.63C612.369 139.57 611.969 139.54 611.579 139.54C610.649 139.54 609.889 139.81 609.299 140.35C608.709 140.92 608.289 141.69 608.049 142.67H603.259C603.799 140.14 604.499 138.23 605.359 136.92C606.929 134.59 609.259 133.42 612.359 133.42C613.019 133.42 613.669 133.49 614.309 133.64C614.949 133.79 615.489 133.95 615.929 134.12L619.389 135.41C620.419 135.75 621.099 135.98 621.419 136.07C621.739 136.17 622.099 136.22 622.489 136.22C623.669 136.22 624.499 135.91 624.979 135.28C625.459 134.65 625.809 133.91 626.029 133.05H630.929C630.489 135.63 629.609 137.79 628.299 139.53C626.989 141.27 625.059 142.15 622.539 142.15L622.519 142.14ZM610.099 181.15C611.079 181.96 612.289 182.37 613.709 182.37C615.969 182.37 618.049 181.71 619.949 180.38C621.849 179.05 622.839 176.64 622.919 173.12V169.22C622.259 169.64 621.589 169.98 620.909 170.23C620.229 170.49 619.309 170.73 618.129 170.95L615.769 171.39C613.559 171.78 611.979 172.26 611.019 172.83C609.399 173.79 608.589 175.27 608.589 177.29C608.589 179.08 609.089 180.37 610.099 181.16V181.15Z" fill="white"/>
<path d="M676.219 153.67C679.609 157.92 681.299 162.94 681.299 168.74C681.299 174.54 679.609 179.67 676.219 183.86C672.829 188.05 667.689 190.14 660.789 190.14C653.889 190.14 648.749 188.05 645.359 183.86C641.969 179.67 640.279 174.63 640.279 168.74C640.279 162.85 641.969 157.92 645.359 153.67C648.749 149.42 653.889 147.3 660.789 147.3C667.689 147.3 672.829 149.42 676.219 153.67ZM660.749 156.18C657.679 156.18 655.319 157.27 653.659 159.44C651.999 161.61 651.169 164.71 651.169 168.74C651.169 172.77 651.999 175.87 653.659 178.06C655.319 180.25 657.679 181.34 660.749 181.34C663.819 181.34 666.179 180.25 667.819 178.06C669.459 175.87 670.289 172.77 670.289 168.74C670.289 164.71 669.469 161.61 667.819 159.44C666.169 157.27 663.819 156.18 660.749 156.18Z" fill="white"/>
</svg>
