<svg width="78" height="78" viewBox="0 0 78 78" fill="none" xmlns="http://www.w3.org/2000/svg">
<path d="M50.45 59.23C50.35 59.23 50.24 59.23 50.14 59.23C50.16 59.23 50.1699 59.22 50.1899 59.21C50.2799 59.21 50.37 59.21 50.46 59.21L50.45 59.23Z" fill="black"/>
<path d="M36.36 32.6699L36.35 32.6599H36.36V32.6699Z" fill="black"/>
<path d="M51.1801 59.4199C51.1101 59.4699 51.04 59.5199 50.97 59.5499C51.15 59.4699 51.33 59.3999 51.53 59.3899C51.41 59.3899 51.3001 59.4099 51.1801 59.4199ZM51.1801 59.4199C51.1101 59.4699 51.04 59.5199 50.97 59.5499C51.15 59.4699 51.33 59.3999 51.53 59.3899C51.41 59.3899 51.3001 59.4099 51.1801 59.4199ZM51.1801 59.4199C51.1101 59.4699 51.04 59.5199 50.97 59.5499C51.15 59.4699 51.33 59.3999 51.53 59.3899C51.41 59.3899 51.3001 59.4099 51.1801 59.4199ZM51.1801 59.4199C51.1101 59.4699 51.04 59.5199 50.97 59.5499C51.15 59.4699 51.33 59.3999 51.53 59.3899C51.41 59.3899 51.3001 59.4099 51.1801 59.4199ZM51.1801 59.4199C51.1101 59.4699 51.04 59.5199 50.97 59.5499C51.15 59.4699 51.33 59.3999 51.53 59.3899C51.41 59.3899 51.3001 59.4099 51.1801 59.4199ZM51.1801 59.4199C51.1101 59.4699 51.04 59.5199 50.97 59.5499C51.15 59.4699 51.33 59.3999 51.53 59.3899C51.41 59.3899 51.3001 59.4099 51.1801 59.4199ZM51.1801 59.4199C51.1101 59.4699 51.04 59.5199 50.97 59.5499C51.15 59.4699 51.33 59.3999 51.53 59.3899C51.41 59.3899 51.3001 59.4099 51.1801 59.4199ZM51.1801 59.4199C51.1101 59.4699 51.04 59.5199 50.97 59.5499C51.15 59.4699 51.33 59.3999 51.53 59.3899C51.41 59.3899 51.3001 59.4099 51.1801 59.4199ZM51.1801 59.4199C51.1101 59.4699 51.04 59.5199 50.97 59.5499C51.15 59.4699 51.33 59.3999 51.53 59.3899C51.41 59.3899 51.3001 59.4099 51.1801 59.4199ZM51.1801 59.4199C51.1101 59.4699 51.04 59.5199 50.97 59.5499C51.15 59.4699 51.33 59.3999 51.53 59.3899C51.41 59.3899 51.3001 59.4099 51.1801 59.4199ZM51.1801 59.4199C51.1101 59.4699 51.04 59.5199 50.97 59.5499C51.15 59.4699 51.33 59.3999 51.53 59.3899C51.41 59.3899 51.3001 59.4099 51.1801 59.4199ZM51.1801 59.4199C51.1101 59.4699 51.04 59.5199 50.97 59.5499C51.15 59.4699 51.33 59.3999 51.53 59.3899C51.41 59.3899 51.3001 59.4099 51.1801 59.4199ZM51.1801 59.4199C51.1101 59.4699 51.04 59.5199 50.97 59.5499C51.15 59.4699 51.33 59.3999 51.53 59.3899C51.41 59.3899 51.3001 59.4099 51.1801 59.4199ZM51.1801 59.4199C51.1101 59.4699 51.04 59.5199 50.97 59.5499C51.15 59.4699 51.33 59.3999 51.53 59.3899C51.41 59.3899 51.3001 59.4099 51.1801 59.4199ZM51.1801 59.4199C51.1101 59.4699 51.04 59.5199 50.97 59.5499C51.15 59.4699 51.33 59.3999 51.53 59.3899C51.41 59.3899 51.3001 59.4099 51.1801 59.4199ZM51.1801 59.4199C51.1101 59.4699 51.04 59.5199 50.97 59.5499C51.15 59.4699 51.33 59.3999 51.53 59.3899C51.41 59.3899 51.3001 59.4099 51.1801 59.4199ZM51.1801 59.4199C51.1101 59.4699 51.04 59.5199 50.97 59.5499C51.15 59.4699 51.33 59.3999 51.53 59.3899C51.41 59.3899 51.3001 59.4099 51.1801 59.4199ZM51.1801 59.4199C51.1101 59.4699 51.04 59.5199 50.97 59.5499C51.15 59.4699 51.33 59.3999 51.53 59.3899C51.41 59.3899 51.3001 59.4099 51.1801 59.4199ZM51.1801 59.4199C51.1101 59.4699 51.04 59.5199 50.97 59.5499C51.15 59.4699 51.33 59.3999 51.53 59.3899C51.41 59.3899 51.3001 59.4099 51.1801 59.4199ZM51.1801 59.4199C51.1101 59.4699 51.04 59.5199 50.97 59.5499C51.15 59.4699 51.33 59.3999 51.53 59.3899C51.41 59.3899 51.3001 59.4099 51.1801 59.4199ZM51.1801 59.4199C51.1101 59.4699 51.04 59.5199 50.97 59.5499C51.15 59.4699 51.33 59.3999 51.53 59.3899C51.41 59.3899 51.3001 59.4099 51.1801 59.4199Z" fill="black"/>
<path d="M76.9399 35.0399C73.8999 6.15988 41.05 -9.13015 16.79 7.82985C11.49 11.5299 7.55997 16.4099 4.48997 22.0399C4.21997 22.1899 4.32001 22.5099 4.16001 22.7199C2.17001 27.4299 0.819956 32.2799 0.599956 37.4199C0.329956 43.7399 1.68001 49.7199 4.16001 55.4899C4.31001 55.6999 4.20997 56.0199 4.48997 56.1699C4.70997 56.5299 4.94 56.8899 5.14 57.2599C9.23 64.6299 14.94 70.3599 22.66 73.7899C36.08 79.7599 49.1399 78.7799 61.0799 70.2299C72.9999 61.6899 78.47 49.6899 76.93 35.0399H76.9399ZM63.8 30.4199C63.64 36.6899 63.77 42.9699 63.76 49.2499C63.74 57.9699 57.61 64.1199 48.88 64.1499C42.55 64.1799 36.22 64.1499 29.89 64.1499C21.14 64.1499 16.0999 60.1599 14.0899 51.6599C14.0899 51.6399 14.0899 51.6299 14.0699 51.6199C13.8199 50.8999 13.99 50.1699 13.98 49.4399C13.96 42.0699 13.98 34.6899 13.98 27.3199C13.98 27.0499 13.98 26.7899 14.12 26.5399C14.8 23.7699 15.75 21.1299 17.87 19.0799C18.87 17.8399 20.06 16.8499 21.54 16.2299C23.62 14.8499 25.98 14.4099 28.4 14.3899C35.36 14.3399 42.33 14.3899 49.29 14.3699C52.32 14.3699 55.06 15.3299 57.62 16.8598C58.15 17.2899 58.69 17.7199 59.22 18.1499C62.57 21.5599 63.92 25.6399 63.79 30.4099L63.8 30.4199Z" fill="#DF6939"/>
<path d="M50.45 59.23C50.35 59.23 50.24 59.23 50.14 59.23C50.16 59.23 50.1699 59.22 50.1899 59.21C50.2799 59.21 50.37 59.21 50.46 59.21L50.45 59.23Z" fill="#FDFDFD"/>
<path d="M36.36 32.6699L36.35 32.6599H36.36V32.6699Z" fill="#FDFDFD"/>
<path d="M51.1801 59.4199C51.1101 59.4699 51.04 59.5199 50.97 59.5499C51.15 59.4699 51.33 59.3999 51.53 59.3899C51.41 59.3899 51.3001 59.4099 51.1801 59.4199Z" fill="#FDFDFD"/>
<path d="M51.1801 59.4199C51.1101 59.4699 51.04 59.5199 50.97 59.5499C51.15 59.4699 51.33 59.3999 51.53 59.3899C51.41 59.3899 51.3001 59.4099 51.1801 59.4199Z" fill="#060606"/>
<path d="M50.45 59.23C50.35 59.23 50.24 59.23 50.14 59.23C50.16 59.23 50.1699 59.22 50.1899 59.21C50.2799 59.21 50.37 59.21 50.46 59.21L50.45 59.23Z" fill="black"/>
<path d="M36.36 32.6699L36.35 32.6599H36.36V32.6699Z" fill="black"/>
<path d="M50.45 59.23C50.35 59.23 50.24 59.23 50.14 59.23C50.16 59.23 50.1699 59.22 50.1899 59.21C50.2799 59.21 50.37 59.21 50.46 59.21L50.45 59.23Z" fill="#060606"/>
<path d="M36.36 32.6699L36.35 32.6599H36.36V32.6699Z" fill="#FDFDFD"/>
<path d="M59.24 28.15C58.12 22.3699 54.8001 19.18 49.6601 19.14C42.4201 19.08 35.18 19.08 27.94 19.14C22.99 19.19 18.79 23.1299 18.69 28.0499C18.54 35.6099 18.56 43.1799 18.69 50.7399C18.77 55.2299 22.4101 58.9899 26.6801 59.4299C27.1001 59.7599 27.6 59.67 28.08 59.67C35.32 59.67 42.5601 59.67 49.7901 59.67C49.9901 59.67 50.2001 59.69 50.4101 59.67C50.4501 59.67 50.48 59.67 50.5201 59.67C50.6701 59.66 50.83 59.63 50.97 59.56C51.04 59.52 51.1101 59.4799 51.1801 59.4299C51.3001 59.4199 51.4101 59.4099 51.5301 59.3999C51.5901 59.3999 51.66 59.4 51.72 59.38C51.84 59.38 51.9501 59.36 52.0601 59.34C52.1301 59.33 52.2101 59.31 52.2801 59.29C56.7201 57.82 58.89 54.62 59.25 50.06C59.25 42.76 59.25 35.46 59.25 28.16L59.24 28.15ZM50.14 59.2399C50.14 59.2399 50.17 59.23 50.19 59.22C50.28 59.22 50.37 59.22 50.46 59.22C50.36 59.22 50.2501 59.22 50.1501 59.22L50.14 59.2399ZM50.1501 45.7C46.7001 51.96 38.82 54.15 32.63 50.69C26.36 47.18 24.1501 39.3099 27.6601 33.0199C31.0901 26.8699 38.97 24.6799 45.22 28.15C45.69 28.41 46.14 28.6899 46.61 28.9599C47.47 29.7899 48.34 30.6299 49.2 31.4599C52.22 36.0299 52.8401 40.8 50.1501 45.7ZM52.26 29.0499C50.67 29.0799 49.28 27.74 49.22 26.12C49.16 24.41 50.48 23.0099 52.19 22.9899C53.79 22.9699 55.19 24.3 55.25 25.89C55.31 27.53 53.9 29.02 52.25 29.04L52.26 29.0499Z" fill="#DF6939"/>
<path d="M44.96 33.66C42.19 30.71 37.8801 30.2 34.4301 32.42C33.9801 32.58 33.61 32.85 33.36 33.26C29.95 36.32 29.65 40.39 32.5 44.87C32.94 45.28 33.3701 45.69 33.8101 46.1C34.3301 46.38 34.83 46.68 35.36 46.93C38.99 48.66 43.3001 47.55 45.6601 44.28C48.0301 40.99 47.75 36.63 44.96 33.66ZM36.35 32.66H36.36C36.36 32.66 36.36 32.66 36.35 32.66Z" fill="#DF6939"/>
</svg>
