<svg width="740" height="203" viewBox="0 0 740 203" fill="none" xmlns="http://www.w3.org/2000/svg">
<path d="M682.74 0.890137H57.2496C26.1008 0.890137 0.849609 26.1413 0.849609 57.2901V146.43C0.849609 177.579 26.1008 202.83 57.2496 202.83H682.74C713.888 202.83 739.14 177.579 739.14 146.43V57.2901C739.14 26.1413 713.888 0.890137 682.74 0.890137Z" fill="#FFFEFE"/>
<path d="M48.5901 90.6599C50.2101 90.6599 51.5301 90.4799 52.5401 90.1299C54.4601 89.4499 55.4201 88.1799 55.4201 86.3199C55.4201 85.2299 54.9401 84.3999 53.9901 83.7999C53.0401 83.2199 51.5401 82.7098 49.5101 82.2598L46.0301 81.4798C42.6101 80.7098 40.2501 79.8699 38.9401 78.9599C36.7201 77.4399 35.6201 75.0699 35.6201 71.8499C35.6201 68.8999 36.6901 66.4598 38.8301 64.5098C40.9701 62.5598 44.1201 61.5898 48.2601 61.5898C51.7201 61.5898 54.6801 62.5099 57.1301 64.3499C59.5801 66.1899 60.8601 68.8498 60.9801 72.3398H54.3801C54.2601 70.3598 53.4001 68.9599 51.7901 68.1299C50.7201 67.5799 49.3901 67.2999 47.8001 67.2999C46.0301 67.2999 44.6201 67.6598 43.5601 68.3698C42.5001 69.0798 41.9801 70.0798 41.9801 71.3598C41.9801 72.5398 42.5001 73.4099 43.5401 73.9899C44.2101 74.3799 45.6401 74.8299 47.8201 75.3499L53.4901 76.7099C55.9701 77.3099 57.8501 78.0999 59.1101 79.0999C61.0701 80.6399 62.0501 82.8798 62.0501 85.8098C62.0501 88.7398 60.9001 91.3099 58.6001 93.2899C56.3001 95.2799 53.0601 96.2698 48.8601 96.2698C44.6601 96.2698 41.2101 95.2898 38.7601 93.3398C36.3101 91.3798 35.0801 88.6998 35.0801 85.2798H41.6401C41.8501 86.7798 42.2601 87.8998 42.8701 88.6498C43.9801 89.9998 45.9001 90.6798 48.6001 90.6798L48.5901 90.6599Z" fill="#131B53"/>
<path d="M66.5898 62.54H73.4198V95.41H66.5898V62.54Z" fill="#131B53"/>
<path d="M103.7 62.54V68.36H93.8603V95.41H86.9503V68.36H77.0703V62.54H103.7Z" fill="#131B53"/>
<path d="M130.6 81.05H114.63V89.5H132.83V95.41H107.92V62.54H132.03V68.36H114.63V75.34H130.6V81.05Z" fill="#131B53"/>
<path d="M174.06 92.9597C171.61 95.2097 168.47 96.3297 164.65 96.3297C159.92 96.3297 156.2 94.8097 153.5 91.7797C150.79 88.7297 149.44 84.5497 149.44 79.2397C149.44 73.4997 150.98 69.0797 154.06 65.9697C156.74 63.2597 160.14 61.9097 164.28 61.9097C169.81 61.9097 173.85 63.7197 176.41 67.3497C177.82 69.3897 178.58 71.4297 178.68 73.4797H171.81C171.36 71.9097 170.79 70.7197 170.09 69.9097C168.84 68.4797 166.99 67.7697 164.54 67.7697C162.09 67.7697 160.07 68.7797 158.63 70.7897C157.19 72.8097 156.47 75.6597 156.47 79.3397C156.47 83.0197 157.23 85.7897 158.76 87.6297C160.28 89.4697 162.22 90.3897 164.57 90.3897C166.92 90.3897 168.81 89.5997 170.08 88.0197C170.78 87.1697 171.36 85.8997 171.82 84.2097H178.62C178.03 87.7897 176.51 90.7097 174.07 92.9497L174.06 92.9597Z" fill="#131B53"/>
<path d="M198.4 96.3298C193.7 96.3298 190.11 95.0498 187.63 92.4898C184.3 89.3498 182.63 84.8298 182.63 78.9298C182.63 73.0298 184.3 68.3898 187.63 65.3698C190.11 62.8098 193.7 61.5298 198.4 61.5298C203.1 61.5298 206.69 62.8098 209.17 65.3698C212.48 68.3898 214.14 72.9098 214.14 78.9298C214.14 84.9498 212.48 89.3498 209.17 92.4898C206.69 95.0498 203.09 96.3298 198.4 96.3298ZM204.89 87.4898C206.48 85.4798 207.28 82.6298 207.28 78.9298C207.28 75.2298 206.48 72.3898 204.88 70.3798C203.28 68.3598 201.12 67.3598 198.4 67.3598C195.68 67.3598 193.51 68.3598 191.89 70.3698C190.27 72.3798 189.46 75.2298 189.46 78.9298C189.46 82.6298 190.27 85.4898 191.89 87.4898C193.51 89.4998 195.68 90.4998 198.4 90.4998C201.12 90.4998 203.28 89.4998 204.89 87.4898Z" fill="#131B53"/>
<path d="M225.68 95.41H219.28V62.54H229.27L235.25 88.39L241.18 62.54H251.06V95.41H244.66V73.17C244.66 72.53 244.66 71.64 244.68 70.48C244.69 69.33 244.7 68.4401 244.7 67.8201L238.48 95.41H231.81L225.63 67.8201C225.63 68.4401 225.63 69.33 225.65 70.48C225.66 71.63 225.67 72.53 225.67 73.17V95.41H225.68Z" fill="#131B53"/>
<path d="M271.4 83.59H264.42V95.41H257.59V62.54H271.91C275.21 62.54 277.84 63.39 279.81 65.08C281.77 66.77 282.76 69.4 282.76 72.95C282.76 76.83 281.78 79.57 279.81 81.18C277.85 82.79 275.04 83.59 271.4 83.59ZM274.61 76.7401C275.5 75.9501 275.95 74.7001 275.95 72.9901C275.95 71.2801 275.5 70.06 274.6 69.33C273.7 68.6 272.44 68.2401 270.82 68.2401H264.42V77.92H270.82C272.44 77.92 273.7 77.5301 274.61 76.7401Z" fill="#131B53"/>
<path d="M303.78 88.65H291.67L289.4 95.41H282.22L293.95 62.54H301.71L313.35 95.41H305.9L303.78 88.65ZM301.86 82.9901L297.76 70.05L293.52 82.9901H301.86Z" fill="#131B53"/>
<path d="M338.04 62.54V68.36H328.2V95.41H321.29V68.36H311.41V62.54H338.04Z" fill="#131B53"/>
<path d="M341.2 59.2598L345.48 52.5898H352.57L345.79 59.2598H341.2ZM341.52 62.5398H348.35V95.4099H341.52V62.5398Z" fill="#131B53"/>
<path d="M352.311 62.54H359.651L366.791 87.5L373.991 62.54H381.131L369.911 95.41H363.421L352.311 62.54Z" fill="#131B53"/>
<path d="M408.09 81.05H392.12V89.5H410.32V95.41H385.41V62.54H409.52V68.36H392.12V75.34H408.09V81.05Z" fill="#131B53"/>
<path d="M415.68 62.54H422.55V89.5101H438.83V95.4201H415.68V62.55V62.54Z" fill="#131B53"/>
<path d="M478.66 92.9597C476.21 95.2097 473.07 96.3297 469.25 96.3297C464.52 96.3297 460.8 94.8097 458.1 91.7797C455.39 88.7297 454.04 84.5497 454.04 79.2397C454.04 73.4997 455.58 69.0797 458.66 65.9697C461.34 63.2597 464.74 61.9097 468.88 61.9097C474.41 61.9097 478.45 63.7197 481.01 67.3497C482.42 69.3897 483.18 71.4297 483.28 73.4797H476.41C475.96 71.9097 475.39 70.7197 474.69 69.9097C473.44 68.4797 471.59 67.7697 469.14 67.7697C466.69 67.7697 464.67 68.7797 463.23 70.7897C461.79 72.8097 461.07 75.6597 461.07 79.3397C461.07 83.0197 461.83 85.7897 463.36 87.6297C464.88 89.4697 466.82 90.3897 469.17 90.3897C471.52 90.3897 473.41 89.5997 474.68 88.0197C475.38 87.1697 475.96 85.8997 476.42 84.2097H483.22C482.63 87.7897 481.11 90.7097 478.67 92.9497L478.66 92.9597Z" fill="#131B53"/>
<path d="M502.99 96.3298C498.29 96.3298 494.7 95.0498 492.22 92.4898C488.89 89.3498 487.22 84.8298 487.22 78.9298C487.22 73.0298 488.89 68.3898 492.22 65.3698C494.7 62.8098 498.29 61.5298 502.99 61.5298C507.69 61.5298 511.28 62.8098 513.76 65.3698C517.07 68.3898 518.73 72.9098 518.73 78.9298C518.73 84.9498 517.07 89.3498 513.76 92.4898C511.28 95.0498 507.68 96.3298 502.99 96.3298ZM509.48 87.4898C511.07 85.4798 511.87 82.6298 511.87 78.9298C511.87 75.2298 511.07 72.3898 509.47 70.3798C507.87 68.3598 505.71 67.3598 502.99 67.3598C500.27 67.3598 498.1 68.3598 496.48 70.3698C494.86 72.3798 494.05 75.2298 494.05 78.9298C494.05 82.6298 494.86 85.4898 496.48 87.4898C498.1 89.4998 500.27 90.4998 502.99 90.4998C505.71 90.4998 507.87 89.4998 509.48 87.4898Z" fill="#131B53"/>
<path d="M530.27 95.41H523.87V62.54H533.86L539.84 88.39L545.77 62.54H555.65V95.41H549.25V73.17C549.25 72.53 549.25 71.64 549.27 70.48C549.28 69.33 549.29 68.4401 549.29 67.8201L543.07 95.41H536.4L530.22 67.8201C530.22 68.4401 530.22 69.33 530.24 70.48C530.25 71.63 530.26 72.53 530.26 73.17V95.41H530.27Z" fill="#131B53"/>
<path d="M128.01 117.35H134.88V144.32H151.16V150.23H128.01V117.36V117.35Z" fill="#131B53"/>
<path d="M178.79 135.86H162.82V144.31H181.02V150.22H156.11V117.35H180.22V123.17H162.82V130.15H178.79V135.86Z" fill="#131B53"/>
<path d="M185.84 117.35H192.67V150.22H185.84V117.35Z" fill="#131B53"/>
<path d="M222.95 117.35V123.17H213.11V150.22H206.2V123.17H196.32V117.35H222.95Z" fill="#131B53"/>
<path d="M240.71 151.14C236.01 151.14 232.42 149.86 229.94 147.3C226.61 144.16 224.94 139.64 224.94 133.74C224.94 127.84 226.61 123.2 229.94 120.18C232.42 117.62 236.01 116.34 240.71 116.34C245.41 116.34 249 117.62 251.48 120.18C254.79 123.2 256.45 127.72 256.45 133.74C256.45 139.76 254.79 144.16 251.48 147.3C249 149.86 245.4 151.14 240.71 151.14ZM247.2 142.31C248.79 140.3 249.59 137.45 249.59 133.75C249.59 130.05 248.79 127.21 247.19 125.2C245.59 123.18 243.43 122.18 240.71 122.18C237.99 122.18 235.82 123.18 234.2 125.19C232.58 127.2 231.77 130.05 231.77 133.75C231.77 137.45 232.58 140.31 234.2 142.31C235.82 144.32 237.99 145.32 240.71 145.32C243.43 145.32 245.59 144.32 247.2 142.31Z" fill="#131B53"/>
<path d="M275.66 137.33H268.57V150.22H261.86V117.35H277.99C280.29 117.4 282.07 117.68 283.31 118.2C284.55 118.72 285.6 119.49 286.47 120.5C287.18 121.33 287.75 122.25 288.16 123.26C288.58 124.27 288.78 125.42 288.78 126.72C288.78 128.28 288.39 129.82 287.6 131.33C286.81 132.84 285.51 133.91 283.7 134.53C285.22 135.14 286.29 136.01 286.92 137.13C287.55 138.25 287.87 139.97 287.87 142.27V144.48C287.87 145.98 287.93 147 288.05 147.54C288.23 148.39 288.64 149.01 289.3 149.41V150.24H281.74C281.53 149.51 281.38 148.92 281.29 148.48C281.11 147.56 281.01 146.61 281 145.65L280.96 142.6C280.93 140.5 280.55 139.11 279.81 138.41C279.08 137.71 277.7 137.36 275.67 137.36L275.66 137.33ZM279.83 131.36C281.2 130.73 281.88 129.5 281.88 127.66C281.88 125.67 281.22 124.33 279.9 123.65C279.16 123.26 278.04 123.07 276.55 123.07H268.57V131.9H276.35C277.89 131.9 279.05 131.72 279.83 131.37V131.36Z" fill="#131B53"/>
<path d="M317.56 135.86H301.59V144.31H319.79V150.22H294.88V117.35H318.99V123.17H301.59V130.15H317.56V135.86Z" fill="#131B53"/>
<path d="M337.08 145.469C338.7 145.469 340.02 145.289 341.03 144.939C342.95 144.259 343.91 142.989 343.91 141.129C343.91 140.039 343.43 139.209 342.48 138.609C341.53 138.029 340.03 137.519 338 137.069L334.52 136.289C331.1 135.519 328.74 134.679 327.43 133.769C325.21 132.249 324.11 129.879 324.11 126.659C324.11 123.709 325.18 121.269 327.32 119.319C329.46 117.369 332.61 116.399 336.75 116.399C340.21 116.399 343.17 117.319 345.62 119.159C348.07 120.999 349.35 123.659 349.47 127.149H342.87C342.75 125.169 341.89 123.769 340.28 122.939C339.21 122.389 337.88 122.109 336.29 122.109C334.52 122.109 333.11 122.469 332.05 123.179C330.99 123.889 330.47 124.889 330.47 126.169C330.47 127.349 330.99 128.219 332.03 128.799C332.7 129.189 334.13 129.639 336.31 130.159L341.98 131.519C344.46 132.119 346.34 132.909 347.6 133.909C349.56 135.449 350.54 137.689 350.54 140.619C350.54 143.549 349.39 146.119 347.09 148.099C344.79 150.079 341.55 151.079 337.35 151.079C333.15 151.079 329.7 150.099 327.25 148.149C324.8 146.189 323.57 143.509 323.57 140.089H330.13C330.34 141.589 330.75 142.709 331.36 143.459C332.47 144.809 334.39 145.489 337.09 145.489L337.08 145.469Z" fill="#131B53"/>
<path d="M382.46 150.22H368.3V117.35H382.46C384.5 117.38 386.19 117.62 387.55 118.06C389.85 118.82 391.72 120.21 393.15 122.23C394.29 123.87 395.07 125.64 395.49 127.54C395.91 129.44 396.12 131.26 396.12 132.98C396.12 137.35 395.24 141.05 393.49 144.09C391.11 148.18 387.44 150.22 382.47 150.22H382.46ZM387.57 125.73C386.51 123.94 384.43 123.05 381.3 123.05H374.97V144.51H381.3C384.54 144.51 386.8 142.91 388.08 139.72C388.78 137.96 389.13 135.88 389.13 133.45C389.13 130.11 388.61 127.53 387.57 125.73Z" fill="#131B53"/>
<path d="M424.17 135.86H408.2V144.31H426.4V150.22H401.49V117.35H425.6V123.17H408.2V130.15H424.17V135.86Z" fill="#131B53"/>
<path d="M468.33 117.35V123.17H458.49V150.22H451.58V123.17H441.7V117.35H468.33Z" fill="#131B53"/>
<path d="M495.23 135.86H479.26V144.31H497.46V150.22H472.55V117.35H496.66V123.17H479.26V130.15H495.23V135.86Z" fill="#131B53"/>
<path d="M502.811 117.35H509.681V144.32H525.961V150.23H502.811V117.36V117.35Z" fill="#131B53"/>
<path d="M549.96 143.469H537.85L535.58 150.229H528.4L540.13 117.359H547.89L559.53 150.229H552.08L549.96 143.469ZM548.04 137.799L543.94 124.859L539.7 137.799H548.04Z" fill="#131B53"/>
<path d="M658.57 94.28C658.59 79.08 648.07 66.56 633.17 64.06C620.51 61.93 607.9 68.3301 602.06 79.8301C601.29 81.3501 600.24 82.0401 598.95 81.8601C596.94 81.5801 595.9 79.58 596.82 77.65C599.13 72.78 602.44 68.7 606.7 65.4C627.76 49.13 658.86 61.11 663.58 87.31C665.71 99.15 662.69 109.65 655.12 118.87C652.64 121.9 650.08 124.91 647.22 127.57C640.8 133.53 636.31 140.71 632.99 148.71C631.67 151.89 630.17 154.96 627.96 157.65C618.5 169.15 600.79 167.96 593.37 155.3C591.53 152.16 590.68 148.74 590.63 145.12C590.61 143.31 591.83 142 593.46 141.98C595.09 141.97 596.28 143.24 596.35 145.08C596.58 151.69 600.2 156.79 606.2 158.98C612.13 161.14 618.67 159.6 622.86 154.73C624.52 152.8 625.76 150.48 626.97 148.21C628.33 145.65 629.4 142.93 630.66 140.32C633.31 134.81 636.87 129.96 641.19 125.61C644.69 122.09 648.08 118.43 651.24 114.61C656.08 108.75 658.53 101.93 658.57 94.2901V94.28Z" fill="#DF6939"/>
<path d="M615.37 86.48C617.25 86.35 619.01 86.12 620.76 86.14C630.74 86.22 639.51 94.07 640.8 103.97C641.52 109.52 640.43 114.66 637.35 119.33C634.52 123.62 630.42 126.06 625.47 127.01C621.21 127.83 618.9 130.35 617.87 134.45C616.53 139.76 612.6 142.96 607.7 142.79C603.68 142.65 600.68 140.69 598.93 137.08C597.18 133.46 597.6 129.93 599.92 126.66C600.93 125.23 602.68 124.9 603.96 125.79C605.32 126.74 605.58 128.43 604.54 129.96C603.39 131.63 603.26 133.35 604.31 135.07C605.29 136.68 606.84 137.34 608.68 137.03C610.64 136.7 611.73 135.37 612.26 133.5C612.61 132.26 612.99 131.02 613.43 129.81C614.94 125.73 617.8 123.1 622.04 122.03C622.9 121.81 623.75 121.54 624.62 121.36C630.39 120.14 633.58 116.37 634.92 110.85C636.93 102.54 632.17 94.39 624.08 92.26C620.95 91.44 617.85 91.65 614.8 92.79C614.01 93.09 613.63 93.52 613.86 94.31C614.44 96.31 615.06 98.3 615.69 100.28C615.89 100.92 616.36 101.01 617.02 100.97C621.06 100.69 624.64 103.55 625.23 107.48C625.84 111.51 623.3 115.24 619.26 116.18C618.64 116.32 617.98 116.38 617.34 116.35C616.01 116.3 614.95 115.24 614.75 113.89C614.57 112.6 615.4 111.27 616.67 110.87C617.09 110.74 617.54 110.72 617.98 110.62C619.15 110.36 619.79 109.3 619.51 108.14C619.24 107.05 618.07 106.41 616.94 106.76C614.28 107.58 613.71 107.39 612.06 105.14C602.94 92.75 610.31 75.2 625.54 73.05C635.95 71.58 646.1 79.05 647.82 89.46C647.98 90.41 648.08 91.38 648.09 92.35C648.11 93.96 646.96 95.16 645.43 95.24C643.97 95.31 642.8 94.25 642.51 92.72C642.17 90.95 641.99 89.08 641.28 87.45C638.95 82.04 634.73 79 628.84 78.66C623.46 78.35 619.23 80.66 616.16 85.09C615.87 85.51 615.65 85.98 615.38 86.46L615.37 86.48Z" fill="#DF6939"/>
<path d="M674.86 90.3699C674.68 90.3699 674.49 90.3499 674.31 90.3099C673 90.0099 672.19 88.7 672.49 87.39C676.09 71.83 664.5 66.36 664 66.13C662.78 65.58 662.241 64.14 662.781 62.92C663.331 61.7 664.75 61.15 665.98 61.69C666.15 61.76 670.06 63.53 673.38 67.74C676.43 71.61 679.57 78.34 677.22 88.49C676.96 89.61 675.96 90.3699 674.85 90.3699H674.86Z" fill="#DF6939"/>
<path d="M686.4 95.5603C686.19 95.5603 685.98 95.5403 685.77 95.4903C684.27 95.1403 683.33 93.6403 683.68 92.1403C686.34 80.6603 684.62 70.9403 678.56 63.2603C674.06 57.5603 668.85 55.2003 668.8 55.1803C667.39 54.5503 666.75 52.9003 667.38 51.4903C668.01 50.0803 669.66 49.4403 671.07 50.0703C671.33 50.1903 677.61 53.0203 682.95 59.8003C687.87 66.0403 692.94 76.9403 689.13 93.4003C688.83 94.6903 687.68 95.5703 686.41 95.5703L686.4 95.5603Z" fill="#DF6939"/>
<path d="M700.171 97.8601C699.941 97.8601 699.711 97.8301 699.481 97.7801C697.851 97.4001 696.831 95.7701 697.211 94.1301C699.191 85.5801 699.351 77.6401 697.701 70.5201C696.391 64.8801 693.931 59.7101 690.401 55.1701C684.301 47.3301 676.991 43.9901 676.921 43.9501C675.391 43.2601 674.711 41.4701 675.391 39.9401C676.071 38.4101 677.861 37.7201 679.391 38.4001C679.741 38.5501 687.961 42.2701 695.001 51.1901C699.141 56.4401 702.021 62.4101 703.571 68.9401C705.481 77.0201 705.331 85.9601 703.131 95.4901C702.801 96.8901 701.561 97.8401 700.171 97.8401V97.8601Z" fill="#DF6939"/>
</svg>
