<svg width="728" height="239" viewBox="0 0 728 239" fill="none" xmlns="http://www.w3.org/2000/svg">
<path d="M176.48 112.48C176.46 95.4402 166.34 82.9202 149.63 79.4602C146.68 78.8402 146.01 77.4602 146.07 74.8002C146.2 69.0902 146.13 63.3702 146.1 57.6502C145.98 27.7702 126.91 5.8502 97.2901 1.5602C65.5701 -3.0398 38.1401 15.9102 32.5001 47.2002C30.9001 56.0802 31.7801 65.4202 31.7401 74.5602C31.7201 77.4402 31.0601 78.8702 27.8701 79.4802C11.6401 82.5702 1.17008 95.2102 1.08008 112.06C0.930078 143.26 0.910078 174.44 1.08008 205.63C1.19008 225.04 15.2901 238.8 34.6801 238.84C52.6501 238.89 70.6101 238.84 88.5701 238.84C106.53 238.84 124.5 238.87 142.46 238.84C162.41 238.81 176.47 224.89 176.5 205.07C176.54 174.21 176.53 143.34 176.5 112.48H176.48ZM110.94 198.82C104.1 198.73 97.2501 198.79 90.4101 198.79C83.7301 198.79 77.0501 198.69 70.3601 198.84C67.1401 198.92 65.6201 198.06 65.7501 194.45C65.9901 187.62 65.7101 180.76 65.8501 173.92C66.1201 160.64 76.7901 149.85 89.7101 149.61C103.13 149.37 114.27 159.53 114.93 173.01C115.29 180.32 114.91 187.67 115.1 195C115.18 198.19 113.68 198.86 110.95 198.82H110.94ZM72.8101 129.61C72.9701 120.17 81.1101 112.27 90.5901 112.36C100.05 112.44 108.09 120.58 108 129.96C107.9 139.35 99.7101 147.3 90.2401 147.2C80.7601 147.11 72.6501 138.93 72.8101 129.61ZM128.22 78.7402C115.01 78.6202 101.81 78.6902 88.6001 78.6902C75.3901 78.6902 62.8301 78.5902 49.9601 78.7602C46.4801 78.8002 44.9801 78.0302 45.1101 74.1802C45.4901 62.8202 44.2601 51.3902 48.7401 40.4102C56.9101 20.3302 73.9701 9.6502 94.4401 12.1602C113.39 14.4902 129.22 30.6002 131.64 50.7502C132.59 58.6402 132.22 66.6902 132.61 74.6602C132.78 78.0102 131.25 78.7602 128.23 78.7402H128.22Z" fill="white"/>
<path d="M108 129.96C107.9 139.35 99.71 147.3 90.24 147.2C80.76 147.11 72.6499 138.93 72.8099 129.61C72.9699 120.17 81.1099 112.27 90.5899 112.36C100.05 112.44 108.09 120.58 108 129.96Z" fill="#DF6939"/>
<path d="M115.1 194.99C115.18 198.18 113.68 198.85 110.95 198.81C104.11 198.72 97.2596 198.78 90.4196 198.78C83.7396 198.78 77.0596 198.68 70.3696 198.83C67.1496 198.91 65.6296 198.05 65.7596 194.44C65.9996 187.61 65.7196 180.75 65.8596 173.91C66.1296 160.63 76.7996 149.84 89.7196 149.6C103.14 149.36 114.28 159.52 114.94 173C115.3 180.31 114.92 187.66 115.11 194.99H115.1Z" fill="#DF6939"/>
<path d="M598.4 231.83V85.8504C599.56 85.7204 600.79 85.4604 602.02 85.4604C619.48 85.4404 636.95 85.2404 654.41 85.4904C689 85.9904 716.4 106.69 724.5 138.75C735.68 183.03 709.22 230.76 654.78 232.1C637.16 232.53 619.53 232.2 601.9 232.19C600.81 232.19 599.71 231.97 598.41 231.83H598.4ZM631.38 205.06C639.28 205.06 646.92 205.39 654.52 204.99C668.44 204.26 679.09 197.53 685.95 185.54C693.88 171.68 695.12 156.82 690.3 141.63C684.88 124.52 673.04 114.73 655.23 112.72C648.94 112.01 642.51 112.73 636.17 112.37C631.98 112.13 631 113.7 631.02 117.67C631.17 145.23 631.1 172.8 631.11 200.37C631.11 201.8 631.27 203.23 631.38 205.07V205.06Z" fill="white"/>
<path d="M437.26 126.88C429.58 126.88 421.78 126.94 413.98 126.8C413.08 126.78 411.9 125.92 411.36 125.1C402.43 111.47 389.1 108.01 374.17 110.06C352.42 113.04 338.51 128.27 336.18 150.38C335.16 160.06 335.64 169.6 338.98 178.85C345.04 195.62 356.99 205.34 374.58 207.63C384.36 208.9 394.1 207.81 403.59 204.81C406.91 203.76 408.21 202.05 408.06 198.46C407.77 191.5 407.98 184.52 407.98 177.03H376.91V152.86H438.8C438.8 154.59 438.8 156.33 438.8 158.06C438.8 175.52 438.6 192.99 438.93 210.45C439.02 215.19 437.26 218.1 433.7 220.62C424.19 227.34 413.54 231.23 402.19 233.29C385.76 236.28 369.37 236.28 353.26 231.45C324.64 222.87 305.86 199.47 303.22 169.64C301.94 155.14 302.82 140.87 308.44 127.32C319.25 101.28 339.44 87.41 366.88 83.45C380.62 81.46 394.24 82.33 407.54 86.46C411.41 87.66 415.21 89.27 418.79 91.18C432.69 98.61 441.12 109.14 437.25 126.9L437.26 126.88Z" fill="white"/>
<path d="M500.67 184.06V231.76H468V86.1103C468.37 85.8903 468.64 85.5903 468.91 85.5903C488.81 85.8203 508.76 85.2403 528.59 86.5703C544.99 87.6703 559.27 94.6503 568.16 109.44C581.35 131.39 575.72 169.62 538.62 180.7C529.89 183.31 520.31 183.1 511.1 184C507.9 184.31 504.65 184.05 500.68 184.05L500.67 184.06ZM499.85 111.53C499.85 126.78 499.78 140.81 500 154.82C500.02 155.82 502.08 157.57 503.27 157.64C508.48 157.93 513.73 158.03 518.93 157.64C531.48 156.68 540.41 148.27 541.31 136.97C542.29 124.54 536.07 115.19 523.99 112.96C516.4 111.56 508.48 111.98 499.86 111.53H499.85Z" fill="white"/>
<path d="M234.1 85.7603V205.31H294.78V231.73H201.44V85.7603H234.1Z" fill="white"/>
</svg>
