<svg width="448" height="164" viewBox="0 0 448 164" fill="none" xmlns="http://www.w3.org/2000/svg">
<path d="M152.74 90.1799V110.39H145.86V74.1499L167.9 96.1399V75.9799H174.73V112.22L152.74 90.1799Z" fill="#131B53" stroke="#131B53" stroke-width="0.88" stroke-miterlimit="10"/>
<path d="M177.19 93.16C177.19 83.1 185.13 75.26 195.28 75.26C205.43 75.26 213.42 83.1 213.42 93.16C213.42 103.22 205.48 111.11 195.28 111.11C185.08 111.11 177.19 103.27 177.19 93.16ZM206.45 93.16C206.45 86.81 201.59 81.85 195.29 81.85C188.99 81.85 184.17 86.81 184.17 93.16C184.17 99.51 189.03 104.52 195.29 104.52C201.55 104.52 206.45 99.56 206.45 93.16Z" fill="#131B53" stroke="#131B53" stroke-width="0.88" stroke-miterlimit="10"/>
<path d="M210.44 75.98H218L224.79 94.99L231.53 75.98H238.36L224.4 112.22L210.44 75.98Z" fill="#131B53" stroke="#131B53" stroke-width="0.88" stroke-miterlimit="10"/>
<path d="M254.19 103.36H240.81L237.63 110.39H230.22L247.79 74.1499L265.36 110.39H257.28L254.2 103.36H254.19ZM251.64 97.4899L247.6 88.2999L243.46 97.4899H251.64Z" fill="#131B53" stroke="#131B53" stroke-width="0.88" stroke-miterlimit="10"/>
<path d="M278.69 75.98H285.67V110.39H278.69V75.98Z" fill="#131B53" stroke="#131B53" stroke-width="0.88" stroke-miterlimit="10"/>
<path d="M323.92 93.4C323.92 103.36 316.8 111.11 306.74 111.11C296.68 111.11 288.6 103.27 288.6 93.16C288.6 83.05 296.54 75.26 306.98 75.26C312.18 75.26 316.7 77.14 319.88 80.22L315.31 85.13C313.29 83.16 310.35 81.86 306.98 81.86C300.44 81.86 295.57 86.82 295.57 93.17C295.57 99.52 300.43 104.53 306.73 104.53C311.74 104.53 315.3 101.64 316.69 97.5H301.39V91.48H323.82C323.82 91.48 323.92 92.54 323.92 93.4Z" fill="#131B53" stroke="#131B53" stroke-width="0.88" stroke-miterlimit="10"/>
<path d="M326.09 98.07V75.98H333.07V97.88C333.07 101.73 335.19 104.14 338.7 104.14C342.21 104.14 344.38 101.73 344.38 97.88V75.98H351.36V98.07C351.36 106.06 346.36 111.11 338.7 111.11C331.04 111.11 326.09 106.06 326.09 98.07Z" fill="#131B53" stroke="#131B53" stroke-width="0.88" stroke-miterlimit="10"/>
<path d="M374.45 103.36H361.07L357.89 110.39H350.48L368.05 74.1499L385.62 110.39H377.54L374.46 103.36H374.45ZM371.9 97.4899L367.86 88.2999L363.72 97.4899H371.9Z" fill="#131B53" stroke="#131B53" stroke-width="0.88" stroke-miterlimit="10"/>
<path d="M400.64 118.28C400.74 118.83 400.99 119.26 401.41 119.58C401.83 119.9 402.32 120.06 402.9 120.06C403.54 120.06 404.07 119.84 404.49 119.41C404.91 118.98 405.12 118.42 405.12 117.75C405.12 117.08 404.9 116.55 404.47 116.07C404.04 115.59 403.5 115.35 402.86 115.35C402.51 115.35 402.14 115.41 401.75 115.54C401.37 115.67 401.04 115.96 400.79 116.41L398.43 115.5L400.45 110.83C398.24 110.45 396.18 109.7 394.29 108.59C392.4 107.48 390.75 106.11 389.36 104.48C387.96 102.84 386.87 101 386.09 98.9501C385.3 96.9001 384.91 94.7301 384.91 92.4501C384.91 90.0101 385.38 87.6801 386.33 85.4501C387.28 83.2201 388.58 81.2601 390.25 79.5801C391.92 77.9001 393.88 76.5601 396.12 75.5601C398.37 74.5701 400.77 74.0701 403.34 74.0701C404.82 74.0701 406.36 74.2701 407.98 74.6701C409.6 75.0701 411.16 75.7001 412.67 76.5701C414.18 77.4401 415.58 78.5601 416.88 79.9401C418.18 81.3201 419.26 82.9901 420.13 84.9401H412.62C411.34 83.4601 409.93 82.3101 408.39 81.4801C406.85 80.6501 405.09 80.2301 403.1 80.2301C401.66 80.2301 400.24 80.5401 398.84 81.1401C397.44 81.7501 396.21 82.6101 395.13 83.7101C394.05 84.8201 393.18 86.1201 392.51 87.6301C391.84 89.1401 391.5 90.7701 391.5 92.5401C391.5 94.2101 391.82 95.8001 392.46 97.3001C393.1 98.8101 393.97 100.12 395.06 101.25C396.15 102.37 397.41 103.27 398.84 103.95C400.27 104.62 401.77 104.96 403.34 104.96C404.53 104.96 405.59 104.81 406.52 104.5C407.45 104.2 408.28 103.81 409 103.35C409.72 102.89 410.35 102.4 410.9 101.88C411.45 101.37 411.91 100.9 412.3 100.48H419.95C419.24 102.12 418.31 103.59 417.16 104.91C416.01 106.23 414.7 107.34 413.24 108.25C411.78 109.16 410.22 109.87 408.55 110.37C406.88 110.87 405.2 111.12 403.5 111.12C403.24 111.12 403.05 111.1 402.92 111.07L402.05 113.04C402.21 113.01 402.39 112.98 402.58 112.97C402.77 112.95 403 112.95 403.25 112.95C404.4 112.95 405.44 113.36 406.35 114.18C407.26 115 407.72 116.19 407.72 117.77C407.72 119.35 407.25 120.48 406.3 121.28C405.35 122.08 404.22 122.48 402.91 122.48C402.08 122.48 401.35 122.33 400.74 122.02C400.13 121.71 399.63 121.35 399.25 120.91C398.87 120.47 398.58 120.02 398.38 119.54C398.19 119.06 398.09 118.64 398.09 118.29H400.64V118.28Z" fill="#131B53" stroke="#131B53" stroke-width="0.88" stroke-miterlimit="10"/>
<path d="M422.17 98.07V75.98H429.15V97.88C429.15 101.73 431.27 104.14 434.78 104.14C438.29 104.14 440.46 101.73 440.46 97.88V75.98H447.44V98.07C447.44 106.06 442.44 111.11 434.78 111.11C427.12 111.11 422.17 106.06 422.17 98.07Z" fill="#131B53" stroke="#131B53" stroke-width="0.88" stroke-miterlimit="10"/>
<path d="M157.35 49.5C157.35 52.79 154.84 55.5 150.95 55.5H148.56V63.95H145.39V43.48H150.95C154.84 43.48 157.35 46.19 157.35 49.5ZM154.27 49.53C154.27 47.66 152.86 46.24 150.67 46.24H148.57V52.78H150.67C152.86 52.78 154.27 51.37 154.27 49.52V49.53Z" fill="#131B53"/>
<path d="M181.22 55.36H180.15V63.95H176.98V43.48H182.6C186.46 43.48 188.94 46.16 188.94 49.42C188.94 52.1 187.3 54.35 184.59 55.1L191.25 63.95H187.47L181.21 55.36H181.22ZM180.15 52.93H182.17C184.42 52.93 185.86 51.49 185.86 49.59C185.86 47.69 184.42 46.25 182.17 46.25H180.15V52.94V52.93Z" fill="#131B53"/>
<path d="M221.55 61.01V63.95H209.73V43.48H220.68V46.39H212.9V51.95H221.4V54.66H212.9V61H221.55V61.01Z" fill="#131B53"/>
<path d="M253 54.66H244.5V63.94H241.33V43.47H252.28V46.38H244.5V51.94H253V54.65V54.66Z" fill="#131B53"/>
<path d="M284.45 61.01V63.95H272.63V43.48H283.58V46.39H275.8V51.95H284.3V54.66H275.8V61H284.45V61.01Z" fill="#131B53"/>
<path d="M304.51 43.48H307.68V63.95H304.51V43.48Z" fill="#131B53"/>
<path d="M341.01 46.48H335.53V63.95H332.36V46.48H326.88V43.48H341.01V46.48Z" fill="#131B53"/>
<path d="M359.72 56.65V43.48H362.89V56.6C362.89 59.43 364.53 61.24 367.07 61.24C369.61 61.24 371.25 59.42 371.25 56.6V43.48H374.42V56.65C374.42 61.38 371.42 64.38 367.07 64.38C362.72 64.38 359.72 61.38 359.72 56.65Z" fill="#131B53"/>
<path d="M399.21 55.36H398.14V63.95H394.97V43.48H400.59C404.45 43.48 406.93 46.16 406.93 49.42C406.93 52.1 405.29 54.35 402.58 55.1L409.24 63.95H405.46L399.2 55.36H399.21ZM398.15 52.93H400.17C402.42 52.93 403.86 51.49 403.86 49.59C403.86 47.69 402.42 46.25 400.17 46.25H398.15V52.94V52.93Z" fill="#131B53"/>
<path d="M440.23 58.27H431.7L429.08 63.95H425.71L436.09 42.47L446.47 63.95H442.81L440.24 58.27H440.23ZM439.02 55.56L436.02 48.93L432.96 55.56H439.01H439.02Z" fill="#131B53"/>
<path d="M19.44 86.1899C19.11 86.7799 14.9 94.3899 14.37 94.9599C13.82 95.5499 13.93 94.6699 13.93 94.6699C13.93 94.6699 16.8 85.7699 18.42 84.3299C20.04 82.8999 20.88 84.2199 20.88 84.2199L22.46 88.8499L20.55 89.1099C19.78 88.1499 19.46 86.1499 19.46 86.1499C19.46 86.1499 19.46 86.1599 19.44 86.1899Z" fill="#131B53"/>
<path d="M23.53 86.15L23.31 78.77L26.11 78.73V82.54L23.53 86.15Z" fill="#131B53"/>
<path d="M22.24 69.0999L26.12 78.6299L23.32 78.6699C23.32 78.6699 21.42 72.0299 21.17 72.3199C21.17 72.3199 21.15 72.3899 21.14 72.4599C21.11 73.7499 18.47 79.0099 17.93 79.2399C17.39 79.4799 17.45 78.9099 17.45 78.9099L18.9 69.7499C19.03 68.9399 19.64 68.2699 20.45 68.1099C20.48 68.1099 20.51 68.0999 20.54 68.0899C21.26 67.9799 21.96 68.4099 22.24 69.0899V69.0999Z" fill="#131B53"/>
<path d="M17.74 64.07C17.6 63.18 16.49 56.08 17.99 54.23C18.92 53.09 19.71 53.1599 20.2 53.4199C20.49 53.5799 20.72 53.8299 20.87 54.1399L26.15 65.0899H23.45C22.34 63.9699 20.42 57.32 20.18 56.88C20.18 56.88 20.16 56.85 20.16 56.88C20.16 56.93 20.18 57.0699 20.24 57.3399C20.78 59.9699 19.05 62.8699 18.55 63.9399C18.21 64.6499 17.98 64.51 17.86 64.35C17.8 64.27 17.77 64.1799 17.75 64.0799L17.74 64.07Z" fill="#131B53"/>
<path d="M26.11 65.22L26.15 67.41L23.6 71.99L23.42 65.21L26.11 65.22Z" fill="#131B53"/>
<path d="M23.61 72.3L26.16 72.3201L26.12 78.45L23.61 72.3Z" fill="#131B53"/>
<path d="M23.51 57.8298L26.34 57.8998L26.18 64.9198L23.48 59.3698L23.51 57.8298Z" fill="#131B53"/>
<path d="M26.47 107.33L26.56 115.21L23.79 113.9L23.81 107.25L26.47 107.33Z" fill="#131B53"/>
<path d="M21.25 43.7699C21.25 43.2999 21.33 42.8099 21.6 42.3599C22.5 40.8899 22.53 39.7699 22.53 39.7699C22.53 39.7699 22.62 38.2099 22.78 37.2499C22.94 36.2899 23.1 35.0799 24.79 35.2699C26.48 35.4599 26.19 37.0899 26.19 37.0899C26.19 37.0899 26.03 37.8599 26.13 39.0099C26.22 40.1599 26.51 39.9399 26.83 40.5099C27.01 40.8299 26.96 41.6299 26.88 42.2799C26.83 42.6799 26.81 43.0799 26.81 43.4799C26.81 43.8299 26.83 44.1799 26.86 44.5299C26.86 44.5299 26.92 46.0899 26.51 46.5099C26.45 46.5699 26.39 46.6399 26.33 46.7199C25.96 47.2099 25.77 47.8099 25.78 48.4199L25.84 53.1899L23.45 57.3499C23.45 57.3499 23.51 50.1499 23.51 48.4499C23.51 47.4299 22.89 46.6699 22.39 46.2199C21.69 45.5899 21.26 44.6999 21.24 43.7599L21.25 43.7699Z" fill="#131B53"/>
<path d="M29.32 66.7899C27.8 70.2299 26.16 72.21 26.16 72.21L23.63 72.19C23.63 72.19 26.34 67.2599 27.58 65.0399C28.82 62.8199 30.48 63.36 31.09 64.39C31.82 65.62 32.87 73.1499 32.75 73.9299C32.66 74.5099 32.49 74.25 32.41 74.08C32.36 73.98 32.31 73.88 32.26 73.78C31.8 72.89 29.95 69.3 29.85 67.88C29.73 66.26 29.33 66.7899 29.33 66.7899H29.32Z" fill="#131B53"/>
<path d="M26.01 86.1899L23.56 86.2799L29.24 78.2799C29.24 78.2799 31.02 75.7498 32.02 78.4798C33.02 81.1998 33.08 88.1599 33.08 88.1599C33.08 88.1599 32.91 88.7699 32.47 87.9699C32.03 87.1599 30.22 81.9598 30.24 80.1198L30.22 80.1498L26.01 86.1899Z" fill="#131B53"/>
<path d="M23.51 57.6399C23.93 56.6499 28.2 49.3599 29.62 48.3799C30.07 48.0699 31.13 47.7099 32.4 48.3999C33.67 49.0899 33.6 50.5099 33.6 50.5099C33.51 54.1299 34.18 57.1599 34.4 58.3399C34.62 59.5199 33.93 58.3599 33.93 58.3599C32.26 55.5099 31.66 51.9799 31.62 50.7999C31.59 50.1299 31.3 50.1599 31.05 50.3199C30.85 50.4499 30.7 50.6299 30.6 50.8399C28.99 54.3399 26.32 57.6999 26.32 57.6999L23.5 57.6299L23.51 57.6399Z" fill="#131B53"/>
<path d="M41.57 106.74C39.54 106.84 25.79 107.51 22.04 106.89C20.16 106.59 19.03 106.05 18.37 105.56C17.7 105.07 17.33 104.23 17.41 103.38C17.45 102.93 17.56 102.35 17.79 101.68C18.28 100.3 18.29 99.3401 18.27 99.0201C18.27 98.9101 18.27 98.8001 18.27 98.6901C18.25 97.6601 18.18 93.2601 17.84 92.0001C17.35 91.3801 17.21 90.6601 18.15 90.0601C19.76 89.0301 22.78 88.8801 24.39 88.8801C24.46 88.8801 24.54 88.8801 24.61 88.8801L23.51 88.7001L23.55 86.3901L26.02 86.3101L26.21 89.0501C26.45 89.1001 26.7 89.1601 26.94 89.2301C27.66 89.4501 28.34 89.7601 28.2 90.1501L28.11 94.3101C28.34 94.3001 28.57 94.2801 28.8 94.2701C34.48 93.8701 36.23 96.8301 36.23 96.8301L41.7 106.49C41.76 106.59 41.69 106.72 41.58 106.73L41.57 106.74Z" fill="#131B53"/>
<path d="M88.57 36.1998L93.26 38.0598L95.52 39.3098L93.14 43.7598L93.05 43.9198L91.56 43.0398L88.48 41.7298L85.57 40.6698L82.7 39.8198L80.21 39.1898L77.55 38.6798L74.85 38.4298L71.94 38.0298C71.56 38.0098 71.18 37.9998 70.81 37.9898L68.1 38.0898L65.33 38.1298H65.31C65.24 38.1298 65.18 38.1398 65.11 38.1498L62.05 38.5998L57.29 39.4498C56.53 39.6398 55.8 39.8398 55.09 40.0498L53.35 40.7898L51.15 41.4598L49.13 42.3498L45.94 43.8498L45.25 44.1698L42.79 39.5598L44.61 38.5498L44.9 38.3898L47.43 37.3798L48.24 37.1198C49.98 36.4898 52.05 35.8298 54.39 35.2298H54.41L55.33 34.9798L55.66 34.9198C56.79 34.6498 57.98 34.3998 59.22 34.1798H59.23L59.76 34.0498L60.75 33.9298L62.46 33.7098L64.74 33.4598L66.26 33.4198L68.58 33.3298H70.73L73.09 33.4198L75.37 33.5498L78.49 33.8898L81.78 34.4398L84.44 35.0298L88.53 36.2098L88.57 36.1998Z" fill="#131B53"/>
<path d="M133.94 142.9H133.91C133.09 142.75 119.11 140.35 91.44 145.97C62.9 151.76 62.23 152.18 62.23 152.18C62.23 152.18 43.59 157.38 23.37 155.03C3.14001 152.68 0.340004 149.4 0.340004 149.4L0.320007 0.939941L133.86 1.17994L133.96 142.9H133.94Z" fill="#131B53"/>
<path d="M37.14 30.69L33.9 25.37L36.59 23.91L37.57 25.62L39.09 24.82L38.15 23.11L40.3 22.09L43.02 27.64L42.06 28.08L42.62 29.33L44.14 28.64L44.88 30.25L46.47 29.6L45.74 28.01L47.58 27.18L47.03 25.93L46.26 26.27L43.68 20.62L47.24 19.3L47.97 21.21L49.68 20.72L49.02 18.67L53.3 17.51L53.79 19.63L55.57 19.16L55.19 17.02L57.72 16.56L58.72 23.17L57.72 23.29L57.84 24.27L59.81 24.15L60 25.87L62.55 25.79L62.43 23.98L64.43 23.9L64.39 22.5L63.09 22.52L62.7 15.85L66.16 15.56L66.24 17.95L66.66 17.89L67.9 15.52H71.42L72.73 17.8H73.67L73.7 15.65L76.57 15.88L76.14 22.24L74.91 22.27L74.87 23.56H76.73V25.52L78.84 25.61V23.56L80.83 23.66L80.85 22.53L79.29 22.44L80.48 16.45L83.77 17.08L83.27 19.46L85.54 19.87L86.06 17.56L89.61 18.6L89.05 20.84L90.98 21.4L91.61 19.16L93.93 20.08L92.21 25.71L90.85 25.27L90.53 26.39L92.26 27.05L91.56 28.91L93.8 30L95 28.1L96 28.66L96.56 27.7L95.47 27.11L98.51 21.86L101.04 22.97L99.77 25.04L101.16 25.88L102.61 23.7L104.77 24.86L101.4 30.22L100.28 30.34L96.09 38.56C96.09 38.56 84.02 32.43 69.38 32.89C54.74 33.35 42.53 39.11 42.53 39.11L38.55 30.93L37.17 30.71L37.14 30.69Z" fill="#131B53"/>
<path d="M104.9 37.9398C105.2 37.9998 105.72 38.1398 106.25 38.2898C108.88 39.0398 110.74 41.3998 110.79 44.1398C110.79 44.5798 110.76 44.8498 110.76 44.8498C105.29 45.4898 103.93 41.0798 103.93 40.2798C103.93 39.4798 103.74 39.5998 103.51 38.3198C103.28 37.0398 104.15 37.7898 104.91 37.9398H104.9Z" fill="#131B53"/>
<path d="M109.73 49.98C110.26 50.15 110.73 50.44 111.13 50.8C111.9 51.51 112.38 52.52 112.38 53.64C112.38 54.89 111.78 56 110.86 56.71C110.21 57.21 109.4 57.5 108.52 57.5C106.39 57.5 104.66 55.77 104.66 53.64C104.66 51.51 106.39 49.78 108.52 49.78C108.95 49.78 109.35 49.85 109.74 49.98H109.73Z" fill="#131B53"/>
<path d="M109.91 79C111.35 79.56 112.37 80.96 112.37 82.6C112.37 84.73 110.64 86.46 108.51 86.46C106.38 86.46 104.65 84.73 104.65 82.6C104.65 80.47 106.38 78.74 108.51 78.74C109 78.74 109.48 78.83 109.91 79Z" fill="#131B53"/>
<path d="M113.75 107.1C113.75 107.1 113.9 110.32 112.82 114.86L113.75 107.1Z" fill="#131B53"/>
<path d="M111.47 46.9899C111.47 46.9899 110.8 41.7199 113.54 38.5199C113.54 38.5199 114.56 37.6799 114.94 36.5499C115.15 35.9499 115.22 34.3399 115.71 35.7099C116.2 37.0799 116.84 40.2099 116.17 42.7399C115.5 45.2699 112.2 47.4499 111.46 46.9899H111.47Z" fill="#131B53"/>
<path d="M113.8 72.4498C112.42 72.4498 111.21 71.7299 110.53 70.6399C110.26 70.2199 110.08 69.7399 109.99 69.2199C109.99 69.5999 109.96 69.8299 109.96 69.8299C107.21 70.1299 104.95 68.7298 104.15 67.4798C103.57 66.5698 103.04 64.6499 102.8 63.6599C102.73 63.3699 102.62 63.0999 102.46 62.8599C102.39 62.7599 102.32 62.5899 102.26 62.3299C102.11 61.6799 102.56 61.8799 102.56 61.8799L102.91 62.1698C103.24 62.4398 103.63 62.6299 104.05 62.7199C104.89 62.8899 106.52 63.3599 108.12 64.6899C109.41 65.7599 109.83 67.2499 109.96 68.3499C109.99 67.8099 110.14 67.2898 110.37 66.8398C110.83 65.9298 111.65 65.2398 112.63 64.9198C113 64.7998 113.4 64.7399 113.81 64.7399C115.94 64.7399 117.67 66.4699 117.67 68.5999C117.67 70.7299 115.94 72.4599 113.81 72.4599L113.8 72.4498Z" fill="#131B53"/>
<path d="M117.94 50.16C118.07 49.98 118.19 49.7999 118.3 49.6099C118.45 49.3599 118.73 49.0399 118.85 49.7699C119.02 50.7999 118.12 56.6999 117.17 57.9499C116.42 58.9399 114.16 61.71 110.81 59.52C110.81 59.52 111.86 55.3699 113.85 54.3199C115.31 53.5499 117.24 51.09 117.93 50.16H117.94Z" fill="#131B53"/>
<path d="M120.21 103.23C120.29 104.08 119.93 104.92 119.25 105.41C118.58 105.9 117.45 106.44 115.58 106.74C111.83 107.35 98.08 106.69 96.05 106.59C95.93 106.59 95.87 106.45 95.93 106.35L101.4 96.69C101.4 96.69 103.15 93.72 108.83 94.13C109.06 94.15 109.29 94.16 109.52 94.17L109.43 90.01C109.29 89.63 109.97 89.31 110.69 89.1C111.51 88.85 112.37 88.74 113.23 88.74C114.84 88.74 117.86 88.89 119.47 89.92C120.42 90.53 120.27 91.24 119.79 91.86C119.45 93.12 119.37 97.53 119.36 98.55C119.36 98.66 119.36 98.77 119.35 98.88C119.34 99.19 119.35 100.16 119.83 101.54C120.06 102.2 120.17 102.78 120.21 103.23Z" fill="#131B53"/>
<path d="M120.32 73.8L120.11 76.02C119.92 78.06 118.89 79.95 117.23 81.15C116.13 81.95 114.75 82.45 113.15 81.98C113.02 81.94 113.73 77.54 115.56 76.01C116.94 74.85 117.74 74.05 119.9 73.53C120.12 73.48 120.34 73.57 120.32 73.8Z" fill="#131B53"/>
<path d="M133.94 143.97L133.8 157.42C119.64 155.94 101.94 157.68 93.25 158.75C90.75 159.06 88.25 159.44 85.77 159.88C79.89 160.93 62.31 163.64 35.29 163.99C18.28 164.21 0.860017 157.34 0.330017 157.13C24.64 164.44 35.96 161.94 45.91 160.39C55.86 158.84 74.62 153.62 74.62 153.62C74.62 153.62 77.43 153.19 100.09 146.85C114.66 142.77 129.95 142.91 133.91 143.95C133.91 143.95 133.91 143.95 133.92 143.95H133.95V143.97H133.94Z" fill="#E06939"/>
<path d="M40.42 38.49L36.37 30.18L34.97 29.96L31.68 24.56L34.41 23.07L35.41 24.81L36.96 24L36 22.26L38.18 21.22L40.95 26.86L39.97 27.3L40.54 28.57L42.08 27.87L42.83 29.5L44.45 28.84L43.7 27.22L45.56 26.37L45 25.1L44.22 25.44L41.6 19.69L45.22 18.35L45.96 20.29L47.7 19.79L47.03 17.7L51.38 16.52L51.88 18.67L53.69 18.19L53.31 16.02L55.88 15.55L56.9 22.27L55.88 22.39L56 23.38L58.01 23.26L58.2 25.01L60.79 24.92L60.67 23.08L62.7 23L62.65 21.58L61.33 21.6L60.94 14.82L64.45 14.53L64.53 16.96L64.96 16.89L66.22 14.48H69.79L71.12 16.79H72.08L72.11 14.6L75.02 14.84L74.59 21.3L73.34 21.33L73.3 22.64H75.19V24.63L77.33 24.72V22.64L79.35 22.75L79.37 21.6L77.78 21.51L78.99 15.43L82.33 16.07L81.82 18.49L84.12 18.9L84.65 16.55L88.26 17.6L87.69 19.87L89.65 20.44L90.29 18.17L92.64 19.1L90.9 24.82L89.52 24.37L89.2 25.51L90.96 26.18L90.25 28.07L92.53 29.18L93.75 27.25L94.76 27.82L95.33 26.85L94.22 26.25L97.31 20.91L99.88 22.03L98.6 24.13L100.01 24.98L101.48 22.77L103.67 23.95L100.25 29.4L99.11 29.52L94.85 37.87C94.85 37.87 82.59 31.64 67.71 32.11C52.83 32.58 40.42 38.43 40.42 38.43V38.49Z" fill="white" stroke="white" stroke-width="0.09" stroke-miterlimit="10"/>
<path d="M21.09 57.0499L23.52 52.8199L23.46 47.9699C23.46 47.3499 23.64 46.7299 24.02 46.2399C24.08 46.1599 24.14 46.0899 24.2 46.0299C24.62 45.6099 24.56 44.0199 24.56 44.0199C24.48 43.2599 24.49 42.4899 24.58 41.7299C24.66 41.0599 24.71 40.2499 24.53 39.9299C24.21 39.3499 23.91 39.5699 23.82 38.3999C23.73 37.2299 23.88 36.4499 23.88 36.4499C23.88 36.4499 24.17 34.7899 22.45 34.5999C20.73 34.4099 20.57 35.6399 20.41 36.6099C20.25 37.5799 20.15 39.1699 20.15 39.1699C20.15 39.1699 20.12 40.3099 19.21 41.7999C18.93 42.2599 18.84 42.7599 18.85 43.2299C18.87 44.1899 19.3 45.0899 20.02 45.7299C20.53 46.1799 21.16 46.9599 21.16 47.9999C21.16 49.7199 21.1 57.0399 21.1 57.0399L21.09 57.0499Z" fill="white"/>
<path d="M21.13 88.91L21.17 86.56L23.68 86.48L23.88 89.34" fill="white"/>
<path d="M25.34 91.33C25.38 91.88 25.38 92.44 25.31 92.99C25.25 93.51 25.12 94.01 25.12 94.53C25.12 94.89 25.67 94.89 25.67 94.53C25.67 94.01 25.81 93.5 25.86 92.99C25.92 92.44 25.92 91.88 25.89 91.33C25.87 90.98 25.31 90.97 25.34 91.33Z" fill="black"/>
<path d="M109.78 44.3399C109.78 44.3399 109.82 44.0599 109.81 43.6099C109.76 40.8299 107.87 38.4299 105.2 37.6699C104.66 37.5199 104.13 37.3699 103.83 37.3099C103.06 37.1599 102.18 36.3899 102.41 37.6899C102.64 38.9899 102.83 38.8799 102.83 39.6899C102.83 40.4999 104.21 44.9799 109.77 44.3299L109.78 44.3399Z" fill="white" stroke="#131B53" stroke-width="0.09" stroke-miterlimit="10"/>
<path d="M110.51 46.52C110.51 46.52 109.83 41.16 112.62 37.91C112.62 37.91 113.66 37.05 114.05 35.91C114.26 35.3 114.34 33.66 114.84 35.05C115.34 36.44 115.98 39.62 115.3 42.19C114.62 44.76 111.26 46.98 110.51 46.51V46.52Z" fill="white" stroke="#131B53" stroke-width="0.09" stroke-miterlimit="10"/>
<path d="M109.85 59.2499C109.85 59.2499 110.92 55.0399 112.94 53.9699C114.42 53.1899 116.38 50.6899 117.09 49.7499C117.22 49.5699 117.35 49.3799 117.46 49.1899C117.61 48.9399 117.89 48.6099 118.02 49.3499C118.19 50.3899 117.27 56.3999 116.32 57.6599C115.56 58.6699 113.26 61.4799 109.85 59.2599V59.2499Z" fill="white" stroke="#131B53" stroke-width="0.09" stroke-miterlimit="10"/>
<path d="M108.98 69.73C108.98 69.73 109.44 66.4201 107.1 64.4901C105.47 63.1501 103.82 62.6601 102.97 62.4901C102.54 62.4101 102.15 62.2101 101.81 61.9401L101.45 61.6401C101.45 61.6401 100.99 61.4401 101.14 62.1001C101.2 62.3601 101.28 62.5301 101.35 62.6401C101.52 62.8901 101.63 63.1701 101.7 63.4601C101.95 64.4701 102.49 66.4301 103.07 67.3501C103.88 68.6201 106.17 70.0501 108.97 69.7401L108.98 69.73Z" fill="white" stroke="#131B53" stroke-width="0.09" stroke-miterlimit="10"/>
<path d="M112.22 82.08C112.09 82.04 112.81 77.5699 114.67 76.0099C116.07 74.8299 116.89 74.02 119.08 73.49C119.31 73.44 119.53 73.5299 119.51 73.7599L119.3 76.0099C119.11 78.0799 118.06 79.9999 116.37 81.2299C115.26 82.0399 113.85 82.56 112.23 82.08H112.22Z" fill="white" stroke="#131B53" stroke-width="0.09" stroke-miterlimit="10"/>
<path d="M112.31 88.93C112.31 88.93 112.48 82.48 110.37 75.35C108.52 69.07 109.86 56.9 109.86 56.9C109.86 56.9 110.59 45.46 110.04 41.71" stroke="white" stroke-width="1.2" stroke-linecap="round" stroke-linejoin="round"/>
<path d="M117.74 92.1699C117.31 92.4799 116.85 92.7399 116.39 93.0199C116.08 93.1999 116.36 93.6799 116.67 93.4999C117.12 93.2299 117.58 92.9599 118.02 92.6499C118.31 92.4399 118.03 91.9599 117.74 92.1699Z" fill="white"/>
<path d="M115.38 91.1799C115.38 92.1999 115.38 93.2199 115.38 94.2399L117.01 94.0199C116.8 93.3299 116.58 92.6499 116.34 91.9699C116.02 91.0499 114.81 91.2599 114.71 92.1899C114.59 93.2799 114.52 94.3699 114.49 95.4699H116.15C116.16 94.0999 116.12 92.7399 116.03 91.3699C115.96 90.3099 114.38 90.2899 114.37 91.3699C114.36 92.2199 114.23 93.0499 114.07 93.8899C114.61 93.9599 115.16 94.0399 115.7 94.1099C115.59 92.8099 115.45 91.5299 115.15 90.2699C114.94 89.3699 113.44 89.5399 113.52 90.4899C113.64 91.9899 113.63 93.4799 113.49 94.9799H115.15C115.01 93.4399 114.77 91.9299 114.41 90.4299C114.19 89.5399 112.68 89.6999 112.78 90.6499C112.92 92.0399 112.92 93.3999 112.8 94.7899L114.43 94.5699C114.18 93.3099 113.87 92.0899 113.42 90.8899C113.12 90.0799 111.7 90.0999 111.79 91.1099C111.91 92.4999 112.02 93.8799 112.14 95.2699L113.77 95.0499C113.37 93.7999 112.85 92.6099 112.3 91.4199C111.96 90.6899 110.66 91.0299 110.75 91.8399C110.89 93.0599 110.97 94.2799 111.01 95.5199H112.67C112.53 94.1599 112.16 92.8999 111.71 91.6099C111.36 90.5999 109.9 90.9999 110.1 92.0499C110.41 93.5999 110.48 95.1699 110.53 96.7499L112.16 96.5299C111.78 94.6499 110.9 92.8299 110.65 90.9499C110.51 89.8999 109.1 89.8699 108.99 90.9499C108.88 92.0299 108.77 93.0999 108.66 94.1699H110.32C110.22 93.1299 110.12 92.0799 110.02 91.0399L108.39 91.2599C108.66 92.4399 108.43 93.5599 108.88 94.7099C109.26 95.6999 110.87 95.2699 110.49 94.2699C110.06 93.1599 110.27 91.9699 110 90.8199C109.79 89.9199 108.27 90.0899 108.37 91.0399L108.67 94.1699C108.77 95.2399 110.23 95.2399 110.33 94.1699C110.43 93.0999 110.55 92.0199 110.66 90.9499H109C109.27 93.0099 110.15 94.9399 110.57 96.9799C110.76 97.8999 112.24 97.6899 112.2 96.7599C112.14 95.0299 112.05 93.3199 111.71 91.6199L110.1 92.0599C110.49 93.1999 110.88 94.3199 111 95.5299C111.1 96.5699 112.7 96.6199 112.66 95.5299C112.63 94.2999 112.54 93.0799 112.4 91.8499L110.85 92.2699C111.34 93.3299 111.8 94.3899 112.16 95.4999C112.43 96.3499 113.88 96.2599 113.79 95.2799C113.67 93.8899 113.56 92.5099 113.44 91.1199L111.81 91.3399C112.26 92.5399 112.57 93.7599 112.82 95.0199C113.01 95.9999 114.38 95.6699 114.45 94.7999C114.57 93.4099 114.57 92.0499 114.43 90.6599L112.8 90.8799C113.13 92.2399 113.36 93.5999 113.48 94.9899C113.58 96.0599 115.04 96.0599 115.14 94.9899C115.28 93.4899 115.29 91.9999 115.17 90.4999L113.54 90.7199C113.8 91.8399 113.93 92.9699 114.03 94.1199C114.11 94.9799 115.48 95.3299 115.66 94.3399C115.84 93.3499 116 92.3799 116.02 91.3799H114.36C114.45 92.7499 114.49 94.1099 114.48 95.4799C114.48 96.5499 116.12 96.5499 116.14 95.4799C116.16 94.4099 116.24 93.2899 116.36 92.1999L114.73 92.4199C114.97 93.0999 115.19 93.7799 115.4 94.4699C115.67 95.3599 117.04 95.2099 117.03 94.2499V91.1899C117.03 90.1199 115.36 90.1199 115.36 91.1899L115.38 91.1799Z" fill="white"/>
<path d="M116.14 93.8299L116.33 90.4199C116.33 90.3599 116.27 90.3299 116.23 90.3699C115.76 90.7799 113.81 92.1899 110.09 91.1099C107.39 90.3199 108.51 89.6799 109.72 89.3099C110.56 89.0599 111.43 88.9399 112.3 88.9399C113.93 88.9399 117 89.0899 118.64 90.1399C119.9 90.9499 119.25 91.9499 118.41 92.6799C117.64 93.3599 116.7 93.7999 115.71 93.9999C114.25 94.2999 111.51 94.6799 107.82 94.4199C102.05 94.0099 100.27 97.0299 100.27 97.0299L94.71 106.84C94.65 106.94 94.71 107.08 94.83 107.08C96.89 107.18 110.86 107.86 114.67 107.24C116.58 106.93 117.72 106.38 118.4 105.89C119.08 105.4 119.45 104.54 119.37 103.67C119.33 103.21 119.22 102.62 118.98 101.95C118.49 100.55 118.48 99.5699 118.49 99.2499C118.49 99.1399 118.49 99.0299 118.49 98.9199C118.5 97.8599 118.59 93.2399 118.95 92.0499" fill="white"/>
<path d="M116.14 93.8299L116.33 90.4199C116.33 90.3599 116.27 90.3299 116.23 90.3699C115.76 90.7799 113.81 92.1899 110.09 91.1099C107.39 90.3199 108.51 89.6799 109.72 89.3099C110.56 89.0599 111.43 88.9399 112.3 88.9399C113.93 88.9399 117 89.0899 118.64 90.1399C119.9 90.9499 119.25 91.9499 118.41 92.6799C117.64 93.3599 116.7 93.7999 115.71 93.9999C114.25 94.2999 111.51 94.6799 107.82 94.4199C102.05 94.0099 100.27 97.0299 100.27 97.0299L94.71 106.84C94.65 106.94 94.71 107.08 94.83 107.08C96.89 107.18 110.86 107.86 114.67 107.24C116.58 106.93 117.72 106.38 118.4 105.89C119.08 105.4 119.45 104.54 119.37 103.67C119.33 103.21 119.22 102.62 118.98 101.95C118.49 100.55 118.48 99.5699 118.49 99.2499C118.49 99.1399 118.49 99.0299 118.49 98.9199C118.5 97.8599 118.59 93.2399 118.95 92.0499" stroke="#131B53" stroke-width="0.38" stroke-miterlimit="10"/>
<path d="M108.53 94.5398L108.44 90.0798" stroke="#131B53" stroke-width="0.38" stroke-miterlimit="10"/>
<path d="M16.32 92.8001C16.75 93.1101 17.21 93.3701 17.67 93.6501C17.98 93.8401 18.26 93.3601 17.95 93.1701C17.5 92.9001 17.04 92.6301 16.6 92.3201C16.31 92.1101 16.03 92.5901 16.32 92.8001Z" fill="white"/>
<path d="M17.55 91.1501C17.55 92.2001 17.55 93.2601 17.55 94.3101C17.55 94.9601 18.49 95.0801 18.68 94.4601C18.9 93.7501 19.13 93.0401 19.37 92.3401L18.24 92.1901C18.36 93.3201 18.44 94.4501 18.47 95.5801C18.49 96.3201 19.62 96.3201 19.62 95.5801C19.61 94.1601 19.65 92.7501 19.74 91.3401H18.59C18.61 92.3501 18.76 93.3301 18.95 94.3201C19.08 95.0001 20.02 94.7701 20.08 94.1701C20.19 92.9601 20.32 91.7601 20.6 90.5801L19.47 90.4301C19.34 91.9801 19.36 93.5201 19.5 95.0701C19.57 95.8101 20.58 95.8101 20.65 95.0701C20.78 93.6101 21.02 92.1701 21.37 90.7501L20.24 90.6001C20.1 92.0301 20.09 93.4501 20.22 94.8801C20.27 95.4801 21.21 95.7101 21.35 95.0301C21.6 93.7301 21.92 92.4701 22.39 91.2301L21.26 91.0801C21.14 92.5101 21.02 93.9501 20.9 95.3801C20.84 96.0501 21.84 96.1201 22.03 95.5301C22.4 94.3601 22.89 93.2401 23.41 92.1201L22.34 91.8301C22.2 93.0901 22.11 94.3601 22.08 95.6301C22.06 96.3801 23.16 96.3501 23.23 95.6301C23.36 94.3601 23.75 93.1701 24.17 91.9701L23.06 91.6601C22.72 93.3901 22.62 95.1301 22.56 96.9001C22.54 97.5401 23.56 97.6901 23.69 97.0501C24.11 94.9701 25.03 92.9901 25.3 90.9001H24.15C24.26 92.0101 24.38 93.1201 24.49 94.2301C24.56 94.9701 25.57 94.9701 25.64 94.2301L25.95 90.9901C26.01 90.3401 24.97 90.2101 24.82 90.8401C24.54 92.0301 24.77 93.2501 24.32 94.4101C24.05 95.1001 25.16 95.4001 25.43 94.7201C25.89 93.5301 25.65 92.3701 25.93 91.1501L24.8 91.0001C24.7 92.0801 24.59 93.1601 24.49 94.2401H25.64C25.53 93.1301 25.41 92.0201 25.3 90.9101C25.22 90.1601 24.25 90.1801 24.15 90.9101C23.89 92.8901 22.98 94.7901 22.58 96.7601L23.71 96.9101C23.77 95.2501 23.84 93.6101 24.17 91.9801C24.31 91.2601 23.31 90.9701 23.06 91.6701C22.61 92.9701 22.22 94.2601 22.08 95.6401H23.23C23.27 94.3701 23.35 93.1101 23.49 91.8401C23.55 91.2801 22.65 91.0501 22.42 91.5501C21.86 92.7601 21.33 93.9601 20.92 95.2301L22.05 95.3801C22.17 93.9501 22.29 92.5101 22.41 91.0801C22.47 90.3901 21.5 90.3601 21.28 90.9301C20.81 92.1701 20.49 93.4401 20.24 94.7301L21.37 94.8801C21.24 93.4501 21.25 92.0301 21.39 90.6001C21.45 89.9501 20.41 89.8301 20.26 90.4501C19.89 91.9801 19.64 93.5101 19.5 95.0801H20.65C20.5 93.5301 20.49 91.9901 20.62 90.4401C20.67 89.7901 19.64 89.6601 19.49 90.2901C19.19 91.5801 19.05 92.8701 18.93 94.1901L20.06 94.0401C19.89 93.1501 19.76 92.2701 19.74 91.3601C19.73 90.6201 18.64 90.6301 18.59 91.3601C18.5 92.7701 18.46 94.1801 18.47 95.6001H19.62C19.59 94.4701 19.52 93.3401 19.39 92.2101C19.32 91.5701 18.49 91.4201 18.26 92.0601C18.01 92.7601 17.78 93.4701 17.57 94.1801L18.7 94.3301C18.7 93.2801 18.7 92.2201 18.7 91.1701C18.7 90.4301 17.55 90.4301 17.55 91.1701V91.1501Z" fill="white"/>
<path d="M25.8 94.69L25.89 90.24" stroke="#131B53" stroke-width="0.38" stroke-miterlimit="10"/>
<path d="M18.19 93.9801L18 90.5701C18 90.5101 18.06 90.4801 18.1 90.5201C18.57 90.9301 20.52 92.3401 24.24 91.2601C26.94 90.4701 25.82 89.8301 24.61 89.4601C23.77 89.2101 22.9 89.0901 22.03 89.0901C20.4 89.0901 17.33 89.2401 15.69 90.2901C14.43 91.1001 15.08 92.1001 15.92 92.8301C16.69 93.5101 17.63 93.9501 18.62 94.1501C20.08 94.4501 22.82 94.8301 26.51 94.5701C32.28 94.1601 34.06 97.1801 34.06 97.1801L39.62 106.99C39.68 107.09 39.62 107.23 39.5 107.23C37.44 107.33 23.47 108.01 19.66 107.39C17.75 107.08 16.61 106.53 15.93 106.04C15.25 105.55 14.88 104.69 14.96 103.82C15 103.36 15.11 102.77 15.35 102.1C15.84 100.7 15.85 99.7201 15.84 99.4001C15.84 99.2901 15.84 99.1801 15.84 99.0701C15.83 98.0101 15.74 93.3901 15.38 92.2001" fill="white"/>
<path d="M18.19 93.9801L18 90.5701C18 90.5101 18.06 90.4801 18.1 90.5201C18.57 90.9301 20.52 92.3401 24.24 91.2601C26.94 90.4701 25.82 89.8301 24.61 89.4601C23.77 89.2101 22.9 89.0901 22.03 89.0901C20.4 89.0901 17.33 89.2401 15.69 90.2901C14.43 91.1001 15.08 92.1001 15.92 92.8301C16.69 93.5101 17.63 93.9501 18.62 94.1501C20.08 94.4501 22.82 94.8301 26.51 94.5701C32.28 94.1601 34.06 97.1801 34.06 97.1801L39.62 106.99C39.68 107.09 39.62 107.23 39.5 107.23C37.44 107.33 23.47 108.01 19.66 107.39C17.75 107.08 16.61 106.53 15.93 106.04C15.25 105.55 14.88 104.69 14.96 103.82C15 103.36 15.11 102.77 15.35 102.1C15.84 100.7 15.85 99.7201 15.84 99.4001C15.84 99.2901 15.84 99.1801 15.84 99.0701C15.83 98.0101 15.74 93.3901 15.38 92.2001" stroke="#131B53" stroke-width="0.38" stroke-miterlimit="10"/>
<path d="M40.52 110.52C40.52 110.52 47.94 120.73 64.3 122.17C84.22 123.93 93.73 110.15 93.73 110.15L99.37 113.94L101.76 118.26C102.06 118.55 101.78 119.24 101.48 119.53C98.44 122.34 88.12 133.59 67.52 133.93C47.72 134.25 34.66 122.77 32.37 119.3C30.08 115.83 40.52 110.53 40.52 110.53V110.52Z" fill="white" stroke="#131B53" stroke-width="0.38" stroke-miterlimit="10"/>
<path d="M37.54 99.9301C42.05 111.22 50.87 116.05 58.01 118.1C65.16 120.16 72.81 119.79 79.72 117.03C99.5 109.12 99.18 87.3501 99.18 87.3501V44.5801H34.91L35.11 87.2601C35.13 91.6001 35.93 95.9001 37.54 99.9301Z" fill="#131B53" stroke="white" stroke-width="1.29" stroke-miterlimit="10"/>
<path d="M35.77 94.3301H98.21" stroke="white" stroke-width="1.29" stroke-miterlimit="10"/>
<path d="M35.61 69.3999H99.28" stroke="white" stroke-width="1.29" stroke-miterlimit="10"/>
<path d="M97.79 46H36.53V67.91H97.79V46Z" fill="white"/>
<path d="M60.42 51.7099H60.51C62.16 51.7099 63.8 51.7099 65.45 51.7099C65.51 51.7099 65.54 51.6999 65.56 51.6399C66.07 50.0699 66.58 48.4999 67.09 46.9299C67.09 46.9199 67.1 46.8999 67.11 46.8799C67.18 47.0799 67.24 47.2699 67.3 47.4599C67.75 48.8599 68.21 50.2499 68.66 51.6499C68.68 51.6999 68.7 51.7099 68.75 51.7099C70.4 51.7099 72.05 51.7099 73.7 51.7099H73.78C73.78 51.7099 73.75 51.7499 73.74 51.7599C72.41 52.7299 71.07 53.6999 69.73 54.6699C69.68 54.7099 69.67 54.7399 69.69 54.7999C70.2 56.3599 70.71 57.9199 71.21 59.4799C71.21 59.4999 71.23 59.5199 71.22 59.5499C71.07 59.4399 70.92 59.3299 70.77 59.2299C69.56 58.3499 68.36 57.4799 67.15 56.5999C67.11 56.5699 67.09 56.5799 67.06 56.5999C65.73 57.5699 64.41 58.5299 63.08 59.4899C63.05 59.5099 63.03 59.5399 62.99 59.5399C63.28 58.6399 63.58 57.7299 63.87 56.8299C64.09 56.1399 64.32 55.4599 64.54 54.7699C64.56 54.7199 64.54 54.6999 64.51 54.6699C63.17 53.6999 61.84 52.7299 60.5 51.7599C60.48 51.7399 60.46 51.7299 60.42 51.6999V51.7099Z" fill="#131B53"/>
<path d="M63.7 62.8699H63.75C64.58 62.8699 65.4 62.8699 66.23 62.8699C66.26 62.8699 66.27 62.8699 66.28 62.8299C66.53 62.0399 66.79 61.2499 67.05 60.4599C67.05 60.4599 67.05 60.4499 67.06 60.4299C67.09 60.5299 67.12 60.6299 67.16 60.7199C67.39 61.4199 67.62 62.1199 67.84 62.8299C67.84 62.8499 67.86 62.8599 67.88 62.8599C68.71 62.8599 69.54 62.8599 70.37 62.8599H70.41C70.41 62.8599 70.4 62.8799 70.39 62.8799C69.72 63.3699 69.05 63.8499 68.38 64.3399C68.35 64.3599 68.35 64.3799 68.36 64.4099C68.62 65.1899 68.87 65.9799 69.12 66.7599C69.12 66.7699 69.13 66.7799 69.12 66.7899C69.04 66.7399 68.97 66.6799 68.9 66.6299C68.29 66.1899 67.69 65.7499 67.08 65.3099C67.06 65.2999 67.05 65.2999 67.03 65.3099C66.36 65.7899 65.7 66.2799 65.03 66.7599C65.02 66.7599 65.01 66.7799 64.99 66.7799C65.14 66.3299 65.28 65.8699 65.43 65.4199C65.54 65.0799 65.65 64.7299 65.77 64.3899C65.77 64.3699 65.77 64.3599 65.75 64.3399C65.08 63.8499 64.41 63.3699 63.74 62.8799C63.73 62.8799 63.72 62.8599 63.7 62.8499V62.8699Z" fill="#131B53"/>
<path d="M74.43 62.8699H74.48C75.31 62.8699 76.13 62.8699 76.96 62.8699C76.99 62.8699 77 62.8699 77.01 62.8299C77.26 62.0399 77.52 61.2499 77.78 60.4599C77.78 60.4599 77.78 60.4499 77.79 60.4299C77.82 60.5299 77.85 60.6299 77.89 60.7199C78.12 61.4199 78.35 62.1199 78.57 62.8299C78.57 62.8499 78.59 62.8599 78.61 62.8599C79.44 62.8599 80.27 62.8599 81.1 62.8599H81.14C81.14 62.8599 81.13 62.8799 81.12 62.8799C80.45 63.3699 79.78 63.8499 79.11 64.3399C79.08 64.3599 79.08 64.3799 79.09 64.4099C79.35 65.1899 79.6 65.9799 79.85 66.7599C79.85 66.7699 79.86 66.7799 79.85 66.7899C79.77 66.7399 79.7 66.6799 79.63 66.6299C79.02 66.1899 78.42 65.7499 77.81 65.3099C77.79 65.2999 77.78 65.2999 77.76 65.3099C77.09 65.7899 76.43 66.2799 75.76 66.7599C75.75 66.7599 75.74 66.7799 75.72 66.7799C75.87 66.3299 76.01 65.8699 76.16 65.4199C76.27 65.0799 76.38 64.7299 76.5 64.3899C76.5 64.3699 76.5 64.3599 76.48 64.3399C75.81 63.8499 75.14 63.3699 74.47 62.8799C74.46 62.8799 74.45 62.8599 74.43 62.8499V62.8699Z" fill="#131B53"/>
<path d="M85.35 62.8699H85.4C86.23 62.8699 87.05 62.8699 87.88 62.8699C87.91 62.8699 87.92 62.8699 87.93 62.8299C88.18 62.0399 88.44 61.2499 88.7 60.4599C88.7 60.4599 88.7 60.4499 88.71 60.4299C88.74 60.5299 88.77 60.6299 88.81 60.7199C89.04 61.4199 89.27 62.1199 89.49 62.8299C89.49 62.8499 89.51 62.8599 89.53 62.8599C90.36 62.8599 91.19 62.8599 92.02 62.8599H92.06C92.06 62.8599 92.05 62.8799 92.04 62.8799C91.37 63.3699 90.7 63.8499 90.03 64.3399C90 64.3599 90 64.3799 90.01 64.4099C90.27 65.1899 90.52 65.9799 90.77 66.7599C90.77 66.7699 90.78 66.7799 90.77 66.7899C90.69 66.7399 90.62 66.6799 90.55 66.6299C89.94 66.1899 89.34 65.7499 88.73 65.3099C88.71 65.2999 88.7 65.2999 88.68 65.3099C88.01 65.7899 87.35 66.2799 86.68 66.7599C86.67 66.7599 86.66 66.7799 86.64 66.7799C86.79 66.3299 86.93 65.8699 87.08 65.4199C87.19 65.0799 87.3 64.7299 87.42 64.3899C87.42 64.3699 87.42 64.3599 87.4 64.3399C86.73 63.8499 86.06 63.3699 85.39 62.8799C85.38 62.8799 85.37 62.8599 85.35 62.8499V62.8699Z" fill="#131B53"/>
<path d="M52.85 62.8699H52.9C53.73 62.8699 54.55 62.8699 55.38 62.8699C55.41 62.8699 55.42 62.8699 55.43 62.8299C55.68 62.0399 55.94 61.2499 56.2 60.4599C56.2 60.4599 56.2 60.4499 56.21 60.4299C56.24 60.5299 56.27 60.6299 56.31 60.7199C56.54 61.4199 56.77 62.1199 56.99 62.8299C56.99 62.8499 57.01 62.8599 57.03 62.8599C57.86 62.8599 58.69 62.8599 59.52 62.8599H59.56C59.56 62.8599 59.55 62.8799 59.54 62.8799C58.87 63.3699 58.2 63.8499 57.53 64.3399C57.5 64.3599 57.5 64.3799 57.51 64.4099C57.77 65.1899 58.02 65.9799 58.27 66.7599C58.27 66.7699 58.28 66.7799 58.27 66.7899C58.19 66.7399 58.12 66.6799 58.05 66.6299C57.44 66.1899 56.84 65.7499 56.23 65.3099C56.21 65.2999 56.2 65.2999 56.18 65.3099C55.51 65.7899 54.85 66.2799 54.18 66.7599C54.17 66.7599 54.16 66.7799 54.14 66.7799C54.29 66.3299 54.43 65.8699 54.58 65.4199C54.69 65.0799 54.8 64.7299 54.92 64.3899C54.92 64.3699 54.92 64.3599 54.9 64.3399C54.23 63.8499 53.56 63.3699 52.89 62.8799C52.88 62.8799 52.87 62.8599 52.85 62.8499V62.8699Z" fill="#131B53"/>
<path d="M42.19 62.8699H42.24C43.07 62.8699 43.89 62.8699 44.72 62.8699C44.75 62.8699 44.76 62.8699 44.77 62.8299C45.02 62.0399 45.28 61.2499 45.54 60.4599C45.54 60.4599 45.54 60.4499 45.55 60.4299C45.58 60.5299 45.61 60.6299 45.65 60.7199C45.88 61.4199 46.11 62.1199 46.33 62.8299C46.33 62.8499 46.35 62.8599 46.37 62.8599C47.2 62.8599 48.03 62.8599 48.86 62.8599H48.9C48.9 62.8599 48.89 62.8799 48.88 62.8799C48.21 63.3699 47.54 63.8499 46.87 64.3399C46.84 64.3599 46.84 64.3799 46.85 64.4099C47.11 65.1899 47.36 65.9799 47.61 66.7599C47.61 66.7699 47.62 66.7799 47.61 66.7899C47.53 66.7399 47.46 66.6799 47.39 66.6299C46.78 66.1899 46.18 65.7499 45.57 65.3099C45.55 65.2999 45.54 65.2999 45.52 65.3099C44.85 65.7899 44.19 66.2799 43.52 66.7599C43.51 66.7599 43.5 66.7799 43.48 66.7799C43.63 66.3299 43.77 65.8699 43.92 65.4199C44.03 65.0799 44.14 64.7299 44.26 64.3899C44.26 64.3699 44.26 64.3599 44.24 64.3399C43.57 63.8499 42.9 63.3699 42.23 62.8799C42.22 62.8799 42.21 62.8599 42.19 62.8499V62.8699Z" fill="#131B53"/>
<path d="M52.02 88.2899C55.3834 88.2899 58.11 85.5633 58.11 82.1999C58.11 78.8364 55.3834 76.1099 52.02 76.1099C48.6566 76.1099 45.93 78.8364 45.93 82.1999C45.93 85.5633 48.6566 88.2899 52.02 88.2899Z" stroke="white" stroke-width="2.77" stroke-miterlimit="10"/>
<path d="M53.58 72.45H50.75V75.5099H53.58V72.45Z" fill="white"/>
<path d="M60.3723 76.9327L58.594 74.7312L56.2136 76.654L57.9919 78.8555L60.3723 76.9327Z" fill="white"/>
<path d="M61.84 83.6899V80.8599H58.78V83.6899H61.84Z" fill="white"/>
<path d="M57.9369 90.134L60.0991 88.3081L58.1248 85.9702L55.9626 87.7961L57.9369 90.134Z" fill="white"/>
<path d="M53.52 89H50.69V92.06H53.52V89Z" fill="white"/>
<path d="M46.2017 78.4324L48.071 76.3076L45.7735 74.2864L43.9042 76.4112L46.2017 78.4324Z" fill="white"/>
<path d="M45.37 83.6701V80.8401H42.31V83.6701H45.37Z" fill="white"/>
<path d="M48.1887 87.7773L46.0266 85.9514L44.0523 88.2893L46.2144 90.1152L48.1887 87.7773Z" fill="white"/>
<path d="M67.46 69.3301V94.2101" stroke="white" stroke-width="1.29" stroke-miterlimit="10"/>
<path d="M84.89 112.57C85.16 112.12 85.55 111.71 85.99 111.48C86.28 111.33 86.58 111.21 86.87 111.06C86.97 110.94 87.08 110.84 87.2 110.74C87.34 110.61 87.49 110.49 87.67 110.38C87.69 110.37 87.71 110.36 87.73 110.35C87.88 110.14 88.03 109.96 88.18 109.79C88.35 109.53 88.57 109.29 88.81 109.09C87.8 109.11 86.96 109.37 86.41 109.59C85.49 109.97 84.52 110.25 83.53 110.38C82.18 110.56 80.57 110.57 79.76 109.84C79.04 109.18 78.05 109.06 77.21 109.11C76.47 109.15 75.75 109.35 75.08 109.66C73.95 110.19 71.01 111.36 69.42 110.01C68.47 109.21 67.43 109.08 66.6 109.16C65.94 109.23 65.31 109.45 64.74 109.79C63.95 110.26 61.62 111.38 59.35 109.84C56.54 107.95 54.18 109.91 54.18 109.91C54.18 109.91 52.79 111.16 49.35 109.81C47.67 109.15 46.42 109.16 45.58 109.34C45.64 109.4 45.71 109.46 45.76 109.52C45.83 109.6 45.9 109.67 45.97 109.73C46.43 110.02 46.92 110.27 47.36 110.59C48.02 111.05 48.62 111.58 49.25 112.08C49.45 112.22 49.65 112.36 49.85 112.49C50.21 112.72 50.51 113 50.74 113.31C51.07 113.13 51.49 113.04 51.95 113.19C53.2 113.6 54.38 114.24 55.43 114.54C56.27 114.78 57.37 113.99 57.77 113.66C58.11 113.38 58.52 113.18 58.95 113.09C59.53 112.97 60.32 113 61.24 113.53C62.75 114.41 63.35 114.47 63.54 114.46C63.6 114.46 63.66 114.45 63.73 114.45C64.08 114.45 65.21 114.31 66.49 113.2C67.55 112.28 68.98 113.13 69.79 113.76C70.84 114.59 72.33 114.62 73.38 113.79C73.42 113.76 73.45 113.73 73.49 113.7C75.03 112.42 77.11 113.54 77.67 113.88C77.73 113.92 77.79 113.96 77.85 114C78.11 114.18 79.78 115.17 82.38 113.5C83.47 112.8 84.3 112.59 84.9 112.59L84.89 112.57Z" fill="white" stroke="white" stroke-width="0.37" stroke-miterlimit="10"/>
<path d="M37.65 95.6599L96.44 95.7199C96.44 95.7199 91.19 118.08 67.52 117.71C42.05 117.31 37.65 95.6699 37.65 95.6699V95.6599Z" fill="white" stroke="#131B53" stroke-width="0.46" stroke-miterlimit="10"/>
<path d="M40.43 102.49L44.09 98.4099L48.06 102.85L51.83 98.5199L56.01 102.8L59.93 98.3599L63.9 102.9L67.87 98.4699L71.58 102.95L75.25 98.4099L79.48 102.85L83.45 98.4099L87.52 103.06L91.5 98.4099L94.23 101.3" stroke="#131B53" stroke-width="0.46" stroke-miterlimit="10"/>
<path d="M84.78 112.61C84.81 112.66 86.01 111.65 86.01 111.66C86.01 111.69 86.78 111.07 86.77 111.05C86.87 110.93 87.03 110.82 87.15 110.72C87.29 110.59 87.42 110.57 87.6 110.46C87.62 110.45 87.57 110.33 87.58 110.32C87.58 110.33 88.14 109.78 88.14 109.78C88.14 109.78 88.69 109.24 88.86 109.06C87.84 109.08 87.06 109.37 86.51 109.59C85.58 109.97 84.61 110.25 83.61 110.38C82.25 110.56 80.62 110.57 79.81 109.84C79.08 109.18 78.08 109.06 77.24 109.11C76.5 109.15 75.77 109.35 75.09 109.66C73.95 110.19 70.98 111.36 69.38 110.01C68.42 109.21 67.38 109.08 66.54 109.16C65.87 109.23 65.23 109.45 64.66 109.79C63.86 110.26 61.52 111.38 59.22 109.84C56.39 107.95 54 109.91 54 109.91C54 109.91 52.6 111.16 49.12 109.81C47.43 109.15 46.34 109.06 45.49 109.24C45.58 109.31 45.64 109.41 45.64 109.42C45.64 109.42 45.88 109.65 45.95 109.72C45.95 109.73 47.21 110.82 47.21 110.82C47.21 110.82 48.63 111.92 48.63 111.91C48.83 112.05 49.55 112.54 49.75 112.67C50.11 112.9 50.67 113.25 50.67 113.24C51.01 113.06 51.27 113.05 51.73 113.2C52.99 113.61 54.19 114.25 55.24 114.55C56.09 114.79 57.2 114 57.6 113.67C57.95 113.39 58.35 113.19 58.79 113.1C59.38 112.98 60.18 113.01 61.1 113.54C62.63 114.42 63.23 114.48 63.42 114.47C63.48 114.47 63.54 114.46 63.61 114.46C63.97 114.46 65.1 114.32 66.39 113.21C67.46 112.29 68.9 113.14 69.72 113.77C70.78 114.6 72.28 114.63 73.34 113.8C73.38 113.77 73.41 113.74 73.45 113.71C75 112.43 77.1 113.55 77.67 113.89C77.73 113.93 77.79 113.97 77.85 114.01C78.11 114.19 79.79 115.18 82.42 113.51C83.52 112.81 84.15 112.63 84.76 112.64L84.78 112.61Z" fill="#131B53" stroke="#131B53" stroke-width="0.37" stroke-miterlimit="10"/>
<path d="M79.45 80.9202C80.19 81.1102 80.81 81.6802 81.06 82.4002C81.24 82.9202 81.22 83.4902 81.2 84.0502C81.18 84.6102 81.15 85.1702 81.31 85.7002C81.47 86.2302 81.86 86.7302 82.4 86.8502C82.5 86.8702 82.63 86.8902 82.68 86.9802C82.72 87.0402 82.72 87.1102 82.72 87.1802C82.72 87.5802 82.7 87.9702 82.7 88.3702C81.98 88.3402 81.31 88.0402 80.69 87.6702C80.28 87.4202 79.89 87.1402 79.63 86.7302C79.1 85.8902 79.33 84.8002 79.27 83.8102C79.25 83.5202 79.2 83.2102 79.04 82.9602C78.84 82.6602 78.5 82.4902 78.15 82.3902C77.8 82.2902 77.44 82.2702 77.09 82.1902C76.22 82.0002 75.43 81.4702 74.91 80.7502C74.79 80.5802 74.68 80.4002 74.63 80.2102C74.56 79.9802 74.56 79.7302 74.6 79.4902C74.74 78.5502 75.44 77.7202 76.35 77.4302C77 77.2302 77.71 77.2902 78.37 77.2702C79.07 77.2602 79.78 77.3302 80.46 77.5002C80.92 77.6102 81.4 77.7902 81.6 78.2802C81.68 78.4702 81.66 78.6902 81.55 78.8702C81.53 78.9102 81.5 78.9502 81.45 78.9702C81.37 79.0102 81.27 78.9702 81.19 78.9402C80.96 78.8202 80.73 78.6002 80.48 78.6402C80.23 78.6802 80.07 78.9902 80.21 79.2202C80.31 79.3802 80.5 79.4302 80.66 79.5002C80.9 79.6002 81.13 79.8202 81.05 80.0902C81 80.2602 80.84 80.3702 80.67 80.3902C80.39 80.4202 80.15 80.2802 79.92 80.1402C79.5 79.8802 79.08 79.6302 78.66 79.3702C78.34 79.1702 78 78.9702 77.6 79.0202C77.46 79.0402 77.34 79.1002 77.24 79.1902C76.92 79.4902 77.07 79.8802 77.32 80.0902C77.5 80.2402 77.72 80.3202 77.93 80.4002L79.45 80.9102V80.9202Z" fill="white"/>
<path d="M79.38 81.1901C82.17 82.1601 79.86 85.2301 81.68 86.7601C82.01 87.0401 82.44 87.0101 82.44 87.5901C82.44 88.3501 81.7 87.9001 81.21 87.6501C80.31 87.1901 79.79 86.5601 79.57 85.5501C79.45 84.9901 79.62 84.3801 79.56 83.8201C79.32 81.8801 77.84 82.3801 76.4 81.6701C75.8 81.3801 75.08 80.8101 74.9 80.1501C74.62 79.1101 75.49 78.0501 76.42 77.7101C77.12 77.4601 78.15 77.5301 78.9 77.5701C78.98 77.5701 81.66 78.0501 80.99 78.5001C80.77 78.6501 80.44 78.2501 80.1 78.5501C79.81 78.8101 79.94 78.9901 79.95 79.3001C79.95 79.6901 80.91 80.0301 79.65 79.6501C79.07 79.4701 78.63 78.8501 77.99 78.7801C77.24 78.7001 76.51 79.2601 76.93 80.0401C77.32 80.7501 78.7 80.9601 79.39 81.1901C79.73 81.3001 79.87 80.7701 79.54 80.6501C79.28 80.5601 78.26 80.3901 78.14 80.1801L78.02 80.1401C78.27 79.5401 78.58 79.4501 78.95 79.8701C79.4 79.9801 79.74 80.5001 80.22 80.6001C81.02 80.7701 81.55 80.3401 81.19 79.5401C81.01 79.1401 80.62 79.4001 80.91 79.2101C81.08 79.1001 81.29 79.3301 81.47 79.2601C81.75 79.1401 81.87 79.0001 81.93 78.6701C82.16 77.3201 79.99 77.1001 79.17 77.0401C77.49 76.9101 75.5 76.8801 74.62 78.6001C74.01 79.7801 74.42 80.8601 75.39 81.6701C76.3 82.4301 77.11 82.2101 78.1 82.6801C79.57 83.3801 78.81 84.8201 79.09 86.0501C79.46 87.6501 81.21 88.4901 82.72 88.6701C82.87 88.6901 82.99 88.5301 83 88.3901C83.01 87.8601 83.11 87.3001 82.91 86.8001C82.73 86.3601 81.91 86.3601 81.61 85.6401C81.34 84.9901 81.54 84.1301 81.52 83.4401C81.48 82.1001 80.84 81.1201 79.56 80.6701C79.22 80.5501 79.08 81.0901 79.41 81.2101L79.38 81.1901Z" fill="white"/>
<path d="M87.75 80.95C87.01 81.14 86.39 81.71 86.14 82.43C85.96 82.95 85.98 83.52 86 84.08C86.02 84.64 86.05 85.2 85.89 85.73C85.73 86.26 85.34 86.76 84.8 86.88C84.7 86.9 84.57 86.92 84.52 87.01C84.48 87.07 84.48 87.14 84.48 87.21C84.48 87.61 84.5 88 84.5 88.4C85.22 88.37 85.89 88.07 86.51 87.7C86.92 87.45 87.31 87.17 87.57 86.76C88.1 85.92 87.87 84.83 87.93 83.84C87.95 83.55 88 83.24 88.16 82.99C88.36 82.69 88.7 82.52 89.05 82.42C89.4 82.32 89.76 82.3 90.11 82.22C90.98 82.03 91.77 81.5 92.29 80.78C92.41 80.61 92.52 80.43 92.57 80.24C92.64 80.01 92.64 79.76 92.6 79.52C92.46 78.58 91.76 77.75 90.85 77.46C90.2 77.26 89.49 77.32 88.83 77.3C88.13 77.29 87.42 77.36 86.74 77.53C86.28 77.64 85.8 77.82 85.6 78.31C85.52 78.5 85.54 78.72 85.65 78.9C85.67 78.94 85.7 78.98 85.75 79C85.83 79.04 85.93 79 86.01 78.97C86.24 78.85 86.47 78.63 86.72 78.67C86.97 78.71 87.13 79.02 86.99 79.25C86.89 79.41 86.7 79.46 86.54 79.53C86.3 79.63 86.07 79.85 86.15 80.12C86.2 80.29 86.36 80.4 86.53 80.42C86.81 80.45 87.05 80.31 87.28 80.17C87.7 79.91 88.12 79.66 88.54 79.4C88.86 79.2 89.2 79 89.6 79.05C89.74 79.07 89.86 79.13 89.96 79.22C90.28 79.52 90.13 79.91 89.88 80.12C89.7 80.27 89.48 80.35 89.27 80.43L87.75 80.94V80.95Z" fill="white"/>
<path d="M87.68 80.68C86.4 81.13 85.76 82.11 85.72 83.45C85.7 84.08 85.94 85.1 85.63 85.65C85.38 86.1 84.52 86.43 84.33 86.81C84.09 87.28 84.23 87.89 84.24 88.4C84.24 88.54 84.37 88.7 84.52 88.68C86.02 88.5 87.78 87.66 88.15 86.06C88.43 84.83 87.68 83.4 89.14 82.69C90.12 82.22 90.93 82.44 91.85 81.68C92.82 80.87 93.22 79.79 92.62 78.61C91.75 76.9 89.73 76.93 88.07 77.05C87.26 77.11 85.08 77.34 85.31 78.68C85.37 79 85.5 79.15 85.77 79.27C85.88 79.32 86.08 79.16 86.17 79.2C86.82 79.45 86.2 79.05 86.05 79.56C85.81 80.35 86.13 80.8 87.02 80.62C87.49 80.52 87.83 80.01 88.29 79.89C88.26 79.89 89.76 79.15 89.17 80.18C89.04 80.41 87.97 80.58 87.7 80.67C87.36 80.78 87.51 81.32 87.85 81.21C88.54 80.98 89.74 80.8 90.21 80.19C90.8 79.42 90.11 78.7 89.25 78.8C88.61 78.87 88.17 79.46 87.59 79.67C86.3 80.13 87.28 79.67 87.29 79.32C87.29 79.02 87.41 78.86 87.17 78.59C86.76 78.14 86.61 78.74 86.25 78.52C85.26 77.88 88.86 77.56 88.34 77.59C88.99 77.55 89.71 77.53 90.35 77.66C91.45 77.89 92.7 78.84 92.34 80.17C92.17 80.8 91.4 81.4 90.84 81.69C89.42 82.41 87.92 81.9 87.68 83.84C87.48 85.46 87.86 86.73 86.02 87.67C85.52 87.93 84.8 88.34 84.79 87.61C84.78 86.88 85.08 87.27 85.4 86.91C85.91 86.33 86.21 86 86.3 85.18C86.48 83.63 85.9 81.89 87.85 81.21C88.19 81.09 88.04 80.56 87.7 80.67L87.68 80.68Z" fill="white"/>
<path d="M82.56 75.55V88.92C82.56 88.92 81.33 89.41 80.72 90.73C80.11 92.05 80.59 92.16 80.59 92.16C80.59 92.16 82.04 90.69 82.78 90.05C82.78 90.05 82.96 89.87 82.98 90.31C83 90.75 83.29 92.29 83.29 92.29C83.29 92.29 83.6 92.82 83.88 92.16C84.16 91.5 84.12 90.05 84.12 90.05C84.12 90.05 84.87 90.12 85.81 91.41C86.75 92.7001 86.34 90.69 86.34 90.69C86.34 90.69 86.25 89.7901 84.74 88.8201L84.61 75.59L82.57 75.55H82.56Z" fill="white"/>
<path d="M84.58 77.44L87.14 76.76C86.91 72.91 85.23 71.71 85.23 71.71C85.23 71.71 84.13 70.09 82.25 71.65C80.37 73.2 80.28 76.83 80.28 76.83L82.64 77.52" fill="white"/>
<path d="M80.1 75.73C80.1 75.73 83.56 74.21 87.27 75.73" stroke="black" stroke-width="0.2" stroke-miterlimit="10"/>
<path d="M80.1 73.8801C80.1 73.8801 83.56 72.3601 87.27 73.8801" stroke="black" stroke-width="0.2" stroke-miterlimit="10"/>
<path d="M84.59 77.4301L84.57 75.1701L82.6 75.1301V77.4801" fill="white"/>
<path d="M84.59 77.4301L84.57 75.1701L82.6 75.1301V77.4801" stroke="black" stroke-width="0.09" stroke-miterlimit="10"/>
<path d="M86.47 74.1799H87.9C87.9 74.1799 88.74 74.1399 88.07 73.6299C87.4 73.1199 87.56 72.3199 87.56 72.3199C87.56 72.3199 87.81 71.6899 88.83 71.8599C89.84 72.0299 94.94 72.3699 96.8 72.0299C98.66 71.6899 97.07 73.7599 97.07 73.7599C97.07 73.7599 95.36 75.8299 92.79 76.0399C90.22 76.2499 91.06 75.1099 91.06 75.1099L90.55 75.4899C90.55 75.4899 89.2 76.2099 87.81 75.1499L86.67 75.0699L86.46 74.1799H86.47Z" fill="white"/>
<path d="M80.91 74.21H79.48C79.48 74.21 78.64 74.17 79.31 73.66C79.98 73.15 79.82 72.35 79.82 72.35C79.82 72.35 79.57 71.72 78.55 71.89C77.53 72.06 72.44 72.4 70.58 72.06C68.72 71.72 70.31 73.7899 70.31 73.7899C70.31 73.7899 72.02 75.86 74.59 76.07C77.16 76.28 76.32 75.14 76.32 75.14L76.83 75.52C76.83 75.52 78.18 76.2399 79.57 75.1799L80.71 75.1L80.92 74.21H80.91Z" fill="white"/>
<path d="M19.62 99.9801H18.96V99.0801H20.57V104.35H19.62V99.9801Z" fill="#131B53"/>
<path d="M22.99 101.42C22.99 101.42 22.9 101.33 22.84 101.27C22.79 101.21 22.73 101.14 22.69 101.06C22.64 100.98 22.6 100.89 22.57 100.78C22.54 100.68 22.52 100.56 22.52 100.42C22.52 100.24 22.55 100.07 22.62 99.89C22.68 99.71 22.78 99.56 22.9 99.42C23.02 99.28 23.18 99.17 23.36 99.09C23.54 99 23.74 98.96 23.97 98.96C24.2 98.96 24.4 99 24.58 99.09C24.76 99.18 24.91 99.29 25.04 99.42C25.17 99.56 25.26 99.71 25.32 99.89C25.38 100.07 25.42 100.24 25.42 100.42C25.42 100.55 25.4 100.67 25.37 100.78C25.34 100.88 25.3 100.98 25.25 101.06C25.2 101.14 25.15 101.21 25.09 101.27C25.04 101.33 24.99 101.38 24.94 101.42C24.99 101.45 25.06 101.49 25.15 101.56C25.24 101.62 25.32 101.7 25.41 101.81C25.5 101.91 25.57 102.04 25.63 102.2C25.69 102.35 25.72 102.54 25.72 102.75C25.72 102.99 25.67 103.22 25.57 103.43C25.47 103.64 25.34 103.82 25.18 103.97C25.02 104.12 24.83 104.24 24.62 104.33C24.41 104.42 24.19 104.46 23.96 104.46C23.73 104.46 23.51 104.42 23.3 104.33C23.09 104.24 22.9 104.12 22.74 103.97C22.58 103.82 22.45 103.63 22.35 103.43C22.25 103.22 22.2 103 22.2 102.75C22.2 102.54 22.23 102.35 22.29 102.2C22.35 102.05 22.43 101.92 22.51 101.81C22.6 101.71 22.68 101.62 22.77 101.56C22.86 101.5 22.93 101.45 22.98 101.42H22.99ZM24.77 102.74C24.77 102.63 24.75 102.52 24.71 102.42C24.67 102.32 24.61 102.24 24.54 102.16C24.47 102.09 24.38 102.03 24.28 101.99C24.18 101.95 24.08 101.93 23.96 101.93C23.84 101.93 23.74 101.95 23.64 101.99C23.54 102.03 23.46 102.09 23.38 102.16C23.3 102.23 23.25 102.32 23.21 102.42C23.17 102.52 23.15 102.62 23.15 102.74C23.15 102.86 23.17 102.96 23.21 103.06C23.25 103.16 23.31 103.24 23.38 103.32C23.45 103.39 23.54 103.45 23.64 103.49C23.74 103.53 23.84 103.55 23.96 103.55C24.08 103.55 24.18 103.53 24.28 103.49C24.38 103.45 24.46 103.39 24.54 103.32C24.61 103.25 24.67 103.16 24.71 103.06C24.75 102.96 24.77 102.86 24.77 102.74ZM24.53 100.44C24.53 100.28 24.48 100.15 24.37 100.04C24.26 99.9299 24.13 99.8699 23.97 99.8699C23.81 99.8699 23.69 99.9299 23.58 100.04C23.47 100.15 23.42 100.29 23.42 100.44C23.42 100.59 23.47 100.72 23.58 100.83C23.69 100.94 23.82 101 23.97 101C24.12 101 24.26 100.94 24.37 100.83C24.48 100.72 24.53 100.59 24.53 100.44Z" fill="#131B53"/>
<path d="M27.59 100.93H27.75C27.84 100.93 27.92 100.93 28 100.9C28.08 100.88 28.15 100.85 28.21 100.8C28.27 100.75 28.32 100.7 28.36 100.63C28.4 100.56 28.42 100.47 28.42 100.37C28.42 100.18 28.37 100.05 28.27 99.9799C28.17 99.9099 28.06 99.8699 27.95 99.8699C27.86 99.8699 27.79 99.89 27.73 99.92C27.67 99.96 27.62 100 27.59 100.05C27.55 100.1 27.53 100.16 27.51 100.21C27.49 100.26 27.48 100.31 27.48 100.35H26.53C26.55 100.05 26.62 99.7999 26.74 99.6199C26.86 99.4399 26.99 99.3 27.14 99.2C27.29 99.11 27.44 99.0399 27.58 99.0099C27.73 98.9799 27.84 98.96 27.92 98.96C28.12 98.96 28.31 99 28.49 99.08C28.67 99.16 28.82 99.2599 28.95 99.3999C29.08 99.5299 29.18 99.68 29.25 99.86C29.32 100.03 29.36 100.21 29.36 100.39C29.36 100.54 29.34 100.66 29.31 100.77C29.27 100.88 29.23 100.97 29.19 101.04C29.14 101.11 29.09 101.17 29.04 101.22C28.99 101.27 28.95 101.3 28.91 101.32C29.12 101.41 29.28 101.52 29.39 101.66C29.5 101.8 29.58 101.94 29.64 102.08C29.69 102.22 29.72 102.34 29.73 102.46C29.73 102.57 29.74 102.65 29.74 102.69C29.74 102.96 29.69 103.2 29.59 103.42C29.49 103.64 29.35 103.82 29.18 103.98C29.01 104.13 28.82 104.25 28.6 104.33C28.38 104.41 28.16 104.45 27.93 104.45C27.7 104.45 27.5 104.41 27.29 104.34C27.08 104.26 26.9 104.15 26.74 104.01C26.58 103.86 26.44 103.69 26.33 103.48C26.22 103.27 26.16 103.03 26.15 102.77H27.1C27.11 102.91 27.15 103.03 27.21 103.13C27.27 103.23 27.34 103.31 27.42 103.38C27.5 103.44 27.59 103.49 27.69 103.52C27.78 103.55 27.87 103.57 27.95 103.57C28.05 103.57 28.15 103.55 28.25 103.51C28.35 103.47 28.44 103.41 28.52 103.34C28.6 103.27 28.67 103.18 28.72 103.07C28.77 102.96 28.79 102.85 28.79 102.72C28.79 102.62 28.77 102.51 28.74 102.41C28.7 102.31 28.65 102.21 28.56 102.13C28.48 102.05 28.37 101.98 28.24 101.93C28.11 101.88 27.94 101.85 27.75 101.85H27.59V100.95V100.93Z" fill="#131B53"/>
<path d="M31.58 100.93H31.74C31.83 100.93 31.91 100.93 31.99 100.9C32.07 100.88 32.14 100.85 32.2 100.8C32.26 100.75 32.31 100.7 32.35 100.63C32.39 100.56 32.41 100.47 32.41 100.37C32.41 100.18 32.36 100.05 32.26 99.9799C32.16 99.9099 32.05 99.8699 31.94 99.8699C31.85 99.8699 31.78 99.89 31.72 99.92C31.66 99.96 31.61 100 31.58 100.05C31.54 100.1 31.52 100.16 31.5 100.21C31.48 100.26 31.47 100.31 31.47 100.35H30.52C30.54 100.05 30.61 99.7999 30.73 99.6199C30.85 99.4399 30.98 99.3 31.13 99.2C31.28 99.11 31.43 99.0399 31.57 99.0099C31.72 98.9799 31.83 98.96 31.91 98.96C32.11 98.96 32.3 99 32.48 99.08C32.66 99.16 32.81 99.2599 32.94 99.3999C33.07 99.5299 33.17 99.68 33.24 99.86C33.31 100.03 33.35 100.21 33.35 100.39C33.35 100.54 33.33 100.66 33.3 100.77C33.26 100.88 33.22 100.97 33.18 101.04C33.13 101.11 33.08 101.17 33.03 101.22C32.98 101.27 32.94 101.3 32.9 101.32C33.11 101.41 33.27 101.52 33.38 101.66C33.49 101.8 33.57 101.94 33.63 102.08C33.68 102.22 33.71 102.34 33.72 102.46C33.72 102.57 33.73 102.65 33.73 102.69C33.73 102.96 33.68 103.2 33.58 103.42C33.48 103.64 33.34 103.82 33.17 103.98C33 104.13 32.81 104.25 32.59 104.33C32.37 104.41 32.15 104.45 31.92 104.45C31.69 104.45 31.49 104.41 31.28 104.34C31.07 104.26 30.89 104.15 30.73 104.01C30.57 103.86 30.43 103.69 30.32 103.48C30.21 103.27 30.15 103.03 30.14 102.77H31.09C31.1 102.91 31.14 103.03 31.2 103.13C31.26 103.23 31.33 103.31 31.41 103.38C31.49 103.44 31.58 103.49 31.68 103.52C31.77 103.55 31.86 103.57 31.94 103.57C32.04 103.57 32.14 103.55 32.24 103.51C32.34 103.47 32.43 103.41 32.51 103.34C32.59 103.27 32.66 103.18 32.71 103.07C32.76 102.96 32.78 102.85 32.78 102.72C32.78 102.62 32.76 102.51 32.73 102.41C32.69 102.31 32.64 102.21 32.55 102.13C32.47 102.05 32.36 101.98 32.23 101.93C32.1 101.88 31.93 101.85 31.74 101.85H31.58V100.95V100.93Z" fill="#131B53"/>
<path d="M102.08 100.05H101.41V99.1401H103.04V104.47H102.08V100.05Z" fill="#131B53"/>
<path d="M105.48 101.51C105.48 101.51 105.39 101.42 105.33 101.36C105.27 101.3 105.22 101.23 105.18 101.15C105.13 101.07 105.09 100.97 105.06 100.87C105.03 100.76 105.01 100.64 105.01 100.51C105.01 100.33 105.04 100.15 105.11 99.98C105.17 99.8 105.27 99.65 105.39 99.51C105.51 99.37 105.67 99.26 105.85 99.18C106.03 99.09 106.24 99.05 106.47 99.05C106.7 99.05 106.91 99.09 107.09 99.18C107.27 99.27 107.43 99.38 107.55 99.51C107.68 99.65 107.77 99.8 107.84 99.98C107.9 100.16 107.94 100.34 107.94 100.51C107.94 100.64 107.92 100.76 107.89 100.87C107.86 100.98 107.81 101.07 107.76 101.15C107.71 101.23 107.66 101.3 107.6 101.36C107.54 101.42 107.5 101.47 107.45 101.51C107.5 101.54 107.57 101.58 107.66 101.65C107.75 101.71 107.84 101.8 107.92 101.9C108.01 102.01 108.08 102.14 108.14 102.29C108.2 102.45 108.23 102.63 108.23 102.85C108.23 103.09 108.18 103.32 108.08 103.53C107.98 103.74 107.85 103.92 107.69 104.08C107.53 104.24 107.34 104.36 107.12 104.44C106.9 104.53 106.68 104.57 106.45 104.57C106.22 104.57 106 104.53 105.78 104.44C105.56 104.35 105.37 104.23 105.21 104.08C105.05 103.92 104.92 103.74 104.82 103.53C104.72 103.32 104.67 103.09 104.67 102.85C104.67 102.63 104.7 102.45 104.76 102.29C104.82 102.13 104.9 102 104.98 101.9C105.07 101.79 105.15 101.71 105.24 101.65C105.33 101.59 105.4 101.54 105.45 101.51H105.48ZM107.29 102.85C107.29 102.73 107.27 102.63 107.23 102.53C107.19 102.43 107.13 102.35 107.05 102.27C106.98 102.2 106.89 102.14 106.79 102.09C106.69 102.05 106.58 102.03 106.47 102.03C106.36 102.03 106.25 102.05 106.15 102.09C106.05 102.13 105.97 102.19 105.89 102.27C105.82 102.34 105.76 102.43 105.71 102.53C105.67 102.63 105.65 102.74 105.65 102.85C105.65 102.96 105.67 103.07 105.71 103.17C105.75 103.27 105.81 103.35 105.89 103.43C105.96 103.5 106.05 103.56 106.15 103.61C106.25 103.65 106.36 103.67 106.47 103.67C106.58 103.67 106.69 103.65 106.79 103.61C106.89 103.57 106.97 103.51 107.05 103.43C107.12 103.36 107.18 103.27 107.23 103.17C107.27 103.07 107.29 102.96 107.29 102.85ZM107.04 100.52C107.04 100.36 106.98 100.23 106.87 100.11C106.76 100 106.63 99.94 106.47 99.94C106.31 99.94 106.18 100 106.07 100.11C105.96 100.22 105.9 100.36 105.9 100.52C105.9 100.68 105.96 100.81 106.07 100.92C106.18 101.03 106.31 101.09 106.47 101.09C106.63 101.09 106.76 101.03 106.87 100.92C106.98 100.81 107.04 100.67 107.04 100.52Z" fill="#131B53"/>
<path d="M109.31 104.47L110.49 102.67C110.49 102.67 110.41 102.69 110.37 102.69C110.33 102.69 110.28 102.69 110.23 102.69C110.04 102.69 109.85 102.65 109.66 102.57C109.47 102.49 109.3 102.37 109.15 102.22C109 102.07 108.88 101.89 108.79 101.68C108.7 101.47 108.65 101.23 108.65 100.96C108.65 100.68 108.7 100.42 108.8 100.18C108.9 99.94 109.04 99.74 109.21 99.58C109.38 99.41 109.58 99.28 109.8 99.19C110.02 99.1 110.25 99.05 110.5 99.05C110.75 99.05 110.97 99.09 111.19 99.18C111.41 99.27 111.61 99.4 111.78 99.56C111.95 99.73 112.09 99.93 112.19 100.16C112.29 100.4 112.34 100.66 112.34 100.95C112.34 101.05 112.34 101.15 112.31 101.26C112.29 101.37 112.26 101.49 112.22 101.61C112.18 101.72 112.13 101.82 112.08 101.92C112.03 102.02 111.97 102.11 111.91 102.2L110.43 104.46H109.31V104.47ZM111.39 100.91C111.39 100.78 111.37 100.66 111.32 100.54C111.27 100.42 111.21 100.32 111.13 100.23C111.05 100.14 110.96 100.07 110.85 100.02C110.74 99.9701 110.63 99.94 110.5 99.94C110.36 99.94 110.23 99.97 110.11 100.03C110 100.09 109.9 100.16 109.83 100.25C109.76 100.34 109.7 100.44 109.66 100.55C109.62 100.66 109.6 100.77 109.6 100.87C109.6 101 109.62 101.13 109.66 101.25C109.7 101.37 109.76 101.46 109.84 101.55C109.92 101.63 110.01 101.7 110.12 101.75C110.23 101.8 110.35 101.82 110.48 101.82C110.62 101.82 110.75 101.79 110.86 101.73C110.97 101.67 111.06 101.6 111.14 101.51C111.21 101.42 111.27 101.33 111.31 101.22C111.35 101.11 111.37 101.01 111.37 100.91H111.39Z" fill="#131B53"/>
<path d="M114.17 100.05H113.5V99.1401H115.13V104.47H114.17V100.05Z" fill="#131B53"/>
<path d="M39.6 107.27C39.6 107.27 41.02 109.48 40.27 110.9C39.52 112.32 33.35 114.94 32.68 118.23C32.01 121.51 31.69 114.94 32.66 112.77C33.63 110.6 32.88 107.56 32.88 107.56L39.6 107.27Z" fill="white" stroke="#131B53" stroke-width="0.38" stroke-miterlimit="10"/>
<path d="M94.62 107.1C94.62 107.1 93.2 109.31 93.95 110.73C94.7 112.15 100.87 114.77 101.54 118.06C102.21 121.35 102.53 114.77 101.56 112.6C100.59 110.43 101.34 107.39 101.34 107.39L94.62 107.1Z" fill="white" stroke="#131B53" stroke-width="0.38" stroke-miterlimit="10"/>
<path d="M112.83 107.6C112.83 107.6 112.99 110.87 111.88 115.48L112.83 107.6Z" fill="black"/>
<path d="M112.83 107.6C112.83 107.6 112.99 110.87 111.88 115.48" stroke="white" stroke-width="1.2" stroke-miterlimit="10"/>
<path d="M107.51 57.1999C109.675 57.1999 111.43 55.4448 111.43 53.2799C111.43 51.1149 109.675 49.3599 107.51 49.3599C105.345 49.3599 103.59 51.1149 103.59 53.2799C103.59 55.4448 105.345 57.1999 107.51 57.1999Z" fill="white" stroke="#131B53" stroke-width="0.09" stroke-miterlimit="10"/>
<path d="M112.88 72.3801C115.045 72.3801 116.8 70.625 116.8 68.4601C116.8 66.2951 115.045 64.54 112.88 64.54C110.715 64.54 108.96 66.2951 108.96 68.4601C108.96 70.625 110.715 72.3801 112.88 72.3801Z" fill="white" stroke="#131B53" stroke-width="0.09" stroke-miterlimit="10"/>
<path d="M107.51 86.62C109.675 86.62 111.43 84.865 111.43 82.7C111.43 80.5351 109.675 78.78 107.51 78.78C105.345 78.78 103.59 80.5351 103.59 82.7C103.59 84.865 105.345 86.62 107.51 86.62Z" fill="white" stroke="#131B53" stroke-width="0.09" stroke-miterlimit="10"/>
<path d="M109.47 63.5901C110.26 63.9401 110.93 64.4401 111.07 65.3501C111.13 65.7501 111.63 65.9601 111.98 65.8701C112.4 65.7501 112.56 65.3601 112.5 64.9601C112.31 63.7101 111.32 62.8101 110.22 62.3201C109.86 62.1601 109.42 62.2101 109.21 62.5901C109.03 62.9101 109.11 63.4401 109.48 63.6001L109.47 63.5901Z" fill="white"/>
<path d="M109.28 79.5801C109.51 78.7901 110.05 78.1901 110.8 77.8501C111.39 77.5801 110.88 76.7001 110.29 76.9701C109.32 77.4201 108.6 78.28 108.31 79.31C108.13 79.94 109.11 80.2101 109.29 79.5801H109.28Z" fill="white"/>
<path d="M108.89 50.24C109.18 49.72 109.65 49.37 110.23 49.22C110.86 49.06 110.6 48.08 109.96 48.24C109.13 48.45 108.43 48.99 108.01 49.73C107.69 50.3 108.57 50.81 108.89 50.24Z" fill="white"/>
<path d="M47.63 120.62C47.19 120.43 47 120.45 46.78 120.76C46.58 121.03 46.41 121.27 46.02 121.91C45.42 122.88 44.83 123.85 44.23 124.83C44.09 124.74 43.95 124.65 43.8 124.56C43.51 122.67 43.34 120.8 43.31 118.96C42.92 119.47 42.52 119.99 42.13 120.5C41.68 121.09 41.49 121.37 41.36 121.59C41.16 121.91 41.19 122.19 41.71 122.62C41.65 122.71 41.59 122.79 41.52 122.88C40.92 122.43 40.32 121.97 39.73 121.49C39.8 121.41 39.86 121.32 39.93 121.24C40.36 121.54 40.62 121.57 40.91 121.29C41.13 121.07 41.33 120.83 41.79 120.24C42.21 119.7 42.62 119.17 43.04 118.63C43.21 118.41 43.32 118.25 43.34 117.98C43.36 117.72 43.23 117.58 42.99 117.34C43.06 117.26 43.12 117.18 43.19 117.09C43.59 117.42 44 117.74 44.41 118.06C44.45 119.68 44.59 121.33 44.84 123C45.11 122.56 45.39 122.13 45.66 121.69C46.06 121.06 46.2 120.81 46.35 120.53C46.53 120.2 46.52 119.99 45.99 119.59C46.05 119.5 46.11 119.41 46.17 119.33C46.71 119.69 47.25 120.04 47.8 120.36C47.75 120.45 47.69 120.54 47.64 120.63L47.63 120.62Z" fill="#131B53"/>
<path d="M50.68 121.77C51.94 122.38 52.57 123.88 51.97 125.46C51.32 127.17 49.6499 127.76 48.1299 127.02C46.5199 126.24 46.02 124.47 46.86 123.05C47.6 121.78 49.14 121.02 50.69 121.78L50.68 121.77ZM50.41 122.06C49.71 121.72 48.79 122.2 48.08 123.54C47.4 124.82 47.33 126.21 48.41 126.73C49.17 127.1 50.07 126.63 50.69 125.18C51.36 123.61 51.21 122.45 50.41 122.06Z" fill="#131B53"/>
<path d="M58.17 124.89C57.67 124.83 57.51 124.87 57.02 125.59C56.63 126.17 55.28 128.01 54.19 129.36C54.04 129.31 53.88 129.27 53.73 129.22C53.67 128.5 53.58 125.36 53.61 124.39C53.61 123.7 53.56 123.54 53.11 123.31C53.15 123.21 53.19 123.11 53.23 123.01C53.95 123.29 54.68 123.55 55.41 123.79C55.38 123.89 55.34 123.99 55.31 124.09C54.75 124 54.73 124.05 54.74 124.44C54.74 125.2 54.78 127.07 54.84 127.88C55.67 126.85 56.39 125.83 56.71 125.34C57.05 124.82 57.03 124.68 56.43 124.43C56.46 124.33 56.49 124.23 56.52 124.12C57.1 124.29 57.67 124.44 58.25 124.57C58.23 124.67 58.2 124.78 58.18 124.88L58.17 124.89Z" fill="#131B53"/>
<path d="M59.13 130.47C59.15 130.37 59.17 130.26 59.18 130.16C59.72 130.18 59.74 130.08 59.68 129.7C59.64 129.43 59.57 129.03 59.51 128.67C58.98 128.58 58.46 128.47 57.93 128.35C57.79 128.59 57.6 128.88 57.46 129.13C57.17 129.62 57.35 129.73 58 129.94C57.98 130.04 57.96 130.15 57.94 130.25C57.24 130.1 56.55 129.94 55.86 129.76C55.89 129.66 55.91 129.55 55.94 129.45C56.48 129.52 56.64 129.48 57.08 128.84C57.98 127.53 58.83 126.2 59.62 124.85C59.74 124.85 59.86 124.85 59.99 124.85C60.19 126.41 60.48 128.01 60.82 129.51C61.02 130.34 61.09 130.42 61.63 130.55C61.62 130.66 61.61 130.76 61.59 130.87C60.76 130.77 59.94 130.65 59.12 130.5L59.13 130.47ZM59.16 126.3C58.82 126.86 58.48 127.38 58.15 127.95C58.57 128.04 59 128.13 59.42 128.21C59.32 127.57 59.23 126.94 59.15 126.3H59.16Z" fill="#131B53"/>
<path d="M63.58 131.04C63.58 130.93 63.59 130.83 63.6 130.72C64.25 130.71 64.33 130.65 64.36 129.93C64.41 128.84 64.47 127.75 64.53 126.66C64.57 125.94 64.5 125.87 63.94 125.78C63.94 125.67 63.96 125.57 63.96 125.46C64.73 125.52 65.4899 125.55 66.2599 125.56C66.2599 125.67 66.2599 125.77 66.2599 125.88C65.6999 125.93 65.62 125.99 65.6 126.71C65.57 127.8 65.55 128.89 65.52 129.98C65.5 130.69 65.5799 130.75 66.2299 130.83C66.2299 130.94 66.2299 131.04 66.2299 131.15C65.3499 131.15 64.46 131.1 63.58 131.04Z" fill="#131B53"/>
<path d="M72.35 128.39C71.91 128.54 71.85 128.58 71.93 129.16C71.96 129.38 71.99 129.6 72.02 129.82C72.06 130.13 72.11 130.41 72.18 130.64C71.76 130.78 70.85 131.09 70.15 131.14C68.12 131.3 66.94 130.05 66.93 128.35C66.93 126.42 68.28 125.45 69.83 125.31C70.43 125.26 71.1 125.35 71.34 125.35C71.4 125.72 71.55 126.36 71.67 126.82C71.57 126.85 71.48 126.89 71.38 126.92C71.1 126.22 70.78 125.89 70.3 125.75C70.12 125.7 69.84 125.69 69.66 125.7C68.77 125.77 68.12 126.69 68.18 128.17C68.24 129.68 68.82 130.87 70.22 130.76C70.39 130.75 70.61 130.7 70.75 130.59C70.87 130.5 70.92 130.35 70.89 130.08C70.86 129.83 70.84 129.58 70.81 129.33C70.74 128.73 70.62 128.69 69.94 128.66C69.94 128.55 69.92 128.45 69.91 128.34C70.71 128.27 71.5 128.19 72.29 128.07C72.31 128.17 72.32 128.28 72.34 128.38L72.35 128.39Z" fill="#131B53"/>
<path d="M77.35 124.31C76.9 124.5 76.82 124.69 76.88 124.99C76.93 125.24 76.99 125.53 77.16 126.11C77.26 126.47 77.37 126.83 77.47 127.19C77.67 127.9 77.78 128.65 77.44 129.27C77.17 129.77 76.62 130.09 76.02 130.23C75.47 130.36 74.88 130.35 74.43 130.1C73.87 129.82 73.55 129.34 73.38 128.39C73.25 127.68 73.13 126.96 73.01 126.25C72.87 125.47 72.8 125.43 72.23 125.45C72.21 125.35 72.2 125.24 72.18 125.14C72.94 125.03 73.69 124.89 74.44 124.72C74.46 124.82 74.49 124.93 74.51 125.03C73.97 125.21 73.92 125.27 74.07 126.05C74.22 126.8 74.37 127.54 74.53 128.29C74.72 129.23 75.31 129.77 76.2 129.56C77.19 129.33 77.41 128.47 77.06 127.23C76.96 126.88 76.87 126.54 76.77 126.19C76.61 125.62 76.51 125.33 76.43 125.08C76.3 124.71 76.07 124.68 75.55 124.77C75.52 124.67 75.5 124.56 75.47 124.46C76.07 124.31 76.66 124.15 77.25 123.97C77.28 124.07 77.31 124.17 77.34 124.27L77.35 124.31Z" fill="#131B53"/>
<path d="M81.74 128.38C81.7 128.28 81.66 128.18 81.62 128.08C82.1 127.81 82.06 127.72 81.81 127.43C81.63 127.22 81.37 126.91 81.13 126.64C80.63 126.83 80.12 127.01 79.62 127.19C79.62 127.47 79.62 127.82 79.62 128.1C79.62 128.67 79.84 128.67 80.5 128.51C80.54 128.61 80.57 128.71 80.61 128.81C79.94 129.04 79.26 129.26 78.58 129.46C78.55 129.36 78.52 129.26 78.49 129.16C78.99 128.94 79.09 128.82 79.14 128.05C79.23 126.47 79.27 124.89 79.24 123.32C79.34 123.25 79.45 123.19 79.55 123.12C80.53 124.35 81.61 125.57 82.68 126.67C83.29 127.28 83.39 127.3 83.92 127.14C83.96 127.24 84.01 127.33 84.05 127.43C83.29 127.78 82.51 128.1 81.73 128.4L81.74 128.38ZM79.6 124.79C79.6 125.45 79.58 126.06 79.6 126.72C80.01 126.58 80.42 126.43 80.82 126.28C80.41 125.79 80 125.29 79.6 124.79Z" fill="#131B53"/>
<path d="M88.25 123.48C88.38 123.91 88.54 124.58 88.58 124.91C88.41 125.07 87.88 125.59 87.3 125.92C85.21 127.07 83.69 126.08 83.13 124.84C82.4 123.21 82.98 121.65 84.55 120.77C85.12 120.45 85.72 120.3 85.89 120.22C86.14 120.54 86.52 121.05 86.77 121.34C86.69 121.41 86.61 121.49 86.53 121.56C86.04 121.08 85.67 120.93 85.23 120.97C85.03 120.99 84.77 121.1 84.59 121.2C83.63 121.73 83.59 122.9 84.2 124.11C84.9 125.52 86.11 126.11 87.16 125.52C87.8 125.16 88.03 124.58 87.92 123.54C88.03 123.52 88.15 123.5 88.26 123.48H88.25ZM87.37 125.85C87.32 126.06 87.28 126.28 87.3 126.31C87.33 126.36 87.4 126.39 87.59 126.36C88.16 126.28 88.36 126.38 88.48 126.59C88.72 126.99 88.51 127.59 87.65 128.14C87.58 128.07 87.51 128.01 87.45 127.94C87.92 127.55 88.06 127.32 87.98 127.18C87.92 127.08 87.81 127.07 87.46 127.11C87.15 127.14 86.95 127.11 86.87 126.93C86.8 126.79 86.86 126.49 87.03 126.02C87.14 125.96 87.26 125.9 87.37 125.83V125.85Z" fill="#131B53"/>
<path d="M91.01 116.71C90.66 117.08 90.67 117.29 90.84 117.55C90.99 117.76 91.17 117.99 91.56 118.45C91.8 118.73 92.05 119.02 92.29 119.3C92.77 119.86 93.17 120.5 93.11 121.22C93.06 121.8 92.67 122.34 92.17 122.72C91.7 123.08 91.15 123.33 90.62 123.3C89.98 123.28 89.49 122.98 88.95 122.19C88.54 121.59 88.13 120.99 87.73 120.39C87.29 119.73 87.2 119.73 86.67 120C86.61 119.91 86.55 119.82 86.5 119.73C87.16 119.3 87.81 118.85 88.45 118.38C88.51 118.46 88.58 118.55 88.64 118.63C88.21 119.02 88.18 119.11 88.64 119.75C89.09 120.37 89.53 120.98 89.98 121.6C90.54 122.38 91.31 122.62 92.06 122.04C92.9 121.39 92.76 120.51 91.93 119.53C91.7 119.26 91.47 118.98 91.24 118.71C90.86 118.26 90.64 118.03 90.46 117.85C90.18 117.57 89.96 117.64 89.51 117.96C89.44 117.88 89.38 117.79 89.31 117.71C89.81 117.31 90.31 116.9 90.79 116.47C90.86 116.55 90.93 116.63 91 116.71H91.01Z" fill="#131B53"/>
<path d="M21.44 107.75L21.42 114.5L24.23 115.83L24.14 107.83L21.44 107.75Z" fill="white"/>
<path d="M23.67 86.3501L27.97 80.1901C27.94 82.0601 29.78 87.3401 30.23 88.1601C30.68 88.9801 30.85 88.3601 30.85 88.3601C30.85 88.3601 30.79 81.2901 29.78 78.5201C28.76 75.7501 26.95 78.3201 26.95 78.3201L21.18 86.45L23.67 86.3501Z" fill="white"/>
<path d="M21.15 86.31L23.77 82.64V78.77L20.93 78.81L21.15 86.31Z" fill="white"/>
<path d="M20.07 89.0499L18.47 84.3399C18.47 84.3399 17.61 82.9899 15.97 84.4499C14.33 85.9099 11.41 94.9499 11.41 94.9499C11.41 94.9499 11.3 95.8499 11.86 95.2499C12.42 94.6499 17.04 86.2999 17.04 86.2999C17.04 86.2999 17.36 88.3299 18.14 89.2999L20.08 89.0399L20.07 89.0499Z" fill="white"/>
<path d="M17.1 85.5C17.1 85.5 16.92 85.8 17.01 86.38" stroke="#131B53" stroke-width="0.05" stroke-miterlimit="10" stroke-linecap="round"/>
<path d="M27.68 79.27C27.68 79.27 27.9 79.3 27.95 80.25" stroke="#131B53" stroke-width="0.05" stroke-miterlimit="10" stroke-linecap="round"/>
<path d="M20.94 78.7L23.79 78.66L19.84 68.97C19.56 68.28 18.85 67.85 18.11 67.96C18.08 67.96 18.05 67.96 18.02 67.98C17.2 68.14 16.58 68.82 16.45 69.64L14.98 78.95C14.98 78.95 14.92 79.53 15.47 79.29C16.02 79.05 18.7 73.71 18.73 72.39C18.76 71.07 20.94 78.7 20.94 78.7Z" fill="white"/>
<path d="M18.14 70.71C18.14 70.71 18.67 70.95 18.76 72.31" stroke="#131B53" stroke-width="0.05" stroke-miterlimit="10" stroke-linecap="round"/>
<path d="M23.78 78.49L23.83 72.25L21.23 72.23L23.78 78.49Z" fill="white"/>
<path d="M21.25 72.1199L23.82 72.1399C23.82 72.1399 25.49 70.1299 27.03 66.6299C27.03 66.6299 27.44 66.0799 27.56 67.7399C27.67 69.1799 29.54 72.8299 30.01 73.7299C30.06 73.8299 30.11 73.9299 30.16 74.0399C30.24 74.2099 30.42 74.4799 30.51 73.8899C30.63 73.0999 29.57 65.4399 28.82 64.1999C28.2 63.1499 26.51 62.6099 25.25 64.8599C23.99 67.1099 21.24 72.1199 21.24 72.1199H21.25Z" fill="white"/>
<path d="M26.72 65.6799C26.72 65.6799 27.01 65.7999 27.25 66.5499" stroke="#131B53" stroke-width="0.05" stroke-miterlimit="10" stroke-linecap="round"/>
<path d="M21.23 71.92L21.05 65.03L23.77 65.04L23.82 67.26L21.23 71.92Z" fill="white"/>
<path d="M21.06 64.8999H23.81L18.45 53.7899C18.3 53.4799 18.07 53.2199 17.77 53.0599C17.27 52.7899 16.48 52.7199 15.53 53.8799C14 55.7499 15.13 62.9699 15.28 63.8699C15.3 63.9699 15.33 64.0599 15.39 64.1399C15.51 64.3099 15.75 64.4399 16.09 63.7199C16.6 62.6399 18.36 59.6899 17.81 57.0199C17.76 56.7499 17.73 56.5999 17.73 56.5499C17.74 56.0999 19.87 63.6799 21.07 64.8899L21.06 64.8999Z" fill="white"/>
<path d="M17.85 55.6499C17.85 55.6499 17.66 55.9999 17.75 56.6299" stroke="#131B53" stroke-width="0.05" stroke-miterlimit="10" stroke-linecap="round"/>
<path d="M21.1 59.09L21.13 57.53L24 57.6L23.84 64.74L21.1 59.09Z" fill="white"/>
<path d="M21.13 57.3399L23.99 57.4099C23.99 57.4099 26.7 53.9999 28.34 50.4399C28.44 50.2199 28.59 50.0299 28.79 49.9099C29.04 49.7499 29.34 49.7099 29.37 50.3999C29.42 51.5999 30.03 55.1899 31.72 58.0799C31.72 58.0799 32.42 59.2599 32.19 58.0599C31.96 56.8599 31.29 53.7899 31.38 50.0999C31.38 50.0999 31.45 48.6499 30.16 47.9499C28.87 47.2499 27.79 47.6099 27.33 47.9299C25.88 48.9199 21.55 56.3299 21.12 57.3399H21.13Z" fill="white"/>
<path d="M28.81 49.1399C28.81 49.1399 29.29 49.1599 29.35 50.0799" stroke="#131B53" stroke-width="0.05" stroke-miterlimit="10" stroke-linecap="round"/>
<path d="M21.67 49.5499C21.67 49.5499 22.44 39.4699 22.24 37.4199C22.14 36.3899 22.21 36.5199 22.3 36.9099C22.44 37.4999 22.5 38.1099 22.5 38.7199C22.5 40.4099 22.5 44.3399 22.73 44.9299C23.02 45.6799 23.02 46.1999 23.02 46.1999" stroke="#131B53" stroke-width="0.05" stroke-miterlimit="10" stroke-linecap="round"/>
<path d="M67.85 30.7299C70.0426 30.7299 71.82 27.2422 71.82 22.9399C71.82 18.6376 70.0426 15.1499 67.85 15.1499C65.6574 15.1499 63.88 18.6376 63.88 22.9399C63.88 27.2422 65.6574 30.7299 67.85 30.7299Z" stroke="#131B53" stroke-width="0.45" stroke-miterlimit="10"/>
<path d="M69.85 29.5799L69.76 18.6899" stroke="#131B53" stroke-width="0.28" stroke-miterlimit="10"/>
<path d="M69.7936 19.4273C70.022 19.3443 69.9607 18.5995 69.6567 17.7639C69.3527 16.9283 68.9212 16.3183 68.6929 16.4013C68.4645 16.4844 68.5258 17.2292 68.8297 18.0648C69.1337 18.9004 69.5653 19.5104 69.7936 19.4273Z" fill="#131B53"/>
<path d="M70.6783 18.8754C70.9375 18.0249 70.9592 17.2779 70.7268 17.2071C70.4943 17.1362 70.0957 17.7683 69.8365 18.6189C69.5773 19.4694 69.5556 20.2164 69.788 20.2872C70.0205 20.3581 70.419 19.726 70.6783 18.8754Z" fill="#131B53"/>
<path d="M68.5455 21.7643C68.7738 21.6812 68.7125 20.9365 68.4085 20.1008C68.1046 19.2652 67.673 18.6552 67.4447 18.7383C67.2163 18.8213 67.2776 19.5661 67.5816 20.4017C67.8855 21.2373 68.3171 21.8473 68.5455 21.7643Z" fill="#131B53"/>
<path d="M69.2475 22.4526C69.4729 22.1453 69.0744 21.4699 68.3574 20.944C67.6404 20.4181 66.8765 20.2408 66.6511 20.5481C66.4257 20.8554 66.8242 21.5308 67.5412 22.0567C68.2582 22.5826 69.0221 22.7599 69.2475 22.4526Z" fill="#131B53"/>
<path d="M68.97 22.24L69.75 22.84" stroke="#131B53" stroke-width="0.18" stroke-miterlimit="10"/>
<path d="M71.2121 22.3363C71.7532 21.9256 72.0051 21.3465 71.7747 21.043C71.5443 20.7395 70.9188 20.8263 70.3777 21.2371C69.8366 21.6478 69.5848 22.2268 69.8152 22.5303C70.0456 22.8339 70.671 22.747 71.2121 22.3363Z" fill="#131B53"/>
<path d="M67.5617 25.3204C67.9792 25.1758 68.0817 24.3774 67.7906 23.5373C67.4995 22.6971 66.925 22.1332 66.5076 22.2779C66.0901 22.4225 65.9876 23.2209 66.2787 24.0611C66.5698 24.9012 67.1443 25.4651 67.5617 25.3204Z" fill="#131B53"/>
<path d="M66.578 26.1536C67.466 26.1083 68.1676 25.7139 68.1451 25.2726C68.1226 24.8314 67.3845 24.5104 66.4965 24.5557C65.6084 24.601 64.9068 24.9954 64.9293 25.4367C64.9518 25.8779 65.6899 26.1989 66.578 26.1536Z" fill="#131B53"/>
<path d="M68.7392 25.5614C69.5351 25.165 70.0206 24.523 69.8236 24.1275C69.6265 23.732 68.8216 23.7328 68.0258 24.1293C67.2299 24.5258 66.7444 25.1678 66.9414 25.5632C67.1384 25.9587 67.9433 25.9579 68.7392 25.5614Z" fill="#131B53"/>
<path d="M67.4593 26.9011C67.838 26.0966 67.821 25.2919 67.4213 25.1037C67.0215 24.9155 66.3904 25.4151 66.0117 26.2196C65.633 27.0241 65.65 27.8288 66.0497 28.017C66.4495 28.2052 67.0806 27.7056 67.4593 26.9011Z" fill="#131B53"/>
<path d="M69.0635 27.6015C69.4034 27.3192 69.2184 26.5358 68.6503 25.8518C68.0822 25.1678 67.3461 24.8421 67.0062 25.1244C66.6663 25.4067 66.8513 26.19 67.4194 26.8741C67.9875 27.5581 68.7236 27.8838 69.0635 27.6015Z" fill="#131B53"/>
<path d="M37.92 32.8701C37.92 32.8701 39.24 31.7901 39.98 33.3901C40.72 34.9901 42.05 37.3101 42.05 37.3101L40.41 38.0501L37.92 32.8701Z" fill="#131B53"/>
<path d="M52 34.0899L50.76 29.6599C50.76 29.6599 50.3 28.1299 51.91 27.7799C52.63 27.6299 53.48 27.7399 53.85 28.8299C54.22 29.9199 55.12 33.3199 55.12 33.3199L51.99 34.0799L52 34.0899Z" fill="#131B53"/>
<path d="M81.02 32.9599L81.99 28.4699C81.99 28.4699 82.3 26.8999 83.89 27.3499C84.6 27.5499 85.3 28.0399 85.12 29.1899C84.94 30.3199 84.15 33.7599 84.15 33.7599L81.02 32.9699V32.9599Z" fill="#131B53"/>
<path d="M97.06 31.9199C97.06 31.9199 95.77 30.8099 94.98 32.3899C94.2 33.9699 92.8 36.2499 92.8 36.2499L94.42 37.0399L97.05 31.9299L97.06 31.9199Z" fill="#131B53"/>
<path d="M94.88 38.5701C67.03 24.5001 40.09 39.1401 40.09 39.1401" stroke="white" stroke-width="1.29" stroke-miterlimit="10" stroke-linecap="round"/>
<path d="M42.58 44.1499C42.58 44.1499 64.42 29.3599 92.27 43.4299" stroke="white" stroke-width="1.29" stroke-miterlimit="10" stroke-linecap="round"/>
<path d="M43.24 43.6699L40.74 38.9799L42.89 37.7799L45.46 36.7599L48.89 35.6399L51.42 34.8699L53.48 34.3099L55.71 33.9199L57.98 33.3699L60.73 33.0199L63.05 32.7699L64.59 32.7199L66.95 32.6399H69.14L71.54 32.7199L73.85 32.8499L77.03 33.1999L80.37 33.7499L83.08 34.3499L87.24 35.5499L92 37.4399L94.3 38.7099L91.79 43.3999L90.28 42.4999L87.15 41.1699L84.19 40.0999L81.27 39.2399L78.74 38.5999L76.04 38.0799L73.3 37.8299L69.82 37.3599L66.43 37.4799L63.52 37.5299L60.3 37.9999L54.08 39.1099L51.47 40.2299L49.24 40.9199L47.18 41.8199L43.24 43.6699Z" fill="white" stroke="white" stroke-width="0.46" stroke-miterlimit="10" stroke-linecap="round"/>
<path d="M93.16 38.6501C67.07 25.5501 41.84 39.1801 41.84 39.1801" stroke="#131B53" stroke-width="0.18" stroke-miterlimit="10" stroke-linecap="round"/>
<path d="M91.71 42.4599C64.62 28.9499 43.64 42.9899 43.64 42.9899" stroke="#131B53" stroke-width="0.18" stroke-miterlimit="10" stroke-linecap="round"/>
</svg>
