<svg width="89" height="90" viewBox="0 0 89 90" fill="none" xmlns="http://www.w3.org/2000/svg">
<path d="M44.67 89.36C69.0755 89.36 88.86 69.5754 88.86 45.17C88.86 20.7645 69.0755 0.97998 44.67 0.97998C20.2646 0.97998 0.480042 20.7645 0.480042 45.17C0.480042 69.5754 20.2646 89.36 44.67 89.36Z" fill="#DF6939"/>
<path d="M66.18 63.1799C66.18 62.0699 65.81 61.1899 64.98 60.3799C62.86 58.3099 60.73 56.2399 58.62 54.1599C57.63 53.1799 56.7 52.1499 55.64 51.2399C54.96 50.6599 54.92 50.5199 55.38 49.7299C56.09 48.4899 56.72 47.2199 57.12 45.8399C57.74 43.6799 57.96 41.4799 57.74 39.2299C57.53 37.0099 56.93 34.9199 55.91 32.9499C54.42 30.0799 52.3 27.7699 49.54 26.0599C47.68 24.8999 45.69 24.0599 43.49 23.7899C42.84 23.7099 42.19 23.7199 41.54 23.6599C41.32 23.6399 41.09 23.6299 40.87 23.6299C40.52 23.6499 40.27 23.6299 39.97 23.6699H39.48C38.28 23.7399 37.08 23.7099 35.91 24.0399C32.04 25.1199 28.85 27.2399 26.45 30.4799C24.5 33.1099 23.23 36.0299 23.17 39.3699C23.14 41.0399 23.03 42.7299 23.35 44.3799C24.01 47.7999 25.65 50.7299 28.1 53.1799C29.66 54.7399 31.46 55.9799 33.51 56.8599C36.74 58.2499 40.08 58.6099 43.54 58.0099C45.58 57.6599 47.46 56.8899 49.24 55.8499C50.02 55.3899 50.09 55.3999 50.74 56.0499C51.31 56.6199 51.88 57.1899 52.45 57.7599C55.14 60.4499 57.83 63.1399 60.52 65.8299C60.89 66.1999 61.25 66.5499 61.81 66.6199C62.62 66.7299 63.43 66.7699 64.23 66.6199C65.29 66.4199 66.06 65.8799 66.1 64.7199C66.1 64.4099 66.16 64.0899 66.17 63.7899V63.4799C66.17 63.3699 66.17 63.2899 66.17 63.1999L66.18 63.1799ZM40.64 53.7499C33.53 53.6399 27.73 47.9199 27.76 40.8399C27.79 33.7599 33.58 27.9799 40.63 27.9799C47.74 27.9799 53.44 33.8299 53.53 40.9399C53.61 47.7199 47.21 53.8499 40.65 53.7499H40.64Z" fill="white"/>
</svg>
