<svg width="34" height="34" viewBox="0 0 34 34" fill="none" xmlns="http://www.w3.org/2000/svg">
<path d="M33.3397 15.7401V15.5501C33.2697 15.2001 33.2997 14.8401 33.2497 14.4901C32.6397 10.4601 30.7798 7.12013 27.6998 4.46013C25.5498 2.59013 23.0497 1.41013 20.2497 0.840128C19.6397 0.720128 19.0198 0.710127 18.4098 0.630127H18.2797C18.2697 0.710127 18.2098 0.690128 18.1598 0.680128C18.1198 0.680128 18.0797 0.680128 18.0297 0.680128C17.9697 0.680128 17.8997 0.680128 17.8397 0.680128C17.7897 0.680128 17.7397 0.680127 17.7097 0.630127H16.5698C16.5398 0.690127 16.4897 0.690128 16.4397 0.680128C16.3797 0.680128 16.3197 0.680128 16.2497 0.680128C16.2497 0.680128 16.1697 0.680128 16.1197 0.680128C16.0697 0.680128 16.0097 0.710127 15.9997 0.630127H15.7497C15.7497 0.630127 15.6798 0.660128 15.6298 0.660128C14.4698 0.690128 13.3498 0.940129 12.2598 1.29013C9.65976 2.13013 7.38976 3.52013 5.47976 5.49013C4.09976 6.91013 3.01976 8.51013 2.22976 10.3101C1.47976 12.0201 0.99976 13.8001 0.94976 15.6901C0.91976 16.9101 0.879755 18.1301 1.06975 19.3401C1.44975 21.8001 2.35976 24.0401 3.78976 26.0801C5.04976 27.8901 6.61976 29.3901 8.47976 30.5701C10.2598 31.7001 12.1997 32.4501 14.2697 32.8301C15.6197 33.0701 16.9697 33.0501 18.3297 33.0001C20.2997 32.9301 22.1497 32.4001 23.9297 31.5901C26.0997 30.6001 27.9497 29.1801 29.4997 27.3701C31.1997 25.3801 32.3598 23.1101 32.9798 20.5701C33.1698 19.7701 33.2697 18.9601 33.3297 18.1401V17.8201C33.2597 17.8001 33.2697 17.7501 33.2797 17.7001C33.2797 17.6301 33.2497 17.5501 33.3297 17.5101V17.3201C33.2297 17.1901 33.2297 17.0701 33.3297 16.9401V16.6901C33.2297 16.5601 33.2297 16.4401 33.3297 16.3101V16.1201C33.2697 16.0901 33.2697 16.0501 33.2797 15.9901C33.2797 15.9501 33.2797 15.9101 33.2797 15.8601C33.2797 15.8101 33.2597 15.7501 33.3297 15.7401H33.3397ZM23.3697 23.2901C23.1097 23.4901 22.8098 23.5701 22.4798 23.5701C18.9298 23.5701 15.3797 23.5701 11.8297 23.5701C11.0197 23.5701 10.4098 22.9801 10.4098 22.2301C10.4098 21.4601 11.0198 20.8801 11.8498 20.8701C13.6298 20.8701 15.4098 20.8701 17.1898 20.8701C18.9698 20.8701 20.7497 20.8701 22.5297 20.8701C23.1397 20.8701 23.6397 21.2401 23.8297 21.7901C24.0097 22.3401 23.8297 22.9301 23.3697 23.2901ZM10.5797 16.1701C10.8397 15.7101 11.2397 15.4801 11.7697 15.4801C12.6297 15.4801 13.4997 15.4801 14.3597 15.4801C17.0597 15.4801 19.7598 15.4801 22.4498 15.4801C23.2098 15.4801 23.7297 15.9001 23.8597 16.5701C24.0097 17.3801 23.4297 18.1301 22.6097 18.1601C21.7197 18.1801 20.8198 18.1601 19.9198 18.1601C18.9898 18.1601 18.0598 18.1601 17.1398 18.1601C15.3598 18.1601 13.5797 18.1601 11.7997 18.1601C10.7197 18.1601 10.0597 17.0801 10.5797 16.1701ZM22.4297 12.7701C20.6697 12.7701 18.9097 12.7701 17.1497 12.7701C15.3897 12.7701 13.5697 12.7701 11.7797 12.7701C11.1197 12.7701 10.5798 12.3401 10.4498 11.7301C10.3098 11.1001 10.6097 10.4801 11.1897 10.2101C11.3997 10.1101 11.6297 10.0801 11.8597 10.0801C15.3897 10.0801 18.9198 10.0801 22.4498 10.0801C23.2798 10.0801 23.8997 10.6601 23.8997 11.4201C23.8997 12.2001 23.2897 12.7801 22.4297 12.7801V12.7701Z" fill="#EC6229"/>
</svg>
