<svg width="687" height="226" viewBox="0 0 687 226" fill="none" xmlns="http://www.w3.org/2000/svg">
<path d="M668.55 216.44H586.35C585.8 216.44 585.36 216.1 585.36 215.67C585.36 215.24 585.8 214.9 586.35 214.9H668.55C669.1 214.9 669.54 215.24 669.54 215.67C669.54 216.1 669.1 216.44 668.55 216.44Z" fill="#C3C3C4"/>
<path d="M601.281 205.53H651.701C653.141 205.53 654.311 206.7 654.311 208.14V215.68H598.671V208.14C598.671 206.7 599.841 205.53 601.281 205.53Z" fill="#C3C3C4"/>
<path d="M655.301 216.44H597.69V207.83C597.69 206.13 599.46 204.75 601.63 204.75H651.36C653.53 204.75 655.301 206.13 655.301 207.83V216.44ZM599.661 214.9H653.32V207.83C653.32 206.98 652.44 206.29 651.35 206.29H601.62C600.53 206.29 599.651 206.98 599.651 207.83V214.9H599.661Z" fill="#C3C3C4"/>
<path d="M603.02 206.3C602.97 206.3 602.92 206.3 602.86 206.3C602.32 206.23 601.95 205.84 602.04 205.42L625.51 89.8302C625.59 89.4602 626 89.1802 626.49 89.1802C626.98 89.1802 627.39 89.4602 627.46 89.8302L650.34 205.42C650.42 205.84 650.05 206.23 649.51 206.3C648.97 206.36 648.47 206.08 648.38 205.66L626.46 94.9302L603.98 205.66C603.9 206.04 603.48 206.31 603.01 206.31L603.02 206.3Z" fill="#C3C3C4"/>
<path d="M604.36 205.64C604.06 205.64 603.76 205.53 603.56 205.32C603.24 204.98 603.33 204.49 603.77 204.24L643.07 181.78L611.47 161.38C611.26 161.25 611.14 161.06 611.12 160.85C611.1 160.64 611.19 160.44 611.36 160.28L635.04 139.24L619.63 119.94C619.44 119.7 619.43 119.4 619.6 119.16C619.77 118.92 620.1 118.76 620.46 118.76H631.81C632.36 118.76 632.8 119.1 632.8 119.53C632.8 119.96 632.36 120.3 631.81 120.3H622.24L637.09 138.91C637.32 139.2 637.28 139.57 636.99 139.83L613.49 160.7L645.29 181.22C645.52 181.37 645.66 181.6 645.65 181.84C645.64 182.08 645.49 182.3 645.25 182.44L604.92 205.48C604.74 205.58 604.54 205.63 604.34 205.63L604.36 205.64Z" fill="#C3C3C4"/>
<path d="M616.461 140.37C615.731 140.37 615.141 139.91 615.141 139.34C615.141 138.77 615.731 138.31 616.461 138.31H636.271C637.001 138.31 637.591 138.77 637.591 139.34C637.591 139.91 637.001 140.37 636.271 140.37H616.461Z" fill="#C3C3C4"/>
<path d="M576.74 162.21C576.26 162.21 575.85 161.94 575.77 161.58C575.68 161.21 575.95 160.85 576.41 160.72L613.77 150.23C614.28 150.09 614.85 150.29 615.03 150.69C615.21 151.09 614.95 151.53 614.44 151.68L582.57 160.63L670.55 159.93L638.27 151.69C637.75 151.56 637.47 151.12 637.64 150.72C637.81 150.32 638.37 150.09 638.89 150.23L676.86 159.92C677.32 160.04 677.6 160.4 677.53 160.77C677.46 161.14 677.05 161.42 676.56 161.42L576.75 162.22L576.74 162.21Z" fill="#C3C3C4"/>
<path d="M644.68 182.6H644.67L607.88 182.3C607.33 182.3 606.9 181.95 606.9 181.52C606.9 181.1 607.35 180.76 607.89 180.76H607.9L644.69 181.06C645.24 181.06 645.67 181.41 645.67 181.84C645.67 182.26 645.22 182.6 644.68 182.6Z" fill="#C3C3C4"/>
<path d="M659.5 119.3H592.54C592.08 119.3 591.68 119.05 591.58 118.69C591.48 118.34 591.71 117.98 592.13 117.83L622.5 106.89C622.99 106.71 623.58 106.89 623.81 107.27C624.04 107.66 623.82 108.11 623.33 108.29L597.04 117.76H655.13L629.57 108.29C629.08 108.11 628.87 107.65 629.1 107.26C629.33 106.88 629.92 106.71 630.42 106.89L659.93 117.83C660.35 117.98 660.57 118.34 660.47 118.7C660.37 119.06 659.97 119.3 659.51 119.3H659.5Z" fill="#C3C3C4"/>
<path d="M530.87 127.89H448.66C448.11 127.89 447.67 127.55 447.67 127.12C447.67 126.69 448.11 126.35 448.66 126.35H530.87C531.42 126.35 531.86 126.69 531.86 127.12C531.86 127.55 531.42 127.89 530.87 127.89Z" fill="#C3C3C4"/>
<path d="M463.6 116.97H514.02C515.46 116.97 516.63 118.14 516.63 119.58V127.12H460.99V119.58C460.99 118.14 462.16 116.97 463.6 116.97Z" fill="#C3C3C4"/>
<path d="M517.62 127.89H460.01V119.28C460.01 117.58 461.78 116.2 463.95 116.2H513.68C515.85 116.2 517.62 117.58 517.62 119.28V127.89ZM461.98 126.35H515.64V119.28C515.64 118.43 514.76 117.74 513.67 117.74H463.94C462.85 117.74 461.97 118.43 461.97 119.28V126.35H461.98Z" fill="#C3C3C4"/>
<path d="M465.339 117.74C465.289 117.74 465.239 117.74 465.179 117.74C464.639 117.67 464.269 117.28 464.359 116.86L487.829 1.27013C487.909 0.900126 488.319 0.620117 488.809 0.620117C489.299 0.620117 489.709 0.900126 489.779 1.27013L512.659 116.86C512.739 117.28 512.369 117.67 511.829 117.74C511.289 117.8 510.789 117.52 510.699 117.1L488.779 6.37012L466.299 117.1C466.219 117.48 465.799 117.75 465.329 117.75L465.339 117.74Z" fill="#C3C3C4"/>
<path d="M466.68 117.09C466.38 117.09 466.08 116.98 465.88 116.77C465.56 116.43 465.649 115.94 466.089 115.69L505.39 93.23L473.79 72.83C473.58 72.7 473.459 72.51 473.439 72.3C473.419 72.09 473.51 71.89 473.68 71.73L497.36 50.69L481.949 31.39C481.759 31.15 481.75 30.85 481.92 30.61C482.09 30.37 482.42 30.21 482.78 30.21H494.13C494.68 30.21 495.12 30.55 495.12 30.98C495.12 31.41 494.68 31.75 494.13 31.75H484.56L499.41 50.36C499.64 50.65 499.6 51.02 499.31 51.28L475.81 72.15L507.61 92.67C507.84 92.82 507.98 93.05 507.97 93.29C507.96 93.53 507.809 93.75 507.569 93.89L467.24 116.93C467.06 117.03 466.86 117.08 466.66 117.08L466.68 117.09Z" fill="#C3C3C4"/>
<path d="M478.779 51.81C478.049 51.81 477.459 51.35 477.459 50.78C477.459 50.21 478.049 49.75 478.779 49.75H498.589C499.319 49.75 499.909 50.21 499.909 50.78C499.909 51.35 499.319 51.81 498.589 51.81H478.779Z" fill="#C3C3C4"/>
<path d="M439.06 73.6603C438.58 73.6603 438.169 73.3903 438.089 73.0303C437.999 72.6603 438.27 72.3003 438.73 72.1703L476.089 61.6803C476.599 61.5403 477.169 61.7403 477.349 62.1403C477.529 62.5403 477.27 62.9803 476.76 63.1303L444.89 72.0803L532.87 71.3803L500.589 63.1403C500.069 63.0103 499.789 62.5703 499.959 62.1703C500.129 61.7703 500.689 61.5503 501.209 61.6803L539.18 71.3703C539.64 71.4903 539.919 71.8503 539.849 72.2203C539.779 72.5903 539.37 72.8703 538.88 72.8703L439.069 73.6703L439.06 73.6603Z" fill="#C3C3C4"/>
<path d="M507 94.0402H506.99L470.2 93.7402C469.65 93.7402 469.22 93.3902 469.22 92.9602C469.22 92.5402 469.67 92.2002 470.21 92.2002H470.22L507.01 92.5002C507.56 92.5002 507.99 92.8502 507.99 93.2802C507.99 93.7002 507.54 94.0402 507 94.0402Z" fill="#C3C3C4"/>
<path d="M521.819 30.7501H454.859C454.399 30.7501 453.999 30.5001 453.899 30.1401C453.799 29.7901 454.029 29.4301 454.449 29.2801L484.819 18.3401C485.319 18.1601 485.899 18.3401 486.129 18.7201C486.359 19.1101 486.139 19.5601 485.649 19.7401L459.359 29.2101H517.449L491.889 19.7401C491.399 19.5601 491.189 19.1001 491.419 18.7101C491.649 18.3301 492.239 18.1601 492.739 18.3401L522.249 29.2801C522.669 29.4301 522.889 29.7901 522.789 30.1501C522.689 30.5101 522.289 30.7501 521.829 30.7501H521.819Z" fill="#C3C3C4"/>
<path d="M207.5 225.08H125.29C124.74 225.08 124.3 224.74 124.3 224.31C124.3 223.88 124.74 223.54 125.29 223.54H207.5C208.05 223.54 208.49 223.88 208.49 224.31C208.49 224.74 208.05 225.08 207.5 225.08Z" fill="#C3C3C4"/>
<path d="M140.219 214.16H190.639C192.079 214.16 193.249 215.33 193.249 216.77V224.31H137.609V216.77C137.609 215.33 138.779 214.16 140.219 214.16Z" fill="#C3C3C4"/>
<path d="M194.24 225.08H136.63V216.47C136.63 214.77 138.4 213.39 140.57 213.39H190.3C192.47 213.39 194.24 214.77 194.24 216.47V225.08ZM138.6 223.54H192.26V216.47C192.26 215.62 191.38 214.93 190.29 214.93H140.56C139.47 214.93 138.59 215.62 138.59 216.47V223.54H138.6Z" fill="#C3C3C4"/>
<path d="M141.959 214.93C141.909 214.93 141.859 214.93 141.799 214.93C141.259 214.86 140.889 214.47 140.979 214.05L164.449 98.4601C164.529 98.0901 164.939 97.8101 165.429 97.8101C165.919 97.8101 166.329 98.0901 166.399 98.4601L189.279 214.05C189.359 214.47 188.989 214.86 188.449 214.93C187.909 214.99 187.409 214.71 187.319 214.29L165.399 103.56L142.919 214.29C142.839 214.67 142.419 214.94 141.949 214.94L141.959 214.93Z" fill="#C3C3C4"/>
<path d="M143.3 214.28C143 214.28 142.7 214.17 142.5 213.96C142.18 213.62 142.27 213.13 142.71 212.88L182.01 190.42L150.41 170.02C150.2 169.89 150.08 169.7 150.06 169.49C150.04 169.28 150.13 169.08 150.3 168.92L173.98 147.88L158.57 128.58C158.38 128.34 158.37 128.04 158.55 127.8C158.72 127.56 159.05 127.4 159.41 127.4H170.76C171.31 127.4 171.75 127.74 171.75 128.17C171.75 128.6 171.31 128.94 170.76 128.94H161.19L176.04 147.55C176.27 147.84 176.23 148.21 175.94 148.47L152.44 169.34L184.24 189.86C184.47 190.01 184.61 190.24 184.6 190.48C184.59 190.72 184.44 190.94 184.2 191.08L143.87 214.12C143.69 214.22 143.49 214.27 143.29 214.27L143.3 214.28Z" fill="#C3C3C4"/>
<path d="M155.4 149C154.67 149 154.08 148.54 154.08 147.97C154.08 147.4 154.67 146.94 155.4 146.94H175.21C175.94 146.94 176.53 147.4 176.53 147.97C176.53 148.54 175.94 149 175.21 149H155.4Z" fill="#C3C3C4"/>
<path d="M115.68 170.85C115.2 170.85 114.79 170.58 114.71 170.22C114.62 169.85 114.89 169.49 115.35 169.36L152.71 158.87C153.22 158.73 153.79 158.93 153.97 159.33C154.15 159.73 153.89 160.17 153.38 160.32L121.51 169.27L209.49 168.57L177.21 160.33C176.69 160.2 176.41 159.76 176.58 159.36C176.75 158.96 177.31 158.74 177.83 158.87L215.8 168.56C216.26 168.68 216.54 169.04 216.47 169.41C216.4 169.78 215.99 170.06 215.5 170.06L115.69 170.86H115.68V170.85Z" fill="#C3C3C4"/>
<path d="M183.62 191.23H183.61L146.82 190.93C146.27 190.93 145.84 190.58 145.84 190.15C145.84 189.72 146.29 189.39 146.84 189.39L183.63 189.69C184.18 189.69 184.61 190.04 184.61 190.47C184.61 190.89 184.16 191.23 183.62 191.23Z" fill="#C3C3C4"/>
<path d="M198.439 127.94H131.479C131.019 127.94 130.619 127.69 130.519 127.33C130.419 126.97 130.649 126.62 131.069 126.47L161.439 115.53C161.929 115.35 162.519 115.53 162.749 115.91C162.979 116.3 162.759 116.75 162.269 116.93L135.979 126.4H194.069L168.509 116.93C168.019 116.75 167.809 116.29 168.039 115.9C168.269 115.52 168.859 115.35 169.359 115.53L198.869 126.47C199.289 126.62 199.509 126.98 199.409 127.34C199.309 127.69 198.909 127.94 198.449 127.94H198.439Z" fill="#C3C3C4"/>
<path d="M93.5302 144.03H11.3201C10.7701 144.03 10.3301 143.69 10.3301 143.26C10.3301 142.83 10.7701 142.49 11.3201 142.49H93.5302C94.0802 142.49 94.5201 142.83 94.5201 143.26C94.5201 143.69 94.0802 144.03 93.5302 144.03Z" fill="#C3C3C4"/>
<path d="M26.2506 133.11H76.6707C78.1107 133.11 79.2806 134.28 79.2806 135.72V143.26H23.6406V135.72C23.6406 134.28 24.8106 133.11 26.2506 133.11Z" fill="#C3C3C4"/>
<path d="M80.2701 144.03H22.6602V135.42C22.6602 133.72 24.4301 132.34 26.6001 132.34H76.3301C78.5001 132.34 80.2701 133.72 80.2701 135.42V144.03ZM24.6301 142.49H78.2902V135.42C78.2902 134.57 77.4101 133.88 76.3201 133.88H26.5901C25.5001 133.88 24.6201 134.57 24.6201 135.42V142.49H24.6301Z" fill="#C3C3C4"/>
<path d="M27.9896 133.88C27.9396 133.88 27.8895 133.88 27.8295 133.88C27.2895 133.81 26.9196 133.42 27.0096 133L50.4796 17.4102C50.5596 17.0402 50.9695 16.7603 51.4595 16.7603C51.9495 16.7603 52.3596 17.0402 52.4296 17.4102L75.3096 133C75.3896 133.42 75.0196 133.81 74.4796 133.88C73.9396 133.94 73.4396 133.66 73.3496 133.24L51.4296 22.5103L28.9495 133.24C28.8695 133.62 28.4496 133.89 27.9796 133.89L27.9896 133.88Z" fill="#C3C3C4"/>
<path d="M29.3299 133.22C29.0299 133.22 28.7299 133.11 28.5299 132.9C28.2099 132.56 28.2999 132.07 28.7399 131.82L68.0399 109.36L36.4398 88.9603C36.2298 88.8303 36.1099 88.6403 36.0899 88.4303C36.0699 88.2203 36.1599 88.0203 36.3299 87.8603L60.0099 66.8203L44.5999 47.5203C44.4099 47.2803 44.3999 46.9803 44.5799 46.7403C44.7499 46.5003 45.0798 46.3403 45.4398 46.3403H56.7899C57.3399 46.3403 57.7799 46.6803 57.7799 47.1103C57.7799 47.5403 57.3399 47.8803 56.7899 47.8803H47.2199L62.0698 66.4903C62.2998 66.7803 62.2599 67.1503 61.9699 67.4103L38.4699 88.2803L70.2699 108.8C70.4999 108.95 70.6399 109.18 70.6299 109.42C70.6199 109.66 70.4699 109.88 70.2299 110.02L29.8999 133.06C29.7199 133.16 29.5198 133.21 29.3198 133.21L29.3299 133.22Z" fill="#C3C3C4"/>
<path d="M41.4294 67.9501C40.6994 67.9501 40.1094 67.4901 40.1094 66.9201C40.1094 66.3501 40.6994 65.8901 41.4294 65.8901H61.2394C61.9694 65.8901 62.5594 66.3501 62.5594 66.9201C62.5594 67.4901 61.9694 67.9501 61.2394 67.9501H41.4294Z" fill="#C3C3C4"/>
<path d="M1.70985 89.7902C1.22985 89.7902 0.819878 89.5202 0.739878 89.1602C0.649878 88.7902 0.919893 88.4302 1.37989 88.3002L38.7399 77.8102C39.2499 77.6702 39.8199 77.8702 39.9999 78.2702C40.1799 78.6702 39.9199 79.1102 39.4099 79.2602L7.53993 88.2102L95.5199 87.5102L63.2399 79.2702C62.7199 79.1402 62.4399 78.7002 62.6099 78.3002C62.7799 77.9002 63.3399 77.6802 63.8599 77.8102L101.83 87.5002C102.29 87.6202 102.57 87.9802 102.5 88.3502C102.43 88.7202 102.02 89.0002 101.53 89.0002L1.71986 89.8002H1.70985V89.7902Z" fill="#C3C3C4"/>
<path d="M69.6501 110.18H69.6401L32.8501 109.88C32.3001 109.88 31.8701 109.53 31.8701 109.1C31.8701 108.68 32.3201 108.34 32.8601 108.34H32.8701L69.6602 108.64C70.2102 108.64 70.6401 108.99 70.6401 109.42C70.6401 109.84 70.1901 110.18 69.6501 110.18Z" fill="#C3C3C4"/>
<path d="M84.4695 46.8805H17.5096C17.0496 46.8805 16.6496 46.6304 16.5496 46.2704C16.4496 45.9104 16.6795 45.5605 17.0995 45.4105L47.4695 34.4705C47.9595 34.2905 48.5496 34.4705 48.7796 34.8505C49.0096 35.2405 48.7896 35.6904 48.2996 35.8704L22.0096 45.3404H80.0995L54.5396 35.8704C54.0496 35.6904 53.8395 35.2304 54.0695 34.8404C54.2995 34.4604 54.8896 34.2905 55.3896 34.4705L84.8996 45.4105C85.3196 45.5605 85.5395 45.9204 85.4395 46.2804C85.3395 46.6304 84.9395 46.8805 84.4795 46.8805H84.4695Z" fill="#C3C3C4"/>
<path d="M266.26 70.0202C248.89 70.0202 231 69.3402 212.67 67.9802C138.55 62.4702 82.2304 47.4802 81.6704 47.3302C80.8104 47.1002 80.3504 46.3702 80.6504 45.7002C80.9504 45.0302 81.8804 44.6702 82.7404 44.9002C83.3004 45.0502 139.31 59.9502 213.06 65.4302C256.33 68.6402 297.15 68.0302 334.38 63.6102C380.85 58.0902 421.83 46.5902 456.18 29.4302C456.95 29.0502 457.96 29.2202 458.45 29.8202C458.94 30.4202 458.72 31.2102 457.95 31.5902C423.2 48.9502 381.77 60.5802 334.82 66.1502C313.09 68.7302 290.16 70.0202 266.25 70.0202H266.26Z" fill="#C3C3C4"/>
<path d="M266.04 115.56C249.24 115.56 232.02 114.71 214.47 113.01C147.38 106.52 97.9802 89.59 97.4902 89.42C96.6602 89.13 96.2902 88.37 96.6502 87.73C97.0202 87.08 97.9901 86.7899 98.8201 87.0799C99.3101 87.2499 148.34 104.04 214.97 110.48C254.06 114.26 291.47 113.78 326.17 109.08C369.49 103.2 408.68 90.6599 442.65 71.8099C443.39 71.3999 444.42 71.5299 444.94 72.1099C445.47 72.6899 445.29 73.4899 444.55 73.8999C410.16 92.9799 370.5 105.67 326.67 111.61C307.24 114.24 286.96 115.56 266.03 115.56H266.04Z" fill="#C3C3C4"/>
<path d="M388.04 158.35C365.57 158.35 342.859 157.11 320.079 154.62C282.009 150.47 250.79 143.54 231.3 138.47C210.16 132.96 197.849 128.36 197.719 128.32C196.899 128.01 196.559 127.25 196.949 126.61C197.339 125.97 198.33 125.7 199.15 126.01C199.63 126.19 248.25 144.22 320.65 152.1C363.14 156.73 405.4 157 446.24 152.92C497.27 147.82 546.24 135.87 591.77 117.39C592.58 117.06 593.57 117.31 593.99 117.94C594.41 118.57 594.1 119.34 593.29 119.67C547.39 138.3 498.029 150.34 446.579 155.48C427.339 157.4 407.78 158.36 388.03 158.36L388.04 158.35Z" fill="#C3C3C4"/>
<path d="M393.64 203.26C372.05 203.26 350.12 201.85 328.02 199.03C292.14 194.45 262.45 186.93 243.86 181.42C223.7 175.45 211.84 170.48 211.73 170.43C210.93 170.09 210.63 169.31 211.06 168.69C211.49 168.07 212.49 167.83 213.29 168.17C213.41 168.22 225.13 173.13 245.13 179.05C263.58 184.51 293.05 191.97 328.67 196.51C368.67 201.6 408.12 202.05 445.92 197.82C493.14 192.54 537.92 179.93 579.01 160.32C579.79 159.95 580.8 160.14 581.27 160.75C581.74 161.35 581.5 162.15 580.72 162.52C539.23 182.32 494.01 195.06 446.31 200.38C429.06 202.3 411.47 203.27 393.64 203.27V203.26Z" fill="#C3C3C4"/>
<path d="M685.04 60.46C685.04 60.46 684.98 60.46 684.95 60.46C630.07 58.17 587.61 50.48 561.65 44.42C533.47 37.85 518.05 31.71 517.89 31.65C517.08 31.33 516.76 30.55 517.18 29.92C517.59 29.29 518.59 29.04 519.4 29.36C519.55 29.42 534.78 35.47 562.7 41.98C588.47 47.99 630.63 55.62 685.12 57.89C686.03 57.93 686.72 58.53 686.68 59.24C686.63 59.92 685.91 60.46 685.04 60.46Z" fill="#C3C3C4"/>
<path d="M685.04 103.72C685.04 103.72 684.98 103.72 684.95 103.72C633.1 101.64 594.96 93.6701 572.09 87.3501C547.24 80.4801 534.85 74.1901 534.34 73.9201C533.58 73.5301 533.37 72.7301 533.87 72.1401C534.37 71.5501 535.39 71.3801 536.15 71.7701C536.27 71.8301 548.81 78.2001 573.34 84.9601C595.98 91.2101 633.75 99.0901 685.12 101.14C686.03 101.18 686.73 101.78 686.68 102.49C686.64 103.18 685.91 103.71 685.04 103.71V103.72Z" fill="#C3C3C4"/>
</svg>
