<svg width="1261" height="306" viewBox="0 0 1261 306" fill="none" xmlns="http://www.w3.org/2000/svg">
<path d="M1099.9 95.74C1109.48 97.85 1121.05 98.1499 1128.98 90.9599C1146.25 75.2999 1153.63 53.01 1168.54 45.88C1187.15 36.98 1212.84 22.8899 1259.5 32.3199" stroke="#C3C3C4" stroke-width="2.2" stroke-linecap="round" stroke-linejoin="round"/>
<path d="M525.11 153.57C525.27 153.26 525.43 152.94 525.58 152.62C533.05 137.08 556.67 110.06 576.79 119.31C586.37 123.71 592.31 121.3 596.73 116.45C597.93 115.14 598.16 113.23 599.09 111.7C603.35 104.74 612.86 100.02 634.99 102.66C660.92 105.76 667.21 96.81 668.62 93.58C669.29 92.05 670.06 90.59 671.03 89.25C674.76 84.08 683.56 75.0201 696.82 80.1401C712.98 86.3901 748.44 88.36 755.64 88.7C756.37 88.73 757.09 88.79 757.81 88.85C761.85 89.21 779.3 89.89 799.79 78C823.77 64.08 847.25 41.89 876.89 41.59C908.35 41.27 902.83 52.6101 928.49 56.4001C933.06 57.0701 939.24 54.8601 943.99 53.5401C949.61 51.9801 955.32 50.79 960.63 48.34C966.7 45.54 977.69 42.22 992.89 44.6" stroke="#C3C3C4" stroke-width="2.2" stroke-miterlimit="10" stroke-linecap="round"/>
<path d="M1.39001 303.5C6.69001 293.67 12.2 282.85 17.79 269.19C42.38 209.09 64.4 183.84 73.48 175.24C77.07 171.84 80.35 167.54 83.17 162.38C87.32 154.8 92.93 143.54 96.21 132.64C100.53 118.31 112.51 135.99 118.03 145.32C120.38 149.3 122.98 152.8 125.78 155.78C130.52 160.83 137.75 168.11 143.01 171.49C151.98 177.25 163.25 211.46 163.25 211.46C163.25 211.46 166.77 228.73 180.96 211.46C182.72 209.32 185.59 207.6 188.68 206.42" stroke="#C3C3C4" stroke-width="2.2" stroke-miterlimit="10" stroke-linecap="round"/>
<path d="M1028 303.49L1005.74 303.32C1005.56 303.32 1005.38 303.26 1005.25 303.16C1005.12 303.06 1005.05 302.93 1005.05 302.79L1006.06 257.57C1006.06 257.43 1006.14 257.29 1006.28 257.2L1027.53 242.38C1027.73 242.24 1028.03 242.2 1028.28 242.28C1028.53 242.36 1028.7 242.55 1028.7 242.76V302.97C1028.7 303.11 1028.63 303.24 1028.49 303.34C1028.36 303.44 1028.18 303.49 1028 303.49ZM1006.44 302.28L1027.31 302.44V243.95L1007.44 257.81L1006.45 302.28H1006.44Z" fill="#C3C3C4" stroke="#C3C3C4" stroke-width="0.52" stroke-miterlimit="10"/>
<path d="M1006.06 254.47C1005.97 254.47 1005.87 254.46 1005.79 254.43C1005.54 254.35 1005.37 254.16 1005.37 253.95L1005.65 173.95C1005.65 173.83 1005.71 173.71 1005.81 173.62L1027.89 153.41C1028.08 153.24 1028.38 153.18 1028.66 153.25C1028.94 153.32 1029.12 153.52 1029.12 153.74L1028.84 238.3C1028.84 238.44 1028.76 238.58 1028.62 238.68L1006.54 254.33C1006.41 254.42 1006.24 254.47 1006.06 254.47ZM1007.03 174.14L1006.76 252.74L1027.45 238.08L1027.72 155.21L1007.03 174.14Z" fill="#C3C3C4" stroke="#C3C3C4" stroke-width="0.52" stroke-miterlimit="10"/>
<path d="M1006.61 169.19C1006.53 169.19 1006.45 169.18 1006.37 169.16C1006.1 169.08 1005.91 168.89 1005.92 168.67L1006.2 136.75C1006.2 136.64 1006.25 136.53 1006.34 136.44L1028.14 114.89C1028.32 114.71 1028.63 114.64 1028.92 114.71C1029.2 114.78 1029.39 114.99 1029.39 115.21L1028.7 149.51C1028.7 149.63 1028.64 149.74 1028.54 149.84L1007.15 169.01C1007.02 169.13 1006.82 169.2 1006.62 169.2L1006.61 169.19ZM1007.58 136.93L1007.32 167.23L1027.31 149.31L1027.96 116.78L1007.57 136.93H1007.58Z" fill="#C3C3C4" stroke="#C3C3C4" stroke-width="0.52" stroke-miterlimit="10"/>
<path d="M1006.61 131.26C1006.54 131.26 1006.46 131.26 1006.39 131.23C1006.11 131.16 1005.92 130.96 1005.92 130.73L1006.32 84.4599C1006.32 83.5199 1006.56 82.5899 1007.02 81.7099C1011.27 73.4399 1015.27 69.4799 1019.23 69.5999C1023.51 69.7299 1026.08 74.62 1027.23 77.52C1027.48 78.14 1027.6 78.79 1027.61 79.43L1027.88 110C1027.88 110.11 1027.83 110.22 1027.74 110.31L1007.18 131.04C1007.05 131.17 1006.84 131.25 1006.62 131.25L1006.61 131.26ZM1019.06 70.64C1016.82 70.64 1013.16 72.6599 1008.31 82.0899C1007.92 82.8499 1007.71 83.6599 1007.71 84.4699L1007.32 129.15L1026.48 109.84L1026.21 79.4399C1026.21 78.8899 1026.1 78.3499 1025.89 77.8199C1025.24 76.1599 1022.82 70.75 1019.17 70.64C1019.13 70.64 1019.1 70.64 1019.06 70.64Z" fill="#C3C3C4" stroke="#C3C3C4" stroke-width="0.52" stroke-miterlimit="10"/>
<path d="M1008.55 68.84C1008.39 68.84 1008.22 68.8 1008.09 68.71C1007.82 68.53 1007.78 68.2401 1007.98 68.0201C1008.29 67.7001 1038.62 35.67 1046.48 28.45C1049.93 25.28 1051.16 24.87 1052.04 25.22C1052.87 25.55 1052.9 26.4701 1052.16 28.3101C1051.91 28.9401 1051.56 29.5501 1051.14 30.1401L1027.64 62.5501C1027.5 62.7501 1027.21 62.8501 1026.92 62.8101C1026.63 62.7701 1026.4 62.6 1026.35 62.38C1026.17 61.56 1025.68 61.35 1025.34 61.26C1024.43 61.02 1021.97 61.1401 1015.8 64.5301C1012.18 66.5201 1009.05 68.69 1009.02 68.71C1008.89 68.8 1008.72 68.85 1008.55 68.85V68.84ZM1051.31 26.23C1050.9 26.4 1049.86 27 1047.56 29.11C1041.28 34.88 1020.53 56.6201 1012.41 65.1601C1016.6 62.6401 1022.69 59.4801 1025.79 60.2701C1026.23 60.3801 1026.75 60.6101 1027.15 61.0501L1049.93 29.63C1050.31 29.11 1050.62 28.56 1050.84 28C1051.26 26.97 1051.32 26.46 1051.31 26.22V26.23Z" fill="#C3C3C4" stroke="#C3C3C4" stroke-width="0.52" stroke-miterlimit="10"/>
<path d="M1088.91 304.27H1085.77C1085.59 304.27 1085.41 304.21 1085.28 304.12C1085.15 304.02 1085.08 303.89 1085.08 303.75L1085.31 269.41C1085.18 268.93 1084 264.8 1080.62 260.03C1077.37 255.43 1071.35 249.29 1061.11 246C1059.96 246.37 1055.1 248.04 1049.98 251.28C1044.64 254.66 1037.92 260.49 1036.2 269.08V303.28C1036.2 303.57 1035.89 303.8 1035.51 303.8H1031.56C1031.36 303.8 1031.18 303.74 1031.05 303.63C1030.92 303.52 1030.85 303.38 1030.87 303.23L1030.9 302.97L1031.4 242.46C1031.4 242.32 1031.48 242.19 1031.61 242.09C1031.74 241.99 1031.92 241.94 1032.1 241.94L1088.67 242.32C1089.05 242.32 1089.36 242.55 1089.36 242.84L1089.61 303.74C1089.61 303.88 1089.54 304.01 1089.41 304.11C1089.28 304.21 1089.1 304.26 1088.92 304.26L1088.91 304.27ZM1086.47 303.23H1088.22L1087.97 243.36L1032.78 242.99L1032.29 302.76H1034.82V269.04C1034.82 269.04 1034.82 268.99 1034.82 268.96C1036.59 260.01 1043.58 253.95 1049.13 250.45C1055.13 246.67 1060.63 245.01 1060.86 244.95C1061.03 244.9 1061.22 244.9 1061.38 244.95C1072.17 248.34 1078.48 254.77 1081.87 259.56C1085.53 264.75 1086.64 269.07 1086.69 269.25C1086.69 269.28 1086.7 269.32 1086.7 269.35L1086.47 303.22V303.23Z" fill="#C3C3C4" stroke="#C3C3C4" stroke-width="0.52" stroke-miterlimit="10"/>
<path d="M1088.66 238.44H1031.82C1031.64 238.44 1031.46 238.38 1031.33 238.29C1031.2 238.19 1031.13 238.06 1031.13 237.92C1031.13 237.09 1031.67 154.52 1031.67 154.19C1031.67 153.9 1031.98 153.67 1032.36 153.67H1088.66C1089.04 153.67 1089.35 153.9 1089.35 154.19V237.92C1089.35 238.21 1089.04 238.44 1088.66 238.44ZM1032.52 237.39H1087.97V154.7H1033.05C1033.01 161.37 1032.56 230.05 1032.51 237.39H1032.52Z" fill="#C3C3C4" stroke="#C3C3C4" stroke-width="0.52" stroke-miterlimit="10"/>
<path d="M1040.67 214.86C1040.51 214.86 1040.36 214.81 1040.25 214.73C1040.14 214.65 1040.08 214.53 1040.08 214.42V192.57C1039.91 188.41 1045.52 187.58 1045.58 187.58C1045.66 187.57 1045.73 187.58 1045.81 187.58C1051.15 188.44 1051.14 191.62 1051.12 191.96L1051.27 214.41C1051.27 214.53 1051.21 214.64 1051.1 214.73C1050.99 214.81 1050.84 214.86 1050.68 214.86L1040.67 214.88V214.86ZM1045.68 188.46C1044.96 188.58 1041.13 189.4 1041.26 192.55V213.97L1050.09 213.95L1049.94 191.94C1049.94 191.94 1049.94 191.92 1049.94 191.9C1049.95 191.79 1050.13 189.22 1045.68 188.45V188.46Z" fill="#C3C3C4" stroke="#C3C3C4" stroke-width="0.52" stroke-miterlimit="10"/>
<path d="M1040.67 214.86C1040.51 214.86 1040.36 214.81 1040.25 214.73C1040.14 214.65 1040.08 214.53 1040.08 214.42V192.57H1041.26V213.98L1050.68 213.96V214.85L1040.67 214.87V214.86Z" fill="#C3C3C4" stroke="#C3C3C4" stroke-width="0.52" stroke-miterlimit="10"/>
<path d="M1055.82 214.86C1055.66 214.86 1055.51 214.81 1055.4 214.73C1055.29 214.65 1055.23 214.53 1055.23 214.42V192.57C1055.06 188.41 1060.67 187.58 1060.73 187.58C1060.81 187.57 1060.88 187.58 1060.96 187.58C1066.3 188.44 1066.29 191.62 1066.27 191.96L1066.42 214.41C1066.42 214.53 1066.36 214.64 1066.25 214.73C1066.14 214.81 1065.99 214.86 1065.83 214.86L1055.82 214.88V214.86ZM1060.83 188.46C1060.11 188.58 1056.28 189.4 1056.41 192.55V213.97L1065.24 213.95L1065.09 191.94C1065.09 191.94 1065.09 191.92 1065.09 191.9C1065.1 191.79 1065.28 189.22 1060.83 188.45V188.46Z" fill="#C3C3C4" stroke="#C3C3C4" stroke-width="0.52" stroke-miterlimit="10"/>
<path d="M1055.82 214.86C1055.66 214.86 1055.51 214.81 1055.4 214.73C1055.29 214.65 1055.23 214.53 1055.23 214.42V192.57H1056.41V213.98L1065.83 213.96V214.85L1055.82 214.87V214.86Z" fill="#C3C3C4" stroke="#C3C3C4" stroke-width="0.52" stroke-miterlimit="10"/>
<path d="M1071.47 214.86C1071.31 214.86 1071.16 214.81 1071.05 214.73C1070.94 214.65 1070.88 214.53 1070.88 214.42V192.57C1070.71 188.41 1076.32 187.58 1076.38 187.58C1076.46 187.57 1076.53 187.58 1076.61 187.58C1081.95 188.44 1081.94 191.62 1081.92 191.96L1082.07 214.41C1082.07 214.53 1082.01 214.64 1081.9 214.73C1081.79 214.81 1081.64 214.86 1081.48 214.86L1071.47 214.88V214.86ZM1076.48 188.46C1075.76 188.58 1071.93 189.4 1072.06 192.55V213.97L1080.89 213.95L1080.74 191.94C1080.74 191.94 1080.74 191.92 1080.74 191.9C1080.75 191.79 1080.93 189.22 1076.48 188.45V188.46Z" fill="#C3C3C4" stroke="#C3C3C4" stroke-width="0.52" stroke-miterlimit="10"/>
<path d="M1071.47 214.86C1071.31 214.86 1071.16 214.81 1071.05 214.73C1070.94 214.65 1070.88 214.53 1070.88 214.42V192.57H1072.06V213.98L1081.48 213.96V214.85L1071.47 214.87V214.86Z" fill="#C3C3C4" stroke="#C3C3C4" stroke-width="0.52" stroke-miterlimit="10"/>
<path d="M1053.64 186.55C1050.11 186.55 1047.24 184.39 1047.24 181.74C1047.24 179.09 1050.11 176.93 1053.64 176.93C1057.17 176.93 1060.04 179.09 1060.04 181.74C1060.04 184.39 1057.17 186.55 1053.64 186.55ZM1053.64 177.82C1050.76 177.82 1048.42 179.58 1048.42 181.74C1048.42 183.9 1050.76 185.66 1053.64 185.66C1056.52 185.66 1058.86 183.9 1058.86 181.74C1058.86 179.58 1056.52 177.82 1053.64 177.82Z" fill="#C3C3C4" stroke="#C3C3C4" stroke-width="0.52" stroke-miterlimit="10"/>
<path d="M1068.1 186.55C1064.57 186.55 1061.7 184.39 1061.7 181.74C1061.7 179.09 1064.57 176.93 1068.1 176.93C1071.63 176.93 1074.5 179.09 1074.5 181.74C1074.5 184.39 1071.63 186.55 1068.1 186.55ZM1068.1 177.82C1065.22 177.82 1062.88 179.58 1062.88 181.74C1062.88 183.9 1065.22 185.66 1068.1 185.66C1070.98 185.66 1073.32 183.9 1073.32 181.74C1073.32 179.58 1070.98 177.82 1068.1 177.82Z" fill="#C3C3C4" stroke="#C3C3C4" stroke-width="0.52" stroke-miterlimit="10"/>
<path d="M1060.87 176.84C1057.34 176.84 1054.47 174.68 1054.47 172.03C1054.47 169.38 1057.34 167.22 1060.87 167.22C1064.4 167.22 1067.27 169.38 1067.27 172.03C1067.27 174.68 1064.4 176.84 1060.87 176.84ZM1060.87 168.12C1057.99 168.12 1055.65 169.88 1055.65 172.04C1055.65 174.2 1057.99 175.96 1060.87 175.96C1063.75 175.96 1066.09 174.2 1066.09 172.04C1066.09 169.88 1063.75 168.12 1060.87 168.12Z" fill="#C3C3C4" stroke="#C3C3C4" stroke-width="0.52" stroke-miterlimit="10"/>
<path d="M1088.5 150.87H1032.48C1032.3 150.87 1032.12 150.81 1031.99 150.72C1031.86 150.62 1031.79 150.49 1031.79 150.35L1032.02 115.2C1032.02 114.91 1032.33 114.68 1032.71 114.68H1088.5C1088.88 114.68 1089.19 114.91 1089.19 115.2V150.35C1089.19 150.64 1088.88 150.87 1088.5 150.87ZM1033.17 149.83H1087.8V115.73H1033.39L1033.16 149.83H1033.17Z" fill="#C3C3C4" stroke="#C3C3C4" stroke-width="0.52" stroke-miterlimit="10"/>
<path d="M1041.36 146.69C1041.2 146.69 1041.05 146.64 1040.93 146.56C1040.82 146.47 1040.75 146.36 1040.75 146.24V123.87C1040.57 119.61 1046.32 118.77 1046.38 118.76C1046.46 118.75 1046.54 118.76 1046.62 118.76C1052.09 119.64 1052.07 122.9 1052.06 123.24L1052.22 146.22C1052.22 146.34 1052.16 146.46 1052.04 146.54C1051.93 146.63 1051.77 146.67 1051.61 146.67L1041.36 146.69ZM1046.49 119.67C1045.75 119.8 1041.83 120.63 1041.97 123.86V145.79L1051 145.77L1050.84 123.24C1050.84 123.24 1050.84 123.21 1050.84 123.2C1050.85 123.09 1051.04 120.45 1046.48 119.67H1046.49Z" fill="#C3C3C4" stroke="#C3C3C4" stroke-width="0.52" stroke-miterlimit="10"/>
<path d="M1041.36 146.69C1041.2 146.69 1041.05 146.64 1040.93 146.56C1040.82 146.47 1040.75 146.36 1040.75 146.24V123.87H1041.96V145.79L1051.6 145.77V146.68L1041.35 146.7L1041.36 146.69Z" fill="#C3C3C4" stroke="#C3C3C4" stroke-width="0.52" stroke-miterlimit="10"/>
<path d="M1056.11 146.53C1055.95 146.53 1055.8 146.48 1055.68 146.4C1055.57 146.31 1055.5 146.2 1055.5 146.08V123.71C1055.32 119.45 1061.07 118.61 1061.13 118.6C1061.21 118.59 1061.29 118.6 1061.37 118.6C1066.84 119.48 1066.82 122.74 1066.81 123.08L1066.97 146.06C1066.97 146.18 1066.91 146.3 1066.79 146.38C1066.68 146.47 1066.52 146.51 1066.36 146.51L1056.11 146.53ZM1061.24 119.5C1060.5 119.63 1056.58 120.46 1056.72 123.69V145.62L1065.75 145.6L1065.59 123.07C1065.59 123.07 1065.59 123.04 1065.59 123.03C1065.6 122.92 1065.79 120.28 1061.23 119.5H1061.24Z" fill="#C3C3C4" stroke="#C3C3C4" stroke-width="0.52" stroke-miterlimit="10"/>
<path d="M1056.11 146.53C1055.95 146.53 1055.8 146.48 1055.68 146.4C1055.57 146.31 1055.5 146.2 1055.5 146.08V123.71H1056.71V145.63L1066.35 145.61V146.52L1056.1 146.54L1056.11 146.53Z" fill="#C3C3C4" stroke="#C3C3C4" stroke-width="0.52" stroke-miterlimit="10"/>
<path d="M1071.37 146.53C1071.21 146.53 1071.06 146.48 1070.94 146.4C1070.83 146.31 1070.76 146.2 1070.76 146.08V123.71C1070.58 119.45 1076.33 118.61 1076.39 118.6C1076.47 118.59 1076.55 118.6 1076.63 118.6C1082.1 119.48 1082.08 122.74 1082.07 123.08L1082.23 146.06C1082.23 146.18 1082.17 146.3 1082.05 146.38C1081.94 146.47 1081.78 146.51 1081.62 146.51L1071.37 146.53ZM1076.5 119.5C1075.76 119.63 1071.84 120.46 1071.98 123.69V145.62L1081.01 145.6L1080.85 123.07C1080.85 123.07 1080.85 123.04 1080.85 123.03C1080.86 122.92 1081.05 120.28 1076.49 119.5H1076.5Z" fill="#C3C3C4" stroke="#C3C3C4" stroke-width="0.52" stroke-miterlimit="10"/>
<path d="M1071.37 146.53C1071.21 146.53 1071.06 146.48 1070.94 146.4C1070.83 146.31 1070.76 146.2 1070.76 146.08V123.71H1071.97V145.63L1081.61 145.61V146.52L1071.36 146.54L1071.37 146.53Z" fill="#C3C3C4" stroke="#C3C3C4" stroke-width="0.52" stroke-miterlimit="10"/>
<path d="M1032.71 111.14C1032.53 111.14 1032.34 111.09 1032.21 110.99C1032.01 110.84 1031.95 110.62 1032.06 110.42C1032.06 110.42 1032.06 110.41 1032.07 110.4C1032.26 109.26 1032.3 99.19 1032.27 92.55C1032.27 92.41 1032.34 92.2801 1032.47 92.1801C1032.6 92.0801 1032.78 92.03 1032.96 92.03H1060.59C1060.97 92.03 1061.28 92.26 1061.28 92.55V110.62C1061.28 110.91 1060.97 111.14 1060.59 111.14H1032.76C1032.76 111.14 1032.72 111.14 1032.71 111.14ZM1033.49 110.1H1059.91V93.0699H1033.66C1033.66 94.3799 1033.66 97.98 1033.66 101.55C1033.65 104.17 1033.62 106.26 1033.59 107.76C1033.57 108.66 1033.55 109.35 1033.52 109.83C1033.52 109.92 1033.51 110.01 1033.5 110.09L1033.49 110.1Z" fill="#C3C3C4" stroke="#C3C3C4" stroke-width="0.52" stroke-miterlimit="10"/>
<path d="M1032.7 89.62C1032.61 89.62 1032.52 89.61 1032.43 89.58C1032.1 89.4733 1031.94 88.2433 1031.95 85.89C1031.95 84.2 1031.97 81.84 1032.01 78.89C1032.07 73.87 1032.15 68.78 1032.15 68.73C1032.15 68.67 1032.17 68.6101 1032.19 68.5601C1034.8 63.2601 1040.58 59.27 1048.88 57.02C1055.11 55.34 1060.49 55.22 1060.72 55.21C1060.91 55.21 1061.09 55.26 1061.22 55.36C1061.35 55.46 1061.43 55.59 1061.43 55.73V89.09C1061.43 89.38 1061.12 89.61 1060.74 89.61H1032.74C1032.74 89.61 1032.72 89.61 1032.71 89.61L1032.7 89.62ZM1033.35 88.58H1060.04V56.29C1058.39 56.38 1054.06 56.73 1049.31 58.01C1041.35 60.17 1036.04 63.81 1033.53 68.84C1033.42 75.93 1033.29 86.31 1033.35 88.58Z" fill="#C3C3C4" stroke="#C3C3C4" stroke-width="0.52" stroke-miterlimit="10"/>
<path d="M1089.73 111.16H1064.41C1064.03 111.16 1063.72 110.93 1063.72 110.64V55.84C1063.72 55.55 1064.03 55.3199 1064.41 55.3199C1072.54 55.3199 1078.99 57.09 1083.6 60.59C1087.16 63.3 1088.81 66.36 1089.84 68.73C1090.23 69.63 1090.43 70.56 1090.43 71.5V110.64C1090.43 110.93 1090.12 111.16 1089.74 111.16H1089.73ZM1065.1 110.12H1089.04V71.5C1089.04 70.66 1088.87 69.84 1088.52 69.05C1087.54 66.79 1085.97 63.8699 1082.61 61.3199C1078.4 58.1299 1072.51 56.46 1065.1 56.36V110.11V110.12Z" fill="#C3C3C4" stroke="#C3C3C4" stroke-width="0.52" stroke-miterlimit="10"/>
<path d="M1088.3 60.58C1088.12 60.58 1087.95 60.5301 1087.82 60.4301C1081.69 55.9501 1075.05 53.16 1068.09 52.15C1062.53 51.34 1056.74 51.65 1050.89 53.07C1040.88 55.5 1034.08 60.3801 1034.02 60.4301C1033.78 60.6101 1033.4 60.63 1033.12 60.47C1032.85 60.32 1032.76 60.0401 1032.92 59.8101L1049.43 35.77C1051 33.49 1052.53 31.14 1054.02 28.86C1054.42 28.25 1054.82 27.63 1055.22 27.02C1055.83 26.09 1057.63 23.93 1061.27 23.88C1066 23.82 1067.85 27.39 1068.06 27.82L1088.93 59.82C1089.08 60.05 1088.99 60.32 1088.71 60.47C1088.59 60.54 1088.45 60.57 1088.3 60.57V60.58ZM1061.4 24.94C1061.4 24.94 1061.33 24.94 1061.3 24.94C1058.53 24.98 1057.08 26.56 1056.47 27.5C1056.07 28.11 1055.67 28.73 1055.27 29.34C1053.78 31.62 1052.25 33.97 1050.67 36.26L1035.76 57.98C1038.7 56.27 1043.87 53.69 1050.48 52.08C1056.56 50.6 1062.58 50.28 1068.37 51.13C1074.58 52.04 1080.53 54.29 1086.1 57.84L1066.81 28.27C1066.81 28.27 1066.78 28.22 1066.77 28.2C1066.71 28.07 1065.3 24.94 1061.41 24.94H1061.4Z" fill="#C3C3C4" stroke="#C3C3C4" stroke-width="0.52" stroke-miterlimit="10"/>
<path d="M1063.54 20.97H1059.02C1058.64 20.97 1058.33 20.74 1058.33 20.45V9.52002H1054.99C1054.61 9.52002 1054.3 9.29 1054.3 9V5.15002C1054.3 4.86002 1054.61 4.63 1054.99 4.63H1058.2V0.859985C1058.2 0.569985 1058.51 0.339966 1058.89 0.339966H1063.41C1063.79 0.339966 1064.1 0.569985 1064.1 0.859985V4.71997H1067.46C1067.84 4.71997 1068.15 4.94999 1068.15 5.23999V8.91003C1068.15 9.20003 1067.84 9.43005 1067.46 9.43005H1064.22V20.4399C1064.22 20.7299 1063.91 20.96 1063.53 20.96L1063.54 20.97ZM1059.71 19.9301H1062.85V8.92004C1062.85 8.63004 1063.16 8.40002 1063.54 8.40002H1066.78V5.77002H1063.42C1063.04 5.77002 1062.73 5.54 1062.73 5.25V1.39001H1059.59V5.16003C1059.59 5.45003 1059.28 5.68005 1058.9 5.68005H1055.69V8.47998H1058.97C1059.29 8.47998 1059.57 8.64001 1059.64 8.88L1059.7 9.06006C1059.7 9.06006 1059.72 9.14005 1059.72 9.18005V19.9301H1059.71Z" fill="#C3C3C4" stroke="#C3C3C4" stroke-width="0.52" stroke-miterlimit="10"/>
<path d="M938.57 303.58C938.39 303.58 938.21 303.53 938.08 303.43C937.95 303.33 937.87 303.2 937.87 303.06V223.14C937.87 222.9 938.09 222.69 938.39 222.64L955.01 219.47C955.22 219.43 955.44 219.47 955.61 219.56C955.78 219.66 955.88 219.81 955.88 219.97V302.88C955.88 303.16 955.58 303.4 955.2 303.4L938.58 303.59C938.58 303.59 938.58 303.59 938.57 303.59V303.58ZM939.26 223.54V302.53L954.5 302.36V220.64L939.26 223.54Z" fill="#C3C3C4" stroke="#C3C3C4" stroke-width="0.52" stroke-miterlimit="10"/>
<path d="M938.24 219.91C938.09 219.91 937.94 219.87 937.82 219.8C937.65 219.7 937.55 219.55 937.55 219.39L937.45 211.56C937.45 211.35 937.62 211.15 937.88 211.07L954.99 205.82C955.2 205.75 955.44 205.77 955.63 205.87C955.82 205.96 955.94 206.12 955.94 206.3L956.14 215.96C956.14 216.2 955.93 216.41 955.62 216.47L938.4 219.89C938.34 219.9 938.28 219.91 938.22 219.91H938.24ZM938.83 211.91L938.92 218.72L954.75 215.57L954.57 207.08L938.83 211.91Z" fill="#C3C3C4" stroke="#C3C3C4" stroke-width="0.52" stroke-miterlimit="10"/>
<path d="M998.91 303.62H959.97C959.64 303.62 959.35 303.44 959.29 303.2C959.28 303.15 959.28 303.1 959.29 303.06C959.35 301.47 959.06 220.65 959.06 219.83C959.06 219.69 959.13 219.56 959.26 219.46C959.39 219.36 959.57 219.31 959.75 219.31H998.92C999.3 219.31 999.61 219.54 999.61 219.83V303.11C999.61 303.4 999.3 303.63 998.92 303.63L998.91 303.62ZM960.67 302.58H998.22V220.34H960.44C960.45 223.68 960.52 242.56 960.58 261.45C960.61 271.86 960.64 282.27 960.66 290.08C960.66 293.98 960.67 297.24 960.68 299.52C960.68 300.66 960.68 301.56 960.68 302.17C960.68 302.33 960.68 302.47 960.68 302.59L960.67 302.58Z" fill="#C3C3C4" stroke="#C3C3C4" stroke-width="0.52" stroke-miterlimit="10"/>
<path d="M998.89 216.57H960.21C959.83 216.57 959.52 216.34 959.52 216.05V205.94C959.52 205.65 959.83 205.42 960.21 205.42C960.52 205.42 998.5 205.18 998.88 205.18C999.06 205.17 999.24 205.23 999.37 205.33C999.5 205.43 999.58 205.56 999.58 205.7V216.04C999.58 216.33 999.27 216.56 998.89 216.56V216.57ZM960.91 215.53H998.2V206.23C993.28 206.26 965.66 206.43 960.91 206.46V215.53Z" fill="#C3C3C4" stroke="#C3C3C4" stroke-width="0.52" stroke-miterlimit="10"/>
<path d="M995.71 202.87H963.92C963.54 202.87 963.23 202.64 963.23 202.35L963.21 200.56C963.21 200.42 963.28 200.29 963.41 200.19C963.54 200.09 963.72 200.04 963.9 200.04L995.71 200.08C996.09 200.08 996.4 200.31 996.4 200.6V202.35C996.4 202.64 996.09 202.87 995.71 202.87ZM964.61 201.83H995.02V201.12L964.6 201.08V201.83H964.61Z" fill="#C3C3C4" stroke="#C3C3C4" stroke-width="0.52" stroke-miterlimit="10"/>
<path d="M981.13 197.46H973.02C972.79 197.46 972.57 197.37 972.44 197.23C972.31 197.08 972.29 196.9 972.38 196.74C972.38 196.72 973.34 195.04 974.12 192.98C975.03 190.6 975.34 188.7 975.04 187.45C973.73 187.43 971.8 186.94 970.85 185.15C970.51 185.13 970.08 185.04 969.66 184.8C968.97 184.41 968.56 183.74 968.42 182.82C968.08 182.73 967.67 182.56 967.36 182.24C967.14 182.01 966.92 181.64 967 181.09C966.74 180.86 966.4 180.47 966.37 179.98C966.36 179.69 966.45 179.26 967.01 178.84C967.07 178.79 967.15 178.75 967.23 178.73L967.37 178.68C967.69 178.58 968.06 178.68 968.24 178.9C970.7 182.08 974.13 182.1 975.45 181.97C975.44 181.42 975.54 180.53 976.21 179.95C976.62 179.59 977.19 179.4 977.85 179.39C978.37 179.39 978.84 179.53 979.21 179.81C979.95 180.38 980.13 181.41 980.17 182.01C983.77 182.36 987.5 178.74 987.54 178.71C987.7 178.55 987.97 178.48 988.23 178.52C988.49 178.56 988.7 178.71 988.76 178.9C989.13 180 989.02 180.82 988.46 181.32C988.28 181.48 988.07 181.59 987.88 181.66C987.95 182.46 987.45 182.99 987.14 183.24C986.93 184.25 985.93 184.7 985.13 184.86C984.44 186.3 981.49 187.02 980.27 187.26C979.76 191.23 981.78 196.73 981.8 196.79C981.86 196.95 981.82 197.11 981.68 197.24C981.55 197.37 981.34 197.45 981.13 197.45V197.46ZM974.04 196.41H980.23C979.67 194.73 978.36 190.2 978.95 186.78C978.99 186.56 979.21 186.38 979.49 186.34C980.57 186.17 983.69 185.43 983.88 184.35C983.92 184.1 984.2 183.91 984.53 183.9C984.72 183.89 985.71 183.79 985.79 182.97C985.8 182.82 985.91 182.68 986.07 182.59C986.13 182.55 986.71 182.18 986.43 181.42C986.39 181.32 986.39 181.21 986.43 181.11C984.95 182.08 982.87 183.1 980.67 183.1C980.22 183.1 979.76 183.06 979.31 182.96C979 182.9 978.79 182.68 978.8 182.44C978.82 181.99 978.71 180.93 978.23 180.56C978.13 180.48 978.03 180.45 977.88 180.45C977.61 180.45 977.42 180.52 977.26 180.65C976.77 181.07 976.82 182.04 976.87 182.34C976.91 182.6 976.7 182.84 976.37 182.91C976.32 182.92 971.93 183.82 968.42 180.89C968.42 180.94 968.42 181 968.4 181.05C968.32 181.31 968.34 181.51 968.46 181.64C968.63 181.82 968.99 181.89 969.12 181.9C969.46 181.93 969.73 182.14 969.74 182.39C969.79 183.19 970.04 183.73 970.47 183.98C970.8 184.17 971.15 184.12 971.15 184.12C971.5 184.06 971.86 184.21 971.97 184.47C972.86 186.62 975.18 186.42 975.44 186.39C975.78 186.35 976.11 186.51 976.21 186.75C977.32 189.52 974.98 194.54 974.01 196.41H974.04ZM987.59 180.27C987.39 180.42 987.17 180.59 986.93 180.76C987 180.75 987.08 180.75 987.15 180.76C987.15 180.76 987.31 180.76 987.42 180.65C987.47 180.6 987.56 180.49 987.59 180.27Z" fill="#C3C3C4" stroke="#C3C3C4" stroke-width="0.52" stroke-miterlimit="10"/>
<path d="M971.2 290.38C970.82 290.38 970.51 290.15 970.51 289.86L970.38 272.38C970.35 272.06 970.1 268.8 972.6 266.68C973.89 265.58 975.67 264.99 977.89 264.92C980.31 264.84 982.22 265.29 983.58 266.24C985.84 267.83 985.9 270.41 985.93 271.5C985.93 271.79 985.93 272.07 985.92 272.35C985.91 272.67 985.9 272.97 985.92 273.27L986.23 289.79C986.23 289.93 986.16 290.06 986.03 290.16C985.9 290.26 985.72 290.32 985.54 290.32L971.22 290.38H971.2ZM978.41 265.95C978.26 265.95 978.1 265.95 977.94 265.95C976.11 266.01 974.66 266.48 973.63 267.36C971.45 269.21 971.75 272.28 971.75 272.31C971.75 272.32 971.75 272.34 971.75 272.35L971.88 289.33L984.81 289.28L984.51 273.3C984.49 272.98 984.51 272.65 984.51 272.33C984.52 272.05 984.53 271.79 984.52 271.53C984.5 270.56 984.44 268.3 982.6 267C981.61 266.3 980.2 265.95 978.39 265.95H978.41Z" fill="#C3C3C4" stroke="#C3C3C4" stroke-width="0.52" stroke-miterlimit="10"/>
<path d="M978.69 265.34H977.3V289.94H978.69V265.34Z" fill="#C3C3C4" stroke="#C3C3C4" stroke-width="0.52" stroke-miterlimit="10"/>
<path d="M985.6 279.9H971.14V280.94H985.6V279.9Z" fill="#C3C3C4" stroke="#C3C3C4" stroke-width="0.52" stroke-miterlimit="10"/>
<path d="M971.2 253.52C970.82 253.52 970.51 253.29 970.51 253L970.38 235.52C970.35 235.2 970.1 231.94 972.6 229.82C973.89 228.72 975.67 228.13 977.89 228.06C980.31 227.98 982.22 228.43 983.58 229.38C985.84 230.97 985.9 233.55 985.93 234.64C985.93 234.93 985.93 235.21 985.92 235.49C985.91 235.81 985.9 236.11 985.92 236.41L986.23 252.93C986.23 253.07 986.16 253.2 986.03 253.3C985.9 253.4 985.72 253.46 985.54 253.46L971.22 253.52H971.2ZM978.41 229.09C978.26 229.09 978.1 229.09 977.94 229.09C976.11 229.15 974.66 229.62 973.63 230.5C971.45 232.35 971.75 235.42 971.75 235.45C971.75 235.46 971.75 235.48 971.75 235.49L971.88 252.47L984.81 252.42L984.51 236.44C984.49 236.12 984.51 235.79 984.51 235.47C984.52 235.19 984.53 234.93 984.52 234.67C984.5 233.7 984.44 231.44 982.6 230.14C981.61 229.44 980.2 229.09 978.39 229.09H978.41Z" fill="#C3C3C4" stroke="#C3C3C4" stroke-width="0.52" stroke-miterlimit="10"/>
<path d="M978.69 228.47H977.3V253.07H978.69V228.47Z" fill="#C3C3C4" stroke="#C3C3C4" stroke-width="0.52" stroke-miterlimit="10"/>
<path d="M985.6 243.04H971.14V244.08H985.6V243.04Z" fill="#C3C3C4" stroke="#C3C3C4" stroke-width="0.52" stroke-miterlimit="10"/>
<path d="M1096.25 303.58C1096.07 303.58 1095.89 303.53 1095.76 303.43C1095.63 303.33 1095.55 303.2 1095.55 303.06V223.14C1095.55 222.9 1095.77 222.69 1096.07 222.64L1112.69 219.47C1112.9 219.43 1113.12 219.47 1113.29 219.56C1113.46 219.66 1113.56 219.81 1113.56 219.97V302.88C1113.56 303.16 1113.26 303.4 1112.88 303.4L1096.26 303.59C1096.26 303.59 1096.26 303.59 1096.25 303.59V303.58ZM1096.94 223.54V302.53L1112.18 302.36V220.64L1096.94 223.54Z" fill="#C3C3C4" stroke="#C3C3C4" stroke-width="0.52" stroke-miterlimit="10"/>
<path d="M1095.91 219.91C1095.76 219.91 1095.61 219.87 1095.49 219.8C1095.32 219.7 1095.22 219.55 1095.22 219.39L1095.12 211.56C1095.12 211.35 1095.29 211.15 1095.55 211.07L1112.66 205.82C1112.87 205.75 1113.11 205.77 1113.3 205.87C1113.49 205.96 1113.61 206.12 1113.61 206.3L1113.81 215.96C1113.81 216.2 1113.6 216.41 1113.29 216.47L1096.07 219.89C1096.01 219.9 1095.95 219.91 1095.89 219.91H1095.91ZM1096.51 211.91L1096.6 218.72L1112.43 215.57L1112.25 207.08L1096.51 211.91Z" fill="#C3C3C4" stroke="#C3C3C4" stroke-width="0.52" stroke-miterlimit="10"/>
<path d="M1156.59 303.62H1117.65C1117.32 303.62 1117.03 303.44 1116.97 303.2C1116.96 303.15 1116.96 303.1 1116.97 303.06C1117.03 301.47 1116.74 220.65 1116.74 219.83C1116.74 219.69 1116.81 219.56 1116.94 219.46C1117.07 219.36 1117.25 219.31 1117.43 219.31H1156.6C1156.98 219.31 1157.29 219.54 1157.29 219.83V303.11C1157.29 303.4 1156.98 303.63 1156.6 303.63L1156.59 303.62ZM1118.35 302.58H1155.9V220.34H1118.12C1118.13 223.68 1118.2 242.56 1118.26 261.45C1118.29 271.86 1118.32 282.27 1118.34 290.08C1118.34 293.98 1118.35 297.24 1118.36 299.52C1118.36 300.66 1118.36 301.56 1118.36 302.17C1118.36 302.33 1118.36 302.47 1118.36 302.59L1118.35 302.58Z" fill="#C3C3C4" stroke="#C3C3C4" stroke-width="0.52" stroke-miterlimit="10"/>
<path d="M1156.57 216.57H1117.89C1117.51 216.57 1117.2 216.34 1117.2 216.05V205.94C1117.2 205.65 1117.51 205.42 1117.89 205.42C1118.2 205.42 1156.18 205.18 1156.56 205.18C1156.75 205.17 1156.92 205.23 1157.05 205.33C1157.18 205.43 1157.26 205.56 1157.26 205.7V216.04C1157.26 216.33 1156.95 216.56 1156.57 216.56V216.57ZM1118.59 215.53H1155.88V206.23C1150.96 206.26 1123.34 206.43 1118.59 206.46V215.53Z" fill="#C3C3C4" stroke="#C3C3C4" stroke-width="0.52" stroke-miterlimit="10"/>
<path d="M1153.39 202.87H1121.6C1121.22 202.87 1120.91 202.64 1120.91 202.35L1120.89 200.56C1120.89 200.42 1120.96 200.29 1121.09 200.19C1121.22 200.09 1121.4 200.04 1121.58 200.04L1153.39 200.08C1153.77 200.08 1154.08 200.31 1154.08 200.6V202.35C1154.08 202.64 1153.77 202.87 1153.39 202.87ZM1122.29 201.83H1152.7V201.12L1122.28 201.08V201.83H1122.29Z" fill="#C3C3C4" stroke="#C3C3C4" stroke-width="0.52" stroke-miterlimit="10"/>
<path d="M1138.81 197.46H1130.7C1130.47 197.46 1130.25 197.37 1130.12 197.23C1129.99 197.08 1129.97 196.9 1130.06 196.74C1130.06 196.72 1131.02 195.04 1131.8 192.98C1132.71 190.6 1133.02 188.7 1132.72 187.45C1131.41 187.43 1129.48 186.94 1128.53 185.15C1128.19 185.13 1127.76 185.04 1127.34 184.8C1126.65 184.41 1126.24 183.74 1126.1 182.82C1125.76 182.73 1125.35 182.56 1125.04 182.24C1124.82 182.01 1124.6 181.64 1124.68 181.09C1124.42 180.86 1124.08 180.47 1124.05 179.98C1124.04 179.69 1124.13 179.26 1124.69 178.84C1124.75 178.79 1124.83 178.75 1124.91 178.73L1125.05 178.68C1125.37 178.58 1125.74 178.68 1125.92 178.9C1128.38 182.08 1131.81 182.1 1133.13 181.97C1133.12 181.42 1133.22 180.53 1133.89 179.95C1134.3 179.59 1134.87 179.4 1135.53 179.39C1136.05 179.39 1136.52 179.53 1136.89 179.81C1137.63 180.38 1137.81 181.41 1137.85 182.01C1141.45 182.36 1145.18 178.74 1145.22 178.71C1145.38 178.55 1145.65 178.48 1145.91 178.52C1146.17 178.56 1146.38 178.71 1146.44 178.9C1146.81 180 1146.7 180.82 1146.14 181.32C1145.96 181.48 1145.75 181.59 1145.56 181.66C1145.63 182.46 1145.13 182.99 1144.82 183.24C1144.61 184.25 1143.61 184.7 1142.81 184.86C1142.12 186.3 1139.17 187.02 1137.95 187.26C1137.44 191.23 1139.46 196.73 1139.48 196.79C1139.54 196.95 1139.5 197.11 1139.36 197.24C1139.23 197.37 1139.02 197.45 1138.81 197.45V197.46ZM1131.72 196.41H1137.91C1137.35 194.73 1136.04 190.2 1136.63 186.78C1136.67 186.56 1136.89 186.38 1137.17 186.34C1138.25 186.17 1141.37 185.43 1141.56 184.35C1141.6 184.1 1141.88 183.91 1142.21 183.9C1142.4 183.89 1143.39 183.79 1143.47 182.97C1143.48 182.82 1143.59 182.68 1143.75 182.59C1143.81 182.55 1144.39 182.18 1144.11 181.42C1144.07 181.32 1144.07 181.21 1144.11 181.11C1142.63 182.08 1140.55 183.1 1138.35 183.1C1137.9 183.1 1137.44 183.06 1136.99 182.96C1136.68 182.9 1136.47 182.68 1136.48 182.44C1136.5 181.99 1136.39 180.93 1135.91 180.56C1135.81 180.48 1135.71 180.45 1135.56 180.45C1135.29 180.45 1135.1 180.52 1134.94 180.65C1134.45 181.07 1134.5 182.04 1134.55 182.34C1134.59 182.6 1134.38 182.84 1134.05 182.91C1134 182.92 1129.61 183.82 1126.1 180.89C1126.1 180.94 1126.1 181 1126.08 181.05C1126 181.31 1126.02 181.51 1126.14 181.64C1126.31 181.82 1126.67 181.89 1126.8 181.9C1127.14 181.93 1127.41 182.14 1127.42 182.39C1127.47 183.19 1127.72 183.73 1128.15 183.98C1128.48 184.17 1128.83 184.12 1128.83 184.12C1129.18 184.06 1129.54 184.21 1129.65 184.47C1130.54 186.62 1132.86 186.42 1133.12 186.39C1133.46 186.35 1133.79 186.51 1133.89 186.75C1135 189.52 1132.66 194.54 1131.69 196.41H1131.72ZM1145.27 180.27C1145.07 180.42 1144.85 180.59 1144.61 180.76C1144.68 180.75 1144.76 180.75 1144.83 180.76C1144.83 180.76 1144.99 180.76 1145.1 180.65C1145.15 180.6 1145.24 180.49 1145.27 180.27Z" fill="#C3C3C4" stroke="#C3C3C4" stroke-width="0.52" stroke-miterlimit="10"/>
<path d="M1128.88 290.38C1128.5 290.38 1128.19 290.15 1128.19 289.86L1128.06 272.38C1128.03 272.06 1127.78 268.8 1130.28 266.68C1131.57 265.58 1133.35 264.99 1135.57 264.92C1137.99 264.84 1139.9 265.29 1141.26 266.24C1143.52 267.83 1143.58 270.41 1143.61 271.5C1143.61 271.79 1143.61 272.07 1143.6 272.35C1143.59 272.67 1143.58 272.97 1143.6 273.27L1143.91 289.79C1143.91 289.93 1143.84 290.06 1143.71 290.16C1143.58 290.26 1143.4 290.32 1143.22 290.32L1128.9 290.38H1128.88ZM1136.09 265.95C1135.94 265.95 1135.78 265.95 1135.62 265.95C1133.79 266.01 1132.34 266.48 1131.31 267.36C1129.13 269.21 1129.43 272.28 1129.43 272.31C1129.43 272.32 1129.43 272.34 1129.43 272.35L1129.56 289.33L1142.49 289.28L1142.19 273.3C1142.17 272.98 1142.19 272.65 1142.19 272.33C1142.2 272.05 1142.21 271.79 1142.2 271.53C1142.18 270.56 1142.12 268.3 1140.28 267C1139.29 266.3 1137.88 265.95 1136.07 265.95H1136.09Z" fill="#C3C3C4" stroke="#C3C3C4" stroke-width="0.52" stroke-miterlimit="10"/>
<path d="M1136.37 265.34H1134.98V289.94H1136.37V265.34Z" fill="#C3C3C4" stroke="#C3C3C4" stroke-width="0.52" stroke-miterlimit="10"/>
<path d="M1143.28 279.9H1128.82V280.94H1143.28V279.9Z" fill="#C3C3C4" stroke="#C3C3C4" stroke-width="0.52" stroke-miterlimit="10"/>
<path d="M1128.88 253.52C1128.5 253.52 1128.19 253.29 1128.19 253L1128.06 235.52C1128.03 235.2 1127.78 231.94 1130.28 229.82C1131.57 228.72 1133.35 228.13 1135.57 228.06C1137.99 227.98 1139.9 228.43 1141.26 229.38C1143.52 230.97 1143.58 233.55 1143.61 234.64C1143.61 234.93 1143.61 235.21 1143.6 235.49C1143.59 235.81 1143.58 236.11 1143.6 236.41L1143.91 252.93C1143.91 253.07 1143.84 253.2 1143.71 253.3C1143.58 253.4 1143.4 253.46 1143.22 253.46L1128.9 253.52H1128.88ZM1136.09 229.09C1135.94 229.09 1135.78 229.09 1135.62 229.09C1133.79 229.15 1132.34 229.62 1131.31 230.5C1129.13 232.35 1129.43 235.42 1129.43 235.45C1129.43 235.46 1129.43 235.48 1129.43 235.49L1129.56 252.47L1142.49 252.42L1142.19 236.44C1142.17 236.12 1142.19 235.79 1142.19 235.47C1142.2 235.19 1142.21 234.93 1142.2 234.67C1142.18 233.7 1142.12 231.44 1140.28 230.14C1139.29 229.44 1137.88 229.09 1136.07 229.09H1136.09Z" fill="#C3C3C4" stroke="#C3C3C4" stroke-width="0.52" stroke-miterlimit="10"/>
<path d="M1136.37 228.47H1134.98V253.07H1136.37V228.47Z" fill="#C3C3C4" stroke="#C3C3C4" stroke-width="0.52" stroke-miterlimit="10"/>
<path d="M1143.28 243.04H1128.82V244.08H1143.28V243.04Z" fill="#C3C3C4" stroke="#C3C3C4" stroke-width="0.52" stroke-miterlimit="10"/>
<path d="M711.36 295.52L710.17 295.51L710.5 275.14L711.69 275.16L711.36 295.52Z" fill="#C3C3C4"/>
<path d="M735.33 291.44L734.14 291.42L734.43 272.08L735.62 272.1L735.33 291.44Z" fill="#C3C3C4"/>
<path d="M760.39 268.8H759.2V287.16H760.39V268.8Z" fill="#C3C3C4"/>
<path d="M782.36 283.23L781.77 265.69L782.96 265.66L783.55 283.19L782.36 283.23Z" fill="#C3C3C4"/>
<path d="M803.75 279.59L803.03 262.52L804.22 262.47L804.93 279.54L803.75 279.59Z" fill="#C3C3C4"/>
<path d="M857.44 253.91H856.25V263.1H857.44V253.91Z" fill="#C3C3C4"/>
<path d="M869.97 265.27L869.57 251.22L870.76 251.19L871.16 265.24L869.97 265.27Z" fill="#C3C3C4"/>
<path d="M876.71 266.75L876.33 249.19L877.52 249.17L877.9 266.72L876.71 266.75Z" fill="#C3C3C4"/>
<path d="M887.01 245.06H885.82V272.17H887.01V245.06Z" fill="#C3C3C4"/>
<path d="M656.3 220.78H655.11V241.38H656.3V220.78Z" fill="#C3C3C4"/>
<path d="M666.31 212.91H665.12V234H666.31V212.91Z" fill="#C3C3C4"/>
<path d="M679.53 208.99H678.34V229.51H679.53V208.99Z" fill="#C3C3C4"/>
<path d="M693.7 205.98H692.51V225.58H693.7V205.98Z" fill="#C3C3C4"/>
<path d="M721.56 219.48L721.02 200.35L722.21 200.32L722.75 219.45L721.56 219.48Z" fill="#C3C3C4"/>
<path d="M777.17 211.71L776.64 193.2L777.83 193.17L778.36 211.68L777.17 211.71Z" fill="#C3C3C4"/>
<path d="M800.87 209.56L800.03 191.18L801.21 191.13L802.06 209.52L800.87 209.56Z" fill="#C3C3C4"/>
<path d="M827.66 189.2H826.47V207.79H827.66V189.2Z" fill="#C3C3C4"/>
<path d="M845.96 188.7H844.77V206.86H845.96V188.7Z" fill="#C3C3C4"/>
<path d="M859.34 188.26H858.15V206.35H859.34V188.26Z" fill="#C3C3C4"/>
<path d="M868.19 187.73H867V206.11H868.19V187.73Z" fill="#C3C3C4"/>
<path d="M875.83 187.91H874.64V205.98H875.83V187.91Z" fill="#C3C3C4"/>
<path d="M756.02 184.24H754.83V199.99H756.02V184.24Z" fill="#C3C3C4"/>
<path d="M740.45 181.67H739.26V196.15H740.45V181.67Z" fill="#C3C3C4"/>
<path d="M728.17 179.64H726.98V188.44H728.17V179.64Z" fill="#C3C3C4"/>
<path d="M717.73 188.18L716.54 188.15L716.77 177.7L717.96 177.72L717.73 188.18Z" fill="#C3C3C4"/>
<path d="M663.16 179.3L662.09 158.87L663.28 158.82L664.35 179.25L663.16 179.3Z" fill="#C3C3C4"/>
<path d="M674.36 147.02H673.17V162.44H674.36V147.02Z" fill="#C3C3C4"/>
<path d="M684.2 157.19L684.04 140.12L685.23 140.11L685.39 157.18L684.2 157.19Z" fill="#C3C3C4"/>
<path d="M699.38 151.51C699.32 151 699.37 135.73 699.38 132.67H700.57C700.55 139.93 700.53 150.9 700.57 151.4L699.39 151.51H699.38Z" fill="#C3C3C4"/>
<path d="M719.92 145.67L718.73 145.64L719.26 126.01L720.45 126.03L719.92 145.67Z" fill="#C3C3C4"/>
<path d="M740.44 140.74L740.05 121.43L741.24 121.41L741.63 140.72L740.44 140.74Z" fill="#C3C3C4"/>
<path d="M763.87 118.22H762.68V137.24H763.87V118.22Z" fill="#C3C3C4"/>
<path d="M788 116.24H786.81V135.1H788V116.24Z" fill="#C3C3C4"/>
<path d="M810.15 115.51H808.96V134.64H810.15V115.51Z" fill="#C3C3C4"/>
<path d="M830.24 117H829.05V135.44H830.24V117Z" fill="#C3C3C4"/>
<path d="M845.69 137.01L845.24 119.5L846.43 119.48L846.88 136.98L845.69 137.01Z" fill="#C3C3C4"/>
<path d="M857.09 138.55L856.69 122.32L857.88 122.3L858.28 138.52L857.09 138.55Z" fill="#C3C3C4"/>
<path d="M865.09 141.26L864.15 124.93L865.34 124.87L866.28 141.2L865.09 141.26Z" fill="#C3C3C4"/>
<path d="M869.83 149.71L868.63 126.77L869.81 126.72L871.02 149.66L869.83 149.71Z" fill="#C3C3C4"/>
<path d="M710.44 276.34C709.85 276.34 709.34 275.93 709.26 275.38C709.17 274.77 709.63 274.22 710.28 274.14L710.93 274.06C724.71 272.35 846.45 257.08 878.8 247.95C884.97 246.21 885.22 245.07 885.22 245.05C885.21 245 884.78 243.48 874.62 241.63C868.78 240.57 860.73 239.57 850.69 238.67C833.55 237.13 816.35 236.39 816.18 236.39C815.52 236.36 815.02 235.84 815.05 235.23C815.08 234.62 815.63 234.14 816.29 234.17C816.46 234.17 833.84 234.92 851.09 236.48C861.25 237.4 869.39 238.41 875.28 239.5C885.75 241.43 887.37 243.26 887.57 244.79C887.84 246.82 885.42 248.4 879.48 250.07C846.95 259.26 725.03 274.55 711.23 276.26L710.57 276.34C710.52 276.34 710.46 276.34 710.41 276.34H710.44Z" fill="#C3C3C4"/>
<path d="M798.21 235.11C798.21 235.11 798.16 235.11 798.14 235.11L780.66 234.19C780 234.16 779.5 233.63 779.54 233.02C779.58 232.41 780.14 231.94 780.8 231.98L798.28 232.9C798.94 232.93 799.44 233.46 799.4 234.07C799.36 234.66 798.84 235.12 798.21 235.12V235.11Z" fill="#C3C3C4"/>
<path d="M767.14 233.23C767.14 233.23 767.12 233.23 767.11 233.23L749.5 232.83C748.84 232.82 748.32 232.31 748.34 231.69C748.36 231.08 748.91 230.6 749.56 230.61L767.17 231.01C767.83 231.02 768.35 231.53 768.33 232.15C768.31 232.75 767.78 233.23 767.14 233.23Z" fill="#C3C3C4"/>
<path d="M681.77 229.37C681.77 229.37 681.69 229.37 681.65 229.37C681.58 229.37 675 228.73 668.47 227.38C658.94 225.42 654.42 223.08 654.23 220.02C654.08 217.43 657.08 215.03 663.69 212.47C670.68 209.76 681.88 206.85 696.97 203.83C697.66 203.67 714.29 199.86 744.06 195.91C757.94 194.07 776.19 192.01 798.2 190.3C794.29 190 790.33 189.65 786.32 189.25C764.01 187.06 740.09 183.47 715.21 178.58C714.57 178.45 714.16 177.87 714.29 177.27C714.43 176.67 715.06 176.29 715.7 176.41C740.46 181.28 764.27 184.85 786.47 187.04C796.28 188.01 805.8 188.7 814.93 189.13C833.18 187.98 853.56 187.12 875.8 186.81C876.41 186.81 876.93 187.22 877 187.79C877.07 188.35 876.68 188.88 876.08 189C875.55 189.11 862.78 191.77 836.47 191.84C829.58 191.86 822.4 191.7 814.97 191.35C792.98 192.73 768.9 194.86 744.45 198.1C714.3 202.1 697.69 205.95 697.53 205.99C697.52 205.99 697.5 205.99 697.49 205.99C682.53 208.99 671.46 211.86 664.6 214.52C657.26 217.36 656.56 219.23 656.6 219.9C656.64 220.56 657.64 222.88 668.96 225.22C675.36 226.54 681.82 227.16 681.89 227.17C682.54 227.23 683.02 227.78 682.95 228.39C682.89 228.96 682.37 229.39 681.77 229.39V229.37Z" fill="#C3C3C4"/>
<path d="M669.59 165.84C669.48 165.84 669.36 165.82 669.25 165.79C668.97 165.71 662.46 163.85 661.59 159.41C661 156.42 663.14 153.17 667.93 149.75L668.57 149.29C677.63 142.83 688.91 134.8 709.49 127.96C733.71 119.92 764.98 115.48 805.08 114.39C805.08 114.39 805.09 114.39 805.1 114.39C805.2 114.39 815.83 114.31 829.16 115.72C847.12 117.63 861.2 121.19 871 126.32C871.57 126.62 871.78 127.3 871.45 127.83C871.13 128.36 870.4 128.55 869.83 128.25C857.97 122.05 841.04 119.21 828.91 117.92C815.89 116.54 805.49 116.6 805.12 116.6C765.28 117.68 734.25 122.07 710.27 130.04C690.04 136.76 678.93 144.68 670 151.04L669.36 151.5C665.39 154.32 663.51 156.92 663.92 158.99C664.42 161.56 668.42 163.23 669.92 163.65C670.55 163.83 670.9 164.45 670.72 165.03C670.56 165.51 670.09 165.82 669.58 165.82L669.59 165.84Z" fill="#C3C3C4"/>
<path d="M662.94 304.41L659.23 304.27L814.51 277.08C816.67 276.71 818.74 276.17 820.66 275.48C824.13 274.23 826.17 272.86 826.11 271.82C826.08 271.21 825.19 269.6 817.77 267.75L818.18 266.32C824.55 267.91 827.57 269.64 827.69 271.74C827.8 273.58 825.68 275.26 821.23 276.86C819.22 277.58 817.05 278.15 814.8 278.53L673.27 302.66L720.61 302.51C723.74 302.08 856.11 282.66 875.92 276.77C884.47 274.23 885.36 272.23 885.35 271.49C885.32 269.9 881.7 268.36 879.41 267.75C878.67 267.6 861.14 264.09 828.25 259.75L828.47 258.29C861.99 262.72 879.59 266.28 879.77 266.32H879.82C880.54 266.52 886.88 268.28 886.94 271.48C886.98 273.87 883.54 276.07 876.41 278.19C856.34 284.16 721.97 304.1 720.62 304.28L662.95 304.42L662.94 304.41Z" fill="#C3C3C4"/>
<path d="M785.17 305.15L720.61 304.27L785.11 303.67C786.8 303.56 853.93 303.38 886.93 303.54C887.67 303.54 887.96 303.63 887.93 302.94C887.76 299.25 887.17 275 885.31 270.79L886.78 270.23C888.74 274.65 889.35 299.11 889.52 302.88C889.58 304.27 889.08 304.78 887.6 304.76C854.37 304.25 785.9 305.11 785.19 305.15H785.16H785.17Z" fill="#C3C3C4"/>
<path d="M799.23 280.32L797.61 222.59L805.26 221.29L815.82 219.88L819.14 276.95L817.56 277.03L814.33 221.57L805.5 222.75L799.24 223.82L800.82 280.28L799.23 280.32Z" fill="#C3C3C4"/>
<path d="M806.86 278.64L804.58 222.05L806.17 222L808.44 278.59L806.86 278.64Z" fill="#C3C3C4"/>
<path d="M768.3 285.59L766.59 227.54L767.26 227.42C773.85 226.28 780.01 225.24 780.07 225.23L780.98 225.08L782.43 283.41L780.84 283.44L779.43 226.84C777.56 227.16 773.06 227.92 768.21 228.76L769.89 285.55L768.3 285.59Z" fill="#C3C3C4"/>
<path d="M771.1 285.28L769.22 227.89L770.8 227.84L772.68 285.24L771.1 285.28Z" fill="#C3C3C4"/>
<path d="M730.27 288.84L718.02 287.84V287.16L718.63 236.54L719.25 236.42C727.35 234.79 736.88 232.98 736.98 232.97L737.93 232.79V286.09L730.28 288.85L730.27 288.84ZM719.62 286.48L730.04 287.33L736.33 285.06V234.58C733.8 235.06 726.63 236.43 720.19 237.72L719.61 286.47L719.62 286.48Z" fill="#C3C3C4"/>
<path d="M730.6 235.02H729.01V288.08H730.6V235.02Z" fill="#C3C3C4"/>
<path d="M799.49 266.4L780.99 263.54L781.25 262.08L799.75 264.95L799.49 266.4Z" fill="#C3C3C4"/>
<path d="M799.39 262.85L780.91 260.1L781.16 258.64L799.64 261.39L799.39 262.85Z" fill="#C3C3C4"/>
<path d="M799.28 257.72L780.83 255.66L781.02 254.19L799.47 256.26L799.28 257.72Z" fill="#C3C3C4"/>
<path d="M768.03 254.62L737 249.93L737.26 248.47L768.28 253.16L768.03 254.62Z" fill="#C3C3C4"/>
<path d="M768.19 262.85L736.33 259.68V251.95L768.41 257.12L768.14 258.57L737.92 253.71V258.35L768.36 261.38L768.19 262.85Z" fill="#C3C3C4"/>
<path d="M719.1 258.21C718.95 258.2 703.43 256.81 687.92 254.19C666.47 250.57 655.69 246.55 654.96 241.91C654.5 238.97 657.92 236.16 665.42 233.32C681.7 227.16 702.86 221.85 728.33 217.54C748.68 214.09 771.82 211.28 797.09 209.16C840.11 205.56 874.89 205.25 875.24 205.24H876.04V211.98L875.32 212.04C866.45 212.79 853.26 218.19 853.13 218.25L852.97 218.32H852.79C821.32 217.45 722.69 237.24 719.67 237.85C715.48 239.4 713.28 241.04 713.29 242.6C713.31 244.85 717.84 246.92 719.58 247.53L719.02 248.91C718.27 248.65 711.74 246.27 711.7 242.61C711.68 240.32 714.11 238.3 719.14 236.44L719.2 236.42H719.26C720.25 236.21 816.6 216.8 850.69 216.8C851.37 216.8 852.02 216.8 852.64 216.82C854.23 216.17 865.82 211.56 874.45 210.63V206.72C869.01 206.79 836.57 207.33 797.22 210.62C772 212.73 748.91 215.55 728.61 218.98C703.26 223.27 682.2 228.55 666.03 234.68C657.77 237.81 656.31 240.22 656.54 241.69C656.88 243.88 661.46 248.22 688.22 252.73C703.67 255.34 719.11 256.72 719.27 256.73L719.12 258.2L719.1 258.21Z" fill="#C3C3C4"/>
<path d="M719.24 245.51C719.18 245.51 717.75 245.35 716.23 244.73C714.11 243.85 712.83 242.47 712.54 240.72L714.11 240.49C714.61 243.51 719.37 244.03 719.41 244.04L719.24 245.51Z" fill="#C3C3C4"/>
<path d="M664.66 248.78C664.49 248.71 660.41 246.98 660.6 243.95C660.81 240.57 666.12 237.42 676.82 234.31C678.65 233.78 680.45 233.24 682.19 232.72C693.6 229.31 705.4 225.78 732.45 222.14C762.72 218.07 809.4 214.28 875.18 210.55L875.28 212.03C809.54 215.76 762.9 219.54 732.68 223.61C705.76 227.23 694.03 230.74 682.67 234.13C680.92 234.65 679.12 235.19 677.29 235.72C664.37 239.47 662.28 242.53 662.18 244.03C662.05 246.04 665.27 247.41 665.31 247.43L664.66 248.78Z" fill="#C3C3C4"/>
<path d="M718.53 219.91L718.04 200.35L706.99 197.69C706.69 197.62 706.46 197.38 706.41 197.09C706.36 196.8 706.5 196.51 706.76 196.35L718.89 189.01C718.98 188.95 719.09 188.92 719.2 188.9L731.32 187.15C731.42 187.14 731.53 187.14 731.63 187.16L737.32 188.47C737.67 188.55 737.92 188.85 737.92 189.19V216.86H736.33V189.77L731.4 188.63L719.61 190.33L709.13 196.67L719.02 199.05C719.36 199.13 719.61 199.42 719.61 199.75L720.11 219.87L718.52 219.9L718.53 219.91Z" fill="#C3C3C4"/>
<path d="M732.23 187.89H730.64V217.77H732.23V187.89Z" fill="#C3C3C4"/>
<path d="M769.36 212.93L767.7 165.09C767.7 165.09 767.7 165.03 767.7 165L768.53 156.39L770.11 156.52L769.28 165.08L770.94 212.88L769.35 212.93H769.36Z" fill="#C3C3C4"/>
<path d="M798.12 206.71L779.31 204.7L779.49 203.23L798.3 205.24L798.12 206.71Z" fill="#C3C3C4"/>
<path d="M795.09 210.79L779.38 208.51L779.62 207.05L795.33 209.33L795.09 210.79Z" fill="#C3C3C4"/>
<path d="M797.42 209.83L794.96 153.72C794.96 153.52 795.03 153.33 795.17 153.19C795.31 153.05 795.51 152.96 795.73 152.95L801.44 152.79C801.44 152.79 801.47 152.79 801.48 152.79L811.93 153.02C812.35 153.02 812.69 153.34 812.7 153.73L815.26 208.54L813.67 208.6L811.14 154.48L801.46 154.27L796.57 154.41L799 209.77L797.41 209.83H797.42Z" fill="#C3C3C4"/>
<path d="M803.9 209.33L800.68 153.57L802.26 153.49L805.48 209.25L803.9 209.33Z" fill="#C3C3C4"/>
<path d="M766.27 202.51C752.13 200.86 737.02 196.08 736.87 196.03L737.38 194.63C737.53 194.68 752.49 199.4 766.47 201.04L766.27 202.51Z" fill="#C3C3C4"/>
<path d="M766.37 206.71C754.62 205.18 737.11 201.1 736.94 201.05L737.33 199.62C737.5 199.66 754.93 203.72 766.6 205.25L766.38 206.71H766.37Z" fill="#C3C3C4"/>
<path d="M766.65 213.64C766.65 213.64 766.65 213.64 766.64 213.64C755.1 213.5 737.15 210.04 736.97 210.01L737.29 208.56C737.46 208.59 754.44 211.87 765.84 212.15L764.68 165.6C764.68 165.6 764.68 165.54 764.68 165.52L765.53 156.7C765.56 156.37 765.83 156.09 766.19 156.04L768.1 155.73C768.1 155.73 768.12 155.73 768.13 155.73L780.01 154.3C780.26 154.27 780.51 154.35 780.69 154.52C780.86 154.69 780.94 154.93 780.9 155.16L779.15 164.22L780.4 211.29L778.81 211.33L777.56 164.19C777.56 164.14 777.56 164.09 777.57 164.04L779.15 155.9L768.36 157.2L767.06 157.41L766.27 165.62L767.45 212.9C767.45 213.1 767.37 213.29 767.22 213.44C767.07 213.58 766.87 213.66 766.66 213.66L766.65 213.64Z" fill="#C3C3C4"/>
<path d="M716.33 191.74C716.1 191.58 710.66 187.68 711.97 181.69C712.87 177.58 716.78 173.58 723.58 169.8C732.1 165.07 745.25 160.64 762.67 156.65H762.7C762.98 156.59 791.17 151.16 815.8 153.29C819.39 153.6 822.09 153.95 823.81 154.32C825.3 154.64 826.67 155.08 826.68 156.08C826.68 157.05 825.38 157.55 823.97 157.94C822.8 158.26 821.18 158.59 819.15 158.92C815.73 159.47 812.26 159.83 812.22 159.84L812.04 158.37C812.04 158.37 815.12 158.05 818.3 157.56C822.42 156.92 824.08 156.4 824.74 156.12C823.94 155.82 821.72 155.29 815.64 154.76C791.44 152.67 763.75 157.95 763.02 158.09C724.52 166.92 714.85 175.95 713.51 181.97C712.39 187.04 717.22 190.52 717.27 190.56L716.31 191.74H716.33Z" fill="#C3C3C4"/>
<path d="M778.46 164.89L778.22 163.43C778.32 163.42 787.83 162.06 795.86 160.72L796.14 162.18C788.09 163.52 778.56 164.88 778.46 164.9V164.89Z" fill="#C3C3C4"/>
<path d="M778.45 173.08L778.23 171.62C778.32 171.61 786.84 170.48 796.38 169.36L796.58 170.83C787.06 171.94 778.55 173.07 778.46 173.08H778.45Z" fill="#C3C3C4"/>
<path d="M718.83 206.7C718.74 206.68 709.43 205.08 698.75 202.34C684.34 198.64 674.42 194.75 669.26 190.77C662.41 185.48 663.14 179.59 664.96 175.58C666.63 171.9 669.69 168.81 673.59 166.88C685.6 160.92 730.24 141.4 800.61 140.55C822.88 140.28 840.08 140.94 851.73 142.51C860.94 143.75 866.68 145.51 869.3 147.91C870.39 148.91 870.95 150.05 870.95 151.29C870.95 153.27 868.99 155.37 865.83 156.77C860.04 159.34 839.19 166.56 812.67 169.05L812.51 167.58C838.81 165.11 859.42 157.97 865.14 155.43C867.67 154.31 869.37 152.64 869.36 151.29C869.36 150.45 868.97 149.68 868.18 148.96C864.37 145.47 849.57 141.44 800.62 142.03C730.6 142.87 686.25 162.26 674.32 168.19C670.75 169.96 667.94 172.8 666.41 176.16C664.07 181.32 665.36 185.86 670.26 189.64C682.19 198.85 718.74 205.2 719.1 205.26L718.81 206.71L718.83 206.7Z" fill="#C3C3C4"/>
<path d="M663.77 181.94C663.73 181.84 662.77 179.5 663 176.14C663.22 173.05 664.54 168.48 669.58 164.24C673.1 161.28 693.67 150.64 728.77 142.56C747.69 138.2 767.32 135.45 787.09 134.39C811.07 133.1 835.22 134.3 858.87 137.98C859.15 138.02 866.06 139.06 869.43 143.57C871.08 145.78 871.59 148.43 870.93 151.45L869.38 151.16C869.95 148.56 869.53 146.29 868.14 144.42C865.16 140.43 858.69 139.45 858.62 139.44C835.08 135.79 811.05 134.58 787.18 135.87C767.5 136.93 747.97 139.67 729.15 144C710.89 148.2 697.14 153.03 688.82 156.35C679 160.26 672.61 163.69 670.63 165.35C666.92 168.47 664.89 172.11 664.58 176.18C664.35 179.23 665.23 181.39 665.24 181.42L663.76 181.96L663.77 181.94Z" fill="#C3C3C4"/>
<path d="M718.97 190.3C714.86 188.42 712.38 181.39 712.27 181.09L713.78 180.64C713.78 180.64 714.39 182.38 715.44 184.28C716.79 186.71 718.25 188.34 719.67 188.98L718.97 190.31V190.3Z" fill="#C3C3C4"/>
<path d="M590.71 297.42H543.22C542.9 297.42 542.65 297.16 542.65 296.85C542.65 296.54 542.91 296.28 543.22 296.28H590.71C591.03 296.28 591.28 296.54 591.28 296.85C591.28 297.16 591.02 297.42 590.71 297.42Z" fill="#C3C3C4"/>
<path d="M552.05 289.33H580.78C581.72 289.33 582.49 290.1 582.49 291.04V296.85H550.35V291.04C550.35 290.1 551.12 289.33 552.06 289.33H552.05Z" fill="#C3C3C4"/>
<path d="M583.05 297.42H549.76V291.04C549.76 289.78 550.78 288.76 552.04 288.76H580.77C582.03 288.76 583.05 289.78 583.05 291.04V297.42ZM550.91 296.28H581.91V291.04C581.91 290.41 581.4 289.9 580.77 289.9H552.04C551.41 289.9 550.9 290.41 550.9 291.04V296.28H550.91Z" fill="#C3C3C4"/>
<path d="M552.85 289.9C552.85 289.9 552.79 289.9 552.76 289.9C552.45 289.85 552.24 289.56 552.29 289.25L565.85 203.64C565.89 203.36 566.13 203.16 566.41 203.16C566.69 203.16 566.93 203.37 566.97 203.64L580.19 289.25C580.24 289.56 580.02 289.85 579.71 289.9C579.4 289.95 579.11 289.73 579.06 289.42L566.4 207.42L553.41 289.42C553.37 289.7 553.12 289.9 552.85 289.9Z" fill="#C3C3C4"/>
<path d="M553.63 289.42C553.45 289.42 553.28 289.34 553.17 289.19C552.98 288.94 553.04 288.58 553.29 288.39L576 271.76L557.74 256.65C557.62 256.55 557.55 256.41 557.54 256.26C557.53 256.11 557.58 255.95 557.68 255.84L571.36 240.26L562.46 225.97C562.35 225.79 562.35 225.57 562.45 225.39C562.55 225.21 562.74 225.1 562.95 225.1H569.51C569.83 225.1 570.08 225.36 570.08 225.67C570.08 225.98 569.82 226.24 569.51 226.24H563.98L572.56 240.02C572.69 240.23 572.67 240.51 572.5 240.7L558.92 256.16L577.29 271.36C577.43 271.47 577.5 271.64 577.5 271.82C577.5 272 577.41 272.16 577.27 272.26L553.97 289.33C553.87 289.4 553.75 289.44 553.63 289.44V289.42Z" fill="#C3C3C4"/>
<path d="M560.62 241.08C560.2 241.08 559.86 240.74 559.86 240.32C559.86 239.9 560.2 239.56 560.62 239.56H572.07C572.49 239.56 572.83 239.9 572.83 240.32C572.83 240.74 572.49 241.08 572.07 241.08H560.62Z" fill="#C3C3C4"/>
<path d="M537.67 257.25C537.39 257.25 537.16 257.05 537.11 256.78C537.06 256.51 537.22 256.24 537.48 256.14L559.07 248.37C559.37 248.26 559.69 248.42 559.8 248.71C559.91 249.01 559.75 249.33 559.46 249.44L541.05 256.07L591.88 255.55L573.23 249.45C572.93 249.35 572.77 249.03 572.87 248.73C572.97 248.43 573.29 248.27 573.59 248.37L595.53 255.55C595.8 255.64 595.96 255.9 595.92 256.18C595.88 256.46 595.64 256.66 595.36 256.66L537.7 257.25H537.67Z" fill="#C3C3C4"/>
<path d="M576.92 272.35L555.67 272.13C555.35 272.13 555.1 271.87 555.11 271.55C555.11 271.24 555.37 270.99 555.68 270.99L576.93 271.21C577.25 271.21 577.5 271.47 577.49 271.79C577.49 272.1 577.23 272.35 576.92 272.35Z" fill="#C3C3C4"/>
<path d="M585.48 225.48H546.79C546.52 225.48 546.29 225.29 546.23 225.03C546.17 224.77 546.3 224.5 546.55 224.39L564.09 216.29C564.38 216.16 564.72 216.29 564.85 216.57C564.98 216.86 564.85 217.19 564.57 217.33L549.38 224.34H582.94L568.17 217.33C567.89 217.19 567.76 216.85 567.9 216.57C568.03 216.29 568.38 216.16 568.66 216.3L585.71 224.4C585.95 224.51 586.08 224.78 586.02 225.04C585.96 225.3 585.73 225.48 585.46 225.48H585.48Z" fill="#C3C3C4"/>
<path d="M511.17 231.84H463.68C463.36 231.84 463.11 231.58 463.11 231.27C463.11 230.96 463.37 230.7 463.68 230.7H511.17C511.49 230.7 511.74 230.96 511.74 231.27C511.74 231.58 511.48 231.84 511.17 231.84Z" fill="#C3C3C4"/>
<path d="M472.51 223.75H501.24C502.18 223.75 502.95 224.52 502.95 225.46V231.27H470.81V225.46C470.81 224.52 471.58 223.75 472.52 223.75H472.51Z" fill="#C3C3C4"/>
<path d="M503.51 231.84H470.22V225.46C470.22 224.2 471.24 223.18 472.5 223.18H501.23C502.49 223.18 503.51 224.2 503.51 225.46V231.84ZM471.37 230.7H502.37V225.46C502.37 224.83 501.86 224.32 501.23 224.32H472.5C471.87 224.32 471.36 224.83 471.36 225.46V230.7H471.37Z" fill="#C3C3C4"/>
<path d="M473.31 224.32C473.31 224.32 473.25 224.32 473.22 224.32C472.91 224.27 472.7 223.98 472.75 223.67L486.31 138.06C486.35 137.78 486.59 137.58 486.87 137.58C487.15 137.58 487.39 137.79 487.43 138.06L500.65 223.67C500.7 223.98 500.48 224.27 500.17 224.32C499.86 224.37 499.57 224.15 499.52 223.84L486.86 141.84L473.87 223.84C473.83 224.12 473.58 224.32 473.31 224.32Z" fill="#C3C3C4"/>
<path d="M474.08 223.84C473.9 223.84 473.73 223.76 473.62 223.61C473.43 223.36 473.49 223 473.74 222.81L496.45 206.18L478.19 191.07C478.07 190.97 478 190.83 477.99 190.68C477.98 190.53 478.03 190.37 478.13 190.26L491.81 174.68L482.91 160.39C482.8 160.21 482.8 159.99 482.9 159.81C483 159.63 483.19 159.52 483.4 159.52H489.96C490.28 159.52 490.53 159.78 490.53 160.09C490.53 160.4 490.27 160.66 489.96 160.66H484.43L493.01 174.44C493.14 174.65 493.12 174.93 492.95 175.12L479.37 190.58L497.74 205.78C497.88 205.89 497.95 206.06 497.95 206.24C497.95 206.42 497.86 206.58 497.72 206.68L474.42 223.75C474.32 223.82 474.2 223.86 474.08 223.86V223.84Z" fill="#C3C3C4"/>
<path d="M481.08 175.5C480.66 175.5 480.32 175.16 480.32 174.74C480.32 174.32 480.66 173.98 481.08 173.98H492.53C492.95 173.98 493.29 174.32 493.29 174.74C493.29 175.16 492.95 175.5 492.53 175.5H481.08Z" fill="#C3C3C4"/>
<path d="M458.13 191.67C457.85 191.67 457.62 191.47 457.57 191.2C457.52 190.93 457.68 190.66 457.94 190.56L479.53 182.79C479.83 182.68 480.15 182.84 480.26 183.13C480.37 183.43 480.21 183.75 479.92 183.86L461.51 190.49L512.34 189.97L493.69 183.87C493.39 183.77 493.23 183.45 493.33 183.15C493.43 182.85 493.75 182.69 494.05 182.79L515.99 189.97C516.26 190.06 516.42 190.32 516.38 190.6C516.34 190.88 516.1 191.08 515.82 191.08L458.16 191.67H458.13Z" fill="#C3C3C4"/>
<path d="M497.38 206.77L476.13 206.55C475.81 206.55 475.56 206.29 475.57 205.97C475.57 205.66 475.83 205.41 476.14 205.41L497.39 205.63C497.71 205.63 497.96 205.89 497.95 206.21C497.95 206.52 497.69 206.77 497.38 206.77Z" fill="#C3C3C4"/>
<path d="M505.94 159.89H467.25C466.98 159.89 466.75 159.7 466.69 159.44C466.63 159.18 466.76 158.91 467.01 158.8L484.55 150.7C484.84 150.57 485.17 150.7 485.31 150.98C485.44 151.27 485.31 151.6 485.03 151.74L469.84 158.75H503.4L488.63 151.74C488.35 151.6 488.22 151.26 488.36 150.98C488.5 150.7 488.83 150.57 489.12 150.71L506.17 158.81C506.41 158.92 506.54 159.19 506.48 159.45C506.42 159.71 506.19 159.89 505.92 159.89H505.94Z" fill="#C3C3C4"/>
<path d="M324.35 303.81H276.86C276.54 303.81 276.29 303.55 276.29 303.24C276.29 302.93 276.55 302.67 276.86 302.67H324.35C324.67 302.67 324.92 302.93 324.92 303.24C324.92 303.55 324.66 303.81 324.35 303.81Z" fill="#C3C3C4"/>
<path d="M285.68 295.73H314.41C315.35 295.73 316.12 296.5 316.12 297.44V303.25H283.98V297.44C283.98 296.5 284.75 295.73 285.69 295.73H285.68Z" fill="#C3C3C4"/>
<path d="M316.69 303.81H283.4V297.43C283.4 296.17 284.42 295.15 285.68 295.15H314.41C315.67 295.15 316.69 296.17 316.69 297.43V303.81ZM284.54 302.67H315.54V297.43C315.54 296.8 315.03 296.29 314.4 296.29H285.67C285.04 296.29 284.53 296.8 284.53 297.43V302.67H284.54Z" fill="#C3C3C4"/>
<path d="M286.49 296.3C286.49 296.3 286.43 296.3 286.4 296.3C286.09 296.25 285.88 295.96 285.93 295.65L299.49 210.04C299.53 209.76 299.77 209.56 300.05 209.56C300.33 209.56 300.57 209.77 300.61 210.04L313.83 295.65C313.88 295.96 313.66 296.25 313.35 296.3C313.04 296.35 312.75 296.13 312.7 295.82L300.04 213.82L287.05 295.82C287.01 296.1 286.76 296.3 286.49 296.3Z" fill="#C3C3C4"/>
<path d="M287.26 295.81C287.08 295.81 286.91 295.73 286.8 295.58C286.61 295.33 286.67 294.97 286.92 294.78L309.63 278.15L291.37 263.04C291.25 262.94 291.18 262.8 291.16 262.65C291.15 262.5 291.2 262.34 291.3 262.23L304.98 246.65L296.08 232.36C295.97 232.18 295.96 231.96 296.07 231.78C296.17 231.6 296.36 231.49 296.57 231.49H303.13C303.45 231.49 303.7 231.75 303.7 232.06C303.7 232.37 303.44 232.63 303.13 232.63H297.6L306.18 246.41C306.31 246.62 306.29 246.9 306.12 247.09L292.54 262.55L310.91 277.75C311.05 277.86 311.12 278.03 311.12 278.21C311.12 278.39 311.03 278.55 310.89 278.65L287.59 295.72C287.49 295.79 287.37 295.83 287.25 295.83L287.26 295.81Z" fill="#C3C3C4"/>
<path d="M294.25 247.47C293.83 247.47 293.49 247.13 293.49 246.71C293.49 246.29 293.83 245.95 294.25 245.95H305.7C306.12 245.95 306.46 246.29 306.46 246.71C306.46 247.13 306.12 247.47 305.7 247.47H294.25Z" fill="#C3C3C4"/>
<path d="M271.3 263.65C271.02 263.65 270.79 263.45 270.74 263.18C270.69 262.91 270.85 262.64 271.11 262.54L292.7 254.77C293 254.66 293.32 254.82 293.43 255.11C293.54 255.41 293.38 255.73 293.09 255.84L274.68 262.47L325.51 261.95L306.86 255.85C306.56 255.75 306.4 255.43 306.5 255.13C306.6 254.83 306.92 254.67 307.22 254.77L329.16 261.95C329.43 262.04 329.59 262.3 329.55 262.58C329.51 262.86 329.27 263.06 328.99 263.06L271.33 263.65H271.3Z" fill="#C3C3C4"/>
<path d="M310.56 278.75L289.31 278.53C288.99 278.53 288.74 278.27 288.75 277.95C288.75 277.63 289.01 277.39 289.33 277.39L310.58 277.61C310.9 277.61 311.15 277.87 311.14 278.19C311.14 278.5 310.88 278.75 310.57 278.75H310.56Z" fill="#C3C3C4"/>
<path d="M319.12 231.87H280.43C280.16 231.87 279.93 231.68 279.87 231.42C279.81 231.16 279.94 230.89 280.19 230.78L297.73 222.68C298.02 222.55 298.36 222.68 298.49 222.96C298.62 223.25 298.49 223.58 298.21 223.72L283.02 230.73H316.58L301.81 223.72C301.53 223.58 301.4 223.24 301.54 222.96C301.68 222.68 302.02 222.55 302.3 222.69L319.35 230.79C319.59 230.9 319.72 231.17 319.66 231.43C319.6 231.69 319.37 231.87 319.1 231.87H319.12Z" fill="#C3C3C4"/>
<path d="M258.5 243.79H211.01C210.69 243.79 210.44 243.53 210.44 243.22C210.44 242.91 210.7 242.65 211.01 242.65H258.5C258.82 242.65 259.07 242.91 259.07 243.22C259.07 243.53 258.81 243.79 258.5 243.79Z" fill="#C3C3C4"/>
<path d="M219.84 235.7H248.57C249.51 235.7 250.28 236.47 250.28 237.41V243.22H218.14V237.41C218.14 236.47 218.91 235.7 219.85 235.7H219.84Z" fill="#C3C3C4"/>
<path d="M250.84 243.79H217.55V237.41C217.55 236.15 218.57 235.13 219.83 235.13H248.56C249.82 235.13 250.84 236.15 250.84 237.41V243.79ZM218.7 242.65H249.7V237.41C249.7 236.78 249.19 236.27 248.56 236.27H219.83C219.2 236.27 218.69 236.78 218.69 237.41V242.65H218.7Z" fill="#C3C3C4"/>
<path d="M220.64 236.27C220.64 236.27 220.58 236.27 220.55 236.27C220.24 236.22 220.03 235.93 220.08 235.62L233.64 150.01C233.68 149.73 233.92 149.53 234.2 149.53C234.48 149.53 234.72 149.74 234.76 150.01L247.98 235.62C248.03 235.93 247.81 236.22 247.5 236.27C247.19 236.32 246.9 236.1 246.85 235.79L234.19 153.79L221.2 235.79C221.16 236.07 220.91 236.27 220.64 236.27Z" fill="#C3C3C4"/>
<path d="M221.42 235.79C221.24 235.79 221.07 235.71 220.96 235.56C220.77 235.31 220.83 234.95 221.08 234.76L243.79 218.13L225.53 203.02C225.41 202.92 225.34 202.78 225.32 202.63C225.31 202.48 225.36 202.32 225.46 202.21L239.14 186.63L230.24 172.34C230.13 172.16 230.12 171.94 230.23 171.76C230.33 171.58 230.52 171.47 230.73 171.47H237.29C237.61 171.47 237.86 171.73 237.86 172.04C237.86 172.35 237.6 172.61 237.29 172.61H231.76L240.34 186.39C240.47 186.6 240.45 186.88 240.28 187.07L226.7 202.53L245.07 217.73C245.21 217.84 245.28 218.01 245.28 218.19C245.28 218.37 245.19 218.53 245.05 218.63L221.75 235.7C221.65 235.77 221.53 235.81 221.41 235.81L221.42 235.79Z" fill="#C3C3C4"/>
<path d="M228.41 187.45C227.99 187.45 227.65 187.11 227.65 186.69C227.65 186.27 227.99 185.93 228.41 185.93H239.86C240.28 185.93 240.62 186.27 240.62 186.69C240.62 187.11 240.28 187.45 239.86 187.45H228.41Z" fill="#C3C3C4"/>
<path d="M205.46 203.62C205.18 203.62 204.95 203.42 204.9 203.15C204.85 202.88 205.01 202.61 205.27 202.51L226.86 194.74C227.16 194.63 227.48 194.79 227.59 195.08C227.7 195.38 227.54 195.7 227.25 195.81L208.84 202.44L259.67 201.92L241.02 195.82C240.72 195.72 240.56 195.4 240.66 195.1C240.76 194.8 241.08 194.64 241.38 194.74L263.32 201.92C263.59 202.01 263.75 202.27 263.71 202.55C263.67 202.83 263.43 203.03 263.15 203.03L205.49 203.62H205.46Z" fill="#C3C3C4"/>
<path d="M244.71 218.72L223.46 218.5C223.14 218.5 222.89 218.24 222.9 217.92C222.9 217.61 223.16 217.36 223.47 217.36L244.72 217.58C245.04 217.58 245.29 217.84 245.28 218.16C245.28 218.47 245.02 218.72 244.71 218.72Z" fill="#C3C3C4"/>
<path d="M253.27 171.84H214.58C214.31 171.84 214.08 171.65 214.02 171.39C213.96 171.13 214.09 170.86 214.34 170.75L231.88 162.65C232.17 162.52 232.5 162.65 232.64 162.93C232.77 163.22 232.64 163.55 232.36 163.69L217.17 170.7H250.73L235.96 163.69C235.68 163.55 235.55 163.21 235.69 162.93C235.83 162.65 236.17 162.52 236.45 162.66L253.5 170.76C253.74 170.87 253.87 171.14 253.81 171.4C253.75 171.66 253.52 171.84 253.25 171.84H253.27Z" fill="#C3C3C4"/>
<path d="M358.3 188.98C348.26 188.98 337.93 188.48 327.34 187.47C284.52 183.39 251.98 172.29 251.66 172.18C251.16 172.01 250.9 171.47 251.07 170.97C251.24 170.47 251.78 170.21 252.28 170.38C252.6 170.49 284.96 181.53 327.57 185.58C352.57 187.96 376.15 187.51 397.66 184.23C424.51 180.14 448.18 171.63 468.03 158.92C468.47 158.64 469.06 158.77 469.34 159.21C469.62 159.65 469.49 160.24 469.05 160.52C448.97 173.38 425.04 181.99 397.92 186.12C385.37 188.03 372.12 188.98 358.3 188.98Z" fill="#C3C3C4"/>
<path d="M358.17 222.71C348.47 222.71 338.52 222.08 328.38 220.82C289.62 216.01 261.08 203.48 260.79 203.35C260.31 203.14 260.09 202.58 260.31 202.1C260.52 201.62 261.08 201.4 261.56 201.62C261.84 201.75 290.17 214.18 328.66 218.95C351.24 221.75 372.86 221.4 392.9 217.91C417.93 213.56 440.57 204.27 460.19 190.31C460.62 190.01 461.21 190.11 461.52 190.53C461.82 190.96 461.72 191.55 461.3 191.86C441.43 205.99 418.52 215.39 393.2 219.79C381.97 221.74 370.26 222.72 358.17 222.72V222.71Z" fill="#C3C3C4"/>
<path d="M428.65 254.4C415.67 254.4 402.55 253.48 389.39 251.64C367.39 248.57 349.36 243.44 338.1 239.68C325.89 235.6 318.77 232.2 318.7 232.16C318.23 231.93 318.03 231.36 318.26 230.89C318.49 230.42 319.06 230.22 319.53 230.45C319.81 230.58 347.9 243.93 389.72 249.77C414.27 253.2 438.68 253.4 462.28 250.38C491.76 246.6 520.05 237.75 546.36 224.07C546.83 223.83 547.4 224.01 547.64 224.47C547.88 224.94 547.7 225.51 547.24 225.75C520.72 239.54 492.2 248.47 462.48 252.27C451.36 253.69 440.06 254.4 428.66 254.4H428.65Z" fill="#C3C3C4"/>
<path d="M431.89 287.65C419.42 287.65 406.75 286.61 393.98 284.52C373.25 281.13 356.1 275.56 345.36 271.48C333.71 267.06 326.86 263.38 326.79 263.34C326.33 263.09 326.16 262.51 326.41 262.05C326.66 261.59 327.24 261.42 327.7 261.67C327.77 261.71 334.54 265.34 346.1 269.73C356.76 273.77 373.79 279.3 394.36 282.66C417.47 286.43 440.26 286.76 462.1 283.63C489.38 279.72 515.25 270.38 538.99 255.86C539.44 255.59 540.02 255.73 540.3 256.17C540.57 256.62 540.43 257.2 539.99 257.48C516.02 272.14 489.89 281.58 462.34 285.52C452.37 286.95 442.21 287.66 431.91 287.66L431.89 287.65Z" fill="#C3C3C4"/>
<path d="M600.24 181.9C600.24 181.9 600.21 181.9 600.19 181.9C568.49 180.21 543.95 174.51 528.96 170.02C512.68 165.15 503.77 160.61 503.68 160.56C503.21 160.32 503.03 159.75 503.27 159.28C503.51 158.81 504.08 158.63 504.55 158.87C504.64 158.91 513.44 163.39 529.57 168.21C544.46 172.66 568.81 178.31 600.3 179.99C600.82 180.02 601.23 180.47 601.2 180.99C601.17 181.5 600.75 181.89 600.25 181.89L600.24 181.9Z" fill="#C3C3C4"/>
<path d="M600.24 213.94C600.24 213.94 600.21 213.94 600.19 213.94C570.23 212.4 548.2 206.5 534.99 201.82C520.63 196.73 513.48 192.07 513.18 191.88C512.74 191.59 512.62 191 512.91 190.56C513.2 190.12 513.79 190 514.23 190.29C514.3 190.34 521.55 195.05 535.72 200.06C548.8 204.69 570.62 210.52 600.3 212.05C600.82 212.08 601.23 212.52 601.2 213.05C601.17 213.56 600.75 213.95 600.25 213.95L600.24 213.94Z" fill="#C3C3C4"/>
</svg>
