<svg width="898" height="219" viewBox="0 0 898 219" fill="none" xmlns="http://www.w3.org/2000/svg">
<path d="M782.73 68.61C789.54 70.11 797.76 70.33 803.39 65.22C815.67 54.09 820.91 38.25 831.5 33.18C844.72 26.86 862.98 16.84 896.14 23.54" stroke="#C3C3C4" stroke-width="3" stroke-linecap="round" stroke-linejoin="round"/>
<path d="M374.25 109.7C374.36 109.48 374.48 109.25 374.59 109.02C379.9 97.97 396.69 78.7801 410.98 85.3501C417.78 88.4801 422.01 86.7601 425.15 83.3201C426 82.3901 426.17 81.0301 426.83 79.9401C429.86 75.0001 436.62 71.6401 452.34 73.5201C470.77 75.7201 475.24 69.3601 476.24 67.0701C476.71 65.9901 477.27 64.9401 477.95 63.9901C480.6 60.3201 486.86 53.8801 496.28 57.5201C507.76 61.9601 532.97 63.36 538.08 63.61C538.6 63.63 539.11 63.6701 539.62 63.7201C542.49 63.9701 554.89 64.4601 569.45 56.0101C586.49 46.1201 603.18 30.3501 624.24 30.1301C646.6 29.9001 642.67 37.9601 660.91 40.6601C664.16 41.1401 668.55 39.5601 671.93 38.6301C675.92 37.5201 679.98 36.6801 683.75 34.9401C688.06 32.9501 695.87 30.5901 706.67 32.2801" stroke="#C3C3C4" stroke-width="3" stroke-miterlimit="10" stroke-linecap="round"/>
<path d="M2.07007 201.52C5.83007 194.53 9.75003 186.84 13.72 177.13C31.2 134.42 46.8501 116.48 53.2901 110.36C55.8401 107.94 58.1701 104.89 60.1801 101.22C63.1301 95.8401 67.11 87.83 69.45 80.08C72.52 69.9 81.04 82.4601 84.96 89.0901C86.63 91.9201 88.48 94.41 90.46 96.52C93.83 100.11 98.97 105.28 102.71 107.69C109.08 111.79 117.09 136.09 117.09 136.09C117.09 136.09 119.59 148.36 129.67 136.09C130.92 134.57 132.96 133.34 135.16 132.51" stroke="#C3C3C4" stroke-width="3" stroke-miterlimit="10" stroke-linecap="round"/>
<path d="M731.63 216.24L715.81 216.12C715.68 216.12 715.55 216.08 715.46 216.01C715.37 215.94 715.32 215.84 715.32 215.75L716.04 183.62C716.04 183.52 716.1 183.42 716.2 183.36L731.3 172.83C731.44 172.73 731.65 172.7 731.83 172.76C732.01 172.82 732.13 172.95 732.13 173.1V215.89C732.13 215.99 732.08 216.08 731.98 216.15C731.89 216.22 731.76 216.26 731.63 216.26V216.24ZM716.31 215.39L731.14 215.5V173.94L717.02 183.79L716.31 215.39Z" fill="#C3C3C4" stroke="#C3C3C4" stroke-width="0.37" stroke-miterlimit="10"/>
<path d="M716.04 181.41C715.97 181.41 715.91 181.41 715.84 181.38C715.66 181.32 715.54 181.19 715.54 181.04L715.74 124.19C715.74 124.1 715.78 124.02 715.85 123.96L731.54 109.6C731.67 109.48 731.89 109.43 732.09 109.49C732.29 109.54 732.42 109.68 732.42 109.84L732.22 169.93C732.22 170.03 732.16 170.13 732.07 170.2L716.38 181.32C716.29 181.39 716.17 181.42 716.04 181.42V181.41ZM716.73 124.32L716.54 180.18L731.24 169.76L731.43 110.87L716.73 124.33V124.32Z" fill="#C3C3C4" stroke="#C3C3C4" stroke-width="0.37" stroke-miterlimit="10"/>
<path d="M716.431 120.8C716.371 120.8 716.32 120.8 716.26 120.78C716.06 120.73 715.94 120.59 715.94 120.43L716.141 97.7501C716.141 97.6701 716.18 97.5901 716.24 97.5301L731.73 82.2101C731.86 82.0801 732.081 82.0301 732.281 82.0801C732.481 82.1301 732.62 82.2801 732.61 82.4401L732.12 106.82C732.12 106.9 732.08 106.99 732.01 107.05L716.811 120.67C716.711 120.76 716.581 120.8 716.431 120.8ZM717.12 97.8801L716.931 119.41L731.141 106.67L731.61 83.5501L717.12 97.8701V97.8801Z" fill="#C3C3C4" stroke="#C3C3C4" stroke-width="0.37" stroke-miterlimit="10"/>
<path d="M716.43 93.85C716.38 93.85 716.33 93.85 716.27 93.83C716.07 93.78 715.93 93.64 715.93 93.48L716.22 60.6C716.22 59.93 716.39 59.27 716.71 58.64C719.73 52.76 722.58 49.95 725.38 50.03C728.42 50.12 730.25 53.6 731.06 55.66C731.23 56.1 731.33 56.56 731.33 57.02L731.52 78.75C731.52 78.83 731.49 78.91 731.42 78.97L716.81 93.7C716.72 93.8 716.57 93.85 716.41 93.85H716.43ZM725.28 50.77C723.68 50.77 721.09 52.21 717.64 58.91C717.36 59.45 717.22 60.02 717.21 60.6L716.93 92.35L730.55 78.63L730.36 57.03C730.36 56.64 730.28 56.25 730.13 55.88C729.67 54.7 727.95 50.86 725.35 50.78C725.32 50.78 725.3 50.78 725.27 50.78L725.28 50.77Z" fill="#C3C3C4" stroke="#C3C3C4" stroke-width="0.37" stroke-miterlimit="10"/>
<path d="M717.81 49.4899C717.69 49.4899 717.58 49.4599 717.48 49.3999C717.29 49.2699 717.26 49.0599 717.4 48.9099C717.62 48.6799 739.17 25.9199 744.76 20.7899C747.21 18.5399 748.09 18.2399 748.71 18.4899C749.3 18.7299 749.32 19.3799 748.8 20.6899C748.62 21.1399 748.37 21.5699 748.07 21.9899L731.37 45.0199C731.27 45.1599 731.06 45.2299 730.86 45.2099C730.65 45.1799 730.49 45.0599 730.46 44.9099C730.33 44.3299 729.99 44.1799 729.74 44.1099C729.09 43.9399 727.35 44.0199 722.96 46.4399C720.39 47.8599 718.16 49.3899 718.14 49.4099C718.05 49.4799 717.93 49.5099 717.81 49.5099V49.4899ZM748.19 19.2099C747.9 19.3299 747.16 19.7499 745.52 21.2599C741.05 25.3599 726.31 40.8099 720.54 46.8799C723.52 45.0899 727.85 42.8399 730.05 43.4099C730.36 43.4899 730.73 43.6499 731.02 43.9699L747.21 21.6399C747.48 21.2699 747.7 20.8799 747.86 20.4799C748.16 19.7499 748.2 19.3799 748.19 19.2199V19.2099Z" fill="#C3C3C4" stroke="#C3C3C4" stroke-width="0.37" stroke-miterlimit="10"/>
<path d="M774.92 216.8H772.69C772.56 216.8 772.43 216.76 772.34 216.69C772.25 216.62 772.2 216.53 772.2 216.43L772.36 192.03C772.27 191.69 771.43 188.75 769.03 185.36C766.72 182.09 762.44 177.73 755.16 175.39C754.34 175.65 750.89 176.84 747.25 179.14C743.45 181.54 738.68 185.68 737.45 191.79V216.1C737.45 216.3 737.23 216.47 736.96 216.47H734.15C734.01 216.47 733.88 216.43 733.79 216.35C733.7 216.27 733.65 216.17 733.66 216.07L733.68 215.89L734.04 172.89C734.04 172.79 734.09 172.7 734.19 172.63C734.29 172.56 734.41 172.52 734.54 172.52L774.74 172.79C775.01 172.79 775.23 172.96 775.23 173.16L775.41 216.44C775.41 216.54 775.36 216.63 775.27 216.7C775.18 216.77 775.05 216.81 774.92 216.81V216.8ZM773.18 216.06H774.42L774.25 173.51L735.03 173.25L734.68 215.72H736.48V191.75C736.48 191.75 736.48 191.71 736.48 191.7C737.74 185.34 742.71 181.04 746.65 178.55C750.91 175.86 754.82 174.69 754.99 174.64C755.11 174.6 755.24 174.61 755.36 174.64C763.03 177.05 767.51 181.62 769.92 185.03C772.52 188.72 773.31 191.79 773.34 191.92C773.34 191.94 773.34 191.97 773.34 191.99L773.18 216.06Z" fill="#C3C3C4" stroke="#C3C3C4" stroke-width="0.37" stroke-miterlimit="10"/>
<path d="M774.74 170.01H734.34C734.21 170.01 734.08 169.97 733.99 169.9C733.9 169.83 733.85 169.74 733.85 169.64C733.85 169.05 734.24 110.37 734.24 110.14C734.24 109.94 734.46 109.77 734.73 109.77H774.74C775.01 109.77 775.23 109.94 775.23 110.14V169.64C775.23 169.84 775.01 170.01 774.74 170.01ZM734.84 169.27H774.25V110.51H735.22C735.19 115.25 734.87 164.06 734.84 169.27Z" fill="#C3C3C4" stroke="#C3C3C4" stroke-width="0.37" stroke-miterlimit="10"/>
<path d="M740.63 153.26C740.52 153.26 740.41 153.23 740.33 153.17C740.25 153.11 740.21 153.03 740.21 152.95V137.42C740.09 134.46 744.08 133.88 744.12 133.87C744.17 133.87 744.23 133.87 744.28 133.87C748.08 134.48 748.07 136.74 748.05 136.98L748.16 152.93C748.16 153.01 748.12 153.09 748.04 153.15C747.96 153.21 747.85 153.24 747.74 153.24H740.62V153.25L740.63 153.26ZM744.19 134.5C743.68 134.59 740.96 135.16 741.05 137.41V152.63L747.32 152.62L747.21 136.98C747.21 136.98 747.21 136.96 747.21 136.95C747.21 136.87 747.35 135.04 744.19 134.5Z" fill="#C3C3C4" stroke="#C3C3C4" stroke-width="0.37" stroke-miterlimit="10"/>
<path d="M740.63 153.26C740.52 153.26 740.41 153.23 740.33 153.17C740.25 153.11 740.21 153.03 740.21 152.95V137.42H741.05V152.63L747.74 152.62V153.25L740.63 153.26Z" fill="#C3C3C4" stroke="#C3C3C4" stroke-width="0.37" stroke-miterlimit="10"/>
<path d="M751.4 153.26C751.29 153.26 751.18 153.23 751.1 153.17C751.02 153.11 750.98 153.03 750.98 152.95V137.42C750.86 134.46 754.85 133.88 754.89 133.87C754.94 133.87 755 133.87 755.05 133.87C758.85 134.48 758.84 136.74 758.82 136.98L758.93 152.93C758.93 153.01 758.89 153.09 758.81 153.15C758.73 153.21 758.62 153.24 758.51 153.24H751.4V153.25V153.26ZM754.96 134.5C754.45 134.59 751.73 135.16 751.82 137.41V152.63L758.09 152.62L757.98 136.98C757.98 136.98 757.98 136.96 757.98 136.95C757.98 136.87 758.12 135.04 754.96 134.5Z" fill="#C3C3C4" stroke="#C3C3C4" stroke-width="0.37" stroke-miterlimit="10"/>
<path d="M751.401 153.26C751.291 153.26 751.18 153.23 751.1 153.17C751.02 153.11 750.98 153.03 750.98 152.95V137.42H751.82V152.63L758.51 152.62V153.25L751.401 153.26Z" fill="#C3C3C4" stroke="#C3C3C4" stroke-width="0.37" stroke-miterlimit="10"/>
<path d="M762.52 153.26C762.41 153.26 762.3 153.23 762.22 153.17C762.14 153.11 762.1 153.03 762.1 152.95V137.42C761.98 134.46 765.97 133.88 766.01 133.87C766.06 133.87 766.12 133.87 766.17 133.87C769.97 134.48 769.96 136.74 769.94 136.98L770.05 152.93C770.05 153.01 770.01 153.09 769.93 153.15C769.85 153.21 769.74 153.24 769.63 153.24H762.51V153.25L762.52 153.26ZM766.08 134.5C765.57 134.59 762.85 135.16 762.94 137.41V152.63L769.21 152.62L769.1 136.98C769.1 136.98 769.1 136.96 769.1 136.95C769.1 136.87 769.24 135.04 766.08 134.5Z" fill="#C3C3C4" stroke="#C3C3C4" stroke-width="0.37" stroke-miterlimit="10"/>
<path d="M762.521 153.26C762.411 153.26 762.301 153.23 762.221 153.17C762.141 153.11 762.101 153.03 762.101 152.95V137.42H762.941V152.63L769.631 152.62V153.25L762.521 153.26Z" fill="#C3C3C4" stroke="#C3C3C4" stroke-width="0.37" stroke-miterlimit="10"/>
<path d="M749.85 133.14C747.34 133.14 745.3 131.61 745.3 129.72C745.3 127.83 747.34 126.3 749.85 126.3C752.36 126.3 754.4 127.83 754.4 129.72C754.4 131.61 752.36 133.14 749.85 133.14ZM749.85 126.94C747.81 126.94 746.14 128.19 746.14 129.72C746.14 131.25 747.8 132.5 749.85 132.5C751.9 132.5 753.56 131.25 753.56 129.72C753.56 128.19 751.9 126.94 749.85 126.94Z" fill="#C3C3C4" stroke="#C3C3C4" stroke-width="0.37" stroke-miterlimit="10"/>
<path d="M760.13 133.14C757.62 133.14 755.58 131.61 755.58 129.72C755.58 127.83 757.62 126.3 760.13 126.3C762.64 126.3 764.68 127.83 764.68 129.72C764.68 131.61 762.64 133.14 760.13 133.14ZM760.13 126.94C758.09 126.94 756.42 128.19 756.42 129.72C756.42 131.25 758.08 132.5 760.13 132.5C762.18 132.5 763.84 131.25 763.84 129.72C763.84 128.19 762.18 126.94 760.13 126.94Z" fill="#C3C3C4" stroke="#C3C3C4" stroke-width="0.37" stroke-miterlimit="10"/>
<path d="M754.99 126.24C752.48 126.24 750.44 124.71 750.44 122.82C750.44 120.93 752.48 119.4 754.99 119.4C757.5 119.4 759.541 120.93 759.541 122.82C759.541 124.71 757.5 126.24 754.99 126.24ZM754.99 120.04C752.95 120.04 751.281 121.29 751.281 122.82C751.281 124.35 752.94 125.6 754.99 125.6C757.04 125.6 758.7 124.35 758.7 122.82C758.7 121.29 757.04 120.04 754.99 120.04Z" fill="#C3C3C4" stroke="#C3C3C4" stroke-width="0.37" stroke-miterlimit="10"/>
<path d="M774.62 107.78H734.81C734.68 107.78 734.55 107.74 734.46 107.67C734.37 107.6 734.32 107.51 734.32 107.41L734.49 82.4301C734.49 82.2301 734.71 82.0601 734.98 82.0601H774.63C774.9 82.0601 775.12 82.2301 775.12 82.4301V107.41C775.12 107.61 774.9 107.78 774.63 107.78H774.62ZM735.3 107.04H774.13V82.8H735.47L735.31 107.04H735.3Z" fill="#C3C3C4" stroke="#C3C3C4" stroke-width="0.37" stroke-miterlimit="10"/>
<path d="M741.13 104.82C741.02 104.82 740.91 104.79 740.83 104.73C740.75 104.67 740.7 104.59 740.7 104.5V88.6C740.58 85.57 744.66 84.97 744.7 84.97C744.76 84.97 744.81 84.97 744.87 84.97C748.76 85.6 748.75 87.91 748.73 88.15L748.84 104.48C748.84 104.57 748.8 104.65 748.72 104.71C748.64 104.77 748.53 104.81 748.42 104.81H741.14V104.82H741.13ZM744.77 85.61C744.25 85.7 741.46 86.29 741.56 88.58V104.16L747.98 104.15L747.87 88.14C747.87 88.14 747.87 88.12 747.87 88.11C747.87 88.03 748.01 86.16 744.77 85.6V85.61Z" fill="#C3C3C4" stroke="#C3C3C4" stroke-width="0.37" stroke-miterlimit="10"/>
<path d="M741.13 104.82C741.02 104.82 740.91 104.79 740.83 104.73C740.75 104.67 740.7 104.59 740.7 104.5V88.6001H741.56V104.17L748.41 104.16V104.81L741.13 104.82Z" fill="#C3C3C4" stroke="#C3C3C4" stroke-width="0.37" stroke-miterlimit="10"/>
<path d="M751.61 104.7C751.5 104.7 751.39 104.67 751.31 104.61C751.23 104.55 751.18 104.47 751.18 104.38V88.4801C751.06 85.4501 755.14 84.8501 755.18 84.8501C755.24 84.8501 755.29 84.8501 755.35 84.8501C759.24 85.4801 759.23 87.7901 759.21 88.0301L759.32 104.36C759.32 104.45 759.28 104.53 759.2 104.59C759.12 104.65 759.01 104.69 758.9 104.69H751.62V104.7H751.61ZM755.25 85.4901C754.73 85.5801 751.94 86.1701 752.04 88.4601V104.04L758.46 104.03L758.35 88.0201C758.35 88.0201 758.35 88.0001 758.35 87.9901C758.35 87.9101 758.49 86.0401 755.25 85.4801V85.4901Z" fill="#C3C3C4" stroke="#C3C3C4" stroke-width="0.37" stroke-miterlimit="10"/>
<path d="M751.61 104.7C751.5 104.7 751.39 104.67 751.31 104.61C751.23 104.55 751.18 104.47 751.18 104.38V88.48H752.04V104.05L758.89 104.04V104.69L751.61 104.7Z" fill="#C3C3C4" stroke="#C3C3C4" stroke-width="0.37" stroke-miterlimit="10"/>
<path d="M762.45 104.7C762.34 104.7 762.23 104.67 762.15 104.61C762.07 104.55 762.02 104.47 762.02 104.38V88.4801C761.9 85.4501 765.98 84.8501 766.02 84.8501C766.08 84.8501 766.13 84.8501 766.19 84.8501C770.08 85.4801 770.07 87.7901 770.05 88.0301L770.16 104.36C770.16 104.45 770.12 104.53 770.04 104.59C769.96 104.65 769.85 104.69 769.74 104.69H762.46V104.7H762.45ZM766.09 85.4901C765.57 85.5801 762.78 86.1701 762.88 88.4601V104.04L769.3 104.03L769.19 88.0201C769.19 88.0201 769.19 88.0001 769.19 87.9901C769.19 87.9101 769.33 86.0401 766.09 85.4801V85.4901Z" fill="#C3C3C4" stroke="#C3C3C4" stroke-width="0.37" stroke-miterlimit="10"/>
<path d="M762.45 104.7C762.34 104.7 762.23 104.67 762.15 104.61C762.07 104.55 762.02 104.47 762.02 104.38V88.48H762.88V104.05L769.73 104.04V104.69L762.45 104.7Z" fill="#C3C3C4" stroke="#C3C3C4" stroke-width="0.37" stroke-miterlimit="10"/>
<path d="M734.98 79.55C734.85 79.55 734.72 79.51 734.62 79.44C734.48 79.33 734.44 79.18 734.51 79.04C734.51 79.04 734.51 79.04 734.51 79.03C734.65 78.22 734.67 71.07 734.65 66.34C734.65 66.24 734.7 66.15 734.79 66.08C734.88 66.01 735.01 65.97 735.14 65.97H754.78C755.05 65.97 755.27 66.14 755.27 66.34V79.18C755.27 79.38 755.05 79.55 754.78 79.55H735C735 79.55 734.97 79.55 734.96 79.55H734.98ZM735.53 78.81H754.3V66.71H735.65C735.65 67.64 735.65 70.2 735.65 72.74C735.65 74.6 735.62 76.09 735.6 77.16C735.59 77.8 735.57 78.29 735.55 78.63C735.55 78.7 735.55 78.76 735.54 78.81H735.53Z" fill="#C3C3C4" stroke="#C3C3C4" stroke-width="0.37" stroke-miterlimit="10"/>
<path d="M734.97 64.2601C734.91 64.2601 734.84 64.2601 734.78 64.2301C734.547 64.1567 734.434 63.2834 734.44 61.61C734.44 60.41 734.46 58.7301 734.48 56.6401C734.52 53.0701 734.58 49.4601 734.58 49.4201C734.58 49.3801 734.59 49.34 734.61 49.3C736.47 45.53 740.57 42.6901 746.47 41.1001C750.9 39.9001 754.72 39.8201 754.88 39.8201C755.01 39.8201 755.14 39.8601 755.24 39.9301C755.34 40.0001 755.39 40.0901 755.39 40.1901V63.9001C755.39 64.1001 755.17 64.2701 754.9 64.2701H735C735 64.2701 734.99 64.2701 734.98 64.2701L734.97 64.2601ZM735.43 63.5201H754.4V40.5701C753.22 40.6301 750.15 40.88 746.78 41.8C741.12 43.33 737.35 45.9201 735.56 49.5001C735.48 54.5401 735.39 61.9101 735.43 63.5301V63.5201Z" fill="#C3C3C4" stroke="#C3C3C4" stroke-width="0.37" stroke-miterlimit="10"/>
<path d="M775.5 79.5601H757.51C757.24 79.5601 757.021 79.3901 757.021 79.1901V40.2501C757.021 40.0501 757.24 39.8801 757.51 39.8801C763.28 39.8801 767.871 41.1401 771.151 43.6301C773.681 45.5501 774.85 47.7301 775.58 49.4101C775.86 50.0501 776 50.7101 776 51.3801V79.1901C776 79.3901 775.78 79.5601 775.51 79.5601H775.5ZM758 78.8201H775.01V51.3801C775.01 50.7901 774.891 50.2001 774.641 49.6401C773.941 48.0401 772.83 45.9601 770.44 44.1501C767.45 41.8801 763.27 40.6901 758 40.6301V78.8301V78.8201Z" fill="#C3C3C4" stroke="#C3C3C4" stroke-width="0.37" stroke-miterlimit="10"/>
<path d="M774.48 43.62C774.36 43.62 774.23 43.58 774.14 43.52C769.78 40.34 765.07 38.36 760.12 37.63C756.17 37.05 752.06 37.27 747.9 38.28C740.79 40.01 735.96 43.48 735.91 43.51C735.74 43.64 735.47 43.65 735.27 43.54C735.08 43.43 735.02 43.23 735.13 43.07L746.86 25.99C747.98 24.37 749.07 22.7 750.12 21.08C750.41 20.64 750.69 20.21 750.98 19.77C751.41 19.11 752.69 17.58 755.28 17.54C758.64 17.5 759.96 20.03 760.1 20.34L774.93 43.08C775.04 43.24 774.97 43.44 774.78 43.54C774.69 43.59 774.59 43.61 774.49 43.61L774.48 43.62ZM755.36 18.29C755.36 18.29 755.31 18.29 755.29 18.29C753.32 18.32 752.29 19.44 751.85 20.11C751.56 20.55 751.28 20.98 750.99 21.42C749.93 23.04 748.84 24.71 747.72 26.34L737.12 41.77C739.21 40.56 742.88 38.72 747.58 37.58C751.9 36.53 756.18 36.3 760.29 36.9C764.7 37.54 768.93 39.15 772.89 41.67L759.18 20.65C759.18 20.65 759.16 20.62 759.15 20.6C759.11 20.51 758.11 18.28 755.34 18.28L755.36 18.29Z" fill="#C3C3C4" stroke="#C3C3C4" stroke-width="0.37" stroke-miterlimit="10"/>
<path d="M756.89 15.4701H753.67C753.4 15.4701 753.18 15.3001 753.18 15.1001V7.34006H750.81C750.54 7.34006 750.32 7.17006 750.32 6.97006V4.24005C750.32 4.04005 750.54 3.87006 750.81 3.87006H753.09V1.19006C753.09 0.990063 753.31 0.820068 753.58 0.820068H756.8C757.07 0.820068 757.29 0.990063 757.29 1.19006V3.93005H759.68C759.95 3.93005 760.17 4.10005 760.17 4.30005V6.91006C760.17 7.11006 759.95 7.28006 759.68 7.28006H757.38V15.11C757.38 15.31 757.16 15.4801 756.89 15.4801V15.4701ZM754.16 14.7301H756.39V6.90005C756.39 6.70006 756.61 6.53006 756.88 6.53006H759.18V4.66006H756.79C756.52 4.66006 756.3 4.49007 756.3 4.29007V1.55005H754.07V4.23007C754.07 4.43007 753.85 4.60007 753.58 4.60007H751.3V6.59006H753.63C753.86 6.59006 754.05 6.71006 754.11 6.87006L754.15 7.00006C754.15 7.00006 754.16 7.06006 754.16 7.09006V14.7301Z" fill="#C3C3C4" stroke="#C3C3C4" stroke-width="0.37" stroke-miterlimit="10"/>
<path d="M668.08 216.31C667.95 216.31 667.83 216.27 667.73 216.2C667.64 216.13 667.58 216.04 667.58 215.94V159.14C667.58 158.97 667.73 158.82 667.95 158.78L679.76 156.53C679.91 156.5 680.06 156.53 680.18 156.6C680.3 156.67 680.37 156.78 680.37 156.89V215.81C680.37 216.01 680.15 216.18 679.88 216.18L668.07 216.31H668.08ZM668.57 159.43V215.57L679.4 215.45V157.37L668.57 159.43Z" fill="#C3C3C4" stroke="#C3C3C4" stroke-width="0.37" stroke-miterlimit="10"/>
<path d="M667.84 156.85C667.73 156.85 667.63 156.82 667.54 156.77C667.42 156.7 667.35 156.59 667.35 156.48L667.28 150.91C667.28 150.76 667.4 150.62 667.59 150.56L679.75 146.83C679.9 146.78 680.07 146.8 680.21 146.86C680.35 146.93 680.43 147.04 680.43 147.16L680.57 154.02C680.57 154.19 680.42 154.34 680.2 154.38L667.97 156.81C667.97 156.81 667.89 156.82 667.84 156.82V156.85ZM668.26 151.16L668.32 156L679.57 153.76L679.44 147.73L668.25 151.16H668.26Z" fill="#C3C3C4" stroke="#C3C3C4" stroke-width="0.37" stroke-miterlimit="10"/>
<path d="M710.96 216.34H683.29C683.05 216.34 682.85 216.21 682.81 216.04C682.81 216.01 682.8 215.97 682.81 215.94C682.86 214.81 682.65 157.37 682.65 156.79C682.65 156.69 682.7 156.6 682.79 156.53C682.88 156.46 683.01 156.42 683.14 156.42H710.98C711.25 156.42 711.47 156.59 711.47 156.79V215.97C711.47 216.17 711.25 216.34 710.98 216.34H710.96ZM683.78 215.6H710.46V157.16H683.61C683.61 159.54 683.67 172.95 683.71 186.37C683.73 193.77 683.76 201.16 683.77 206.71C683.77 209.48 683.78 211.8 683.78 213.42C683.78 214.23 683.78 214.87 683.78 215.3C683.78 215.41 683.78 215.51 683.78 215.6Z" fill="#C3C3C4" stroke="#C3C3C4" stroke-width="0.37" stroke-miterlimit="10"/>
<path d="M710.94 154.48H683.46C683.19 154.48 682.97 154.31 682.97 154.11V146.93C682.97 146.73 683.19 146.56 683.46 146.56C683.68 146.56 710.67 146.39 710.94 146.39C711.07 146.39 711.2 146.43 711.29 146.5C711.38 146.57 711.44 146.66 711.44 146.76V154.11C711.44 154.31 711.22 154.48 710.95 154.48H710.94ZM683.95 153.74H710.45V147.13C706.95 147.15 687.32 147.27 683.95 147.29V153.73V153.74Z" fill="#C3C3C4" stroke="#C3C3C4" stroke-width="0.37" stroke-miterlimit="10"/>
<path d="M708.68 144.74H686.09C685.82 144.74 685.6 144.58 685.6 144.37L685.58 143.1C685.58 143 685.63 142.91 685.72 142.84C685.81 142.77 685.94 142.73 686.07 142.73L708.68 142.76C708.95 142.76 709.17 142.93 709.17 143.13V144.37C709.17 144.57 708.95 144.74 708.68 144.74ZM686.58 144H708.19V143.49L686.57 143.46V143.99L686.58 144Z" fill="#C3C3C4" stroke="#C3C3C4" stroke-width="0.37" stroke-miterlimit="10"/>
<path d="M698.32 140.89H692.55C692.38 140.89 692.23 140.83 692.14 140.72C692.05 140.62 692.03 140.49 692.1 140.37C692.1 140.36 692.78 139.16 693.34 137.7C693.98 136.01 694.21 134.66 693.99 133.77C693.06 133.76 691.69 133.41 691.02 132.14C690.78 132.12 690.47 132.06 690.17 131.89C689.68 131.61 689.39 131.14 689.29 130.48C689.05 130.41 688.75 130.29 688.54 130.07C688.39 129.91 688.23 129.64 688.28 129.25C688.09 129.09 687.85 128.81 687.83 128.46C687.82 128.25 687.89 127.95 688.28 127.65C688.32 127.62 688.38 127.59 688.44 127.57L688.54 127.54C688.77 127.47 689.03 127.54 689.16 127.69C690.91 129.95 693.35 129.96 694.29 129.87C694.29 129.48 694.36 128.85 694.83 128.44C695.12 128.19 695.52 128.05 696 128.04C696.37 128.04 696.71 128.14 696.97 128.34C697.5 128.74 697.62 129.48 697.65 129.9C700.21 130.15 702.86 127.58 702.89 127.55C703 127.44 703.2 127.38 703.38 127.41C703.57 127.44 703.71 127.54 703.76 127.68C704.02 128.46 703.95 129.04 703.55 129.4C703.42 129.52 703.27 129.59 703.13 129.64C703.18 130.21 702.82 130.58 702.6 130.76C702.45 131.48 701.74 131.8 701.17 131.91C700.68 132.94 698.59 133.45 697.71 133.62C697.35 136.44 698.78 140.35 698.79 140.39C698.83 140.5 698.8 140.62 698.71 140.71C698.62 140.8 698.47 140.86 698.32 140.86V140.89ZM693.28 140.15H697.68C697.29 138.95 696.35 135.74 696.77 133.3C696.8 133.14 696.95 133.02 697.16 132.99C697.93 132.87 700.15 132.34 700.28 131.57C700.31 131.39 700.5 131.26 700.74 131.25C700.88 131.25 701.58 131.17 701.63 130.59C701.64 130.48 701.71 130.39 701.83 130.32C701.87 130.29 702.29 130.03 702.09 129.49C702.06 129.42 702.06 129.34 702.09 129.27C701.04 129.96 699.56 130.68 698 130.68C697.68 130.68 697.36 130.65 697.03 130.58C696.81 130.53 696.66 130.38 696.67 130.21C696.69 129.89 696.61 129.13 696.27 128.87C696.2 128.81 696.13 128.79 696.02 128.79C695.83 128.79 695.69 128.84 695.58 128.93C695.23 129.23 695.26 129.92 695.3 130.13C695.33 130.31 695.18 130.48 694.95 130.53C694.91 130.53 691.79 131.18 689.3 129.09C689.3 129.13 689.3 129.17 689.29 129.2C689.23 129.38 689.25 129.53 689.34 129.62C689.46 129.75 689.72 129.8 689.81 129.8C690.05 129.82 690.24 129.97 690.25 130.15C690.29 130.72 690.47 131.11 690.77 131.28C691 131.41 691.25 131.38 691.26 131.38C691.51 131.34 691.77 131.45 691.84 131.63C692.47 133.16 694.12 133.02 694.3 133C694.54 132.97 694.78 133.08 694.85 133.26C695.64 135.23 693.98 138.79 693.29 140.13L693.28 140.15ZM702.91 128.68C702.77 128.79 702.61 128.91 702.44 129.03C702.49 129.03 702.54 129.03 702.6 129.03C702.6 129.03 702.71 129.03 702.79 128.95C702.83 128.91 702.89 128.83 702.91 128.68Z" fill="#C3C3C4" stroke="#C3C3C4" stroke-width="0.37" stroke-miterlimit="10"/>
<path d="M691.26 206.93C690.99 206.93 690.77 206.77 690.77 206.56L690.68 194.14C690.66 193.91 690.48 191.6 692.25 190.09C693.17 189.31 694.43 188.89 696.01 188.84C697.73 188.78 699.09 189.1 700.05 189.78C701.66 190.91 701.7 192.74 701.72 193.52C701.72 193.72 701.72 193.93 701.72 194.12C701.72 194.35 701.7 194.56 701.72 194.77L701.94 206.51C701.94 206.61 701.89 206.7 701.8 206.77C701.71 206.84 701.58 206.88 701.45 206.88L691.27 206.92L691.26 206.93ZM696.39 189.57C696.28 189.57 696.17 189.57 696.06 189.57C694.76 189.61 693.73 189.95 693 190.57C691.45 191.88 691.66 194.07 691.67 194.09C691.67 194.09 691.67 194.11 691.67 194.12L691.76 206.19L700.95 206.15L700.73 194.79C700.72 194.56 700.73 194.33 700.73 194.1C700.73 193.9 700.74 193.72 700.73 193.53C700.71 192.84 700.67 191.23 699.37 190.31C698.67 189.81 697.66 189.56 696.38 189.56L696.39 189.57Z" fill="#C3C3C4" stroke="#C3C3C4" stroke-width="0.37" stroke-miterlimit="10"/>
<path d="M696.58 189.13H695.6V206.61H696.58V189.13Z" fill="#C3C3C4" stroke="#C3C3C4" stroke-width="0.37" stroke-miterlimit="10"/>
<path d="M701.49 199.48H691.22V200.22H701.49V199.48Z" fill="#C3C3C4" stroke="#C3C3C4" stroke-width="0.37" stroke-miterlimit="10"/>
<path d="M691.26 180.73C690.99 180.73 690.77 180.57 690.77 180.36L690.68 167.94C690.66 167.71 690.48 165.4 692.25 163.89C693.17 163.11 694.43 162.69 696.01 162.64C697.73 162.58 699.09 162.9 700.05 163.58C701.66 164.71 701.7 166.54 701.72 167.32C701.72 167.52 701.72 167.73 701.72 167.92C701.72 168.15 701.7 168.36 701.72 168.57L701.94 180.31C701.94 180.41 701.89 180.5 701.8 180.57C701.71 180.64 701.58 180.68 701.45 180.68L691.27 180.72L691.26 180.73ZM696.39 163.37C696.28 163.37 696.17 163.37 696.06 163.37C694.76 163.41 693.73 163.75 693 164.37C691.45 165.68 691.66 167.87 691.67 167.89C691.67 167.89 691.67 167.91 691.67 167.92L691.76 179.99L700.95 179.95L700.73 168.59C700.72 168.36 700.73 168.13 700.73 167.9C700.73 167.7 700.74 167.52 700.73 167.33C700.71 166.64 700.67 165.03 699.37 164.11C698.67 163.61 697.66 163.36 696.38 163.36L696.39 163.37Z" fill="#C3C3C4" stroke="#C3C3C4" stroke-width="0.37" stroke-miterlimit="10"/>
<path d="M696.58 162.93H695.6V180.41H696.58V162.93Z" fill="#C3C3C4" stroke="#C3C3C4" stroke-width="0.37" stroke-miterlimit="10"/>
<path d="M701.49 173.29H691.22V174.03H701.49V173.29Z" fill="#C3C3C4" stroke="#C3C3C4" stroke-width="0.37" stroke-miterlimit="10"/>
<path d="M780.13 216.31C780 216.31 779.88 216.27 779.78 216.2C779.69 216.13 779.63 216.04 779.63 215.94V159.14C779.63 158.97 779.78 158.82 780 158.78L791.81 156.53C791.96 156.5 792.11 156.53 792.23 156.6C792.35 156.67 792.42 156.78 792.42 156.89V215.81C792.42 216.01 792.2 216.18 791.93 216.18L780.12 216.31H780.13ZM780.62 159.43V215.57L791.45 215.45V157.37L780.62 159.43Z" fill="#C3C3C4" stroke="#C3C3C4" stroke-width="0.37" stroke-miterlimit="10"/>
<path d="M779.89 156.85C779.78 156.85 779.68 156.82 779.59 156.77C779.47 156.7 779.4 156.59 779.4 156.48L779.33 150.91C779.33 150.76 779.45 150.62 779.64 150.56L791.8 146.83C791.95 146.78 792.12 146.8 792.26 146.86C792.4 146.93 792.48 147.04 792.48 147.16L792.62 154.02C792.62 154.19 792.47 154.34 792.25 154.38L780.02 156.81C780.02 156.81 779.94 156.82 779.89 156.82V156.85ZM780.32 151.16L780.38 156L791.63 153.76L791.5 147.73L780.31 151.16H780.32Z" fill="#C3C3C4" stroke="#C3C3C4" stroke-width="0.37" stroke-miterlimit="10"/>
<path d="M823.01 216.34H795.34C795.1 216.34 794.9 216.21 794.86 216.04C794.86 216.01 794.85 215.97 794.86 215.94C794.91 214.81 794.7 157.37 794.7 156.79C794.7 156.69 794.75 156.6 794.84 156.53C794.93 156.46 795.06 156.42 795.19 156.42H823.03C823.3 156.42 823.52 156.59 823.52 156.79V215.97C823.52 216.17 823.3 216.34 823.03 216.34H823.01ZM795.84 215.6H822.52V157.16H795.67C795.67 159.54 795.73 172.95 795.77 186.37C795.79 193.77 795.82 201.16 795.83 206.71C795.83 209.48 795.84 211.8 795.84 213.42C795.84 214.23 795.84 214.87 795.84 215.3C795.84 215.41 795.84 215.51 795.84 215.6Z" fill="#C3C3C4" stroke="#C3C3C4" stroke-width="0.37" stroke-miterlimit="10"/>
<path d="M823 154.48H795.52C795.25 154.48 795.03 154.31 795.03 154.11V146.93C795.03 146.73 795.25 146.56 795.52 146.56C795.74 146.56 822.73 146.39 823 146.39C823.13 146.39 823.26 146.43 823.35 146.5C823.44 146.57 823.5 146.66 823.5 146.76V154.11C823.5 154.31 823.28 154.48 823.01 154.48H823ZM796.01 153.74H822.51V147.13C819.01 147.15 799.38 147.27 796.01 147.29V153.73V153.74Z" fill="#C3C3C4" stroke="#C3C3C4" stroke-width="0.37" stroke-miterlimit="10"/>
<path d="M820.74 144.74H798.15C797.88 144.74 797.66 144.58 797.66 144.37L797.64 143.1C797.64 143 797.69 142.91 797.78 142.84C797.87 142.77 798 142.73 798.13 142.73L820.74 142.76C821.01 142.76 821.23 142.93 821.23 143.13V144.37C821.23 144.57 821.01 144.74 820.74 144.74ZM798.64 144H820.25V143.49L798.63 143.46V143.99L798.64 144Z" fill="#C3C3C4" stroke="#C3C3C4" stroke-width="0.37" stroke-miterlimit="10"/>
<path d="M810.37 140.89H804.6C804.43 140.89 804.28 140.83 804.19 140.72C804.1 140.62 804.08 140.49 804.15 140.37C804.15 140.36 804.83 139.16 805.39 137.7C806.03 136.01 806.26 134.66 806.04 133.77C805.11 133.76 803.74 133.41 803.07 132.14C802.83 132.12 802.52 132.06 802.22 131.89C801.73 131.61 801.44 131.14 801.34 130.48C801.1 130.41 800.8 130.29 800.59 130.07C800.44 129.91 800.28 129.64 800.33 129.25C800.14 129.09 799.9 128.81 799.88 128.46C799.87 128.25 799.94 127.95 800.33 127.65C800.37 127.62 800.43 127.59 800.49 127.57L800.59 127.54C800.82 127.47 801.08 127.54 801.21 127.69C802.96 129.95 805.4 129.96 806.34 129.87C806.34 129.48 806.41 128.85 806.88 128.44C807.17 128.19 807.57 128.05 808.05 128.04C808.42 128.04 808.76 128.14 809.02 128.34C809.55 128.74 809.67 129.48 809.7 129.9C812.26 130.15 814.91 127.58 814.94 127.55C815.05 127.44 815.25 127.38 815.43 127.41C815.62 127.44 815.76 127.54 815.81 127.68C816.07 128.46 816 129.04 815.6 129.4C815.47 129.52 815.32 129.59 815.18 129.64C815.23 130.21 814.87 130.58 814.65 130.76C814.5 131.48 813.79 131.8 813.22 131.91C812.73 132.94 810.64 133.45 809.76 133.62C809.4 136.44 810.83 140.35 810.84 140.39C810.88 140.5 810.85 140.62 810.76 140.71C810.67 140.8 810.52 140.86 810.37 140.86V140.89ZM805.34 140.15H809.74C809.35 138.95 808.41 135.74 808.83 133.3C808.86 133.14 809.01 133.02 809.22 132.99C809.99 132.87 812.21 132.34 812.34 131.57C812.37 131.39 812.56 131.26 812.8 131.25C812.94 131.25 813.64 131.17 813.69 130.59C813.7 130.48 813.77 130.39 813.89 130.32C813.93 130.29 814.35 130.03 814.15 129.49C814.12 129.42 814.12 129.34 814.15 129.27C813.1 129.96 811.62 130.68 810.06 130.68C809.74 130.68 809.42 130.65 809.09 130.58C808.87 130.53 808.72 130.38 808.73 130.21C808.75 129.89 808.67 129.13 808.33 128.87C808.26 128.81 808.19 128.79 808.08 128.79C807.89 128.79 807.75 128.84 807.64 128.93C807.29 129.23 807.32 129.92 807.36 130.13C807.39 130.31 807.24 130.48 807.01 130.53C806.97 130.53 803.85 131.18 801.36 129.09C801.36 129.13 801.36 129.17 801.35 129.2C801.29 129.38 801.31 129.53 801.4 129.62C801.52 129.75 801.78 129.8 801.87 129.8C802.11 129.82 802.3 129.97 802.31 130.15C802.35 130.72 802.53 131.11 802.83 131.28C803.06 131.41 803.31 131.38 803.32 131.38C803.57 131.34 803.83 131.45 803.9 131.63C804.53 133.16 806.18 133.02 806.36 133C806.6 132.97 806.84 133.08 806.91 133.26C807.7 135.23 806.04 138.79 805.35 140.13L805.34 140.15ZM814.97 128.68C814.83 128.79 814.67 128.91 814.5 129.03C814.55 129.03 814.6 129.03 814.66 129.03C814.66 129.03 814.77 129.03 814.85 128.95C814.89 128.91 814.95 128.83 814.97 128.68Z" fill="#C3C3C4" stroke="#C3C3C4" stroke-width="0.37" stroke-miterlimit="10"/>
<path d="M803.32 206.93C803.05 206.93 802.83 206.77 802.83 206.56L802.74 194.14C802.72 193.91 802.54 191.6 804.31 190.09C805.23 189.31 806.49 188.89 808.07 188.84C809.79 188.78 811.15 189.1 812.11 189.78C813.72 190.91 813.76 192.74 813.78 193.52C813.78 193.72 813.78 193.93 813.78 194.12C813.78 194.35 813.76 194.56 813.78 194.77L814 206.51C814 206.61 813.95 206.7 813.86 206.77C813.77 206.84 813.64 206.88 813.51 206.88L803.33 206.92L803.32 206.93ZM808.45 189.57C808.34 189.57 808.23 189.57 808.12 189.57C806.82 189.61 805.79 189.95 805.06 190.57C803.51 191.88 803.72 194.07 803.73 194.09C803.73 194.09 803.73 194.11 803.73 194.12L803.82 206.19L813.01 206.15L812.79 194.79C812.78 194.56 812.79 194.33 812.79 194.1C812.79 193.9 812.8 193.72 812.79 193.53C812.77 192.84 812.73 191.23 811.43 190.31C810.73 189.81 809.72 189.56 808.44 189.56L808.45 189.57Z" fill="#C3C3C4" stroke="#C3C3C4" stroke-width="0.37" stroke-miterlimit="10"/>
<path d="M808.64 189.13H807.66V206.61H808.64V189.13Z" fill="#C3C3C4" stroke="#C3C3C4" stroke-width="0.37" stroke-miterlimit="10"/>
<path d="M813.541 199.48H803.271V200.22H813.541V199.48Z" fill="#C3C3C4" stroke="#C3C3C4" stroke-width="0.37" stroke-miterlimit="10"/>
<path d="M803.32 180.73C803.05 180.73 802.83 180.57 802.83 180.36L802.74 167.94C802.72 167.71 802.54 165.4 804.31 163.89C805.23 163.11 806.49 162.69 808.07 162.64C809.79 162.58 811.15 162.9 812.11 163.58C813.72 164.71 813.76 166.54 813.78 167.32C813.78 167.52 813.78 167.73 813.78 167.92C813.78 168.15 813.76 168.36 813.78 168.57L814 180.31C814 180.41 813.95 180.5 813.86 180.57C813.77 180.64 813.64 180.68 813.51 180.68L803.33 180.72L803.32 180.73ZM808.45 163.37C808.34 163.37 808.23 163.37 808.12 163.37C806.82 163.41 805.79 163.75 805.06 164.37C803.51 165.68 803.72 167.87 803.73 167.89C803.73 167.89 803.73 167.91 803.73 167.92L803.82 179.99L813.01 179.95L812.79 168.59C812.78 168.36 812.79 168.13 812.79 167.9C812.79 167.7 812.8 167.52 812.79 167.33C812.77 166.64 812.73 165.03 811.43 164.11C810.73 163.61 809.72 163.36 808.44 163.36L808.45 163.37Z" fill="#C3C3C4" stroke="#C3C3C4" stroke-width="0.37" stroke-miterlimit="10"/>
<path d="M808.64 162.93H807.66V180.41H808.64V162.93Z" fill="#C3C3C4" stroke="#C3C3C4" stroke-width="0.37" stroke-miterlimit="10"/>
<path d="M813.541 173.29H803.271V174.03H813.541V173.29Z" fill="#C3C3C4" stroke="#C3C3C4" stroke-width="0.37" stroke-miterlimit="10"/>
<path d="M506.61 210.58L505.77 210.57L506 196.1L506.84 196.11L506.61 210.58Z" fill="#C3C3C4"/>
<path d="M523.64 207.68L522.8 207.67L523 193.93L523.85 193.94L523.64 207.68Z" fill="#C3C3C4"/>
<path d="M541.46 191.59H540.61V204.64H541.46V191.59Z" fill="#C3C3C4"/>
<path d="M557.07 201.85L556.64 189.38L557.49 189.36L557.91 201.82L557.07 201.85Z" fill="#C3C3C4"/>
<path d="M572.26 199.26L571.75 187.13L572.6 187.1L573.11 199.23L572.26 199.26Z" fill="#C3C3C4"/>
<path d="M610.42 181.01H609.57V187.54H610.42V181.01Z" fill="#C3C3C4"/>
<path d="M619.33 189.08L619.04 179.1L619.89 179.08L620.17 189.06L619.33 189.08Z" fill="#C3C3C4"/>
<path d="M624.11 190.13L623.84 177.66L624.69 177.64L624.96 190.12L624.11 190.13Z" fill="#C3C3C4"/>
<path d="M631.44 174.72H630.59V193.99H631.44V174.72Z" fill="#C3C3C4"/>
<path d="M467.49 157.46H466.64V172.1H467.49V157.46Z" fill="#C3C3C4"/>
<path d="M474.6 151.88H473.75V166.87H474.6V151.88Z" fill="#C3C3C4"/>
<path d="M484 149.09H483.15V163.67H484V149.09Z" fill="#C3C3C4"/>
<path d="M494.06 146.95H493.21V160.88H494.06V146.95Z" fill="#C3C3C4"/>
<path d="M513.86 156.54L513.47 142.95L514.32 142.93L514.71 156.52L513.86 156.54Z" fill="#C3C3C4"/>
<path d="M553.38 151.02L553 137.87L553.85 137.84L554.22 151L553.38 151.02Z" fill="#C3C3C4"/>
<path d="M570.22 149.5L569.62 136.43L570.46 136.4L571.07 149.46L570.22 149.5Z" fill="#C3C3C4"/>
<path d="M589.26 135.02H588.41V148.23H589.26V135.02Z" fill="#C3C3C4"/>
<path d="M602.27 134.67H601.42V147.57H602.27V134.67Z" fill="#C3C3C4"/>
<path d="M611.77 134.36H610.92V147.22H611.77V134.36Z" fill="#C3C3C4"/>
<path d="M618.06 133.98H617.21V147.04H618.06V133.98Z" fill="#C3C3C4"/>
<path d="M623.49 134.11H622.64V146.95H623.49V134.11Z" fill="#C3C3C4"/>
<path d="M538.35 131.5H537.5V142.69H538.35V131.5Z" fill="#C3C3C4"/>
<path d="M527.29 129.67H526.44V139.96H527.29V129.67Z" fill="#C3C3C4"/>
<path d="M518.56 128.23H517.71V134.48H518.56V128.23Z" fill="#C3C3C4"/>
<path d="M511.13 134.3L510.29 134.28L510.45 126.85L511.3 126.87L511.13 134.3Z" fill="#C3C3C4"/>
<path d="M472.36 127.99L471.6 113.47L472.44 113.43L473.2 127.95L472.36 127.99Z" fill="#C3C3C4"/>
<path d="M480.32 105.05H479.47V116.01H480.32V105.05Z" fill="#C3C3C4"/>
<path d="M487.31 112.28L487.2 100.15L488.04 100.14L488.16 112.27L487.31 112.28Z" fill="#C3C3C4"/>
<path d="M498.1 108.24C498.06 107.88 498.1 97.0301 498.1 94.8501H498.95C498.93 100.01 498.92 107.81 498.95 108.16L498.11 108.24H498.1Z" fill="#C3C3C4"/>
<path d="M512.69 104.09L511.84 104.07L512.22 90.1201L513.07 90.1401L512.69 104.09Z" fill="#C3C3C4"/>
<path d="M527.27 100.59L527 86.8601L527.85 86.8501L528.12 100.57L527.27 100.59Z" fill="#C3C3C4"/>
<path d="M543.93 84.5801H543.08V98.1001H543.93V84.5801Z" fill="#C3C3C4"/>
<path d="M561.08 83.1802H560.23V96.5902H561.08V83.1802Z" fill="#C3C3C4"/>
<path d="M576.82 82.6602H575.97V96.2502H576.82V82.6602Z" fill="#C3C3C4"/>
<path d="M591.09 83.7102H590.24V96.8202H591.09V83.7102Z" fill="#C3C3C4"/>
<path d="M602.07 97.9402L601.75 85.4902L602.6 85.4702L602.92 97.9202L602.07 97.9402Z" fill="#C3C3C4"/>
<path d="M610.18 99.0302L609.89 87.5002L610.73 87.4802L611.02 99.0102L610.18 99.0302Z" fill="#C3C3C4"/>
<path d="M615.86 100.96L615.19 89.3501L616.04 89.3101L616.7 100.91L615.86 100.96Z" fill="#C3C3C4"/>
<path d="M619.23 106.96L618.37 90.6601L619.21 90.6201L620.07 106.92L619.23 106.96Z" fill="#C3C3C4"/>
<path d="M505.95 196.95C505.53 196.95 505.17 196.66 505.11 196.27C505.05 195.84 505.37 195.44 505.84 195.39L506.3 195.33C516.09 194.11 602.61 183.27 625.6 176.77C629.99 175.53 630.16 174.72 630.16 174.71C630.16 174.67 629.85 173.6 622.63 172.28C618.48 171.52 612.76 170.82 605.62 170.17C593.44 169.08 581.22 168.55 581.1 168.55C580.63 168.53 580.27 168.16 580.29 167.73C580.31 167.3 580.7 166.96 581.17 166.98C581.29 166.98 593.64 167.51 605.9 168.62C613.12 169.27 618.9 169.99 623.09 170.76C630.53 172.13 631.68 173.43 631.83 174.52C632.02 175.96 630.3 177.08 626.08 178.28C602.97 184.81 516.32 195.67 506.52 196.89L506.05 196.95C506.05 196.95 505.97 196.95 505.94 196.95H505.95Z" fill="#C3C3C4"/>
<path d="M568.33 167.65C568.33 167.65 568.3 167.65 568.28 167.65L555.86 166.99C555.39 166.97 555.04 166.59 555.06 166.16C555.09 165.73 555.49 165.39 555.95 165.42L568.37 166.08C568.84 166.1 569.19 166.48 569.17 166.91C569.14 167.33 568.77 167.65 568.33 167.65Z" fill="#C3C3C4"/>
<path d="M546.25 166.32C546.25 166.32 546.24 166.32 546.23 166.32L533.71 166.04C533.24 166.03 532.87 165.67 532.89 165.23C532.9 164.8 533.29 164.45 533.76 164.46L546.28 164.74C546.75 164.75 547.12 165.11 547.1 165.55C547.09 165.98 546.71 166.32 546.26 166.32H546.25Z" fill="#C3C3C4"/>
<path d="M485.58 163.57C485.58 163.57 485.52 163.57 485.49 163.57C485.44 163.57 480.77 163.11 476.12 162.16C469.35 160.77 466.13 159.1 466 156.93C465.89 155.09 468.03 153.39 472.72 151.57C477.69 149.64 485.65 147.58 496.37 145.43C496.86 145.32 508.68 142.61 529.84 139.8C539.71 138.49 552.67 137.03 568.31 135.82C565.53 135.6 562.72 135.36 559.87 135.08C544.02 133.52 527.01 130.97 509.34 127.5C508.88 127.41 508.59 126.99 508.69 126.57C508.79 126.14 509.24 125.87 509.69 125.96C527.28 129.42 544.2 131.96 559.98 133.51C566.95 134.2 573.71 134.69 580.2 134.99C593.17 134.17 607.65 133.56 623.46 133.34C623.89 133.34 624.26 133.63 624.31 134.03C624.36 134.43 624.08 134.8 623.66 134.89C623.28 134.97 614.21 136.86 595.51 136.91C590.61 136.92 585.51 136.81 580.23 136.56C564.61 137.54 547.49 139.05 530.11 141.36C508.68 144.2 496.88 146.94 496.77 146.96C496.77 146.96 496.75 146.96 496.74 146.96C486.11 149.09 478.24 151.13 473.37 153.02C468.16 155.04 467.66 156.37 467.69 156.84C467.72 157.31 468.43 158.96 476.47 160.62C481.02 161.56 485.61 162 485.66 162.01C486.12 162.05 486.46 162.44 486.42 162.87C486.38 163.28 486.01 163.58 485.58 163.58V163.57Z" fill="#C3C3C4"/>
<path d="M476.93 118.42C476.85 118.42 476.77 118.41 476.69 118.39C476.49 118.34 471.86 117.01 471.25 113.86C470.83 111.73 472.35 109.42 475.75 107L476.21 106.68C482.65 102.09 490.66 96.3801 505.29 91.5201C522.5 85.8001 544.73 82.6501 573.22 81.8801C573.22 81.8801 573.23 81.8801 573.24 81.8801C573.31 81.8801 580.87 81.8201 590.34 82.8301C603.1 84.1901 613.11 86.7201 620.07 90.3601C620.48 90.5701 620.62 91.0501 620.39 91.4301C620.16 91.8101 619.65 91.9401 619.24 91.7301C610.81 87.3201 598.78 85.3101 590.16 84.3901C580.91 83.4101 573.52 83.4501 573.25 83.4501C544.94 84.2201 522.89 87.3401 505.84 93.0001C491.46 97.7701 483.57 103.4 477.22 107.92L476.76 108.24C473.94 110.25 472.6 112.09 472.89 113.56C473.25 115.39 476.09 116.57 477.16 116.87C477.61 117 477.86 117.44 477.73 117.85C477.62 118.19 477.28 118.41 476.92 118.41L476.93 118.42Z" fill="#C3C3C4"/>
<path d="M472.2 216.9L469.57 216.8L579.92 197.48C581.46 197.22 582.93 196.84 584.29 196.34C586.76 195.45 588.21 194.48 588.16 193.74C588.14 193.31 587.51 192.17 582.24 190.84L582.53 189.83C587.05 190.96 589.2 192.19 589.29 193.68C589.36 194.99 587.86 196.18 584.7 197.32C583.27 197.84 581.73 198.24 580.13 198.51L479.55 215.66L513.19 215.55C515.42 215.24 609.48 201.45 623.56 197.26C629.64 195.45 630.27 194.04 630.26 193.51C630.24 192.38 627.67 191.28 626.04 190.85C625.51 190.74 613.06 188.25 589.68 185.16L589.84 184.12C613.66 187.27 626.17 189.8 626.29 189.82H626.32C626.83 189.96 631.34 191.21 631.38 193.49C631.41 195.19 628.96 196.75 623.89 198.26C609.63 202.5 514.14 216.67 513.18 216.8L472.2 216.9Z" fill="#C3C3C4"/>
<path d="M559.06 217.43L513.18 216.8L559.02 216.38C560.22 216.3 607.93 216.17 631.38 216.29C631.9 216.29 632.11 216.36 632.09 215.86C631.97 213.24 631.55 196.01 630.23 193.02L631.27 192.62C632.66 195.76 633.09 213.14 633.21 215.82C633.25 216.8 632.9 217.17 631.85 217.15C608.24 216.79 559.57 217.4 559.07 217.43H559.05H559.06Z" fill="#C3C3C4"/>
<path d="M569.06 199.78L567.91 158.76L573.34 157.83L580.85 156.83L583.2 197.39L582.08 197.44L579.79 158.03L573.51 158.87L569.06 159.63L570.18 199.75L569.06 199.78Z" fill="#C3C3C4"/>
<path d="M574.47 198.59L572.86 158.37L573.99 158.33L575.6 198.55L574.47 198.59Z" fill="#C3C3C4"/>
<path d="M547.07 203.53L545.85 162.28L546.32 162.2C551.01 161.39 555.38 160.65 555.42 160.65L556.07 160.54L557.1 201.99L555.97 202.01L554.97 161.79C553.64 162.02 550.44 162.56 547 163.15L548.19 203.5L547.06 203.53H547.07Z" fill="#C3C3C4"/>
<path d="M549.06 203.31L547.73 162.52L548.85 162.49L550.19 203.27L549.06 203.31Z" fill="#C3C3C4"/>
<path d="M520.05 205.83L511.34 205.12V204.63L511.77 168.66L512.21 168.57C517.97 167.41 524.74 166.13 524.81 166.12L525.49 165.99V203.87L520.05 205.83ZM512.48 204.16L519.89 204.77L524.36 203.16V167.29C522.56 167.63 517.47 168.6 512.89 169.52L512.48 204.17V204.16Z" fill="#C3C3C4"/>
<path d="M520.28 167.59H519.15V205.3H520.28V167.59Z" fill="#C3C3C4"/>
<path d="M569.24 189.89L556.09 187.85L556.28 186.82L569.42 188.85L569.24 189.89Z" fill="#C3C3C4"/>
<path d="M569.17 187.36L556.03 185.41L556.21 184.37L569.35 186.33L569.17 187.36Z" fill="#C3C3C4"/>
<path d="M569.09 183.72L555.98 182.25L556.11 181.21L569.22 182.68L569.09 183.72Z" fill="#C3C3C4"/>
<path d="M546.88 181.52L524.83 178.18L525.01 177.15L547.06 180.48L546.88 181.52Z" fill="#C3C3C4"/>
<path d="M547 187.37L524.36 185.11V179.62L547.15 183.29L546.96 184.32L525.49 180.87V184.17L547.12 186.32L547 187.37Z" fill="#C3C3C4"/>
<path d="M512.11 184.07C512 184.07 500.97 183.08 489.95 181.22C474.71 178.65 467.04 175.79 466.53 172.49C466.2 170.4 468.63 168.4 473.97 166.38C485.54 162 500.58 158.23 518.67 155.16C533.13 152.71 549.57 150.71 567.53 149.2C598.1 146.64 622.82 146.42 623.06 146.42H623.63V151.21L623.12 151.25C616.81 151.78 607.44 155.62 607.35 155.66L607.23 155.71H607.1C584.74 155.09 514.65 169.16 512.5 169.59C509.52 170.69 507.96 171.86 507.97 172.97C507.99 174.57 511.2 176.04 512.44 176.47L512.05 177.45C511.52 177.27 506.87 175.57 506.85 172.97C506.83 171.34 508.56 169.91 512.14 168.59L512.18 168.57H512.23C512.93 168.42 581.4 154.62 605.63 154.62C606.11 154.62 606.57 154.62 607.02 154.64C608.15 154.18 616.39 150.9 622.52 150.24V147.46C618.65 147.51 595.6 147.89 567.64 150.23C549.72 151.73 533.31 153.73 518.88 156.17C500.86 159.22 485.9 162.97 474.4 167.32C468.53 169.54 467.49 171.26 467.66 172.3C467.9 173.85 471.15 176.94 490.17 180.15C501.15 182 512.12 182.98 512.23 182.99L512.12 184.04L512.11 184.07Z" fill="#C3C3C4"/>
<path d="M512.21 175.04C512.21 175.04 511.15 174.93 510.07 174.48C508.56 173.86 507.65 172.87 507.45 171.63L508.56 171.47C508.91 173.61 512.29 173.99 512.33 173.99L512.21 175.03V175.04Z" fill="#C3C3C4"/>
<path d="M473.42 177.37C473.3 177.32 470.4 176.09 470.53 173.94C470.68 171.54 474.45 169.3 482.06 167.09C483.36 166.71 484.64 166.33 485.88 165.96C493.99 163.54 502.38 161.03 521.6 158.44C543.11 155.55 576.29 152.85 623.03 150.21L623.1 151.26C576.38 153.91 543.24 156.6 521.76 159.49C502.63 162.06 494.29 164.56 486.22 166.97C484.98 167.34 483.7 167.72 482.39 168.1C473.21 170.77 471.72 172.94 471.65 174C471.56 175.43 473.85 176.4 473.87 176.41L473.41 177.37H473.42Z" fill="#C3C3C4"/>
<path d="M511.7 156.85L511.35 142.95L503.5 141.06C503.28 141.01 503.12 140.84 503.08 140.64C503.04 140.43 503.14 140.23 503.33 140.11L511.95 134.9C512.02 134.86 512.09 134.83 512.17 134.82L520.78 133.58C520.85 133.57 520.93 133.58 521 133.58L525.04 134.51C525.29 134.57 525.47 134.78 525.47 135.02V154.68H524.34V135.43L520.83 134.62L512.45 135.83L505 140.33L512.02 142.02C512.26 142.08 512.44 142.28 512.44 142.52L512.8 156.82L511.67 156.84L511.7 156.85Z" fill="#C3C3C4"/>
<path d="M521.44 134.09H520.31V155.33H521.44V134.09Z" fill="#C3C3C4"/>
<path d="M547.83 151.89L546.65 117.89C546.65 117.89 546.65 117.85 546.65 117.83L547.24 111.71L548.36 111.8L547.77 117.88L548.95 151.85L547.82 151.88L547.83 151.89Z" fill="#C3C3C4"/>
<path d="M568.27 147.47L554.9 146.04L555.03 145L568.4 146.43L568.27 147.47Z" fill="#C3C3C4"/>
<path d="M566.11 150.37L554.95 148.75L555.12 147.71L566.28 149.33L566.11 150.37Z" fill="#C3C3C4"/>
<path d="M567.77 149.69L566.02 109.82C566.02 109.68 566.07 109.54 566.17 109.44C566.27 109.34 566.41 109.28 566.57 109.27L570.63 109.15C570.63 109.15 570.65 109.15 570.66 109.15L578.08 109.31C578.38 109.31 578.62 109.54 578.63 109.81L580.45 148.76L579.32 148.81L577.52 110.35L570.64 110.2L567.16 110.3L568.88 149.64L567.75 149.68L567.77 149.69Z" fill="#C3C3C4"/>
<path d="M572.37 149.33L570.08 109.71L571.21 109.65L573.5 149.27L572.37 149.33Z" fill="#C3C3C4"/>
<path d="M545.63 144.48C535.58 143.31 524.84 139.91 524.74 139.88L525.1 138.89C525.21 138.92 535.84 142.28 545.77 143.44L545.63 144.48Z" fill="#C3C3C4"/>
<path d="M545.7 147.47C537.35 146.38 524.91 143.48 524.78 143.45L525.05 142.43C525.17 142.46 537.55 145.35 545.85 146.43L545.69 147.47H545.7Z" fill="#C3C3C4"/>
<path d="M545.9 152.4C537.7 152.3 524.94 149.84 524.81 149.82L525.04 148.79C525.16 148.81 537.23 151.14 545.33 151.34L544.5 118.26C544.5 118.26 544.5 118.22 544.5 118.2L545.1 111.93C545.12 111.69 545.31 111.5 545.57 111.46L546.93 111.24H546.95L555.39 110.22C555.57 110.2 555.75 110.26 555.87 110.38C555.99 110.5 556.05 110.67 556.02 110.84L554.77 117.28L555.66 150.73L554.53 150.76L553.64 117.26C553.64 117.26 553.64 117.19 553.64 117.15L554.76 111.37L547.09 112.29L546.17 112.44L545.61 118.27L546.45 151.87C546.45 152.01 546.39 152.15 546.29 152.25C546.18 152.35 546.04 152.41 545.89 152.41L545.9 152.4Z" fill="#C3C3C4"/>
<path d="M510.14 136.83C509.97 136.71 506.11 133.94 507.04 129.69C507.68 126.77 510.46 123.93 515.29 121.24C521.35 117.88 530.69 114.73 543.07 111.89H543.09C543.29 111.85 563.32 107.99 580.83 109.5C583.38 109.72 585.3 109.97 586.52 110.24C587.58 110.47 588.55 110.78 588.56 111.49C588.56 112.18 587.64 112.53 586.63 112.81C585.8 113.04 584.65 113.28 583.21 113.51C580.78 113.9 578.31 114.16 578.29 114.16L578.17 113.12C578.17 113.12 580.36 112.89 582.62 112.54C585.54 112.09 586.73 111.72 587.2 111.51C586.63 111.3 585.05 110.92 580.74 110.55C563.55 109.06 543.86 112.82 543.35 112.91C515.99 119.18 509.12 125.6 508.17 129.88C507.37 133.48 510.8 135.96 510.84 135.98L510.16 136.82L510.14 136.83Z" fill="#C3C3C4"/>
<path d="M554.29 117.75L554.12 116.71C554.19 116.71 560.95 115.74 566.65 114.78L566.85 115.81C561.13 116.76 554.36 117.73 554.29 117.74V117.75Z" fill="#C3C3C4"/>
<path d="M554.29 123.57L554.13 122.53C554.19 122.53 560.25 121.72 567.02 120.93L567.16 121.97C560.4 122.76 554.34 123.56 554.28 123.57H554.29Z" fill="#C3C3C4"/>
<path d="M511.92 147.46C511.85 147.45 505.24 146.31 497.65 144.36C487.41 141.73 480.36 138.97 476.7 136.14C471.83 132.38 472.35 128.2 473.65 125.34C474.84 122.73 477.01 120.53 479.78 119.16C488.31 114.92 520.04 101.05 570.05 100.45C585.87 100.26 598.1 100.73 606.38 101.84C612.92 102.72 617.01 103.97 618.86 105.68C619.64 106.39 620.03 107.2 620.04 108.08C620.04 109.48 618.65 110.98 616.4 111.98C612.28 113.81 597.47 118.94 578.62 120.71L578.51 119.66C597.2 117.9 611.85 112.83 615.91 111.03C617.71 110.23 618.91 109.05 618.91 108.09C618.91 107.49 618.63 106.95 618.07 106.43C615.37 103.95 604.84 101.08 570.06 101.5C520.3 102.1 488.78 115.88 480.31 120.09C477.77 121.35 475.77 123.36 474.69 125.75C473.02 129.42 473.94 132.64 477.42 135.33C485.9 141.88 511.87 146.39 512.13 146.43L511.93 147.46H511.92Z" fill="#C3C3C4"/>
<path d="M472.79 129.86C472.76 129.79 472.08 128.13 472.24 125.74C472.4 123.55 473.33 120.3 476.91 117.29C479.41 115.19 494.03 107.62 518.98 101.88C532.43 98.78 546.37 96.83 560.43 96.07C577.47 95.15 594.64 96.01 611.44 98.62C611.64 98.65 616.55 99.39 618.95 102.59C620.13 104.16 620.49 106.05 620.02 108.19L618.92 107.98C619.32 106.13 619.03 104.52 618.04 103.19C615.92 100.36 611.32 99.66 611.28 99.65C594.55 97.05 577.47 96.2 560.51 97.11C546.52 97.86 532.65 99.81 519.27 102.89C506.3 105.88 496.52 109.31 490.61 111.67C483.63 114.45 479.09 116.89 477.69 118.06C475.06 120.28 473.61 122.86 473.39 125.76C473.23 127.93 473.85 129.47 473.86 129.48L472.81 129.86H472.79Z" fill="#C3C3C4"/>
<path d="M512.02 135.8C509.1 134.47 507.33 129.47 507.26 129.25L508.33 128.93C508.33 128.93 508.76 130.16 509.51 131.51C510.47 133.24 511.5 134.39 512.51 134.85L512.01 135.79L512.02 135.8Z" fill="#C3C3C4"/>
<path d="M95.8801 168.56L153.08 159.75V206.02L96.5602 207.02" stroke="#C3C3C4" stroke-width="1.46" stroke-miterlimit="10"/>
<path d="M103.32 198.69L103.91 177.48L114.38 175.87V198.69L103.32 199.31V198.69Z" stroke="#C3C3C4" stroke-width="0.97" stroke-miterlimit="10"/>
<path d="M120.23 197.76L120.86 175.52L131.98 173.83V197.76L120.23 198.41V197.76Z" stroke="#C3C3C4" stroke-width="0.97" stroke-miterlimit="10"/>
<path d="M137.23 196.89L137.86 173.28L149.11 171.49V196.89L137.23 197.57V196.89Z" stroke="#C3C3C4" stroke-width="0.97" stroke-miterlimit="10"/>
<path d="M159.91 205.73L220.81 204.55V148.78L159.17 158.59L158.55 205.73H159.91Z" stroke="#C3C3C4" stroke-width="1.46" stroke-miterlimit="10"/>
<path d="M114.21 177.22L105.2 178.53L105.17 179.04L104.48 199.26" stroke="#C3C3C4" stroke-width="0.49" stroke-miterlimit="10"/>
<path d="M131.98 175.22L122.4 176.58L122.37 177.11L121.64 198.2" stroke="#C3C3C4" stroke-width="0.49" stroke-miterlimit="10"/>
<path d="M149.11 172.89L139.35 174.3L139.32 174.88L138.6 197.25" stroke="#C3C3C4" stroke-width="0.49" stroke-miterlimit="10"/>
<path d="M165.86 196.82C166.11 196.82 175.13 196.47 175.13 196.47V172.54C175.13 172.54 175.34 169.09 171.84 168.91C166.41 168.62 166.44 173.57 166.44 173.57L165.86 196.81V196.82Z" stroke="#C3C3C4" stroke-width="0.97" stroke-miterlimit="10"/>
<path d="M167.57 196.53L168.35 173.08C168.37 172.38 168.55 171.68 168.92 171.05C169.39 170.23 170.26 169.31 171.84 168.91" stroke="#C3C3C4" stroke-width="0.49" stroke-miterlimit="10"/>
<path d="M183.04 201.64C183.46 201.64 198.43 201.39 198.43 201.39V166.97C198.43 166.97 198.78 162.01 192.96 161.74C183.92 161.33 183.42 168.9 183.42 168.9L183.05 201.64H183.04Z" stroke="#C3C3C4" stroke-width="0.97" stroke-miterlimit="10"/>
<path d="M185.77 201.39L186.23 169.18C186.34 167.34 187.12 165.56 188.55 164.13C189.56 163.12 190.99 162.17 192.95 161.75" stroke="#C3C3C4" stroke-width="0.49" stroke-miterlimit="10"/>
<path d="M205.91 196.1C206.2 196.1 215.33 195.77 215.33 195.77L215.85 168.42C215.85 168.42 216.09 164.49 212.09 164.28C205.88 163.95 205.92 169.6 205.92 169.6L205.9 196.11L205.91 196.1Z" stroke="#C3C3C4" stroke-width="0.97" stroke-miterlimit="10"/>
<path d="M208.28 196.03L208.13 169.14C208.13 168.25 208.36 167.36 208.85 166.57C209.41 165.67 210.39 164.71 212.09 164.29" stroke="#C3C3C4" stroke-width="0.49" stroke-miterlimit="10"/>
<path d="M347.81 216.78H439.9V174.31L345.56 126.44L95.8801 166.01L96.7201 217.52L347.81 216.78ZM347.81 216.78L345.56 126.44" stroke="#C3C3C4" stroke-width="1.46" stroke-miterlimit="10"/>
<path d="M229.94 204.38L332.41 203V132.63L228.01 148.23L227.66 204.38H229.94Z" stroke="#C3C3C4" stroke-width="1.46" stroke-miterlimit="10"/>
<path d="M439.9 209.88L350.46 202.43L350.45 201.97L348.99 133.11V132.36L439.9 176.44" stroke="#C3C3C4" stroke-width="1.46" stroke-miterlimit="10"/>
<path d="M259.32 159.69L238.64 162.34L238.58 163.17L238.42 195.61" stroke="#C3C3C4" stroke-width="0.49" stroke-miterlimit="10"/>
<path d="M267.52 193L267.93 156.41L291 153.3V193L267.52 194.06V193Z" stroke="#C3C3C4" stroke-width="0.97" stroke-miterlimit="10"/>
<path d="M291 155.52L270.88 158.33L270.83 159.21L270.67 193.56" stroke="#C3C3C4" stroke-width="0.49" stroke-miterlimit="10"/>
<path d="M301.01 192.41L301.44 152.3L325.48 149.25V192.41L301.01 193.56V192.41Z" stroke="#C3C3C4" stroke-width="0.97" stroke-miterlimit="10"/>
<path d="M325.48 151.66L304.04 154.27L303.98 155.23V193.42" stroke="#C3C3C4" stroke-width="0.49" stroke-miterlimit="10"/>
<path d="M439.81 185.48L436.31 183.8L436.72 202.98L439.81 203.82" stroke="#C3C3C4" stroke-width="0.97" stroke-miterlimit="10"/>
<path d="M434.99 202.6L434.58 183.15L428.63 180.43L429.04 201.2L434.99 202.6Z" stroke="#C3C3C4" stroke-width="0.97" stroke-miterlimit="10"/>
<path d="M426.5 200.79L426.03 179.46L419.1 176.47L419.57 199.24L426.5 200.79Z" stroke="#C3C3C4" stroke-width="0.97" stroke-miterlimit="10"/>
<path d="M417.18 198.72L416.7 175.58L409.78 172.33L410.26 197.42L417.18 198.72Z" stroke="#C3C3C4" stroke-width="0.97" stroke-miterlimit="10"/>
<path d="M407.66 196.96L407.19 171.67L400.27 168.13L400.75 195.77L407.66 196.96Z" stroke="#C3C3C4" stroke-width="0.97" stroke-miterlimit="10"/>
<path d="M398.11 195.27L397.93 167.01L389.38 163.11L389.98 193.54L398.11 195.27Z" stroke="#C3C3C4" stroke-width="0.97" stroke-miterlimit="10"/>
<path d="M386.41 192.87L385.77 161.95L376.29 157.67L376.95 191.06L386.41 192.87Z" stroke="#C3C3C4" stroke-width="0.97" stroke-miterlimit="10"/>
<path d="M372.36 190.11L371.33 155.55L360.18 150.68L360.96 188L372.36 190.11Z" stroke="#C3C3C4" stroke-width="0.97" stroke-miterlimit="10"/>
<path d="M360.18 152.83L369.35 156.44L370.18 189.52" stroke="#C3C3C4" stroke-width="0.49" stroke-miterlimit="10"/>
<path d="M376.29 159.71L383.9 162.94L384.59 192.67" stroke="#C3C3C4" stroke-width="0.49" stroke-miterlimit="10"/>
<path d="M389.19 164.77L396.55 168V194.9" stroke="#C3C3C4" stroke-width="0.49" stroke-miterlimit="10"/>
<path d="M400.3 170.03L405.74 172.57L406.15 196.77" stroke="#C3C3C4" stroke-width="0.49" stroke-miterlimit="10"/>
<path d="M409.78 174.04L415.22 176.36L415.63 198.37" stroke="#C3C3C4" stroke-width="0.49" stroke-miterlimit="10"/>
<path d="M419.21 177.92L424.65 180.06L425.06 200.4" stroke="#C3C3C4" stroke-width="0.49" stroke-miterlimit="10"/>
<path d="M428.48 181.76L433.05 183.68L433.4 202.19" stroke="#C3C3C4" stroke-width="0.49" stroke-miterlimit="10"/>
<path d="M158.1 156.32L158.55 114.05L231.54 95.1099L326.6 129.47" stroke="#C3C3C4" stroke-width="1.46" stroke-miterlimit="10"/>
<path d="M158.55 114.05L155.86 113.53V112.05L231.45 91.5898L232.02 144.23" stroke="#C3C3C4" stroke-width="1.46" stroke-miterlimit="10"/>
<path d="M231.66 91.4399L330.88 128.53" stroke="#C3C3C4" stroke-width="1.46" stroke-miterlimit="10"/>
<path d="M247.89 141.83V112.04L258.69 115.12L259.08 140.15" stroke="#C3C3C4" stroke-width="0.97" stroke-miterlimit="10"/>
<path d="M247.89 114.1L256.32 116.4L256.87 140.46" stroke="#C3C3C4" stroke-width="0.49" stroke-miterlimit="10"/>
<path d="M167.08 154.63L168.91 126.24C168.98 125.17 169.3 124.12 169.9 123.18C170.75 121.83 172.29 120.41 174.94 120.74C179.76 121.34 179.34 124.15 179.34 124.15L177.67 153.07" stroke="#C3C3C4" stroke-width="0.97" stroke-miterlimit="10"/>
<path d="M186.08 151.71L187.62 122.12C187.71 121 188.11 119.9 188.87 118.91C189.94 117.5 191.87 116.22 195.24 116.35C200.18 116.54 200.07 119.91 200.07 119.91L199.34 149.61" stroke="#C3C3C4" stroke-width="0.97" stroke-miterlimit="10"/>
<path d="M169.45 154.35L170.73 125.72C170.75 125.02 170.93 124.32 171.3 123.69C171.77 122.87 173.78 121.07 175.35 120.68" stroke="#C3C3C4" stroke-width="0.49" stroke-miterlimit="10"/>
<path d="M188.67 151.58L189.95 121.61C189.97 120.88 190.15 120.15 190.52 119.48C190.99 118.62 193 116.74 194.57 116.33" stroke="#C3C3C4" stroke-width="0.49" stroke-miterlimit="10"/>
<path d="M209.47 148.05L209.9 122.03C209.92 121.05 210.18 120.08 210.74 119.19C211.52 117.93 212.99 116.57 215.66 116.78C220.5 117.15 220.22 119.74 220.22 119.74L219.97 146.23" stroke="#C3C3C4" stroke-width="0.97" stroke-miterlimit="10"/>
<path d="M211.83 147.72L211.7 121.5C211.69 120.86 211.84 120.22 212.17 119.62C212.6 118.85 214.52 117.14 216.07 116.73" stroke="#C3C3C4" stroke-width="0.49" stroke-miterlimit="10"/>
<path d="M235.83 194.64L236.24 160.82L259.32 157.94V194.64L235.83 195.61V194.64Z" stroke="#C3C3C4" stroke-width="0.97" stroke-miterlimit="10"/>
</svg>
