<svg width="107" height="82" viewBox="0 0 107 82" fill="none" xmlns="http://www.w3.org/2000/svg">
<path d="M105.329 23.9201C103.539 20.9201 100.899 19.33 97.4094 19.23C95.7594 19.19 94.2894 20.57 94.0194 22.25C93.7794 23.71 94.7994 25.34 96.2794 25.9C96.7294 26.07 97.2094 26.12 97.6694 26.23C98.8394 26.52 99.3394 27.11 99.4394 28.32C99.4694 28.73 99.4594 29.1401 99.4594 29.5501V68.34C99.4594 68.75 99.4594 69.16 99.4394 69.57C99.1594 73.45 94.8294 75.9901 91.3294 74.2901C88.9894 73.1601 87.9594 71.2501 87.9594 68.6601C87.9794 49.7101 87.9594 30.7701 87.9794 11.8101C87.9794 10.7901 87.9194 9.77002 87.7894 8.75002C87.2094 4.02002 83.6094 0.790061 78.8794 0.790061C55.7794 0.790061 32.6794 0.830022 9.56941 0.750022C5.59941 0.740022 0.849391 4.10003 0.859391 9.38003C0.909391 30.62 0.879399 51.86 0.899399 73.1C0.899399 74.19 0.969418 75.2801 1.44942 76.3001C3.04942 79.6701 5.6194 81.5501 9.3994 81.5501V81.48C9.5994 81.47 9.80942 81.45 10.0094 81.45H93.4094C93.6194 81.45 93.8194 81.47 94.0294 81.48C94.0294 81.51 94.0194 81.5401 94.0194 81.5601C96.0894 81.5901 98.0494 81.22 99.8594 80.14C103.429 78 105.719 75.0201 106.139 70.7801V27.27C105.939 26.14 105.949 24.9701 105.329 23.9201ZM10.6294 75.1601C8.04941 75.1601 7.3094 74.44 7.3094 71.9V10.5401C7.3094 10.1301 7.3094 9.72008 7.3694 9.31008C7.5094 8.26008 8.2594 7.51001 9.3094 7.36001C9.7494 7.30001 10.1994 7.29006 10.6394 7.29006H77.8894C80.5694 7.29006 81.2794 8.00998 81.2794 10.71C81.2794 29.35 81.2894 47.99 81.2694 66.62C81.2694 69.51 81.2894 72.3601 82.9194 75.1601H10.6294Z" fill="#EE6126"/>
<path d="M94.0184 81.48C94.0184 81.48 94.0184 81.5301 94.0184 81.5601C93.8984 81.5601 93.7885 81.5601 93.6685 81.5601H9.39844C9.39844 81.5601 9.39844 81.51 9.39844 81.49C9.60844 81.48 9.80845 81.46 10.0085 81.46H93.4084C93.6084 81.46 93.8184 81.48 94.0184 81.49V81.48Z" fill="black"/>
<path d="M94.0184 81.4802C94.0184 81.4802 94.0184 81.5303 94.0184 81.5603C94.0184 81.5903 94.0184 81.6203 94.0184 81.6603H9.39844C9.39844 81.6603 9.39844 81.5903 9.39844 81.5503C9.39844 81.5303 9.39844 81.5002 9.39844 81.4802C9.60844 81.4702 9.80845 81.4502 10.0085 81.4502H93.4084C93.6084 81.4502 93.8184 81.4702 94.0184 81.4802Z" fill="black"/>
<path d="M67.22 49.3299C66.85 49.3999 66.47 49.41 66.09 49.41H23.08C21.17 49.41 19.9 48.59 19.49 47.13C18.9 45.01 20.4001 43.1099 22.7301 43.0899C26.5201 43.0699 30.32 43.0899 34.12 43.0899H44.59C51.81 43.0899 59.03 43.0799 66.25 43.0899C68.24 43.0899 69.6301 44.22 69.7901 45.91C69.9401 47.58 68.88 49.0099 67.22 49.3299Z" fill="#131956"/>
<path d="M69.7688 62.4396C69.5488 63.8896 68.3288 65.0197 66.7888 65.0397C63.7088 65.0897 60.6288 65.0596 57.5488 65.0696H44.5188C37.2688 65.0696 30.0088 65.0797 22.7588 65.0597C20.5188 65.0597 19.0888 63.4397 19.4288 61.3797C19.6488 60.0497 20.6888 59.0297 22.0288 58.8497C22.4388 58.7997 22.8488 58.7897 23.2588 58.7897C37.4888 58.7797 51.7188 58.7797 65.9588 58.7897C66.5688 58.7897 67.1888 58.7697 67.7788 58.9997C69.1788 59.5397 69.9988 60.9496 69.7688 62.4396Z" fill="#131956"/>
<path d="M37.5886 30.48C37.5686 32.45 36.3386 33.6499 34.3486 33.6899C32.2686 33.7299 30.1786 33.6999 28.0886 33.6999V33.67C25.9386 33.67 23.7786 33.72 21.6286 33.65C20.0886 33.6 18.9586 32.42 18.7886 30.92C18.6286 29.4 19.4886 28.06 20.9186 27.58C21.4186 27.41 21.9386 27.4301 22.4486 27.4301C25.1086 27.4201 27.7786 27.3999 30.4486 27.4399C31.1886 27.4599 31.3586 27.21 31.3486 26.52C31.3186 23.61 31.3186 20.7 31.3586 17.8C31.3886 16.48 32.3186 15.35 33.5386 14.99C34.8186 14.61 36.2086 15.07 37.0086 16.15C37.4286 16.72 37.5986 17.3699 37.5986 18.0699C37.5986 22.2099 37.6286 26.34 37.5986 30.48H37.5886Z" fill="#131956"/>
<path d="M67.6792 33.53C67.1492 33.71 66.5992 33.7 66.0492 33.7H56.8193C53.5993 33.7 50.3793 33.7399 47.1693 33.6899C44.7293 33.6499 43.2092 31.4001 44.1592 29.3101C44.7592 27.9901 45.8493 27.41 47.2893 27.42C50.7793 27.44 54.2693 27.4201 57.7593 27.4301C60.8093 27.4301 63.8492 27.4 66.8992 27.46C68.4192 27.49 69.6192 28.7 69.7792 30.16C69.9492 31.67 69.0892 33.05 67.6792 33.53Z" fill="#131956"/>
</svg>
