<svg width="1366" height="446" viewBox="0 0 1366 446" fill="none" xmlns="http://www.w3.org/2000/svg">
<path d="M158.53 224.61C163.05 209.12 172.59 197.77 187.11 190.8C194.82 187.1 194.43 180.33 194.8 173.51C196.92 134.08 207.98 97.5402 231.67 65.6002C260.37 26.9102 299.87 6.24015 347.21 1.57015C386.57 -2.30985 425.06 1.99013 460.38 22.1101C507.61 49.0101 532.13 91.4101 542.8 143.09C545.26 154.99 547.21 167.07 547.04 179.31C546.96 184.68 549.2 187.83 553.85 190.58C579.36 205.65 585.46 218.69 580.98 247.81C578.51 263.86 575.96 279.89 573.13 295.88C569.05 318.86 549.2 333.03 526.23 328.28C516.47 326.26 508.89 327.99 500.41 332.78C475.54 346.83 449.3 357.73 421.01 363.03C417.98 363.6 414.7 364.05 412.82 366.62C405.91 376.06 395.98 376.95 385.54 376.81C374.02 376.66 362.49 377.1 350.99 376.54C336.95 375.86 329.16 368.09 329.34 356.03C329.52 343.42 337.7 336.28 352.35 336.16C365.22 336.05 378.1 336.26 390.97 336.09C398 336 404.56 336.87 409.45 342.54C412.51 346.07 416.25 344.96 419.82 344.16C454.98 336.2 487.05 321.43 516.23 300.32C520 297.59 522.19 293.93 523.38 289.57C531.31 260.62 535.9 231.91 528.07 201.65C523.92 185.6 526.85 168.07 524.1 151.3C513.44 86.3501 472.9 38.8501 414.2 25.3801C364.98 14.0901 317.54 18.5802 275.65 49.3902C238.74 76.5402 221.93 115.39 215.83 159.6C213.02 179.97 212.29 200.54 209.95 221C206.19 253.89 213.95 285.64 227.88 315.61C231.37 323.11 229.44 325.46 221.97 327.27C193.39 334.21 173.07 321.53 167.77 292.75C164.59 275.48 161.6 258.17 158.52 240.88C158.52 235.47 158.52 230.05 158.52 224.63L158.53 224.61Z" fill="#131956"/>
<path d="M481.59 355.34C483.14 359.76 481.17 361.96 479.85 364.18C464.43 390.1 445.1 412.38 419.76 429.23C387.54 450.65 355 451.5 322.83 430.02C287.13 406.18 261.56 373.88 247.57 333.21C243.14 320.32 236.13 308.73 231.64 295.95C223.83 273.72 216.78 250.49 220.35 227.49C224.14 203.06 223.55 178.39 227.77 154.19C234.49 115.64 250.19 81.9702 282.53 57.8802C368.52 -6.1898 491.45 41.9102 512.27 147.8C514.68 160.08 516.29 172.49 516.44 185.04C516.56 195.14 516.97 204.99 519.53 215.08C522.76 227.82 520.64 241.28 520.01 254.47C518.78 280.11 507.37 297.75 483.46 308.82C465.92 316.94 448.6 325.21 430.12 330.96C423.44 333.04 417.75 332.85 412.46 327.48C407.23 322.18 400.49 320.31 392.98 320.43C379.1 320.66 365.21 320.48 351.33 320.52C336.84 320.57 324.95 326.03 319.81 339.98C314.43 354.57 314.91 369.34 325.8 382C331.21 388.29 338.59 390.81 346.67 390.9C363.6 391.08 380.53 391 397.46 390.97C405.86 390.96 412.4 386.85 417.76 380.88C422.04 376.1 427.14 373.66 433.38 372.3C449.92 368.7 465.4 361.76 481.62 355.36L481.59 355.34Z" fill="white"/>
<path d="M0.719971 246.79C1.70997 302.32 14.9 351.67 41.84 397.3C45.98 404.32 49.85 406.51 56.94 401.33C61.83 397.75 67.12 394.49 72.67 392.1C80.88 388.55 82 384.52 77.12 376.74C58.85 347.63 48.56 315.52 44.22 281.62C37.17 226.54 47.35 174.55 74.96 126.36C80.14 117.32 78.64 113.17 69.75 109.69C66.63 108.47 63.79 106.51 60.87 104.8C50.1566 98.5201 41.9233 100.72 36.17 111.4C12.85 154.5 1.87996 200.75 0.709961 246.8L0.719971 246.79Z" fill="#131956"/>
<path d="M78.1499 248.59C79.6999 288.68 88.7299 325.33 109.05 358.94C113.33 366.01 117.2 366.51 123.54 362.28C130.01 357.97 136.84 354.19 143.63 350.39C148.16 347.86 148.97 344.99 146 340.57C128.26 314.23 120.32 284.56 119.53 253.37C118.73 221.77 126 191.48 142.53 164.16C147.25 156.35 146.47 152.03 138.45 148.39C135.38 147 132.47 145.22 129.56 143.49C110.91 132.39 112.88 132.89 102.86 151.35C86.2599 181.93 79.2199 215.21 78.1499 248.57V248.59Z" fill="#131956"/>
<path d="M696.37 208.25C680.18 208.25 667.81 203.85 659.26 195.04C647.79 184.23 642.05 168.66 642.05 148.33C642.05 128 647.79 112.02 659.26 101.62C667.81 92.8101 680.18 88.4102 696.37 88.4102C712.56 88.4102 724.92 92.8201 733.48 101.62C744.9 112.02 750.61 127.59 750.61 148.33C750.61 169.07 744.9 184.24 733.48 195.04C724.93 203.85 712.56 208.25 696.37 208.25ZM718.73 177.82C724.21 170.91 726.95 161.07 726.95 148.32C726.95 135.57 724.2 125.8 718.69 118.86C713.18 111.92 705.74 108.45 696.37 108.45C687 108.45 679.52 111.91 673.94 118.82C668.36 125.73 665.57 135.57 665.57 148.32C665.57 161.07 668.36 170.91 673.94 177.82C679.52 184.73 687 188.19 696.37 188.19C705.74 188.19 713.2 184.73 718.73 177.82Z" fill="white"/>
<path d="M820.61 193.27C820.4 193.53 819.89 194.3 819.07 195.57C818.25 196.85 817.28 197.98 816.15 198.95C812.72 202.02 809.4 204.12 806.2 205.25C803 206.38 799.25 206.94 794.94 206.94C782.54 206.94 774.2 202.48 769.89 193.57C767.48 188.65 766.28 181.41 766.28 171.83V121.35H788.71V171.83C788.71 176.59 789.27 180.18 790.4 182.59C792.4 186.84 796.32 188.97 802.16 188.97C809.64 188.97 814.76 185.95 817.53 179.9C818.96 176.62 819.68 172.29 819.68 166.92V121.36H841.88V205.1H820.6V193.27H820.61Z" fill="white"/>
<path d="M854.8 121.35H879.39L896.83 183.12L914.65 121.35H938.16L907.97 205.09H884.84L854.8 121.35Z" fill="white"/>
<path d="M973.04 91.1602V111.37H950.84V91.1602H973.04ZM973.04 121.35V205.09H950.84V121.35H973.04Z" fill="white"/>
<path d="M1070.46 92V205.09H1049.18V193.49C1046.06 198.46 1042.5 202.07 1038.5 204.32C1034.5 206.57 1029.54 207.7 1023.6 207.7C1013.82 207.7 1005.58 203.74 998.9 195.83C992.22 187.92 988.87 177.76 988.87 165.37C988.87 151.08 992.16 139.84 998.74 131.64C1005.32 123.45 1014.12 119.35 1025.13 119.35C1030.2 119.35 1034.71 120.46 1038.65 122.69C1042.59 124.92 1045.8 128 1048.25 131.95V92H1070.45H1070.46ZM1011.45 163.76C1011.45 171.49 1012.99 177.67 1016.06 182.28C1019.08 186.94 1023.69 189.27 1029.89 189.27C1036.09 189.27 1040.8 186.97 1044.03 182.36C1047.26 177.75 1048.87 171.78 1048.87 164.46C1048.87 154.22 1046.28 146.89 1041.11 142.49C1037.93 139.83 1034.25 138.49 1030.05 138.49C1023.65 138.49 1018.95 140.91 1015.95 145.75C1012.95 150.59 1011.46 156.6 1011.46 163.77L1011.45 163.76Z" fill="white"/>
<path d="M1160.2 131.96C1167.27 140.82 1170.8 151.3 1170.8 163.38C1170.8 175.46 1167.27 186.19 1160.2 194.92C1153.13 203.65 1142.4 208.02 1128.01 208.02C1113.62 208.02 1102.89 203.65 1095.82 194.92C1088.75 186.19 1085.22 175.67 1085.22 163.38C1085.22 151.09 1088.75 140.82 1095.82 131.96C1102.89 123.1 1113.62 118.67 1128.01 118.67C1142.4 118.67 1153.13 123.1 1160.2 131.96ZM1127.93 137.18C1121.53 137.18 1116.6 139.45 1113.14 143.98C1109.68 148.51 1107.95 154.98 1107.95 163.38C1107.95 171.78 1109.68 178.26 1113.14 182.82C1116.6 187.38 1121.53 189.66 1127.93 189.66C1134.33 189.66 1139.25 187.38 1142.68 182.82C1146.11 178.26 1147.83 171.78 1147.83 163.38C1147.83 154.98 1146.11 148.51 1142.68 143.98C1139.25 139.45 1134.33 137.18 1127.93 137.18Z" fill="white"/>
<path d="M1228.57 141.56C1219.76 141.56 1213.84 144.43 1210.82 150.16C1209.13 153.39 1208.28 158.36 1208.28 165.06V205.09H1186.23V121.35H1207.13V135.95C1210.51 130.37 1213.46 126.55 1215.97 124.5C1220.07 121.07 1225.39 119.35 1231.95 119.35C1232.36 119.35 1232.71 119.36 1232.99 119.39C1233.27 119.42 1233.9 119.45 1234.87 119.51V141.94C1233.49 141.79 1232.26 141.68 1231.18 141.63C1230.1 141.58 1229.23 141.55 1228.57 141.55V141.56Z" fill="white"/>
<path d="M1270.22 91.1602V111.37H1248.02V91.1602H1270.22ZM1270.22 121.35V205.09H1248.02V121.35H1270.22Z" fill="white"/>
<path d="M1294.57 130.42C1300.36 123.04 1310.29 119.36 1324.38 119.36C1333.55 119.36 1341.69 121.18 1348.81 124.81C1355.93 128.45 1359.49 135.31 1359.49 145.4V183.81C1359.49 186.47 1359.54 189.7 1359.64 193.49C1359.79 196.36 1360.23 198.31 1360.95 199.33C1361.67 200.36 1362.74 201.2 1364.18 201.87V205.1H1340.36C1339.69 203.41 1339.23 201.82 1338.98 200.34C1338.72 198.85 1338.52 197.16 1338.37 195.27C1335.35 198.55 1331.86 201.34 1327.92 203.64C1323.21 206.35 1317.88 207.71 1311.94 207.71C1304.36 207.71 1298.1 205.55 1293.16 201.22C1288.22 196.89 1285.75 190.76 1285.75 182.82C1285.75 172.52 1289.72 165.07 1297.66 160.46C1302.01 157.95 1308.42 156.16 1316.87 155.08L1324.32 154.16C1328.37 153.65 1331.26 153.01 1333 152.24C1336.12 150.91 1337.69 148.83 1337.69 146.02C1337.69 142.59 1336.5 140.22 1334.12 138.91C1331.74 137.6 1328.24 136.95 1323.63 136.95C1318.46 136.95 1314.79 138.23 1312.64 140.79C1311.1 142.69 1310.08 145.25 1309.57 148.47H1288.44C1288.9 141.15 1290.95 135.13 1294.59 130.41L1294.57 130.42ZM1310.86 189.27C1312.91 190.96 1315.42 191.81 1318.39 191.81C1323.1 191.81 1327.44 190.43 1331.41 187.66C1335.38 184.89 1337.44 179.85 1337.59 172.52V164.38C1336.21 165.25 1334.81 165.95 1333.4 166.49C1331.99 167.03 1330.06 167.53 1327.6 167.99L1322.68 168.91C1318.07 169.73 1314.77 170.73 1312.77 171.91C1309.39 173.91 1307.7 177.01 1307.7 181.21C1307.7 184.95 1308.75 187.64 1310.85 189.28L1310.86 189.27Z" fill="white"/>
<path d="M689.2 259.77L702.79 336.42H703.15L716.74 259.77H764.94V389.15H733.41V292.75H733.05L715.11 389.15H690.83L672.89 292.75H672.53V389.15H641V259.77H689.2Z" fill="white"/>
<path d="M810.79 291.12V355.81C810.79 359.92 811.39 362.88 812.6 364.69C813.81 366.5 815.86 367.41 818.76 367.41C821.66 367.41 823.71 366.5 824.92 364.69C826.13 362.88 826.73 359.92 826.73 355.81V291.12H859.35V389.15H827.82V377.19H827.46C823.35 386.49 815.44 391.14 803.72 391.14C800.1 391.14 796.74 390.81 793.66 390.14C790.58 389.47 787.89 388.15 785.6 386.15C783.3 384.16 781.49 381.44 780.16 378C778.83 374.56 778.17 370.24 778.17 365.04V291.11H810.79V291.12Z" fill="white"/>
<path d="M903.93 291.12V303.08H904.29C908.52 293.42 916.43 288.58 928.03 288.58C931.65 288.58 935.01 288.97 938.09 289.76C941.17 290.55 943.86 291.97 946.15 294.02C948.44 296.08 950.26 298.79 951.59 302.17C952.92 305.55 953.58 309.9 953.58 315.22V389.15H920.96V324.46C920.96 320.35 920.35 317.39 919.15 315.58C917.94 313.77 915.89 312.86 912.99 312.86C910.09 312.86 908.03 313.77 906.83 315.58C905.62 317.39 905.02 320.35 905.02 324.46V389.15H872.4V291.12H903.93Z" fill="white"/>
<path d="M999.79 259.77V284.05H967.17V259.77H999.79ZM999.79 291.12V389.15H967.17V291.12H999.79Z" fill="white"/>
<path d="M1061.58 319.84C1061.22 317.37 1060.67 315.34 1059.95 313.77C1058.62 310.99 1056.2 309.6 1052.7 309.6C1050.89 309.6 1049.35 310.05 1048.08 310.96C1046.81 311.87 1045.81 313.5 1045.09 315.85C1044.37 318.2 1043.85 321.35 1043.55 325.27C1043.25 329.2 1043.1 334.18 1043.1 340.22C1043.1 346.26 1043.25 351.25 1043.55 355.17C1043.85 359.1 1044.37 362.21 1045.09 364.5C1045.81 366.8 1046.81 368.4 1048.08 369.3C1049.35 370.21 1050.89 370.66 1052.7 370.66C1055.72 370.66 1058.05 369.51 1059.68 367.22C1061.31 364.93 1062.13 360.7 1062.13 354.54V348.2H1091.49C1091.49 355.93 1090.82 362.52 1089.5 367.95C1088.17 373.39 1085.94 377.86 1082.8 381.36C1076.64 387.88 1066.61 391.15 1052.72 391.15C1046.44 391.15 1040.7 390.61 1035.5 389.52C1030.3 388.43 1025.86 386.11 1022.18 382.54C1018.49 378.98 1015.63 373.96 1013.57 367.5C1011.51 361.04 1010.49 352.49 1010.49 341.86C1010.49 330.26 1011.64 320.96 1013.93 313.95C1016.22 306.95 1019.34 301.57 1023.26 297.82C1027.18 294.08 1031.81 291.6 1037.12 290.39C1042.43 289.18 1048.17 288.58 1054.33 288.58C1061.58 288.58 1067.59 289.58 1072.36 291.57C1077.13 293.56 1080.94 296.34 1083.78 299.91C1086.62 303.47 1088.61 307.76 1089.76 312.78C1090.91 317.79 1091.48 323.38 1091.48 329.54H1062.12C1062.12 325.55 1061.94 322.32 1061.58 319.85V319.84Z" fill="white"/>
<path d="M1133.7 259.77V284.05H1101.08V259.77H1133.7ZM1133.7 291.12V389.15H1101.08V291.12H1133.7Z" fill="white"/>
<path d="M1179.36 291.12V304.53H1179.72C1183.46 293.9 1190.89 288.58 1202.01 288.58C1213.13 288.58 1220.49 292.99 1224.84 301.81C1229.19 310.63 1231.36 324.1 1231.36 342.22C1231.36 351.64 1230.64 359.5 1229.19 365.78C1227.74 372.06 1225.72 377.11 1223.12 380.91C1220.52 384.72 1217.38 387.37 1213.7 388.88C1210.01 390.39 1205.88 391.15 1201.29 391.15C1196.7 391.15 1192.56 390.24 1188.88 388.43C1185.19 386.62 1182.51 383.17 1180.82 378.1H1180.46V420.5H1147.84V291.12H1179.37H1179.36ZM1180.81 353.28C1181.05 356.79 1181.5 359.59 1182.17 361.71C1182.83 363.83 1183.77 365.31 1184.98 366.15C1186.19 367 1187.7 367.42 1189.51 367.42C1191.44 367.42 1193.01 367 1194.22 366.15C1195.43 365.31 1196.36 363.83 1197.03 361.71C1197.69 359.6 1198.15 356.79 1198.39 353.28C1198.63 349.78 1198.75 345.37 1198.75 340.05C1198.75 334.73 1198.63 330.36 1198.39 326.91C1198.15 323.47 1197.69 320.69 1197.03 318.57C1196.36 316.46 1195.43 314.98 1194.22 314.13C1193.01 313.29 1191.44 312.86 1189.51 312.86C1187.7 312.86 1186.19 313.28 1184.98 314.13C1183.77 314.98 1182.83 316.46 1182.17 318.57C1181.5 320.69 1181.05 323.46 1180.81 326.91C1180.57 330.35 1180.45 334.73 1180.45 340.05C1180.45 345.37 1180.57 349.78 1180.81 353.28Z" fill="white"/>
<path d="M1287.91 383.9C1287.67 382.09 1287.43 380.16 1287.19 378.1H1286.83C1285.02 382.45 1282.15 385.71 1278.22 387.89C1274.29 390.06 1269.79 391.15 1264.72 391.15C1259.65 391.15 1255.57 390.52 1252.13 389.25C1248.69 387.98 1245.88 386.08 1243.7 383.54C1241.53 381 1239.95 377.98 1238.99 374.48C1238.02 370.98 1237.54 367.11 1237.54 362.88C1237.54 358.29 1237.99 354.3 1238.9 350.92C1239.81 347.54 1241.28 344.61 1243.34 342.13C1245.39 339.66 1248.17 337.54 1251.68 335.79C1255.18 334.04 1259.53 332.56 1264.73 331.35L1277.6 328.27C1281.1 327.43 1283.58 326.19 1285.03 324.56C1286.48 322.93 1287.2 320.6 1287.2 317.58C1287.2 311.54 1284.42 308.52 1278.86 308.52C1275.72 308.52 1273.42 309.4 1271.97 311.15C1270.52 312.9 1269.73 316.38 1269.61 321.57H1241.34C1241.34 314.44 1242.61 308.74 1245.15 304.45C1247.69 300.16 1250.83 296.84 1254.57 294.48C1258.31 292.12 1262.36 290.56 1266.71 289.77C1271.06 288.99 1275.11 288.59 1278.85 288.59C1284.53 288.59 1289.75 289.04 1294.52 289.95C1299.29 290.86 1303.4 292.49 1306.84 294.84C1310.28 297.19 1312.94 300.4 1314.81 304.44C1316.68 308.49 1317.62 313.71 1317.62 320.11V367.95C1317.62 372.54 1317.8 376.59 1318.16 380.09C1318.52 383.6 1319.37 386.61 1320.7 389.15H1289.17C1288.56 387.46 1288.14 385.71 1287.9 383.89L1287.91 383.9ZM1284.82 365.78C1286.39 363.12 1287.18 359.08 1287.18 353.64V341.86H1286.82C1285.85 343.19 1284.37 344.01 1282.38 344.31C1280.39 344.61 1278.18 345.31 1275.77 346.39C1273.23 347.6 1271.48 349.2 1270.51 351.19C1269.54 353.18 1269.06 355.81 1269.06 359.07C1269.06 362.33 1269.78 364.93 1271.23 366.86C1272.68 368.79 1274.61 369.76 1277.03 369.76C1280.65 369.76 1283.25 368.43 1284.82 365.77V365.78Z" fill="white"/>
<path d="M1365.28 259.77V389.15H1332.66V259.77H1365.28Z" fill="white"/>
</svg>
