<svg width="93" height="99" viewBox="0 0 93 99" fill="none" xmlns="http://www.w3.org/2000/svg">
<path d="M79.8579 98.2799C79.8479 98.2199 79.8379 98.1498 79.8479 98.0898C80.4179 97.5898 80.978 97.5898 81.548 98.0898C81.548 98.1598 81.548 98.2199 81.538 98.2899H79.8679L79.8579 98.2799Z" fill="#EE6126"/>
<path d="M89.2888 78.8994C84.6588 73.5294 79.9988 68.1693 75.3088 62.8493C74.7188 62.1693 74.6287 61.7493 75.1287 60.9493C78.4887 55.5893 80.4687 49.7294 80.7587 43.4194C81.3887 29.7794 76.4887 18.3594 66.1387 9.49937C53.7287 -1.14063 36.2087 -2.81065 21.5687 5.09935C6.67868 13.1493 -1.39124 29.0694 0.778761 46.0294C2.04876 55.9694 6.67876 64.2693 14.3988 70.5993C27.0288 80.9593 41.0687 83.6594 56.4487 77.3694C57.1687 77.0794 57.4688 77.2494 57.9088 77.7594C62.5688 83.1594 67.2588 88.5194 71.9288 93.9194C74.0288 96.3494 76.6487 97.7593 79.8487 98.0893H81.5588C81.9988 98.0293 82.4287 98.0094 82.8587 97.9194C91.8187 96.1194 95.2888 85.8694 89.2888 78.8994ZM40.5887 71.0294C23.8387 70.9994 9.82869 57.3293 10.0787 40.7093C10.3787 21.1193 24.7587 9.99937 40.6287 9.99937C56.4987 9.99937 70.8687 21.0593 71.1887 40.6993C71.4587 57.3593 57.3787 71.0594 40.5887 71.0294Z" fill="#EE6126"/>
<path d="M59.138 58.509C57.568 53.009 54.2679 48.9391 49.1879 46.2991C48.9279 46.1691 48.568 46.139 48.458 45.769C56.088 40.589 56.958 30.5791 51.408 24.2891C45.818 17.9391 36.148 17.7391 30.298 23.7991C24.578 29.7291 24.6379 40.109 32.8179 45.819C32.6279 46.169 32.238 46.209 31.928 46.369C26.938 49.049 23.658 53.0891 22.118 58.5591C21.918 59.2791 22.038 59.719 22.588 60.209C32.708 69.419 48.448 69.439 58.638 60.259C59.238 59.729 59.348 59.269 59.138 58.509ZM40.638 44.239C34.718 44.239 30.128 39.619 30.178 33.689C30.218 27.769 34.768 23.209 40.628 23.209C46.488 23.209 51.138 27.8691 51.098 33.7891C51.048 39.7191 46.528 44.239 40.638 44.239Z" fill="#131956"/>
</svg>
