<svg width="69" height="94" viewBox="0 0 69 94" fill="none" xmlns="http://www.w3.org/2000/svg">
<path d="M68.6795 69.5493C68.6095 69.5993 68.5495 69.6092 68.4895 69.5792V71.0293C68.4895 70.6593 68.4795 70.2793 68.4595 69.9093C68.4595 69.7893 68.4596 69.6793 68.4496 69.5593V69.5293C68.4496 69.5293 68.4796 69.5093 68.4496 69.5593C68.4596 69.5693 68.4795 69.5692 68.4895 69.5792V69.5493H68.6795C68.7495 68.0793 68.5195 66.6593 68.0795 65.2593C67.9395 65.1493 67.8695 65.2993 67.7795 65.3393C67.8195 65.1993 67.9295 65.1193 68.0495 65.0493C67.3595 62.0393 65.9895 59.3593 64.1495 56.8993C64.0495 56.6093 63.8895 56.3592 63.6195 56.1992C63.0395 55.1592 61.9095 54.5993 61.3095 53.5593C61.1495 53.2693 60.8195 53.2492 60.5295 53.1892C59.9095 51.8792 58.5896 51.3993 57.5396 50.5893C55.7196 49.1993 53.7695 48.1193 51.5795 47.4693C51.3495 47.2093 51.0095 47.2193 50.7095 47.1293C50.3195 47.0393 49.9296 46.9493 49.5396 46.8493C48.7496 46.3293 48.4195 46.6993 48.2995 47.4993C48.3895 47.4093 48.4895 47.3793 48.5795 47.4193C48.6095 47.4393 48.6396 47.4593 48.6696 47.4893H48.5695C48.4795 47.4893 48.3895 47.4893 48.2995 47.4993C47.8895 48.6493 47.4695 49.8093 47.0495 50.9693C45.7895 54.1293 44.5996 57.3193 43.5096 60.5493C43.4796 60.6293 43.4395 60.6993 43.3995 60.7793C42.3695 63.5193 41.3395 66.2693 40.2095 69.2593C39.8495 67.4793 39.5395 65.9692 39.2395 64.4492C39.1395 63.9492 39.1695 63.4192 38.8995 62.9492C38.6095 62.0992 38.8496 61.1293 38.2896 60.3393C38.3096 58.8793 37.8295 57.4992 37.6295 56.0792C37.5795 55.6792 37.2195 55.7993 36.9695 55.7993C35.7195 55.7993 34.4596 55.7993 33.1996 55.7993C31.9996 55.7993 31.2429 56.3693 30.9295 57.5093C30.8595 57.8493 30.7996 58.1993 30.7296 58.5393C30.0696 62.0193 29.4095 65.5093 28.7495 68.9993C27.0295 64.8793 25.5095 60.7892 23.9995 56.6992C23.5095 55.3692 22.7996 54.0993 22.4196 52.7693C21.8596 50.8193 21.0195 48.9793 20.4395 47.0393C20.3295 46.6793 20.0896 46.5892 19.7296 46.6892C17.6096 47.2592 15.5096 47.8993 13.6396 49.1093C13.5396 49.1893 13.4395 49.2693 13.3395 49.3493C12.1395 49.7393 11.1995 50.5293 10.2495 51.3093C9.79954 51.5793 9.26956 51.7493 9.16956 52.3693C9.01956 52.3693 8.85954 52.3893 8.83954 52.5893C7.70954 53.1393 6.96955 54.0993 6.22955 55.0593C6.16955 55.1793 6.11954 55.3093 6.02954 55.3993C4.39954 56.8893 3.34956 58.7793 2.41956 60.7493C1.98956 61.4993 1.60953 62.2793 1.45953 63.1393C0.879534 64.3893 0.559555 65.6893 0.449555 67.0493C0.429555 67.1093 0.399557 67.1793 0.389557 67.2393C0.0995571 68.1693 0.209539 69.1593 0.0895387 70.1093C0.0295387 70.5793 0.0795437 71.0493 0.469544 71.3993C1.68954 73.7293 3.11953 75.9093 4.79953 77.9293C4.92953 78.2893 5.18955 78.5493 5.47955 78.7793C5.80955 79.3393 6.29954 79.7493 6.71954 80.2293C11.5195 85.7493 17.3695 89.6993 24.2995 92.0593C27.5795 93.1793 30.9895 93.8293 34.3995 93.8993C38.8195 93.9893 43.2395 93.3793 47.4295 91.7593C47.6695 91.6493 47.9696 91.7092 48.1396 91.4492C50.4196 90.7392 52.4995 89.6093 54.5295 88.3893C57.6095 86.5393 60.2796 84.2393 62.7896 81.6793C64.9596 79.4793 66.9196 77.1393 68.5396 74.5093L68.4796 74.4592V73.5792C68.4796 73.7892 68.4795 74.0093 68.4895 74.2193C68.4995 74.3193 68.5196 74.4193 68.5396 74.5093C68.9696 72.8693 68.7095 71.2093 68.6795 69.5593V69.5493ZM0.679535 67.6992L0.659546 67.6793C0.659546 67.6793 0.679545 67.6693 0.689545 67.6593V67.6992H0.679535ZM38.2296 61.0393C38.2896 60.9993 38.2696 61.0393 38.2296 61.0393Z" fill="#131956"/>
<path d="M48.6703 47.4899H48.5703C48.5703 47.4899 48.5703 47.4399 48.5703 47.4199C48.6003 47.4399 48.6303 47.4599 48.6603 47.4899H48.6703Z" fill="#EE6126"/>
<path d="M57.2289 19.4494C56.5989 15.0694 54.7689 11.1594 51.7189 7.86942C51.0189 7.01942 50.3789 6.07944 49.2789 5.64944C48.8889 4.88944 48.1689 4.5194 47.4789 4.0994C46.7889 3.6694 46.0989 3.24937 45.3989 2.81937C44.5789 2.21937 43.6089 1.89947 42.6789 1.54947C36.4989 -0.750531 30.4089 -0.510531 24.4289 2.29947C21.1889 3.81947 18.5389 6.06942 16.3389 8.86942C15.9889 9.11942 15.7189 9.42944 15.7389 9.89944C14.0389 11.6694 13.1589 13.8595 12.4889 16.1695C12.1589 16.6895 12.0789 17.2994 11.9589 17.8894C10.7089 23.3994 11.3689 28.6894 13.9489 33.7094C15.1189 35.9894 16.7289 37.9494 18.5789 39.7494C21.0089 42.1194 23.7589 43.8494 26.9689 44.8594C27.2089 45.1194 27.5489 45.1194 27.8489 45.1994C36.3989 47.5094 44.0389 45.7595 50.4389 39.6695C56.1989 34.1895 58.3589 27.2894 57.2289 19.4494ZM32.1289 45.6595C32.1289 45.6595 32.1189 45.6494 32.1089 45.6494H32.1289C32.1289 45.6494 32.1589 45.6595 32.1689 45.6595H32.1289Z" fill="#EE6126"/>
<path d="M32.1694 45.6594H32.1294C32.1294 45.6594 32.1194 45.6494 32.1094 45.6494H32.1294C32.1294 45.6494 32.1594 45.6594 32.1694 45.6594Z" fill="#EE6126"/>
<path d="M68.5405 74.4994L68.4805 74.4493V73.5693C68.4805 73.7793 68.4804 73.9994 68.4904 74.2094C68.5004 74.3094 68.5205 74.4094 68.5405 74.4994Z" fill="#EE6126"/>
<path d="M68.6802 69.5498C68.6102 69.5998 68.5502 69.6097 68.4902 69.5797V69.5498H68.6802Z" fill="#EE6126"/>
<path d="M34.4103 53.429C33.4603 53.429 32.5103 53.409 31.5603 53.429C31.0803 53.449 30.9103 53.299 30.9203 52.799C30.9503 51.509 30.9503 50.219 30.9203 48.929C30.9203 48.469 30.9803 48.2989 31.5303 48.3689C33.4603 48.5989 35.4003 48.5889 37.3203 48.3689C37.7803 48.3189 37.9103 48.3689 37.9003 48.8489C37.8703 50.1689 37.8703 51.4989 37.9003 52.8189C37.9103 53.3489 37.7003 53.429 37.2503 53.419C36.3003 53.389 35.3503 53.419 34.4003 53.419L34.4103 53.429Z" fill="#EE6126"/>
<path d="M48.6689 47.4897H48.5688C48.4788 47.4897 48.3888 47.4897 48.2988 47.4997C48.3888 47.4097 48.4888 47.3797 48.5788 47.4197C48.6088 47.4397 48.6389 47.4597 48.6689 47.4897Z" fill="#EE6126"/>
<path d="M68.489 69.5791V71.0292C68.489 70.6592 68.479 70.2792 68.459 69.9092C68.459 69.7992 68.459 69.6891 68.489 69.5791Z" fill="#EE6126"/>
<path d="M68.5405 74.4994L68.4805 74.4493V73.5693C68.4805 73.7793 68.4804 73.9994 68.4904 74.2094C68.5004 74.3094 68.5205 74.4094 68.5405 74.4994Z" fill="#EE6126"/>
<path d="M68.6802 69.5498C68.6102 69.5998 68.5502 69.6097 68.4902 69.5797V69.5498H68.6802Z" fill="#EE6126"/>
<path d="M48.6689 47.4897H48.5688C48.4788 47.4897 48.3888 47.4897 48.2988 47.4997C48.3888 47.4097 48.4888 47.3797 48.5788 47.4197C48.6088 47.4397 48.6389 47.4597 48.6689 47.4897Z" fill="#EE6126"/>
<path d="M68.0793 65.2598C67.9393 65.1498 67.8693 65.2997 67.7793 65.3397C67.8193 65.1997 67.9293 65.1198 68.0493 65.0498L68.0793 65.2598Z" fill="#EE6126"/>
<path d="M38.0488 60.3596V60.3496L38.0588 60.3596H38.0488Z" fill="#EE6126"/>
<path d="M68.4492 69.5594V69.5293C68.4492 69.5293 68.4792 69.5094 68.4492 69.5594Z" fill="#EE6126"/>
<path d="M68.4892 69.5795V71.0295C68.4892 70.6595 68.4792 70.2795 68.4592 69.9095C68.4592 69.7895 68.4592 69.6796 68.4492 69.5596C68.4592 69.5696 68.4792 69.5695 68.4892 69.5795Z" fill="#EE6126"/>
<path d="M35.75 48.8394C37.01 48.6794 37.64 49.1061 37.64 50.1194C37.64 51.0594 37.64 52.0094 37.44 52.9594C37.44 52.1294 37.44 51.2994 37.44 50.4694C37.44 49.4827 36.8767 48.9394 35.75 48.8394Z" fill="#EE6126"/>
<path d="M31.5088 48.9297C31.6288 50.3397 31.2388 51.7996 31.7588 53.1896C31.2488 53.2696 31.3088 52.8396 31.3088 52.4696C31.3088 51.2896 31.3088 50.0997 31.3088 48.9197C31.3788 48.8497 31.4488 48.8497 31.5088 48.9197V48.9297Z" fill="#EE6126"/>
<path d="M32.9395 48.7197C33.6595 49.0297 34.4495 48.8498 35.1895 49.0298C34.4295 49.1098 33.6795 49.2698 32.9395 48.9198C32.8795 48.8798 32.8495 48.8298 32.8695 48.7898C32.8895 48.7498 32.9094 48.7197 32.9294 48.7197H32.9395Z" fill="#EE6126"/>
<path d="M32.9403 48.7197C32.9403 48.7897 32.9403 48.8497 32.9403 48.9197C32.4703 48.9197 31.9903 48.9197 31.5203 48.9197C31.4503 48.9197 31.3903 48.9197 31.3203 48.9197C31.8203 48.5197 32.4003 48.8097 32.9403 48.7297V48.7197Z" fill="#EE6126"/>
</svg>
