<svg width="398" height="399" viewBox="0 0 398 399" fill="none" xmlns="http://www.w3.org/2000/svg">
<path d="M258.9 303.77C258.38 303.77 257.81 303.82 257.29 303.82C257.34 303.77 257.45 303.77 257.5 303.72C257.97 303.72 258.43 303.77 258.9 303.77Z" fill="black"/>
<path d="M185.95 166.22C185.95 166.22 185.9 166.2 185.88 166.19H185.91L185.94 166.22H185.95Z" fill="black"/>
<path d="M262.68 304.75C262.32 305.06 261.95 305.27 261.59 305.42C262.52 305.01 263.51 304.64 264.49 304.59C263.87 304.64 263.3 304.69 262.68 304.75ZM262.68 304.75C262.32 305.06 261.95 305.27 261.59 305.42C262.52 305.01 263.51 304.64 264.49 304.59C263.87 304.64 263.3 304.69 262.68 304.75ZM262.68 304.75C262.32 305.06 261.95 305.27 261.59 305.42C262.52 305.01 263.51 304.64 264.49 304.59C263.87 304.64 263.3 304.69 262.68 304.75ZM262.68 304.75C262.32 305.06 261.95 305.27 261.59 305.42C262.52 305.01 263.51 304.64 264.49 304.59C263.87 304.64 263.3 304.69 262.68 304.75ZM262.68 304.75C262.32 305.06 261.95 305.27 261.59 305.42C262.52 305.01 263.51 304.64 264.49 304.59C263.87 304.64 263.3 304.69 262.68 304.75ZM262.68 304.75C262.32 305.06 261.95 305.27 261.59 305.42C262.52 305.01 263.51 304.64 264.49 304.59C263.87 304.64 263.3 304.69 262.68 304.75ZM262.68 304.75C262.32 305.06 261.95 305.27 261.59 305.42C262.52 305.01 263.51 304.64 264.49 304.59C263.87 304.64 263.3 304.69 262.68 304.75ZM262.68 304.75C262.32 305.06 261.95 305.27 261.59 305.42C262.52 305.01 263.51 304.64 264.49 304.59C263.87 304.64 263.3 304.69 262.68 304.75ZM262.68 304.75C262.32 305.06 261.95 305.27 261.59 305.42C262.52 305.01 263.51 304.64 264.49 304.59C263.87 304.64 263.3 304.69 262.68 304.75ZM262.68 304.75C262.32 305.06 261.95 305.27 261.59 305.42C262.52 305.01 263.51 304.64 264.49 304.59C263.87 304.64 263.3 304.69 262.68 304.75ZM262.68 304.75C262.32 305.06 261.95 305.27 261.59 305.42C262.52 305.01 263.51 304.64 264.49 304.59C263.87 304.64 263.3 304.69 262.68 304.75ZM262.68 304.75C262.32 305.06 261.95 305.27 261.59 305.42C262.52 305.01 263.51 304.64 264.49 304.59C263.87 304.64 263.3 304.69 262.68 304.75ZM262.68 304.75C262.32 305.06 261.95 305.27 261.59 305.42C262.52 305.01 263.51 304.64 264.49 304.59C263.87 304.64 263.3 304.69 262.68 304.75ZM262.68 304.75C262.32 305.06 261.95 305.27 261.59 305.42C262.52 305.01 263.51 304.64 264.49 304.59C263.87 304.64 263.3 304.69 262.68 304.75ZM262.68 304.75C262.32 305.06 261.95 305.27 261.59 305.42C262.52 305.01 263.51 304.64 264.49 304.59C263.87 304.64 263.3 304.69 262.68 304.75ZM262.68 304.75C262.32 305.06 261.95 305.27 261.59 305.42C262.52 305.01 263.51 304.64 264.49 304.59C263.87 304.64 263.3 304.69 262.68 304.75ZM262.68 304.75C262.32 305.06 261.95 305.27 261.59 305.42C262.52 305.01 263.51 304.64 264.49 304.59C263.87 304.64 263.3 304.69 262.68 304.75ZM262.68 304.75C262.32 305.06 261.95 305.27 261.59 305.42C262.52 305.01 263.51 304.64 264.49 304.59C263.87 304.64 263.3 304.69 262.68 304.75ZM262.68 304.75C262.32 305.06 261.95 305.27 261.59 305.42C262.52 305.01 263.51 304.64 264.49 304.59C263.87 304.64 263.3 304.69 262.68 304.75ZM262.68 304.75C262.32 305.06 261.95 305.27 261.59 305.42C262.52 305.01 263.51 304.64 264.49 304.59C263.87 304.64 263.3 304.69 262.68 304.75ZM262.68 304.75C262.32 305.06 261.95 305.27 261.59 305.42C262.52 305.01 263.51 304.64 264.49 304.59C263.87 304.64 263.3 304.69 262.68 304.75Z" fill="black"/>
<path d="M396.07 178.46C380.33 28.9202 210.23 -50.2498 84.62 37.6202C57.18 56.7802 36.83 82.0502 20.93 111.2C19.53 111.92 20.05 113.63 19.22 114.67C8.92003 139.06 1.93004 164.17 0.790038 190.84C-0.659962 223.56 6.33003 254.53 19.22 284.41C20.05 285.45 19.53 287.15 20.93 287.88C22.07 289.74 23.26 291.61 24.35 293.52C45.53 331.68 75.09 361.35 115.07 379.11C184.56 410.02 252.18 404.95 314.01 360.68C375.73 316.41 404.05 254.32 396.08 178.47L396.07 178.46ZM327.82 252.09C327.72 297.24 295.98 329.09 250.72 329.24C217.99 329.4 185.17 329.29 152.39 329.29C107.13 329.24 81.04 308.58 70.63 264.57C70.58 264.47 70.58 264.42 70.53 264.36C69.18 260.63 70.12 256.85 70.06 253.07C70.01 214.86 70.01 176.69 70.01 138.53C70.01 137.13 70.01 135.73 70.73 134.49C74.25 120.15 79.17 106.48 90.2 95.8602C95.33 89.4402 101.54 84.3102 109.2 81.1002C119.97 74.0102 132.19 71.6802 144.72 71.5702C180.81 71.3602 216.85 71.5202 252.89 71.4702C268.63 71.4702 282.77 76.4902 296.07 84.4102C298.81 86.6402 301.56 88.8602 304.35 91.0902C321.64 108.7 328.64 129.87 328.01 154.57C327.13 187.04 327.85 219.55 327.8 252.07L327.82 252.09Z" fill="white"/>
<path d="M258.9 303.77C258.38 303.77 257.81 303.82 257.29 303.82C257.34 303.77 257.45 303.77 257.5 303.72C257.97 303.72 258.43 303.77 258.9 303.77Z" fill="#FDFDFD"/>
<path d="M185.95 166.22C185.95 166.22 185.9 166.2 185.88 166.19H185.91L185.94 166.22H185.95Z" fill="#FDFDFD"/>
<path d="M262.68 304.75C262.32 305.06 261.95 305.27 261.59 305.42C262.52 305.01 263.51 304.64 264.49 304.59C263.87 304.64 263.3 304.69 262.68 304.75Z" fill="#FDFDFD"/>
<path d="M262.68 304.75C262.32 305.06 261.95 305.27 261.59 305.42C262.52 305.01 263.51 304.64 264.49 304.59C263.87 304.64 263.3 304.69 262.68 304.75Z" fill="#060606"/>
<path d="M258.9 303.77C258.38 303.77 257.81 303.82 257.29 303.82C257.34 303.77 257.45 303.77 257.5 303.72C257.97 303.72 258.43 303.77 258.9 303.77Z" fill="black"/>
<path d="M185.95 166.22C185.95 166.22 185.9 166.2 185.88 166.19H185.91L185.94 166.22H185.95Z" fill="black"/>
<path d="M258.9 303.77C258.38 303.77 257.81 303.82 257.29 303.82C257.34 303.77 257.45 303.77 257.5 303.72C257.97 303.72 258.43 303.77 258.9 303.77Z" fill="#060606"/>
<path d="M185.95 166.22C185.95 166.22 185.9 166.2 185.88 166.19H185.91L185.94 166.22H185.95Z" fill="#FDFDFD"/>
<path d="M304.42 142.83C298.62 112.9 281.43 96.3803 254.82 96.1803C217.33 95.8703 179.84 95.8703 142.35 96.1803C116.72 96.4403 94.9198 116.84 94.4498 142.32C93.6698 181.47 93.7798 220.66 94.4498 259.81C94.8598 283.06 113.71 302.53 135.82 304.81C137.99 306.52 140.58 306.05 143.07 306.05C180.51 306.1 218 306.1 255.48 306.05C256.52 306.05 257.6 306.1 258.69 306.05H259.21C260.04 305.95 260.82 305.79 261.59 305.48V305.43C261.95 305.27 262.31 305.07 262.68 304.76C263.3 304.71 263.87 304.66 264.49 304.6C264.8 304.6 265.16 304.55 265.47 304.55C266.09 304.5 266.71 304.39 267.28 304.29C267.64 304.24 268 304.13 268.37 304.03C291.41 296.42 302.6 279.85 304.46 256.24C304.46 218.44 304.46 180.64 304.41 142.84L304.42 142.83ZM257.3 303.82C257.35 303.77 257.46 303.77 257.51 303.72C257.98 303.72 258.44 303.77 258.91 303.77C258.39 303.77 257.82 303.82 257.3 303.82ZM257.35 233.71C239.54 266.07 198.68 277.46 166.63 259.55C134.16 241.38 122.72 200.62 140.9 168.06C158.66 136.22 199.51 124.88 231.83 142.79C234.26 144.19 236.65 145.59 239.03 146.98C243.53 151.33 247.99 155.63 252.44 159.92C268.08 183.58 271.34 208.28 257.36 233.71H257.35ZM268.27 147.44C260.04 147.6 252.84 140.66 252.53 132.32C252.22 123.41 259.1 116.22 267.96 116.11C276.24 116.01 283.49 122.89 283.8 131.13C284.16 139.62 276.81 147.34 268.27 147.44Z" fill="white"/>
<path d="M234.1 226.36C221.88 243.29 199.51 249.04 180.77 240.08C178.03 238.79 175.38 237.23 172.74 235.78C170.46 233.71 168.23 231.53 165.96 229.41C151.2 206.21 152.76 185.14 170.41 169.35C171.76 167.18 173.62 165.78 175.95 164.95C193.81 153.46 216.13 156.1 230.47 171.37C244.86 186.75 246.37 209.32 234.1 226.36Z" fill="white"/>
</svg>
