<svg width="400" height="400" viewBox="0 0 400 400" fill="none" xmlns="http://www.w3.org/2000/svg">
<path d="M0.209961 192.19V189.08C2.22996 190.12 1.91996 191.15 0.209961 192.19Z" fill="white"/>
<path d="M202.721 0.5C200.651 2.78 198.581 2.78 196.511 0.5H202.721Z" fill="white"/>
<path d="M399.17 219.74C396.17 270.07 374.47 311.65 339.11 346.03C309.75 374.56 274.54 392.89 233.58 398.79C224.1 400.14 222.4 398.74 222.4 389.21C222.24 342.97 222.24 296.73 222.4 250.54C222.4 241.63 224.11 240.08 232.91 239.87C242.23 239.66 251.6 239.61 260.92 239.87C267.19 240.03 270.45 238.01 271.17 231.27C272.36 219.67 274.12 208.12 275.36 196.53C276.19 188.66 275.77 188.3 267.54 188.19C256.1 188.09 244.71 188.29 233.26 188.14C224.04 187.99 222.49 186.38 222.33 177.06C222.23 166.65 222.07 156.24 222.38 145.89C222.85 132.74 229.27 125.39 242.11 122.59C251.38 120.62 260.75 121.4 270.07 121.45C275.97 121.5 278.61 119.43 278.46 113.32C278.2 103.43 278.3 93.5902 278.41 83.7002C278.46 78.6802 276.6 76.1902 271.32 75.6702C253.97 74.0102 236.57 72.6702 219.38 76.4502C188.88 83.1802 169.36 107.98 169.15 139.31C169.05 152.05 169.25 164.73 169.05 177.47C168.95 186.43 167.39 187.93 158.59 188.14C148.7 188.3 138.86 188.4 128.97 188.09C122.86 187.94 120.68 190.52 120.79 196.43C121 208.13 121.05 219.78 120.74 231.48C120.58 238.11 123.48 240.08 129.65 239.87C138.97 239.56 148.34 239.61 157.66 239.87C166.82 240.08 169.05 242.25 169.05 251.73C169.21 297.19 169.21 342.6 169.05 388.07C169 397.49 165.94 399.67 156 397.39C124.88 390.35 96.7604 376.94 72.0104 356.59C37.9904 328.68 15.9304 293.16 4.28043 250.86C1.64043 241.28 2.42043 231.34 0.19043 221.81V192.19C1.90043 191.15 2.21043 190.12 0.19043 189.08V178.15C2.16043 161.48 5.01042 145.06 11.4304 129.32C34.3204 72.6203 73.8204 33.1102 131.15 11.4702C149.32 4.63024 168.07 2.10023 187.18 0.490234H196.5C198.57 2.77023 200.64 2.77023 202.71 0.490234H208.98C223.27 2.30023 237.77 1.99024 251.91 6.08024C310.73 23.1202 353.76 58.7902 381.26 113.73C398.14 147.44 401.35 182.91 399.18 219.72L399.17 219.74Z" fill="white"/>
<path d="M0.209961 192.19C1.18996 191.15 1.18996 190.12 0.209961 189.08C2.22996 190.12 1.91996 191.15 0.209961 192.19Z" fill="white"/>
<path d="M202.721 0.5C200.651 2.78 198.581 2.78 196.511 0.5C198.581 1.74 200.651 1.74 202.721 0.5Z" fill="white"/>
</svg>
