<svg width="398" height="398" viewBox="0 0 398 398" fill="none" xmlns="http://www.w3.org/2000/svg">
<path d="M210.41 396.63C209.53 396.53 208.6 396.27 208.03 397.3C208.7 396.68 209.48 396.99 210.2 396.89H210.67C211.14 396.89 211.55 396.89 211.91 397.3C211.75 396.32 211.03 396.52 210.41 396.63ZM200.32 397.31C201.61 396.69 202.91 396.69 204.2 397.31C202.91 396.12 201.61 396.17 200.32 397.31ZM192.55 397.31C194.1 396.64 195.66 396.64 197.21 397.31C195.66 396.12 194.1 396.12 192.55 397.31ZM187.11 396.63C186.44 396.53 185.76 396.32 185.61 397.3C185.97 396.89 186.39 396.89 186.85 396.94V396.89H187.32C188.04 396.99 188.82 396.68 189.44 397.3C188.92 396.26 187.99 396.52 187.11 396.63Z" fill="#DF6939"/>
<path d="M396.2 172.32C390.71 131.62 373.88 96 346.49 65.5C325.73 42.41 300.72 25.01 271.77 13.67C252.87 6.21005 233.3 1.19005 212.74 0.730051C197.83 0.370051 182.86 -0.0999522 168 2.18005C135.74 7.15005 106.54 19.53 80.3402 38.89C60.2502 53.75 43.4202 71.82 30.1102 93.05C18.0502 112.42 9.35025 133.08 4.32025 155.34C2.25025 164.4 1.42023 173.57 0.490234 182.78V185.89C0.900234 186.25 0.900238 186.72 0.900238 187.18V189.98C0.900238 190.45 0.900234 190.91 0.490234 191.27V206.8C1.06023 207.27 0.850238 207.94 0.900238 208.56V210.42C0.850238 211.04 1.06023 211.71 0.490234 212.18V215.29C1.32023 219.23 0.960243 223.21 1.53024 227.15C9.09024 277.95 32.9102 319.78 72.1602 352.66C99.5502 375.55 131.19 389.73 166.45 395.69C171.78 396.57 177.22 396.31 182.5 397.29H185.61C185.77 396.31 186.44 396.51 187.11 396.62C187.99 396.52 188.92 396.26 189.44 397.29H192.55C194.1 396.1 195.66 396.1 197.21 397.29H200.32C201.61 396.15 202.91 396.1 204.2 397.29H208.03C208.6 396.25 209.53 396.51 210.41 396.62C211.03 396.52 211.76 396.31 211.91 397.29H214.24C218.18 396.57 222.16 396.88 226.1 396.36C242.93 394.13 259.19 389.73 274.88 383.16C304.19 370.84 329.2 352.71 349.91 328.58C363.32 312.94 374.09 295.75 382.12 276.85C390.72 256.4 396.41 235.22 397.09 212.8C397.5 199.28 398.02 185.72 396.21 172.31L396.2 172.32ZM326.5 262.63C326.5 278.58 316.09 289.09 300.2 289.14C266.39 289.19 232.58 289.14 198.76 289.14C164.94 289.14 131.91 288.78 98.4602 289.3C81.6802 289.56 70.6502 276.98 70.8102 261.49C71.2802 219.29 70.9702 177.09 71.0202 134.89C71.0202 122.36 78.1602 112.88 89.8702 109.67C92.3602 109 94.9402 108.95 97.5302 108.95H299.99C316.2 108.95 326.5 119.41 326.5 135.67C326.55 177.97 326.55 220.33 326.5 262.63Z" fill="white"/>
<path d="M197.21 397.31H192.55C194.1 396.12 195.66 396.12 197.21 397.31Z" fill="white"/>
<path d="M204.2 397.31H200.32C201.61 396.17 202.91 396.12 204.2 397.31Z" fill="white"/>
<path d="M189.441 397.31H187.161C186.951 397.21 186.851 397.1 186.851 396.95V396.9L186.901 396.85C186.951 396.7 187.001 396.64 187.111 396.64C187.991 396.54 188.921 396.28 189.441 397.31Z" fill="white"/>
<path d="M210.67 396.89C210.67 396.94 210.67 397.05 210.62 397.1C210.52 397.2 210.46 397.31 210.36 397.31H208.03C208.6 396.27 209.53 396.53 210.41 396.64C210.51 396.69 210.62 396.79 210.67 396.9V396.89Z" fill="white"/>
<path d="M187.16 397.31H185.61C185.77 396.33 186.44 396.53 187.11 396.64V396.9C187.16 397 187.16 397.16 187.16 397.31Z" fill="white"/>
<path d="M211.91 397.31H210.36C210.36 397.15 210.36 397 210.41 396.9C210.36 396.8 210.41 396.75 210.41 396.64C211.03 396.54 211.76 396.33 211.91 397.31Z" fill="white"/>
<path d="M306 139.96V261.07C306 267.8 305.07 268.73 298.44 268.73H99.1403C92.4103 268.73 91.5303 267.85 91.5303 261.12V144.25C91.5303 143.01 91.2203 141.71 92.0503 140.21C101.01 147.3 109.86 154.29 118.72 161.34C142.75 180.4 166.77 199.5 190.8 218.56C196.7 223.32 200.79 223.32 206.7 218.66C238.91 193.08 271.11 167.5 303.32 141.92C303.99 141.4 304.72 140.88 306.01 139.95L306 139.96Z" fill="white"/>
<path d="M285.801 129.66C273.631 139.34 261.931 148.61 250.281 157.88C233.921 170.88 217.501 183.82 201.241 196.87C199.381 198.37 198.241 198.42 196.321 196.92C168.721 174.91 141.071 152.96 113.371 130.95C113.011 130.64 112.641 130.28 111.971 129.66H285.791H285.801Z" fill="white"/>
</svg>
